<?xml version="1.0" encoding="UTF-8" standalone="no"?>
<!DOCTYPE svg PUBLIC "-//W3C//DTD SVG 1.1//EN"
 "http://www.w3.org/Graphics/SVG/1.1/DTD/svg11.dtd">
<!-- Generated by graphviz version 2.49.3 (20211023.0002)
 -->
<!-- Title: model Pages: 1 -->
<svg width="1129px" height="327px"
 viewBox="0.00 0.00 1129.00 327.00" xmlns="http://www.w3.org/2000/svg" xmlns:xlink="http://www.w3.org/1999/xlink">
<g id="graph0" class="graph" transform="scale(1.0 1.0) rotate(0) translate(4 323)">
<title>model</title>
<polygon fill="white" stroke="transparent" points="-4,4 -4,-323 1125,-323 1125,4 -4,4"/>
<!-- b -->
<g id="node1" class="node">
<title>b</title>
<polygon fill="none" stroke="black" points="317.5,-297.5 317.5,-314.5 962.5,-314.5 962.5,-297.5 317.5,-297.5"/>
<text text-anchor="start" x="624" y="-304.5" font-family="Times,serif" text-decoration="underline" font-size="10.00">b :Bank</text>
<polygon fill="none" stroke="black" points="317.5,-269.5 317.5,-297.5 962.5,-297.5 962.5,-269.5 317.5,-269.5"/>
<text text-anchor="start" x="320.5" y="-286.5" font-family="Times,serif" font-size="10.00">accountsMap = sendItToTheBank8a633aa5&#45;907c&#45;4e57&#45;a313&#45;22e0adb2672e7ec351d6&#45;652f&#45;4691&#45;8e72&#45;ea432d44a0c87f189c12&#45;b4ce&#45;474c&#45;841b&#45;ddb1f21e78b3</text>
<text text-anchor="start" x="320.5" y="-275.5" font-family="Times,serif" font-size="10.00">customerMap = e2f7bc4c&#45;ef2a&#45;466e&#45;b8a5&#45;d24f48b13afe7a6885bf&#45;3f05&#45;4fe7&#45;9272&#45;a6d8acb1be6a1eaf6f4c&#45;4f92&#45;4e04&#45;bd87&#45;c82be03265de</text>
</g>
<!-- sendItToTheBank -->
<g id="node2" class="node">
<title>sendItToTheBank</title>
<polygon fill="none" stroke="black" points="344.5,-209 344.5,-226 489.5,-226 489.5,-209 344.5,-209"/>
<text text-anchor="start" x="361.5" y="-216" font-family="Times,serif" text-decoration="underline" font-size="10.00">sendItToTheBank :Account</text>
<polygon fill="none" stroke="black" points="344.5,-126 344.5,-209 489.5,-209 489.5,-126 344.5,-126"/>
<text text-anchor="start" x="347.5" y="-198" font-family="Times,serif" font-size="10.00">balance = 69420.0</text>
<text text-anchor="start" x="347.5" y="-187" font-family="Times,serif" font-size="10.00">customerId = null</text>
<text text-anchor="start" x="347.5" y="-176" font-family="Times,serif" font-size="10.00">iban = &quot;EE751569673815463522&quot;</text>
<text text-anchor="start" x="347.5" y="-165" font-family="Times,serif" font-size="10.00">id = &quot;sendItToTheBank&quot;</text>
<text text-anchor="start" x="347.5" y="-154" font-family="Times,serif" font-size="10.00">receivedTransaction = </text>
<text text-anchor="start" x="347.5" y="-143" font-family="Times,serif" font-size="10.00">sentTransaction = </text>
<text text-anchor="start" x="347.5" y="-132" font-family="Times,serif" font-size="10.00">status = &quot;ACTIVE&quot;</text>
</g>
<!-- b&#45;&gt;sendItToTheBank -->
<g id="edge1" class="edge">
<title>b&#45;&gt;sendItToTheBank</title>
<path fill="none" stroke="black" d="M580.96,-265.94C557.55,-255.33 530.5,-242.57 506.5,-230 503.45,-228.4 500.35,-226.75 497.24,-225.06"/>
<text text-anchor="middle" x="524.24" y="-228.06" font-family="Times,serif" font-size="10.00">bankAccount</text>
<text text-anchor="middle" x="570.96" y="-257.94" font-family="Times,serif" font-size="10.00">bank</text>
</g>
<!-- 8a633aa5_907c_4e57_a313_22e0adb2672e -->
<g id="node3" class="node">
<title>8a633aa5_907c_4e57_a313_22e0adb2672e</title>
<polygon fill="none" stroke="black" points="75.5,-209 75.5,-226 310.5,-226 310.5,-209 75.5,-209"/>
<text text-anchor="start" x="89" y="-216" font-family="Times,serif" text-decoration="underline" font-size="10.00">8a633aa5&#45;907c&#45;4e57&#45;a313&#45;22e0adb2672e :Account</text>
<polygon fill="none" stroke="black" points="75.5,-126 75.5,-209 310.5,-209 310.5,-126 75.5,-126"/>
<text text-anchor="start" x="78.5" y="-198" font-family="Times,serif" font-size="10.00">balance = 0.0</text>
<text text-anchor="start" x="78.5" y="-187" font-family="Times,serif" font-size="10.00">customerId = &quot;1eaf6f4c&#45;4f92&#45;4e04&#45;bd87&#45;c82be03265de&quot;</text>
<text text-anchor="start" x="78.5" y="-176" font-family="Times,serif" font-size="10.00">iban = null</text>
<text text-anchor="start" x="78.5" y="-165" font-family="Times,serif" font-size="10.00">id = &quot;8a633aa5&#45;907c&#45;4e57&#45;a313&#45;22e0adb2672e&quot;</text>
<text text-anchor="start" x="78.5" y="-154" font-family="Times,serif" font-size="10.00">receivedTransaction = </text>
<text text-anchor="start" x="78.5" y="-143" font-family="Times,serif" font-size="10.00">sentTransaction = </text>
<text text-anchor="start" x="78.5" y="-132" font-family="Times,serif" font-size="10.00">status = &quot;ACTIVE&quot;</text>
</g>
<!-- b&#45;&gt;8a633aa5_907c_4e57_a313_22e0adb2672e -->
<g id="edge2" class="edge">
<title>b&#45;&gt;8a633aa5_907c_4e57_a313_22e0adb2672e</title>
<path fill="none" stroke="black" d="M479.71,-265.93C430.15,-256.45 375.65,-244.42 326.5,-230 323.74,-229.19 320.96,-228.35 318.16,-227.47"/>
<text text-anchor="middle" x="335.66" y="-230.47" font-family="Times,serif" font-size="10.00">accounts</text>
<text text-anchor="middle" x="469.71" y="-257.93" font-family="Times,serif" font-size="10.00">bank</text>
</g>
<!-- 7ec351d6_652f_4691_8e72_ea432d44a0c8 -->
<g id="node4" class="node">
<title>7ec351d6_652f_4691_8e72_ea432d44a0c8</title>
<polygon fill="none" stroke="black" points="523.5,-209 523.5,-226 755.5,-226 755.5,-209 523.5,-209"/>
<text text-anchor="start" x="536" y="-216" font-family="Times,serif" text-decoration="underline" font-size="10.00">7ec351d6&#45;652f&#45;4691&#45;8e72&#45;ea432d44a0c8 :Account</text>
<polygon fill="none" stroke="black" points="523.5,-126 523.5,-209 755.5,-209 755.5,-126 523.5,-126"/>
<text text-anchor="start" x="526.5" y="-198" font-family="Times,serif" font-size="10.00">balance = 100.0</text>
<text text-anchor="start" x="526.5" y="-187" font-family="Times,serif" font-size="10.00">customerId = &quot;e2f7bc4c&#45;ef2a&#45;466e&#45;b8a5&#45;d24f48b13afe&quot;</text>
<text text-anchor="start" x="526.5" y="-176" font-family="Times,serif" font-size="10.00">iban = null</text>
<text text-anchor="start" x="526.5" y="-165" font-family="Times,serif" font-size="10.00">id = &quot;7ec351d6&#45;652f&#45;4691&#45;8e72&#45;ea432d44a0c8&quot;</text>
<text text-anchor="start" x="526.5" y="-154" font-family="Times,serif" font-size="10.00">receivedTransaction = </text>
<text text-anchor="start" x="526.5" y="-143" font-family="Times,serif" font-size="10.00">sentTransaction = </text>
<text text-anchor="start" x="526.5" y="-132" font-family="Times,serif" font-size="10.00">status = &quot;ACTIVE&quot;</text>
</g>
<!-- b&#45;&gt;7ec351d6_652f_4691_8e72_ea432d44a0c8 -->
<g id="edge3" class="edge">
<title>b&#45;&gt;7ec351d6_652f_4691_8e72_ea432d44a0c8</title>
<path fill="none" stroke="black" d="M639.5,-265.8C639.5,-255.25 639.5,-242.63 639.5,-230.25"/>
<text text-anchor="middle" x="622" y="-233.25" font-family="Times,serif" font-size="10.00">accounts</text>
<text text-anchor="middle" x="629.5" y="-257.8" font-family="Times,serif" font-size="10.00">bank</text>
</g>
<!-- 7f189c12_b4ce_474c_841b_ddb1f21e78b3 -->
<g id="node5" class="node">
<title>7f189c12_b4ce_474c_841b_ddb1f21e78b3</title>
<polygon fill="none" stroke="black" points="828.5,-209 828.5,-226 1041.5,-226 1041.5,-209 828.5,-209"/>
<text text-anchor="start" x="831.5" y="-216" font-family="Times,serif" text-decoration="underline" font-size="10.00">7f189c12&#45;b4ce&#45;474c&#45;841b&#45;ddb1f21e78b3 :Account</text>
<polygon fill="none" stroke="black" points="828.5,-126 828.5,-209 1041.5,-209 1041.5,-126 828.5,-126"/>
<text text-anchor="start" x="838" y="-198" font-family="Times,serif" font-size="10.00">balance = 100.0</text>
<text text-anchor="start" x="838" y="-187" font-family="Times,serif" font-size="10.00">customerId = null</text>
<text text-anchor="start" x="838" y="-176" font-family="Times,serif" font-size="10.00">iban = &quot;EE097980535904652110&quot;</text>
<text text-anchor="start" x="838" y="-165" font-family="Times,serif" font-size="10.00">id = &quot;7f189c12&#45;b4ce&#45;474c&#45;841b&#45;ddb1f21e78b3&quot;</text>
<text text-anchor="start" x="838" y="-154" font-family="Times,serif" font-size="10.00">receivedTransaction = </text>
<text text-anchor="start" x="838" y="-143" font-family="Times,serif" font-size="10.00">sentTransaction = </text>
<text text-anchor="start" x="838" y="-132" font-family="Times,serif" font-size="10.00">status = &quot;ACTIVE&quot;</text>
</g>
<!-- b&#45;&gt;7f189c12_b4ce_474c_841b_ddb1f21e78b3 -->
<g id="edge4" class="edge">
<title>b&#45;&gt;7f189c12_b4ce_474c_841b_ddb1f21e78b3</title>
<path fill="none" stroke="black" d="M710.39,-265.86C739.89,-255.03 774.44,-242.13 805.5,-230 810.24,-228.15 815.06,-226.25 819.93,-224.31"/>
<text text-anchor="middle" x="802.43" y="-227.31" font-family="Times,serif" font-size="10.00">accounts</text>
<text text-anchor="middle" x="700.39" y="-257.86" font-family="Times,serif" font-size="10.00">bank</text>
</g>
<!-- e2f7bc4c_ef2a_466e_b8a5_d24f48b13afe -->
<g id="node6" class="node">
<title>e2f7bc4c_ef2a_466e_b8a5_d24f48b13afe</title>
<polygon fill="none" stroke="black" points="556.5,-65 556.5,-82 768.5,-82 768.5,-65 556.5,-65"/>
<text text-anchor="start" x="559.5" y="-72" font-family="Times,serif" text-decoration="underline" font-size="10.00">e2f7bc4c&#45;ef2a&#45;466e&#45;b8a5&#45;d24f48b13afe :Customer</text>
<polygon fill="none" stroke="black" points="556.5,-4 556.5,-65 768.5,-65 768.5,-4 556.5,-4"/>
<text text-anchor="start" x="568" y="-54" font-family="Times,serif" font-size="10.00">email = &quot;john@doe.ee&quot;</text>
<text text-anchor="start" x="568" y="-43" font-family="Times,serif" font-size="10.00">firstName = &quot;John&quot;</text>
<text text-anchor="start" x="568" y="-32" font-family="Times,serif" font-size="10.00">id = &quot;e2f7bc4c&#45;ef2a&#45;466e&#45;b8a5&#45;d24f48b13afe&quot;</text>
<text text-anchor="start" x="568" y="-21" font-family="Times,serif" font-size="10.00">lastName = &quot;Doe&quot;</text>
<text text-anchor="start" x="568" y="-10" font-family="Times,serif" font-size="10.00">password = &quot;pass1234&quot;</text>
</g>
<!-- b&#45;&gt;e2f7bc4c_ef2a_466e_b8a5_d24f48b13afe -->
<g id="edge5" class="edge">
<title>b&#45;&gt;e2f7bc4c_ef2a_466e_b8a5_d24f48b13afe</title>
<path fill="none" stroke="black" d="M731.23,-265.96C747.59,-257.21 762.57,-245.54 772.5,-230 798.36,-189.56 794.54,-164.64 772.5,-122 765.35,-108.17 754.5,-96.26 742.34,-86.21"/>
<text text-anchor="middle" x="721.84" y="-89.21" font-family="Times,serif" font-size="10.00">customers</text>
<text text-anchor="middle" x="721.23" y="-257.96" font-family="Times,serif" font-size="10.00">bank</text>
</g>
<!-- 1eaf6f4c_4f92_4e04_bd87_c82be03265de -->
<g id="node7" class="node">
<title>1eaf6f4c_4f92_4e04_bd87_c82be03265de</title>
<polygon fill="none" stroke="black" points="8.5,-65 8.5,-82 223.5,-82 223.5,-65 8.5,-65"/>
<text text-anchor="start" x="11.5" y="-72" font-family="Times,serif" text-decoration="underline" font-size="10.00">1eaf6f4c&#45;4f92&#45;4e04&#45;bd87&#45;c82be03265de :Customer</text>
<polygon fill="none" stroke="black" points="8.5,-4 8.5,-65 223.5,-65 223.5,-4 8.5,-4"/>
<text text-anchor="start" x="20.5" y="-54" font-family="Times,serif" font-size="10.00">email = &quot;bobby@tt.ee&quot;</text>
<text text-anchor="start" x="20.5" y="-43" font-family="Times,serif" font-size="10.00">firstName = &quot;Bob&quot;</text>
<text text-anchor="start" x="20.5" y="-32" font-family="Times,serif" font-size="10.00">id = &quot;1eaf6f4c&#45;4f92&#45;4e04&#45;bd87&#45;c82be03265de&quot;</text>
<text text-anchor="start" x="20.5" y="-21" font-family="Times,serif" font-size="10.00">lastName = &quot;Jackson&quot;</text>
<text text-anchor="start" x="20.5" y="-10" font-family="Times,serif" font-size="10.00">password = &quot;secret&quot;</text>
</g>
<!-- b&#45;&gt;1eaf6f4c_4f92_4e04_bd87_c82be03265de -->
<g id="edge6" class="edge">
<title>b&#45;&gt;1eaf6f4c_4f92_4e04_bd87_c82be03265de</title>
<path fill="none" stroke="black" d="M308.61,-274.8C188.03,-265.27 76.34,-250.93 57.5,-230 25.39,-194.32 42.41,-167.57 57.5,-122 61.69,-109.34 68.82,-97.07 76.67,-86.15"/>
<text text-anchor="middle" x="56.17" y="-89.15" font-family="Times,serif" font-size="10.00">customers</text>
<text text-anchor="middle" x="298.61" y="-277.8" font-family="Times,serif" font-size="10.00">bank</text>
</g>
<!-- 7a6885bf_3f05_4fe7_9272_a6d8acb1be6a -->
<g id="node8" class="node">
<title>7a6885bf_3f05_4fe7_9272_a6d8acb1be6a</title>
<polygon fill="none" stroke="black" points="898.5,-65 898.5,-82 1113.5,-82 1113.5,-65 898.5,-65"/>
<text text-anchor="start" x="901.5" y="-72" font-family="Times,serif" text-decoration="underline" font-size="10.00">7a6885bf&#45;3f05&#45;4fe7&#45;9272&#45;a6d8acb1be6a :Customer</text>
<polygon fill="none" stroke="black" points="898.5,-4 898.5,-65 1113.5,-65 1113.5,-4 898.5,-4"/>
<text text-anchor="start" x="910.5" y="-54" font-family="Times,serif" font-size="10.00">email = &quot;johntest@doe.ee&quot;</text>
<text text-anchor="start" x="910.5" y="-43" font-family="Times,serif" font-size="10.00">firstName = &quot;johntest&quot;</text>
<text text-anchor="start" x="910.5" y="-32" font-family="Times,serif" font-size="10.00">id = &quot;7a6885bf&#45;3f05&#45;4fe7&#45;9272&#45;a6d8acb1be6a&quot;</text>
<text text-anchor="start" x="910.5" y="-21" font-family="Times,serif" font-size="10.00">lastName = &quot;Doe&quot;</text>
<text text-anchor="start" x="910.5" y="-10" font-family="Times,serif" font-size="10.00">password = &quot;pass1234&quot;</text>
</g>
<!-- b&#45;&gt;7a6885bf_3f05_4fe7_9272_a6d8acb1be6a -->
<g id="edge7" class="edge">
<title>b&#45;&gt;7a6885bf_3f05_4fe7_9272_a6d8acb1be6a</title>
<path fill="none" stroke="black" d="M970.03,-269.01C1010.82,-259.95 1043.48,-247.39 1058.5,-230 1089.88,-193.68 1072.61,-167.88 1058.5,-122 1054.65,-109.48 1048.03,-97.17 1040.75,-86.16"/>
<text text-anchor="middle" x="1020.25" y="-89.16" font-family="Times,serif" font-size="10.00">customers</text>
<text text-anchor="middle" x="980.03" y="-272.01" font-family="Times,serif" font-size="10.00">bank</text>
</g>
<!-- c -->
<g id="node9" class="node">
<title>c</title>
<polygon fill="none" stroke="black" points="335.5,-43 335.5,-60 498.5,-60 498.5,-43 335.5,-43"/>
<text text-anchor="start" x="393.5" y="-50" font-family="Times,serif" text-decoration="underline" font-size="10.00">c :Currency</text>
<polygon fill="none" stroke="black" points="335.5,-26 335.5,-43 498.5,-43 498.5,-26 335.5,-26"/>
<text text-anchor="start" x="338.5" y="-32" font-family="Times,serif" font-size="10.00">declaringClass = class model.Currency</text>
</g>
<!-- sendItToTheBank&#45;&gt;c -->
<g id="edge8" class="edge">
<title>sendItToTheBank&#45;&gt;c</title>
<path fill="none" stroke="black" d="M416.5,-121.72C416.5,-101.46 416.5,-79.58 416.5,-64.22"/>
<text text-anchor="middle" x="399" y="-67.22" font-family="Times,serif" font-size="10.00">currency</text>
</g>
<!-- 8a633aa5_907c_4e57_a313_22e0adb2672e&#45;&gt;1eaf6f4c_4f92_4e04_bd87_c82be03265de -->
<g id="edge10" class="edge">
<title>8a633aa5_907c_4e57_a313_22e0adb2672e&#45;&gt;1eaf6f4c_4f92_4e04_bd87_c82be03265de</title>
<path fill="none" stroke="black" d="M161.18,-121.72C154.27,-109.96 147.04,-97.66 140.42,-86.4"/>
<text text-anchor="middle" x="127.92" y="-89.4" font-family="Times,serif" font-size="10.00">owner</text>
<text text-anchor="middle" x="145.18" y="-113.72" font-family="Times,serif" font-size="10.00">account</text>
</g>
<!-- 8a633aa5_907c_4e57_a313_22e0adb2672e&#45;&gt;c -->
<g id="edge9" class="edge">
<title>8a633aa5_907c_4e57_a313_22e0adb2672e&#45;&gt;c</title>
<path fill="none" stroke="black" d="M283.29,-121.91C318.09,-101.55 355.73,-79.54 382.1,-64.12"/>
<text text-anchor="middle" x="364.6" y="-67.12" font-family="Times,serif" font-size="10.00">currency</text>
</g>
<!-- 7ec351d6_652f_4691_8e72_ea432d44a0c8&#45;&gt;e2f7bc4c_ef2a_466e_b8a5_d24f48b13afe -->
<g id="edge12" class="edge">
<title>7ec351d6_652f_4691_8e72_ea432d44a0c8&#45;&gt;e2f7bc4c_ef2a_466e_b8a5_d24f48b13afe</title>
<path fill="none" stroke="black" d="M648.85,-121.72C650.92,-109.96 653.08,-97.66 655.06,-86.4"/>
<text text-anchor="middle" x="642.56" y="-89.4" font-family="Times,serif" font-size="10.00">owner</text>
<text text-anchor="middle" x="632.85" y="-113.72" font-family="Times,serif" font-size="10.00">account</text>
</g>
<!-- 7ec351d6_652f_4691_8e72_ea432d44a0c8&#45;&gt;c -->
<g id="edge11" class="edge">
<title>7ec351d6_652f_4691_8e72_ea432d44a0c8&#45;&gt;c</title>
<path fill="none" stroke="black" d="M549.12,-121.91C514.47,-101.55 476.99,-79.54 450.75,-64.12"/>
<text text-anchor="middle" x="468.25" y="-67.12" font-family="Times,serif" font-size="10.00">currency</text>
</g>
<!-- 7f189c12_b4ce_474c_841b_ddb1f21e78b3&#45;&gt;7a6885bf_3f05_4fe7_9272_a6d8acb1be6a -->
<g id="edge14" class="edge">
<title>7f189c12_b4ce_474c_841b_ddb1f21e78b3&#45;&gt;7a6885bf_3f05_4fe7_9272_a6d8acb1be6a</title>
<path fill="none" stroke="black" d="M963.38,-121.72C969.75,-109.96 976.42,-97.66 982.52,-86.4"/>
<text text-anchor="middle" x="970.02" y="-89.4" font-family="Times,serif" font-size="10.00">owner</text>
<text text-anchor="middle" x="947.38" y="-113.72" font-family="Times,serif" font-size="10.00">account</text>
</g>
<!-- 7f189c12_b4ce_474c_841b_ddb1f21e78b3&#45;&gt;c -->
<g id="edge13" class="edge">
<title>7f189c12_b4ce_474c_841b_ddb1f21e78b3&#45;&gt;c</title>
<path fill="none" stroke="black" d="M819.67,-134.89C803.93,-130.14 787.9,-125.68 772.5,-122 670.59,-97.63 641.25,-111.03 539.5,-86 515.84,-80.18 490.25,-71.79 468.57,-64.05"/>
<text text-anchor="middle" x="486.07" y="-67.05" font-family="Times,serif" font-size="10.00">currency</text>
</g>
</g>
</svg>
