<?xml version="1.0" encoding="UTF-8" standalone="no"?>
<!DOCTYPE svg PUBLIC "-//W3C//DTD SVG 1.1//EN"
 "http://www.w3.org/Graphics/SVG/1.1/DTD/svg11.dtd">
<!-- Generated by graphviz version 2.44.0 (20200408.0750)
 -->
<!-- Pages: 1 -->
<svg width="563px" height="264px"
 viewBox="0.00 0.00 562.50 264.00" xmlns="http://www.w3.org/2000/svg" xmlns:xlink="http://www.w3.org/1999/xlink">
<g id="graph0" class="graph" transform="scale(1.0 1.0) rotate(0) translate(4 260)">
<polygon fill="white" stroke="transparent" points="-4,4 -4,-260 558.5,-260 558.5,4 -4,4"/>
<!-- b -->
<g id="node1" class="node">
<title>b</title>
<polygon fill="none" stroke="black" points="346,-232 346,-250 383,-250 383,-232 346,-232"/>
<text text-anchor="start" x="348.81" y="-239" font-family="Times,serif" text-decoration="underline" font-size="10.00">b :Bank</text>
<polygon fill="none" stroke="black" points="346,-226 346,-232 383,-232 383,-226 346,-226"/>
</g>
<!-- be483e10_2083_4b3b_946e_919bd3bdb5cf -->
<g id="node2" class="node">
<title>be483e10_2083_4b3b_946e_919bd3bdb5cf</title>
<polygon fill="none" stroke="black" points="8,-162 8,-180 222,-180 222,-162 8,-162"/>
<text text-anchor="start" x="10.72" y="-169" font-family="Times,serif" text-decoration="underline" font-size="10.00">be483e10&#45;2083&#45;4b3b&#45;946e&#45;919bd3bdb5cf :Account</text>
<polygon fill="none" stroke="black" points="8,-132 8,-162 222,-162 222,-132 8,-132"/>
<text text-anchor="start" x="17.01" y="-150" font-family="Times,serif" font-size="10.00">balance = 69420.0</text>
<text text-anchor="start" x="17.01" y="-138" font-family="Times,serif" font-size="10.00">id = &quot;be483e10&#45;2083&#45;4b3b&#45;946e&#45;919bd3bdb5cf&quot;</text>
</g>
<!-- b&#45;&gt;be483e10_2083_4b3b_946e_919bd3bdb5cf -->
<g id="edge1" class="edge">
<title>b&#45;&gt;be483e10_2083_4b3b_946e_919bd3bdb5cf</title>
<path fill="none" stroke="black" d="M336.88,-228.29C304.04,-217.74 247.18,-199.47 199.25,-184.07"/>
<text text-anchor="middle" x="172.59" y="-187.07" font-family="Times,serif" font-size="10.00">bankAccount</text>
<text text-anchor="middle" x="327.16" y="-231.29" font-family="Times,serif" font-size="10.00">bank</text>
</g>
<!-- 3fd3e697_bead_4012_861b_726d16325280 -->
<g id="node3" class="node">
<title>3fd3e697_bead_4012_861b_726d16325280</title>
<polygon fill="none" stroke="black" points="257,-162 257,-180 472,-180 472,-162 257,-162"/>
<text text-anchor="start" x="259.94" y="-169" font-family="Times,serif" text-decoration="underline" font-size="10.00">3fd3e697&#45;bead&#45;4012&#45;861b&#45;726d16325280 :Account</text>
<polygon fill="none" stroke="black" points="257,-132 257,-162 472,-162 472,-132 257,-132"/>
<text text-anchor="start" x="266.23" y="-150" font-family="Times,serif" font-size="10.00">balance = 100.0</text>
<text text-anchor="start" x="266.23" y="-138" font-family="Times,serif" font-size="10.00">id = &quot;3fd3e697&#45;bead&#45;4012&#45;861b&#45;726d16325280&quot;</text>
</g>
<!-- b&#45;&gt;3fd3e697_bead_4012_861b_726d16325280 -->
<g id="edge2" class="edge">
<title>b&#45;&gt;3fd3e697_bead_4012_861b_726d16325280</title>
<path fill="none" stroke="black" d="M364,-219.64C364,-209.26 364,-195.83 364,-184.08"/>
<text text-anchor="middle" x="346.51" y="-187.08" font-family="Times,serif" font-size="10.00">accounts</text>
<text text-anchor="middle" x="354.28" y="-210.64" font-family="Times,serif" font-size="10.00">bank</text>
</g>
<!-- 542357bd_690a_4e52_9059_db26bc3097dd -->
<g id="node4" class="node">
<title>542357bd_690a_4e52_9059_db26bc3097dd</title>
<polygon fill="none" stroke="black" points="326,-70 326,-88 547,-88 547,-70 326,-70"/>
<text text-anchor="start" x="328.6" y="-77" font-family="Times,serif" text-decoration="underline" font-size="10.00">542357bd&#45;690a&#45;4e52&#45;9059&#45;db26bc3097dd :Customer</text>
<polygon fill="none" stroke="black" points="326,-4 326,-70 547,-70 547,-4 326,-4"/>
<text text-anchor="start" x="337.4" y="-58" font-family="Times,serif" font-size="10.00">email = &quot;john@doe.ee&quot;</text>
<text text-anchor="start" x="337.4" y="-46" font-family="Times,serif" font-size="10.00">firstName = &quot;John&quot;</text>
<text text-anchor="start" x="337.4" y="-34" font-family="Times,serif" font-size="10.00">id = &quot;542357bd&#45;690a&#45;4e52&#45;9059&#45;db26bc3097dd&quot;</text>
<text text-anchor="start" x="337.4" y="-22" font-family="Times,serif" font-size="10.00">lastName = &quot;Doe&quot;</text>
<text text-anchor="start" x="337.4" y="-10" font-family="Times,serif" font-size="10.00">password = &quot;pass1234&quot;</text>
</g>
<!-- b&#45;&gt;542357bd_690a_4e52_9059_db26bc3097dd -->
<g id="edge3" class="edge">
<title>b&#45;&gt;542357bd_690a_4e52_9059_db26bc3097dd</title>
<path fill="none" stroke="black" d="M391.21,-234.09C420.97,-229.3 467.33,-216.72 489,-184 507.66,-155.83 492.8,-120.12 474.13,-92.22"/>
<text text-anchor="middle" x="453.86" y="-95.22" font-family="Times,serif" font-size="10.00">customers</text>
<text text-anchor="middle" x="400.93" y="-237.09" font-family="Times,serif" font-size="10.00">bank</text>
</g>
<!-- c -->
<g id="node5" class="node">
<title>c</title>
<polygon fill="none" stroke="black" points="139,-46 139,-64 273,-64 273,-46 139,-46"/>
<text text-anchor="start" x="182.54" y="-53" font-family="Times,serif" text-decoration="underline" font-size="10.00">c :Currency</text>
<polygon fill="none" stroke="black" points="139,-28 139,-46 273,-46 273,-28 139,-28"/>
<text text-anchor="start" x="142" y="-34" font-family="Times,serif" font-size="10.00">declaringClass = class Currency</text>
</g>
<!-- be483e10_2083_4b3b_946e_919bd3bdb5cf&#45;&gt;c -->
<g id="edge4" class="edge">
<title>be483e10_2083_4b3b_946e_919bd3bdb5cf&#45;&gt;c</title>
<path fill="none" stroke="black" d="M137.96,-127.75C153.55,-109.25 173.85,-85.15 188.21,-68.11"/>
<text text-anchor="middle" x="170.72" y="-71.11" font-family="Times,serif" font-size="10.00">currency</text>
</g>
<!-- 3fd3e697_bead_4012_861b_726d16325280&#45;&gt;542357bd_690a_4e52_9059_db26bc3097dd -->
<g id="edge6" class="edge">
<title>3fd3e697_bead_4012_861b_726d16325280&#45;&gt;542357bd_690a_4e52_9059_db26bc3097dd</title>
<path fill="none" stroke="black" d="M382.17,-127.75C389.33,-117 397.76,-104.36 405.79,-92.31"/>
<text text-anchor="middle" x="393.3" y="-95.31" font-family="Times,serif" font-size="10.00">owner</text>
<text text-anchor="middle" x="366.62" y="-118.75" font-family="Times,serif" font-size="10.00">account</text>
</g>
<!-- 3fd3e697_bead_4012_861b_726d16325280&#45;&gt;c -->
<g id="edge5" class="edge">
<title>3fd3e697_bead_4012_861b_726d16325280&#45;&gt;c</title>
<path fill="none" stroke="black" d="M324.13,-127.75C297.07,-109.25 261.82,-85.15 236.89,-68.11"/>
<text text-anchor="middle" x="219.4" y="-71.11" font-family="Times,serif" font-size="10.00">currency</text>
</g>
</g>
</svg>
