<?xml version="1.0" encoding="UTF-8" standalone="no"?>
<!DOCTYPE svg PUBLIC "-//W3C//DTD SVG 1.1//EN"
 "http://www.w3.org/Graphics/SVG/1.1/DTD/svg11.dtd">
<!-- Generated by graphviz version 2.44.0 (20200408.0750)
 -->
<!-- Title: model Pages: 1 -->
<svg width="1125px" height="356px"
 viewBox="0.00 0.00 1125.00 356.00" xmlns="http://www.w3.org/2000/svg" xmlns:xlink="http://www.w3.org/1999/xlink">
<g id="graph0" class="graph" transform="scale(1.0 1.0) rotate(0) translate(4 352)">
<title>model</title>
<polygon fill="white" stroke="transparent" points="-4,4 -4,-352 1121,-352 1121,4 -4,4"/>
<!-- b -->
<g id="node1" class="node">
<title>b</title>
<polygon fill="none" stroke="black" points="314,-326 314,-344 959,-344 959,-326 314,-326"/>
<text text-anchor="start" x="620.81" y="-333" font-family="Times,serif" text-decoration="underline" font-size="10.00">b :Bank</text>
<polygon fill="none" stroke="black" points="314,-296 314,-326 959,-326 959,-296 314,-296"/>
<text text-anchor="start" x="317" y="-314" font-family="Times,serif" font-size="10.00">accountsMap = sendItToTheBank8a633aa5&#45;907c&#45;4e57&#45;a313&#45;22e0adb2672e7ec351d6&#45;652f&#45;4691&#45;8e72&#45;ea432d44a0c85d491cff&#45;8115&#45;4b82&#45;9796&#45;f511044cb474</text>
<text text-anchor="start" x="317" y="-302" font-family="Times,serif" font-size="10.00">customerMap = 5c8b9669&#45;2db7&#45;4a35&#45;82b2&#45;f3a7f07dfd06e2f7bc4c&#45;ef2a&#45;466e&#45;b8a5&#45;d24f48b13afe1eaf6f4c&#45;4f92&#45;4e04&#45;bd87&#45;c82be03265de</text>
</g>
<!-- sendItToTheBank -->
<g id="node2" class="node">
<title>sendItToTheBank</title>
<polygon fill="none" stroke="black" points="342,-234 342,-252 486,-252 486,-234 342,-234"/>
<text text-anchor="start" x="358.32" y="-241" font-family="Times,serif" text-decoration="underline" font-size="10.00">sendItToTheBank :Account</text>
<polygon fill="none" stroke="black" points="342,-132 342,-234 486,-234 486,-132 342,-132"/>
<text text-anchor="start" x="345" y="-222" font-family="Times,serif" font-size="10.00">balance = 69420.0</text>
<text text-anchor="start" x="345" y="-210" font-family="Times,serif" font-size="10.00">count = 0</text>
<text text-anchor="start" x="345" y="-198" font-family="Times,serif" font-size="10.00">customerId = null</text>
<text text-anchor="start" x="345" y="-186" font-family="Times,serif" font-size="10.00">iban = &quot;EE086595234279955194&quot;</text>
<text text-anchor="start" x="345" y="-174" font-family="Times,serif" font-size="10.00">id = &quot;sendItToTheBank&quot;</text>
<text text-anchor="start" x="345" y="-162" font-family="Times,serif" font-size="10.00">receivedTransaction = </text>
<text text-anchor="start" x="345" y="-150" font-family="Times,serif" font-size="10.00">sentTransaction = </text>
<text text-anchor="start" x="345" y="-138" font-family="Times,serif" font-size="10.00">status = &quot;ACTIVE&quot;</text>
</g>
<!-- b&#45;&gt;sendItToTheBank -->
<g id="edge1" class="edge">
<title>b&#45;&gt;sendItToTheBank</title>
<path fill="none" stroke="black" d="M572.93,-291.85C550.43,-281.46 525.17,-268.96 503,-256 500.06,-254.28 497.09,-252.49 494.11,-250.65"/>
<text text-anchor="middle" x="520.77" y="-253.65" font-family="Times,serif" font-size="10.00">bankAccount</text>
<text text-anchor="middle" x="563.21" y="-282.85" font-family="Times,serif" font-size="10.00">bank</text>
</g>
<!-- 8a633aa5_907c_4e57_a313_22e0adb2672e -->
<g id="node3" class="node">
<title>8a633aa5_907c_4e57_a313_22e0adb2672e</title>
<polygon fill="none" stroke="black" points="74,-234 74,-252 308,-252 308,-234 74,-234"/>
<text text-anchor="start" x="87.29" y="-241" font-family="Times,serif" text-decoration="underline" font-size="10.00">8a633aa5&#45;907c&#45;4e57&#45;a313&#45;22e0adb2672e :Account</text>
<polygon fill="none" stroke="black" points="74,-132 74,-234 308,-234 308,-132 74,-132"/>
<text text-anchor="start" x="77" y="-222" font-family="Times,serif" font-size="10.00">balance = 0.0</text>
<text text-anchor="start" x="77" y="-210" font-family="Times,serif" font-size="10.00">count = 0</text>
<text text-anchor="start" x="77" y="-198" font-family="Times,serif" font-size="10.00">customerId = &quot;1eaf6f4c&#45;4f92&#45;4e04&#45;bd87&#45;c82be03265de&quot;</text>
<text text-anchor="start" x="77" y="-186" font-family="Times,serif" font-size="10.00">iban = &quot;EE500467859057350272&quot;</text>
<text text-anchor="start" x="77" y="-174" font-family="Times,serif" font-size="10.00">id = &quot;8a633aa5&#45;907c&#45;4e57&#45;a313&#45;22e0adb2672e&quot;</text>
<text text-anchor="start" x="77" y="-162" font-family="Times,serif" font-size="10.00">receivedTransaction = </text>
<text text-anchor="start" x="77" y="-150" font-family="Times,serif" font-size="10.00">sentTransaction = </text>
<text text-anchor="start" x="77" y="-138" font-family="Times,serif" font-size="10.00">status = &quot;ACTIVE&quot;</text>
</g>
<!-- b&#45;&gt;8a633aa5_907c_4e57_a313_22e0adb2672e -->
<g id="edge2" class="edge">
<title>b&#45;&gt;8a633aa5_907c_4e57_a313_22e0adb2672e</title>
<path fill="none" stroke="black" d="M464.59,-291.92C418.67,-282.6 369.45,-270.72 325,-256 322.07,-255.03 319.12,-254.01 316.16,-252.96"/>
<text text-anchor="middle" x="333.66" y="-255.96" font-family="Times,serif" font-size="10.00">accounts</text>
<text text-anchor="middle" x="454.87" y="-282.92" font-family="Times,serif" font-size="10.00">bank</text>
</g>
<!-- 7ec351d6_652f_4691_8e72_ea432d44a0c8 -->
<g id="node4" class="node">
<title>7ec351d6_652f_4691_8e72_ea432d44a0c8</title>
<polygon fill="none" stroke="black" points="521,-234 521,-252 752,-252 752,-234 521,-234"/>
<text text-anchor="start" x="533.06" y="-241" font-family="Times,serif" text-decoration="underline" font-size="10.00">7ec351d6&#45;652f&#45;4691&#45;8e72&#45;ea432d44a0c8 :Account</text>
<polygon fill="none" stroke="black" points="521,-132 521,-234 752,-234 752,-132 521,-132"/>
<text text-anchor="start" x="524" y="-222" font-family="Times,serif" font-size="10.00">balance = 100.0</text>
<text text-anchor="start" x="524" y="-210" font-family="Times,serif" font-size="10.00">count = 0</text>
<text text-anchor="start" x="524" y="-198" font-family="Times,serif" font-size="10.00">customerId = &quot;e2f7bc4c&#45;ef2a&#45;466e&#45;b8a5&#45;d24f48b13afe&quot;</text>
<text text-anchor="start" x="524" y="-186" font-family="Times,serif" font-size="10.00">iban = &quot;EE508166157234538669&quot;</text>
<text text-anchor="start" x="524" y="-174" font-family="Times,serif" font-size="10.00">id = &quot;7ec351d6&#45;652f&#45;4691&#45;8e72&#45;ea432d44a0c8&quot;</text>
<text text-anchor="start" x="524" y="-162" font-family="Times,serif" font-size="10.00">receivedTransaction = </text>
<text text-anchor="start" x="524" y="-150" font-family="Times,serif" font-size="10.00">sentTransaction = </text>
<text text-anchor="start" x="524" y="-138" font-family="Times,serif" font-size="10.00">status = &quot;ACTIVE&quot;</text>
</g>
<!-- b&#45;&gt;7ec351d6_652f_4691_8e72_ea432d44a0c8 -->
<g id="edge3" class="edge">
<title>b&#45;&gt;7ec351d6_652f_4691_8e72_ea432d44a0c8</title>
<path fill="none" stroke="black" d="M636,-291.97C636,-281.41 636,-268.83 636,-256.23"/>
<text text-anchor="middle" x="618.51" y="-259.23" font-family="Times,serif" font-size="10.00">accounts</text>
<text text-anchor="middle" x="626.28" y="-282.97" font-family="Times,serif" font-size="10.00">bank</text>
</g>
<!-- 5d491cff_8115_4b82_9796_f511044cb474 -->
<g id="node5" class="node">
<title>5d491cff_8115_4b82_9796_f511044cb474</title>
<polygon fill="none" stroke="black" points="824,-234 824,-252 1036,-252 1036,-234 824,-234"/>
<text text-anchor="start" x="826.83" y="-241" font-family="Times,serif" text-decoration="underline" font-size="10.00">5d491cff&#45;8115&#45;4b82&#45;9796&#45;f511044cb474 :Account</text>
<polygon fill="none" stroke="black" points="824,-132 824,-234 1036,-234 1036,-132 824,-132"/>
<text text-anchor="start" x="833.12" y="-222" font-family="Times,serif" font-size="10.00">balance = 100.0</text>
<text text-anchor="start" x="833.12" y="-210" font-family="Times,serif" font-size="10.00">count = 0</text>
<text text-anchor="start" x="833.12" y="-198" font-family="Times,serif" font-size="10.00">customerId = null</text>
<text text-anchor="start" x="833.12" y="-186" font-family="Times,serif" font-size="10.00">iban = &quot;EE453565873587984612&quot;</text>
<text text-anchor="start" x="833.12" y="-174" font-family="Times,serif" font-size="10.00">id = &quot;5d491cff&#45;8115&#45;4b82&#45;9796&#45;f511044cb474&quot;</text>
<text text-anchor="start" x="833.12" y="-162" font-family="Times,serif" font-size="10.00">receivedTransaction = </text>
<text text-anchor="start" x="833.12" y="-150" font-family="Times,serif" font-size="10.00">sentTransaction = </text>
<text text-anchor="start" x="833.12" y="-138" font-family="Times,serif" font-size="10.00">status = &quot;ACTIVE&quot;</text>
</g>
<!-- b&#45;&gt;5d491cff_8115_4b82_9796_f511044cb474 -->
<g id="edge4" class="edge">
<title>b&#45;&gt;5d491cff_8115_4b82_9796_f511044cb474</title>
<path fill="none" stroke="black" d="M711.81,-291.95C740.32,-281.33 772.88,-268.66 802,-256 806.54,-254.03 811.16,-251.97 815.8,-249.87"/>
<text text-anchor="middle" x="798.31" y="-252.87" font-family="Times,serif" font-size="10.00">accounts</text>
<text text-anchor="middle" x="702.09" y="-282.95" font-family="Times,serif" font-size="10.00">bank</text>
</g>
<!-- e2f7bc4c_ef2a_466e_b8a5_d24f48b13afe -->
<g id="node6" class="node">
<title>e2f7bc4c_ef2a_466e_b8a5_d24f48b13afe</title>
<polygon fill="none" stroke="black" points="554,-70 554,-88 765,-88 765,-70 554,-70"/>
<text text-anchor="start" x="556.63" y="-77" font-family="Times,serif" text-decoration="underline" font-size="10.00">e2f7bc4c&#45;ef2a&#45;466e&#45;b8a5&#45;d24f48b13afe :Customer</text>
<polygon fill="none" stroke="black" points="554,-4 554,-70 765,-70 765,-4 554,-4"/>
<text text-anchor="start" x="565.42" y="-58" font-family="Times,serif" font-size="10.00">email = &quot;john@doe.ee&quot;</text>
<text text-anchor="start" x="565.42" y="-46" font-family="Times,serif" font-size="10.00">firstName = &quot;John&quot;</text>
<text text-anchor="start" x="565.42" y="-34" font-family="Times,serif" font-size="10.00">id = &quot;e2f7bc4c&#45;ef2a&#45;466e&#45;b8a5&#45;d24f48b13afe&quot;</text>
<text text-anchor="start" x="565.42" y="-22" font-family="Times,serif" font-size="10.00">lastName = &quot;Doe&quot;</text>
<text text-anchor="start" x="565.42" y="-10" font-family="Times,serif" font-size="10.00">password = &quot;pass1234&quot;</text>
</g>
<!-- b&#45;&gt;e2f7bc4c_ef2a_466e_b8a5_d24f48b13afe -->
<g id="edge5" class="edge">
<title>b&#45;&gt;e2f7bc4c_ef2a_466e_b8a5_d24f48b13afe</title>
<path fill="none" stroke="black" d="M728.79,-291.87C744.75,-283 759.3,-271.33 769,-256 799.42,-207.93 794.66,-178.77 769,-128 762.05,-114.24 751.53,-102.25 739.71,-92.01"/>
<text text-anchor="middle" x="719.44" y="-95.01" font-family="Times,serif" font-size="10.00">customers</text>
<text text-anchor="middle" x="738.51" y="-282.87" font-family="Times,serif" font-size="10.00">bank</text>
</g>
<!-- 1eaf6f4c_4f92_4e04_bd87_c82be03265de -->
<g id="node7" class="node">
<title>1eaf6f4c_4f92_4e04_bd87_c82be03265de</title>
<polygon fill="none" stroke="black" points="8,-70 8,-88 222,-88 222,-70 8,-70"/>
<text text-anchor="start" x="10.73" y="-77" font-family="Times,serif" text-decoration="underline" font-size="10.00">1eaf6f4c&#45;4f92&#45;4e04&#45;bd87&#45;c82be03265de :Customer</text>
<polygon fill="none" stroke="black" points="8,-4 8,-70 222,-70 222,-4 8,-4"/>
<text text-anchor="start" x="19.52" y="-58" font-family="Times,serif" font-size="10.00">email = &quot;bobby@tt.ee&quot;</text>
<text text-anchor="start" x="19.52" y="-46" font-family="Times,serif" font-size="10.00">firstName = &quot;Bob&quot;</text>
<text text-anchor="start" x="19.52" y="-34" font-family="Times,serif" font-size="10.00">id = &quot;1eaf6f4c&#45;4f92&#45;4e04&#45;bd87&#45;c82be03265de&quot;</text>
<text text-anchor="start" x="19.52" y="-22" font-family="Times,serif" font-size="10.00">lastName = &quot;Jackson&quot;</text>
<text text-anchor="start" x="19.52" y="-10" font-family="Times,serif" font-size="10.00">password = &quot;secret&quot;</text>
</g>
<!-- b&#45;&gt;1eaf6f4c_4f92_4e04_bd87_c82be03265de -->
<g id="edge6" class="edge">
<title>b&#45;&gt;1eaf6f4c_4f92_4e04_bd87_c82be03265de</title>
<path fill="none" stroke="black" d="M305.17,-301.2C185.83,-291.34 75.63,-276.77 57,-256 19.01,-213.65 39.61,-182.16 57,-128 61.02,-115.48 67.76,-103.26 75.26,-92.26"/>
<text text-anchor="middle" x="54.99" y="-95.26" font-family="Times,serif" font-size="10.00">customers</text>
<text text-anchor="middle" x="295.45" y="-304.2" font-family="Times,serif" font-size="10.00">bank</text>
</g>
<!-- 5c8b9669_2db7_4a35_82b2_f3a7f07dfd06 -->
<g id="node8" class="node">
<title>5c8b9669_2db7_4a35_82b2_f3a7f07dfd06</title>
<polygon fill="none" stroke="black" points="893,-70 893,-88 1109,-88 1109,-70 893,-70"/>
<text text-anchor="start" x="895.61" y="-77" font-family="Times,serif" text-decoration="underline" font-size="10.00">5c8b9669&#45;2db7&#45;4a35&#45;82b2&#45;f3a7f07dfd06 :Customer</text>
<polygon fill="none" stroke="black" points="893,-4 893,-70 1109,-70 1109,-4 893,-4"/>
<text text-anchor="start" x="904.4" y="-58" font-family="Times,serif" font-size="10.00">email = &quot;johntest@doe.ee&quot;</text>
<text text-anchor="start" x="904.4" y="-46" font-family="Times,serif" font-size="10.00">firstName = &quot;johntest&quot;</text>
<text text-anchor="start" x="904.4" y="-34" font-family="Times,serif" font-size="10.00">id = &quot;5c8b9669&#45;2db7&#45;4a35&#45;82b2&#45;f3a7f07dfd06&quot;</text>
<text text-anchor="start" x="904.4" y="-22" font-family="Times,serif" font-size="10.00">lastName = &quot;Doe&quot;</text>
<text text-anchor="start" x="904.4" y="-10" font-family="Times,serif" font-size="10.00">password = &quot;pass1234&quot;</text>
</g>
<!-- b&#45;&gt;5c8b9669_2db7_4a35_82b2_f3a7f07dfd06 -->
<g id="edge7" class="edge">
<title>b&#45;&gt;5c8b9669_2db7_4a35_82b2_f3a7f07dfd06</title>
<path fill="none" stroke="black" d="M966.94,-294.72C1006.62,-285.57 1038.32,-273.07 1053,-256 1090.1,-212.87 1069.01,-182.59 1053,-128 1049.38,-115.65 1043.23,-103.41 1036.4,-92.31"/>
<text text-anchor="middle" x="1016.13" y="-95.31" font-family="Times,serif" font-size="10.00">customers</text>
<text text-anchor="middle" x="976.66" y="-297.72" font-family="Times,serif" font-size="10.00">bank</text>
</g>
<!-- c -->
<g id="node9" class="node">
<title>c</title>
<polygon fill="none" stroke="black" points="333,-46 333,-64 495,-64 495,-46 333,-46"/>
<text text-anchor="start" x="390.54" y="-53" font-family="Times,serif" text-decoration="underline" font-size="10.00">c :Currency</text>
<polygon fill="none" stroke="black" points="333,-28 333,-46 495,-46 495,-28 333,-28"/>
<text text-anchor="start" x="336" y="-34" font-family="Times,serif" font-size="10.00">declaringClass = class model.Currency</text>
</g>
<!-- sendItToTheBank&#45;&gt;c -->
<g id="edge8" class="edge">
<title>sendItToTheBank&#45;&gt;c</title>
<path fill="none" stroke="black" d="M414,-127.84C414,-106.38 414,-83.85 414,-68.05"/>
<text text-anchor="middle" x="396.51" y="-71.05" font-family="Times,serif" font-size="10.00">currency</text>
</g>
<!-- 8a633aa5_907c_4e57_a313_22e0adb2672e&#45;&gt;1eaf6f4c_4f92_4e04_bd87_c82be03265de -->
<g id="edge10" class="edge">
<title>8a633aa5_907c_4e57_a313_22e0adb2672e&#45;&gt;1eaf6f4c_4f92_4e04_bd87_c82be03265de</title>
<path fill="none" stroke="black" d="M157.67,-127.84C151.36,-115.9 144.89,-103.63 138.95,-92.37"/>
<text text-anchor="middle" x="126.45" y="-95.37" font-family="Times,serif" font-size="10.00">owner</text>
<text text-anchor="middle" x="142.12" y="-118.84" font-family="Times,serif" font-size="10.00">account</text>
</g>
<!-- 8a633aa5_907c_4e57_a313_22e0adb2672e&#45;&gt;c -->
<g id="edge9" class="edge">
<title>8a633aa5_907c_4e57_a313_22e0adb2672e&#45;&gt;c</title>
<path fill="none" stroke="black" d="M288.81,-127.84C322.05,-106.38 356.93,-83.85 381.41,-68.05"/>
<text text-anchor="middle" x="363.92" y="-71.05" font-family="Times,serif" font-size="10.00">currency</text>
</g>
<!-- 7ec351d6_652f_4691_8e72_ea432d44a0c8&#45;&gt;e2f7bc4c_ef2a_466e_b8a5_d24f48b13afe -->
<g id="edge12" class="edge">
<title>7ec351d6_652f_4691_8e72_ea432d44a0c8&#45;&gt;e2f7bc4c_ef2a_466e_b8a5_d24f48b13afe</title>
<path fill="none" stroke="black" d="M646.09,-127.84C648,-115.9 649.95,-103.63 651.75,-92.37"/>
<text text-anchor="middle" x="639.26" y="-95.37" font-family="Times,serif" font-size="10.00">owner</text>
<text text-anchor="middle" x="630.54" y="-118.84" font-family="Times,serif" font-size="10.00">account</text>
</g>
<!-- 7ec351d6_652f_4691_8e72_ea432d44a0c8&#45;&gt;c -->
<g id="edge11" class="edge">
<title>7ec351d6_652f_4691_8e72_ea432d44a0c8&#45;&gt;c</title>
<path fill="none" stroke="black" d="M538.63,-127.84C505.54,-106.38 470.81,-83.85 446.45,-68.05"/>
<text text-anchor="middle" x="463.94" y="-71.05" font-family="Times,serif" font-size="10.00">currency</text>
</g>
<!-- 5d491cff_8115_4b82_9796_f511044cb474&#45;&gt;5c8b9669_2db7_4a35_82b2_f3a7f07dfd06 -->
<g id="edge14" class="edge">
<title>5d491cff_8115_4b82_9796_f511044cb474&#45;&gt;5c8b9669_2db7_4a35_82b2_f3a7f07dfd06</title>
<path fill="none" stroke="black" d="M961.14,-127.84C967.03,-115.9 973.08,-103.63 978.63,-92.37"/>
<text text-anchor="middle" x="966.14" y="-95.37" font-family="Times,serif" font-size="10.00">owner</text>
<text text-anchor="middle" x="945.59" y="-118.84" font-family="Times,serif" font-size="10.00">account</text>
</g>
<!-- 5d491cff_8115_4b82_9796_f511044cb474&#45;&gt;c -->
<g id="edge13" class="edge">
<title>5d491cff_8115_4b82_9796_f511044cb474&#45;&gt;c</title>
<path fill="none" stroke="black" d="M815.82,-142.8C800.26,-137.27 784.36,-132.14 769,-128 668.26,-100.83 638.04,-118.05 537,-92 512.67,-85.73 486.43,-76.49 464.46,-68.01"/>
<text text-anchor="middle" x="481.94" y="-71.01" font-family="Times,serif" font-size="10.00">currency</text>
</g>
</g>
</svg>
