<?xml version="1.0" encoding="UTF-8" standalone="no"?>
<!DOCTYPE svg PUBLIC "-//W3C//DTD SVG 1.1//EN"
 "http://www.w3.org/Graphics/SVG/1.1/DTD/svg11.dtd">
<!-- Generated by graphviz version 2.49.3 (20211023.0002)
 -->
<!-- Pages: 1 -->
<svg width="555px" height="255px"
 viewBox="0.00 0.00 554.50 255.00" xmlns="http://www.w3.org/2000/svg" xmlns:xlink="http://www.w3.org/1999/xlink">
<g id="graph0" class="graph" transform="scale(1.0 1.0) rotate(0) translate(4 251)">
<polygon fill="white" stroke="transparent" points="-4,4 -4,-251 550.5,-251 550.5,4 -4,4"/>
<!-- b -->
<g id="node1" class="node">
<title>b</title>
<polygon fill="none" stroke="black" points="341.5,-223 341.5,-240 379.5,-240 379.5,-223 341.5,-223"/>
<text text-anchor="start" x="344.5" y="-230" font-family="Times,serif" text-decoration="underline" font-size="10.00">b :Bank</text>
<polygon fill="none" stroke="black" points="341.5,-217 341.5,-223 379.5,-223 379.5,-217 341.5,-217"/>
</g>
<!-- d5a26d37_99b4_4fc8_a4aa_8fa123636caa -->
<g id="node2" class="node">
<title>d5a26d37_99b4_4fc8_a4aa_8fa123636caa</title>
<polygon fill="none" stroke="black" points="8.5,-153.5 8.5,-170.5 219.5,-170.5 219.5,-153.5 8.5,-153.5"/>
<text text-anchor="start" x="11.5" y="-160.5" font-family="Times,serif" text-decoration="underline" font-size="10.00">d5a26d37&#45;99b4&#45;4fc8&#45;a4aa&#45;8fa123636caa :Account</text>
<polygon fill="none" stroke="black" points="8.5,-125.5 8.5,-153.5 219.5,-153.5 219.5,-125.5 8.5,-125.5"/>
<text text-anchor="start" x="18" y="-142.5" font-family="Times,serif" font-size="10.00">balance = 69420.0</text>
<text text-anchor="start" x="18" y="-131.5" font-family="Times,serif" font-size="10.00">id = &quot;d5a26d37&#45;99b4&#45;4fc8&#45;a4aa&#45;8fa123636caa&quot;</text>
</g>
<!-- b&#45;&gt;d5a26d37_99b4_4fc8_a4aa_8fa123636caa -->
<g id="edge1" class="edge">
<title>b&#45;&gt;d5a26d37_99b4_4fc8_a4aa_8fa123636caa</title>
<path fill="none" stroke="black" d="M333.12,-219.3C299.71,-208.68 241.74,-190.26 193.74,-175"/>
<text text-anchor="middle" x="166.74" y="-178" font-family="Times,serif" font-size="10.00">bankAccount</text>
<text text-anchor="middle" x="323.12" y="-222.3" font-family="Times,serif" font-size="10.00">bank</text>
</g>
<!-- 67fe5d86_a7a5_45a7_8828_626191d5a8ed -->
<g id="node3" class="node">
<title>67fe5d86_a7a5_45a7_8828_626191d5a8ed</title>
<polygon fill="none" stroke="black" points="253.5,-153.5 253.5,-170.5 467.5,-170.5 467.5,-153.5 253.5,-153.5"/>
<text text-anchor="start" x="256.5" y="-160.5" font-family="Times,serif" text-decoration="underline" font-size="10.00">67fe5d86&#45;a7a5&#45;45a7&#45;8828&#45;626191d5a8ed :Account</text>
<polygon fill="none" stroke="black" points="253.5,-125.5 253.5,-153.5 467.5,-153.5 467.5,-125.5 253.5,-125.5"/>
<text text-anchor="start" x="263" y="-142.5" font-family="Times,serif" font-size="10.00">balance = 100.0</text>
<text text-anchor="start" x="263" y="-131.5" font-family="Times,serif" font-size="10.00">id = &quot;67fe5d86&#45;a7a5&#45;45a7&#45;8828&#45;626191d5a8ed&quot;</text>
</g>
<!-- b&#45;&gt;67fe5d86_a7a5_45a7_8828_626191d5a8ed -->
<g id="edge2" class="edge">
<title>b&#45;&gt;67fe5d86_a7a5_45a7_8828_626191d5a8ed</title>
<path fill="none" stroke="black" d="M360.5,-210.97C360.5,-200.51 360.5,-186.9 360.5,-175.16"/>
<text text-anchor="middle" x="343" y="-178.16" font-family="Times,serif" font-size="10.00">accounts</text>
<text text-anchor="middle" x="350.5" y="-202.97" font-family="Times,serif" font-size="10.00">bank</text>
</g>
<!-- 5dedcfdf_276f_4902_88d1_cee959b0111f -->
<g id="node4" class="node">
<title>5dedcfdf_276f_4902_88d1_cee959b0111f</title>
<polygon fill="none" stroke="black" points="324.5,-65 324.5,-82 538.5,-82 538.5,-65 324.5,-65"/>
<text text-anchor="start" x="327.5" y="-72" font-family="Times,serif" text-decoration="underline" font-size="10.00">5dedcfdf&#45;276f&#45;4902&#45;88d1&#45;cee959b0111f :Customer</text>
<polygon fill="none" stroke="black" points="324.5,-4 324.5,-65 538.5,-65 538.5,-4 324.5,-4"/>
<text text-anchor="start" x="336.5" y="-54" font-family="Times,serif" font-size="10.00">email = &quot;john@doe.ee&quot;</text>
<text text-anchor="start" x="336.5" y="-43" font-family="Times,serif" font-size="10.00">firstName = &quot;John&quot;</text>
<text text-anchor="start" x="336.5" y="-32" font-family="Times,serif" font-size="10.00">id = &quot;5dedcfdf&#45;276f&#45;4902&#45;88d1&#45;cee959b0111f&quot;</text>
<text text-anchor="start" x="336.5" y="-21" font-family="Times,serif" font-size="10.00">lastName = &quot;Doe&quot;</text>
<text text-anchor="start" x="336.5" y="-10" font-family="Times,serif" font-size="10.00">password = &quot;pass1234&quot;</text>
</g>
<!-- b&#45;&gt;5dedcfdf_276f_4902_88d1_cee959b0111f -->
<g id="edge3" class="edge">
<title>b&#45;&gt;5dedcfdf_276f_4902_88d1_cee959b0111f</title>
<path fill="none" stroke="black" d="M387.76,-224.98C417.31,-220.09 463.09,-207.43 484.5,-175 502.61,-147.56 487.24,-112.96 468.48,-86.2"/>
<text text-anchor="middle" x="447.98" y="-89.2" font-family="Times,serif" font-size="10.00">customers</text>
<text text-anchor="middle" x="397.76" y="-227.98" font-family="Times,serif" font-size="10.00">bank</text>
</g>
<!-- c -->
<g id="node5" class="node">
<title>c</title>
<polygon fill="none" stroke="black" points="136.5,-43 136.5,-60 271.5,-60 271.5,-43 136.5,-43"/>
<text text-anchor="start" x="180.5" y="-50" font-family="Times,serif" text-decoration="underline" font-size="10.00">c :Currency</text>
<polygon fill="none" stroke="black" points="136.5,-26 136.5,-43 271.5,-43 271.5,-26 136.5,-26"/>
<text text-anchor="start" x="139.5" y="-32" font-family="Times,serif" font-size="10.00">declaringClass = class Currency</text>
</g>
<!-- d5a26d37_99b4_4fc8_a4aa_8fa123636caa&#45;&gt;c -->
<g id="edge4" class="edge">
<title>d5a26d37_99b4_4fc8_a4aa_8fa123636caa&#45;&gt;c</title>
<path fill="none" stroke="black" d="M135.75,-121.92C151.26,-104.08 171.67,-80.61 186.02,-64.11"/>
<text text-anchor="middle" x="168.52" y="-67.11" font-family="Times,serif" font-size="10.00">currency</text>
</g>
<!-- 67fe5d86_a7a5_45a7_8828_626191d5a8ed&#45;&gt;5dedcfdf_276f_4902_88d1_cee959b0111f -->
<g id="edge6" class="edge">
<title>67fe5d86_a7a5_45a7_8828_626191d5a8ed&#45;&gt;5dedcfdf_276f_4902_88d1_cee959b0111f</title>
<path fill="none" stroke="black" d="M378.05,-121.92C385.44,-111.14 394.24,-98.31 402.55,-86.2"/>
<text text-anchor="middle" x="390.05" y="-89.2" font-family="Times,serif" font-size="10.00">owner</text>
<text text-anchor="middle" x="362.05" y="-113.92" font-family="Times,serif" font-size="10.00">account</text>
</g>
<!-- 67fe5d86_a7a5_45a7_8828_626191d5a8ed&#45;&gt;c -->
<g id="edge5" class="edge">
<title>67fe5d86_a7a5_45a7_8828_626191d5a8ed&#45;&gt;c</title>
<path fill="none" stroke="black" d="M321.69,-121.92C294.63,-104.08 259.03,-80.61 234,-64.11"/>
<text text-anchor="middle" x="216.5" y="-67.11" font-family="Times,serif" font-size="10.00">currency</text>
</g>
</g>
</svg>
