<?xml version="1.0" encoding="UTF-8" standalone="no"?>
<!DOCTYPE svg PUBLIC "-//W3C//DTD SVG 1.1//EN"
 "http://www.w3.org/Graphics/SVG/1.1/DTD/svg11.dtd">
<!-- Generated by graphviz version 2.43.0 (0)
 -->
<!-- Title: model Pages: 1 -->
<svg width="1146px" height="327px"
 viewBox="0.00 0.00 1146.00 327.00" xmlns="http://www.w3.org/2000/svg" xmlns:xlink="http://www.w3.org/1999/xlink">
<g id="graph0" class="graph" transform="scale(1.0 1.0) rotate(0) translate(4 323)">
<title>model</title>
<polygon fill="white" stroke="transparent" points="-4,4 -4,-323 1142,-323 1142,4 -4,4"/>
<!-- b -->
<g id="node1" class="node">
<title>b</title>
<polygon fill="none" stroke="black" points="317.5,-297.5 317.5,-314.5 980.5,-314.5 980.5,-297.5 317.5,-297.5"/>
<text text-anchor="start" x="632.5" y="-304.5" font-family="Times,serif" text-decoration="underline" font-size="10.00">b :Bank</text>
<polygon fill="none" stroke="black" points="317.5,-269.5 317.5,-297.5 980.5,-297.5 980.5,-269.5 317.5,-269.5"/>
<text text-anchor="start" x="320.5" y="-286.5" font-family="Times,serif" font-size="10.00">accountsMap = sendItToTheBank8a633aa5&#45;907c&#45;4e57&#45;a313&#45;22e0adb2672e7ec351d6&#45;652f&#45;4691&#45;8e72&#45;ea432d44a0c857d3d061&#45;8351&#45;4926&#45;9253&#45;4f9fa26ea7c7</text>
<text text-anchor="start" x="320.5" y="-275.5" font-family="Times,serif" font-size="10.00">customerMap = e2f7bc4c&#45;ef2a&#45;466e&#45;b8a5&#45;d24f48b13afe1eaf6f4c&#45;4f92&#45;4e04&#45;bd87&#45;c82be03265de1f6f1b0f&#45;039d&#45;44e7&#45;8402&#45;df423ddce3bc</text>
</g>
<!-- sendItToTheBank -->
<g id="node2" class="node">
<title>sendItToTheBank</title>
<polygon fill="none" stroke="black" points="348.5,-209 348.5,-226 497.5,-226 497.5,-209 348.5,-209"/>
<text text-anchor="start" x="366" y="-216" font-family="Times,serif" text-decoration="underline" font-size="10.00">sendItToTheBank :Account</text>
<polygon fill="none" stroke="black" points="348.5,-126 348.5,-209 497.5,-209 497.5,-126 348.5,-126"/>
<text text-anchor="start" x="351.5" y="-198" font-family="Times,serif" font-size="10.00">balance = 69420.0</text>
<text text-anchor="start" x="351.5" y="-187" font-family="Times,serif" font-size="10.00">customerId = null</text>
<text text-anchor="start" x="351.5" y="-176" font-family="Times,serif" font-size="10.00">iban = &quot;EE947756151978436934&quot;</text>
<text text-anchor="start" x="351.5" y="-165" font-family="Times,serif" font-size="10.00">id = &quot;sendItToTheBank&quot;</text>
<text text-anchor="start" x="351.5" y="-154" font-family="Times,serif" font-size="10.00">receivedTransaction = </text>
<text text-anchor="start" x="351.5" y="-143" font-family="Times,serif" font-size="10.00">sentTransaction = </text>
<text text-anchor="start" x="351.5" y="-132" font-family="Times,serif" font-size="10.00">status = &quot;ACTIVE&quot;</text>
</g>
<!-- b&#45;&gt;sendItToTheBank -->
<g id="edge1" class="edge">
<title>b&#45;&gt;sendItToTheBank</title>
<path fill="none" stroke="black" d="M589.56,-265.87C565.98,-255.25 538.72,-242.5 514.5,-230 511.39,-228.39 508.23,-226.73 505.05,-225.04"/>
<text text-anchor="middle" x="533.05" y="-228.04" font-family="Times,serif" font-size="10.00">bankAccount</text>
<text text-anchor="middle" x="579.06" y="-257.87" font-family="Times,serif" font-size="10.00">bank</text>
</g>
<!-- 8a633aa5_907c_4e57_a313_22e0adb2672e -->
<g id="node3" class="node">
<title>8a633aa5_907c_4e57_a313_22e0adb2672e</title>
<polygon fill="none" stroke="black" points="75.5,-209 75.5,-226 313.5,-226 313.5,-209 75.5,-209"/>
<text text-anchor="start" x="87.5" y="-216" font-family="Times,serif" text-decoration="underline" font-size="10.00">8a633aa5&#45;907c&#45;4e57&#45;a313&#45;22e0adb2672e :Account</text>
<polygon fill="none" stroke="black" points="75.5,-126 75.5,-209 313.5,-209 313.5,-126 75.5,-126"/>
<text text-anchor="start" x="78.5" y="-198" font-family="Times,serif" font-size="10.00">balance = 0.0</text>
<text text-anchor="start" x="78.5" y="-187" font-family="Times,serif" font-size="10.00">customerId = &quot;1eaf6f4c&#45;4f92&#45;4e04&#45;bd87&#45;c82be03265de&quot;</text>
<text text-anchor="start" x="78.5" y="-176" font-family="Times,serif" font-size="10.00">iban = null</text>
<text text-anchor="start" x="78.5" y="-165" font-family="Times,serif" font-size="10.00">id = &quot;8a633aa5&#45;907c&#45;4e57&#45;a313&#45;22e0adb2672e&quot;</text>
<text text-anchor="start" x="78.5" y="-154" font-family="Times,serif" font-size="10.00">receivedTransaction = </text>
<text text-anchor="start" x="78.5" y="-143" font-family="Times,serif" font-size="10.00">sentTransaction = </text>
<text text-anchor="start" x="78.5" y="-132" font-family="Times,serif" font-size="10.00">status = &quot;ACTIVE&quot;</text>
</g>
<!-- b&#45;&gt;8a633aa5_907c_4e57_a313_22e0adb2672e -->
<g id="edge2" class="edge">
<title>b&#45;&gt;8a633aa5_907c_4e57_a313_22e0adb2672e</title>
<path fill="none" stroke="black" d="M486.2,-265.96C435.85,-256.47 380.47,-244.44 330.5,-230 327.58,-229.16 324.63,-228.27 321.67,-227.36"/>
<text text-anchor="middle" x="340.17" y="-230.36" font-family="Times,serif" font-size="10.00">accounts</text>
<text text-anchor="middle" x="475.7" y="-257.96" font-family="Times,serif" font-size="10.00">bank</text>
</g>
<!-- 7ec351d6_652f_4691_8e72_ea432d44a0c8 -->
<g id="node4" class="node">
<title>7ec351d6_652f_4691_8e72_ea432d44a0c8</title>
<polygon fill="none" stroke="black" points="531.5,-209 531.5,-226 765.5,-226 765.5,-209 531.5,-209"/>
<text text-anchor="start" x="541.5" y="-216" font-family="Times,serif" text-decoration="underline" font-size="10.00">7ec351d6&#45;652f&#45;4691&#45;8e72&#45;ea432d44a0c8 :Account</text>
<polygon fill="none" stroke="black" points="531.5,-126 531.5,-209 765.5,-209 765.5,-126 531.5,-126"/>
<text text-anchor="start" x="534.5" y="-198" font-family="Times,serif" font-size="10.00">balance = 100.0</text>
<text text-anchor="start" x="534.5" y="-187" font-family="Times,serif" font-size="10.00">customerId = &quot;e2f7bc4c&#45;ef2a&#45;466e&#45;b8a5&#45;d24f48b13afe&quot;</text>
<text text-anchor="start" x="534.5" y="-176" font-family="Times,serif" font-size="10.00">iban = null</text>
<text text-anchor="start" x="534.5" y="-165" font-family="Times,serif" font-size="10.00">id = &quot;7ec351d6&#45;652f&#45;4691&#45;8e72&#45;ea432d44a0c8&quot;</text>
<text text-anchor="start" x="534.5" y="-154" font-family="Times,serif" font-size="10.00">receivedTransaction = </text>
<text text-anchor="start" x="534.5" y="-143" font-family="Times,serif" font-size="10.00">sentTransaction = </text>
<text text-anchor="start" x="534.5" y="-132" font-family="Times,serif" font-size="10.00">status = &quot;ACTIVE&quot;</text>
</g>
<!-- b&#45;&gt;7ec351d6_652f_4691_8e72_ea432d44a0c8 -->
<g id="edge3" class="edge">
<title>b&#45;&gt;7ec351d6_652f_4691_8e72_ea432d44a0c8</title>
<path fill="none" stroke="black" d="M648.5,-265.8C648.5,-255.25 648.5,-242.63 648.5,-230.25"/>
<text text-anchor="middle" x="630" y="-233.25" font-family="Times,serif" font-size="10.00">accounts</text>
<text text-anchor="middle" x="638" y="-257.8" font-family="Times,serif" font-size="10.00">bank</text>
</g>
<!-- 57d3d061_8351_4926_9253_4f9fa26ea7c7 -->
<g id="node5" class="node">
<title>57d3d061_8351_4926_9253_4f9fa26ea7c7</title>
<polygon fill="none" stroke="black" points="837.5,-209 837.5,-226 1057.5,-226 1057.5,-209 837.5,-209"/>
<text text-anchor="start" x="840.5" y="-216" font-family="Times,serif" text-decoration="underline" font-size="10.00">57d3d061&#45;8351&#45;4926&#45;9253&#45;4f9fa26ea7c7 :Account</text>
<polygon fill="none" stroke="black" points="837.5,-126 837.5,-209 1057.5,-209 1057.5,-126 837.5,-126"/>
<text text-anchor="start" x="848" y="-198" font-family="Times,serif" font-size="10.00">balance = 100.0</text>
<text text-anchor="start" x="848" y="-187" font-family="Times,serif" font-size="10.00">customerId = null</text>
<text text-anchor="start" x="848" y="-176" font-family="Times,serif" font-size="10.00">iban = &quot;EE595144259013433601&quot;</text>
<text text-anchor="start" x="848" y="-165" font-family="Times,serif" font-size="10.00">id = &quot;57d3d061&#45;8351&#45;4926&#45;9253&#45;4f9fa26ea7c7&quot;</text>
<text text-anchor="start" x="848" y="-154" font-family="Times,serif" font-size="10.00">receivedTransaction = </text>
<text text-anchor="start" x="848" y="-143" font-family="Times,serif" font-size="10.00">sentTransaction = </text>
<text text-anchor="start" x="848" y="-132" font-family="Times,serif" font-size="10.00">status = &quot;ACTIVE&quot;</text>
</g>
<!-- b&#45;&gt;57d3d061_8351_4926_9253_4f9fa26ea7c7 -->
<g id="edge4" class="edge">
<title>b&#45;&gt;57d3d061_8351_4926_9253_4f9fa26ea7c7</title>
<path fill="none" stroke="black" d="M719.36,-265.92C749.13,-255.04 784.07,-242.09 815.5,-230 819.99,-228.27 824.57,-226.5 829.19,-224.7"/>
<text text-anchor="middle" x="810.69" y="-227.7" font-family="Times,serif" font-size="10.00">accounts</text>
<text text-anchor="middle" x="708.86" y="-257.92" font-family="Times,serif" font-size="10.00">bank</text>
</g>
<!-- e2f7bc4c_ef2a_466e_b8a5_d24f48b13afe -->
<g id="node6" class="node">
<title>e2f7bc4c_ef2a_466e_b8a5_d24f48b13afe</title>
<polygon fill="none" stroke="black" points="565.5,-65 565.5,-82 780.5,-82 780.5,-65 565.5,-65"/>
<text text-anchor="start" x="568.5" y="-72" font-family="Times,serif" text-decoration="underline" font-size="10.00">e2f7bc4c&#45;ef2a&#45;466e&#45;b8a5&#45;d24f48b13afe :Customer</text>
<polygon fill="none" stroke="black" points="565.5,-4 565.5,-65 780.5,-65 780.5,-4 565.5,-4"/>
<text text-anchor="start" x="577.5" y="-54" font-family="Times,serif" font-size="10.00">email = &quot;john@doe.ee&quot;</text>
<text text-anchor="start" x="577.5" y="-43" font-family="Times,serif" font-size="10.00">firstName = &quot;John&quot;</text>
<text text-anchor="start" x="577.5" y="-32" font-family="Times,serif" font-size="10.00">id = &quot;e2f7bc4c&#45;ef2a&#45;466e&#45;b8a5&#45;d24f48b13afe&quot;</text>
<text text-anchor="start" x="577.5" y="-21" font-family="Times,serif" font-size="10.00">lastName = &quot;Doe&quot;</text>
<text text-anchor="start" x="577.5" y="-10" font-family="Times,serif" font-size="10.00">password = &quot;pass1234&quot;</text>
</g>
<!-- b&#45;&gt;e2f7bc4c_ef2a_466e_b8a5_d24f48b13afe -->
<g id="edge5" class="edge">
<title>b&#45;&gt;e2f7bc4c_ef2a_466e_b8a5_d24f48b13afe</title>
<path fill="none" stroke="black" d="M741.24,-265.9C757.6,-257.17 772.55,-245.51 782.5,-230 808.41,-189.6 804.54,-164.64 782.5,-122 775.35,-108.17 764.5,-96.26 752.34,-86.21"/>
<text text-anchor="middle" x="731.84" y="-89.21" font-family="Times,serif" font-size="10.00">customers</text>
<text text-anchor="middle" x="730.74" y="-257.9" font-family="Times,serif" font-size="10.00">bank</text>
</g>
<!-- 1eaf6f4c_4f92_4e04_bd87_c82be03265de -->
<g id="node7" class="node">
<title>1eaf6f4c_4f92_4e04_bd87_c82be03265de</title>
<polygon fill="none" stroke="black" points="8.5,-65 8.5,-82 227.5,-82 227.5,-65 8.5,-65"/>
<text text-anchor="start" x="11.5" y="-72" font-family="Times,serif" text-decoration="underline" font-size="10.00">1eaf6f4c&#45;4f92&#45;4e04&#45;bd87&#45;c82be03265de :Customer</text>
<polygon fill="none" stroke="black" points="8.5,-4 8.5,-65 227.5,-65 227.5,-4 8.5,-4"/>
<text text-anchor="start" x="20.5" y="-54" font-family="Times,serif" font-size="10.00">email = &quot;bobby@tt.ee&quot;</text>
<text text-anchor="start" x="20.5" y="-43" font-family="Times,serif" font-size="10.00">firstName = &quot;Bob&quot;</text>
<text text-anchor="start" x="20.5" y="-32" font-family="Times,serif" font-size="10.00">id = &quot;1eaf6f4c&#45;4f92&#45;4e04&#45;bd87&#45;c82be03265de&quot;</text>
<text text-anchor="start" x="20.5" y="-21" font-family="Times,serif" font-size="10.00">lastName = &quot;Jackson&quot;</text>
<text text-anchor="start" x="20.5" y="-10" font-family="Times,serif" font-size="10.00">password = &quot;secret&quot;</text>
</g>
<!-- b&#45;&gt;1eaf6f4c_4f92_4e04_bd87_c82be03265de -->
<g id="edge6" class="edge">
<title>b&#45;&gt;1eaf6f4c_4f92_4e04_bd87_c82be03265de</title>
<path fill="none" stroke="black" d="M308.95,-274.74C188.3,-265.25 77.39,-250.97 58.5,-230 26.37,-194.34 43.23,-167.51 58.5,-122 62.77,-109.28 70.02,-96.99 78.01,-86.06"/>
<text text-anchor="middle" x="57.51" y="-89.06" font-family="Times,serif" font-size="10.00">customers</text>
<text text-anchor="middle" x="298.45" y="-277.74" font-family="Times,serif" font-size="10.00">bank</text>
</g>
<!-- 1f6f1b0f_039d_44e7_8402_df423ddce3bc -->
<g id="node8" class="node">
<title>1f6f1b0f_039d_44e7_8402_df423ddce3bc</title>
<polygon fill="none" stroke="black" points="911.5,-65 911.5,-82 1130.5,-82 1130.5,-65 911.5,-65"/>
<text text-anchor="start" x="914.5" y="-72" font-family="Times,serif" text-decoration="underline" font-size="10.00">1f6f1b0f&#45;039d&#45;44e7&#45;8402&#45;df423ddce3bc :Customer</text>
<polygon fill="none" stroke="black" points="911.5,-4 911.5,-65 1130.5,-65 1130.5,-4 911.5,-4"/>
<text text-anchor="start" x="923.5" y="-54" font-family="Times,serif" font-size="10.00">email = &quot;johntest@doe.ee&quot;</text>
<text text-anchor="start" x="923.5" y="-43" font-family="Times,serif" font-size="10.00">firstName = &quot;johntest&quot;</text>
<text text-anchor="start" x="923.5" y="-32" font-family="Times,serif" font-size="10.00">id = &quot;1f6f1b0f&#45;039d&#45;44e7&#45;8402&#45;df423ddce3bc&quot;</text>
<text text-anchor="start" x="923.5" y="-21" font-family="Times,serif" font-size="10.00">lastName = &quot;Doe&quot;</text>
<text text-anchor="start" x="923.5" y="-10" font-family="Times,serif" font-size="10.00">password = &quot;pass1234&quot;</text>
</g>
<!-- b&#45;&gt;1f6f1b0f_039d_44e7_8402_df423ddce3bc -->
<g id="edge7" class="edge">
<title>b&#45;&gt;1f6f1b0f_039d_44e7_8402_df423ddce3bc</title>
<path fill="none" stroke="black" d="M988.48,-268.58C1028.11,-259.53 1059.7,-247.09 1074.5,-230 1105.92,-193.71 1088.81,-167.82 1074.5,-122 1070.57,-109.42 1063.82,-97.09 1056.4,-86.08"/>
<text text-anchor="middle" x="1035.9" y="-89.08" font-family="Times,serif" font-size="10.00">customers</text>
<text text-anchor="middle" x="998.98" y="-271.58" font-family="Times,serif" font-size="10.00">bank</text>
</g>
<!-- c -->
<g id="node9" class="node">
<title>c</title>
<polygon fill="none" stroke="black" points="341.5,-43 341.5,-60 505.5,-60 505.5,-43 341.5,-43"/>
<text text-anchor="start" x="399.5" y="-50" font-family="Times,serif" text-decoration="underline" font-size="10.00">c :Currency</text>
<polygon fill="none" stroke="black" points="341.5,-26 341.5,-43 505.5,-43 505.5,-26 341.5,-26"/>
<text text-anchor="start" x="344.5" y="-32" font-family="Times,serif" font-size="10.00">declaringClass = class model.Currency</text>
</g>
<!-- sendItToTheBank&#45;&gt;c -->
<g id="edge8" class="edge">
<title>sendItToTheBank&#45;&gt;c</title>
<path fill="none" stroke="black" d="M422.91,-121.72C423.06,-101.46 423.23,-79.58 423.35,-64.22"/>
<text text-anchor="middle" x="405.35" y="-67.22" font-family="Times,serif" font-size="10.00">currency</text>
</g>
<!-- 8a633aa5_907c_4e57_a313_22e0adb2672e&#45;&gt;1eaf6f4c_4f92_4e04_bd87_c82be03265de -->
<g id="edge10" class="edge">
<title>8a633aa5_907c_4e57_a313_22e0adb2672e&#45;&gt;1eaf6f4c_4f92_4e04_bd87_c82be03265de</title>
<path fill="none" stroke="black" d="M163.18,-121.72C156.27,-109.96 149.04,-97.66 142.42,-86.4"/>
<text text-anchor="middle" x="129.42" y="-89.4" font-family="Times,serif" font-size="10.00">owner</text>
<text text-anchor="middle" x="146.68" y="-113.72" font-family="Times,serif" font-size="10.00">account</text>
</g>
<!-- 8a633aa5_907c_4e57_a313_22e0adb2672e&#45;&gt;c -->
<g id="edge9" class="edge">
<title>8a633aa5_907c_4e57_a313_22e0adb2672e&#45;&gt;c</title>
<path fill="none" stroke="black" d="M287.31,-121.91C322.9,-101.55 361.38,-79.54 388.33,-64.12"/>
<text text-anchor="middle" x="370.33" y="-67.12" font-family="Times,serif" font-size="10.00">currency</text>
</g>
<!-- 7ec351d6_652f_4691_8e72_ea432d44a0c8&#45;&gt;e2f7bc4c_ef2a_466e_b8a5_d24f48b13afe -->
<g id="edge12" class="edge">
<title>7ec351d6_652f_4691_8e72_ea432d44a0c8&#45;&gt;e2f7bc4c_ef2a_466e_b8a5_d24f48b13afe</title>
<path fill="none" stroke="black" d="M658.26,-121.72C660.42,-109.96 662.67,-97.66 664.73,-86.4"/>
<text text-anchor="middle" x="651.73" y="-89.4" font-family="Times,serif" font-size="10.00">owner</text>
<text text-anchor="middle" x="641.76" y="-113.72" font-family="Times,serif" font-size="10.00">account</text>
</g>
<!-- 7ec351d6_652f_4691_8e72_ea432d44a0c8&#45;&gt;c -->
<g id="edge11" class="edge">
<title>7ec351d6_652f_4691_8e72_ea432d44a0c8&#45;&gt;c</title>
<path fill="none" stroke="black" d="M557.31,-121.91C522.35,-101.55 484.54,-79.54 458.06,-64.12"/>
<text text-anchor="middle" x="476.06" y="-67.12" font-family="Times,serif" font-size="10.00">currency</text>
</g>
<!-- 57d3d061_8351_4926_9253_4f9fa26ea7c7&#45;&gt;1f6f1b0f_039d_44e7_8402_df423ddce3bc -->
<g id="edge14" class="edge">
<title>57d3d061_8351_4926_9253_4f9fa26ea7c7&#45;&gt;1f6f1b0f_039d_44e7_8402_df423ddce3bc</title>
<path fill="none" stroke="black" d="M977.19,-121.72C983.74,-109.96 990.6,-97.66 996.87,-86.4"/>
<text text-anchor="middle" x="983.87" y="-89.4" font-family="Times,serif" font-size="10.00">owner</text>
<text text-anchor="middle" x="960.69" y="-113.72" font-family="Times,serif" font-size="10.00">account</text>
</g>
<!-- 57d3d061_8351_4926_9253_4f9fa26ea7c7&#45;&gt;c -->
<g id="edge13" class="edge">
<title>57d3d061_8351_4926_9253_4f9fa26ea7c7&#45;&gt;c</title>
<path fill="none" stroke="black" d="M829.17,-134.52C813.58,-129.91 797.73,-125.59 782.5,-122 680.09,-97.83 650.75,-110.85 548.5,-86 524.47,-80.16 498.47,-71.77 476.44,-64.03"/>
<text text-anchor="middle" x="458.44" y="-67.03" font-family="Times,serif" font-size="10.00">currency</text>
</g>
</g>
</svg>
