<?xml version="1.0" encoding="UTF-8" standalone="no"?>
<!DOCTYPE svg PUBLIC "-//W3C//DTD SVG 1.1//EN"
 "http://www.w3.org/Graphics/SVG/1.1/DTD/svg11.dtd">
<!-- Generated by graphviz version 2.43.0 (0)
 -->
<!-- Title: model Pages: 1 -->
<svg width="1146px" height="327px"
 viewBox="0.00 0.00 1145.50 327.00" xmlns="http://www.w3.org/2000/svg" xmlns:xlink="http://www.w3.org/1999/xlink">
<g id="graph0" class="graph" transform="scale(1.0 1.0) rotate(0) translate(4 323)">
<title>model</title>
<polygon fill="white" stroke="transparent" points="-4,4 -4,-323 1141.5,-323 1141.5,4 -4,4"/>
<!-- b -->
<g id="node1" class="node">
<title>b</title>
<polygon fill="none" stroke="black" points="316.5,-297.5 316.5,-314.5 981.5,-314.5 981.5,-297.5 316.5,-297.5"/>
<text text-anchor="start" x="632.5" y="-304.5" font-family="Times,serif" text-decoration="underline" font-size="10.00">b :Bank</text>
<polygon fill="none" stroke="black" points="316.5,-269.5 316.5,-297.5 981.5,-297.5 981.5,-269.5 316.5,-269.5"/>
<text text-anchor="start" x="319.5" y="-286.5" font-family="Times,serif" font-size="10.00">accountsMap = b7846ca9&#45;a493&#45;459e&#45;9e87&#45;19d5cb772e33sendItToTheBank8a633aa5&#45;907c&#45;4e57&#45;a313&#45;22e0adb2672e7ec351d6&#45;652f&#45;4691&#45;8e72&#45;ea432d44a0c8</text>
<text text-anchor="start" x="319.5" y="-275.5" font-family="Times,serif" font-size="10.00">customerMap = 9aefbdb5&#45;cc32&#45;4f9d&#45;a572&#45;fe16b7ae856fe2f7bc4c&#45;ef2a&#45;466e&#45;b8a5&#45;d24f48b13afe1eaf6f4c&#45;4f92&#45;4e04&#45;bd87&#45;c82be03265de</text>
</g>
<!-- sendItToTheBank -->
<g id="node2" class="node">
<title>sendItToTheBank</title>
<polygon fill="none" stroke="black" points="348.5,-209 348.5,-226 497.5,-226 497.5,-209 348.5,-209"/>
<text text-anchor="start" x="366" y="-216" font-family="Times,serif" text-decoration="underline" font-size="10.00">sendItToTheBank :Account</text>
<polygon fill="none" stroke="black" points="348.5,-126 348.5,-209 497.5,-209 497.5,-126 348.5,-126"/>
<text text-anchor="start" x="351.5" y="-198" font-family="Times,serif" font-size="10.00">balance = 69420.0</text>
<text text-anchor="start" x="351.5" y="-187" font-family="Times,serif" font-size="10.00">customerId = null</text>
<text text-anchor="start" x="351.5" y="-176" font-family="Times,serif" font-size="10.00">iban = &quot;EE928802260316713894&quot;</text>
<text text-anchor="start" x="351.5" y="-165" font-family="Times,serif" font-size="10.00">id = &quot;sendItToTheBank&quot;</text>
<text text-anchor="start" x="351.5" y="-154" font-family="Times,serif" font-size="10.00">receivedTransaction = </text>
<text text-anchor="start" x="351.5" y="-143" font-family="Times,serif" font-size="10.00">sentTransaction = </text>
<text text-anchor="start" x="351.5" y="-132" font-family="Times,serif" font-size="10.00">status = &quot;ACTIVE&quot;</text>
</g>
<!-- b&#45;&gt;sendItToTheBank -->
<g id="edge1" class="edge">
<title>b&#45;&gt;sendItToTheBank</title>
<path fill="none" stroke="black" d="M589.56,-265.87C565.98,-255.25 538.72,-242.5 514.5,-230 511.39,-228.39 508.23,-226.73 505.05,-225.04"/>
<text text-anchor="middle" x="533.05" y="-228.04" font-family="Times,serif" font-size="10.00">bankAccount</text>
<text text-anchor="middle" x="579.06" y="-257.87" font-family="Times,serif" font-size="10.00">bank</text>
</g>
<!-- 8a633aa5_907c_4e57_a313_22e0adb2672e -->
<g id="node3" class="node">
<title>8a633aa5_907c_4e57_a313_22e0adb2672e</title>
<polygon fill="none" stroke="black" points="75.5,-209 75.5,-226 313.5,-226 313.5,-209 75.5,-209"/>
<text text-anchor="start" x="87.5" y="-216" font-family="Times,serif" text-decoration="underline" font-size="10.00">8a633aa5&#45;907c&#45;4e57&#45;a313&#45;22e0adb2672e :Account</text>
<polygon fill="none" stroke="black" points="75.5,-126 75.5,-209 313.5,-209 313.5,-126 75.5,-126"/>
<text text-anchor="start" x="78.5" y="-198" font-family="Times,serif" font-size="10.00">balance = 0.0</text>
<text text-anchor="start" x="78.5" y="-187" font-family="Times,serif" font-size="10.00">customerId = &quot;1eaf6f4c&#45;4f92&#45;4e04&#45;bd87&#45;c82be03265de&quot;</text>
<text text-anchor="start" x="78.5" y="-176" font-family="Times,serif" font-size="10.00">iban = &quot;EE500467859057350272&quot;</text>
<text text-anchor="start" x="78.5" y="-165" font-family="Times,serif" font-size="10.00">id = &quot;8a633aa5&#45;907c&#45;4e57&#45;a313&#45;22e0adb2672e&quot;</text>
<text text-anchor="start" x="78.5" y="-154" font-family="Times,serif" font-size="10.00">receivedTransaction = </text>
<text text-anchor="start" x="78.5" y="-143" font-family="Times,serif" font-size="10.00">sentTransaction = </text>
<text text-anchor="start" x="78.5" y="-132" font-family="Times,serif" font-size="10.00">status = &quot;ACTIVE&quot;</text>
</g>
<!-- b&#45;&gt;8a633aa5_907c_4e57_a313_22e0adb2672e -->
<g id="edge2" class="edge">
<title>b&#45;&gt;8a633aa5_907c_4e57_a313_22e0adb2672e</title>
<path fill="none" stroke="black" d="M486.2,-265.96C435.85,-256.47 380.47,-244.44 330.5,-230 327.58,-229.16 324.63,-228.27 321.67,-227.36"/>
<text text-anchor="middle" x="340.17" y="-230.36" font-family="Times,serif" font-size="10.00">accounts</text>
<text text-anchor="middle" x="475.7" y="-257.96" font-family="Times,serif" font-size="10.00">bank</text>
</g>
<!-- 7ec351d6_652f_4691_8e72_ea432d44a0c8 -->
<g id="node4" class="node">
<title>7ec351d6_652f_4691_8e72_ea432d44a0c8</title>
<polygon fill="none" stroke="black" points="531.5,-209 531.5,-226 765.5,-226 765.5,-209 531.5,-209"/>
<text text-anchor="start" x="541.5" y="-216" font-family="Times,serif" text-decoration="underline" font-size="10.00">7ec351d6&#45;652f&#45;4691&#45;8e72&#45;ea432d44a0c8 :Account</text>
<polygon fill="none" stroke="black" points="531.5,-126 531.5,-209 765.5,-209 765.5,-126 531.5,-126"/>
<text text-anchor="start" x="534.5" y="-198" font-family="Times,serif" font-size="10.00">balance = 100.0</text>
<text text-anchor="start" x="534.5" y="-187" font-family="Times,serif" font-size="10.00">customerId = &quot;e2f7bc4c&#45;ef2a&#45;466e&#45;b8a5&#45;d24f48b13afe&quot;</text>
<text text-anchor="start" x="534.5" y="-176" font-family="Times,serif" font-size="10.00">iban = &quot;EE508166157234538669&quot;</text>
<text text-anchor="start" x="534.5" y="-165" font-family="Times,serif" font-size="10.00">id = &quot;7ec351d6&#45;652f&#45;4691&#45;8e72&#45;ea432d44a0c8&quot;</text>
<text text-anchor="start" x="534.5" y="-154" font-family="Times,serif" font-size="10.00">receivedTransaction = </text>
<text text-anchor="start" x="534.5" y="-143" font-family="Times,serif" font-size="10.00">sentTransaction = </text>
<text text-anchor="start" x="534.5" y="-132" font-family="Times,serif" font-size="10.00">status = &quot;ACTIVE&quot;</text>
</g>
<!-- b&#45;&gt;7ec351d6_652f_4691_8e72_ea432d44a0c8 -->
<g id="edge3" class="edge">
<title>b&#45;&gt;7ec351d6_652f_4691_8e72_ea432d44a0c8</title>
<path fill="none" stroke="black" d="M648.5,-265.8C648.5,-255.25 648.5,-242.63 648.5,-230.25"/>
<text text-anchor="middle" x="630" y="-233.25" font-family="Times,serif" font-size="10.00">accounts</text>
<text text-anchor="middle" x="638" y="-257.8" font-family="Times,serif" font-size="10.00">bank</text>
</g>
<!-- b7846ca9_a493_459e_9e87_19d5cb772e33 -->
<g id="node5" class="node">
<title>b7846ca9_a493_459e_9e87_19d5cb772e33</title>
<polygon fill="none" stroke="black" points="837.5,-209 837.5,-226 1059.5,-226 1059.5,-209 837.5,-209"/>
<text text-anchor="start" x="840.5" y="-216" font-family="Times,serif" text-decoration="underline" font-size="10.00">b7846ca9&#45;a493&#45;459e&#45;9e87&#45;19d5cb772e33 :Account</text>
<polygon fill="none" stroke="black" points="837.5,-126 837.5,-209 1059.5,-209 1059.5,-126 837.5,-126"/>
<text text-anchor="start" x="847.5" y="-198" font-family="Times,serif" font-size="10.00">balance = 0.0</text>
<text text-anchor="start" x="847.5" y="-187" font-family="Times,serif" font-size="10.00">customerId = null</text>
<text text-anchor="start" x="847.5" y="-176" font-family="Times,serif" font-size="10.00">iban = &quot;EE818128863198948144&quot;</text>
<text text-anchor="start" x="847.5" y="-165" font-family="Times,serif" font-size="10.00">id = &quot;b7846ca9&#45;a493&#45;459e&#45;9e87&#45;19d5cb772e33&quot;</text>
<text text-anchor="start" x="847.5" y="-154" font-family="Times,serif" font-size="10.00">receivedTransaction = </text>
<text text-anchor="start" x="847.5" y="-143" font-family="Times,serif" font-size="10.00">sentTransaction = </text>
<text text-anchor="start" x="847.5" y="-132" font-family="Times,serif" font-size="10.00">status = &quot;ACTIVE&quot;</text>
</g>
<!-- b&#45;&gt;b7846ca9_a493_459e_9e87_19d5cb772e33 -->
<g id="edge4" class="edge">
<title>b&#45;&gt;b7846ca9_a493_459e_9e87_19d5cb772e33</title>
<path fill="none" stroke="black" d="M719.35,-265.88C749.11,-254.99 784.05,-242.05 815.5,-230 820.03,-228.27 824.63,-226.49 829.29,-224.68"/>
<text text-anchor="middle" x="810.79" y="-227.68" font-family="Times,serif" font-size="10.00">accounts</text>
<text text-anchor="middle" x="708.85" y="-257.88" font-family="Times,serif" font-size="10.00">bank</text>
</g>
<!-- e2f7bc4c_ef2a_466e_b8a5_d24f48b13afe -->
<g id="node6" class="node">
<title>e2f7bc4c_ef2a_466e_b8a5_d24f48b13afe</title>
<polygon fill="none" stroke="black" points="566.5,-65 566.5,-82 781.5,-82 781.5,-65 566.5,-65"/>
<text text-anchor="start" x="569.5" y="-72" font-family="Times,serif" text-decoration="underline" font-size="10.00">e2f7bc4c&#45;ef2a&#45;466e&#45;b8a5&#45;d24f48b13afe :Customer</text>
<polygon fill="none" stroke="black" points="566.5,-4 566.5,-65 781.5,-65 781.5,-4 566.5,-4"/>
<text text-anchor="start" x="578.5" y="-54" font-family="Times,serif" font-size="10.00">email = &quot;john@doe.ee&quot;</text>
<text text-anchor="start" x="578.5" y="-43" font-family="Times,serif" font-size="10.00">firstName = &quot;John&quot;</text>
<text text-anchor="start" x="578.5" y="-32" font-family="Times,serif" font-size="10.00">id = &quot;e2f7bc4c&#45;ef2a&#45;466e&#45;b8a5&#45;d24f48b13afe&quot;</text>
<text text-anchor="start" x="578.5" y="-21" font-family="Times,serif" font-size="10.00">lastName = &quot;Doe&quot;</text>
<text text-anchor="start" x="578.5" y="-10" font-family="Times,serif" font-size="10.00">password = &quot;pass1234&quot;</text>
</g>
<!-- b&#45;&gt;e2f7bc4c_ef2a_466e_b8a5_d24f48b13afe -->
<g id="edge5" class="edge">
<title>b&#45;&gt;e2f7bc4c_ef2a_466e_b8a5_d24f48b13afe</title>
<path fill="none" stroke="black" d="M741.24,-265.9C757.6,-257.17 772.55,-245.51 782.5,-230 808.41,-189.6 804.45,-164.69 782.5,-122 775.37,-108.13 764.51,-96.18 752.35,-86.1"/>
<text text-anchor="middle" x="731.85" y="-89.1" font-family="Times,serif" font-size="10.00">customers</text>
<text text-anchor="middle" x="730.74" y="-257.9" font-family="Times,serif" font-size="10.00">bank</text>
</g>
<!-- 1eaf6f4c_4f92_4e04_bd87_c82be03265de -->
<g id="node7" class="node">
<title>1eaf6f4c_4f92_4e04_bd87_c82be03265de</title>
<polygon fill="none" stroke="black" points="8.5,-65 8.5,-82 227.5,-82 227.5,-65 8.5,-65"/>
<text text-anchor="start" x="11.5" y="-72" font-family="Times,serif" text-decoration="underline" font-size="10.00">1eaf6f4c&#45;4f92&#45;4e04&#45;bd87&#45;c82be03265de :Customer</text>
<polygon fill="none" stroke="black" points="8.5,-4 8.5,-65 227.5,-65 227.5,-4 8.5,-4"/>
<text text-anchor="start" x="20.5" y="-54" font-family="Times,serif" font-size="10.00">email = &quot;bobby@tt.ee&quot;</text>
<text text-anchor="start" x="20.5" y="-43" font-family="Times,serif" font-size="10.00">firstName = &quot;Bob&quot;</text>
<text text-anchor="start" x="20.5" y="-32" font-family="Times,serif" font-size="10.00">id = &quot;1eaf6f4c&#45;4f92&#45;4e04&#45;bd87&#45;c82be03265de&quot;</text>
<text text-anchor="start" x="20.5" y="-21" font-family="Times,serif" font-size="10.00">lastName = &quot;Jackson&quot;</text>
<text text-anchor="start" x="20.5" y="-10" font-family="Times,serif" font-size="10.00">password = &quot;secret&quot;</text>
</g>
<!-- b&#45;&gt;1eaf6f4c_4f92_4e04_bd87_c82be03265de -->
<g id="edge6" class="edge">
<title>b&#45;&gt;1eaf6f4c_4f92_4e04_bd87_c82be03265de</title>
<path fill="none" stroke="black" d="M307.71,-274.64C187.54,-265.16 77.33,-250.9 58.5,-230 26.37,-194.34 43.23,-167.51 58.5,-122 62.77,-109.28 70.02,-96.99 78.01,-86.06"/>
<text text-anchor="middle" x="57.51" y="-89.06" font-family="Times,serif" font-size="10.00">customers</text>
<text text-anchor="middle" x="297.21" y="-277.64" font-family="Times,serif" font-size="10.00">bank</text>
</g>
<!-- 9aefbdb5_cc32_4f9d_a572_fe16b7ae856f -->
<g id="node8" class="node">
<title>9aefbdb5_cc32_4f9d_a572_fe16b7ae856f</title>
<polygon fill="none" stroke="black" points="913.5,-65 913.5,-82 1129.5,-82 1129.5,-65 913.5,-65"/>
<text text-anchor="start" x="916.5" y="-72" font-family="Times,serif" text-decoration="underline" font-size="10.00">9aefbdb5&#45;cc32&#45;4f9d&#45;a572&#45;fe16b7ae856f :Customer</text>
<polygon fill="none" stroke="black" points="913.5,-4 913.5,-65 1129.5,-65 1129.5,-4 913.5,-4"/>
<text text-anchor="start" x="925.5" y="-54" font-family="Times,serif" font-size="10.00">email = &quot;haha@tt.ee&quot;</text>
<text text-anchor="start" x="925.5" y="-43" font-family="Times,serif" font-size="10.00">firstName = &quot;Bob&quot;</text>
<text text-anchor="start" x="925.5" y="-32" font-family="Times,serif" font-size="10.00">id = &quot;9aefbdb5&#45;cc32&#45;4f9d&#45;a572&#45;fe16b7ae856f&quot;</text>
<text text-anchor="start" x="925.5" y="-21" font-family="Times,serif" font-size="10.00">lastName = &quot;Jackson&quot;</text>
<text text-anchor="start" x="925.5" y="-10" font-family="Times,serif" font-size="10.00">password = &quot;secret&quot;</text>
</g>
<!-- b&#45;&gt;9aefbdb5_cc32_4f9d_a572_fe16b7ae856f -->
<g id="edge7" class="edge">
<title>b&#45;&gt;9aefbdb5_cc32_4f9d_a572_fe16b7ae856f</title>
<path fill="none" stroke="black" d="M989.08,-268.93C1029.36,-259.85 1061.51,-247.3 1076.5,-230 1107.93,-193.73 1091.01,-167.75 1076.5,-122 1072.54,-109.52 1065.79,-97.32 1058.35,-86.41"/>
<text text-anchor="middle" x="1037.85" y="-89.41" font-family="Times,serif" font-size="10.00">customers</text>
<text text-anchor="middle" x="999.58" y="-271.93" font-family="Times,serif" font-size="10.00">bank</text>
</g>
<!-- c -->
<g id="node9" class="node">
<title>c</title>
<polygon fill="none" stroke="black" points="341.5,-43 341.5,-60 505.5,-60 505.5,-43 341.5,-43"/>
<text text-anchor="start" x="399.5" y="-50" font-family="Times,serif" text-decoration="underline" font-size="10.00">c :Currency</text>
<polygon fill="none" stroke="black" points="341.5,-26 341.5,-43 505.5,-43 505.5,-26 341.5,-26"/>
<text text-anchor="start" x="344.5" y="-32" font-family="Times,serif" font-size="10.00">declaringClass = class model.Currency</text>
</g>
<!-- sendItToTheBank&#45;&gt;c -->
<g id="edge8" class="edge">
<title>sendItToTheBank&#45;&gt;c</title>
<path fill="none" stroke="black" d="M422.91,-121.72C423.06,-101.46 423.23,-79.58 423.35,-64.22"/>
<text text-anchor="middle" x="405.35" y="-67.22" font-family="Times,serif" font-size="10.00">currency</text>
</g>
<!-- 8a633aa5_907c_4e57_a313_22e0adb2672e&#45;&gt;1eaf6f4c_4f92_4e04_bd87_c82be03265de -->
<g id="edge10" class="edge">
<title>8a633aa5_907c_4e57_a313_22e0adb2672e&#45;&gt;1eaf6f4c_4f92_4e04_bd87_c82be03265de</title>
<path fill="none" stroke="black" d="M163.18,-121.72C156.27,-109.96 149.04,-97.66 142.42,-86.4"/>
<text text-anchor="middle" x="129.42" y="-89.4" font-family="Times,serif" font-size="10.00">owner</text>
<text text-anchor="middle" x="146.68" y="-113.72" font-family="Times,serif" font-size="10.00">account</text>
</g>
<!-- 8a633aa5_907c_4e57_a313_22e0adb2672e&#45;&gt;c -->
<g id="edge9" class="edge">
<title>8a633aa5_907c_4e57_a313_22e0adb2672e&#45;&gt;c</title>
<path fill="none" stroke="black" d="M287.31,-121.91C322.9,-101.55 361.38,-79.54 388.33,-64.12"/>
<text text-anchor="middle" x="370.33" y="-67.12" font-family="Times,serif" font-size="10.00">currency</text>
</g>
<!-- 7ec351d6_652f_4691_8e72_ea432d44a0c8&#45;&gt;e2f7bc4c_ef2a_466e_b8a5_d24f48b13afe -->
<g id="edge12" class="edge">
<title>7ec351d6_652f_4691_8e72_ea432d44a0c8&#45;&gt;e2f7bc4c_ef2a_466e_b8a5_d24f48b13afe</title>
<path fill="none" stroke="black" d="M658.67,-121.72C660.91,-109.96 663.26,-97.66 665.41,-86.4"/>
<text text-anchor="middle" x="652.41" y="-89.4" font-family="Times,serif" font-size="10.00">owner</text>
<text text-anchor="middle" x="642.17" y="-113.72" font-family="Times,serif" font-size="10.00">account</text>
</g>
<!-- 7ec351d6_652f_4691_8e72_ea432d44a0c8&#45;&gt;c -->
<g id="edge11" class="edge">
<title>7ec351d6_652f_4691_8e72_ea432d44a0c8&#45;&gt;c</title>
<path fill="none" stroke="black" d="M557.31,-121.91C522.35,-101.55 484.54,-79.54 458.06,-64.12"/>
<text text-anchor="middle" x="476.06" y="-67.12" font-family="Times,serif" font-size="10.00">currency</text>
</g>
<!-- b7846ca9_a493_459e_9e87_19d5cb772e33&#45;&gt;9aefbdb5_cc32_4f9d_a572_fe16b7ae856f -->
<g id="edge14" class="edge">
<title>b7846ca9_a493_459e_9e87_19d5cb772e33&#45;&gt;9aefbdb5_cc32_4f9d_a572_fe16b7ae856f</title>
<path fill="none" stroke="black" d="M978.19,-121.72C984.74,-109.96 991.6,-97.66 997.87,-86.4"/>
<text text-anchor="middle" x="984.87" y="-89.4" font-family="Times,serif" font-size="10.00">owner</text>
<text text-anchor="middle" x="961.69" y="-113.72" font-family="Times,serif" font-size="10.00">account</text>
</g>
<!-- b7846ca9_a493_459e_9e87_19d5cb772e33&#45;&gt;c -->
<g id="edge13" class="edge">
<title>b7846ca9_a493_459e_9e87_19d5cb772e33&#45;&gt;c</title>
<path fill="none" stroke="black" d="M829.44,-134.54C813.75,-129.93 797.81,-125.6 782.5,-122 680.5,-97.99 651.34,-110.66 549.5,-86 525.3,-80.14 499.09,-71.75 476.88,-64.01"/>
<text text-anchor="middle" x="494.88" y="-67.01" font-family="Times,serif" font-size="10.00">currency</text>
</g>
</g>
</svg>
