<?xml version="1.0" encoding="UTF-8" standalone="no"?>
<!DOCTYPE svg PUBLIC "-//W3C//DTD SVG 1.1//EN"
 "http://www.w3.org/Graphics/SVG/1.1/DTD/svg11.dtd">
<!-- Generated by graphviz version 2.43.0 (0)
 -->
<!-- Title: model Pages: 1 -->
<svg width="1142px" height="327px"
 viewBox="0.00 0.00 1142.00 327.00" xmlns="http://www.w3.org/2000/svg" xmlns:xlink="http://www.w3.org/1999/xlink">
<g id="graph0" class="graph" transform="scale(1.0 1.0) rotate(0) translate(4 323)">
<title>model</title>
<polygon fill="white" stroke="transparent" points="-4,4 -4,-323 1138,-323 1138,4 -4,4"/>
<!-- b -->
<g id="node1" class="node">
<title>b</title>
<polygon fill="none" stroke="black" points="315.5,-297.5 315.5,-314.5 974.5,-314.5 974.5,-297.5 315.5,-297.5"/>
<text text-anchor="start" x="628.5" y="-304.5" font-family="Times,serif" text-decoration="underline" font-size="10.00">b :Bank</text>
<polygon fill="none" stroke="black" points="315.5,-269.5 315.5,-297.5 974.5,-297.5 974.5,-269.5 315.5,-269.5"/>
<text text-anchor="start" x="318.5" y="-286.5" font-family="Times,serif" font-size="10.00">accountsMap = fe53182c&#45;8aeb&#45;4688&#45;9e79&#45;3f91f79a6bd3sendItToTheBank8a633aa5&#45;907c&#45;4e57&#45;a313&#45;22e0adb2672e7ec351d6&#45;652f&#45;4691&#45;8e72&#45;ea432d44a0c8</text>
<text text-anchor="start" x="318.5" y="-275.5" font-family="Times,serif" font-size="10.00">customerMap = e2f7bc4c&#45;ef2a&#45;466e&#45;b8a5&#45;d24f48b13afe1eaf6f4c&#45;4f92&#45;4e04&#45;bd87&#45;c82be03265dec0c19805&#45;d521&#45;4c59&#45;9db0&#45;0eec9e3454e1</text>
</g>
<!-- sendItToTheBank -->
<g id="node2" class="node">
<title>sendItToTheBank</title>
<polygon fill="none" stroke="black" points="347.5,-209 347.5,-226 493.5,-226 493.5,-209 347.5,-209"/>
<text text-anchor="start" x="363.5" y="-216" font-family="Times,serif" text-decoration="underline" font-size="10.00">sendItToTheBank :Account</text>
<polygon fill="none" stroke="black" points="347.5,-126 347.5,-209 493.5,-209 493.5,-126 347.5,-126"/>
<text text-anchor="start" x="350.5" y="-198" font-family="Times,serif" font-size="10.00">balance = 69420.0</text>
<text text-anchor="start" x="350.5" y="-187" font-family="Times,serif" font-size="10.00">customerId = null</text>
<text text-anchor="start" x="350.5" y="-176" font-family="Times,serif" font-size="10.00">iban = &quot;EE962021175171103742&quot;</text>
<text text-anchor="start" x="350.5" y="-165" font-family="Times,serif" font-size="10.00">id = &quot;sendItToTheBank&quot;</text>
<text text-anchor="start" x="350.5" y="-154" font-family="Times,serif" font-size="10.00">receivedTransaction = </text>
<text text-anchor="start" x="350.5" y="-143" font-family="Times,serif" font-size="10.00">sentTransaction = </text>
<text text-anchor="start" x="350.5" y="-132" font-family="Times,serif" font-size="10.00">status = &quot;ACTIVE&quot;</text>
</g>
<!-- b&#45;&gt;sendItToTheBank -->
<g id="edge1" class="edge">
<title>b&#45;&gt;sendItToTheBank</title>
<path fill="none" stroke="black" d="M585.5,-265.99C561.91,-255.38 534.66,-242.62 510.5,-230 507.61,-228.49 504.68,-226.93 501.73,-225.33"/>
<text text-anchor="middle" x="529.73" y="-228.33" font-family="Times,serif" font-size="10.00">bankAccount</text>
<text text-anchor="middle" x="575" y="-257.99" font-family="Times,serif" font-size="10.00">bank</text>
</g>
<!-- 8a633aa5_907c_4e57_a313_22e0adb2672e -->
<g id="node3" class="node">
<title>8a633aa5_907c_4e57_a313_22e0adb2672e</title>
<polygon fill="none" stroke="black" points="75.5,-209 75.5,-226 313.5,-226 313.5,-209 75.5,-209"/>
<text text-anchor="start" x="87.5" y="-216" font-family="Times,serif" text-decoration="underline" font-size="10.00">8a633aa5&#45;907c&#45;4e57&#45;a313&#45;22e0adb2672e :Account</text>
<polygon fill="none" stroke="black" points="75.5,-126 75.5,-209 313.5,-209 313.5,-126 75.5,-126"/>
<text text-anchor="start" x="78.5" y="-198" font-family="Times,serif" font-size="10.00">balance = 0.0</text>
<text text-anchor="start" x="78.5" y="-187" font-family="Times,serif" font-size="10.00">customerId = &quot;1eaf6f4c&#45;4f92&#45;4e04&#45;bd87&#45;c82be03265de&quot;</text>
<text text-anchor="start" x="78.5" y="-176" font-family="Times,serif" font-size="10.00">iban = null</text>
<text text-anchor="start" x="78.5" y="-165" font-family="Times,serif" font-size="10.00">id = &quot;8a633aa5&#45;907c&#45;4e57&#45;a313&#45;22e0adb2672e&quot;</text>
<text text-anchor="start" x="78.5" y="-154" font-family="Times,serif" font-size="10.00">receivedTransaction = </text>
<text text-anchor="start" x="78.5" y="-143" font-family="Times,serif" font-size="10.00">sentTransaction = </text>
<text text-anchor="start" x="78.5" y="-132" font-family="Times,serif" font-size="10.00">status = &quot;ACTIVE&quot;</text>
</g>
<!-- b&#45;&gt;8a633aa5_907c_4e57_a313_22e0adb2672e -->
<g id="edge2" class="edge">
<title>b&#45;&gt;8a633aa5_907c_4e57_a313_22e0adb2672e</title>
<path fill="none" stroke="black" d="M485.05,-265.97C435.12,-256.46 380.11,-244.4 330.5,-230 327.58,-229.15 324.63,-228.27 321.67,-227.35"/>
<text text-anchor="middle" x="340.17" y="-230.35" font-family="Times,serif" font-size="10.00">accounts</text>
<text text-anchor="middle" x="474.55" y="-257.97" font-family="Times,serif" font-size="10.00">bank</text>
</g>
<!-- 7ec351d6_652f_4691_8e72_ea432d44a0c8 -->
<g id="node4" class="node">
<title>7ec351d6_652f_4691_8e72_ea432d44a0c8</title>
<polygon fill="none" stroke="black" points="527.5,-209 527.5,-226 761.5,-226 761.5,-209 527.5,-209"/>
<text text-anchor="start" x="537.5" y="-216" font-family="Times,serif" text-decoration="underline" font-size="10.00">7ec351d6&#45;652f&#45;4691&#45;8e72&#45;ea432d44a0c8 :Account</text>
<polygon fill="none" stroke="black" points="527.5,-126 527.5,-209 761.5,-209 761.5,-126 527.5,-126"/>
<text text-anchor="start" x="530.5" y="-198" font-family="Times,serif" font-size="10.00">balance = 100.0</text>
<text text-anchor="start" x="530.5" y="-187" font-family="Times,serif" font-size="10.00">customerId = &quot;e2f7bc4c&#45;ef2a&#45;466e&#45;b8a5&#45;d24f48b13afe&quot;</text>
<text text-anchor="start" x="530.5" y="-176" font-family="Times,serif" font-size="10.00">iban = null</text>
<text text-anchor="start" x="530.5" y="-165" font-family="Times,serif" font-size="10.00">id = &quot;7ec351d6&#45;652f&#45;4691&#45;8e72&#45;ea432d44a0c8&quot;</text>
<text text-anchor="start" x="530.5" y="-154" font-family="Times,serif" font-size="10.00">receivedTransaction = </text>
<text text-anchor="start" x="530.5" y="-143" font-family="Times,serif" font-size="10.00">sentTransaction = </text>
<text text-anchor="start" x="530.5" y="-132" font-family="Times,serif" font-size="10.00">status = &quot;ACTIVE&quot;</text>
</g>
<!-- b&#45;&gt;7ec351d6_652f_4691_8e72_ea432d44a0c8 -->
<g id="edge3" class="edge">
<title>b&#45;&gt;7ec351d6_652f_4691_8e72_ea432d44a0c8</title>
<path fill="none" stroke="black" d="M644.5,-265.8C644.5,-255.25 644.5,-242.63 644.5,-230.25"/>
<text text-anchor="middle" x="626" y="-233.25" font-family="Times,serif" font-size="10.00">accounts</text>
<text text-anchor="middle" x="634" y="-257.8" font-family="Times,serif" font-size="10.00">bank</text>
</g>
<!-- fe53182c_8aeb_4688_9e79_3f91f79a6bd3 -->
<g id="node5" class="node">
<title>fe53182c_8aeb_4688_9e79_3f91f79a6bd3</title>
<polygon fill="none" stroke="black" points="833.5,-209 833.5,-226 1049.5,-226 1049.5,-209 833.5,-209"/>
<text text-anchor="start" x="836.5" y="-216" font-family="Times,serif" text-decoration="underline" font-size="10.00">fe53182c&#45;8aeb&#45;4688&#45;9e79&#45;3f91f79a6bd3 :Account</text>
<polygon fill="none" stroke="black" points="833.5,-126 833.5,-209 1049.5,-209 1049.5,-126 833.5,-126"/>
<text text-anchor="start" x="843.5" y="-198" font-family="Times,serif" font-size="10.00">balance = 0.0</text>
<text text-anchor="start" x="843.5" y="-187" font-family="Times,serif" font-size="10.00">customerId = null</text>
<text text-anchor="start" x="843.5" y="-176" font-family="Times,serif" font-size="10.00">iban = &quot;EE340934216544605680&quot;</text>
<text text-anchor="start" x="843.5" y="-165" font-family="Times,serif" font-size="10.00">id = &quot;fe53182c&#45;8aeb&#45;4688&#45;9e79&#45;3f91f79a6bd3&quot;</text>
<text text-anchor="start" x="843.5" y="-154" font-family="Times,serif" font-size="10.00">receivedTransaction = </text>
<text text-anchor="start" x="843.5" y="-143" font-family="Times,serif" font-size="10.00">sentTransaction = </text>
<text text-anchor="start" x="843.5" y="-132" font-family="Times,serif" font-size="10.00">status = &quot;ACTIVE&quot;</text>
</g>
<!-- b&#45;&gt;fe53182c_8aeb_4688_9e79_3f91f79a6bd3 -->
<g id="edge4" class="edge">
<title>b&#45;&gt;fe53182c_8aeb_4688_9e79_3f91f79a6bd3</title>
<path fill="none" stroke="black" d="M715.4,-266C745.17,-255.13 780.1,-242.18 811.5,-230 816.04,-228.24 820.67,-226.43 825.34,-224.59"/>
<text text-anchor="middle" x="806.84" y="-227.59" font-family="Times,serif" font-size="10.00">accounts</text>
<text text-anchor="middle" x="704.9" y="-258" font-family="Times,serif" font-size="10.00">bank</text>
</g>
<!-- e2f7bc4c_ef2a_466e_b8a5_d24f48b13afe -->
<g id="node6" class="node">
<title>e2f7bc4c_ef2a_466e_b8a5_d24f48b13afe</title>
<polygon fill="none" stroke="black" points="558.5,-65 558.5,-82 773.5,-82 773.5,-65 558.5,-65"/>
<text text-anchor="start" x="561.5" y="-72" font-family="Times,serif" text-decoration="underline" font-size="10.00">e2f7bc4c&#45;ef2a&#45;466e&#45;b8a5&#45;d24f48b13afe :Customer</text>
<polygon fill="none" stroke="black" points="558.5,-4 558.5,-65 773.5,-65 773.5,-4 558.5,-4"/>
<text text-anchor="start" x="570.5" y="-54" font-family="Times,serif" font-size="10.00">email = &quot;john@doe.ee&quot;</text>
<text text-anchor="start" x="570.5" y="-43" font-family="Times,serif" font-size="10.00">firstName = &quot;John&quot;</text>
<text text-anchor="start" x="570.5" y="-32" font-family="Times,serif" font-size="10.00">id = &quot;e2f7bc4c&#45;ef2a&#45;466e&#45;b8a5&#45;d24f48b13afe&quot;</text>
<text text-anchor="start" x="570.5" y="-21" font-family="Times,serif" font-size="10.00">lastName = &quot;Doe&quot;</text>
<text text-anchor="start" x="570.5" y="-10" font-family="Times,serif" font-size="10.00">password = &quot;pass1234&quot;</text>
</g>
<!-- b&#45;&gt;e2f7bc4c_ef2a_466e_b8a5_d24f48b13afe -->
<g id="edge5" class="edge">
<title>b&#45;&gt;e2f7bc4c_ef2a_466e_b8a5_d24f48b13afe</title>
<path fill="none" stroke="black" d="M737.24,-265.9C753.6,-257.17 768.55,-245.51 778.5,-230 804.41,-189.6 800.81,-164.5 778.5,-122 771.19,-108.07 760.14,-96.14 747.76,-86.1"/>
<text text-anchor="middle" x="727.26" y="-89.1" font-family="Times,serif" font-size="10.00">customers</text>
<text text-anchor="middle" x="726.74" y="-257.9" font-family="Times,serif" font-size="10.00">bank</text>
</g>
<!-- 1eaf6f4c_4f92_4e04_bd87_c82be03265de -->
<g id="node7" class="node">
<title>1eaf6f4c_4f92_4e04_bd87_c82be03265de</title>
<polygon fill="none" stroke="black" points="8.5,-65 8.5,-82 227.5,-82 227.5,-65 8.5,-65"/>
<text text-anchor="start" x="11.5" y="-72" font-family="Times,serif" text-decoration="underline" font-size="10.00">1eaf6f4c&#45;4f92&#45;4e04&#45;bd87&#45;c82be03265de :Customer</text>
<polygon fill="none" stroke="black" points="8.5,-4 8.5,-65 227.5,-65 227.5,-4 8.5,-4"/>
<text text-anchor="start" x="20.5" y="-54" font-family="Times,serif" font-size="10.00">email = &quot;bobby@tt.ee&quot;</text>
<text text-anchor="start" x="20.5" y="-43" font-family="Times,serif" font-size="10.00">firstName = &quot;Bob&quot;</text>
<text text-anchor="start" x="20.5" y="-32" font-family="Times,serif" font-size="10.00">id = &quot;1eaf6f4c&#45;4f92&#45;4e04&#45;bd87&#45;c82be03265de&quot;</text>
<text text-anchor="start" x="20.5" y="-21" font-family="Times,serif" font-size="10.00">lastName = &quot;Jackson&quot;</text>
<text text-anchor="start" x="20.5" y="-10" font-family="Times,serif" font-size="10.00">password = &quot;secret&quot;</text>
</g>
<!-- b&#45;&gt;1eaf6f4c_4f92_4e04_bd87_c82be03265de -->
<g id="edge6" class="edge">
<title>b&#45;&gt;1eaf6f4c_4f92_4e04_bd87_c82be03265de</title>
<path fill="none" stroke="black" d="M306.83,-274.57C187.16,-265.07 77.24,-250.81 58.5,-230 26.38,-194.33 43.23,-167.51 58.5,-122 62.77,-109.28 70.02,-96.99 78.01,-86.06"/>
<text text-anchor="middle" x="57.51" y="-89.06" font-family="Times,serif" font-size="10.00">customers</text>
<text text-anchor="middle" x="296.33" y="-277.57" font-family="Times,serif" font-size="10.00">bank</text>
</g>
<!-- c0c19805_d521_4c59_9db0_0eec9e3454e1 -->
<g id="node8" class="node">
<title>c0c19805_d521_4c59_9db0_0eec9e3454e1</title>
<polygon fill="none" stroke="black" points="901.5,-65 901.5,-82 1126.5,-82 1126.5,-65 901.5,-65"/>
<text text-anchor="start" x="904.5" y="-72" font-family="Times,serif" text-decoration="underline" font-size="10.00">c0c19805&#45;d521&#45;4c59&#45;9db0&#45;0eec9e3454e1 :Customer</text>
<polygon fill="none" stroke="black" points="901.5,-4 901.5,-65 1126.5,-65 1126.5,-4 901.5,-4"/>
<text text-anchor="start" x="913.5" y="-54" font-family="Times,serif" font-size="10.00">email = &quot;bobbytest@tt.ee&quot;</text>
<text text-anchor="start" x="913.5" y="-43" font-family="Times,serif" font-size="10.00">firstName = &quot;Bob&quot;</text>
<text text-anchor="start" x="913.5" y="-32" font-family="Times,serif" font-size="10.00">id = &quot;c0c19805&#45;d521&#45;4c59&#45;9db0&#45;0eec9e3454e1&quot;</text>
<text text-anchor="start" x="913.5" y="-21" font-family="Times,serif" font-size="10.00">lastName = &quot;Jackson&quot;</text>
<text text-anchor="start" x="913.5" y="-10" font-family="Times,serif" font-size="10.00">password = &quot;secret&quot;</text>
</g>
<!-- b&#45;&gt;c0c19805_d521_4c59_9db0_0eec9e3454e1 -->
<g id="edge7" class="edge">
<title>b&#45;&gt;c0c19805_d521_4c59_9db0_0eec9e3454e1</title>
<path fill="none" stroke="black" d="M982.27,-268.1C1021.07,-259.1 1051.97,-246.8 1066.5,-230 1097.9,-193.69 1080.61,-167.88 1066.5,-122 1062.65,-109.48 1056.03,-97.17 1048.75,-86.16"/>
<text text-anchor="middle" x="1028.25" y="-89.16" font-family="Times,serif" font-size="10.00">customers</text>
<text text-anchor="middle" x="992.77" y="-271.1" font-family="Times,serif" font-size="10.00">bank</text>
</g>
<!-- c -->
<g id="node9" class="node">
<title>c</title>
<polygon fill="none" stroke="black" points="338.5,-43 338.5,-60 502.5,-60 502.5,-43 338.5,-43"/>
<text text-anchor="start" x="396.5" y="-50" font-family="Times,serif" text-decoration="underline" font-size="10.00">c :Currency</text>
<polygon fill="none" stroke="black" points="338.5,-26 338.5,-43 502.5,-43 502.5,-26 338.5,-26"/>
<text text-anchor="start" x="341.5" y="-32" font-family="Times,serif" font-size="10.00">declaringClass = class model.Currency</text>
</g>
<!-- sendItToTheBank&#45;&gt;c -->
<g id="edge8" class="edge">
<title>sendItToTheBank&#45;&gt;c</title>
<path fill="none" stroke="black" d="M420.5,-121.72C420.5,-101.46 420.5,-79.58 420.5,-64.22"/>
<text text-anchor="middle" x="402.5" y="-67.22" font-family="Times,serif" font-size="10.00">currency</text>
</g>
<!-- 8a633aa5_907c_4e57_a313_22e0adb2672e&#45;&gt;1eaf6f4c_4f92_4e04_bd87_c82be03265de -->
<g id="edge10" class="edge">
<title>8a633aa5_907c_4e57_a313_22e0adb2672e&#45;&gt;1eaf6f4c_4f92_4e04_bd87_c82be03265de</title>
<path fill="none" stroke="black" d="M163.18,-121.72C156.27,-109.96 149.04,-97.66 142.42,-86.4"/>
<text text-anchor="middle" x="129.42" y="-89.4" font-family="Times,serif" font-size="10.00">owner</text>
<text text-anchor="middle" x="146.68" y="-113.72" font-family="Times,serif" font-size="10.00">account</text>
</g>
<!-- 8a633aa5_907c_4e57_a313_22e0adb2672e&#45;&gt;c -->
<g id="edge9" class="edge">
<title>8a633aa5_907c_4e57_a313_22e0adb2672e&#45;&gt;c</title>
<path fill="none" stroke="black" d="M286.1,-121.91C321.21,-101.55 359.19,-79.54 385.79,-64.12"/>
<text text-anchor="middle" x="367.79" y="-67.12" font-family="Times,serif" font-size="10.00">currency</text>
</g>
<!-- 7ec351d6_652f_4691_8e72_ea432d44a0c8&#45;&gt;e2f7bc4c_ef2a_466e_b8a5_d24f48b13afe -->
<g id="edge12" class="edge">
<title>7ec351d6_652f_4691_8e72_ea432d44a0c8&#45;&gt;e2f7bc4c_ef2a_466e_b8a5_d24f48b13afe</title>
<path fill="none" stroke="black" d="M653.04,-121.72C654.93,-109.96 656.9,-97.66 658.7,-86.4"/>
<text text-anchor="middle" x="645.7" y="-89.4" font-family="Times,serif" font-size="10.00">owner</text>
<text text-anchor="middle" x="636.54" y="-113.72" font-family="Times,serif" font-size="10.00">account</text>
</g>
<!-- 7ec351d6_652f_4691_8e72_ea432d44a0c8&#45;&gt;c -->
<g id="edge11" class="edge">
<title>7ec351d6_652f_4691_8e72_ea432d44a0c8&#45;&gt;c</title>
<path fill="none" stroke="black" d="M553.71,-121.91C518.91,-101.55 481.27,-79.54 454.9,-64.12"/>
<text text-anchor="middle" x="472.9" y="-67.12" font-family="Times,serif" font-size="10.00">currency</text>
</g>
<!-- fe53182c_8aeb_4688_9e79_3f91f79a6bd3&#45;&gt;c0c19805_d521_4c59_9db0_0eec9e3454e1 -->
<g id="edge14" class="edge">
<title>fe53182c_8aeb_4688_9e79_3f91f79a6bd3&#45;&gt;c0c19805_d521_4c59_9db0_0eec9e3454e1</title>
<path fill="none" stroke="black" d="M970.79,-121.72C977.25,-109.96 984.01,-97.66 990.2,-86.4"/>
<text text-anchor="middle" x="977.2" y="-89.4" font-family="Times,serif" font-size="10.00">owner</text>
<text text-anchor="middle" x="954.29" y="-113.72" font-family="Times,serif" font-size="10.00">account</text>
</g>
<!-- fe53182c_8aeb_4688_9e79_3f91f79a6bd3&#45;&gt;c -->
<g id="edge13" class="edge">
<title>fe53182c_8aeb_4688_9e79_3f91f79a6bd3&#45;&gt;c</title>
<path fill="none" stroke="black" d="M825.07,-134.6C809.52,-129.95 793.7,-125.6 778.5,-122 674.83,-97.45 644.93,-111.58 541.5,-86 518.19,-80.24 493.01,-71.86 471.69,-64.1"/>
<text text-anchor="middle" x="453.69" y="-67.1" font-family="Times,serif" font-size="10.00">currency</text>
</g>
</g>
</svg>
