<?xml version="1.0" encoding="UTF-8" standalone="no"?>
<!DOCTYPE svg PUBLIC "-//W3C//DTD SVG 1.1//EN"
 "http://www.w3.org/Graphics/SVG/1.1/DTD/svg11.dtd">
<!-- Generated by graphviz version 2.49.3 (20211023.0002)
 -->
<!-- Pages: 1 -->
<svg width="508px" height="244px"
 viewBox="0.00 0.00 507.50 244.00" xmlns="http://www.w3.org/2000/svg" xmlns:xlink="http://www.w3.org/1999/xlink">
<g id="graph0" class="graph" transform="scale(1.0 1.0) rotate(0) translate(4 240)">
<polygon fill="white" stroke="transparent" points="-4,4 -4,-240 503.5,-240 503.5,4 -4,4"/>
<!-- b -->
<g id="node1" class="node">
<title>b</title>
<polygon fill="none" stroke="black" points="223.5,-212 223.5,-229 261.5,-229 261.5,-212 223.5,-212"/>
<text text-anchor="start" x="226.5" y="-219" font-family="Times,serif" text-decoration="underline" font-size="10.00">b :Bank</text>
<polygon fill="none" stroke="black" points="223.5,-206 223.5,-212 261.5,-212 261.5,-206 223.5,-206"/>
</g>
<!-- 2cbac968_79d5_4d67_94a6_afd466f2fa04 -->
<g id="node2" class="node">
<title>2cbac968_79d5_4d67_94a6_afd466f2fa04</title>
<polygon fill="none" stroke="black" points="8.5,-126 8.5,-143 219.5,-143 219.5,-126 8.5,-126"/>
<text text-anchor="start" x="11.5" y="-133" font-family="Times,serif" text-decoration="underline" font-size="10.00">2cbac968&#45;79d5&#45;4d67&#45;94a6&#45;afd466f2fa04 :Account</text>
<polygon fill="none" stroke="black" points="8.5,-98 8.5,-126 219.5,-126 219.5,-98 8.5,-98"/>
<text text-anchor="start" x="18" y="-115" font-family="Times,serif" font-size="10.00">balance = 69420.0</text>
<text text-anchor="start" x="18" y="-104" font-family="Times,serif" font-size="10.00">id = &quot;2cbac968&#45;79d5&#45;4d67&#45;94a6&#45;afd466f2fa04&quot;</text>
</g>
<!-- b&#45;&gt;2cbac968_79d5_4d67_94a6_afd466f2fa04 -->
<g id="edge1" class="edge">
<title>b&#45;&gt;2cbac968_79d5_4d67_94a6_afd466f2fa04</title>
<path fill="none" stroke="black" d="M219.14,-199.8C199.39,-185.25 170.81,-164.21 148.36,-147.67"/>
<text text-anchor="middle" x="121.36" y="-150.67" font-family="Times,serif" font-size="10.00">bankAccount</text>
<text text-anchor="middle" x="209.14" y="-191.8" font-family="Times,serif" font-size="10.00">bank</text>
</g>
<!-- 2bd6ac3e_a789_4e25_9481_81875e283b10 -->
<g id="node3" class="node">
<title>2bd6ac3e_a789_4e25_9481_81875e283b10</title>
<polygon fill="none" stroke="black" points="253.5,-143 253.5,-160 491.5,-160 491.5,-143 253.5,-143"/>
<text text-anchor="start" x="256.5" y="-150" font-family="Times,serif" text-decoration="underline" font-size="10.00">2bd6ac3e&#45;a789&#45;4e25&#45;9481&#45;81875e283b10 :Administrator</text>
<polygon fill="none" stroke="black" points="253.5,-82 253.5,-143 491.5,-143 491.5,-82 253.5,-82"/>
<text text-anchor="start" x="274" y="-132" font-family="Times,serif" font-size="10.00">email = &quot;admin@bank.ee&quot;</text>
<text text-anchor="start" x="274" y="-121" font-family="Times,serif" font-size="10.00">firstName = &quot;Admin&quot;</text>
<text text-anchor="start" x="274" y="-110" font-family="Times,serif" font-size="10.00">id = &quot;2bd6ac3e&#45;a789&#45;4e25&#45;9481&#45;81875e283b10&quot;</text>
<text text-anchor="start" x="274" y="-99" font-family="Times,serif" font-size="10.00">lastName = &quot;Alice&quot;</text>
<text text-anchor="start" x="274" y="-88" font-family="Times,serif" font-size="10.00">password = &quot;secure_p@ssw0|2d&quot;</text>
</g>
<!-- b&#45;&gt;2bd6ac3e_a789_4e25_9481_81875e283b10 -->
<g id="edge2" class="edge">
<title>b&#45;&gt;2bd6ac3e_a789_4e25_9481_81875e283b10</title>
<path fill="none" stroke="black" d="M266.04,-199.8C279.72,-189.8 297.61,-176.72 314.81,-164.16"/>
<text text-anchor="middle" x="285.81" y="-167.16" font-family="Times,serif" font-size="10.00">administrators</text>
<text text-anchor="middle" x="256.04" y="-191.8" font-family="Times,serif" font-size="10.00">bank</text>
</g>
<!-- c -->
<g id="node4" class="node">
<title>c</title>
<polygon fill="none" stroke="black" points="46.5,-21 46.5,-38 181.5,-38 181.5,-21 46.5,-21"/>
<text text-anchor="start" x="90.5" y="-28" font-family="Times,serif" text-decoration="underline" font-size="10.00">c :Currency</text>
<polygon fill="none" stroke="black" points="46.5,-4 46.5,-21 181.5,-21 181.5,-4 46.5,-4"/>
<text text-anchor="start" x="49.5" y="-10" font-family="Times,serif" font-size="10.00">declaringClass = class Currency</text>
</g>
<!-- 2cbac968_79d5_4d67_94a6_afd466f2fa04&#45;&gt;c -->
<g id="edge3" class="edge">
<title>2cbac968_79d5_4d67_94a6_afd466f2fa04&#45;&gt;c</title>
<path fill="none" stroke="black" d="M113.5,-94.25C113.5,-77.92 113.5,-57.1 113.5,-42.01"/>
<text text-anchor="middle" x="96" y="-45.01" font-family="Times,serif" font-size="10.00">currency</text>
</g>
</g>
</svg>
