<?xml version="1.0" encoding="UTF-8" standalone="no"?>
<!DOCTYPE svg PUBLIC "-//W3C//DTD SVG 1.1//EN"
 "http://www.w3.org/Graphics/SVG/1.1/DTD/svg11.dtd">
<!-- Generated by graphviz version 2.44.0 (20200408.0750)
 -->
<!-- Title: model Pages: 1 -->
<svg width="1362px" height="496px"
 viewBox="0.00 0.00 1362.13 496.00" xmlns="http://www.w3.org/2000/svg" xmlns:xlink="http://www.w3.org/1999/xlink">
<g id="graph0" class="graph" transform="scale(1.0 1.0) rotate(0) translate(4 492)">
<title>model</title>
<polygon fill="white" stroke="transparent" points="-4,4 -4,-492 1358.13,-492 1358.13,4 -4,4"/>
<!-- cd700acb_e9a4_40ca_a238_a02e84d10d55 -->
<g id="node1" class="node">
<title>cd700acb_e9a4_40ca_a238_a02e84d10d55</title>
<polygon fill="none" stroke="black" points="701.87,-466 701.87,-484 927.87,-484 927.87,-466 701.87,-466"/>
<text text-anchor="start" x="704.77" y="-473" font-family="Times,serif" text-decoration="underline" font-size="10.00">cd700acb&#45;e9a4&#45;40ca&#45;a238&#45;a02e84d10d55 :Transaction</text>
<polygon fill="none" stroke="black" points="701.87,-400 701.87,-466 927.87,-466 927.87,-400 701.87,-400"/>
<text text-anchor="start" x="717.73" y="-454" font-family="Times,serif" font-size="10.00">amount = 250.0</text>
<text text-anchor="start" x="717.73" y="-442" font-family="Times,serif" font-size="10.00">description = &quot;Salary&quot;</text>
<text text-anchor="start" x="717.73" y="-430" font-family="Times,serif" font-size="10.00">id = &quot;cd700acb&#45;e9a4&#45;40ca&#45;a238&#45;a02e84d10d55&quot;</text>
<text text-anchor="start" x="717.73" y="-418" font-family="Times,serif" font-size="10.00">rejectionDescription = &quot;&quot;</text>
<text text-anchor="start" x="717.73" y="-406" font-family="Times,serif" font-size="10.00">timestamp = 2021&#45;12&#45;10T00:12:53.032310800</text>
</g>
<!-- b -->
<g id="node2" class="node">
<title>b</title>
<polygon fill="none" stroke="black" points="493.87,-338 493.87,-356 1135.87,-356 1135.87,-338 493.87,-338"/>
<text text-anchor="start" x="799.17" y="-345" font-family="Times,serif" text-decoration="underline" font-size="10.00">b :Bank</text>
<polygon fill="none" stroke="black" points="493.87,-308 493.87,-338 1135.87,-338 1135.87,-308 493.87,-308"/>
<text text-anchor="start" x="496.87" y="-326" font-family="Times,serif" font-size="10.00">accountsMap = 7faef5c6&#45;769f&#45;4ba1&#45;8361&#45;6b9833b3756fsendItToTheBank8a633aa5&#45;907c&#45;4e57&#45;a313&#45;22e0adb2672e7ec351d6&#45;652f&#45;4691&#45;8e72&#45;ea432d44a0c8</text>
<text text-anchor="start" x="496.87" y="-314" font-family="Times,serif" font-size="10.00">customerMap = e2f7bc4c&#45;ef2a&#45;466e&#45;b8a5&#45;d24f48b13afe1eaf6f4c&#45;4f92&#45;4e04&#45;bd87&#45;c82be03265de16c992dc&#45;328f&#45;4725&#45;8a0a&#45;a043c07c3eba</text>
</g>
<!-- cd700acb_e9a4_40ca_a238_a02e84d10d55&#45;&gt;b -->
<g id="edge1" class="edge">
<title>cd700acb_e9a4_40ca_a238_a02e84d10d55&#45;&gt;b</title>
<path fill="none" stroke="black" d="M814.87,-395.82C814.87,-383.69 814.87,-370.94 814.87,-360.12"/>
<text text-anchor="middle" x="805.15" y="-363.12" font-family="Times,serif" font-size="10.00">bank</text>
<text text-anchor="middle" x="790.99" y="-386.82" font-family="Times,serif" font-size="10.00">transactions</text>
</g>
<!-- c -->
<g id="node3" class="node">
<title>c</title>
<polygon fill="none" stroke="black" points="601.87,-46 601.87,-64 763.87,-64 763.87,-46 601.87,-46"/>
<text text-anchor="start" x="659.41" y="-53" font-family="Times,serif" text-decoration="underline" font-size="10.00">c :Currency</text>
<polygon fill="none" stroke="black" points="601.87,-28 601.87,-46 763.87,-46 763.87,-28 601.87,-28"/>
<text text-anchor="start" x="604.87" y="-34" font-family="Times,serif" font-size="10.00">declaringClass = class model.Currency</text>
</g>
<!-- cd700acb_e9a4_40ca_a238_a02e84d10d55&#45;&gt;c -->
<g id="edge2" class="edge">
<title>cd700acb_e9a4_40ca_a238_a02e84d10d55&#45;&gt;c</title>
<path fill="none" stroke="black" d="M935.94,-430.77C1016.09,-420.52 1121.87,-400.16 1207.87,-360 1312.32,-311.22 1402.58,-212.23 1323.87,-128 1283.49,-84.79 850.47,-105.37 792.87,-92 769.75,-86.64 745.21,-77.01 725.18,-68.03"/>
<text text-anchor="middle" x="707.69" y="-71.03" font-family="Times,serif" font-size="10.00">currency</text>
</g>
<!-- 7faef5c6_769f_4ba1_8361_6b9833b3756f -->
<g id="node4" class="node">
<title>7faef5c6_769f_4ba1_8361_6b9833b3756f</title>
<polygon fill="none" stroke="black" points="1041.87,-240 1041.87,-258 1306.87,-258 1306.87,-240 1041.87,-240"/>
<text text-anchor="start" x="1072.6" y="-247" font-family="Times,serif" text-decoration="underline" font-size="10.00">7faef5c6&#45;769f&#45;4ba1&#45;8361&#45;6b9833b3756f :Account</text>
<polygon fill="none" stroke="black" points="1041.87,-138 1041.87,-240 1306.87,-240 1306.87,-138 1041.87,-138"/>
<text text-anchor="start" x="1044.87" y="-228" font-family="Times,serif" font-size="10.00">balance = 260.0</text>
<text text-anchor="start" x="1044.87" y="-216" font-family="Times,serif" font-size="10.00">count = 0</text>
<text text-anchor="start" x="1044.87" y="-204" font-family="Times,serif" font-size="10.00">customerId = null</text>
<text text-anchor="start" x="1044.87" y="-192" font-family="Times,serif" font-size="10.00">iban = &quot;EE090056164505311217&quot;</text>
<text text-anchor="start" x="1044.87" y="-180" font-family="Times,serif" font-size="10.00">id = &quot;7faef5c6&#45;769f&#45;4ba1&#45;8361&#45;6b9833b3756f&quot;</text>
<text text-anchor="start" x="1044.87" y="-168" font-family="Times,serif" font-size="10.00">receivedTransaction = cd700acb&#45;e9a4&#45;40ca&#45;a238&#45;a02e84d10d55</text>
<text text-anchor="start" x="1044.87" y="-156" font-family="Times,serif" font-size="10.00">sentTransaction = </text>
<text text-anchor="start" x="1044.87" y="-144" font-family="Times,serif" font-size="10.00">status = &quot;ACTIVE&quot;</text>
</g>
<!-- cd700acb_e9a4_40ca_a238_a02e84d10d55&#45;&gt;7faef5c6_769f_4ba1_8361_6b9833b3756f -->
<g id="edge3" class="edge">
<title>cd700acb_e9a4_40ca_a238_a02e84d10d55&#45;&gt;7faef5c6_769f_4ba1_8361_6b9833b3756f</title>
<path fill="none" stroke="black" d="M936.11,-430.76C1032,-419.84 1154.75,-398.64 1185.87,-360 1207.58,-333.04 1205.55,-294.62 1197.63,-262.08"/>
<text text-anchor="middle" x="1219.57" y="-265.08" font-family="Times,serif" font-size="10.00">destination</text>
<text text-anchor="middle" x="1020.8" y="-433.76" font-family="Times,serif" font-size="10.00">allTransactionsWithSignAndOrderedDesc</text>
</g>
<!-- sendItToTheBank -->
<g id="node5" class="node">
<title>sendItToTheBank</title>
<polygon fill="none" stroke="black" points="44.87,-246 44.87,-264 358.87,-264 358.87,-246 44.87,-246"/>
<text text-anchor="start" x="146.19" y="-253" font-family="Times,serif" text-decoration="underline" font-size="10.00">sendItToTheBank :Account</text>
<polygon fill="none" stroke="black" points="44.87,-132 44.87,-246 358.87,-246 358.87,-132 44.87,-132"/>
<text text-anchor="start" x="47.87" y="-234" font-family="Times,serif" font-size="10.00">allTransactionsWithSignAndOrderedDesc = [model.Transaction@5e5b08f0]</text>
<text text-anchor="start" x="47.87" y="-222" font-family="Times,serif" font-size="10.00">balance = 69170.0</text>
<text text-anchor="start" x="47.87" y="-210" font-family="Times,serif" font-size="10.00">count = 1</text>
<text text-anchor="start" x="47.87" y="-198" font-family="Times,serif" font-size="10.00">customerId = null</text>
<text text-anchor="start" x="47.87" y="-186" font-family="Times,serif" font-size="10.00">iban = &quot;EE910666226503286984&quot;</text>
<text text-anchor="start" x="47.87" y="-174" font-family="Times,serif" font-size="10.00">id = &quot;sendItToTheBank&quot;</text>
<text text-anchor="start" x="47.87" y="-162" font-family="Times,serif" font-size="10.00">receivedTransaction = </text>
<text text-anchor="start" x="47.87" y="-150" font-family="Times,serif" font-size="10.00">sentTransaction = cd700acb&#45;e9a4&#45;40ca&#45;a238&#45;a02e84d10d55</text>
<text text-anchor="start" x="47.87" y="-138" font-family="Times,serif" font-size="10.00">status = &quot;ACTIVE&quot;</text>
</g>
<!-- cd700acb_e9a4_40ca_a238_a02e84d10d55&#45;&gt;sendItToTheBank -->
<g id="edge4" class="edge">
<title>cd700acb_e9a4_40ca_a238_a02e84d10d55&#45;&gt;sendItToTheBank</title>
<path fill="none" stroke="black" d="M693.72,-433.15C625.17,-423.79 540.67,-403.54 476.87,-360 451.82,-342.9 461.25,-323.32 437.87,-304 416.69,-286.5 392.14,-271.37 367.04,-258.47"/>
<text text-anchor="middle" x="380.09" y="-249.47" font-family="Times,serif" font-size="10.00">source</text>
</g>
<!-- s -->
<g id="node6" class="node">
<title>s</title>
<polygon fill="none" stroke="black" points="220.87,-332 220.87,-350 421.87,-350 421.87,-332 220.87,-332"/>
<text text-anchor="start" x="304.56" y="-339" font-family="Times,serif" text-decoration="underline" font-size="10.00">s :Status</text>
<polygon fill="none" stroke="black" points="220.87,-314 220.87,-332 421.87,-332 421.87,-314 220.87,-314"/>
<text text-anchor="start" x="223.87" y="-320" font-family="Times,serif" font-size="10.00">declaringClass = class model.Transaction$Status</text>
</g>
<!-- cd700acb_e9a4_40ca_a238_a02e84d10d55&#45;&gt;s -->
<g id="edge5" class="edge">
<title>cd700acb_e9a4_40ca_a238_a02e84d10d55&#45;&gt;s</title>
<path fill="none" stroke="black" d="M693.72,-414.59C621.23,-398.77 527.27,-378.26 443.87,-360 435,-358.06 425.78,-356.04 416.55,-354.01"/>
<text text-anchor="middle" x="405.16" y="-357.01" font-family="Times,serif" font-size="10.00">status</text>
</g>
<!-- b&#45;&gt;7faef5c6_769f_4ba1_8361_6b9833b3756f -->
<g id="edge9" class="edge">
<title>b&#45;&gt;7faef5c6_769f_4ba1_8361_6b9833b3756f</title>
<path fill="none" stroke="black" d="M910.63,-304C945.06,-293.62 983.99,-281.09 1018.87,-268 1023.97,-266.08 1029.14,-264.09 1034.35,-262.03"/>
<text text-anchor="middle" x="1016.86" y="-265.03" font-family="Times,serif" font-size="10.00">accounts</text>
<text text-anchor="middle" x="900.91" y="-295" font-family="Times,serif" font-size="10.00">bank</text>
</g>
<!-- b&#45;&gt;sendItToTheBank -->
<g id="edge6" class="edge">
<title>b&#45;&gt;sendItToTheBank</title>
<path fill="none" stroke="black" d="M561.65,-303.97C501.85,-294.91 438.69,-283.14 380.87,-268 376.36,-266.82 371.8,-265.56 367.23,-264.24"/>
<text text-anchor="middle" x="393.88" y="-267.24" font-family="Times,serif" font-size="10.00">bankAccount</text>
<text text-anchor="middle" x="551.94" y="-294.97" font-family="Times,serif" font-size="10.00">bank</text>
</g>
<!-- 8a633aa5_907c_4e57_a313_22e0adb2672e -->
<g id="node7" class="node">
<title>8a633aa5_907c_4e57_a313_22e0adb2672e</title>
<polygon fill="none" stroke="black" points="430.87,-240 430.87,-258 664.87,-258 664.87,-240 430.87,-240"/>
<text text-anchor="start" x="444.16" y="-247" font-family="Times,serif" text-decoration="underline" font-size="10.00">8a633aa5&#45;907c&#45;4e57&#45;a313&#45;22e0adb2672e :Account</text>
<polygon fill="none" stroke="black" points="430.87,-138 430.87,-240 664.87,-240 664.87,-138 430.87,-138"/>
<text text-anchor="start" x="433.87" y="-228" font-family="Times,serif" font-size="10.00">balance = 0.0</text>
<text text-anchor="start" x="433.87" y="-216" font-family="Times,serif" font-size="10.00">count = 0</text>
<text text-anchor="start" x="433.87" y="-204" font-family="Times,serif" font-size="10.00">customerId = &quot;1eaf6f4c&#45;4f92&#45;4e04&#45;bd87&#45;c82be03265de&quot;</text>
<text text-anchor="start" x="433.87" y="-192" font-family="Times,serif" font-size="10.00">iban = &quot;EE500467859057350272&quot;</text>
<text text-anchor="start" x="433.87" y="-180" font-family="Times,serif" font-size="10.00">id = &quot;8a633aa5&#45;907c&#45;4e57&#45;a313&#45;22e0adb2672e&quot;</text>
<text text-anchor="start" x="433.87" y="-168" font-family="Times,serif" font-size="10.00">receivedTransaction = </text>
<text text-anchor="start" x="433.87" y="-156" font-family="Times,serif" font-size="10.00">sentTransaction = </text>
<text text-anchor="start" x="433.87" y="-144" font-family="Times,serif" font-size="10.00">status = &quot;ACTIVE&quot;</text>
</g>
<!-- b&#45;&gt;8a633aa5_907c_4e57_a313_22e0adb2672e -->
<g id="edge7" class="edge">
<title>b&#45;&gt;8a633aa5_907c_4e57_a313_22e0adb2672e</title>
<path fill="none" stroke="black" d="M756.73,-303.97C733.38,-292.98 706.26,-280.05 681.87,-268 678,-266.09 674.07,-264.13 670.11,-262.15"/>
<text text-anchor="middle" x="652.61" y="-265.15" font-family="Times,serif" font-size="10.00">accounts</text>
<text text-anchor="middle" x="747.01" y="-294.97" font-family="Times,serif" font-size="10.00">bank</text>
</g>
<!-- 7ec351d6_652f_4691_8e72_ea432d44a0c8 -->
<g id="node8" class="node">
<title>7ec351d6_652f_4691_8e72_ea432d44a0c8</title>
<polygon fill="none" stroke="black" points="699.87,-240 699.87,-258 930.87,-258 930.87,-240 699.87,-240"/>
<text text-anchor="start" x="711.93" y="-247" font-family="Times,serif" text-decoration="underline" font-size="10.00">7ec351d6&#45;652f&#45;4691&#45;8e72&#45;ea432d44a0c8 :Account</text>
<polygon fill="none" stroke="black" points="699.87,-138 699.87,-240 930.87,-240 930.87,-138 699.87,-138"/>
<text text-anchor="start" x="702.87" y="-228" font-family="Times,serif" font-size="10.00">balance = 100.0</text>
<text text-anchor="start" x="702.87" y="-216" font-family="Times,serif" font-size="10.00">count = 0</text>
<text text-anchor="start" x="702.87" y="-204" font-family="Times,serif" font-size="10.00">customerId = &quot;e2f7bc4c&#45;ef2a&#45;466e&#45;b8a5&#45;d24f48b13afe&quot;</text>
<text text-anchor="start" x="702.87" y="-192" font-family="Times,serif" font-size="10.00">iban = &quot;EE508166157234538669&quot;</text>
<text text-anchor="start" x="702.87" y="-180" font-family="Times,serif" font-size="10.00">id = &quot;7ec351d6&#45;652f&#45;4691&#45;8e72&#45;ea432d44a0c8&quot;</text>
<text text-anchor="start" x="702.87" y="-168" font-family="Times,serif" font-size="10.00">receivedTransaction = </text>
<text text-anchor="start" x="702.87" y="-156" font-family="Times,serif" font-size="10.00">sentTransaction = </text>
<text text-anchor="start" x="702.87" y="-144" font-family="Times,serif" font-size="10.00">status = &quot;ACTIVE&quot;</text>
</g>
<!-- b&#45;&gt;7ec351d6_652f_4691_8e72_ea432d44a0c8 -->
<g id="edge8" class="edge">
<title>b&#45;&gt;7ec351d6_652f_4691_8e72_ea432d44a0c8</title>
<path fill="none" stroke="black" d="M814.87,-303.97C814.87,-291.83 814.87,-276.94 814.87,-262.24"/>
<text text-anchor="middle" x="797.38" y="-265.24" font-family="Times,serif" font-size="10.00">accounts</text>
<text text-anchor="middle" x="805.15" y="-294.97" font-family="Times,serif" font-size="10.00">bank</text>
</g>
<!-- e2f7bc4c_ef2a_466e_b8a5_d24f48b13afe -->
<g id="node9" class="node">
<title>e2f7bc4c_ef2a_466e_b8a5_d24f48b13afe</title>
<polygon fill="none" stroke="black" points="809.87,-70 809.87,-88 1020.87,-88 1020.87,-70 809.87,-70"/>
<text text-anchor="start" x="812.49" y="-77" font-family="Times,serif" text-decoration="underline" font-size="10.00">e2f7bc4c&#45;ef2a&#45;466e&#45;b8a5&#45;d24f48b13afe :Customer</text>
<polygon fill="none" stroke="black" points="809.87,-4 809.87,-70 1020.87,-70 1020.87,-4 809.87,-4"/>
<text text-anchor="start" x="821.29" y="-58" font-family="Times,serif" font-size="10.00">email = &quot;john@doe.ee&quot;</text>
<text text-anchor="start" x="821.29" y="-46" font-family="Times,serif" font-size="10.00">firstName = &quot;John&quot;</text>
<text text-anchor="start" x="821.29" y="-34" font-family="Times,serif" font-size="10.00">id = &quot;e2f7bc4c&#45;ef2a&#45;466e&#45;b8a5&#45;d24f48b13afe&quot;</text>
<text text-anchor="start" x="821.29" y="-22" font-family="Times,serif" font-size="10.00">lastName = &quot;Doe&quot;</text>
<text text-anchor="start" x="821.29" y="-10" font-family="Times,serif" font-size="10.00">password = &quot;pass1234&quot;</text>
</g>
<!-- b&#45;&gt;e2f7bc4c_ef2a_466e_b8a5_d24f48b13afe -->
<g id="edge10" class="edge">
<title>b&#45;&gt;e2f7bc4c_ef2a_466e_b8a5_d24f48b13afe</title>
<path fill="none" stroke="black" d="M907.65,-303.87C923.62,-295 938.17,-283.33 947.87,-268 981.68,-214.57 959.06,-139.58 938.16,-92.15"/>
<text text-anchor="middle" x="917.88" y="-95.15" font-family="Times,serif" font-size="10.00">customers</text>
<text text-anchor="middle" x="917.37" y="-294.87" font-family="Times,serif" font-size="10.00">bank</text>
</g>
<!-- 1eaf6f4c_4f92_4e04_bd87_c82be03265de -->
<g id="node10" class="node">
<title>1eaf6f4c_4f92_4e04_bd87_c82be03265de</title>
<polygon fill="none" stroke="black" points="331.87,-70 331.87,-88 545.87,-88 545.87,-70 331.87,-70"/>
<text text-anchor="start" x="334.6" y="-77" font-family="Times,serif" text-decoration="underline" font-size="10.00">1eaf6f4c&#45;4f92&#45;4e04&#45;bd87&#45;c82be03265de :Customer</text>
<polygon fill="none" stroke="black" points="331.87,-4 331.87,-70 545.87,-70 545.87,-4 331.87,-4"/>
<text text-anchor="start" x="343.39" y="-58" font-family="Times,serif" font-size="10.00">email = &quot;bobby@tt.ee&quot;</text>
<text text-anchor="start" x="343.39" y="-46" font-family="Times,serif" font-size="10.00">firstName = &quot;Bob&quot;</text>
<text text-anchor="start" x="343.39" y="-34" font-family="Times,serif" font-size="10.00">id = &quot;1eaf6f4c&#45;4f92&#45;4e04&#45;bd87&#45;c82be03265de&quot;</text>
<text text-anchor="start" x="343.39" y="-22" font-family="Times,serif" font-size="10.00">lastName = &quot;Jackson&quot;</text>
<text text-anchor="start" x="343.39" y="-10" font-family="Times,serif" font-size="10.00">password = &quot;secret&quot;</text>
</g>
<!-- b&#45;&gt;1eaf6f4c_4f92_4e04_bd87_c82be03265de -->
<g id="edge11" class="edge">
<title>b&#45;&gt;1eaf6f4c_4f92_4e04_bd87_c82be03265de</title>
<path fill="none" stroke="black" d="M489.67,-304C454.76,-295.16 427.09,-283.47 413.87,-268 372.33,-219.43 394.95,-141.3 416.13,-92.12"/>
<text text-anchor="middle" x="395.86" y="-95.12" font-family="Times,serif" font-size="10.00">customers</text>
<text text-anchor="middle" x="479.95" y="-295" font-family="Times,serif" font-size="10.00">bank</text>
</g>
<!-- 16c992dc_328f_4725_8a0a_a043c07c3eba -->
<g id="node11" class="node">
<title>16c992dc_328f_4725_8a0a_a043c07c3eba</title>
<polygon fill="none" stroke="black" points="1059.87,-70 1059.87,-88 1275.87,-88 1275.87,-70 1059.87,-70"/>
<text text-anchor="start" x="1062.49" y="-77" font-family="Times,serif" text-decoration="underline" font-size="10.00">16c992dc&#45;328f&#45;4725&#45;8a0a&#45;a043c07c3eba :Customer</text>
<polygon fill="none" stroke="black" points="1059.87,-4 1059.87,-70 1275.87,-70 1275.87,-4 1059.87,-4"/>
<text text-anchor="start" x="1071.28" y="-58" font-family="Times,serif" font-size="10.00">email = &quot;johntest@doe.ee&quot;</text>
<text text-anchor="start" x="1071.28" y="-46" font-family="Times,serif" font-size="10.00">firstName = &quot;johntest&quot;</text>
<text text-anchor="start" x="1071.28" y="-34" font-family="Times,serif" font-size="10.00">id = &quot;16c992dc&#45;328f&#45;4725&#45;8a0a&#45;a043c07c3eba&quot;</text>
<text text-anchor="start" x="1071.28" y="-22" font-family="Times,serif" font-size="10.00">lastName = &quot;Doe&quot;</text>
<text text-anchor="start" x="1071.28" y="-10" font-family="Times,serif" font-size="10.00">password = &quot;pass1234&quot;</text>
</g>
<!-- b&#45;&gt;16c992dc_328f_4725_8a0a_a043c07c3eba -->
<g id="edge12" class="edge">
<title>b&#45;&gt;16c992dc_328f_4725_8a0a_a043c07c3eba</title>
<path fill="none" stroke="black" d="M915.59,-303.93C935.43,-295 954.76,-283.29 969.87,-268 1016.86,-220.45 981.04,-178.48 1024.87,-128 1036.84,-114.21 1051.76,-102.25 1067.41,-92.07"/>
<text text-anchor="middle" x="1047.14" y="-95.07" font-family="Times,serif" font-size="10.00">customers</text>
<text text-anchor="middle" x="925.31" y="-294.93" font-family="Times,serif" font-size="10.00">bank</text>
</g>
<!-- 7faef5c6_769f_4ba1_8361_6b9833b3756f&#45;&gt;c -->
<g id="edge13" class="edge">
<title>7faef5c6_769f_4ba1_8361_6b9833b3756f&#45;&gt;c</title>
<path fill="none" stroke="black" d="M1033.24,-152.45C1005.07,-143.98 975.6,-135.45 947.87,-128 879.56,-109.66 860.26,-113.46 792.87,-92 771.73,-85.27 748.95,-76.26 729.63,-68.07"/>
<text text-anchor="middle" x="747.12" y="-71.07" font-family="Times,serif" font-size="10.00">currency</text>
</g>
<!-- 7faef5c6_769f_4ba1_8361_6b9833b3756f&#45;&gt;16c992dc_328f_4725_8a0a_a043c07c3eba -->
<g id="edge14" class="edge">
<title>7faef5c6_769f_4ba1_8361_6b9833b3756f&#45;&gt;16c992dc_328f_4725_8a0a_a043c07c3eba</title>
<path fill="none" stroke="black" d="M1171.34,-133.82C1170.78,-119.89 1170.2,-105.4 1169.68,-92.34"/>
<text text-anchor="middle" x="1157.19" y="-95.34" font-family="Times,serif" font-size="10.00">owner</text>
<text text-anchor="middle" x="1155.79" y="-124.82" font-family="Times,serif" font-size="10.00">account</text>
</g>
<!-- sendItToTheBank&#45;&gt;c -->
<g id="edge15" class="edge">
<title>sendItToTheBank&#45;&gt;c</title>
<path fill="none" stroke="black" d="M366.99,-141.89C382.78,-137.03 398.6,-132.32 413.87,-128 479.42,-109.44 497.74,-112 562.87,-92 585.41,-85.08 609.86,-76.17 630.77,-68.11"/>
<text text-anchor="middle" x="613.29" y="-71.11" font-family="Times,serif" font-size="10.00">currency</text>
</g>
<!-- 8a633aa5_907c_4e57_a313_22e0adb2672e&#45;&gt;c -->
<g id="edge16" class="edge">
<title>8a633aa5_907c_4e57_a313_22e0adb2672e&#45;&gt;c</title>
<path fill="none" stroke="black" d="M604.73,-133.82C625.91,-110.28 648.53,-85.15 663.96,-68.01"/>
<text text-anchor="middle" x="646.47" y="-71.01" font-family="Times,serif" font-size="10.00">currency</text>
</g>
<!-- 8a633aa5_907c_4e57_a313_22e0adb2672e&#45;&gt;1eaf6f4c_4f92_4e04_bd87_c82be03265de -->
<g id="edge17" class="edge">
<title>8a633aa5_907c_4e57_a313_22e0adb2672e&#45;&gt;1eaf6f4c_4f92_4e04_bd87_c82be03265de</title>
<path fill="none" stroke="black" d="M501.96,-133.82C491.83,-119.89 481.3,-105.4 471.81,-92.34"/>
<text text-anchor="middle" x="459.32" y="-95.34" font-family="Times,serif" font-size="10.00">owner</text>
<text text-anchor="middle" x="486.41" y="-124.82" font-family="Times,serif" font-size="10.00">account</text>
</g>
<!-- 7ec351d6_652f_4691_8e72_ea432d44a0c8&#45;&gt;c -->
<g id="edge18" class="edge">
<title>7ec351d6_652f_4691_8e72_ea432d44a0c8&#45;&gt;c</title>
<path fill="none" stroke="black" d="M759.27,-133.82C738.56,-110.28 716.44,-85.15 701.36,-68.01"/>
<text text-anchor="middle" x="683.87" y="-71.01" font-family="Times,serif" font-size="10.00">currency</text>
</g>
<!-- 7ec351d6_652f_4691_8e72_ea432d44a0c8&#45;&gt;e2f7bc4c_ef2a_466e_b8a5_d24f48b13afe -->
<g id="edge19" class="edge">
<title>7ec351d6_652f_4691_8e72_ea432d44a0c8&#45;&gt;e2f7bc4c_ef2a_466e_b8a5_d24f48b13afe</title>
<path fill="none" stroke="black" d="M856.99,-133.82C866.27,-119.89 875.93,-105.4 884.64,-92.34"/>
<text text-anchor="middle" x="872.15" y="-95.34" font-family="Times,serif" font-size="10.00">owner</text>
<text text-anchor="middle" x="841.44" y="-124.82" font-family="Times,serif" font-size="10.00">account</text>
</g>
<!-- cd700acb_e9a4_40ca_a238_a02e84d10d551 -->
<g id="node12" class="node">
<title>cd700acb_e9a4_40ca_a238_a02e84d10d551</title>
<polygon fill="none" stroke="black" points="207.87,-466 207.87,-484 433.87,-484 433.87,-466 207.87,-466"/>
<text text-anchor="start" x="210.77" y="-473" font-family="Times,serif" text-decoration="underline" font-size="10.00">cd700acb&#45;e9a4&#45;40ca&#45;a238&#45;a02e84d10d55 :Transaction</text>
<polygon fill="none" stroke="black" points="207.87,-400 207.87,-466 433.87,-466 433.87,-400 207.87,-400"/>
<text text-anchor="start" x="223.73" y="-454" font-family="Times,serif" font-size="10.00">amount = &#45;250.0</text>
<text text-anchor="start" x="223.73" y="-442" font-family="Times,serif" font-size="10.00">description = &quot;Salary&quot;</text>
<text text-anchor="start" x="223.73" y="-430" font-family="Times,serif" font-size="10.00">id = &quot;cd700acb&#45;e9a4&#45;40ca&#45;a238&#45;a02e84d10d55&quot;</text>
<text text-anchor="start" x="223.73" y="-418" font-family="Times,serif" font-size="10.00">rejectionDescription = &quot;&quot;</text>
<text text-anchor="start" x="223.73" y="-406" font-family="Times,serif" font-size="10.00">timestamp = 2021&#45;12&#45;10T00:12:53.032310800</text>
</g>
<!-- cd700acb_e9a4_40ca_a238_a02e84d10d551&#45;&gt;b -->
<g id="edge20" class="edge">
<title>cd700acb_e9a4_40ca_a238_a02e84d10d551&#45;&gt;b</title>
<path fill="none" stroke="black" d="M442.03,-414.51C517.73,-397.96 614.95,-376.71 691.13,-360.05"/>
<text text-anchor="middle" x="681.41" y="-363.05" font-family="Times,serif" font-size="10.00">bank</text>
</g>
<!-- cd700acb_e9a4_40ca_a238_a02e84d10d551&#45;&gt;c -->
<g id="edge21" class="edge">
<title>cd700acb_e9a4_40ca_a238_a02e84d10d551&#45;&gt;c</title>
<path fill="none" stroke="black" d="M199.86,-402.64C136.61,-375.73 64.84,-332.77 27.87,-268 -2.98,-213.96 -14.63,-173.45 27.87,-128 68.56,-84.48 504.63,-104.59 562.87,-92 587.77,-86.62 614.4,-77.04 636.23,-68.11"/>
<text text-anchor="middle" x="653.72" y="-71.11" font-family="Times,serif" font-size="10.00">currency</text>
</g>
<!-- cd700acb_e9a4_40ca_a238_a02e84d10d551&#45;&gt;7faef5c6_769f_4ba1_8361_6b9833b3756f -->
<g id="edge22" class="edge">
<title>cd700acb_e9a4_40ca_a238_a02e84d10d551&#45;&gt;7faef5c6_769f_4ba1_8361_6b9833b3756f</title>
<path fill="none" stroke="black" d="M442.04,-424.6C512.77,-415.38 603.77,-404.13 684.87,-396 736.76,-390.8 1115.03,-395.89 1152.87,-360 1178.74,-335.46 1184.17,-295.86 1183.04,-262.08"/>
<text text-anchor="middle" x="1161.1" y="-265.08" font-family="Times,serif" font-size="10.00">destination</text>
</g>
<!-- cd700acb_e9a4_40ca_a238_a02e84d10d551&#45;&gt;sendItToTheBank -->
<g id="edge23" class="edge">
<title>cd700acb_e9a4_40ca_a238_a02e84d10d551&#45;&gt;sendItToTheBank</title>
<path fill="none" stroke="black" d="M233.3,-395.88C221.07,-385.76 210.2,-373.83 202.87,-360 188.2,-332.34 186.17,-298.07 188.54,-268.26"/>
<text text-anchor="middle" x="175.49" y="-271.26" font-family="Times,serif" font-size="10.00">source</text>
</g>
<!-- cd700acb_e9a4_40ca_a238_a02e84d10d551&#45;&gt;s -->
<g id="edge24" class="edge">
<title>cd700acb_e9a4_40ca_a238_a02e84d10d551&#45;&gt;s</title>
<path fill="none" stroke="black" d="M320.87,-395.82C320.87,-381.37 320.87,-366.06 320.87,-354.16"/>
<text text-anchor="middle" x="309.48" y="-357.16" font-family="Times,serif" font-size="10.00">status</text>
</g>
</g>
</svg>
