<?xml version="1.0" encoding="UTF-8" standalone="no"?>
<!DOCTYPE svg PUBLIC "-//W3C//DTD SVG 1.1//EN"
 "http://www.w3.org/Graphics/SVG/1.1/DTD/svg11.dtd">
<!-- Generated by graphviz version 2.44.0 (20200408.0750)
 -->
<!-- Pages: 1 -->
<svg width="892px" height="436px"
 viewBox="0.00 0.00 891.91 436.00" xmlns="http://www.w3.org/2000/svg" xmlns:xlink="http://www.w3.org/1999/xlink">
<g id="graph0" class="graph" transform="scale(1.0 1.0) rotate(0) translate(4 432)">
<polygon fill="white" stroke="transparent" points="-4,4 -4,-432 887.91,-432 887.91,4 -4,4"/>
<!-- 5111fb60_6c49_4434_9766_70176b9a84d1 -->
<g id="node1" class="node">
<title>5111fb60_6c49_4434_9766_70176b9a84d1</title>
<polygon fill="none" stroke="black" points="483.91,-406 483.91,-424 712.91,-424 712.91,-406 483.91,-406"/>
<text text-anchor="start" x="486.91" y="-413" font-family="Times,serif" text-decoration="underline" font-size="10.00">5111fb60&#45;6c49&#45;4434&#45;9766&#45;70176b9a84d1 :Transaction</text>
<polygon fill="none" stroke="black" points="483.91,-340 483.91,-406 712.91,-406 712.91,-340 483.91,-340"/>
<text text-anchor="start" x="499.86" y="-394" font-family="Times,serif" font-size="10.00">amount = 30.0</text>
<text text-anchor="start" x="499.86" y="-382" font-family="Times,serif" font-size="10.00">description = &quot;Seed transaction&quot;</text>
<text text-anchor="start" x="499.86" y="-370" font-family="Times,serif" font-size="10.00">id = &quot;5111fb60&#45;6c49&#45;4434&#45;9766&#45;70176b9a84d1&quot;</text>
<text text-anchor="start" x="499.86" y="-358" font-family="Times,serif" font-size="10.00">rejectionDescription = &quot;&quot;</text>
<text text-anchor="start" x="499.86" y="-346" font-family="Times,serif" font-size="10.00">timestamp = 2021&#45;11&#45;28T09:28:02.508122500</text>
</g>
<!-- b -->
<g id="node2" class="node">
<title>b</title>
<polygon fill="none" stroke="black" points="552.91,-272 552.91,-290 589.91,-290 589.91,-272 552.91,-272"/>
<text text-anchor="start" x="555.72" y="-279" font-family="Times,serif" text-decoration="underline" font-size="10.00">b :Bank</text>
<polygon fill="none" stroke="black" points="552.91,-266 552.91,-272 589.91,-272 589.91,-266 552.91,-266"/>
</g>
<!-- 5111fb60_6c49_4434_9766_70176b9a84d1&#45;&gt;b -->
<g id="edge1" class="edge">
<title>5111fb60_6c49_4434_9766_70176b9a84d1&#45;&gt;b</title>
<path fill="none" stroke="black" d="M585.99,-335.96C582.26,-321.88 578.37,-307.17 575.47,-296.23"/>
<text text-anchor="middle" x="565.75" y="-299.23" font-family="Times,serif" font-size="10.00">bank</text>
<text text-anchor="middle" x="562.11" y="-326.96" font-family="Times,serif" font-size="10.00">transactions</text>
</g>
<!-- c -->
<g id="node3" class="node">
<title>c</title>
<polygon fill="none" stroke="black" points="73.91,-46 73.91,-64 207.91,-64 207.91,-46 73.91,-46"/>
<text text-anchor="start" x="117.45" y="-53" font-family="Times,serif" text-decoration="underline" font-size="10.00">c :Currency</text>
<polygon fill="none" stroke="black" points="73.91,-28 73.91,-46 207.91,-46 207.91,-28 73.91,-28"/>
<text text-anchor="start" x="76.91" y="-34" font-family="Times,serif" font-size="10.00">declaringClass = class Currency</text>
</g>
<!-- 5111fb60_6c49_4434_9766_70176b9a84d1&#45;&gt;c -->
<g id="edge2" class="edge">
<title>5111fb60_6c49_4434_9766_70176b9a84d1&#45;&gt;c</title>
<path fill="none" stroke="black" d="M475.23,-364.49C321.71,-341.02 72.16,-292.64 16.91,-220 -7.84,-187.45 -2.55,-163.96 16.91,-128 31.66,-100.75 60,-81.21 85.86,-68.15"/>
<text text-anchor="middle" x="68.38" y="-71.15" font-family="Times,serif" font-size="10.00">currency</text>
</g>
<!-- 26dfd636_2917_4df2_80d6_513259d4150c -->
<g id="node4" class="node">
<title>26dfd636_2917_4df2_80d6_513259d4150c</title>
<polygon fill="none" stroke="black" points="661.91,-180 661.91,-198 875.91,-198 875.91,-180 661.91,-180"/>
<text text-anchor="start" x="664.63" y="-187" font-family="Times,serif" text-decoration="underline" font-size="10.00">26dfd636&#45;2917&#45;4df2&#45;80d6&#45;513259d4150c :Account</text>
<polygon fill="none" stroke="black" points="661.91,-150 661.91,-180 875.91,-180 875.91,-150 661.91,-150"/>
<text text-anchor="start" x="670.92" y="-168" font-family="Times,serif" font-size="10.00">balance = 30.0</text>
<text text-anchor="start" x="670.92" y="-156" font-family="Times,serif" font-size="10.00">id = &quot;26dfd636&#45;2917&#45;4df2&#45;80d6&#45;513259d4150c&quot;</text>
</g>
<!-- 5111fb60_6c49_4434_9766_70176b9a84d1&#45;&gt;26dfd636_2917_4df2_80d6_513259d4150c -->
<g id="edge3" class="edge">
<title>5111fb60_6c49_4434_9766_70176b9a84d1&#45;&gt;26dfd636_2917_4df2_80d6_513259d4150c</title>
<path fill="none" stroke="black" d="M607.49,-335.86C614.6,-310.4 626.35,-279.15 644.91,-256 662.77,-233.73 688.45,-215.55 711.82,-202.09"/>
<text text-anchor="middle" x="689.88" y="-205.09" font-family="Times,serif" font-size="10.00">destination</text>
</g>
<!-- s -->
<g id="node5" class="node">
<title>s</title>
<polygon fill="none" stroke="black" points="661.91,-278 661.91,-296 835.91,-296 835.91,-278 661.91,-278"/>
<text text-anchor="start" x="732.1" y="-285" font-family="Times,serif" text-decoration="underline" font-size="10.00">s :Status</text>
<polygon fill="none" stroke="black" points="661.91,-260 661.91,-278 835.91,-278 835.91,-260 661.91,-260"/>
<text text-anchor="start" x="664.91" y="-266" font-family="Times,serif" font-size="10.00">declaringClass = class Transaction$Status</text>
</g>
<!-- 5111fb60_6c49_4434_9766_70176b9a84d1&#45;&gt;s -->
<g id="edge4" class="edge">
<title>5111fb60_6c49_4434_9766_70176b9a84d1&#45;&gt;s</title>
<path fill="none" stroke="black" d="M664.58,-335.96C683.07,-323.48 702.27,-310.5 717.68,-300.1"/>
<text text-anchor="middle" x="706.29" y="-303.1" font-family="Times,serif" font-size="10.00">status</text>
</g>
<!-- b&#45;&gt;26dfd636_2917_4df2_80d6_513259d4150c -->
<g id="edge6" class="edge">
<title>b&#45;&gt;26dfd636_2917_4df2_80d6_513259d4150c</title>
<path fill="none" stroke="black" d="M598.03,-263.03C628.32,-247.43 678.09,-221.79 716.13,-202.19"/>
<text text-anchor="middle" x="733.62" y="-205.19" font-family="Times,serif" font-size="10.00">accounts</text>
<text text-anchor="middle" x="607.75" y="-266.03" font-family="Times,serif" font-size="10.00">bank</text>
</g>
<!-- dcae5ed9_1787_4789_a359_e707e3d6e0c7 -->
<g id="node6" class="node">
<title>dcae5ed9_1787_4789_a359_e707e3d6e0c7</title>
<polygon fill="none" stroke="black" points="34.91,-180 34.91,-198 247.91,-198 247.91,-180 34.91,-180"/>
<text text-anchor="start" x="37.7" y="-187" font-family="Times,serif" text-decoration="underline" font-size="10.00">dcae5ed9&#45;1787&#45;4789&#45;a359&#45;e707e3d6e0c7 :Account</text>
<polygon fill="none" stroke="black" points="34.91,-150 34.91,-180 247.91,-180 247.91,-150 34.91,-150"/>
<text text-anchor="start" x="43.99" y="-168" font-family="Times,serif" font-size="10.00">balance = 69420.0</text>
<text text-anchor="start" x="43.99" y="-156" font-family="Times,serif" font-size="10.00">id = &quot;dcae5ed9&#45;1787&#45;4789&#45;a359&#45;e707e3d6e0c7&quot;</text>
</g>
<!-- b&#45;&gt;dcae5ed9_1787_4789_a359_e707e3d6e0c7 -->
<g id="edge5" class="edge">
<title>b&#45;&gt;dcae5ed9_1787_4789_a359_e707e3d6e0c7</title>
<path fill="none" stroke="black" d="M543.56,-273.44C489.63,-266.09 366.06,-247.57 264.91,-220 246.57,-215 227.09,-208.51 209.13,-202.03"/>
<text text-anchor="middle" x="182.48" y="-205.03" font-family="Times,serif" font-size="10.00">bankAccount</text>
<text text-anchor="middle" x="533.84" y="-276.44" font-family="Times,serif" font-size="10.00">bank</text>
</g>
<!-- 3eba737c_17ae_434d_8eb2_835a61193186 -->
<g id="node7" class="node">
<title>3eba737c_17ae_434d_8eb2_835a61193186</title>
<polygon fill="none" stroke="black" points="281.91,-198 281.91,-216 517.91,-216 517.91,-198 281.91,-198"/>
<text text-anchor="start" x="284.53" y="-205" font-family="Times,serif" text-decoration="underline" font-size="10.00">3eba737c&#45;17ae&#45;434d&#45;8eb2&#45;835a61193186 :Administrator</text>
<polygon fill="none" stroke="black" points="281.91,-132 281.91,-198 517.91,-198 517.91,-132 281.91,-132"/>
<text text-anchor="start" x="301.93" y="-186" font-family="Times,serif" font-size="10.00">email = &quot;admin@bank.ee&quot;</text>
<text text-anchor="start" x="301.93" y="-174" font-family="Times,serif" font-size="10.00">firstName = &quot;Admin&quot;</text>
<text text-anchor="start" x="301.93" y="-162" font-family="Times,serif" font-size="10.00">id = &quot;3eba737c&#45;17ae&#45;434d&#45;8eb2&#45;835a61193186&quot;</text>
<text text-anchor="start" x="301.93" y="-150" font-family="Times,serif" font-size="10.00">lastName = &quot;ALice&quot;</text>
<text text-anchor="start" x="301.93" y="-138" font-family="Times,serif" font-size="10.00">password = &quot;secure_p@ssw0|2d&quot;</text>
</g>
<!-- b&#45;&gt;3eba737c_17ae_434d_8eb2_835a61193186 -->
<g id="edge7" class="edge">
<title>b&#45;&gt;3eba737c_17ae_434d_8eb2_835a61193186</title>
<path fill="none" stroke="black" d="M543.82,-260.84C525.36,-249.83 499.94,-234.67 475.6,-220.15"/>
<text text-anchor="middle" x="447" y="-223.15" font-family="Times,serif" font-size="10.00">administrators</text>
<text text-anchor="middle" x="534.1" y="-263.84" font-family="Times,serif" font-size="10.00">bank</text>
</g>
<!-- 3b998892_d411_44f2_90aa_7fef79a272d7 -->
<g id="node8" class="node">
<title>3b998892_d411_44f2_90aa_7fef79a272d7</title>
<polygon fill="none" stroke="black" points="588.91,-70 588.91,-88 804.91,-88 804.91,-70 588.91,-70"/>
<text text-anchor="start" x="591.8" y="-77" font-family="Times,serif" text-decoration="underline" font-size="10.00">3b998892&#45;d411&#45;44f2&#45;90aa&#45;7fef79a272d7 :Customer</text>
<polygon fill="none" stroke="black" points="588.91,-4 588.91,-70 804.91,-70 804.91,-4 588.91,-4"/>
<text text-anchor="start" x="600.59" y="-58" font-family="Times,serif" font-size="10.00">email = &quot;bobby@tt.ee&quot;</text>
<text text-anchor="start" x="600.59" y="-46" font-family="Times,serif" font-size="10.00">firstName = &quot;Bob&quot;</text>
<text text-anchor="start" x="600.59" y="-34" font-family="Times,serif" font-size="10.00">id = &quot;3b998892&#45;d411&#45;44f2&#45;90aa&#45;7fef79a272d7&quot;</text>
<text text-anchor="start" x="600.59" y="-22" font-family="Times,serif" font-size="10.00">lastName = &quot;Jackson&quot;</text>
<text text-anchor="start" x="600.59" y="-10" font-family="Times,serif" font-size="10.00">password = &quot;secret&quot;</text>
</g>
<!-- b&#45;&gt;3b998892_d411_44f2_90aa_7fef79a272d7 -->
<g id="edge8" class="edge">
<title>b&#45;&gt;3b998892_d411_44f2_90aa_7fef79a272d7</title>
<path fill="none" stroke="black" d="M582.74,-259.99C590.18,-248.89 599.7,-233.93 606.91,-220 627.24,-180.71 624.44,-167.22 644.91,-128 651.1,-116.15 658.5,-103.8 665.75,-92.41"/>
<text text-anchor="middle" x="645.47" y="-95.41" font-family="Times,serif" font-size="10.00">customers</text>
<text text-anchor="middle" x="573.02" y="-250.99" font-family="Times,serif" font-size="10.00">bank</text>
</g>
<!-- t -->
<g id="node9" class="node">
<title>t</title>
<polygon fill="none" stroke="black" points="552.91,-168 552.91,-186 588.91,-186 588.91,-168 552.91,-168"/>
<text text-anchor="start" x="555.5" y="-175" font-family="Times,serif" text-decoration="underline" font-size="10.00">t :Trace</text>
<polygon fill="none" stroke="black" points="552.91,-162 552.91,-168 588.91,-168 588.91,-162 552.91,-162"/>
</g>
<!-- b&#45;&gt;t -->
<g id="edge9" class="edge">
<title>b&#45;&gt;t</title>
<path fill="none" stroke="black" d="M570.91,-259.7C570.91,-240.83 570.91,-210.82 570.91,-192.05"/>
<text text-anchor="middle" x="559.25" y="-195.05" font-family="Times,serif" font-size="10.00">traces</text>
</g>
<!-- 26dfd636_2917_4df2_80d6_513259d4150c&#45;&gt;c -->
<g id="edge10" class="edge">
<title>26dfd636_2917_4df2_80d6_513259d4150c&#45;&gt;c</title>
<path fill="none" stroke="black" d="M677.64,-145.95C654.67,-139.61 629.98,-133.19 606.91,-128 470.12,-97.19 308.5,-71.45 216.02,-57.72"/>
<text text-anchor="middle" x="233.51" y="-60.72" font-family="Times,serif" font-size="10.00">currency</text>
</g>
<!-- 26dfd636_2917_4df2_80d6_513259d4150c&#45;&gt;3b998892_d411_44f2_90aa_7fef79a272d7 -->
<g id="edge11" class="edge">
<title>26dfd636_2917_4df2_80d6_513259d4150c&#45;&gt;3b998892_d411_44f2_90aa_7fef79a272d7</title>
<path fill="none" stroke="black" d="M753.47,-145.97C744.54,-130.35 733.08,-110.3 722.81,-92.33"/>
<text text-anchor="middle" x="710.32" y="-95.33" font-family="Times,serif" font-size="10.00">owner</text>
<text text-anchor="middle" x="737.92" y="-136.97" font-family="Times,serif" font-size="10.00">account</text>
</g>
<!-- dcae5ed9_1787_4789_a359_e707e3d6e0c7&#45;&gt;c -->
<g id="edge12" class="edge">
<title>dcae5ed9_1787_4789_a359_e707e3d6e0c7&#45;&gt;c</title>
<path fill="none" stroke="black" d="M140.91,-145.97C140.91,-122.69 140.91,-89.54 140.91,-68.15"/>
<text text-anchor="middle" x="123.42" y="-71.15" font-family="Times,serif" font-size="10.00">currency</text>
</g>
</g>
</svg>
