<?xml version="1.0" encoding="UTF-8" standalone="no"?>
<!DOCTYPE svg PUBLIC "-//W3C//DTD SVG 1.1//EN"
 "http://www.w3.org/Graphics/SVG/1.1/DTD/svg11.dtd">
<!-- Generated by graphviz version 2.44.0 (20200408.0750)
 -->
<!-- Title: model Pages: 1 -->
<svg width="1505px" height="484px"
 viewBox="0.00 0.00 1504.50 484.00" xmlns="http://www.w3.org/2000/svg" xmlns:xlink="http://www.w3.org/1999/xlink">
<g id="graph0" class="graph" transform="scale(1.0 1.0) rotate(0) translate(4 480)">
<title>model</title>
<polygon fill="white" stroke="transparent" points="-4,4 -4,-480 1500.5,-480 1500.5,4 -4,4"/>
<!-- 5c280f48_eb48_4cee_8e45_35babee0da4e -->
<g id="node1" class="node">
<title>5c280f48_eb48_4cee_8e45_35babee0da4e</title>
<polygon fill="none" stroke="black" points="370.5,-454 370.5,-472 593.5,-472 593.5,-454 370.5,-454"/>
<text text-anchor="start" x="373.02" y="-461" font-family="Times,serif" text-decoration="underline" font-size="10.00">5c280f48&#45;eb48&#45;4cee&#45;8e45&#45;35babee0da4e :Transaction</text>
<polygon fill="none" stroke="black" points="370.5,-388 370.5,-454 593.5,-454 593.5,-388 370.5,-388"/>
<text text-anchor="start" x="385.98" y="-442" font-family="Times,serif" font-size="10.00">amount = 30.0</text>
<text text-anchor="start" x="385.98" y="-430" font-family="Times,serif" font-size="10.00">description = &quot;Seed transaction&quot;</text>
<text text-anchor="start" x="385.98" y="-418" font-family="Times,serif" font-size="10.00">id = &quot;5c280f48&#45;eb48&#45;4cee&#45;8e45&#45;35babee0da4e&quot;</text>
<text text-anchor="start" x="385.98" y="-406" font-family="Times,serif" font-size="10.00">rejectionDescription = &quot;&quot;</text>
<text text-anchor="start" x="385.98" y="-394" font-family="Times,serif" font-size="10.00">timestamp = 2021&#45;12&#45;10T00:12:52.684312200</text>
</g>
<!-- b -->
<g id="node2" class="node">
<title>b</title>
<polygon fill="none" stroke="black" points="338.5,-326 338.5,-344 984.5,-344 984.5,-326 338.5,-326"/>
<text text-anchor="start" x="645.81" y="-333" font-family="Times,serif" text-decoration="underline" font-size="10.00">b :Bank</text>
<polygon fill="none" stroke="black" points="338.5,-296 338.5,-326 984.5,-326 984.5,-296 338.5,-296"/>
<text text-anchor="start" x="341.5" y="-314" font-family="Times,serif" font-size="10.00">accountsMap = sendItToTheBank8a633aa5&#45;907c&#45;4e57&#45;a313&#45;22e0adb2672e7ec351d6&#45;652f&#45;4691&#45;8e72&#45;ea432d44a0c8494107c4&#45;9aa4&#45;4601&#45;a09b&#45;e8c67c96ec24</text>
<text text-anchor="start" x="341.5" y="-302" font-family="Times,serif" font-size="10.00">customerMap = e2f7bc4c&#45;ef2a&#45;466e&#45;b8a5&#45;d24f48b13afeaddcad80&#45;5f8d&#45;4961&#45;b815&#45;06f63d539c4e1eaf6f4c&#45;4f92&#45;4e04&#45;bd87&#45;c82be03265de</text>
</g>
<!-- 5c280f48_eb48_4cee_8e45_35babee0da4e&#45;&gt;b -->
<g id="edge1" class="edge">
<title>5c280f48_eb48_4cee_8e45_35babee0da4e&#45;&gt;b</title>
<path fill="none" stroke="black" d="M556.53,-383.98C576.89,-371.77 598.29,-358.92 616.42,-348.05"/>
<text text-anchor="middle" x="606.71" y="-351.05" font-family="Times,serif" font-size="10.00">bank</text>
<text text-anchor="middle" x="532.65" y="-374.98" font-family="Times,serif" font-size="10.00">transactions</text>
</g>
<!-- c -->
<g id="node3" class="node">
<title>c</title>
<polygon fill="none" stroke="black" points="357.5,-46 357.5,-64 519.5,-64 519.5,-46 357.5,-46"/>
<text text-anchor="start" x="415.04" y="-53" font-family="Times,serif" text-decoration="underline" font-size="10.00">c :Currency</text>
<polygon fill="none" stroke="black" points="357.5,-28 357.5,-46 519.5,-46 519.5,-28 357.5,-28"/>
<text text-anchor="start" x="360.5" y="-34" font-family="Times,serif" font-size="10.00">declaringClass = class model.Currency</text>
</g>
<!-- 5c280f48_eb48_4cee_8e45_35babee0da4e&#45;&gt;c -->
<g id="edge2" class="edge">
<title>5c280f48_eb48_4cee_8e45_35babee0da4e&#45;&gt;c</title>
<path fill="none" stroke="black" d="M361.53,-417.48C259.51,-400.58 119.13,-358.88 51.5,-256 20.25,-208.46 15.21,-171.81 51.5,-128 78.91,-94.91 199.43,-100.79 241.5,-92 276.87,-84.61 315.67,-75.88 349.41,-68.09"/>
<text text-anchor="middle" x="331.93" y="-71.09" font-family="Times,serif" font-size="10.00">currency</text>
</g>
<!-- 494107c4_9aa4_4601_a09b_e8c67c96ec24 -->
<g id="node4" class="node">
<title>494107c4_9aa4_4601_a09b_e8c67c96ec24</title>
<polygon fill="none" stroke="black" points="69.5,-234 69.5,-252 332.5,-252 332.5,-234 69.5,-234"/>
<text text-anchor="start" x="97.29" y="-241" font-family="Times,serif" text-decoration="underline" font-size="10.00">494107c4&#45;9aa4&#45;4601&#45;a09b&#45;e8c67c96ec24 :Account</text>
<polygon fill="none" stroke="black" points="69.5,-132 69.5,-234 332.5,-234 332.5,-132 69.5,-132"/>
<text text-anchor="start" x="72.5" y="-222" font-family="Times,serif" font-size="10.00">balance = 30.0</text>
<text text-anchor="start" x="72.5" y="-210" font-family="Times,serif" font-size="10.00">count = 0</text>
<text text-anchor="start" x="72.5" y="-198" font-family="Times,serif" font-size="10.00">customerId = null</text>
<text text-anchor="start" x="72.5" y="-186" font-family="Times,serif" font-size="10.00">iban = &quot;EE910226338144715576&quot;</text>
<text text-anchor="start" x="72.5" y="-174" font-family="Times,serif" font-size="10.00">id = &quot;494107c4&#45;9aa4&#45;4601&#45;a09b&#45;e8c67c96ec24&quot;</text>
<text text-anchor="start" x="72.5" y="-162" font-family="Times,serif" font-size="10.00">receivedTransaction = 5c280f48&#45;eb48&#45;4cee&#45;8e45&#45;35babee0da4e</text>
<text text-anchor="start" x="72.5" y="-150" font-family="Times,serif" font-size="10.00">sentTransaction = </text>
<text text-anchor="start" x="72.5" y="-138" font-family="Times,serif" font-size="10.00">status = &quot;ACTIVE&quot;</text>
</g>
<!-- 5c280f48_eb48_4cee_8e45_35babee0da4e&#45;&gt;494107c4_9aa4_4601_a09b_e8c67c96ec24 -->
<g id="edge3" class="edge">
<title>5c280f48_eb48_4cee_8e45_35babee0da4e&#45;&gt;494107c4_9aa4_4601_a09b_e8c67c96ec24</title>
<path fill="none" stroke="black" d="M375.82,-383.87C356.81,-373.47 337.85,-361.45 321.5,-348 289.99,-322.09 261.53,-286.59 240.14,-256.11"/>
<text text-anchor="middle" x="218.2" y="-259.11" font-family="Times,serif" font-size="10.00">destination</text>
<text text-anchor="middle" x="291.13" y="-374.87" font-family="Times,serif" font-size="10.00">allTransactionsWithSignAndOrderedDesc</text>
</g>
<!-- s -->
<g id="node5" class="node">
<title>s</title>
<polygon fill="none" stroke="black" points="1019.5,-320 1019.5,-338 1220.5,-338 1220.5,-320 1019.5,-320"/>
<text text-anchor="start" x="1103.19" y="-327" font-family="Times,serif" text-decoration="underline" font-size="10.00">s :Status</text>
<polygon fill="none" stroke="black" points="1019.5,-302 1019.5,-320 1220.5,-320 1220.5,-302 1019.5,-302"/>
<text text-anchor="start" x="1022.5" y="-308" font-family="Times,serif" font-size="10.00">declaringClass = class model.Transaction$Status</text>
</g>
<!-- 5c280f48_eb48_4cee_8e45_35babee0da4e&#45;&gt;s -->
<g id="edge4" class="edge">
<title>5c280f48_eb48_4cee_8e45_35babee0da4e&#45;&gt;s</title>
<path fill="none" stroke="black" d="M601.18,-412.8C706.85,-397.91 864.89,-374.24 1001.5,-348 1010.99,-346.18 1020.89,-344.14 1030.73,-342.02"/>
<text text-anchor="middle" x="1019.34" y="-345.02" font-family="Times,serif" font-size="10.00">status</text>
</g>
<!-- b&#45;&gt;494107c4_9aa4_4601_a09b_e8c67c96ec24 -->
<g id="edge8" class="edge">
<title>b&#45;&gt;494107c4_9aa4_4601_a09b_e8c67c96ec24</title>
<path fill="none" stroke="black" d="M495.59,-291.92C447.93,-282.42 396.23,-270.44 349.5,-256 346.41,-255.05 343.3,-254.05 340.18,-253.02"/>
<text text-anchor="middle" x="357.67" y="-256.02" font-family="Times,serif" font-size="10.00">accounts</text>
<text text-anchor="middle" x="485.87" y="-282.92" font-family="Times,serif" font-size="10.00">bank</text>
</g>
<!-- sendItToTheBank -->
<g id="node6" class="node">
<title>sendItToTheBank</title>
<polygon fill="none" stroke="black" points="366.5,-234 366.5,-252 510.5,-252 510.5,-234 366.5,-234"/>
<text text-anchor="start" x="382.82" y="-241" font-family="Times,serif" text-decoration="underline" font-size="10.00">sendItToTheBank :Account</text>
<polygon fill="none" stroke="black" points="366.5,-132 366.5,-234 510.5,-234 510.5,-132 366.5,-132"/>
<text text-anchor="start" x="369.5" y="-222" font-family="Times,serif" font-size="10.00">balance = 69420.0</text>
<text text-anchor="start" x="369.5" y="-210" font-family="Times,serif" font-size="10.00">count = 0</text>
<text text-anchor="start" x="369.5" y="-198" font-family="Times,serif" font-size="10.00">customerId = null</text>
<text text-anchor="start" x="369.5" y="-186" font-family="Times,serif" font-size="10.00">iban = &quot;EE366979145540436769&quot;</text>
<text text-anchor="start" x="369.5" y="-174" font-family="Times,serif" font-size="10.00">id = &quot;sendItToTheBank&quot;</text>
<text text-anchor="start" x="369.5" y="-162" font-family="Times,serif" font-size="10.00">receivedTransaction = </text>
<text text-anchor="start" x="369.5" y="-150" font-family="Times,serif" font-size="10.00">sentTransaction = </text>
<text text-anchor="start" x="369.5" y="-138" font-family="Times,serif" font-size="10.00">status = &quot;ACTIVE&quot;</text>
</g>
<!-- b&#45;&gt;sendItToTheBank -->
<g id="edge5" class="edge">
<title>b&#45;&gt;sendItToTheBank</title>
<path fill="none" stroke="black" d="M597.95,-291.91C575.27,-281.51 549.82,-269.01 527.5,-256 524.56,-254.28 521.59,-252.5 518.61,-250.66"/>
<text text-anchor="middle" x="545.27" y="-253.66" font-family="Times,serif" font-size="10.00">bankAccount</text>
<text text-anchor="middle" x="588.23" y="-282.91" font-family="Times,serif" font-size="10.00">bank</text>
</g>
<!-- 8a633aa5_907c_4e57_a313_22e0adb2672e -->
<g id="node7" class="node">
<title>8a633aa5_907c_4e57_a313_22e0adb2672e</title>
<polygon fill="none" stroke="black" points="1188.5,-234 1188.5,-252 1422.5,-252 1422.5,-234 1188.5,-234"/>
<text text-anchor="start" x="1201.79" y="-241" font-family="Times,serif" text-decoration="underline" font-size="10.00">8a633aa5&#45;907c&#45;4e57&#45;a313&#45;22e0adb2672e :Account</text>
<polygon fill="none" stroke="black" points="1188.5,-132 1188.5,-234 1422.5,-234 1422.5,-132 1188.5,-132"/>
<text text-anchor="start" x="1191.5" y="-222" font-family="Times,serif" font-size="10.00">balance = 0.0</text>
<text text-anchor="start" x="1191.5" y="-210" font-family="Times,serif" font-size="10.00">count = 0</text>
<text text-anchor="start" x="1191.5" y="-198" font-family="Times,serif" font-size="10.00">customerId = &quot;1eaf6f4c&#45;4f92&#45;4e04&#45;bd87&#45;c82be03265de&quot;</text>
<text text-anchor="start" x="1191.5" y="-186" font-family="Times,serif" font-size="10.00">iban = &quot;EE500467859057350272&quot;</text>
<text text-anchor="start" x="1191.5" y="-174" font-family="Times,serif" font-size="10.00">id = &quot;8a633aa5&#45;907c&#45;4e57&#45;a313&#45;22e0adb2672e&quot;</text>
<text text-anchor="start" x="1191.5" y="-162" font-family="Times,serif" font-size="10.00">receivedTransaction = </text>
<text text-anchor="start" x="1191.5" y="-150" font-family="Times,serif" font-size="10.00">sentTransaction = </text>
<text text-anchor="start" x="1191.5" y="-138" font-family="Times,serif" font-size="10.00">status = &quot;ACTIVE&quot;</text>
</g>
<!-- b&#45;&gt;8a633aa5_907c_4e57_a313_22e0adb2672e -->
<g id="edge6" class="edge">
<title>b&#45;&gt;8a633aa5_907c_4e57_a313_22e0adb2672e</title>
<path fill="none" stroke="black" d="M992.72,-292.2C1051.23,-283.36 1111.12,-271.62 1166.5,-256 1171.09,-254.71 1175.72,-253.28 1180.37,-251.75"/>
<text text-anchor="middle" x="1162.87" y="-254.75" font-family="Times,serif" font-size="10.00">accounts</text>
<text text-anchor="middle" x="1002.44" y="-283.2" font-family="Times,serif" font-size="10.00">bank</text>
</g>
<!-- 7ec351d6_652f_4691_8e72_ea432d44a0c8 -->
<g id="node8" class="node">
<title>7ec351d6_652f_4691_8e72_ea432d44a0c8</title>
<polygon fill="none" stroke="black" points="885.5,-234 885.5,-252 1116.5,-252 1116.5,-234 885.5,-234"/>
<text text-anchor="start" x="897.56" y="-241" font-family="Times,serif" text-decoration="underline" font-size="10.00">7ec351d6&#45;652f&#45;4691&#45;8e72&#45;ea432d44a0c8 :Account</text>
<polygon fill="none" stroke="black" points="885.5,-132 885.5,-234 1116.5,-234 1116.5,-132 885.5,-132"/>
<text text-anchor="start" x="888.5" y="-222" font-family="Times,serif" font-size="10.00">balance = 100.0</text>
<text text-anchor="start" x="888.5" y="-210" font-family="Times,serif" font-size="10.00">count = 0</text>
<text text-anchor="start" x="888.5" y="-198" font-family="Times,serif" font-size="10.00">customerId = &quot;e2f7bc4c&#45;ef2a&#45;466e&#45;b8a5&#45;d24f48b13afe&quot;</text>
<text text-anchor="start" x="888.5" y="-186" font-family="Times,serif" font-size="10.00">iban = &quot;EE508166157234538669&quot;</text>
<text text-anchor="start" x="888.5" y="-174" font-family="Times,serif" font-size="10.00">id = &quot;7ec351d6&#45;652f&#45;4691&#45;8e72&#45;ea432d44a0c8&quot;</text>
<text text-anchor="start" x="888.5" y="-162" font-family="Times,serif" font-size="10.00">receivedTransaction = </text>
<text text-anchor="start" x="888.5" y="-150" font-family="Times,serif" font-size="10.00">sentTransaction = </text>
<text text-anchor="start" x="888.5" y="-138" font-family="Times,serif" font-size="10.00">status = &quot;ACTIVE&quot;</text>
</g>
<!-- b&#45;&gt;7ec351d6_652f_4691_8e72_ea432d44a0c8 -->
<g id="edge7" class="edge">
<title>b&#45;&gt;7ec351d6_652f_4691_8e72_ea432d44a0c8</title>
<path fill="none" stroke="black" d="M760.21,-291.99C794.54,-281.76 833.06,-269.34 867.5,-256 870.6,-254.8 873.72,-253.56 876.87,-252.29"/>
<text text-anchor="middle" x="859.37" y="-255.29" font-family="Times,serif" font-size="10.00">accounts</text>
<text text-anchor="middle" x="750.49" y="-282.99" font-family="Times,serif" font-size="10.00">bank</text>
</g>
<!-- 67ca110f_ea87_42d3_ba42_153eca842090 -->
<g id="node9" class="node">
<title>67ca110f_ea87_42d3_ba42_153eca842090</title>
<polygon fill="none" stroke="black" points="544.5,-216 544.5,-234 778.5,-234 778.5,-216 544.5,-216"/>
<text text-anchor="start" x="547.23" y="-223" font-family="Times,serif" text-decoration="underline" font-size="10.00">67ca110f&#45;ea87&#45;42d3&#45;ba42&#45;153eca842090 :Administrator</text>
<polygon fill="none" stroke="black" points="544.5,-150 544.5,-216 778.5,-216 778.5,-150 544.5,-150"/>
<text text-anchor="start" x="564.63" y="-204" font-family="Times,serif" font-size="10.00">email = &quot;admin@bank.ee&quot;</text>
<text text-anchor="start" x="564.63" y="-192" font-family="Times,serif" font-size="10.00">firstName = &quot;Admin&quot;</text>
<text text-anchor="start" x="564.63" y="-180" font-family="Times,serif" font-size="10.00">id = &quot;67ca110f&#45;ea87&#45;42d3&#45;ba42&#45;153eca842090&quot;</text>
<text text-anchor="start" x="564.63" y="-168" font-family="Times,serif" font-size="10.00">lastName = &quot;ALice&quot;</text>
<text text-anchor="start" x="564.63" y="-156" font-family="Times,serif" font-size="10.00">password = &quot;secure_p@ssw0|2d&quot;</text>
</g>
<!-- b&#45;&gt;67ca110f_ea87_42d3_ba42_153eca842090 -->
<g id="edge9" class="edge">
<title>b&#45;&gt;67ca110f_ea87_42d3_ba42_153eca842090</title>
<path fill="none" stroke="black" d="M661.5,-291.97C661.5,-276.35 661.5,-256.3 661.5,-238.33"/>
<text text-anchor="middle" x="632.9" y="-241.33" font-family="Times,serif" font-size="10.00">administrators</text>
<text text-anchor="middle" x="651.78" y="-282.97" font-family="Times,serif" font-size="10.00">bank</text>
</g>
<!-- e2f7bc4c_ef2a_466e_b8a5_d24f48b13afe -->
<g id="node10" class="node">
<title>e2f7bc4c_ef2a_466e_b8a5_d24f48b13afe</title>
<polygon fill="none" stroke="black" points="962.5,-70 962.5,-88 1173.5,-88 1173.5,-70 962.5,-70"/>
<text text-anchor="start" x="965.13" y="-77" font-family="Times,serif" text-decoration="underline" font-size="10.00">e2f7bc4c&#45;ef2a&#45;466e&#45;b8a5&#45;d24f48b13afe :Customer</text>
<polygon fill="none" stroke="black" points="962.5,-4 962.5,-70 1173.5,-70 1173.5,-4 962.5,-4"/>
<text text-anchor="start" x="973.92" y="-58" font-family="Times,serif" font-size="10.00">email = &quot;john@doe.ee&quot;</text>
<text text-anchor="start" x="973.92" y="-46" font-family="Times,serif" font-size="10.00">firstName = &quot;John&quot;</text>
<text text-anchor="start" x="973.92" y="-34" font-family="Times,serif" font-size="10.00">id = &quot;e2f7bc4c&#45;ef2a&#45;466e&#45;b8a5&#45;d24f48b13afe&quot;</text>
<text text-anchor="start" x="973.92" y="-22" font-family="Times,serif" font-size="10.00">lastName = &quot;Doe&quot;</text>
<text text-anchor="start" x="973.92" y="-10" font-family="Times,serif" font-size="10.00">password = &quot;pass1234&quot;</text>
</g>
<!-- b&#45;&gt;e2f7bc4c_ef2a_466e_b8a5_d24f48b13afe -->
<g id="edge10" class="edge">
<title>b&#45;&gt;e2f7bc4c_ef2a_466e_b8a5_d24f48b13afe</title>
<path fill="none" stroke="black" d="M980.59,-291.98C1057.37,-282.3 1121.06,-270.21 1133.5,-256 1170.97,-213.2 1152.57,-181.6 1133.5,-128 1129,-115.35 1121.59,-103.25 1113.32,-92.43"/>
<text text-anchor="middle" x="1093.05" y="-95.43" font-family="Times,serif" font-size="10.00">customers</text>
<text text-anchor="middle" x="970.88" y="-282.98" font-family="Times,serif" font-size="10.00">bank</text>
</g>
<!-- 1eaf6f4c_4f92_4e04_bd87_c82be03265de -->
<g id="node11" class="node">
<title>1eaf6f4c_4f92_4e04_bd87_c82be03265de</title>
<polygon fill="none" stroke="black" points="1274.5,-70 1274.5,-88 1488.5,-88 1488.5,-70 1274.5,-70"/>
<text text-anchor="start" x="1277.23" y="-77" font-family="Times,serif" text-decoration="underline" font-size="10.00">1eaf6f4c&#45;4f92&#45;4e04&#45;bd87&#45;c82be03265de :Customer</text>
<polygon fill="none" stroke="black" points="1274.5,-4 1274.5,-70 1488.5,-70 1488.5,-4 1274.5,-4"/>
<text text-anchor="start" x="1286.02" y="-58" font-family="Times,serif" font-size="10.00">email = &quot;bobby@tt.ee&quot;</text>
<text text-anchor="start" x="1286.02" y="-46" font-family="Times,serif" font-size="10.00">firstName = &quot;Bob&quot;</text>
<text text-anchor="start" x="1286.02" y="-34" font-family="Times,serif" font-size="10.00">id = &quot;1eaf6f4c&#45;4f92&#45;4e04&#45;bd87&#45;c82be03265de&quot;</text>
<text text-anchor="start" x="1286.02" y="-22" font-family="Times,serif" font-size="10.00">lastName = &quot;Jackson&quot;</text>
<text text-anchor="start" x="1286.02" y="-10" font-family="Times,serif" font-size="10.00">password = &quot;secret&quot;</text>
</g>
<!-- b&#45;&gt;1eaf6f4c_4f92_4e04_bd87_c82be03265de -->
<g id="edge11" class="edge">
<title>b&#45;&gt;1eaf6f4c_4f92_4e04_bd87_c82be03265de</title>
<path fill="none" stroke="black" d="M992.54,-292.5C1204.08,-275.52 1439,-256.55 1439.5,-256 1478.07,-214.18 1456.89,-182.16 1439.5,-128 1435.48,-115.48 1428.74,-103.26 1421.24,-92.26"/>
<text text-anchor="middle" x="1400.97" y="-95.26" font-family="Times,serif" font-size="10.00">customers</text>
<text text-anchor="middle" x="1002.26" y="-295.5" font-family="Times,serif" font-size="10.00">bank</text>
</g>
<!-- addcad80_5f8d_4961_b815_06f63d539c4e -->
<g id="node12" class="node">
<title>addcad80_5f8d_4961_b815_06f63d539c4e</title>
<polygon fill="none" stroke="black" points="8.5,-70 8.5,-88 225.5,-88 225.5,-70 8.5,-70"/>
<text text-anchor="start" x="11.33" y="-77" font-family="Times,serif" text-decoration="underline" font-size="10.00">addcad80&#45;5f8d&#45;4961&#45;b815&#45;06f63d539c4e :Customer</text>
<polygon fill="none" stroke="black" points="8.5,-4 8.5,-70 225.5,-70 225.5,-4 8.5,-4"/>
<text text-anchor="start" x="20.13" y="-58" font-family="Times,serif" font-size="10.00">email = &quot;bobbytest@tt.ee&quot;</text>
<text text-anchor="start" x="20.13" y="-46" font-family="Times,serif" font-size="10.00">firstName = &quot;Bob&quot;</text>
<text text-anchor="start" x="20.13" y="-34" font-family="Times,serif" font-size="10.00">id = &quot;addcad80&#45;5f8d&#45;4961&#45;b815&#45;06f63d539c4e&quot;</text>
<text text-anchor="start" x="20.13" y="-22" font-family="Times,serif" font-size="10.00">lastName = &quot;Jackson&quot;</text>
<text text-anchor="start" x="20.13" y="-10" font-family="Times,serif" font-size="10.00">password = &quot;secret&quot;</text>
</g>
<!-- b&#45;&gt;addcad80_5f8d_4961_b815_06f63d539c4e -->
<g id="edge12" class="edge">
<title>b&#45;&gt;addcad80_5f8d_4961_b815_06f63d539c4e</title>
<path fill="none" stroke="black" d="M330.14,-303.5C198,-293.85 72.07,-278.8 51.5,-256 13.4,-213.76 32.63,-181.67 51.5,-128 55.99,-115.24 63.42,-103.01 71.7,-92.09"/>
<text text-anchor="middle" x="51.42" y="-95.09" font-family="Times,serif" font-size="10.00">customers</text>
<text text-anchor="middle" x="320.42" y="-306.5" font-family="Times,serif" font-size="10.00">bank</text>
</g>
<!-- t -->
<g id="node13" class="node">
<title>t</title>
<polygon fill="none" stroke="black" points="813.5,-186 813.5,-204 849.5,-204 849.5,-186 813.5,-186"/>
<text text-anchor="start" x="816.09" y="-193" font-family="Times,serif" text-decoration="underline" font-size="10.00">t :Trace</text>
<polygon fill="none" stroke="black" points="813.5,-180 813.5,-186 849.5,-186 849.5,-180 813.5,-180"/>
</g>
<!-- b&#45;&gt;t -->
<g id="edge13" class="edge">
<title>b&#45;&gt;t</title>
<path fill="none" stroke="black" d="M739.85,-291.9C759.52,-282.61 779.54,-270.74 795.5,-256 809.29,-243.27 819.22,-224.01 825.12,-210.14"/>
<text text-anchor="middle" x="813.46" y="-213.14" font-family="Times,serif" font-size="10.00">traces</text>
</g>
<!-- 494107c4_9aa4_4601_a09b_e8c67c96ec24&#45;&gt;c -->
<g id="edge14" class="edge">
<title>494107c4_9aa4_4601_a09b_e8c67c96ec24&#45;&gt;c</title>
<path fill="none" stroke="black" d="M304.89,-127.84C340.36,-106.38 377.59,-83.85 403.71,-68.05"/>
<text text-anchor="middle" x="386.23" y="-71.05" font-family="Times,serif" font-size="10.00">currency</text>
</g>
<!-- 494107c4_9aa4_4601_a09b_e8c67c96ec24&#45;&gt;addcad80_5f8d_4961_b815_06f63d539c4e -->
<g id="edge15" class="edge">
<title>494107c4_9aa4_4601_a09b_e8c67c96ec24&#45;&gt;addcad80_5f8d_4961_b815_06f63d539c4e</title>
<path fill="none" stroke="black" d="M163.66,-127.84C156.69,-115.9 149.53,-103.63 142.97,-92.37"/>
<text text-anchor="middle" x="130.47" y="-95.37" font-family="Times,serif" font-size="10.00">owner</text>
<text text-anchor="middle" x="148.11" y="-118.84" font-family="Times,serif" font-size="10.00">account</text>
</g>
<!-- sendItToTheBank&#45;&gt;c -->
<g id="edge16" class="edge">
<title>sendItToTheBank&#45;&gt;c</title>
<path fill="none" stroke="black" d="M438.5,-127.84C438.5,-106.38 438.5,-83.85 438.5,-68.05"/>
<text text-anchor="middle" x="421.01" y="-71.05" font-family="Times,serif" font-size="10.00">currency</text>
</g>
<!-- 8a633aa5_907c_4e57_a313_22e0adb2672e&#45;&gt;c -->
<g id="edge17" class="edge">
<title>8a633aa5_907c_4e57_a313_22e0adb2672e&#45;&gt;c</title>
<path fill="none" stroke="black" d="M1180.2,-141.27C1164.64,-136.23 1148.81,-131.64 1133.5,-128 919.75,-77.15 661.1,-57.72 527.7,-50.69"/>
<text text-anchor="middle" x="545.19" y="-53.69" font-family="Times,serif" font-size="10.00">currency</text>
</g>
<!-- 8a633aa5_907c_4e57_a313_22e0adb2672e&#45;&gt;1eaf6f4c_4f92_4e04_bd87_c82be03265de -->
<g id="edge18" class="edge">
<title>8a633aa5_907c_4e57_a313_22e0adb2672e&#45;&gt;1eaf6f4c_4f92_4e04_bd87_c82be03265de</title>
<path fill="none" stroke="black" d="M1338.83,-127.84C1345.14,-115.9 1351.61,-103.63 1357.55,-92.37"/>
<text text-anchor="middle" x="1345.06" y="-95.37" font-family="Times,serif" font-size="10.00">owner</text>
<text text-anchor="middle" x="1323.29" y="-118.84" font-family="Times,serif" font-size="10.00">account</text>
</g>
<!-- 7ec351d6_652f_4691_8e72_ea432d44a0c8&#45;&gt;c -->
<g id="edge19" class="edge">
<title>7ec351d6_652f_4691_8e72_ea432d44a0c8&#45;&gt;c</title>
<path fill="none" stroke="black" d="M876.66,-131.12C873.59,-130.03 870.54,-128.99 867.5,-128 753.08,-90.78 615.6,-68.57 527.65,-57.07"/>
<text text-anchor="middle" x="545.14" y="-60.07" font-family="Times,serif" font-size="10.00">currency</text>
</g>
<!-- 7ec351d6_652f_4691_8e72_ea432d44a0c8&#45;&gt;e2f7bc4c_ef2a_466e_b8a5_d24f48b13afe -->
<g id="edge20" class="edge">
<title>7ec351d6_652f_4691_8e72_ea432d44a0c8&#45;&gt;e2f7bc4c_ef2a_466e_b8a5_d24f48b13afe</title>
<path fill="none" stroke="black" d="M1029.89,-127.84C1035.44,-115.9 1041.15,-103.63 1046.39,-92.37"/>
<text text-anchor="middle" x="1033.9" y="-95.37" font-family="Times,serif" font-size="10.00">owner</text>
<text text-anchor="middle" x="1014.34" y="-118.84" font-family="Times,serif" font-size="10.00">account</text>
</g>
</g>
</svg>
