<?xml version="1.0" encoding="UTF-8" standalone="no"?>
<!DOCTYPE svg PUBLIC "-//W3C//DTD SVG 1.1//EN"
 "http://www.w3.org/Graphics/SVG/1.1/DTD/svg11.dtd">
<!-- Generated by graphviz version 2.49.3 (20211023.0002)
 -->
<!-- Pages: 1 -->
<svg width="881px" height="416px"
 viewBox="0.00 0.00 880.92 416.00" xmlns="http://www.w3.org/2000/svg" xmlns:xlink="http://www.w3.org/1999/xlink">
<g id="graph0" class="graph" transform="scale(1.0 1.0) rotate(0) translate(4 412)">
<polygon fill="white" stroke="transparent" points="-4,4 -4,-412 876.92,-412 876.92,4 -4,4"/>
<!-- e87adcb5_5cc9_488f_8274_c09ff04a67d0 -->
<g id="node1" class="node">
<title>e87adcb5_5cc9_488f_8274_c09ff04a67d0</title>
<polygon fill="none" stroke="black" points="479.92,-387 479.92,-404 702.92,-404 702.92,-387 479.92,-387"/>
<text text-anchor="start" x="482.92" y="-394" font-family="Times,serif" text-decoration="underline" font-size="10.00">e87adcb5&#45;5cc9&#45;488f&#45;8274&#45;c09ff04a67d0 :Transaction</text>
<polygon fill="none" stroke="black" points="479.92,-326 479.92,-387 702.92,-387 702.92,-326 479.92,-326"/>
<text text-anchor="start" x="495.92" y="-376" font-family="Times,serif" font-size="10.00">amount = 30.0</text>
<text text-anchor="start" x="495.92" y="-365" font-family="Times,serif" font-size="10.00">description = &quot;Seed transaction&quot;</text>
<text text-anchor="start" x="495.92" y="-354" font-family="Times,serif" font-size="10.00">id = &quot;e87adcb5&#45;5cc9&#45;488f&#45;8274&#45;c09ff04a67d0&quot;</text>
<text text-anchor="start" x="495.92" y="-343" font-family="Times,serif" font-size="10.00">rejectionDescription = &quot;&quot;</text>
<text text-anchor="start" x="495.92" y="-332" font-family="Times,serif" font-size="10.00">timestamp = 2021&#45;11&#45;27T18:54:56.088942</text>
</g>
<!-- b -->
<g id="node2" class="node">
<title>b</title>
<polygon fill="none" stroke="black" points="544.92,-259 544.92,-276 582.92,-276 582.92,-259 544.92,-259"/>
<text text-anchor="start" x="547.92" y="-266" font-family="Times,serif" text-decoration="underline" font-size="10.00">b :Bank</text>
<polygon fill="none" stroke="black" points="544.92,-253 544.92,-259 582.92,-259 582.92,-253 544.92,-253"/>
</g>
<!-- e87adcb5_5cc9_488f_8274_c09ff04a67d0&#45;&gt;b -->
<g id="edge1" class="edge">
<title>e87adcb5_5cc9_488f_8274_c09ff04a67d0&#45;&gt;b</title>
<path fill="none" stroke="black" d="M579.31,-321.87C575.59,-308.38 571.68,-294.19 568.73,-283.48"/>
<text text-anchor="middle" x="558.73" y="-286.48" font-family="Times,serif" font-size="10.00">bank</text>
<text text-anchor="middle" x="555.31" y="-313.87" font-family="Times,serif" font-size="10.00">transactions</text>
</g>
<!-- c -->
<g id="node3" class="node">
<title>c</title>
<polygon fill="none" stroke="black" points="71.92,-43 71.92,-60 206.92,-60 206.92,-43 71.92,-43"/>
<text text-anchor="start" x="115.92" y="-50" font-family="Times,serif" text-decoration="underline" font-size="10.00">c :Currency</text>
<polygon fill="none" stroke="black" points="71.92,-26 71.92,-43 206.92,-43 206.92,-26 71.92,-26"/>
<text text-anchor="start" x="74.92" y="-32" font-family="Times,serif" font-size="10.00">declaringClass = class Currency</text>
</g>
<!-- e87adcb5_5cc9_488f_8274_c09ff04a67d0&#45;&gt;c -->
<g id="edge2" class="edge">
<title>e87adcb5_5cc9_488f_8274_c09ff04a67d0&#45;&gt;c</title>
<path fill="none" stroke="black" d="M471.16,-348.62C319.41,-326.39 70.9,-279.89 15.92,-208 -7.31,-177.64 -2.5,-155.49 15.92,-122 30.54,-95.41 58.48,-76.61 84.04,-64.14"/>
<text text-anchor="middle" x="66.54" y="-67.14" font-family="Times,serif" font-size="10.00">currency</text>
</g>
<!-- 215ab0f5_af44_4d31_8865_3f9d459aa6f5 -->
<g id="node4" class="node">
<title>215ab0f5_af44_4d31_8865_3f9d459aa6f5</title>
<polygon fill="none" stroke="black" points="654.92,-170 654.92,-187 864.92,-187 864.92,-170 654.92,-170"/>
<text text-anchor="start" x="657.92" y="-177" font-family="Times,serif" text-decoration="underline" font-size="10.00">215ab0f5&#45;af44&#45;4d31&#45;8865&#45;3f9d459aa6f5 :Account</text>
<polygon fill="none" stroke="black" points="654.92,-142 654.92,-170 864.92,-170 864.92,-142 654.92,-142"/>
<text text-anchor="start" x="664.42" y="-159" font-family="Times,serif" font-size="10.00">balance = 30.0</text>
<text text-anchor="start" x="664.42" y="-148" font-family="Times,serif" font-size="10.00">id = &quot;215ab0f5&#45;af44&#45;4d31&#45;8865&#45;3f9d459aa6f5&quot;</text>
</g>
<!-- e87adcb5_5cc9_488f_8274_c09ff04a67d0&#45;&gt;215ab0f5_af44_4d31_8865_3f9d459aa6f5 -->
<g id="edge3" class="edge">
<title>e87adcb5_5cc9_488f_8274_c09ff04a67d0&#45;&gt;215ab0f5_af44_4d31_8865_3f9d459aa6f5</title>
<path fill="none" stroke="black" d="M600.45,-321.74C607.62,-297.07 619.45,-266.48 637.92,-244 655.79,-222.24 681.37,-204.59 704.5,-191.62"/>
<text text-anchor="middle" x="682.5" y="-194.62" font-family="Times,serif" font-size="10.00">destination</text>
</g>
<!-- s -->
<g id="node5" class="node">
<title>s</title>
<polygon fill="none" stroke="black" points="654.92,-265 654.92,-282 828.92,-282 828.92,-265 654.92,-265"/>
<text text-anchor="start" x="724.92" y="-272" font-family="Times,serif" text-decoration="underline" font-size="10.00">s :Status</text>
<polygon fill="none" stroke="black" points="654.92,-248 654.92,-265 828.92,-265 828.92,-248 654.92,-248"/>
<text text-anchor="start" x="657.92" y="-254" font-family="Times,serif" font-size="10.00">declaringClass = class Transaction$Status</text>
</g>
<!-- e87adcb5_5cc9_488f_8274_c09ff04a67d0&#45;&gt;s -->
<g id="edge4" class="edge">
<title>e87adcb5_5cc9_488f_8274_c09ff04a67d0&#45;&gt;s</title>
<path fill="none" stroke="black" d="M655.83,-321.87C675.01,-309.42 695.13,-296.37 711.08,-286.01"/>
<text text-anchor="middle" x="699.58" y="-289.01" font-family="Times,serif" font-size="10.00">status</text>
</g>
<!-- b&#45;&gt;215ab0f5_af44_4d31_8865_3f9d459aa6f5 -->
<g id="edge6" class="edge">
<title>b&#45;&gt;215ab0f5_af44_4d31_8865_3f9d459aa6f5</title>
<path fill="none" stroke="black" d="M591.17,-250.37C621.46,-235.23 671.07,-210.42 708.67,-191.62"/>
<text text-anchor="middle" x="726.17" y="-194.62" font-family="Times,serif" font-size="10.00">accounts</text>
<text text-anchor="middle" x="601.17" y="-253.37" font-family="Times,serif" font-size="10.00">bank</text>
</g>
<!-- aa36c248_6f7d_4579_a9e2_051ef35d5118 -->
<g id="node6" class="node">
<title>aa36c248_6f7d_4579_a9e2_051ef35d5118</title>
<polygon fill="none" stroke="black" points="32.92,-170 32.92,-187 244.92,-187 244.92,-170 32.92,-170"/>
<text text-anchor="start" x="35.92" y="-177" font-family="Times,serif" text-decoration="underline" font-size="10.00">aa36c248&#45;6f7d&#45;4579&#45;a9e2&#45;051ef35d5118 :Account</text>
<polygon fill="none" stroke="black" points="32.92,-142 32.92,-170 244.92,-170 244.92,-142 32.92,-142"/>
<text text-anchor="start" x="42.42" y="-159" font-family="Times,serif" font-size="10.00">balance = 69420.0</text>
<text text-anchor="start" x="42.42" y="-148" font-family="Times,serif" font-size="10.00">id = &quot;aa36c248&#45;6f7d&#45;4579&#45;a9e2&#45;051ef35d5118&quot;</text>
</g>
<!-- b&#45;&gt;aa36c248_6f7d_4579_a9e2_051ef35d5118 -->
<g id="edge5" class="edge">
<title>b&#45;&gt;aa36c248_6f7d_4579_a9e2_051ef35d5118</title>
<path fill="none" stroke="black" d="M536.55,-260.29C483.19,-252.76 361.73,-234.15 261.92,-208 244.23,-203.37 225.43,-197.46 207.98,-191.55"/>
<text text-anchor="middle" x="180.98" y="-194.55" font-family="Times,serif" font-size="10.00">bankAccount</text>
<text text-anchor="middle" x="526.55" y="-263.29" font-family="Times,serif" font-size="10.00">bank</text>
</g>
<!-- b2dcce5c_4f5c_4f6e_a501_0260d49e0cf4 -->
<g id="node7" class="node">
<title>b2dcce5c_4f5c_4f6e_a501_0260d49e0cf4</title>
<polygon fill="none" stroke="black" points="279.92,-187 279.92,-204 510.92,-204 510.92,-187 279.92,-187"/>
<text text-anchor="start" x="282.92" y="-194" font-family="Times,serif" text-decoration="underline" font-size="10.00">b2dcce5c&#45;4f5c&#45;4f6e&#45;a501&#45;0260d49e0cf4 :Administrator</text>
<polygon fill="none" stroke="black" points="279.92,-126 279.92,-187 510.92,-187 510.92,-126 279.92,-126"/>
<text text-anchor="start" x="300.42" y="-176" font-family="Times,serif" font-size="10.00">email = &quot;admin@bank.ee&quot;</text>
<text text-anchor="start" x="300.42" y="-165" font-family="Times,serif" font-size="10.00">firstName = &quot;Admin&quot;</text>
<text text-anchor="start" x="300.42" y="-154" font-family="Times,serif" font-size="10.00">id = &quot;b2dcce5c&#45;4f5c&#45;4f6e&#45;a501&#45;0260d49e0cf4&quot;</text>
<text text-anchor="start" x="300.42" y="-143" font-family="Times,serif" font-size="10.00">lastName = &quot;ALice&quot;</text>
<text text-anchor="start" x="300.42" y="-132" font-family="Times,serif" font-size="10.00">password = &quot;secure_p@ssw0|2d&quot;</text>
</g>
<!-- b&#45;&gt;b2dcce5c_4f5c_4f6e_a501_0260d49e0cf4 -->
<g id="edge7" class="edge">
<title>b&#45;&gt;b2dcce5c_4f5c_4f6e_a501_0260d49e0cf4</title>
<path fill="none" stroke="black" d="M536.76,-248.25C518.01,-237.38 492.12,-222.37 467.58,-208.14"/>
<text text-anchor="middle" x="438.58" y="-211.14" font-family="Times,serif" font-size="10.00">administrators</text>
<text text-anchor="middle" x="526.76" y="-251.25" font-family="Times,serif" font-size="10.00">bank</text>
</g>
<!-- 2346670d_72d7_47a7_846f_8e189a0e2d2d -->
<g id="node8" class="node">
<title>2346670d_72d7_47a7_846f_8e189a0e2d2d</title>
<polygon fill="none" stroke="black" points="578.92,-65 578.92,-82 798.92,-82 798.92,-65 578.92,-65"/>
<text text-anchor="start" x="581.92" y="-72" font-family="Times,serif" text-decoration="underline" font-size="10.00">2346670d&#45;72d7&#45;47a7&#45;846f&#45;8e189a0e2d2d :Customer</text>
<polygon fill="none" stroke="black" points="578.92,-4 578.92,-65 798.92,-65 798.92,-4 578.92,-4"/>
<text text-anchor="start" x="590.92" y="-54" font-family="Times,serif" font-size="10.00">email = &quot;bobby@tt.ee&quot;</text>
<text text-anchor="start" x="590.92" y="-43" font-family="Times,serif" font-size="10.00">firstName = &quot;Bob&quot;</text>
<text text-anchor="start" x="590.92" y="-32" font-family="Times,serif" font-size="10.00">id = &quot;2346670d&#45;72d7&#45;47a7&#45;846f&#45;8e189a0e2d2d&quot;</text>
<text text-anchor="start" x="590.92" y="-21" font-family="Times,serif" font-size="10.00">lastName = &quot;Jackson&quot;</text>
<text text-anchor="start" x="590.92" y="-10" font-family="Times,serif" font-size="10.00">password = &quot;secret&quot;</text>
</g>
<!-- b&#45;&gt;2346670d_72d7_47a7_846f_8e189a0e2d2d -->
<g id="edge8" class="edge">
<title>b&#45;&gt;2346670d_72d7_47a7_846f_8e189a0e2d2d</title>
<path fill="none" stroke="black" d="M575.98,-246.77C583.34,-235.9 592.69,-221.43 599.92,-208 619.72,-171.2 617.97,-158.72 637.92,-122 644.4,-110.06 652.12,-97.55 659.57,-86.14"/>
<text text-anchor="middle" x="639.07" y="-89.14" font-family="Times,serif" font-size="10.00">customers</text>
<text text-anchor="middle" x="565.98" y="-238.77" font-family="Times,serif" font-size="10.00">bank</text>
</g>
<!-- t -->
<g id="node9" class="node">
<title>t</title>
<polygon fill="none" stroke="black" points="545.92,-159 545.92,-176 582.92,-176 582.92,-159 545.92,-159"/>
<text text-anchor="start" x="548.92" y="-166" font-family="Times,serif" text-decoration="underline" font-size="10.00">t :Trace</text>
<polygon fill="none" stroke="black" points="545.92,-153 545.92,-159 582.92,-159 582.92,-153 545.92,-153"/>
</g>
<!-- b&#45;&gt;t -->
<g id="edge9" class="edge">
<title>b&#45;&gt;t</title>
<path fill="none" stroke="black" d="M563.92,-246.93C563.92,-229.05 563.92,-201.13 563.92,-183.2"/>
<text text-anchor="middle" x="551.92" y="-186.2" font-family="Times,serif" font-size="10.00">traces</text>
</g>
<!-- 215ab0f5_af44_4d31_8865_3f9d459aa6f5&#45;&gt;c -->
<g id="edge10" class="edge">
<title>215ab0f5_af44_4d31_8865_3f9d459aa6f5&#45;&gt;c</title>
<path fill="none" stroke="black" d="M668.45,-138.49C646.12,-132.68 622.23,-126.81 599.92,-122 465.21,-92.99 306.46,-68.15 214.77,-54.72"/>
<text text-anchor="middle" x="232.27" y="-57.72" font-family="Times,serif" font-size="10.00">currency</text>
</g>
<!-- 215ab0f5_af44_4d31_8865_3f9d459aa6f5&#45;&gt;2346670d_72d7_47a7_846f_8e189a0e2d2d -->
<g id="edge11" class="edge">
<title>215ab0f5_af44_4d31_8865_3f9d459aa6f5&#45;&gt;2346670d_72d7_47a7_846f_8e189a0e2d2d</title>
<path fill="none" stroke="black" d="M744.68,-138.26C735.72,-123.11 724.16,-103.57 713.9,-86.22"/>
<text text-anchor="middle" x="701.4" y="-89.22" font-family="Times,serif" font-size="10.00">owner</text>
<text text-anchor="middle" x="728.68" y="-130.26" font-family="Times,serif" font-size="10.00">account</text>
</g>
<!-- aa36c248_6f7d_4579_a9e2_051ef35d5118&#45;&gt;c -->
<g id="edge12" class="edge">
<title>aa36c248_6f7d_4579_a9e2_051ef35d5118&#45;&gt;c</title>
<path fill="none" stroke="black" d="M138.92,-138.26C138.92,-116.08 138.92,-84.52 138.92,-64.15"/>
<text text-anchor="middle" x="121.42" y="-67.15" font-family="Times,serif" font-size="10.00">currency</text>
</g>
</g>
</svg>
