<?xml version="1.0" encoding="UTF-8" standalone="no"?>
<!DOCTYPE svg PUBLIC "-//W3C//DTD SVG 1.1//EN"
 "http://www.w3.org/Graphics/SVG/1.1/DTD/svg11.dtd">
<!-- Generated by graphviz version 2.43.0 (0)
 -->
<!-- Title: model Pages: 1 -->
<svg width="1378px" height="471px"
 viewBox="0.00 0.00 1377.93 471.00" xmlns="http://www.w3.org/2000/svg" xmlns:xlink="http://www.w3.org/1999/xlink">
<g id="graph0" class="graph" transform="scale(1.0 1.0) rotate(0) translate(4 467)">
<title>model</title>
<polygon fill="white" stroke="transparent" points="-4,4 -4,-467 1373.93,-467 1373.93,4 -4,4"/>
<!-- 473e0f41_bc47_4af7_b806_8a78d89587c2 -->
<g id="node1" class="node">
<title>473e0f41_bc47_4af7_b806_8a78d89587c2</title>
<polygon fill="none" stroke="black" points="708.03,-442 708.03,-459 940.03,-459 940.03,-442 708.03,-442"/>
<text text-anchor="start" x="711.03" y="-449" font-family="Times,serif" text-decoration="underline" font-size="10.00">473e0f41&#45;bc47&#45;4af7&#45;b806&#45;8a78d89587c2 :Transaction</text>
<polygon fill="none" stroke="black" points="708.03,-381 708.03,-442 940.03,-442 940.03,-381 708.03,-381"/>
<text text-anchor="start" x="724.53" y="-431" font-family="Times,serif" font-size="10.00">amount = 250.0</text>
<text text-anchor="start" x="724.53" y="-420" font-family="Times,serif" font-size="10.00">description = &quot;Salary&quot;</text>
<text text-anchor="start" x="724.53" y="-409" font-family="Times,serif" font-size="10.00">id = &quot;473e0f41&#45;bc47&#45;4af7&#45;b806&#45;8a78d89587c2&quot;</text>
<text text-anchor="start" x="724.53" y="-398" font-family="Times,serif" font-size="10.00">rejectionDescription = &quot;&quot;</text>
<text text-anchor="start" x="724.53" y="-387" font-family="Times,serif" font-size="10.00">timestamp = 2021&#45;12&#45;09T22:57:04.443925076</text>
</g>
<!-- b -->
<g id="node2" class="node">
<title>b</title>
<polygon fill="none" stroke="black" points="495.03,-319.5 495.03,-336.5 1153.03,-336.5 1153.03,-319.5 495.03,-319.5"/>
<text text-anchor="start" x="807.53" y="-326.5" font-family="Times,serif" text-decoration="underline" font-size="10.00">b :Bank</text>
<polygon fill="none" stroke="black" points="495.03,-291.5 495.03,-319.5 1153.03,-319.5 1153.03,-291.5 495.03,-291.5"/>
<text text-anchor="start" x="498.03" y="-308.5" font-family="Times,serif" font-size="10.00">accountsMap = sendItToTheBank8a633aa5&#45;907c&#45;4e57&#45;a313&#45;22e0adb2672e7ec351d6&#45;652f&#45;4691&#45;8e72&#45;ea432d44a0c8513cae1a&#45;a79f&#45;4f7d&#45;bef0&#45;b29db407b0ae</text>
<text text-anchor="start" x="498.03" y="-297.5" font-family="Times,serif" font-size="10.00">customerMap = e2f7bc4c&#45;ef2a&#45;466e&#45;b8a5&#45;d24f48b13afe1eaf6f4c&#45;4f92&#45;4e04&#45;bd87&#45;c82be03265debff3fd98&#45;824e&#45;4d28&#45;a0dd&#45;51f282ccd51a</text>
</g>
<!-- 473e0f41_bc47_4af7_b806_8a78d89587c2&#45;&gt;b -->
<g id="edge1" class="edge">
<title>473e0f41_bc47_4af7_b806_8a78d89587c2&#45;&gt;b</title>
<path fill="none" stroke="black" d="M824.03,-376.9C824.03,-364.81 824.03,-352 824.03,-341.22"/>
<text text-anchor="middle" x="813.53" y="-344.22" font-family="Times,serif" font-size="10.00">bank</text>
<text text-anchor="middle" x="799.53" y="-368.9" font-family="Times,serif" font-size="10.00">transactions</text>
</g>
<!-- c -->
<g id="node3" class="node">
<title>c</title>
<polygon fill="none" stroke="black" points="610.03,-43 610.03,-60 774.03,-60 774.03,-43 610.03,-43"/>
<text text-anchor="start" x="668.03" y="-50" font-family="Times,serif" text-decoration="underline" font-size="10.00">c :Currency</text>
<polygon fill="none" stroke="black" points="610.03,-26 610.03,-43 774.03,-43 774.03,-26 610.03,-26"/>
<text text-anchor="start" x="613.03" y="-32" font-family="Times,serif" font-size="10.00">declaringClass = class model.Currency</text>
</g>
<!-- 473e0f41_bc47_4af7_b806_8a78d89587c2&#45;&gt;c -->
<g id="edge2" class="edge">
<title>473e0f41_bc47_4af7_b806_8a78d89587c2&#45;&gt;c</title>
<path fill="none" stroke="black" d="M948.18,-409.59C1029.73,-399.91 1137.17,-380.36 1225.03,-341 1325.74,-295.88 1417.42,-202.59 1342.03,-122 1301.03,-78.17 861.68,-98.76 803.03,-86 780.28,-81.05 755.99,-72.29 735.95,-64.04"/>
<text text-anchor="middle" x="717.95" y="-67.04" font-family="Times,serif" font-size="10.00">currency</text>
</g>
<!-- 513cae1a_a79f_4f7d_bef0_b29db407b0ae -->
<g id="node4" class="node">
<title>513cae1a_a79f_4f7d_bef0_b29db407b0ae</title>
<polygon fill="none" stroke="black" points="1054.03,-225 1054.03,-242 1325.03,-242 1325.03,-225 1054.03,-225"/>
<text text-anchor="start" x="1085.53" y="-232" font-family="Times,serif" text-decoration="underline" font-size="10.00">513cae1a&#45;a79f&#45;4f7d&#45;bef0&#45;b29db407b0ae :Account</text>
<polygon fill="none" stroke="black" points="1054.03,-131 1054.03,-225 1325.03,-225 1325.03,-131 1054.03,-131"/>
<text text-anchor="start" x="1057.03" y="-214" font-family="Times,serif" font-size="10.00">balance = 260.0</text>
<text text-anchor="start" x="1057.03" y="-203" font-family="Times,serif" font-size="10.00">count = 0</text>
<text text-anchor="start" x="1057.03" y="-192" font-family="Times,serif" font-size="10.00">customerId = null</text>
<text text-anchor="start" x="1057.03" y="-181" font-family="Times,serif" font-size="10.00">iban = &quot;EE787839294853211298&quot;</text>
<text text-anchor="start" x="1057.03" y="-170" font-family="Times,serif" font-size="10.00">id = &quot;513cae1a&#45;a79f&#45;4f7d&#45;bef0&#45;b29db407b0ae&quot;</text>
<text text-anchor="start" x="1057.03" y="-159" font-family="Times,serif" font-size="10.00">receivedTransaction = 473e0f41&#45;bc47&#45;4af7&#45;b806&#45;8a78d89587c2</text>
<text text-anchor="start" x="1057.03" y="-148" font-family="Times,serif" font-size="10.00">sentTransaction = </text>
<text text-anchor="start" x="1057.03" y="-137" font-family="Times,serif" font-size="10.00">status = &quot;ACTIVE&quot;</text>
</g>
<!-- 473e0f41_bc47_4af7_b806_8a78d89587c2&#45;&gt;513cae1a_a79f_4f7d_bef0_b29db407b0ae -->
<g id="edge3" class="edge">
<title>473e0f41_bc47_4af7_b806_8a78d89587c2&#45;&gt;513cae1a_a79f_4f7d_bef0_b29db407b0ae</title>
<path fill="none" stroke="black" d="M948.29,-410.09C1046.13,-400.19 1171.14,-380.12 1203.03,-341 1224.18,-315.05 1221.23,-277.78 1212.72,-246.51"/>
<text text-anchor="middle" x="1235.72" y="-249.51" font-family="Times,serif" font-size="10.00">destination</text>
<text text-anchor="middle" x="1034.29" y="-413.09" font-family="Times,serif" font-size="10.00">allTransactionsWithSignAndOrderedDesc</text>
</g>
<!-- sendItToTheBank -->
<g id="node5" class="node">
<title>sendItToTheBank</title>
<polygon fill="none" stroke="black" points="44.03,-231 44.03,-248 365.03,-248 365.03,-231 44.03,-231"/>
<text text-anchor="start" x="147.53" y="-238" font-family="Times,serif" text-decoration="underline" font-size="10.00">sendItToTheBank :Account</text>
<polygon fill="none" stroke="black" points="44.03,-126 44.03,-231 365.03,-231 365.03,-126 44.03,-126"/>
<text text-anchor="start" x="47.03" y="-220" font-family="Times,serif" font-size="10.00">allTransactionsWithSignAndOrderedDesc = [model.Transaction@68b4ad91]</text>
<text text-anchor="start" x="47.03" y="-209" font-family="Times,serif" font-size="10.00">balance = 69170.0</text>
<text text-anchor="start" x="47.03" y="-198" font-family="Times,serif" font-size="10.00">count = 1</text>
<text text-anchor="start" x="47.03" y="-187" font-family="Times,serif" font-size="10.00">customerId = null</text>
<text text-anchor="start" x="47.03" y="-176" font-family="Times,serif" font-size="10.00">iban = &quot;EE729002910495722232&quot;</text>
<text text-anchor="start" x="47.03" y="-165" font-family="Times,serif" font-size="10.00">id = &quot;sendItToTheBank&quot;</text>
<text text-anchor="start" x="47.03" y="-154" font-family="Times,serif" font-size="10.00">receivedTransaction = </text>
<text text-anchor="start" x="47.03" y="-143" font-family="Times,serif" font-size="10.00">sentTransaction = 473e0f41&#45;bc47&#45;4af7&#45;b806&#45;8a78d89587c2</text>
<text text-anchor="start" x="47.03" y="-132" font-family="Times,serif" font-size="10.00">status = &quot;ACTIVE&quot;</text>
</g>
<!-- 473e0f41_bc47_4af7_b806_8a78d89587c2&#45;&gt;sendItToTheBank -->
<g id="edge4" class="edge">
<title>473e0f41_bc47_4af7_b806_8a78d89587c2&#45;&gt;sendItToTheBank</title>
<path fill="none" stroke="black" d="M699.69,-412.25C629.82,-403.48 543.74,-383.96 478.03,-341 453.55,-325 461.97,-306.15 439.03,-288 419.04,-272.18 396.17,-258.42 372.73,-246.6"/>
<text text-anchor="middle" x="386.23" y="-249.6" font-family="Times,serif" font-size="10.00">source</text>
</g>
<!-- s -->
<g id="node6" class="node">
<title>s</title>
<polygon fill="none" stroke="black" points="218.03,-314.5 218.03,-331.5 423.03,-331.5 423.03,-314.5 218.03,-314.5"/>
<text text-anchor="start" x="303.53" y="-321.5" font-family="Times,serif" text-decoration="underline" font-size="10.00">s :Status</text>
<polygon fill="none" stroke="black" points="218.03,-297.5 218.03,-314.5 423.03,-314.5 423.03,-297.5 218.03,-297.5"/>
<text text-anchor="start" x="221.03" y="-303.5" font-family="Times,serif" font-size="10.00">declaringClass = class model.Transaction$Status</text>
</g>
<!-- 473e0f41_bc47_4af7_b806_8a78d89587c2&#45;&gt;s -->
<g id="edge5" class="edge">
<title>473e0f41_bc47_4af7_b806_8a78d89587c2&#45;&gt;s</title>
<path fill="none" stroke="black" d="M699.77,-393.48C612.76,-375.61 498.13,-352.07 417.67,-335.55"/>
<text text-anchor="middle" x="405.67" y="-338.55" font-family="Times,serif" font-size="10.00">status</text>
</g>
<!-- b&#45;&gt;513cae1a_a79f_4f7d_bef0_b29db407b0ae -->
<g id="edge9" class="edge">
<title>b&#45;&gt;513cae1a_a79f_4f7d_bef0_b29db407b0ae</title>
<path fill="none" stroke="black" d="M916.86,-287.98C952.77,-277.57 994.06,-264.95 1031.03,-252 1036.06,-250.24 1041.16,-248.41 1046.3,-246.53"/>
<text text-anchor="middle" x="1027.8" y="-249.53" font-family="Times,serif" font-size="10.00">accounts</text>
<text text-anchor="middle" x="906.36" y="-279.98" font-family="Times,serif" font-size="10.00">bank</text>
</g>
<!-- b&#45;&gt;sendItToTheBank -->
<g id="edge6" class="edge">
<title>b&#45;&gt;sendItToTheBank</title>
<path fill="none" stroke="black" d="M581.43,-288C517.71,-278.95 449.39,-267.14 387.03,-252 382.29,-250.85 377.5,-249.62 372.67,-248.33"/>
<text text-anchor="middle" x="400.67" y="-240.33" font-family="Times,serif" font-size="10.00">bankAccount</text>
<text text-anchor="middle" x="570.93" y="-280" font-family="Times,serif" font-size="10.00">bank</text>
</g>
<!-- 8a633aa5_907c_4e57_a313_22e0adb2672e -->
<g id="node7" class="node">
<title>8a633aa5_907c_4e57_a313_22e0adb2672e</title>
<polygon fill="none" stroke="black" points="437.03,-225 437.03,-242 675.03,-242 675.03,-225 437.03,-225"/>
<text text-anchor="start" x="449.03" y="-232" font-family="Times,serif" text-decoration="underline" font-size="10.00">8a633aa5&#45;907c&#45;4e57&#45;a313&#45;22e0adb2672e :Account</text>
<polygon fill="none" stroke="black" points="437.03,-131 437.03,-225 675.03,-225 675.03,-131 437.03,-131"/>
<text text-anchor="start" x="440.03" y="-214" font-family="Times,serif" font-size="10.00">balance = 0.0</text>
<text text-anchor="start" x="440.03" y="-203" font-family="Times,serif" font-size="10.00">count = 0</text>
<text text-anchor="start" x="440.03" y="-192" font-family="Times,serif" font-size="10.00">customerId = &quot;1eaf6f4c&#45;4f92&#45;4e04&#45;bd87&#45;c82be03265de&quot;</text>
<text text-anchor="start" x="440.03" y="-181" font-family="Times,serif" font-size="10.00">iban = &quot;EE500467859057350272&quot;</text>
<text text-anchor="start" x="440.03" y="-170" font-family="Times,serif" font-size="10.00">id = &quot;8a633aa5&#45;907c&#45;4e57&#45;a313&#45;22e0adb2672e&quot;</text>
<text text-anchor="start" x="440.03" y="-159" font-family="Times,serif" font-size="10.00">receivedTransaction = </text>
<text text-anchor="start" x="440.03" y="-148" font-family="Times,serif" font-size="10.00">sentTransaction = </text>
<text text-anchor="start" x="440.03" y="-137" font-family="Times,serif" font-size="10.00">status = &quot;ACTIVE&quot;</text>
</g>
<!-- b&#45;&gt;8a633aa5_907c_4e57_a313_22e0adb2672e -->
<g id="edge7" class="edge">
<title>b&#45;&gt;8a633aa5_907c_4e57_a313_22e0adb2672e</title>
<path fill="none" stroke="black" d="M769.1,-287.96C745.38,-276.92 717.33,-263.85 692.03,-252 688.25,-250.23 684.41,-248.43 680.53,-246.61"/>
<text text-anchor="middle" x="662.03" y="-249.61" font-family="Times,serif" font-size="10.00">accounts</text>
<text text-anchor="middle" x="758.6" y="-279.96" font-family="Times,serif" font-size="10.00">bank</text>
</g>
<!-- 7ec351d6_652f_4691_8e72_ea432d44a0c8 -->
<g id="node8" class="node">
<title>7ec351d6_652f_4691_8e72_ea432d44a0c8</title>
<polygon fill="none" stroke="black" points="709.03,-225 709.03,-242 943.03,-242 943.03,-225 709.03,-225"/>
<text text-anchor="start" x="719.03" y="-232" font-family="Times,serif" text-decoration="underline" font-size="10.00">7ec351d6&#45;652f&#45;4691&#45;8e72&#45;ea432d44a0c8 :Account</text>
<polygon fill="none" stroke="black" points="709.03,-131 709.03,-225 943.03,-225 943.03,-131 709.03,-131"/>
<text text-anchor="start" x="712.03" y="-214" font-family="Times,serif" font-size="10.00">balance = 100.0</text>
<text text-anchor="start" x="712.03" y="-203" font-family="Times,serif" font-size="10.00">count = 0</text>
<text text-anchor="start" x="712.03" y="-192" font-family="Times,serif" font-size="10.00">customerId = &quot;e2f7bc4c&#45;ef2a&#45;466e&#45;b8a5&#45;d24f48b13afe&quot;</text>
<text text-anchor="start" x="712.03" y="-181" font-family="Times,serif" font-size="10.00">iban = &quot;EE508166157234538669&quot;</text>
<text text-anchor="start" x="712.03" y="-170" font-family="Times,serif" font-size="10.00">id = &quot;7ec351d6&#45;652f&#45;4691&#45;8e72&#45;ea432d44a0c8&quot;</text>
<text text-anchor="start" x="712.03" y="-159" font-family="Times,serif" font-size="10.00">receivedTransaction = </text>
<text text-anchor="start" x="712.03" y="-148" font-family="Times,serif" font-size="10.00">sentTransaction = </text>
<text text-anchor="start" x="712.03" y="-137" font-family="Times,serif" font-size="10.00">status = &quot;ACTIVE&quot;</text>
</g>
<!-- b&#45;&gt;7ec351d6_652f_4691_8e72_ea432d44a0c8 -->
<g id="edge8" class="edge">
<title>b&#45;&gt;7ec351d6_652f_4691_8e72_ea432d44a0c8</title>
<path fill="none" stroke="black" d="M824.44,-287.8C824.63,-275.82 824.87,-261.04 825.1,-246.56"/>
<text text-anchor="middle" x="806.6" y="-249.56" font-family="Times,serif" font-size="10.00">accounts</text>
<text text-anchor="middle" x="813.94" y="-279.8" font-family="Times,serif" font-size="10.00">bank</text>
</g>
<!-- e2f7bc4c_ef2a_466e_b8a5_d24f48b13afe -->
<g id="node9" class="node">
<title>e2f7bc4c_ef2a_466e_b8a5_d24f48b13afe</title>
<polygon fill="none" stroke="black" points="820.03,-65 820.03,-82 1035.03,-82 1035.03,-65 820.03,-65"/>
<text text-anchor="start" x="823.03" y="-72" font-family="Times,serif" text-decoration="underline" font-size="10.00">e2f7bc4c&#45;ef2a&#45;466e&#45;b8a5&#45;d24f48b13afe :Customer</text>
<polygon fill="none" stroke="black" points="820.03,-4 820.03,-65 1035.03,-65 1035.03,-4 820.03,-4"/>
<text text-anchor="start" x="832.03" y="-54" font-family="Times,serif" font-size="10.00">email = &quot;john@doe.ee&quot;</text>
<text text-anchor="start" x="832.03" y="-43" font-family="Times,serif" font-size="10.00">firstName = &quot;John&quot;</text>
<text text-anchor="start" x="832.03" y="-32" font-family="Times,serif" font-size="10.00">id = &quot;e2f7bc4c&#45;ef2a&#45;466e&#45;b8a5&#45;d24f48b13afe&quot;</text>
<text text-anchor="start" x="832.03" y="-21" font-family="Times,serif" font-size="10.00">lastName = &quot;Doe&quot;</text>
<text text-anchor="start" x="832.03" y="-10" font-family="Times,serif" font-size="10.00">password = &quot;pass1234&quot;</text>
</g>
<!-- b&#45;&gt;e2f7bc4c_ef2a_466e_b8a5_d24f48b13afe -->
<g id="edge10" class="edge">
<title>b&#45;&gt;e2f7bc4c_ef2a_466e_b8a5_d24f48b13afe</title>
<path fill="none" stroke="black" d="M918.48,-287.97C934.94,-279.24 949.99,-267.57 960.03,-252 992.44,-201.77 969.99,-130.86 949.54,-86.17"/>
<text text-anchor="middle" x="929.04" y="-89.17" font-family="Times,serif" font-size="10.00">customers</text>
<text text-anchor="middle" x="928.98" y="-279.97" font-family="Times,serif" font-size="10.00">bank</text>
</g>
<!-- 1eaf6f4c_4f92_4e04_bd87_c82be03265de -->
<g id="node10" class="node">
<title>1eaf6f4c_4f92_4e04_bd87_c82be03265de</title>
<polygon fill="none" stroke="black" points="335.03,-65 335.03,-82 554.03,-82 554.03,-65 335.03,-65"/>
<text text-anchor="start" x="338.03" y="-72" font-family="Times,serif" text-decoration="underline" font-size="10.00">1eaf6f4c&#45;4f92&#45;4e04&#45;bd87&#45;c82be03265de :Customer</text>
<polygon fill="none" stroke="black" points="335.03,-4 335.03,-65 554.03,-65 554.03,-4 335.03,-4"/>
<text text-anchor="start" x="347.03" y="-54" font-family="Times,serif" font-size="10.00">email = &quot;bobby@tt.ee&quot;</text>
<text text-anchor="start" x="347.03" y="-43" font-family="Times,serif" font-size="10.00">firstName = &quot;Bob&quot;</text>
<text text-anchor="start" x="347.03" y="-32" font-family="Times,serif" font-size="10.00">id = &quot;1eaf6f4c&#45;4f92&#45;4e04&#45;bd87&#45;c82be03265de&quot;</text>
<text text-anchor="start" x="347.03" y="-21" font-family="Times,serif" font-size="10.00">lastName = &quot;Jackson&quot;</text>
<text text-anchor="start" x="347.03" y="-10" font-family="Times,serif" font-size="10.00">password = &quot;secret&quot;</text>
</g>
<!-- b&#45;&gt;1eaf6f4c_4f92_4e04_bd87_c82be03265de -->
<g id="edge11" class="edge">
<title>b&#45;&gt;1eaf6f4c_4f92_4e04_bd87_c82be03265de</title>
<path fill="none" stroke="black" d="M496.45,-287.93C461.27,-279.19 433.38,-267.54 420.03,-252 380.7,-206.23 402.47,-132.36 422.64,-86.08"/>
<text text-anchor="middle" x="402.14" y="-89.08" font-family="Times,serif" font-size="10.00">customers</text>
<text text-anchor="middle" x="485.95" y="-279.93" font-family="Times,serif" font-size="10.00">bank</text>
</g>
<!-- bff3fd98_824e_4d28_a0dd_51f282ccd51a -->
<g id="node11" class="node">
<title>bff3fd98_824e_4d28_a0dd_51f282ccd51a</title>
<polygon fill="none" stroke="black" points="1074.03,-65 1074.03,-82 1292.03,-82 1292.03,-65 1074.03,-65"/>
<text text-anchor="start" x="1077.03" y="-72" font-family="Times,serif" text-decoration="underline" font-size="10.00">bff3fd98&#45;824e&#45;4d28&#45;a0dd&#45;51f282ccd51a :Customer</text>
<polygon fill="none" stroke="black" points="1074.03,-4 1074.03,-65 1292.03,-65 1292.03,-4 1074.03,-4"/>
<text text-anchor="start" x="1086.03" y="-54" font-family="Times,serif" font-size="10.00">email = &quot;johntest@doe.ee&quot;</text>
<text text-anchor="start" x="1086.03" y="-43" font-family="Times,serif" font-size="10.00">firstName = &quot;John&quot;</text>
<text text-anchor="start" x="1086.03" y="-32" font-family="Times,serif" font-size="10.00">id = &quot;bff3fd98&#45;824e&#45;4d28&#45;a0dd&#45;51f282ccd51a&quot;</text>
<text text-anchor="start" x="1086.03" y="-21" font-family="Times,serif" font-size="10.00">lastName = &quot;Doe&quot;</text>
<text text-anchor="start" x="1086.03" y="-10" font-family="Times,serif" font-size="10.00">password = &quot;pass1234&quot;</text>
</g>
<!-- b&#45;&gt;bff3fd98_824e_4d28_a0dd_51f282ccd51a -->
<g id="edge12" class="edge">
<title>b&#45;&gt;bff3fd98_824e_4d28_a0dd_51f282ccd51a</title>
<path fill="none" stroke="black" d="M925.13,-287.99C945.81,-279.18 966.09,-267.48 982.03,-252 1027.03,-208.29 994.72,-168.32 1037.03,-122 1049.73,-108.1 1065.48,-96.21 1081.9,-86.21"/>
<text text-anchor="middle" x="1061.4" y="-89.21" font-family="Times,serif" font-size="10.00">customers</text>
<text text-anchor="middle" x="935.63" y="-279.99" font-family="Times,serif" font-size="10.00">bank</text>
</g>
<!-- 513cae1a_a79f_4f7d_bef0_b29db407b0ae&#45;&gt;c -->
<g id="edge13" class="edge">
<title>513cae1a_a79f_4f7d_bef0_b29db407b0ae&#45;&gt;c</title>
<path fill="none" stroke="black" d="M1045.47,-144.76C1017.21,-136.96 987.74,-129.04 960.03,-122 890.65,-104.36 871.56,-106.72 803.03,-86 782.32,-79.74 759.93,-71.55 740.71,-64.07"/>
<text text-anchor="middle" x="758.71" y="-67.07" font-family="Times,serif" font-size="10.00">currency</text>
</g>
<!-- 513cae1a_a79f_4f7d_bef0_b29db407b0ae&#45;&gt;bff3fd98_824e_4d28_a0dd_51f282ccd51a -->
<g id="edge14" class="edge">
<title>513cae1a_a79f_4f7d_bef0_b29db407b0ae&#45;&gt;bff3fd98_824e_4d28_a0dd_51f282ccd51a</title>
<path fill="none" stroke="black" d="M1186.56,-127.42C1185.97,-113.67 1185.37,-99.28 1184.82,-86.39"/>
<text text-anchor="middle" x="1171.82" y="-89.39" font-family="Times,serif" font-size="10.00">owner</text>
<text text-anchor="middle" x="1170.06" y="-119.42" font-family="Times,serif" font-size="10.00">account</text>
</g>
<!-- sendItToTheBank&#45;&gt;c -->
<g id="edge15" class="edge">
<title>sendItToTheBank&#45;&gt;c</title>
<path fill="none" stroke="black" d="M372.7,-135.1C388.67,-130.56 404.64,-126.13 420.03,-122 486.25,-104.26 504.21,-105.18 570.03,-86 592.29,-79.51 616.49,-71.41 637.43,-64.05"/>
<text text-anchor="middle" x="619.43" y="-67.05" font-family="Times,serif" font-size="10.00">currency</text>
</g>
<!-- 8a633aa5_907c_4e57_a313_22e0adb2672e&#45;&gt;c -->
<g id="edge16" class="edge">
<title>8a633aa5_907c_4e57_a313_22e0adb2672e&#45;&gt;c</title>
<path fill="none" stroke="black" d="M612.13,-127.42C633.64,-104.96 656.8,-80.79 672.61,-64.28"/>
<text text-anchor="middle" x="654.61" y="-67.28" font-family="Times,serif" font-size="10.00">currency</text>
</g>
<!-- 8a633aa5_907c_4e57_a313_22e0adb2672e&#45;&gt;1eaf6f4c_4f92_4e04_bd87_c82be03265de -->
<g id="edge17" class="edge">
<title>8a633aa5_907c_4e57_a313_22e0adb2672e&#45;&gt;1eaf6f4c_4f92_4e04_bd87_c82be03265de</title>
<path fill="none" stroke="black" d="M509.83,-127.42C498.98,-113.67 487.63,-99.28 477.47,-86.39"/>
<text text-anchor="middle" x="464.47" y="-89.39" font-family="Times,serif" font-size="10.00">owner</text>
<text text-anchor="middle" x="493.33" y="-119.42" font-family="Times,serif" font-size="10.00">account</text>
</g>
<!-- 7ec351d6_652f_4691_8e72_ea432d44a0c8&#45;&gt;c -->
<g id="edge18" class="edge">
<title>7ec351d6_652f_4691_8e72_ea432d44a0c8&#45;&gt;c</title>
<path fill="none" stroke="black" d="M770.75,-127.42C749.56,-104.96 726.75,-80.79 711.17,-64.28"/>
<text text-anchor="middle" x="693.17" y="-67.28" font-family="Times,serif" font-size="10.00">currency</text>
</g>
<!-- 7ec351d6_652f_4691_8e72_ea432d44a0c8&#45;&gt;e2f7bc4c_ef2a_466e_b8a5_d24f48b13afe -->
<g id="edge19" class="edge">
<title>7ec351d6_652f_4691_8e72_ea432d44a0c8&#45;&gt;e2f7bc4c_ef2a_466e_b8a5_d24f48b13afe</title>
<path fill="none" stroke="black" d="M867.69,-127.42C877.48,-113.67 887.71,-99.28 896.88,-86.39"/>
<text text-anchor="middle" x="883.88" y="-89.39" font-family="Times,serif" font-size="10.00">owner</text>
<text text-anchor="middle" x="851.19" y="-119.42" font-family="Times,serif" font-size="10.00">account</text>
</g>
<!-- 473e0f41_bc47_4af7_b806_8a78d89587c21 -->
<g id="node12" class="node">
<title>473e0f41_bc47_4af7_b806_8a78d89587c21</title>
<polygon fill="none" stroke="black" points="204.03,-442 204.03,-459 436.03,-459 436.03,-442 204.03,-442"/>
<text text-anchor="start" x="207.03" y="-449" font-family="Times,serif" text-decoration="underline" font-size="10.00">473e0f41&#45;bc47&#45;4af7&#45;b806&#45;8a78d89587c2 :Transaction</text>
<polygon fill="none" stroke="black" points="204.03,-381 204.03,-442 436.03,-442 436.03,-381 204.03,-381"/>
<text text-anchor="start" x="220.53" y="-431" font-family="Times,serif" font-size="10.00">amount = &#45;250.0</text>
<text text-anchor="start" x="220.53" y="-420" font-family="Times,serif" font-size="10.00">description = &quot;Salary&quot;</text>
<text text-anchor="start" x="220.53" y="-409" font-family="Times,serif" font-size="10.00">id = &quot;473e0f41&#45;bc47&#45;4af7&#45;b806&#45;8a78d89587c2&quot;</text>
<text text-anchor="start" x="220.53" y="-398" font-family="Times,serif" font-size="10.00">rejectionDescription = &quot;&quot;</text>
<text text-anchor="start" x="220.53" y="-387" font-family="Times,serif" font-size="10.00">timestamp = 2021&#45;12&#45;09T22:57:04.443925076</text>
</g>
<!-- 473e0f41_bc47_4af7_b806_8a78d89587c21&#45;&gt;b -->
<g id="edge20" class="edge">
<title>473e0f41_bc47_4af7_b806_8a78d89587c21&#45;&gt;b</title>
<path fill="none" stroke="black" d="M444.29,-393.48C522.12,-377.5 622.04,-356.98 699.85,-341"/>
<text text-anchor="middle" x="689.35" y="-344" font-family="Times,serif" font-size="10.00">bank</text>
</g>
<!-- 473e0f41_bc47_4af7_b806_8a78d89587c21&#45;&gt;c -->
<g id="edge21" class="edge">
<title>473e0f41_bc47_4af7_b806_8a78d89587c21&#45;&gt;c</title>
<path fill="none" stroke="black" d="M195.73,-381.92C133.05,-356.22 62.72,-315.04 26.03,-252 -3.03,-202.06 -13.45,-164.18 26.03,-122 67.43,-77.77 510.65,-97.96 570.03,-86 594.74,-81.02 621.29,-72.31 643.29,-64.1"/>
<text text-anchor="middle" x="661.29" y="-67.1" font-family="Times,serif" font-size="10.00">currency</text>
</g>
<!-- 473e0f41_bc47_4af7_b806_8a78d89587c21&#45;&gt;513cae1a_a79f_4f7d_bef0_b29db407b0ae -->
<g id="edge22" class="edge">
<title>473e0f41_bc47_4af7_b806_8a78d89587c21&#45;&gt;513cae1a_a79f_4f7d_bef0_b29db407b0ae</title>
<path fill="none" stroke="black" d="M444.42,-403.73C516.4,-395.2 608.75,-384.75 691.03,-377 744.17,-372 1131.39,-377.81 1170.03,-341 1194.84,-317.37 1199.59,-279.12 1198.14,-246.78"/>
<text text-anchor="middle" x="1175.14" y="-249.78" font-family="Times,serif" font-size="10.00">destination</text>
</g>
<!-- 473e0f41_bc47_4af7_b806_8a78d89587c21&#45;&gt;sendItToTheBank -->
<g id="edge23" class="edge">
<title>473e0f41_bc47_4af7_b806_8a78d89587c21&#45;&gt;sendItToTheBank</title>
<path fill="none" stroke="black" d="M231.58,-376.77C218.91,-366.84 207.62,-354.98 200.03,-341 185.52,-314.26 184.79,-280.83 188.42,-252.05"/>
<text text-anchor="middle" x="174.92" y="-255.05" font-family="Times,serif" font-size="10.00">source</text>
</g>
<!-- 473e0f41_bc47_4af7_b806_8a78d89587c21&#45;&gt;s -->
<g id="edge24" class="edge">
<title>473e0f41_bc47_4af7_b806_8a78d89587c21&#45;&gt;s</title>
<path fill="none" stroke="black" d="M320.03,-376.9C320.03,-362.69 320.03,-347.46 320.03,-335.73"/>
<text text-anchor="middle" x="308.03" y="-338.73" font-family="Times,serif" font-size="10.00">status</text>
</g>
</g>
</svg>
