<?xml version="1.0" encoding="UTF-8" standalone="no"?>
<!DOCTYPE svg PUBLIC "-//W3C//DTD SVG 1.1//EN"
 "http://www.w3.org/Graphics/SVG/1.1/DTD/svg11.dtd">
<!-- Generated by graphviz version 2.44.0 (20200408.0750)
 -->
<!-- Pages: 1 -->
<svg width="504px" height="252px"
 viewBox="0.00 0.00 504.00 252.00" xmlns="http://www.w3.org/2000/svg" xmlns:xlink="http://www.w3.org/1999/xlink">
<g id="graph0" class="graph" transform="scale(1.0 1.0) rotate(0) translate(4 248)">
<polygon fill="white" stroke="transparent" points="-4,4 -4,-248 500,-248 500,4 -4,4"/>
<!-- b -->
<g id="node1" class="node">
<title>b</title>
<polygon fill="none" stroke="black" points="224,-220 224,-238 261,-238 261,-220 224,-220"/>
<text text-anchor="start" x="226.81" y="-227" font-family="Times,serif" text-decoration="underline" font-size="10.00">b :Bank</text>
<polygon fill="none" stroke="black" points="224,-214 224,-220 261,-220 261,-214 224,-214"/>
</g>
<!-- 275a7a4f_9ba9_4894_8798_a6e636b2f605 -->
<g id="node2" class="node">
<title>275a7a4f_9ba9_4894_8798_a6e636b2f605</title>
<polygon fill="none" stroke="black" points="8,-132 8,-150 220,-150 220,-132 8,-132"/>
<text text-anchor="start" x="10.84" y="-139" font-family="Times,serif" text-decoration="underline" font-size="10.00">275a7a4f&#45;9ba9&#45;4894&#45;8798&#45;a6e636b2f605 :Account</text>
<polygon fill="none" stroke="black" points="8,-102 8,-132 220,-132 220,-102 8,-102"/>
<text text-anchor="start" x="17.13" y="-120" font-family="Times,serif" font-size="10.00">balance = 69420.0</text>
<text text-anchor="start" x="17.13" y="-108" font-family="Times,serif" font-size="10.00">id = &quot;275a7a4f&#45;9ba9&#45;4894&#45;8798&#45;a6e636b2f605&quot;</text>
</g>
<!-- b&#45;&gt;275a7a4f_9ba9_4894_8798_a6e636b2f605 -->
<g id="edge1" class="edge">
<title>b&#45;&gt;275a7a4f_9ba9_4894_8798_a6e636b2f605</title>
<path fill="none" stroke="black" d="M219.7,-207.93C200.29,-193.07 171.82,-171.27 149.31,-154.03"/>
<text text-anchor="middle" x="122.65" y="-157.03" font-family="Times,serif" font-size="10.00">bankAccount</text>
<text text-anchor="middle" x="209.98" y="-198.93" font-family="Times,serif" font-size="10.00">bank</text>
</g>
<!-- 01df64a4_ad00_41cd_9a61_670ad58ac1a6 -->
<g id="node3" class="node">
<title>01df64a4_ad00_41cd_9a61_670ad58ac1a6</title>
<polygon fill="none" stroke="black" points="254,-150 254,-168 488,-168 488,-150 254,-150"/>
<text text-anchor="start" x="256.73" y="-157" font-family="Times,serif" text-decoration="underline" font-size="10.00">01df64a4&#45;ad00&#45;41cd&#45;9a61&#45;670ad58ac1a6 :Administrator</text>
<polygon fill="none" stroke="black" points="254,-84 254,-150 488,-150 488,-84 254,-84"/>
<text text-anchor="start" x="274.13" y="-138" font-family="Times,serif" font-size="10.00">email = &quot;admin@bank.ee&quot;</text>
<text text-anchor="start" x="274.13" y="-126" font-family="Times,serif" font-size="10.00">firstName = &quot;Admin&quot;</text>
<text text-anchor="start" x="274.13" y="-114" font-family="Times,serif" font-size="10.00">id = &quot;01df64a4&#45;ad00&#45;41cd&#45;9a61&#45;670ad58ac1a6&quot;</text>
<text text-anchor="start" x="274.13" y="-102" font-family="Times,serif" font-size="10.00">lastName = &quot;Alice&quot;</text>
<text text-anchor="start" x="274.13" y="-90" font-family="Times,serif" font-size="10.00">password = &quot;secure_p@ssw0|2d&quot;</text>
</g>
<!-- b&#45;&gt;01df64a4_ad00_41cd_9a61_670ad58ac1a6 -->
<g id="edge2" class="edge">
<title>b&#45;&gt;01df64a4_ad00_41cd_9a61_670ad58ac1a6</title>
<path fill="none" stroke="black" d="M264.47,-207.93C277.61,-197.95 294.87,-184.84 311.66,-172.08"/>
<text text-anchor="middle" x="283.05" y="-175.08" font-family="Times,serif" font-size="10.00">administrators</text>
<text text-anchor="middle" x="254.75" y="-198.93" font-family="Times,serif" font-size="10.00">bank</text>
</g>
<!-- c -->
<g id="node4" class="node">
<title>c</title>
<polygon fill="none" stroke="black" points="47,-22 47,-40 181,-40 181,-22 47,-22"/>
<text text-anchor="start" x="90.54" y="-29" font-family="Times,serif" text-decoration="underline" font-size="10.00">c :Currency</text>
<polygon fill="none" stroke="black" points="47,-4 47,-22 181,-22 181,-4 47,-4"/>
<text text-anchor="start" x="50" y="-10" font-family="Times,serif" font-size="10.00">declaringClass = class Currency</text>
</g>
<!-- 275a7a4f_9ba9_4894_8798_a6e636b2f605&#45;&gt;c -->
<g id="edge3" class="edge">
<title>275a7a4f_9ba9_4894_8798_a6e636b2f605&#45;&gt;c</title>
<path fill="none" stroke="black" d="M114,-97.93C114,-81.05 114,-59.65 114,-44.04"/>
<text text-anchor="middle" x="96.51" y="-47.04" font-family="Times,serif" font-size="10.00">currency</text>
</g>
</g>
</svg>
