<?xml version="1.0" encoding="UTF-8" standalone="no"?>
<!DOCTYPE svg PUBLIC "-//W3C//DTD SVG 1.1//EN"
 "http://www.w3.org/Graphics/SVG/1.1/DTD/svg11.dtd">
<!-- Generated by graphviz version 2.43.0 (0)
 -->
<!-- Title: model Pages: 1 -->
<svg width="1530px" height="449px"
 viewBox="0.00 0.00 1530.00 449.00" xmlns="http://www.w3.org/2000/svg" xmlns:xlink="http://www.w3.org/1999/xlink">
<g id="graph0" class="graph" transform="scale(1.0 1.0) rotate(0) translate(4 445)">
<title>model</title>
<polygon fill="white" stroke="transparent" points="-4,4 -4,-445 1526,-445 1526,4 -4,4"/>
<!-- 065f94e1_b99e_47ff_b7b1_f68e19270487 -->
<g id="node1" class="node">
<title>065f94e1_b99e_47ff_b7b1_f68e19270487</title>
<polygon fill="none" stroke="black" points="378.5,-420 378.5,-437 607.5,-437 607.5,-420 378.5,-420"/>
<text text-anchor="start" x="381.5" y="-427" font-family="Times,serif" text-decoration="underline" font-size="10.00">065f94e1&#45;b99e&#45;47ff&#45;b7b1&#45;f68e19270487 :Transaction</text>
<polygon fill="none" stroke="black" points="378.5,-359 378.5,-420 607.5,-420 607.5,-359 378.5,-359"/>
<text text-anchor="start" x="395" y="-409" font-family="Times,serif" font-size="10.00">amount = 30.0</text>
<text text-anchor="start" x="395" y="-398" font-family="Times,serif" font-size="10.00">description = &quot;Seed transaction&quot;</text>
<text text-anchor="start" x="395" y="-387" font-family="Times,serif" font-size="10.00">id = &quot;065f94e1&#45;b99e&#45;47ff&#45;b7b1&#45;f68e19270487&quot;</text>
<text text-anchor="start" x="395" y="-376" font-family="Times,serif" font-size="10.00">rejectionDescription = &quot;&quot;</text>
<text text-anchor="start" x="395" y="-365" font-family="Times,serif" font-size="10.00">timestamp = 2021&#45;12&#45;04T18:19:59.539927435</text>
</g>
<!-- b -->
<g id="node2" class="node">
<title>b</title>
<polygon fill="none" stroke="black" points="344.5,-297.5 344.5,-314.5 1009.5,-314.5 1009.5,-297.5 344.5,-297.5"/>
<text text-anchor="start" x="660.5" y="-304.5" font-family="Times,serif" text-decoration="underline" font-size="10.00">b :Bank</text>
<polygon fill="none" stroke="black" points="344.5,-269.5 344.5,-297.5 1009.5,-297.5 1009.5,-269.5 344.5,-269.5"/>
<text text-anchor="start" x="347.5" y="-286.5" font-family="Times,serif" font-size="10.00">accountsMap = 60871746&#45;e535&#45;4535&#45;b604&#45;d2f64f81248bsendItToTheBank8a633aa5&#45;907c&#45;4e57&#45;a313&#45;22e0adb2672e7ec351d6&#45;652f&#45;4691&#45;8e72&#45;ea432d44a0c8</text>
<text text-anchor="start" x="347.5" y="-275.5" font-family="Times,serif" font-size="10.00">customerMap = e2f7bc4c&#45;ef2a&#45;466e&#45;b8a5&#45;d24f48b13afe1eaf6f4c&#45;4f92&#45;4e04&#45;bd87&#45;c82be03265de1b13f72d&#45;8d98&#45;4b68&#45;a997&#45;2470ccefbd97</text>
</g>
<!-- 065f94e1_b99e_47ff_b7b1_f68e19270487&#45;&gt;b -->
<g id="edge1" class="edge">
<title>065f94e1_b99e_47ff_b7b1_f68e19270487&#45;&gt;b</title>
<path fill="none" stroke="black" d="M567.34,-354.9C588.93,-342.76 611.83,-329.88 631.05,-319.07"/>
<text text-anchor="middle" x="620.55" y="-322.07" font-family="Times,serif" font-size="10.00">bank</text>
<text text-anchor="middle" x="542.84" y="-346.9" font-family="Times,serif" font-size="10.00">transactions</text>
</g>
<!-- c -->
<g id="node3" class="node">
<title>c</title>
<polygon fill="none" stroke="black" points="365.5,-43 365.5,-60 529.5,-60 529.5,-43 365.5,-43"/>
<text text-anchor="start" x="423.5" y="-50" font-family="Times,serif" text-decoration="underline" font-size="10.00">c :Currency</text>
<polygon fill="none" stroke="black" points="365.5,-26 365.5,-43 529.5,-43 529.5,-26 365.5,-26"/>
<text text-anchor="start" x="368.5" y="-32" font-family="Times,serif" font-size="10.00">declaringClass = class model.Currency</text>
</g>
<!-- 065f94e1_b99e_47ff_b7b1_f68e19270487&#45;&gt;c -->
<g id="edge2" class="edge">
<title>065f94e1_b99e_47ff_b7b1_f68e19270487&#45;&gt;c</title>
<path fill="none" stroke="black" d="M369.86,-388.02C265.79,-373.1 122.68,-333.7 53.5,-230 26.86,-190.07 22.81,-158.91 53.5,-122 81.53,-88.29 204.49,-94.51 247.5,-86 283.52,-78.88 323.11,-70.65 357.49,-63.37"/>
<text text-anchor="middle" x="339.49" y="-66.37" font-family="Times,serif" font-size="10.00">currency</text>
</g>
<!-- 60871746_e535_4535_b604_d2f64f81248b -->
<g id="node4" class="node">
<title>60871746_e535_4535_b604_d2f64f81248b</title>
<polygon fill="none" stroke="black" points="70.5,-209 70.5,-226 338.5,-226 338.5,-209 70.5,-209"/>
<text text-anchor="start" x="96.5" y="-216" font-family="Times,serif" text-decoration="underline" font-size="10.00">60871746&#45;e535&#45;4535&#45;b604&#45;d2f64f81248b :Account</text>
<polygon fill="none" stroke="black" points="70.5,-126 70.5,-209 338.5,-209 338.5,-126 70.5,-126"/>
<text text-anchor="start" x="73.5" y="-198" font-family="Times,serif" font-size="10.00">balance = 30.0</text>
<text text-anchor="start" x="73.5" y="-187" font-family="Times,serif" font-size="10.00">customerId = null</text>
<text text-anchor="start" x="73.5" y="-176" font-family="Times,serif" font-size="10.00">iban = &quot;EE181910277895251804&quot;</text>
<text text-anchor="start" x="73.5" y="-165" font-family="Times,serif" font-size="10.00">id = &quot;60871746&#45;e535&#45;4535&#45;b604&#45;d2f64f81248b&quot;</text>
<text text-anchor="start" x="73.5" y="-154" font-family="Times,serif" font-size="10.00">receivedTransaction = 065f94e1&#45;b99e&#45;47ff&#45;b7b1&#45;f68e19270487</text>
<text text-anchor="start" x="73.5" y="-143" font-family="Times,serif" font-size="10.00">sentTransaction = </text>
<text text-anchor="start" x="73.5" y="-132" font-family="Times,serif" font-size="10.00">status = &quot;ACTIVE&quot;</text>
</g>
<!-- 065f94e1_b99e_47ff_b7b1_f68e19270487&#45;&gt;60871746_e535_4535_b604_d2f64f81248b -->
<g id="edge3" class="edge">
<title>065f94e1_b99e_47ff_b7b1_f68e19270487&#45;&gt;60871746_e535_4535_b604_d2f64f81248b</title>
<path fill="none" stroke="black" d="M386.61,-354.98C366.09,-344.66 345.42,-332.6 327.5,-319 294.64,-294.05 264.22,-259.09 241.85,-230.1"/>
<text text-anchor="middle" x="218.85" y="-233.1" font-family="Times,serif" font-size="10.00">destination</text>
<text text-anchor="middle" x="328.61" y="-346.98" font-family="Times,serif" font-size="10.00">allTransactionsOrderedDesc</text>
</g>
<!-- s -->
<g id="node5" class="node">
<title>s</title>
<polygon fill="none" stroke="black" points="1043.5,-292.5 1043.5,-309.5 1248.5,-309.5 1248.5,-292.5 1043.5,-292.5"/>
<text text-anchor="start" x="1129" y="-299.5" font-family="Times,serif" text-decoration="underline" font-size="10.00">s :Status</text>
<polygon fill="none" stroke="black" points="1043.5,-275.5 1043.5,-292.5 1248.5,-292.5 1248.5,-275.5 1043.5,-275.5"/>
<text text-anchor="start" x="1046.5" y="-281.5" font-family="Times,serif" font-size="10.00">declaringClass = class model.Transaction$Status</text>
</g>
<!-- 065f94e1_b99e_47ff_b7b1_f68e19270487&#45;&gt;s -->
<g id="edge4" class="edge">
<title>065f94e1_b99e_47ff_b7b1_f68e19270487&#45;&gt;s</title>
<path fill="none" stroke="black" d="M615.09,-381.44C723.56,-367.11 885.99,-344.29 1026.5,-319 1035.75,-317.33 1045.39,-315.48 1054.99,-313.55"/>
<text text-anchor="middle" x="1042.99" y="-316.55" font-family="Times,serif" font-size="10.00">status</text>
</g>
<!-- b&#45;&gt;60871746_e535_4535_b604_d2f64f81248b -->
<g id="edge8" class="edge">
<title>b&#45;&gt;60871746_e535_4535_b604_d2f64f81248b</title>
<path fill="none" stroke="black" d="M519.21,-265.99C467.06,-256.28 408.95,-244.1 356.5,-230 353.26,-229.13 349.99,-228.22 346.7,-227.29"/>
<text text-anchor="middle" x="365.2" y="-230.29" font-family="Times,serif" font-size="10.00">accounts</text>
<text text-anchor="middle" x="508.71" y="-257.99" font-family="Times,serif" font-size="10.00">bank</text>
</g>
<!-- sendItToTheBank -->
<g id="node6" class="node">
<title>sendItToTheBank</title>
<polygon fill="none" stroke="black" points="373.5,-209 373.5,-226 522.5,-226 522.5,-209 373.5,-209"/>
<text text-anchor="start" x="391" y="-216" font-family="Times,serif" text-decoration="underline" font-size="10.00">sendItToTheBank :Account</text>
<polygon fill="none" stroke="black" points="373.5,-126 373.5,-209 522.5,-209 522.5,-126 373.5,-126"/>
<text text-anchor="start" x="376.5" y="-198" font-family="Times,serif" font-size="10.00">balance = 69420.0</text>
<text text-anchor="start" x="376.5" y="-187" font-family="Times,serif" font-size="10.00">customerId = null</text>
<text text-anchor="start" x="376.5" y="-176" font-family="Times,serif" font-size="10.00">iban = &quot;EE087724650363298101&quot;</text>
<text text-anchor="start" x="376.5" y="-165" font-family="Times,serif" font-size="10.00">id = &quot;sendItToTheBank&quot;</text>
<text text-anchor="start" x="376.5" y="-154" font-family="Times,serif" font-size="10.00">receivedTransaction = </text>
<text text-anchor="start" x="376.5" y="-143" font-family="Times,serif" font-size="10.00">sentTransaction = </text>
<text text-anchor="start" x="376.5" y="-132" font-family="Times,serif" font-size="10.00">status = &quot;ACTIVE&quot;</text>
</g>
<!-- b&#45;&gt;sendItToTheBank -->
<g id="edge5" class="edge">
<title>b&#45;&gt;sendItToTheBank</title>
<path fill="none" stroke="black" d="M616.2,-266C592.09,-255.4 564.23,-242.63 539.5,-230 536.38,-228.41 533.22,-226.76 530.04,-225.07"/>
<text text-anchor="middle" x="558.04" y="-228.07" font-family="Times,serif" font-size="10.00">bankAccount</text>
<text text-anchor="middle" x="605.7" y="-258" font-family="Times,serif" font-size="10.00">bank</text>
</g>
<!-- 8a633aa5_907c_4e57_a313_22e0adb2672e -->
<g id="node7" class="node">
<title>8a633aa5_907c_4e57_a313_22e0adb2672e</title>
<polygon fill="none" stroke="black" points="1208.5,-209 1208.5,-226 1446.5,-226 1446.5,-209 1208.5,-209"/>
<text text-anchor="start" x="1220.5" y="-216" font-family="Times,serif" text-decoration="underline" font-size="10.00">8a633aa5&#45;907c&#45;4e57&#45;a313&#45;22e0adb2672e :Account</text>
<polygon fill="none" stroke="black" points="1208.5,-126 1208.5,-209 1446.5,-209 1446.5,-126 1208.5,-126"/>
<text text-anchor="start" x="1211.5" y="-198" font-family="Times,serif" font-size="10.00">balance = 0.0</text>
<text text-anchor="start" x="1211.5" y="-187" font-family="Times,serif" font-size="10.00">customerId = &quot;1eaf6f4c&#45;4f92&#45;4e04&#45;bd87&#45;c82be03265de&quot;</text>
<text text-anchor="start" x="1211.5" y="-176" font-family="Times,serif" font-size="10.00">iban = null</text>
<text text-anchor="start" x="1211.5" y="-165" font-family="Times,serif" font-size="10.00">id = &quot;8a633aa5&#45;907c&#45;4e57&#45;a313&#45;22e0adb2672e&quot;</text>
<text text-anchor="start" x="1211.5" y="-154" font-family="Times,serif" font-size="10.00">receivedTransaction = </text>
<text text-anchor="start" x="1211.5" y="-143" font-family="Times,serif" font-size="10.00">sentTransaction = </text>
<text text-anchor="start" x="1211.5" y="-132" font-family="Times,serif" font-size="10.00">status = &quot;ACTIVE&quot;</text>
</g>
<!-- b&#45;&gt;8a633aa5_907c_4e57_a313_22e0adb2672e -->
<g id="edge6" class="edge">
<title>b&#45;&gt;8a633aa5_907c_4e57_a313_22e0adb2672e</title>
<path fill="none" stroke="black" d="M987.78,-265.99C1053.91,-257.23 1122.93,-245.54 1186.5,-230 1191.07,-228.88 1195.7,-227.66 1200.35,-226.35"/>
<text text-anchor="middle" x="1181.85" y="-229.35" font-family="Times,serif" font-size="10.00">accounts</text>
<text text-anchor="middle" x="977.28" y="-257.99" font-family="Times,serif" font-size="10.00">bank</text>
</g>
<!-- 7ec351d6_652f_4691_8e72_ea432d44a0c8 -->
<g id="node8" class="node">
<title>7ec351d6_652f_4691_8e72_ea432d44a0c8</title>
<polygon fill="none" stroke="black" points="902.5,-209 902.5,-226 1136.5,-226 1136.5,-209 902.5,-209"/>
<text text-anchor="start" x="912.5" y="-216" font-family="Times,serif" text-decoration="underline" font-size="10.00">7ec351d6&#45;652f&#45;4691&#45;8e72&#45;ea432d44a0c8 :Account</text>
<polygon fill="none" stroke="black" points="902.5,-126 902.5,-209 1136.5,-209 1136.5,-126 902.5,-126"/>
<text text-anchor="start" x="905.5" y="-198" font-family="Times,serif" font-size="10.00">balance = 100.0</text>
<text text-anchor="start" x="905.5" y="-187" font-family="Times,serif" font-size="10.00">customerId = &quot;e2f7bc4c&#45;ef2a&#45;466e&#45;b8a5&#45;d24f48b13afe&quot;</text>
<text text-anchor="start" x="905.5" y="-176" font-family="Times,serif" font-size="10.00">iban = null</text>
<text text-anchor="start" x="905.5" y="-165" font-family="Times,serif" font-size="10.00">id = &quot;7ec351d6&#45;652f&#45;4691&#45;8e72&#45;ea432d44a0c8&quot;</text>
<text text-anchor="start" x="905.5" y="-154" font-family="Times,serif" font-size="10.00">receivedTransaction = </text>
<text text-anchor="start" x="905.5" y="-143" font-family="Times,serif" font-size="10.00">sentTransaction = </text>
<text text-anchor="start" x="905.5" y="-132" font-family="Times,serif" font-size="10.00">status = &quot;ACTIVE&quot;</text>
</g>
<!-- b&#45;&gt;7ec351d6_652f_4691_8e72_ea432d44a0c8 -->
<g id="edge7" class="edge">
<title>b&#45;&gt;7ec351d6_652f_4691_8e72_ea432d44a0c8</title>
<path fill="none" stroke="black" d="M769.93,-265.96C806.24,-255.53 848.04,-242.89 885.5,-230 888.46,-228.98 891.44,-227.94 894.45,-226.87"/>
<text text-anchor="middle" x="875.95" y="-229.87" font-family="Times,serif" font-size="10.00">accounts</text>
<text text-anchor="middle" x="759.43" y="-257.96" font-family="Times,serif" font-size="10.00">bank</text>
</g>
<!-- abcd948d_c230_46f1_982f_f75b5b96d2d7 -->
<g id="node9" class="node">
<title>abcd948d_c230_46f1_982f_f75b5b96d2d7</title>
<polygon fill="none" stroke="black" points="556.5,-198 556.5,-215 796.5,-215 796.5,-198 556.5,-198"/>
<text text-anchor="start" x="559.5" y="-205" font-family="Times,serif" text-decoration="underline" font-size="10.00">abcd948d&#45;c230&#45;46f1&#45;982f&#45;f75b5b96d2d7 :Administrator</text>
<polygon fill="none" stroke="black" points="556.5,-137 556.5,-198 796.5,-198 796.5,-137 556.5,-137"/>
<text text-anchor="start" x="577.5" y="-187" font-family="Times,serif" font-size="10.00">email = &quot;admin@bank.ee&quot;</text>
<text text-anchor="start" x="577.5" y="-176" font-family="Times,serif" font-size="10.00">firstName = &quot;Admin&quot;</text>
<text text-anchor="start" x="577.5" y="-165" font-family="Times,serif" font-size="10.00">id = &quot;abcd948d&#45;c230&#45;46f1&#45;982f&#45;f75b5b96d2d7&quot;</text>
<text text-anchor="start" x="577.5" y="-154" font-family="Times,serif" font-size="10.00">lastName = &quot;ALice&quot;</text>
<text text-anchor="start" x="577.5" y="-143" font-family="Times,serif" font-size="10.00">password = &quot;secure_p@ssw0|2d&quot;</text>
</g>
<!-- b&#45;&gt;abcd948d_c230_46f1_982f_f75b5b96d2d7 -->
<g id="edge9" class="edge">
<title>b&#45;&gt;abcd948d_c230_46f1_982f_f75b5b96d2d7</title>
<path fill="none" stroke="black" d="M676.5,-265.8C676.5,-252.09 676.5,-234.86 676.5,-219.24"/>
<text text-anchor="middle" x="647.5" y="-222.24" font-family="Times,serif" font-size="10.00">administrators</text>
<text text-anchor="middle" x="666" y="-257.8" font-family="Times,serif" font-size="10.00">bank</text>
</g>
<!-- e2f7bc4c_ef2a_466e_b8a5_d24f48b13afe -->
<g id="node10" class="node">
<title>e2f7bc4c_ef2a_466e_b8a5_d24f48b13afe</title>
<polygon fill="none" stroke="black" points="979.5,-65 979.5,-82 1194.5,-82 1194.5,-65 979.5,-65"/>
<text text-anchor="start" x="982.5" y="-72" font-family="Times,serif" text-decoration="underline" font-size="10.00">e2f7bc4c&#45;ef2a&#45;466e&#45;b8a5&#45;d24f48b13afe :Customer</text>
<polygon fill="none" stroke="black" points="979.5,-4 979.5,-65 1194.5,-65 1194.5,-4 979.5,-4"/>
<text text-anchor="start" x="991.5" y="-54" font-family="Times,serif" font-size="10.00">email = &quot;john@doe.ee&quot;</text>
<text text-anchor="start" x="991.5" y="-43" font-family="Times,serif" font-size="10.00">firstName = &quot;John&quot;</text>
<text text-anchor="start" x="991.5" y="-32" font-family="Times,serif" font-size="10.00">id = &quot;e2f7bc4c&#45;ef2a&#45;466e&#45;b8a5&#45;d24f48b13afe&quot;</text>
<text text-anchor="start" x="991.5" y="-21" font-family="Times,serif" font-size="10.00">lastName = &quot;Doe&quot;</text>
<text text-anchor="start" x="991.5" y="-10" font-family="Times,serif" font-size="10.00">password = &quot;pass1234&quot;</text>
</g>
<!-- b&#45;&gt;e2f7bc4c_ef2a_466e_b8a5_d24f48b13afe -->
<g id="edge10" class="edge">
<title>b&#45;&gt;e2f7bc4c_ef2a_466e_b8a5_d24f48b13afe</title>
<path fill="none" stroke="black" d="M996.39,-265.99C1075.11,-256.52 1140.77,-244.48 1153.5,-230 1185.2,-193.95 1170.18,-167.01 1153.5,-122 1148.72,-109.11 1140.76,-96.92 1131.96,-86.17"/>
<text text-anchor="middle" x="1111.46" y="-89.17" font-family="Times,serif" font-size="10.00">customers</text>
<text text-anchor="middle" x="1006.89" y="-257.99" font-family="Times,serif" font-size="10.00">bank</text>
</g>
<!-- 1eaf6f4c_4f92_4e04_bd87_c82be03265de -->
<g id="node11" class="node">
<title>1eaf6f4c_4f92_4e04_bd87_c82be03265de</title>
<polygon fill="none" stroke="black" points="1295.5,-65 1295.5,-82 1514.5,-82 1514.5,-65 1295.5,-65"/>
<text text-anchor="start" x="1298.5" y="-72" font-family="Times,serif" text-decoration="underline" font-size="10.00">1eaf6f4c&#45;4f92&#45;4e04&#45;bd87&#45;c82be03265de :Customer</text>
<polygon fill="none" stroke="black" points="1295.5,-4 1295.5,-65 1514.5,-65 1514.5,-4 1295.5,-4"/>
<text text-anchor="start" x="1307.5" y="-54" font-family="Times,serif" font-size="10.00">email = &quot;bobby@tt.ee&quot;</text>
<text text-anchor="start" x="1307.5" y="-43" font-family="Times,serif" font-size="10.00">firstName = &quot;Bob&quot;</text>
<text text-anchor="start" x="1307.5" y="-32" font-family="Times,serif" font-size="10.00">id = &quot;1eaf6f4c&#45;4f92&#45;4e04&#45;bd87&#45;c82be03265de&quot;</text>
<text text-anchor="start" x="1307.5" y="-21" font-family="Times,serif" font-size="10.00">lastName = &quot;Jackson&quot;</text>
<text text-anchor="start" x="1307.5" y="-10" font-family="Times,serif" font-size="10.00">password = &quot;secret&quot;</text>
</g>
<!-- b&#45;&gt;1eaf6f4c_4f92_4e04_bd87_c82be03265de -->
<g id="edge11" class="edge">
<title>b&#45;&gt;1eaf6f4c_4f92_4e04_bd87_c82be03265de</title>
<path fill="none" stroke="black" d="M1017.28,-266.14C1229.01,-250.18 1461.48,-232.19 1463.5,-230 1496.09,-194.76 1478.77,-167.51 1463.5,-122 1459.23,-109.28 1451.98,-96.99 1443.99,-86.06"/>
<text text-anchor="middle" x="1423.49" y="-89.06" font-family="Times,serif" font-size="10.00">customers</text>
<text text-anchor="middle" x="1027.78" y="-258.14" font-family="Times,serif" font-size="10.00">bank</text>
</g>
<!-- 1b13f72d_8d98_4b68_a997_2470ccefbd97 -->
<g id="node12" class="node">
<title>1b13f72d_8d98_4b68_a997_2470ccefbd97</title>
<polygon fill="none" stroke="black" points="8.5,-65 8.5,-82 231.5,-82 231.5,-65 8.5,-65"/>
<text text-anchor="start" x="11.5" y="-72" font-family="Times,serif" text-decoration="underline" font-size="10.00">1b13f72d&#45;8d98&#45;4b68&#45;a997&#45;2470ccefbd97 :Customer</text>
<polygon fill="none" stroke="black" points="8.5,-4 8.5,-65 231.5,-65 231.5,-4 8.5,-4"/>
<text text-anchor="start" x="20.5" y="-54" font-family="Times,serif" font-size="10.00">email = &quot;bobbytest@tt.ee&quot;</text>
<text text-anchor="start" x="20.5" y="-43" font-family="Times,serif" font-size="10.00">firstName = &quot;Bob&quot;</text>
<text text-anchor="start" x="20.5" y="-32" font-family="Times,serif" font-size="10.00">id = &quot;1b13f72d&#45;8d98&#45;4b68&#45;a997&#45;2470ccefbd97&quot;</text>
<text text-anchor="start" x="20.5" y="-21" font-family="Times,serif" font-size="10.00">lastName = &quot;Jackson&quot;</text>
<text text-anchor="start" x="20.5" y="-10" font-family="Times,serif" font-size="10.00">password = &quot;secret&quot;</text>
</g>
<!-- b&#45;&gt;1b13f72d_8d98_4b68_a997_2470ccefbd97 -->
<g id="edge12" class="edge">
<title>b&#45;&gt;1b13f72d_8d98_4b68_a997_2470ccefbd97</title>
<path fill="none" stroke="black" d="M335.93,-277.09C201.78,-267.85 74.44,-253.1 53.5,-230 21.27,-194.43 36.99,-167.07 53.5,-122 58.2,-109.17 66.04,-97.01 74.71,-86.26"/>
<text text-anchor="middle" x="54.21" y="-89.26" font-family="Times,serif" font-size="10.00">customers</text>
<text text-anchor="middle" x="325.43" y="-280.09" font-family="Times,serif" font-size="10.00">bank</text>
</g>
<!-- t -->
<g id="node13" class="node">
<title>t</title>
<polygon fill="none" stroke="black" points="831.5,-170 831.5,-187 868.5,-187 868.5,-170 831.5,-170"/>
<text text-anchor="start" x="834.5" y="-177" font-family="Times,serif" text-decoration="underline" font-size="10.00">t :Trace</text>
<polygon fill="none" stroke="black" points="831.5,-164 831.5,-170 868.5,-170 868.5,-164 831.5,-164"/>
</g>
<!-- b&#45;&gt;t -->
<g id="edge13" class="edge">
<title>b&#45;&gt;t</title>
<path fill="none" stroke="black" d="M753.36,-265.86C774.24,-256.62 795.92,-244.75 813.5,-230 825.26,-220.13 834.8,-205.5 841.1,-194.11"/>
<text text-anchor="middle" x="829.1" y="-197.11" font-family="Times,serif" font-size="10.00">traces</text>
</g>
<!-- 60871746_e535_4535_b604_d2f64f81248b&#45;&gt;c -->
<g id="edge14" class="edge">
<title>60871746_e535_4535_b604_d2f64f81248b&#45;&gt;c</title>
<path fill="none" stroke="black" d="M302.99,-121.91C340.74,-101.55 381.58,-79.54 410.18,-64.12"/>
<text text-anchor="middle" x="392.18" y="-67.12" font-family="Times,serif" font-size="10.00">currency</text>
</g>
<!-- 60871746_e535_4535_b604_d2f64f81248b&#45;&gt;1b13f72d_8d98_4b68_a997_2470ccefbd97 -->
<g id="edge15" class="edge">
<title>60871746_e535_4535_b604_d2f64f81248b&#45;&gt;1b13f72d_8d98_4b68_a997_2470ccefbd97</title>
<path fill="none" stroke="black" d="M169.93,-121.72C162.3,-109.96 154.31,-97.66 147.01,-86.4"/>
<text text-anchor="middle" x="134.01" y="-89.4" font-family="Times,serif" font-size="10.00">owner</text>
<text text-anchor="middle" x="153.43" y="-113.72" font-family="Times,serif" font-size="10.00">account</text>
</g>
<!-- sendItToTheBank&#45;&gt;c -->
<g id="edge16" class="edge">
<title>sendItToTheBank&#45;&gt;c</title>
<path fill="none" stroke="black" d="M447.5,-121.72C447.5,-101.46 447.5,-79.58 447.5,-64.22"/>
<text text-anchor="middle" x="429.5" y="-67.22" font-family="Times,serif" font-size="10.00">currency</text>
</g>
<!-- 8a633aa5_907c_4e57_a313_22e0adb2672e&#45;&gt;c -->
<g id="edge17" class="edge">
<title>8a633aa5_907c_4e57_a313_22e0adb2672e&#45;&gt;c</title>
<path fill="none" stroke="black" d="M1200.39,-133.33C1184.71,-129.06 1168.81,-125.15 1153.5,-122 935.03,-77.06 672.84,-56.69 537.77,-48.6"/>
<text text-anchor="middle" x="555.77" y="-51.6" font-family="Times,serif" font-size="10.00">currency</text>
</g>
<!-- 8a633aa5_907c_4e57_a313_22e0adb2672e&#45;&gt;1eaf6f4c_4f92_4e04_bd87_c82be03265de -->
<g id="edge18" class="edge">
<title>8a633aa5_907c_4e57_a313_22e0adb2672e&#45;&gt;1eaf6f4c_4f92_4e04_bd87_c82be03265de</title>
<path fill="none" stroke="black" d="M1358.82,-121.72C1365.73,-109.96 1372.96,-97.66 1379.58,-86.4"/>
<text text-anchor="middle" x="1366.58" y="-89.4" font-family="Times,serif" font-size="10.00">owner</text>
<text text-anchor="middle" x="1342.32" y="-113.72" font-family="Times,serif" font-size="10.00">account</text>
</g>
<!-- 7ec351d6_652f_4691_8e72_ea432d44a0c8&#45;&gt;c -->
<g id="edge19" class="edge">
<title>7ec351d6_652f_4691_8e72_ea432d44a0c8&#45;&gt;c</title>
<path fill="none" stroke="black" d="M894.23,-124.57C891.3,-123.68 888.39,-122.82 885.5,-122 767.35,-88.48 627.01,-66.51 537.61,-54.67"/>
<text text-anchor="middle" x="555.61" y="-57.67" font-family="Times,serif" font-size="10.00">currency</text>
</g>
<!-- 7ec351d6_652f_4691_8e72_ea432d44a0c8&#45;&gt;e2f7bc4c_ef2a_466e_b8a5_d24f48b13afe -->
<g id="edge20" class="edge">
<title>7ec351d6_652f_4691_8e72_ea432d44a0c8&#45;&gt;e2f7bc4c_ef2a_466e_b8a5_d24f48b13afe</title>
<path fill="none" stroke="black" d="M1046.75,-121.72C1052.77,-109.96 1059.06,-97.66 1064.82,-86.4"/>
<text text-anchor="middle" x="1051.82" y="-89.4" font-family="Times,serif" font-size="10.00">owner</text>
<text text-anchor="middle" x="1030.25" y="-113.72" font-family="Times,serif" font-size="10.00">account</text>
</g>
</g>
</svg>
