<?xml version="1.0" encoding="UTF-8" standalone="no"?>
<!DOCTYPE svg PUBLIC "-//W3C//DTD SVG 1.1//EN"
 "http://www.w3.org/Graphics/SVG/1.1/DTD/svg11.dtd">
<!-- Generated by graphviz version 2.49.3 (20211023.0002)
 -->
<!-- Title: model Pages: 1 -->
<svg width="1513px" height="449px"
 viewBox="0.00 0.00 1513.00 449.00" xmlns="http://www.w3.org/2000/svg" xmlns:xlink="http://www.w3.org/1999/xlink">
<g id="graph0" class="graph" transform="scale(1.0 1.0) rotate(0) translate(4 445)">
<title>model</title>
<polygon fill="white" stroke="transparent" points="-4,4 -4,-445 1509,-445 1509,4 -4,4"/>
<!-- cac430e8_b4de_4ca2_a3bd_87419190c86a -->
<g id="node1" class="node">
<title>cac430e8_b4de_4ca2_a3bd_87419190c86a</title>
<polygon fill="none" stroke="black" points="373.5,-420 373.5,-437 599.5,-437 599.5,-420 373.5,-420"/>
<text text-anchor="start" x="376.5" y="-427" font-family="Times,serif" text-decoration="underline" font-size="10.00">cac430e8&#45;b4de&#45;4ca2&#45;a3bd&#45;87419190c86a :Transaction</text>
<polygon fill="none" stroke="black" points="373.5,-359 373.5,-420 599.5,-420 599.5,-359 373.5,-359"/>
<text text-anchor="start" x="389" y="-409" font-family="Times,serif" font-size="10.00">amount = 30.0</text>
<text text-anchor="start" x="389" y="-398" font-family="Times,serif" font-size="10.00">description = &quot;Seed transaction&quot;</text>
<text text-anchor="start" x="389" y="-387" font-family="Times,serif" font-size="10.00">id = &quot;cac430e8&#45;b4de&#45;4ca2&#45;a3bd&#45;87419190c86a&quot;</text>
<text text-anchor="start" x="389" y="-376" font-family="Times,serif" font-size="10.00">rejectionDescription = &quot;&quot;</text>
<text text-anchor="start" x="389" y="-365" font-family="Times,serif" font-size="10.00">timestamp = 2021&#45;12&#45;05T17:27:42.096988</text>
</g>
<!-- b -->
<g id="node2" class="node">
<title>b</title>
<polygon fill="none" stroke="black" points="345.5,-297.5 345.5,-314.5 988.5,-314.5 988.5,-297.5 345.5,-297.5"/>
<text text-anchor="start" x="651" y="-304.5" font-family="Times,serif" text-decoration="underline" font-size="10.00">b :Bank</text>
<polygon fill="none" stroke="black" points="345.5,-269.5 345.5,-297.5 988.5,-297.5 988.5,-269.5 345.5,-269.5"/>
<text text-anchor="start" x="348.5" y="-286.5" font-family="Times,serif" font-size="10.00">accountsMap = sendItToTheBank8a633aa5&#45;907c&#45;4e57&#45;a313&#45;22e0adb2672e7ec351d6&#45;652f&#45;4691&#45;8e72&#45;ea432d44a0c839fc8b4f&#45;e1e3&#45;42a8&#45;9530&#45;a95a5eb47ed1</text>
<text text-anchor="start" x="348.5" y="-275.5" font-family="Times,serif" font-size="10.00">customerMap = e2f7bc4c&#45;ef2a&#45;466e&#45;b8a5&#45;d24f48b13afe1eaf6f4c&#45;4f92&#45;4e04&#45;bd87&#45;c82be03265dea554ce04&#45;4995&#45;4a5f&#45;a182&#45;45a43969d520</text>
</g>
<!-- cac430e8_b4de_4ca2_a3bd_87419190c86a&#45;&gt;b -->
<g id="edge1" class="edge">
<title>cac430e8_b4de_4ca2_a3bd_87419190c86a&#45;&gt;b</title>
<path fill="none" stroke="black" d="M559.71,-354.9C580.83,-342.76 603.23,-329.88 622.03,-319.07"/>
<text text-anchor="middle" x="612.03" y="-322.07" font-family="Times,serif" font-size="10.00">bank</text>
<text text-anchor="middle" x="535.71" y="-346.9" font-family="Times,serif" font-size="10.00">transactions</text>
</g>
<!-- c -->
<g id="node3" class="node">
<title>c</title>
<polygon fill="none" stroke="black" points="360.5,-43 360.5,-60 523.5,-60 523.5,-43 360.5,-43"/>
<text text-anchor="start" x="418.5" y="-50" font-family="Times,serif" text-decoration="underline" font-size="10.00">c :Currency</text>
<polygon fill="none" stroke="black" points="360.5,-26 360.5,-43 523.5,-43 523.5,-26 360.5,-26"/>
<text text-anchor="start" x="363.5" y="-32" font-family="Times,serif" font-size="10.00">declaringClass = class model.Currency</text>
</g>
<!-- cac430e8_b4de_4ca2_a3bd_87419190c86a&#45;&gt;c -->
<g id="edge2" class="edge">
<title>cac430e8_b4de_4ca2_a3bd_87419190c86a&#45;&gt;c</title>
<path fill="none" stroke="black" d="M365.47,-387.52C262.49,-372.28 120.61,-332.68 51.5,-230 24.7,-190.18 20.83,-158.92 51.5,-122 79.38,-88.44 201.72,-94.55 244.5,-86 279.65,-78.98 318.23,-70.84 351.87,-63.62"/>
<text text-anchor="middle" x="334.37" y="-66.62" font-family="Times,serif" font-size="10.00">currency</text>
</g>
<!-- 39fc8b4f_e1e3_42a8_9530_a95a5eb47ed1 -->
<g id="node4" class="node">
<title>39fc8b4f_e1e3_42a8_9530_a95a5eb47ed1</title>
<polygon fill="none" stroke="black" points="68.5,-209 68.5,-226 334.5,-226 334.5,-209 68.5,-209"/>
<text text-anchor="start" x="99" y="-216" font-family="Times,serif" text-decoration="underline" font-size="10.00">39fc8b4f&#45;e1e3&#45;42a8&#45;9530&#45;a95a5eb47ed1 :Account</text>
<polygon fill="none" stroke="black" points="68.5,-126 68.5,-209 334.5,-209 334.5,-126 68.5,-126"/>
<text text-anchor="start" x="71.5" y="-198" font-family="Times,serif" font-size="10.00">balance = 30.0</text>
<text text-anchor="start" x="71.5" y="-187" font-family="Times,serif" font-size="10.00">customerId = null</text>
<text text-anchor="start" x="71.5" y="-176" font-family="Times,serif" font-size="10.00">iban = &quot;EE030101710839537961&quot;</text>
<text text-anchor="start" x="71.5" y="-165" font-family="Times,serif" font-size="10.00">id = &quot;39fc8b4f&#45;e1e3&#45;42a8&#45;9530&#45;a95a5eb47ed1&quot;</text>
<text text-anchor="start" x="71.5" y="-154" font-family="Times,serif" font-size="10.00">receivedTransaction = cac430e8&#45;b4de&#45;4ca2&#45;a3bd&#45;87419190c86a</text>
<text text-anchor="start" x="71.5" y="-143" font-family="Times,serif" font-size="10.00">sentTransaction = </text>
<text text-anchor="start" x="71.5" y="-132" font-family="Times,serif" font-size="10.00">status = &quot;ACTIVE&quot;</text>
</g>
<!-- cac430e8_b4de_4ca2_a3bd_87419190c86a&#45;&gt;39fc8b4f_e1e3_42a8_9530_a95a5eb47ed1 -->
<g id="edge3" class="edge">
<title>cac430e8_b4de_4ca2_a3bd_87419190c86a&#45;&gt;39fc8b4f_e1e3_42a8_9530_a95a5eb47ed1</title>
<path fill="none" stroke="black" d="M386.56,-354.91C366.49,-344.49 346.16,-332.42 328.5,-319 295.32,-293.79 264.04,-258.99 240.82,-230.16"/>
<text text-anchor="middle" x="218.82" y="-233.16" font-family="Times,serif" font-size="10.00">destination</text>
<text text-anchor="middle" x="329.56" y="-346.91" font-family="Times,serif" font-size="10.00">allTransactionsOrderedDesc</text>
</g>
<!-- s -->
<g id="node5" class="node">
<title>s</title>
<polygon fill="none" stroke="black" points="1022.5,-292.5 1022.5,-309.5 1224.5,-309.5 1224.5,-292.5 1022.5,-292.5"/>
<text text-anchor="start" x="1106.5" y="-299.5" font-family="Times,serif" text-decoration="underline" font-size="10.00">s :Status</text>
<polygon fill="none" stroke="black" points="1022.5,-275.5 1022.5,-292.5 1224.5,-292.5 1224.5,-275.5 1022.5,-275.5"/>
<text text-anchor="start" x="1025.5" y="-281.5" font-family="Times,serif" font-size="10.00">declaringClass = class model.Transaction$Status</text>
</g>
<!-- cac430e8_b4de_4ca2_a3bd_87419190c86a&#45;&gt;s -->
<g id="edge4" class="edge">
<title>cac430e8_b4de_4ca2_a3bd_87419190c86a&#45;&gt;s</title>
<path fill="none" stroke="black" d="M607.72,-381.01C713.14,-366.57 869.83,-343.83 1005.5,-319 1014.67,-317.32 1024.22,-315.46 1033.74,-313.52"/>
<text text-anchor="middle" x="1022.24" y="-316.52" font-family="Times,serif" font-size="10.00">status</text>
</g>
<!-- b&#45;&gt;39fc8b4f_e1e3_42a8_9530_a95a5eb47ed1 -->
<g id="edge8" class="edge">
<title>b&#45;&gt;39fc8b4f_e1e3_42a8_9530_a95a5eb47ed1</title>
<path fill="none" stroke="black" d="M512.56,-265.93C461.28,-256.2 404.09,-244.03 352.5,-230 349.28,-229.13 346.04,-228.22 342.77,-227.28"/>
<text text-anchor="middle" x="360.27" y="-230.28" font-family="Times,serif" font-size="10.00">accounts</text>
<text text-anchor="middle" x="502.56" y="-257.93" font-family="Times,serif" font-size="10.00">bank</text>
</g>
<!-- sendItToTheBank -->
<g id="node6" class="node">
<title>sendItToTheBank</title>
<polygon fill="none" stroke="black" points="369.5,-209 369.5,-226 514.5,-226 514.5,-209 369.5,-209"/>
<text text-anchor="start" x="386.5" y="-216" font-family="Times,serif" text-decoration="underline" font-size="10.00">sendItToTheBank :Account</text>
<polygon fill="none" stroke="black" points="369.5,-126 369.5,-209 514.5,-209 514.5,-126 369.5,-126"/>
<text text-anchor="start" x="372.5" y="-198" font-family="Times,serif" font-size="10.00">balance = 69420.0</text>
<text text-anchor="start" x="372.5" y="-187" font-family="Times,serif" font-size="10.00">customerId = null</text>
<text text-anchor="start" x="372.5" y="-176" font-family="Times,serif" font-size="10.00">iban = &quot;EE159399151741830533&quot;</text>
<text text-anchor="start" x="372.5" y="-165" font-family="Times,serif" font-size="10.00">id = &quot;sendItToTheBank&quot;</text>
<text text-anchor="start" x="372.5" y="-154" font-family="Times,serif" font-size="10.00">receivedTransaction = </text>
<text text-anchor="start" x="372.5" y="-143" font-family="Times,serif" font-size="10.00">sentTransaction = </text>
<text text-anchor="start" x="372.5" y="-132" font-family="Times,serif" font-size="10.00">status = &quot;ACTIVE&quot;</text>
</g>
<!-- b&#45;&gt;sendItToTheBank -->
<g id="edge5" class="edge">
<title>b&#45;&gt;sendItToTheBank</title>
<path fill="none" stroke="black" d="M606.71,-265.88C583.03,-255.31 555.72,-242.6 531.5,-230 528.44,-228.41 525.35,-226.76 522.23,-225.08"/>
<text text-anchor="middle" x="549.23" y="-228.08" font-family="Times,serif" font-size="10.00">bankAccount</text>
<text text-anchor="middle" x="596.71" y="-257.88" font-family="Times,serif" font-size="10.00">bank</text>
</g>
<!-- 8a633aa5_907c_4e57_a313_22e0adb2672e -->
<g id="node7" class="node">
<title>8a633aa5_907c_4e57_a313_22e0adb2672e</title>
<polygon fill="none" stroke="black" points="1195.5,-209 1195.5,-226 1430.5,-226 1430.5,-209 1195.5,-209"/>
<text text-anchor="start" x="1209" y="-216" font-family="Times,serif" text-decoration="underline" font-size="10.00">8a633aa5&#45;907c&#45;4e57&#45;a313&#45;22e0adb2672e :Account</text>
<polygon fill="none" stroke="black" points="1195.5,-126 1195.5,-209 1430.5,-209 1430.5,-126 1195.5,-126"/>
<text text-anchor="start" x="1198.5" y="-198" font-family="Times,serif" font-size="10.00">balance = 0.0</text>
<text text-anchor="start" x="1198.5" y="-187" font-family="Times,serif" font-size="10.00">customerId = &quot;1eaf6f4c&#45;4f92&#45;4e04&#45;bd87&#45;c82be03265de&quot;</text>
<text text-anchor="start" x="1198.5" y="-176" font-family="Times,serif" font-size="10.00">iban = null</text>
<text text-anchor="start" x="1198.5" y="-165" font-family="Times,serif" font-size="10.00">id = &quot;8a633aa5&#45;907c&#45;4e57&#45;a313&#45;22e0adb2672e&quot;</text>
<text text-anchor="start" x="1198.5" y="-154" font-family="Times,serif" font-size="10.00">receivedTransaction = </text>
<text text-anchor="start" x="1198.5" y="-143" font-family="Times,serif" font-size="10.00">sentTransaction = </text>
<text text-anchor="start" x="1198.5" y="-132" font-family="Times,serif" font-size="10.00">status = &quot;ACTIVE&quot;</text>
</g>
<!-- b&#45;&gt;8a633aa5_907c_4e57_a313_22e0adb2672e -->
<g id="edge6" class="edge">
<title>b&#45;&gt;8a633aa5_907c_4e57_a313_22e0adb2672e</title>
<path fill="none" stroke="black" d="M975.36,-265.96C1040.98,-257.2 1109.45,-245.52 1172.5,-230 1177.17,-228.85 1181.89,-227.59 1186.64,-226.24"/>
<text text-anchor="middle" x="1169.14" y="-229.24" font-family="Times,serif" font-size="10.00">accounts</text>
<text text-anchor="middle" x="965.36" y="-257.96" font-family="Times,serif" font-size="10.00">bank</text>
</g>
<!-- 7ec351d6_652f_4691_8e72_ea432d44a0c8 -->
<g id="node8" class="node">
<title>7ec351d6_652f_4691_8e72_ea432d44a0c8</title>
<polygon fill="none" stroke="black" points="890.5,-209 890.5,-226 1122.5,-226 1122.5,-209 890.5,-209"/>
<text text-anchor="start" x="903" y="-216" font-family="Times,serif" text-decoration="underline" font-size="10.00">7ec351d6&#45;652f&#45;4691&#45;8e72&#45;ea432d44a0c8 :Account</text>
<polygon fill="none" stroke="black" points="890.5,-126 890.5,-209 1122.5,-209 1122.5,-126 890.5,-126"/>
<text text-anchor="start" x="893.5" y="-198" font-family="Times,serif" font-size="10.00">balance = 100.0</text>
<text text-anchor="start" x="893.5" y="-187" font-family="Times,serif" font-size="10.00">customerId = &quot;e2f7bc4c&#45;ef2a&#45;466e&#45;b8a5&#45;d24f48b13afe&quot;</text>
<text text-anchor="start" x="893.5" y="-176" font-family="Times,serif" font-size="10.00">iban = null</text>
<text text-anchor="start" x="893.5" y="-165" font-family="Times,serif" font-size="10.00">id = &quot;7ec351d6&#45;652f&#45;4691&#45;8e72&#45;ea432d44a0c8&quot;</text>
<text text-anchor="start" x="893.5" y="-154" font-family="Times,serif" font-size="10.00">receivedTransaction = </text>
<text text-anchor="start" x="893.5" y="-143" font-family="Times,serif" font-size="10.00">sentTransaction = </text>
<text text-anchor="start" x="893.5" y="-132" font-family="Times,serif" font-size="10.00">status = &quot;ACTIVE&quot;</text>
</g>
<!-- b&#45;&gt;7ec351d6_652f_4691_8e72_ea432d44a0c8 -->
<g id="edge7" class="edge">
<title>b&#45;&gt;7ec351d6_652f_4691_8e72_ea432d44a0c8</title>
<path fill="none" stroke="black" d="M759.04,-265.95C795,-255.51 836.4,-242.87 873.5,-230 876.44,-228.98 879.4,-227.94 882.39,-226.87"/>
<text text-anchor="middle" x="864.89" y="-229.87" font-family="Times,serif" font-size="10.00">accounts</text>
<text text-anchor="middle" x="749.04" y="-257.95" font-family="Times,serif" font-size="10.00">bank</text>
</g>
<!-- cd1078f2_09bb_46ba_91e7_40249ebf7231 -->
<g id="node9" class="node">
<title>cd1078f2_09bb_46ba_91e7_40249ebf7231</title>
<polygon fill="none" stroke="black" points="548.5,-198 548.5,-215 784.5,-215 784.5,-198 548.5,-198"/>
<text text-anchor="start" x="551.5" y="-205" font-family="Times,serif" text-decoration="underline" font-size="10.00">cd1078f2&#45;09bb&#45;46ba&#45;91e7&#45;40249ebf7231 :Administrator</text>
<polygon fill="none" stroke="black" points="548.5,-137 548.5,-198 784.5,-198 784.5,-137 548.5,-137"/>
<text text-anchor="start" x="569" y="-187" font-family="Times,serif" font-size="10.00">email = &quot;admin@bank.ee&quot;</text>
<text text-anchor="start" x="569" y="-176" font-family="Times,serif" font-size="10.00">firstName = &quot;Admin&quot;</text>
<text text-anchor="start" x="569" y="-165" font-family="Times,serif" font-size="10.00">id = &quot;cd1078f2&#45;09bb&#45;46ba&#45;91e7&#45;40249ebf7231&quot;</text>
<text text-anchor="start" x="569" y="-154" font-family="Times,serif" font-size="10.00">lastName = &quot;ALice&quot;</text>
<text text-anchor="start" x="569" y="-143" font-family="Times,serif" font-size="10.00">password = &quot;secure_p@ssw0|2d&quot;</text>
</g>
<!-- b&#45;&gt;cd1078f2_09bb_46ba_91e7_40249ebf7231 -->
<g id="edge9" class="edge">
<title>b&#45;&gt;cd1078f2_09bb_46ba_91e7_40249ebf7231</title>
<path fill="none" stroke="black" d="M666.5,-265.8C666.5,-252.09 666.5,-234.86 666.5,-219.24"/>
<text text-anchor="middle" x="637.5" y="-222.24" font-family="Times,serif" font-size="10.00">administrators</text>
<text text-anchor="middle" x="656.5" y="-257.8" font-family="Times,serif" font-size="10.00">bank</text>
</g>
<!-- e2f7bc4c_ef2a_466e_b8a5_d24f48b13afe -->
<g id="node10" class="node">
<title>e2f7bc4c_ef2a_466e_b8a5_d24f48b13afe</title>
<polygon fill="none" stroke="black" points="967.5,-65 967.5,-82 1179.5,-82 1179.5,-65 967.5,-65"/>
<text text-anchor="start" x="970.5" y="-72" font-family="Times,serif" text-decoration="underline" font-size="10.00">e2f7bc4c&#45;ef2a&#45;466e&#45;b8a5&#45;d24f48b13afe :Customer</text>
<polygon fill="none" stroke="black" points="967.5,-4 967.5,-65 1179.5,-65 1179.5,-4 967.5,-4"/>
<text text-anchor="start" x="979" y="-54" font-family="Times,serif" font-size="10.00">email = &quot;john@doe.ee&quot;</text>
<text text-anchor="start" x="979" y="-43" font-family="Times,serif" font-size="10.00">firstName = &quot;John&quot;</text>
<text text-anchor="start" x="979" y="-32" font-family="Times,serif" font-size="10.00">id = &quot;e2f7bc4c&#45;ef2a&#45;466e&#45;b8a5&#45;d24f48b13afe&quot;</text>
<text text-anchor="start" x="979" y="-21" font-family="Times,serif" font-size="10.00">lastName = &quot;Doe&quot;</text>
<text text-anchor="start" x="979" y="-10" font-family="Times,serif" font-size="10.00">password = &quot;pass1234&quot;</text>
</g>
<!-- b&#45;&gt;e2f7bc4c_ef2a_466e_b8a5_d24f48b13afe -->
<g id="edge10" class="edge">
<title>b&#45;&gt;e2f7bc4c_ef2a_466e_b8a5_d24f48b13afe</title>
<path fill="none" stroke="black" d="M982.77,-265.97C1061.25,-256.47 1126.83,-244.43 1139.5,-230 1171.18,-193.94 1156.01,-167.07 1139.5,-122 1134.8,-109.17 1126.96,-97.01 1118.29,-86.26"/>
<text text-anchor="middle" x="1097.79" y="-89.26" font-family="Times,serif" font-size="10.00">customers</text>
<text text-anchor="middle" x="992.77" y="-257.97" font-family="Times,serif" font-size="10.00">bank</text>
</g>
<!-- 1eaf6f4c_4f92_4e04_bd87_c82be03265de -->
<g id="node11" class="node">
<title>1eaf6f4c_4f92_4e04_bd87_c82be03265de</title>
<polygon fill="none" stroke="black" points="1282.5,-65 1282.5,-82 1497.5,-82 1497.5,-65 1282.5,-65"/>
<text text-anchor="start" x="1285.5" y="-72" font-family="Times,serif" text-decoration="underline" font-size="10.00">1eaf6f4c&#45;4f92&#45;4e04&#45;bd87&#45;c82be03265de :Customer</text>
<polygon fill="none" stroke="black" points="1282.5,-4 1282.5,-65 1497.5,-65 1497.5,-4 1282.5,-4"/>
<text text-anchor="start" x="1294.5" y="-54" font-family="Times,serif" font-size="10.00">email = &quot;bobby@tt.ee&quot;</text>
<text text-anchor="start" x="1294.5" y="-43" font-family="Times,serif" font-size="10.00">firstName = &quot;Bob&quot;</text>
<text text-anchor="start" x="1294.5" y="-32" font-family="Times,serif" font-size="10.00">id = &quot;1eaf6f4c&#45;4f92&#45;4e04&#45;bd87&#45;c82be03265de&quot;</text>
<text text-anchor="start" x="1294.5" y="-21" font-family="Times,serif" font-size="10.00">lastName = &quot;Jackson&quot;</text>
<text text-anchor="start" x="1294.5" y="-10" font-family="Times,serif" font-size="10.00">password = &quot;secret&quot;</text>
</g>
<!-- b&#45;&gt;1eaf6f4c_4f92_4e04_bd87_c82be03265de -->
<g id="edge11" class="edge">
<title>b&#45;&gt;1eaf6f4c_4f92_4e04_bd87_c82be03265de</title>
<path fill="none" stroke="black" d="M996.25,-266.15C1209.03,-249.69 1446.48,-231.1 1447.5,-230 1480.08,-194.75 1462.59,-167.57 1447.5,-122 1443.31,-109.34 1436.18,-97.07 1428.33,-86.15"/>
<text text-anchor="middle" x="1407.83" y="-89.15" font-family="Times,serif" font-size="10.00">customers</text>
<text text-anchor="middle" x="1006.25" y="-269.15" font-family="Times,serif" font-size="10.00">bank</text>
</g>
<!-- a554ce04_4995_4a5f_a182_45a43969d520 -->
<g id="node12" class="node">
<title>a554ce04_4995_4a5f_a182_45a43969d520</title>
<polygon fill="none" stroke="black" points="8.5,-65 8.5,-82 227.5,-82 227.5,-65 8.5,-65"/>
<text text-anchor="start" x="11.5" y="-72" font-family="Times,serif" text-decoration="underline" font-size="10.00">a554ce04&#45;4995&#45;4a5f&#45;a182&#45;45a43969d520 :Customer</text>
<polygon fill="none" stroke="black" points="8.5,-4 8.5,-65 227.5,-65 227.5,-4 8.5,-4"/>
<text text-anchor="start" x="20.5" y="-54" font-family="Times,serif" font-size="10.00">email = &quot;bobbytest@tt.ee&quot;</text>
<text text-anchor="start" x="20.5" y="-43" font-family="Times,serif" font-size="10.00">firstName = &quot;Bob&quot;</text>
<text text-anchor="start" x="20.5" y="-32" font-family="Times,serif" font-size="10.00">id = &quot;a554ce04&#45;4995&#45;4a5f&#45;a182&#45;45a43969d520&quot;</text>
<text text-anchor="start" x="20.5" y="-21" font-family="Times,serif" font-size="10.00">lastName = &quot;Jackson&quot;</text>
<text text-anchor="start" x="20.5" y="-10" font-family="Times,serif" font-size="10.00">password = &quot;secret&quot;</text>
</g>
<!-- b&#45;&gt;a554ce04_4995_4a5f_a182_45a43969d520 -->
<g id="edge12" class="edge">
<title>b&#45;&gt;a554ce04_4995_4a5f_a182_45a43969d520</title>
<path fill="none" stroke="black" d="M336.79,-277.29C202,-268.02 72.49,-253.2 51.5,-230 19.29,-194.41 34.99,-167.07 51.5,-122 56.2,-109.17 64.04,-97.01 72.71,-86.26"/>
<text text-anchor="middle" x="52.21" y="-89.26" font-family="Times,serif" font-size="10.00">customers</text>
<text text-anchor="middle" x="326.79" y="-280.29" font-family="Times,serif" font-size="10.00">bank</text>
</g>
<!-- t -->
<g id="node13" class="node">
<title>t</title>
<polygon fill="none" stroke="black" points="819.5,-170 819.5,-187 856.5,-187 856.5,-170 819.5,-170"/>
<text text-anchor="start" x="822.5" y="-177" font-family="Times,serif" text-decoration="underline" font-size="10.00">t :Trace</text>
<polygon fill="none" stroke="black" points="819.5,-164 819.5,-170 856.5,-170 856.5,-164 819.5,-164"/>
</g>
<!-- b&#45;&gt;t -->
<g id="edge13" class="edge">
<title>b&#45;&gt;t</title>
<path fill="none" stroke="black" d="M741.88,-265.84C762.57,-256.58 784.08,-244.7 801.5,-230 813.23,-220.1 822.78,-205.47 829.08,-194.09"/>
<text text-anchor="middle" x="817.08" y="-197.09" font-family="Times,serif" font-size="10.00">traces</text>
</g>
<!-- 39fc8b4f_e1e3_42a8_9530_a95a5eb47ed1&#45;&gt;c -->
<g id="edge14" class="edge">
<title>39fc8b4f_e1e3_42a8_9530_a95a5eb47ed1&#45;&gt;c</title>
<path fill="none" stroke="black" d="M298.77,-121.91C336.06,-101.55 376.39,-79.54 404.64,-64.12"/>
<text text-anchor="middle" x="387.14" y="-67.12" font-family="Times,serif" font-size="10.00">currency</text>
</g>
<!-- 39fc8b4f_e1e3_42a8_9530_a95a5eb47ed1&#45;&gt;a554ce04_4995_4a5f_a182_45a43969d520 -->
<g id="edge15" class="edge">
<title>39fc8b4f_e1e3_42a8_9530_a95a5eb47ed1&#45;&gt;a554ce04_4995_4a5f_a182_45a43969d520</title>
<path fill="none" stroke="black" d="M167.33,-121.72C159.79,-109.96 151.9,-97.66 144.69,-86.4"/>
<text text-anchor="middle" x="132.19" y="-89.4" font-family="Times,serif" font-size="10.00">owner</text>
<text text-anchor="middle" x="151.33" y="-113.72" font-family="Times,serif" font-size="10.00">account</text>
</g>
<!-- sendItToTheBank&#45;&gt;c -->
<g id="edge16" class="edge">
<title>sendItToTheBank&#45;&gt;c</title>
<path fill="none" stroke="black" d="M441.5,-121.72C441.5,-101.46 441.5,-79.58 441.5,-64.22"/>
<text text-anchor="middle" x="424" y="-67.22" font-family="Times,serif" font-size="10.00">currency</text>
</g>
<!-- 8a633aa5_907c_4e57_a313_22e0adb2672e&#45;&gt;c -->
<g id="edge17" class="edge">
<title>8a633aa5_907c_4e57_a313_22e0adb2672e&#45;&gt;c</title>
<path fill="none" stroke="black" d="M1186.6,-133.47C1170.85,-129.15 1154.88,-125.19 1139.5,-122 923.69,-77.29 664.66,-56.83 531.03,-48.67"/>
<text text-anchor="middle" x="548.53" y="-40.67" font-family="Times,serif" font-size="10.00">currency</text>
</g>
<!-- 8a633aa5_907c_4e57_a313_22e0adb2672e&#45;&gt;1eaf6f4c_4f92_4e04_bd87_c82be03265de -->
<g id="edge18" class="edge">
<title>8a633aa5_907c_4e57_a313_22e0adb2672e&#45;&gt;1eaf6f4c_4f92_4e04_bd87_c82be03265de</title>
<path fill="none" stroke="black" d="M1343.82,-121.72C1350.73,-109.96 1357.96,-97.66 1364.58,-86.4"/>
<text text-anchor="middle" x="1352.08" y="-89.4" font-family="Times,serif" font-size="10.00">owner</text>
<text text-anchor="middle" x="1327.82" y="-113.72" font-family="Times,serif" font-size="10.00">account</text>
</g>
<!-- 7ec351d6_652f_4691_8e72_ea432d44a0c8&#45;&gt;c -->
<g id="edge19" class="edge">
<title>7ec351d6_652f_4691_8e72_ea432d44a0c8&#45;&gt;c</title>
<path fill="none" stroke="black" d="M882.16,-124.58C879.26,-123.68 876.37,-122.82 873.5,-122 757.37,-88.74 619.44,-66.77 531.22,-54.85"/>
<text text-anchor="middle" x="548.72" y="-57.85" font-family="Times,serif" font-size="10.00">currency</text>
</g>
<!-- 7ec351d6_652f_4691_8e72_ea432d44a0c8&#45;&gt;e2f7bc4c_ef2a_466e_b8a5_d24f48b13afe -->
<g id="edge20" class="edge">
<title>7ec351d6_652f_4691_8e72_ea432d44a0c8&#45;&gt;e2f7bc4c_ef2a_466e_b8a5_d24f48b13afe</title>
<path fill="none" stroke="black" d="M1033.75,-121.72C1039.77,-109.96 1046.06,-97.66 1051.82,-86.4"/>
<text text-anchor="middle" x="1039.32" y="-89.4" font-family="Times,serif" font-size="10.00">owner</text>
<text text-anchor="middle" x="1017.75" y="-113.72" font-family="Times,serif" font-size="10.00">account</text>
</g>
</g>
</svg>
