<?xml version="1.0" encoding="UTF-8" standalone="no"?>
<!DOCTYPE svg PUBLIC "-//W3C//DTD SVG 1.1//EN"
 "http://www.w3.org/Graphics/SVG/1.1/DTD/svg11.dtd">
<!-- Generated by graphviz version 2.49.3 (20211023.0002)
 -->
<!-- Pages: 1 -->
<svg width="551px" height="255px"
 viewBox="0.00 0.00 550.50 255.00" xmlns="http://www.w3.org/2000/svg" xmlns:xlink="http://www.w3.org/1999/xlink">
<g id="graph0" class="graph" transform="scale(1.0 1.0) rotate(0) translate(4 251)">
<polygon fill="white" stroke="transparent" points="-4,4 -4,-251 546.5,-251 546.5,4 -4,4"/>
<!-- b -->
<g id="node1" class="node">
<title>b</title>
<polygon fill="none" stroke="black" points="337.5,-223 337.5,-240 375.5,-240 375.5,-223 337.5,-223"/>
<text text-anchor="start" x="340.5" y="-230" font-family="Times,serif" text-decoration="underline" font-size="10.00">b :Bank</text>
<polygon fill="none" stroke="black" points="337.5,-217 337.5,-223 375.5,-223 375.5,-217 337.5,-217"/>
</g>
<!-- f3127e10_6996_40a2_9bf8_964efaa04852 -->
<g id="node2" class="node">
<title>f3127e10_6996_40a2_9bf8_964efaa04852</title>
<polygon fill="none" stroke="black" points="8.5,-153.5 8.5,-170.5 219.5,-170.5 219.5,-153.5 8.5,-153.5"/>
<text text-anchor="start" x="11.5" y="-160.5" font-family="Times,serif" text-decoration="underline" font-size="10.00">f3127e10&#45;6996&#45;40a2&#45;9bf8&#45;964efaa04852 :Account</text>
<polygon fill="none" stroke="black" points="8.5,-125.5 8.5,-153.5 219.5,-153.5 219.5,-125.5 8.5,-125.5"/>
<text text-anchor="start" x="17.5" y="-142.5" font-family="Times,serif" font-size="10.00">balance = 69420.0</text>
<text text-anchor="start" x="17.5" y="-131.5" font-family="Times,serif" font-size="10.00">id = &quot;f3127e10&#45;6996&#45;40a2&#45;9bf8&#45;964efaa04852&quot;</text>
</g>
<!-- b&#45;&gt;f3127e10_6996_40a2_9bf8_964efaa04852 -->
<g id="edge1" class="edge">
<title>b&#45;&gt;f3127e10_6996_40a2_9bf8_964efaa04852</title>
<path fill="none" stroke="black" d="M329.1,-219.15C296.2,-208.52 239.61,-190.24 192.65,-175.07"/>
<text text-anchor="middle" x="165.65" y="-178.07" font-family="Times,serif" font-size="10.00">bankAccount</text>
<text text-anchor="middle" x="319.1" y="-222.15" font-family="Times,serif" font-size="10.00">bank</text>
</g>
<!-- ef3ab63f_b4b2_4bed_af64_2fadb60a72f7 -->
<g id="node3" class="node">
<title>ef3ab63f_b4b2_4bed_af64_2fadb60a72f7</title>
<polygon fill="none" stroke="black" points="253.5,-153.5 253.5,-170.5 460.5,-170.5 460.5,-153.5 253.5,-153.5"/>
<text text-anchor="start" x="256.5" y="-160.5" font-family="Times,serif" text-decoration="underline" font-size="10.00">ef3ab63f&#45;b4b2&#45;4bed&#45;af64&#45;2fadb60a72f7 :Account</text>
<polygon fill="none" stroke="black" points="253.5,-125.5 253.5,-153.5 460.5,-153.5 460.5,-125.5 253.5,-125.5"/>
<text text-anchor="start" x="262.5" y="-142.5" font-family="Times,serif" font-size="10.00">balance = 0.0</text>
<text text-anchor="start" x="262.5" y="-131.5" font-family="Times,serif" font-size="10.00">id = &quot;ef3ab63f&#45;b4b2&#45;4bed&#45;af64&#45;2fadb60a72f7&quot;</text>
</g>
<!-- b&#45;&gt;ef3ab63f_b4b2_4bed_af64_2fadb60a72f7 -->
<g id="edge2" class="edge">
<title>b&#45;&gt;ef3ab63f_b4b2_4bed_af64_2fadb60a72f7</title>
<path fill="none" stroke="black" d="M356.5,-210.97C356.5,-200.51 356.5,-186.9 356.5,-175.16"/>
<text text-anchor="middle" x="339" y="-178.16" font-family="Times,serif" font-size="10.00">accounts</text>
<text text-anchor="middle" x="346.5" y="-202.97" font-family="Times,serif" font-size="10.00">bank</text>
</g>
<!-- 3fbeaa4a_8840_4611_95c1_2d9c0a0e22f9 -->
<g id="node4" class="node">
<title>3fbeaa4a_8840_4611_95c1_2d9c0a0e22f9</title>
<polygon fill="none" stroke="black" points="318.5,-65 318.5,-82 534.5,-82 534.5,-65 318.5,-65"/>
<text text-anchor="start" x="321.5" y="-72" font-family="Times,serif" text-decoration="underline" font-size="10.00">3fbeaa4a&#45;8840&#45;4611&#45;95c1&#45;2d9c0a0e22f9 :Customer</text>
<polygon fill="none" stroke="black" points="318.5,-4 318.5,-65 534.5,-65 534.5,-4 318.5,-4"/>
<text text-anchor="start" x="330.5" y="-54" font-family="Times,serif" font-size="10.00">email = &quot;bobby@tt.ee&quot;</text>
<text text-anchor="start" x="330.5" y="-43" font-family="Times,serif" font-size="10.00">firstName = &quot;Bob&quot;</text>
<text text-anchor="start" x="330.5" y="-32" font-family="Times,serif" font-size="10.00">id = &quot;3fbeaa4a&#45;8840&#45;4611&#45;95c1&#45;2d9c0a0e22f9&quot;</text>
<text text-anchor="start" x="330.5" y="-21" font-family="Times,serif" font-size="10.00">lastName = &quot;Jackson&quot;</text>
<text text-anchor="start" x="330.5" y="-10" font-family="Times,serif" font-size="10.00">password = &quot;secret&quot;</text>
</g>
<!-- b&#45;&gt;3fbeaa4a_8840_4611_95c1_2d9c0a0e22f9 -->
<g id="edge3" class="edge">
<title>b&#45;&gt;3fbeaa4a_8840_4611_95c1_2d9c0a0e22f9</title>
<path fill="none" stroke="black" d="M383.65,-224.68C412.51,-219.54 456.79,-206.67 477.5,-175 495.39,-147.63 480.58,-113.02 462.4,-86.25"/>
<text text-anchor="middle" x="441.9" y="-89.25" font-family="Times,serif" font-size="10.00">customers</text>
<text text-anchor="middle" x="393.65" y="-227.68" font-family="Times,serif" font-size="10.00">bank</text>
</g>
<!-- c -->
<g id="node5" class="node">
<title>c</title>
<polygon fill="none" stroke="black" points="133.5,-43 133.5,-60 268.5,-60 268.5,-43 133.5,-43"/>
<text text-anchor="start" x="177.5" y="-50" font-family="Times,serif" text-decoration="underline" font-size="10.00">c :Currency</text>
<polygon fill="none" stroke="black" points="133.5,-26 133.5,-43 268.5,-43 268.5,-26 133.5,-26"/>
<text text-anchor="start" x="136.5" y="-32" font-family="Times,serif" font-size="10.00">declaringClass = class Currency</text>
</g>
<!-- f3127e10_6996_40a2_9bf8_964efaa04852&#45;&gt;c -->
<g id="edge4" class="edge">
<title>f3127e10_6996_40a2_9bf8_964efaa04852&#45;&gt;c</title>
<path fill="none" stroke="black" d="M135.01,-121.92C150,-104.08 169.73,-80.61 183.6,-64.11"/>
<text text-anchor="middle" x="166.1" y="-67.11" font-family="Times,serif" font-size="10.00">currency</text>
</g>
<!-- ef3ab63f_b4b2_4bed_af64_2fadb60a72f7&#45;&gt;3fbeaa4a_8840_4611_95c1_2d9c0a0e22f9 -->
<g id="edge6" class="edge">
<title>ef3ab63f_b4b2_4bed_af64_2fadb60a72f7&#45;&gt;3fbeaa4a_8840_4611_95c1_2d9c0a0e22f9</title>
<path fill="none" stroke="black" d="M373.8,-121.92C381.09,-111.14 389.77,-98.31 397.96,-86.2"/>
<text text-anchor="middle" x="385.46" y="-89.2" font-family="Times,serif" font-size="10.00">owner</text>
<text text-anchor="middle" x="357.8" y="-113.92" font-family="Times,serif" font-size="10.00">account</text>
</g>
<!-- ef3ab63f_b4b2_4bed_af64_2fadb60a72f7&#45;&gt;c -->
<g id="edge5" class="edge">
<title>ef3ab63f_b4b2_4bed_af64_2fadb60a72f7&#45;&gt;c</title>
<path fill="none" stroke="black" d="M317.94,-121.92C291.05,-104.08 255.68,-80.61 230.81,-64.11"/>
<text text-anchor="middle" x="213.31" y="-67.11" font-family="Times,serif" font-size="10.00">currency</text>
</g>
</g>
</svg>
