<?xml version="1.0" encoding="UTF-8" standalone="no"?>
<!DOCTYPE svg PUBLIC "-//W3C//DTD SVG 1.1//EN"
 "http://www.w3.org/Graphics/SVG/1.1/DTD/svg11.dtd">
<!-- Generated by graphviz version 2.44.0 (20200408.0750)
 -->
<!-- Title: model Pages: 1 -->
<svg width="2936px" height="356px"
 viewBox="0.00 0.00 2936.00 356.00" xmlns="http://www.w3.org/2000/svg" xmlns:xlink="http://www.w3.org/1999/xlink">
<g id="graph0" class="graph" transform="scale(1.0 1.0) rotate(0) translate(4 352)">
<title>model</title>
<polygon fill="white" stroke="transparent" points="-4,4 -4,-352 2932,-352 2932,4 -4,4"/>
<!-- b -->
<g id="node1" class="node">
<title>b</title>
<polygon fill="none" stroke="black" points="755,-326 755,-344 2220,-344 2220,-326 755,-326"/>
<text text-anchor="start" x="1471.81" y="-333" font-family="Times,serif" text-decoration="underline" font-size="10.00">b :Bank</text>
<polygon fill="none" stroke="black" points="755,-296 755,-326 2220,-326 2220,-296 755,-296"/>
<text text-anchor="start" x="758" y="-314" font-family="Times,serif" font-size="10.00">accountsMap = c95c6fe2&#45;1742&#45;40a2&#45;9dfa&#45;f0dcc90243d0bf79c166&#45;c5aa&#45;428e&#45;8e43&#45;627e623357246637a81a&#45;4aa3&#45;4efe&#45;ade9&#45;4cfacc9b3975fef96271&#45;fd9c&#45;493a&#45;abd7&#45;3bf7aef18657e172231e&#45;629d&#45;4c1b&#45;be5f&#45;b54139ff2120643946d5&#45;d776&#45;40e0&#45;8d35&#45;5499a87f1824sendItToTheBankb9241394&#45;65dc&#45;4df2&#45;aff2&#45;02ce8883a1cc64d2b6ad&#45;1faa&#45;48df&#45;8f99&#45;6857c8ed1721</text>
<text text-anchor="start" x="758" y="-302" font-family="Times,serif" font-size="10.00">customerMap = 21eb2d43&#45;1a04&#45;430f&#45;b8a5&#45;5612d60a883ca70d08d5&#45;ec28&#45;467a&#45;adaf&#45;6845d3e3ea045d021ce0&#45;a6c8&#45;45e9&#45;ac0f&#45;c2d6d7785ddf6e3cd55b&#45;b55d&#45;4c1c&#45;a631&#45;b801fc91540191c6fc4b&#45;e762&#45;4f6d&#45;9c0b&#45;4598162847fd8bd34921&#45;c54a&#45;45db&#45;b0b0&#45;fd24d38a9a4067b83f8f&#45;3613&#45;497c&#45;9186&#45;503f6a3679d2157ec70c&#45;4e73&#45;4934&#45;88dc&#45;d5508f1a2cdd</text>
</g>
<!-- c95c6fe2_1742_40a2_9dfa_f0dcc90243d0 -->
<g id="node2" class="node">
<title>c95c6fe2_1742_40a2_9dfa_f0dcc90243d0</title>
<polygon fill="none" stroke="black" points="95,-234 95,-252 331,-252 331,-234 95,-234"/>
<text text-anchor="start" x="111.23" y="-241" font-family="Times,serif" text-decoration="underline" font-size="10.00">c95c6fe2&#45;1742&#45;40a2&#45;9dfa&#45;f0dcc90243d0 :Account</text>
<polygon fill="none" stroke="black" points="95,-132 95,-234 331,-234 331,-132 95,-132"/>
<text text-anchor="start" x="98" y="-222" font-family="Times,serif" font-size="10.00">balance = 0.0</text>
<text text-anchor="start" x="98" y="-210" font-family="Times,serif" font-size="10.00">count = 0</text>
<text text-anchor="start" x="98" y="-198" font-family="Times,serif" font-size="10.00">customerId = &quot;a70d08d5&#45;ec28&#45;467a&#45;adaf&#45;6845d3e3ea04&quot;</text>
<text text-anchor="start" x="98" y="-186" font-family="Times,serif" font-size="10.00">iban = &quot;EE103520425064700043&quot;</text>
<text text-anchor="start" x="98" y="-174" font-family="Times,serif" font-size="10.00">id = &quot;c95c6fe2&#45;1742&#45;40a2&#45;9dfa&#45;f0dcc90243d0&quot;</text>
<text text-anchor="start" x="98" y="-162" font-family="Times,serif" font-size="10.00">receivedTransaction = </text>
<text text-anchor="start" x="98" y="-150" font-family="Times,serif" font-size="10.00">sentTransaction = </text>
<text text-anchor="start" x="98" y="-138" font-family="Times,serif" font-size="10.00">status = &quot;ACTIVE&quot;</text>
</g>
<!-- b&#45;&gt;c95c6fe2_1742_40a2_9dfa_f0dcc90243d0 -->
<g id="edge1" class="edge">
<title>b&#45;&gt;c95c6fe2_1742_40a2_9dfa_f0dcc90243d0</title>
<path fill="none" stroke="black" d="M746.28,-298.36C582.09,-289.05 433.16,-275.55 353,-256 348.47,-254.9 343.9,-253.65 339.33,-252.28"/>
<text text-anchor="middle" x="356.82" y="-255.28" font-family="Times,serif" font-size="10.00">accounts</text>
<text text-anchor="middle" x="736.56" y="-301.36" font-family="Times,serif" font-size="10.00">bank</text>
</g>
<!-- bf79c166_c5aa_428e_8e43_627e62335724 -->
<g id="node3" class="node">
<title>bf79c166_c5aa_428e_8e43_627e62335724</title>
<polygon fill="none" stroke="black" points="403,-234 403,-252 639,-252 639,-234 403,-234"/>
<text text-anchor="start" x="417.56" y="-241" font-family="Times,serif" text-decoration="underline" font-size="10.00">bf79c166&#45;c5aa&#45;428e&#45;8e43&#45;627e62335724 :Account</text>
<polygon fill="none" stroke="black" points="403,-132 403,-234 639,-234 639,-132 403,-132"/>
<text text-anchor="start" x="406" y="-222" font-family="Times,serif" font-size="10.00">balance = 0.0</text>
<text text-anchor="start" x="406" y="-210" font-family="Times,serif" font-size="10.00">count = 0</text>
<text text-anchor="start" x="406" y="-198" font-family="Times,serif" font-size="10.00">customerId = &quot;67b83f8f&#45;3613&#45;497c&#45;9186&#45;503f6a3679d2&quot;</text>
<text text-anchor="start" x="406" y="-186" font-family="Times,serif" font-size="10.00">iban = &quot;EE212057706600947237&quot;</text>
<text text-anchor="start" x="406" y="-174" font-family="Times,serif" font-size="10.00">id = &quot;bf79c166&#45;c5aa&#45;428e&#45;8e43&#45;627e62335724&quot;</text>
<text text-anchor="start" x="406" y="-162" font-family="Times,serif" font-size="10.00">receivedTransaction = </text>
<text text-anchor="start" x="406" y="-150" font-family="Times,serif" font-size="10.00">sentTransaction = </text>
<text text-anchor="start" x="406" y="-138" font-family="Times,serif" font-size="10.00">status = &quot;ACTIVE&quot;</text>
</g>
<!-- b&#45;&gt;bf79c166_c5aa_428e_8e43_627e62335724 -->
<g id="edge2" class="edge">
<title>b&#45;&gt;bf79c166_c5aa_428e_8e43_627e62335724</title>
<path fill="none" stroke="black" d="M947.36,-291.99C827.78,-282.74 719.32,-270.86 661,-256 656.48,-254.85 651.92,-253.56 647.36,-252.16"/>
<text text-anchor="middle" x="664.85" y="-255.16" font-family="Times,serif" font-size="10.00">accounts</text>
<text text-anchor="middle" x="937.64" y="-282.99" font-family="Times,serif" font-size="10.00">bank</text>
</g>
<!-- 6637a81a_4aa3_4efe_ade9_4cfacc9b3975 -->
<g id="node4" class="node">
<title>6637a81a_4aa3_4efe_ade9_4cfacc9b3975</title>
<polygon fill="none" stroke="black" points="712,-234 712,-252 951,-252 951,-234 712,-234"/>
<text text-anchor="start" x="730.3" y="-241" font-family="Times,serif" text-decoration="underline" font-size="10.00">6637a81a&#45;4aa3&#45;4efe&#45;ade9&#45;4cfacc9b3975 :Account</text>
<polygon fill="none" stroke="black" points="712,-132 712,-234 951,-234 951,-132 712,-132"/>
<text text-anchor="start" x="715" y="-222" font-family="Times,serif" font-size="10.00">balance = 0.0</text>
<text text-anchor="start" x="715" y="-210" font-family="Times,serif" font-size="10.00">count = 0</text>
<text text-anchor="start" x="715" y="-198" font-family="Times,serif" font-size="10.00">customerId = &quot;8bd34921&#45;c54a&#45;45db&#45;b0b0&#45;fd24d38a9a40&quot;</text>
<text text-anchor="start" x="715" y="-186" font-family="Times,serif" font-size="10.00">iban = &quot;EE613711917048588404&quot;</text>
<text text-anchor="start" x="715" y="-174" font-family="Times,serif" font-size="10.00">id = &quot;6637a81a&#45;4aa3&#45;4efe&#45;ade9&#45;4cfacc9b3975&quot;</text>
<text text-anchor="start" x="715" y="-162" font-family="Times,serif" font-size="10.00">receivedTransaction = </text>
<text text-anchor="start" x="715" y="-150" font-family="Times,serif" font-size="10.00">sentTransaction = </text>
<text text-anchor="start" x="715" y="-138" font-family="Times,serif" font-size="10.00">status = &quot;ACTIVE&quot;</text>
</g>
<!-- b&#45;&gt;6637a81a_4aa3_4efe_ade9_4cfacc9b3975 -->
<g id="edge3" class="edge">
<title>b&#45;&gt;6637a81a_4aa3_4efe_ade9_4cfacc9b3975</title>
<path fill="none" stroke="black" d="M1137.85,-291.98C1080.16,-283.17 1021.45,-271.49 967,-256 964.25,-255.22 961.48,-254.38 958.7,-253.51"/>
<text text-anchor="middle" x="976.2" y="-256.51" font-family="Times,serif" font-size="10.00">accounts</text>
<text text-anchor="middle" x="1128.13" y="-282.98" font-family="Times,serif" font-size="10.00">bank</text>
</g>
<!-- fef96271_fd9c_493a_abd7_3bf7aef18657 -->
<g id="node5" class="node">
<title>fef96271_fd9c_493a_abd7_3bf7aef18657</title>
<polygon fill="none" stroke="black" points="1136,-234 1136,-252 1374,-252 1374,-234 1136,-234"/>
<text text-anchor="start" x="1154.62" y="-241" font-family="Times,serif" text-decoration="underline" font-size="10.00">fef96271&#45;fd9c&#45;493a&#45;abd7&#45;3bf7aef18657 :Account</text>
<polygon fill="none" stroke="black" points="1136,-132 1136,-234 1374,-234 1374,-132 1136,-132"/>
<text text-anchor="start" x="1139" y="-222" font-family="Times,serif" font-size="10.00">balance = 0.0</text>
<text text-anchor="start" x="1139" y="-210" font-family="Times,serif" font-size="10.00">count = 0</text>
<text text-anchor="start" x="1139" y="-198" font-family="Times,serif" font-size="10.00">customerId = &quot;6e3cd55b&#45;b55d&#45;4c1c&#45;a631&#45;b801fc915401&quot;</text>
<text text-anchor="start" x="1139" y="-186" font-family="Times,serif" font-size="10.00">iban = &quot;EE319001747935046121&quot;</text>
<text text-anchor="start" x="1139" y="-174" font-family="Times,serif" font-size="10.00">id = &quot;fef96271&#45;fd9c&#45;493a&#45;abd7&#45;3bf7aef18657&quot;</text>
<text text-anchor="start" x="1139" y="-162" font-family="Times,serif" font-size="10.00">receivedTransaction = </text>
<text text-anchor="start" x="1139" y="-150" font-family="Times,serif" font-size="10.00">sentTransaction = </text>
<text text-anchor="start" x="1139" y="-138" font-family="Times,serif" font-size="10.00">status = &quot;ACTIVE&quot;</text>
</g>
<!-- b&#45;&gt;fef96271_fd9c_493a_abd7_3bf7aef18657 -->
<g id="edge4" class="edge">
<title>b&#45;&gt;fef96271_fd9c_493a_abd7_3bf7aef18657</title>
<path fill="none" stroke="black" d="M1437.23,-291.97C1417.79,-281.41 1394.62,-268.83 1371.43,-256.23"/>
<text text-anchor="middle" x="1353.93" y="-259.23" font-family="Times,serif" font-size="10.00">accounts</text>
<text text-anchor="middle" x="1427.51" y="-282.97" font-family="Times,serif" font-size="10.00">bank</text>
</g>
<!-- e172231e_629d_4c1b_be5f_b54139ff2120 -->
<g id="node6" class="node">
<title>e172231e_629d_4c1b_be5f_b54139ff2120</title>
<polygon fill="none" stroke="black" points="1447,-234 1447,-252 1682,-252 1682,-234 1447,-234"/>
<text text-anchor="start" x="1461.89" y="-241" font-family="Times,serif" text-decoration="underline" font-size="10.00">e172231e&#45;629d&#45;4c1b&#45;be5f&#45;b54139ff2120 :Account</text>
<polygon fill="none" stroke="black" points="1447,-132 1447,-234 1682,-234 1682,-132 1447,-132"/>
<text text-anchor="start" x="1450" y="-222" font-family="Times,serif" font-size="10.00">balance = 0.0</text>
<text text-anchor="start" x="1450" y="-210" font-family="Times,serif" font-size="10.00">count = 0</text>
<text text-anchor="start" x="1450" y="-198" font-family="Times,serif" font-size="10.00">customerId = &quot;5d021ce0&#45;a6c8&#45;45e9&#45;ac0f&#45;c2d6d7785ddf&quot;</text>
<text text-anchor="start" x="1450" y="-186" font-family="Times,serif" font-size="10.00">iban = &quot;EE660732275185744626&quot;</text>
<text text-anchor="start" x="1450" y="-174" font-family="Times,serif" font-size="10.00">id = &quot;e172231e&#45;629d&#45;4c1b&#45;be5f&#45;b54139ff2120&quot;</text>
<text text-anchor="start" x="1450" y="-162" font-family="Times,serif" font-size="10.00">receivedTransaction = </text>
<text text-anchor="start" x="1450" y="-150" font-family="Times,serif" font-size="10.00">sentTransaction = </text>
<text text-anchor="start" x="1450" y="-138" font-family="Times,serif" font-size="10.00">status = &quot;ACTIVE&quot;</text>
</g>
<!-- b&#45;&gt;e172231e_629d_4c1b_be5f_b54139ff2120 -->
<g id="edge5" class="edge">
<title>b&#45;&gt;e172231e_629d_4c1b_be5f_b54139ff2120</title>
<path fill="none" stroke="black" d="M1503.52,-291.97C1509.97,-281.41 1517.66,-268.83 1525.36,-256.23"/>
<text text-anchor="middle" x="1507.87" y="-259.23" font-family="Times,serif" font-size="10.00">accounts</text>
<text text-anchor="middle" x="1493.8" y="-282.97" font-family="Times,serif" font-size="10.00">bank</text>
</g>
<!-- 643946d5_d776_40e0_8d35_5499a87f1824 -->
<g id="node7" class="node">
<title>643946d5_d776_40e0_8d35_5499a87f1824</title>
<polygon fill="none" stroke="black" points="1716,-234 1716,-252 1954,-252 1954,-234 1716,-234"/>
<text text-anchor="start" x="1730.16" y="-241" font-family="Times,serif" text-decoration="underline" font-size="10.00">643946d5&#45;d776&#45;40e0&#45;8d35&#45;5499a87f1824 :Account</text>
<polygon fill="none" stroke="black" points="1716,-132 1716,-234 1954,-234 1954,-132 1716,-132"/>
<text text-anchor="start" x="1719" y="-222" font-family="Times,serif" font-size="10.00">balance = 0.0</text>
<text text-anchor="start" x="1719" y="-210" font-family="Times,serif" font-size="10.00">count = 0</text>
<text text-anchor="start" x="1719" y="-198" font-family="Times,serif" font-size="10.00">customerId = &quot;21eb2d43&#45;1a04&#45;430f&#45;b8a5&#45;5612d60a883c&quot;</text>
<text text-anchor="start" x="1719" y="-186" font-family="Times,serif" font-size="10.00">iban = &quot;EE498930772301307533&quot;</text>
<text text-anchor="start" x="1719" y="-174" font-family="Times,serif" font-size="10.00">id = &quot;643946d5&#45;d776&#45;40e0&#45;8d35&#45;5499a87f1824&quot;</text>
<text text-anchor="start" x="1719" y="-162" font-family="Times,serif" font-size="10.00">receivedTransaction = </text>
<text text-anchor="start" x="1719" y="-150" font-family="Times,serif" font-size="10.00">sentTransaction = </text>
<text text-anchor="start" x="1719" y="-138" font-family="Times,serif" font-size="10.00">status = &quot;ACTIVE&quot;</text>
</g>
<!-- b&#45;&gt;643946d5_d776_40e0_8d35_5499a87f1824 -->
<g id="edge6" class="edge">
<title>b&#45;&gt;643946d5_d776_40e0_8d35_5499a87f1824</title>
<path fill="none" stroke="black" d="M1588.82,-291.99C1624.08,-281.78 1663.62,-269.37 1699,-256 1701.92,-254.9 1704.87,-253.76 1707.83,-252.59"/>
<text text-anchor="middle" x="1690.34" y="-255.59" font-family="Times,serif" font-size="10.00">accounts</text>
<text text-anchor="middle" x="1579.1" y="-282.99" font-family="Times,serif" font-size="10.00">bank</text>
</g>
<!-- sendItToTheBank -->
<g id="node8" class="node">
<title>sendItToTheBank</title>
<polygon fill="none" stroke="black" points="985,-234 985,-252 1102,-252 1102,-234 985,-234"/>
<text text-anchor="start" x="987.82" y="-241" font-family="Times,serif" text-decoration="underline" font-size="10.00">sendItToTheBank :Account</text>
<polygon fill="none" stroke="black" points="985,-132 985,-234 1102,-234 1102,-132 985,-132"/>
<text text-anchor="start" x="994.11" y="-222" font-family="Times,serif" font-size="10.00">balance = 69420.0</text>
<text text-anchor="start" x="994.11" y="-210" font-family="Times,serif" font-size="10.00">count = 0</text>
<text text-anchor="start" x="994.11" y="-198" font-family="Times,serif" font-size="10.00">customerId = &quot;&quot;</text>
<text text-anchor="start" x="994.11" y="-186" font-family="Times,serif" font-size="10.00">iban = &quot;&quot;</text>
<text text-anchor="start" x="994.11" y="-174" font-family="Times,serif" font-size="10.00">id = &quot;sendItToTheBank&quot;</text>
<text text-anchor="start" x="994.11" y="-162" font-family="Times,serif" font-size="10.00">receivedTransaction = </text>
<text text-anchor="start" x="994.11" y="-150" font-family="Times,serif" font-size="10.00">sentTransaction = </text>
<text text-anchor="start" x="994.11" y="-138" font-family="Times,serif" font-size="10.00">status = &quot;ACTIVE&quot;</text>
</g>
<!-- b&#45;&gt;sendItToTheBank -->
<g id="edge7" class="edge">
<title>b&#45;&gt;sendItToTheBank</title>
<path fill="none" stroke="black" d="M1226.46,-291.95C1189.43,-283.11 1152.57,-271.43 1119,-256 1115.89,-254.57 1112.79,-252.98 1109.74,-251.26"/>
<text text-anchor="middle" x="1136.4" y="-254.26" font-family="Times,serif" font-size="10.00">bankAccount</text>
<text text-anchor="middle" x="1216.74" y="-282.95" font-family="Times,serif" font-size="10.00">bank</text>
</g>
<!-- b9241394_65dc_4df2_aff2_02ce8883a1cc -->
<g id="node9" class="node">
<title>b9241394_65dc_4df2_aff2_02ce8883a1cc</title>
<polygon fill="none" stroke="black" points="2027,-234 2027,-252 2262,-252 2262,-234 2027,-234"/>
<text text-anchor="start" x="2042.73" y="-241" font-family="Times,serif" text-decoration="underline" font-size="10.00">b9241394&#45;65dc&#45;4df2&#45;aff2&#45;02ce8883a1cc :Account</text>
<polygon fill="none" stroke="black" points="2027,-132 2027,-234 2262,-234 2262,-132 2027,-132"/>
<text text-anchor="start" x="2030" y="-222" font-family="Times,serif" font-size="10.00">balance = 0.0</text>
<text text-anchor="start" x="2030" y="-210" font-family="Times,serif" font-size="10.00">count = 0</text>
<text text-anchor="start" x="2030" y="-198" font-family="Times,serif" font-size="10.00">customerId = &quot;91c6fc4b&#45;e762&#45;4f6d&#45;9c0b&#45;4598162847fd&quot;</text>
<text text-anchor="start" x="2030" y="-186" font-family="Times,serif" font-size="10.00">iban = &quot;EE582847619919000092&quot;</text>
<text text-anchor="start" x="2030" y="-174" font-family="Times,serif" font-size="10.00">id = &quot;b9241394&#45;65dc&#45;4df2&#45;aff2&#45;02ce8883a1cc&quot;</text>
<text text-anchor="start" x="2030" y="-162" font-family="Times,serif" font-size="10.00">receivedTransaction = </text>
<text text-anchor="start" x="2030" y="-150" font-family="Times,serif" font-size="10.00">sentTransaction = </text>
<text text-anchor="start" x="2030" y="-138" font-family="Times,serif" font-size="10.00">status = &quot;ACTIVE&quot;</text>
</g>
<!-- b&#45;&gt;b9241394_65dc_4df2_aff2_02ce8883a1cc -->
<g id="edge8" class="edge">
<title>b&#45;&gt;b9241394_65dc_4df2_aff2_02ce8883a1cc</title>
<path fill="none" stroke="black" d="M1829.85,-291.98C1888.55,-283.17 1948.48,-271.49 2004,-256 2008.75,-254.68 2013.54,-253.21 2018.35,-251.64"/>
<text text-anchor="middle" x="2000.86" y="-254.64" font-family="Times,serif" font-size="10.00">accounts</text>
<text text-anchor="middle" x="1820.13" y="-282.98" font-family="Times,serif" font-size="10.00">bank</text>
</g>
<!-- 64d2b6ad_1faa_48df_8f99_6857c8ed1721 -->
<g id="node10" class="node">
<title>64d2b6ad_1faa_48df_8f99_6857c8ed1721</title>
<polygon fill="none" stroke="black" points="2373,-234 2373,-252 2610,-252 2610,-234 2373,-234"/>
<text text-anchor="start" x="2389.17" y="-241" font-family="Times,serif" text-decoration="underline" font-size="10.00">64d2b6ad&#45;1faa&#45;48df&#45;8f99&#45;6857c8ed1721 :Account</text>
<polygon fill="none" stroke="black" points="2373,-132 2373,-234 2610,-234 2610,-132 2373,-132"/>
<text text-anchor="start" x="2376" y="-222" font-family="Times,serif" font-size="10.00">balance = 0.0</text>
<text text-anchor="start" x="2376" y="-210" font-family="Times,serif" font-size="10.00">count = 0</text>
<text text-anchor="start" x="2376" y="-198" font-family="Times,serif" font-size="10.00">customerId = &quot;157ec70c&#45;4e73&#45;4934&#45;88dc&#45;d5508f1a2cdd&quot;</text>
<text text-anchor="start" x="2376" y="-186" font-family="Times,serif" font-size="10.00">iban = &quot;EE861841777016350585&quot;</text>
<text text-anchor="start" x="2376" y="-174" font-family="Times,serif" font-size="10.00">id = &quot;64d2b6ad&#45;1faa&#45;48df&#45;8f99&#45;6857c8ed1721&quot;</text>
<text text-anchor="start" x="2376" y="-162" font-family="Times,serif" font-size="10.00">receivedTransaction = </text>
<text text-anchor="start" x="2376" y="-150" font-family="Times,serif" font-size="10.00">sentTransaction = </text>
<text text-anchor="start" x="2376" y="-138" font-family="Times,serif" font-size="10.00">status = &quot;ACTIVE&quot;</text>
</g>
<!-- b&#45;&gt;64d2b6ad_1faa_48df_8f99_6857c8ed1721 -->
<g id="edge9" class="edge">
<title>b&#45;&gt;64d2b6ad_1faa_48df_8f99_6857c8ed1721</title>
<path fill="none" stroke="black" d="M2059.43,-292C2180.93,-282.82 2290.45,-270.99 2350,-256 2354.68,-254.82 2359.4,-253.5 2364.13,-252.06"/>
<text text-anchor="middle" x="2346.64" y="-255.06" font-family="Times,serif" font-size="10.00">accounts</text>
<text text-anchor="middle" x="2049.71" y="-283" font-family="Times,serif" font-size="10.00">bank</text>
</g>
<!-- 4b959c35_1bb5_4b76_aa37_bd71860794e1 -->
<g id="node11" class="node">
<title>4b959c35_1bb5_4b76_aa37_bd71860794e1</title>
<polygon fill="none" stroke="black" points="2682,-216 2682,-234 2920,-234 2920,-216 2682,-216"/>
<text text-anchor="start" x="2684.77" y="-223" font-family="Times,serif" text-decoration="underline" font-size="10.00">4b959c35&#45;1bb5&#45;4b76&#45;aa37&#45;bd71860794e1 :Administrator</text>
<polygon fill="none" stroke="black" points="2682,-150 2682,-216 2920,-216 2920,-150 2682,-150"/>
<text text-anchor="start" x="2702.18" y="-204" font-family="Times,serif" font-size="10.00">email = &quot;admin@bank.ee&quot;</text>
<text text-anchor="start" x="2702.18" y="-192" font-family="Times,serif" font-size="10.00">firstName = &quot;Admin&quot;</text>
<text text-anchor="start" x="2702.18" y="-180" font-family="Times,serif" font-size="10.00">id = &quot;4b959c35&#45;1bb5&#45;4b76&#45;aa37&#45;bd71860794e1&quot;</text>
<text text-anchor="start" x="2702.18" y="-168" font-family="Times,serif" font-size="10.00">lastName = &quot;Alice&quot;</text>
<text text-anchor="start" x="2702.18" y="-156" font-family="Times,serif" font-size="10.00">password = &quot;secure_p@ssw0|2d&quot;</text>
</g>
<!-- b&#45;&gt;4b959c35_1bb5_4b76_aa37_bd71860794e1 -->
<g id="edge10" class="edge">
<title>b&#45;&gt;4b959c35_1bb5_4b76_aa37_bd71860794e1</title>
<path fill="none" stroke="black" d="M2227.54,-300.39C2407.38,-291.05 2572.9,-277.03 2660,-256 2677.72,-251.72 2695.98,-245.27 2713.23,-238.1"/>
<text text-anchor="middle" x="2684.63" y="-241.1" font-family="Times,serif" font-size="10.00">administrators</text>
<text text-anchor="middle" x="2237.26" y="-303.39" font-family="Times,serif" font-size="10.00">bank</text>
</g>
<!-- 21eb2d43_1a04_430f_b8a5_5612d60a883c -->
<g id="node12" class="node">
<title>21eb2d43_1a04_430f_b8a5_5612d60a883c</title>
<polygon fill="none" stroke="black" points="1903,-70 1903,-88 2122,-88 2122,-70 1903,-70"/>
<text text-anchor="start" x="1906" y="-77" font-family="Times,serif" text-decoration="underline" font-size="10.00">21eb2d43&#45;1a04&#45;430f&#45;b8a5&#45;5612d60a883c :Customer</text>
<polygon fill="none" stroke="black" points="1903,-4 1903,-70 2122,-70 2122,-4 1903,-4"/>
<text text-anchor="start" x="1914.79" y="-58" font-family="Times,serif" font-size="10.00">email = &quot;ASDSD@ASDbuASmdDSDe.com&quot;</text>
<text text-anchor="start" x="1914.79" y="-46" font-family="Times,serif" font-size="10.00">firstName = &quot;gaASDSSDF&quot;</text>
<text text-anchor="start" x="1914.79" y="-34" font-family="Times,serif" font-size="10.00">id = &quot;21eb2d43&#45;1a04&#45;430f&#45;b8a5&#45;5612d60a883c&quot;</text>
<text text-anchor="start" x="1914.79" y="-22" font-family="Times,serif" font-size="10.00">lastName = &quot;DFSDDSA&quot;</text>
<text text-anchor="start" x="1914.79" y="-10" font-family="Times,serif" font-size="10.00">password = &quot;MPO4yynMyN&quot;</text>
</g>
<!-- b&#45;&gt;21eb2d43_1a04_430f_b8a5_5612d60a883c -->
<g id="edge11" class="edge">
<title>b&#45;&gt;21eb2d43_1a04_430f_b8a5_5612d60a883c</title>
<path fill="none" stroke="black" d="M2140.24,-291.98C2212.07,-283.17 2264.7,-271.48 2279,-256 2317.6,-214.21 2313.01,-173.6 2279,-128 2245.46,-83.02 2211.7,-108.26 2158,-92 2148.73,-89.19 2139.14,-86.27 2129.51,-83.33"/>
<text text-anchor="middle" x="2149.78" y="-86.33" font-family="Times,serif" font-size="10.00">customers</text>
<text text-anchor="middle" x="2130.52" y="-282.98" font-family="Times,serif" font-size="10.00">bank</text>
</g>
<!-- a70d08d5_ec28_467a_adaf_6845d3e3ea04 -->
<g id="node13" class="node">
<title>a70d08d5_ec28_467a_adaf_6845d3e3ea04</title>
<polygon fill="none" stroke="black" points="8,-70 8,-88 224,-88 224,-70 8,-70"/>
<text text-anchor="start" x="10.62" y="-77" font-family="Times,serif" text-decoration="underline" font-size="10.00">a70d08d5&#45;ec28&#45;467a&#45;adaf&#45;6845d3e3ea04 :Customer</text>
<polygon fill="none" stroke="black" points="8,-4 8,-70 224,-70 224,-4 8,-4"/>
<text text-anchor="start" x="19.41" y="-58" font-family="Times,serif" font-size="10.00">email = &quot;Egjs@bumde.com&quot;</text>
<text text-anchor="start" x="19.41" y="-46" font-family="Times,serif" font-size="10.00">firstName = &quot;Egjs&quot;</text>
<text text-anchor="start" x="19.41" y="-34" font-family="Times,serif" font-size="10.00">id = &quot;a70d08d5&#45;ec28&#45;467a&#45;adaf&#45;6845d3e3ea04&quot;</text>
<text text-anchor="start" x="19.41" y="-22" font-family="Times,serif" font-size="10.00">lastName = &quot;Bumde&quot;</text>
<text text-anchor="start" x="19.41" y="-10" font-family="Times,serif" font-size="10.00">password = &quot;kJOIgFvIOW&quot;</text>
</g>
<!-- b&#45;&gt;a70d08d5_ec28_467a_adaf_6845d3e3ea04 -->
<g id="edge12" class="edge">
<title>b&#45;&gt;a70d08d5_ec28_467a_adaf_6845d3e3ea04</title>
<path fill="none" stroke="black" d="M746.37,-307.26C419.94,-298.31 103.6,-282.77 78,-256 36.33,-212.42 63.38,-139.26 88.38,-92.07"/>
<text text-anchor="middle" x="68.11" y="-95.07" font-family="Times,serif" font-size="10.00">customers</text>
<text text-anchor="middle" x="736.65" y="-310.26" font-family="Times,serif" font-size="10.00">bank</text>
</g>
<!-- 5d021ce0_a6c8_45e9_ac0f_c2d6d7785ddf -->
<g id="node14" class="node">
<title>5d021ce0_a6c8_45e9_ac0f_c2d6d7785ddf</title>
<polygon fill="none" stroke="black" points="1616,-70 1616,-88 1831,-88 1831,-70 1616,-70"/>
<text text-anchor="start" x="1618.68" y="-77" font-family="Times,serif" text-decoration="underline" font-size="10.00">5d021ce0&#45;a6c8&#45;45e9&#45;ac0f&#45;c2d6d7785ddf :Customer</text>
<polygon fill="none" stroke="black" points="1616,-4 1616,-70 1831,-70 1831,-4 1616,-4"/>
<text text-anchor="start" x="1627.47" y="-58" font-family="Times,serif" font-size="10.00">email = &quot;SD@ASDbuASmdDSDe.com&quot;</text>
<text text-anchor="start" x="1627.47" y="-46" font-family="Times,serif" font-size="10.00">firstName = &quot;gaASDSSDF&quot;</text>
<text text-anchor="start" x="1627.47" y="-34" font-family="Times,serif" font-size="10.00">id = &quot;5d021ce0&#45;a6c8&#45;45e9&#45;ac0f&#45;c2d6d7785ddf&quot;</text>
<text text-anchor="start" x="1627.47" y="-22" font-family="Times,serif" font-size="10.00">lastName = &quot;DFSDDSA&quot;</text>
<text text-anchor="start" x="1627.47" y="-10" font-family="Times,serif" font-size="10.00">password = &quot;8o45xEnM0B&quot;</text>
</g>
<!-- b&#45;&gt;5d021ce0_a6c8_45e9_ac0f_c2d6d7785ddf -->
<g id="edge13" class="edge">
<title>b&#45;&gt;5d021ce0_a6c8_45e9_ac0f_c2d6d7785ddf</title>
<path fill="none" stroke="black" d="M1817.41,-291.99C1894.69,-282.4 1958.4,-270.35 1971,-256 2008.54,-213.26 2004.4,-174.05 1971,-128 1962.39,-116.13 1899.03,-95.54 1838.51,-78.09"/>
<text text-anchor="middle" x="1858.78" y="-81.09" font-family="Times,serif" font-size="10.00">customers</text>
<text text-anchor="middle" x="1807.69" y="-282.99" font-family="Times,serif" font-size="10.00">bank</text>
</g>
<!-- 6e3cd55b_b55d_4c1c_a631_b801fc915401 -->
<g id="node15" class="node">
<title>6e3cd55b_b55d_4c1c_a631_b801fc915401</title>
<polygon fill="none" stroke="black" points="1301,-70 1301,-88 1519,-88 1519,-70 1301,-70"/>
<text text-anchor="start" x="1303.78" y="-77" font-family="Times,serif" text-decoration="underline" font-size="10.00">6e3cd55b&#45;b55d&#45;4c1c&#45;a631&#45;b801fc915401 :Customer</text>
<polygon fill="none" stroke="black" points="1301,-4 1301,-70 1519,-70 1519,-4 1301,-4"/>
<text text-anchor="start" x="1312.57" y="-58" font-family="Times,serif" font-size="10.00">email = &quot;SD@buASmdDSDe.com&quot;</text>
<text text-anchor="start" x="1312.57" y="-46" font-family="Times,serif" font-size="10.00">firstName = &quot;gaASDSSDF&quot;</text>
<text text-anchor="start" x="1312.57" y="-34" font-family="Times,serif" font-size="10.00">id = &quot;6e3cd55b&#45;b55d&#45;4c1c&#45;a631&#45;b801fc915401&quot;</text>
<text text-anchor="start" x="1312.57" y="-22" font-family="Times,serif" font-size="10.00">lastName = &quot;DFSDDSA&quot;</text>
<text text-anchor="start" x="1312.57" y="-10" font-family="Times,serif" font-size="10.00">password = &quot;XwglsWexlk&quot;</text>
</g>
<!-- b&#45;&gt;6e3cd55b_b55d_4c1c_a631_b801fc915401 -->
<g id="edge14" class="edge">
<title>b&#45;&gt;6e3cd55b_b55d_4c1c_a631_b801fc915401</title>
<path fill="none" stroke="black" d="M1455.33,-291.74C1445.55,-281.56 1435.83,-269.23 1430,-256 1406.76,-203.31 1404.59,-136.04 1406.33,-92.27"/>
<text text-anchor="middle" x="1386.06" y="-95.27" font-family="Times,serif" font-size="10.00">customers</text>
<text text-anchor="middle" x="1465.05" y="-282.74" font-family="Times,serif" font-size="10.00">bank</text>
</g>
<!-- 91c6fc4b_e762_4f6d_9c0b_4598162847fd -->
<g id="node16" class="node">
<title>91c6fc4b_e762_4f6d_9c0b_4598162847fd</title>
<polygon fill="none" stroke="black" points="2175,-70 2175,-88 2391,-88 2391,-70 2175,-70"/>
<text text-anchor="start" x="2177.89" y="-77" font-family="Times,serif" text-decoration="underline" font-size="10.00">91c6fc4b&#45;e762&#45;4f6d&#45;9c0b&#45;4598162847fd :Customer</text>
<polygon fill="none" stroke="black" points="2175,-4 2175,-70 2391,-70 2391,-4 2175,-4"/>
<text text-anchor="start" x="2186.68" y="-58" font-family="Times,serif" font-size="10.00">email = &quot;SD@bumdSDe.com&quot;</text>
<text text-anchor="start" x="2186.68" y="-46" font-family="Times,serif" font-size="10.00">firstName = &quot;gaSDF&quot;</text>
<text text-anchor="start" x="2186.68" y="-34" font-family="Times,serif" font-size="10.00">id = &quot;91c6fc4b&#45;e762&#45;4f6d&#45;9c0b&#45;4598162847fd&quot;</text>
<text text-anchor="start" x="2186.68" y="-22" font-family="Times,serif" font-size="10.00">lastName = &quot;ASDGASD&quot;</text>
<text text-anchor="start" x="2186.68" y="-10" font-family="Times,serif" font-size="10.00">password = &quot;nKmNEdLM2M&quot;</text>
</g>
<!-- b&#45;&gt;91c6fc4b_e762_4f6d_9c0b_4598162847fd -->
<g id="edge15" class="edge">
<title>b&#45;&gt;91c6fc4b_e762_4f6d_9c0b_4598162847fd</title>
<path fill="none" stroke="black" d="M2169.71,-291.97C2240.28,-283.15 2291.68,-271.47 2306,-256 2346.43,-212.34 2326.05,-139.55 2305.91,-92.42"/>
<text text-anchor="middle" x="2285.64" y="-95.42" font-family="Times,serif" font-size="10.00">customers</text>
<text text-anchor="middle" x="2159.99" y="-282.97" font-family="Times,serif" font-size="10.00">bank</text>
</g>
<!-- 8bd34921_c54a_45db_b0b0_fd24d38a9a40 -->
<g id="node17" class="node">
<title>8bd34921_c54a_45db_b0b0_fd24d38a9a40</title>
<polygon fill="none" stroke="black" points="644,-70 644,-88 863,-88 863,-70 644,-70"/>
<text text-anchor="start" x="646.72" y="-77" font-family="Times,serif" text-decoration="underline" font-size="10.00">8bd34921&#45;c54a&#45;45db&#45;b0b0&#45;fd24d38a9a40 :Customer</text>
<polygon fill="none" stroke="black" points="644,-4 644,-70 863,-70 863,-4 644,-4"/>
<text text-anchor="start" x="655.51" y="-58" font-family="Times,serif" font-size="10.00">email = &quot;SD@bumdDSDe.com&quot;</text>
<text text-anchor="start" x="655.51" y="-46" font-family="Times,serif" font-size="10.00">firstName = &quot;gaSSDF&quot;</text>
<text text-anchor="start" x="655.51" y="-34" font-family="Times,serif" font-size="10.00">id = &quot;8bd34921&#45;c54a&#45;45db&#45;b0b0&#45;fd24d38a9a40&quot;</text>
<text text-anchor="start" x="655.51" y="-22" font-family="Times,serif" font-size="10.00">lastName = &quot;DFDSA&quot;</text>
<text text-anchor="start" x="655.51" y="-10" font-family="Times,serif" font-size="10.00">password = &quot;vebptuDwoS&quot;</text>
</g>
<!-- b&#45;&gt;8bd34921_c54a_45db_b0b0_fd24d38a9a40 -->
<g id="edge16" class="edge">
<title>b&#45;&gt;8bd34921_c54a_45db_b0b0_fd24d38a9a40</title>
<path fill="none" stroke="black" d="M832.49,-291.96C760.8,-283.15 708.29,-271.47 694,-256 655.4,-214.21 676.39,-182.09 694,-128 698.09,-115.43 704.96,-103.18 712.58,-92.18"/>
<text text-anchor="middle" x="692.31" y="-95.18" font-family="Times,serif" font-size="10.00">customers</text>
<text text-anchor="middle" x="822.77" y="-282.96" font-family="Times,serif" font-size="10.00">bank</text>
</g>
<!-- 67b83f8f_3613_497c_9186_503f6a3679d2 -->
<g id="node18" class="node">
<title>67b83f8f_3613_497c_9186_503f6a3679d2</title>
<polygon fill="none" stroke="black" points="287,-70 287,-88 504,-88 504,-70 287,-70"/>
<text text-anchor="start" x="289.83" y="-77" font-family="Times,serif" text-decoration="underline" font-size="10.00">67b83f8f&#45;3613&#45;497c&#45;9186&#45;503f6a3679d2 :Customer</text>
<polygon fill="none" stroke="black" points="287,-4 287,-70 504,-70 504,-4 287,-4"/>
<text text-anchor="start" x="298.62" y="-58" font-family="Times,serif" font-size="10.00">email = &quot;ASDSD@SD.com&quot;</text>
<text text-anchor="start" x="298.62" y="-46" font-family="Times,serif" font-size="10.00">firstName = &quot;gaASDSSDF&quot;</text>
<text text-anchor="start" x="298.62" y="-34" font-family="Times,serif" font-size="10.00">id = &quot;67b83f8f&#45;3613&#45;497c&#45;9186&#45;503f6a3679d2&quot;</text>
<text text-anchor="start" x="298.62" y="-22" font-family="Times,serif" font-size="10.00">lastName = &quot;DFSDDSA&quot;</text>
<text text-anchor="start" x="298.62" y="-10" font-family="Times,serif" font-size="10.00">password = &quot;sxIY3VEQYe&quot;</text>
</g>
<!-- b&#45;&gt;67b83f8f_3613_497c_9186_503f6a3679d2 -->
<g id="edge17" class="edge">
<title>b&#45;&gt;67b83f8f_3613_497c_9186_503f6a3679d2</title>
<path fill="none" stroke="black" d="M746.48,-295.18C557.05,-285.45 401.6,-272.52 386,-256 345.23,-212.83 360.21,-139.55 376.35,-92.23"/>
<text text-anchor="middle" x="356.08" y="-95.23" font-family="Times,serif" font-size="10.00">customers</text>
<text text-anchor="middle" x="736.76" y="-286.18" font-family="Times,serif" font-size="10.00">bank</text>
</g>
<!-- 157ec70c_4e73_4934_88dc_d5508f1a2cdd -->
<g id="node19" class="node">
<title>157ec70c_4e73_4934_88dc_d5508f1a2cdd</title>
<polygon fill="none" stroke="black" points="2435,-70 2435,-88 2652,-88 2652,-70 2435,-70"/>
<text text-anchor="start" x="2437.56" y="-77" font-family="Times,serif" text-decoration="underline" font-size="10.00">157ec70c&#45;4e73&#45;4934&#45;88dc&#45;d5508f1a2cdd :Customer</text>
<polygon fill="none" stroke="black" points="2435,-4 2435,-70 2652,-70 2652,-4 2435,-4"/>
<text text-anchor="start" x="2446.35" y="-58" font-family="Times,serif" font-size="10.00">email = &quot;HJ@SD.com&quot;</text>
<text text-anchor="start" x="2446.35" y="-46" font-family="Times,serif" font-size="10.00">firstName = &quot;gaASDSSDF&quot;</text>
<text text-anchor="start" x="2446.35" y="-34" font-family="Times,serif" font-size="10.00">id = &quot;157ec70c&#45;4e73&#45;4934&#45;88dc&#45;d5508f1a2cdd&quot;</text>
<text text-anchor="start" x="2446.35" y="-22" font-family="Times,serif" font-size="10.00">lastName = &quot;DFSDDSA&quot;</text>
<text text-anchor="start" x="2446.35" y="-10" font-family="Times,serif" font-size="10.00">password = &quot;oowVsQd8RN&quot;</text>
</g>
<!-- b&#45;&gt;157ec70c_4e73_4934_88dc_d5508f1a2cdd -->
<g id="edge18" class="edge">
<title>b&#45;&gt;157ec70c_4e73_4934_88dc_d5508f1a2cdd</title>
<path fill="none" stroke="black" d="M2227.59,-297.12C2435.39,-287.31 2610.12,-273.84 2627,-256 2666.1,-214.68 2649.25,-180.36 2627,-128 2621.37,-114.76 2612.41,-102.64 2602.39,-92.02"/>
<text text-anchor="middle" x="2582.12" y="-95.02" font-family="Times,serif" font-size="10.00">customers</text>
<text text-anchor="middle" x="2237.31" y="-288.12" font-family="Times,serif" font-size="10.00">bank</text>
</g>
<!-- c95c6fe2_1742_40a2_9dfa_f0dcc90243d0&#45;&gt;a70d08d5_ec28_467a_adaf_6845d3e3ea04 -->
<g id="edge20" class="edge">
<title>c95c6fe2_1742_40a2_9dfa_f0dcc90243d0&#45;&gt;a70d08d5_ec28_467a_adaf_6845d3e3ea04</title>
<path fill="none" stroke="black" d="M170.45,-127.84C162.41,-115.9 154.15,-103.63 146.56,-92.37"/>
<text text-anchor="middle" x="134.07" y="-95.37" font-family="Times,serif" font-size="10.00">owner</text>
<text text-anchor="middle" x="154.91" y="-118.84" font-family="Times,serif" font-size="10.00">account</text>
</g>
<!-- c -->
<g id="node20" class="node">
<title>c</title>
<polygon fill="none" stroke="black" points="1105,-46 1105,-64 1267,-64 1267,-46 1105,-46"/>
<text text-anchor="start" x="1162.54" y="-53" font-family="Times,serif" text-decoration="underline" font-size="10.00">c :Currency</text>
<polygon fill="none" stroke="black" points="1105,-28 1105,-46 1267,-46 1267,-28 1105,-28"/>
<text text-anchor="start" x="1108" y="-34" font-family="Times,serif" font-size="10.00">declaringClass = class model.Currency</text>
</g>
<!-- c95c6fe2_1742_40a2_9dfa_f0dcc90243d0&#45;&gt;c -->
<g id="edge19" class="edge">
<title>c95c6fe2_1742_40a2_9dfa_f0dcc90243d0&#45;&gt;c</title>
<path fill="none" stroke="black" d="M339.37,-140.48C354.89,-135.61 370.69,-131.28 386,-128 600.82,-81.97 660.61,-115.95 879,-92 952.63,-83.93 1035.73,-71.54 1096.89,-61.81"/>
<text text-anchor="middle" x="1079.4" y="-64.81" font-family="Times,serif" font-size="10.00">currency</text>
</g>
<!-- bf79c166_c5aa_428e_8e43_627e62335724&#45;&gt;67b83f8f_3613_497c_9186_503f6a3679d2 -->
<g id="edge22" class="edge">
<title>bf79c166_c5aa_428e_8e43_627e62335724&#45;&gt;67b83f8f_3613_497c_9186_503f6a3679d2</title>
<path fill="none" stroke="black" d="M465.73,-127.84C455.29,-115.9 444.55,-103.63 434.7,-92.37"/>
<text text-anchor="middle" x="422.21" y="-95.37" font-family="Times,serif" font-size="10.00">owner</text>
<text text-anchor="middle" x="450.19" y="-118.84" font-family="Times,serif" font-size="10.00">account</text>
</g>
<!-- bf79c166_c5aa_428e_8e43_627e62335724&#45;&gt;c -->
<g id="edge21" class="edge">
<title>bf79c166_c5aa_428e_8e43_627e62335724&#45;&gt;c</title>
<path fill="none" stroke="black" d="M647.22,-141.98C662.84,-136.82 678.69,-132.01 694,-128 768.37,-108.52 976.4,-77.08 1096.8,-59.65"/>
<text text-anchor="middle" x="1079.32" y="-50.65" font-family="Times,serif" font-size="10.00">currency</text>
</g>
<!-- 6637a81a_4aa3_4efe_ade9_4cfacc9b3975&#45;&gt;8bd34921_c54a_45db_b0b0_fd24d38a9a40 -->
<g id="edge24" class="edge">
<title>6637a81a_4aa3_4efe_ade9_4cfacc9b3975&#45;&gt;8bd34921_c54a_45db_b0b0_fd24d38a9a40</title>
<path fill="none" stroke="black" d="M796.79,-127.84C790.32,-115.9 783.67,-103.63 777.58,-92.37"/>
<text text-anchor="middle" x="765.08" y="-95.37" font-family="Times,serif" font-size="10.00">owner</text>
<text text-anchor="middle" x="781.24" y="-118.84" font-family="Times,serif" font-size="10.00">account</text>
</g>
<!-- 6637a81a_4aa3_4efe_ade9_4cfacc9b3975&#45;&gt;c -->
<g id="edge23" class="edge">
<title>6637a81a_4aa3_4efe_ade9_4cfacc9b3975&#45;&gt;c</title>
<path fill="none" stroke="black" d="M958.64,-131.51C961.45,-130.32 964.24,-129.15 967,-128 1019.78,-106.06 1080.85,-83.71 1125.08,-68.07"/>
<text text-anchor="middle" x="1142.56" y="-71.07" font-family="Times,serif" font-size="10.00">currency</text>
</g>
<!-- fef96271_fd9c_493a_abd7_3bf7aef18657&#45;&gt;6e3cd55b_b55d_4c1c_a631_b801fc915401 -->
<g id="edge26" class="edge">
<title>fef96271_fd9c_493a_abd7_3bf7aef18657&#45;&gt;6e3cd55b_b55d_4c1c_a631_b801fc915401</title>
<path fill="none" stroke="black" d="M1322.99,-127.84C1335.84,-115.9 1349.04,-103.63 1361.16,-92.37"/>
<text text-anchor="middle" x="1348.67" y="-95.37" font-family="Times,serif" font-size="10.00">owner</text>
<text text-anchor="middle" x="1307.44" y="-118.84" font-family="Times,serif" font-size="10.00">account</text>
</g>
<!-- fef96271_fd9c_493a_abd7_3bf7aef18657&#45;&gt;c -->
<g id="edge25" class="edge">
<title>fef96271_fd9c_493a_abd7_3bf7aef18657&#45;&gt;c</title>
<path fill="none" stroke="black" d="M1224.74,-127.84C1214.45,-106.38 1203.66,-83.85 1196.09,-68.05"/>
<text text-anchor="middle" x="1178.6" y="-71.05" font-family="Times,serif" font-size="10.00">currency</text>
</g>
<!-- e172231e_629d_4c1b_be5f_b54139ff2120&#45;&gt;5d021ce0_a6c8_45e9_ac0f_c2d6d7785ddf -->
<g id="edge28" class="edge">
<title>e172231e_629d_4c1b_be5f_b54139ff2120&#45;&gt;5d021ce0_a6c8_45e9_ac0f_c2d6d7785ddf</title>
<path fill="none" stroke="black" d="M1633.74,-127.84C1646.92,-115.9 1660.47,-103.63 1672.9,-92.37"/>
<text text-anchor="middle" x="1660.41" y="-95.37" font-family="Times,serif" font-size="10.00">owner</text>
<text text-anchor="middle" x="1618.19" y="-118.84" font-family="Times,serif" font-size="10.00">account</text>
</g>
<!-- e172231e_629d_4c1b_be5f_b54139ff2120&#45;&gt;c -->
<g id="edge27" class="edge">
<title>e172231e_629d_4c1b_be5f_b54139ff2120&#45;&gt;c</title>
<path fill="none" stroke="black" d="M1438.46,-144.87C1422.51,-139.13 1406.39,-133.39 1391,-128 1343.65,-111.41 1330.64,-110.49 1284,-92 1265.9,-84.82 1246.33,-76.05 1229.48,-68.16"/>
<text text-anchor="middle" x="1246.96" y="-71.16" font-family="Times,serif" font-size="10.00">currency</text>
</g>
<!-- 643946d5_d776_40e0_8d35_5499a87f1824&#45;&gt;21eb2d43_1a04_430f_b8a5_5612d60a883c -->
<g id="edge30" class="edge">
<title>643946d5_d776_40e0_8d35_5499a87f1824&#45;&gt;21eb2d43_1a04_430f_b8a5_5612d60a883c</title>
<path fill="none" stroke="black" d="M1912.63,-127.84C1927.4,-115.82 1942.58,-103.48 1956.49,-92.16"/>
<text text-anchor="middle" x="1944" y="-95.16" font-family="Times,serif" font-size="10.00">owner</text>
<text text-anchor="middle" x="1897.09" y="-118.84" font-family="Times,serif" font-size="10.00">account</text>
</g>
<!-- 643946d5_d776_40e0_8d35_5499a87f1824&#45;&gt;c -->
<g id="edge29" class="edge">
<title>643946d5_d776_40e0_8d35_5499a87f1824&#45;&gt;c</title>
<path fill="none" stroke="black" d="M1707.71,-130.48C1704.8,-129.6 1701.89,-128.77 1699,-128 1520.09,-80.37 1462.99,-139.33 1284,-92 1263.37,-86.54 1241.68,-77.02 1223.96,-68.14"/>
<text text-anchor="middle" x="1206.47" y="-71.14" font-family="Times,serif" font-size="10.00">currency</text>
</g>
<!-- sendItToTheBank&#45;&gt;c -->
<g id="edge31" class="edge">
<title>sendItToTheBank&#45;&gt;c</title>
<path fill="none" stroke="black" d="M1105.72,-127.84C1127.03,-106.38 1149.4,-83.85 1165.1,-68.05"/>
<text text-anchor="middle" x="1147.61" y="-71.05" font-family="Times,serif" font-size="10.00">currency</text>
</g>
<!-- b9241394_65dc_4df2_aff2_02ce8883a1cc&#45;&gt;91c6fc4b_e762_4f6d_9c0b_4598162847fd -->
<g id="edge33" class="edge">
<title>b9241394_65dc_4df2_aff2_02ce8883a1cc&#45;&gt;91c6fc4b_e762_4f6d_9c0b_4598162847fd</title>
<path fill="none" stroke="black" d="M2204.97,-127.84C2216.49,-115.9 2228.34,-103.63 2239.2,-92.37"/>
<text text-anchor="middle" x="2226.71" y="-95.37" font-family="Times,serif" font-size="10.00">owner</text>
<text text-anchor="middle" x="2189.42" y="-118.84" font-family="Times,serif" font-size="10.00">account</text>
</g>
<!-- b9241394_65dc_4df2_aff2_02ce8883a1cc&#45;&gt;c -->
<g id="edge32" class="edge">
<title>b9241394_65dc_4df2_aff2_02ce8883a1cc&#45;&gt;c</title>
<path fill="none" stroke="black" d="M2018.17,-140.32C2002.48,-135.45 1986.5,-131.16 1971,-128 1671.39,-67.02 1580.89,-165.1 1284,-92 1263.09,-86.85 1241.19,-77.25 1223.41,-68.23"/>
<text text-anchor="middle" x="1240.9" y="-71.23" font-family="Times,serif" font-size="10.00">currency</text>
</g>
<!-- 64d2b6ad_1faa_48df_8f99_6857c8ed1721&#45;&gt;157ec70c_4e73_4934_88dc_d5508f1a2cdd -->
<g id="edge35" class="edge">
<title>64d2b6ad_1faa_48df_8f99_6857c8ed1721&#45;&gt;157ec70c_4e73_4934_88dc_d5508f1a2cdd</title>
<path fill="none" stroke="black" d="M2513.81,-127.84C2518.12,-115.9 2522.55,-103.63 2526.62,-92.37"/>
<text text-anchor="middle" x="2514.12" y="-95.37" font-family="Times,serif" font-size="10.00">owner</text>
<text text-anchor="middle" x="2498.26" y="-118.84" font-family="Times,serif" font-size="10.00">account</text>
</g>
<!-- 64d2b6ad_1faa_48df_8f99_6857c8ed1721&#45;&gt;c -->
<g id="edge34" class="edge">
<title>64d2b6ad_1faa_48df_8f99_6857c8ed1721&#45;&gt;c</title>
<path fill="none" stroke="black" d="M2364.42,-147.72C2336.58,-139.8 2307.04,-132.6 2279,-128 2060.66,-92.2 1499.26,-143.16 1284,-92 1262.87,-86.98 1240.77,-77.27 1222.91,-68.15"/>
<text text-anchor="middle" x="1205.43" y="-59.15" font-family="Times,serif" font-size="10.00">currency</text>
</g>
</g>
</svg>
