<?xml version="1.0" encoding="UTF-8" standalone="no"?>
<!DOCTYPE svg PUBLIC "-//W3C//DTD SVG 1.1//EN"
 "http://www.w3.org/Graphics/SVG/1.1/DTD/svg11.dtd">
<!-- Generated by graphviz version 2.44.0 (20200408.0750)
 -->
<!-- Pages: 1 -->
<svg width="558px" height="264px"
 viewBox="0.00 0.00 557.50 264.00" xmlns="http://www.w3.org/2000/svg" xmlns:xlink="http://www.w3.org/1999/xlink">
<g id="graph0" class="graph" transform="scale(1.0 1.0) rotate(0) translate(4 260)">
<polygon fill="white" stroke="transparent" points="-4,4 -4,-260 553.5,-260 553.5,4 -4,4"/>
<!-- b -->
<g id="node1" class="node">
<title>b</title>
<polygon fill="none" stroke="black" points="344.5,-232 344.5,-250 381.5,-250 381.5,-232 344.5,-232"/>
<text text-anchor="start" x="347.31" y="-239" font-family="Times,serif" text-decoration="underline" font-size="10.00">b :Bank</text>
<polygon fill="none" stroke="black" points="344.5,-226 344.5,-232 381.5,-232 381.5,-226 344.5,-226"/>
</g>
<!-- af246e20_b186_437b_9d89_3b9c355d3d54 -->
<g id="node2" class="node">
<title>af246e20_b186_437b_9d89_3b9c355d3d54</title>
<polygon fill="none" stroke="black" points="8.5,-162 8.5,-180 223.5,-180 223.5,-162 8.5,-162"/>
<text text-anchor="start" x="11.44" y="-169" font-family="Times,serif" text-decoration="underline" font-size="10.00">af246e20&#45;b186&#45;437b&#45;9d89&#45;3b9c355d3d54 :Account</text>
<polygon fill="none" stroke="black" points="8.5,-132 8.5,-162 223.5,-162 223.5,-132 8.5,-132"/>
<text text-anchor="start" x="17.73" y="-150" font-family="Times,serif" font-size="10.00">balance = 69420.0</text>
<text text-anchor="start" x="17.73" y="-138" font-family="Times,serif" font-size="10.00">id = &quot;af246e20&#45;b186&#45;437b&#45;9d89&#45;3b9c355d3d54&quot;</text>
</g>
<!-- b&#45;&gt;af246e20_b186_437b_9d89_3b9c355d3d54 -->
<g id="edge1" class="edge">
<title>b&#45;&gt;af246e20_b186_437b_9d89_3b9c355d3d54</title>
<path fill="none" stroke="black" d="M335.12,-228.13C302.47,-217.56 246.34,-199.38 199,-184.05"/>
<text text-anchor="middle" x="172.35" y="-187.05" font-family="Times,serif" font-size="10.00">bankAccount</text>
<text text-anchor="middle" x="325.4" y="-231.13" font-family="Times,serif" font-size="10.00">bank</text>
</g>
<!-- 8f78aabf_6898_4cad_962d_adce80589c80 -->
<g id="node3" class="node">
<title>8f78aabf_6898_4cad_962d_adce80589c80</title>
<polygon fill="none" stroke="black" points="257.5,-162 257.5,-180 467.5,-180 467.5,-162 257.5,-162"/>
<text text-anchor="start" x="260.18" y="-169" font-family="Times,serif" text-decoration="underline" font-size="10.00">8f78aabf&#45;6898&#45;4cad&#45;962d&#45;adce80589c80 :Account</text>
<polygon fill="none" stroke="black" points="257.5,-132 257.5,-162 467.5,-162 467.5,-132 257.5,-132"/>
<text text-anchor="start" x="266.47" y="-150" font-family="Times,serif" font-size="10.00">balance = 0.0</text>
<text text-anchor="start" x="266.47" y="-138" font-family="Times,serif" font-size="10.00">id = &quot;8f78aabf&#45;6898&#45;4cad&#45;962d&#45;adce80589c80&quot;</text>
</g>
<!-- b&#45;&gt;8f78aabf_6898_4cad_962d_adce80589c80 -->
<g id="edge2" class="edge">
<title>b&#45;&gt;8f78aabf_6898_4cad_962d_adce80589c80</title>
<path fill="none" stroke="black" d="M362.5,-219.64C362.5,-209.26 362.5,-195.83 362.5,-184.08"/>
<text text-anchor="middle" x="345.01" y="-187.08" font-family="Times,serif" font-size="10.00">accounts</text>
<text text-anchor="middle" x="352.78" y="-210.64" font-family="Times,serif" font-size="10.00">bank</text>
</g>
<!-- aa7d9c84_a192_4977_bbbc_4ca9ede570d1 -->
<g id="node4" class="node">
<title>aa7d9c84_a192_4977_bbbc_4ca9ede570d1</title>
<polygon fill="none" stroke="black" points="323.5,-70 323.5,-88 541.5,-88 541.5,-70 323.5,-70"/>
<text text-anchor="start" x="326.29" y="-77" font-family="Times,serif" text-decoration="underline" font-size="10.00">aa7d9c84&#45;a192&#45;4977&#45;bbbc&#45;4ca9ede570d1 :Customer</text>
<polygon fill="none" stroke="black" points="323.5,-4 323.5,-70 541.5,-70 541.5,-4 323.5,-4"/>
<text text-anchor="start" x="335.08" y="-58" font-family="Times,serif" font-size="10.00">email = &quot;bobby@tt.ee&quot;</text>
<text text-anchor="start" x="335.08" y="-46" font-family="Times,serif" font-size="10.00">firstName = &quot;Bob&quot;</text>
<text text-anchor="start" x="335.08" y="-34" font-family="Times,serif" font-size="10.00">id = &quot;aa7d9c84&#45;a192&#45;4977&#45;bbbc&#45;4ca9ede570d1&quot;</text>
<text text-anchor="start" x="335.08" y="-22" font-family="Times,serif" font-size="10.00">lastName = &quot;Jackson&quot;</text>
<text text-anchor="start" x="335.08" y="-10" font-family="Times,serif" font-size="10.00">password = &quot;secret&quot;</text>
</g>
<!-- b&#45;&gt;aa7d9c84_a192_4977_bbbc_4ca9ede570d1 -->
<g id="edge3" class="edge">
<title>b&#45;&gt;aa7d9c84_a192_4977_bbbc_4ca9ede570d1</title>
<path fill="none" stroke="black" d="M389.6,-233.79C418.69,-228.75 463.54,-215.96 484.5,-184 502.99,-155.81 488.41,-120.1 470.04,-92.21"/>
<text text-anchor="middle" x="449.77" y="-95.21" font-family="Times,serif" font-size="10.00">customers</text>
<text text-anchor="middle" x="399.32" y="-236.79" font-family="Times,serif" font-size="10.00">bank</text>
</g>
<!-- c -->
<g id="node5" class="node">
<title>c</title>
<polygon fill="none" stroke="black" points="137.5,-46 137.5,-64 271.5,-64 271.5,-46 137.5,-46"/>
<text text-anchor="start" x="181.04" y="-53" font-family="Times,serif" text-decoration="underline" font-size="10.00">c :Currency</text>
<polygon fill="none" stroke="black" points="137.5,-28 137.5,-46 271.5,-46 271.5,-28 137.5,-28"/>
<text text-anchor="start" x="140.5" y="-34" font-family="Times,serif" font-size="10.00">declaringClass = class Currency</text>
</g>
<!-- af246e20_b186_437b_9d89_3b9c355d3d54&#45;&gt;c -->
<g id="edge4" class="edge">
<title>af246e20_b186_437b_9d89_3b9c355d3d54&#45;&gt;c</title>
<path fill="none" stroke="black" d="M137.96,-127.75C153.2,-109.25 173.06,-85.15 187.1,-68.11"/>
<text text-anchor="middle" x="169.61" y="-71.11" font-family="Times,serif" font-size="10.00">currency</text>
</g>
<!-- 8f78aabf_6898_4cad_962d_adce80589c80&#45;&gt;aa7d9c84_a192_4977_bbbc_4ca9ede570d1 -->
<g id="edge6" class="edge">
<title>8f78aabf_6898_4cad_962d_adce80589c80&#45;&gt;aa7d9c84_a192_4977_bbbc_4ca9ede570d1</title>
<path fill="none" stroke="black" d="M380.16,-127.75C387.13,-117 395.32,-104.36 403.13,-92.31"/>
<text text-anchor="middle" x="390.64" y="-95.31" font-family="Times,serif" font-size="10.00">owner</text>
<text text-anchor="middle" x="364.62" y="-118.75" font-family="Times,serif" font-size="10.00">account</text>
</g>
<!-- 8f78aabf_6898_4cad_962d_adce80589c80&#45;&gt;c -->
<g id="edge5" class="edge">
<title>8f78aabf_6898_4cad_962d_adce80589c80&#45;&gt;c</title>
<path fill="none" stroke="black" d="M322.63,-127.75C295.57,-109.25 260.32,-85.15 235.39,-68.11"/>
<text text-anchor="middle" x="217.9" y="-71.11" font-family="Times,serif" font-size="10.00">currency</text>
</g>
</g>
</svg>
