<?xml version="1.0" encoding="UTF-8" standalone="no"?>
<!DOCTYPE svg PUBLIC "-//W3C//DTD SVG 1.1//EN"
 "http://www.w3.org/Graphics/SVG/1.1/DTD/svg11.dtd">
<!-- Generated by graphviz version 2.43.0 (0)
 -->
<!-- Title: model Pages: 1 -->
<svg width="1935px" height="427px"
 viewBox="0.00 0.00 1935.00 427.00" xmlns="http://www.w3.org/2000/svg" xmlns:xlink="http://www.w3.org/1999/xlink">
<g id="graph0" class="graph" transform="scale(1.0 1.0) rotate(0) translate(4 423)">
<title>model</title>
<polygon fill="white" stroke="transparent" points="-4,4 -4,-423 1931,-423 1931,4 -4,4"/>
<!-- b -->
<g id="node1" class="node">
<title>b</title>
<polygon fill="none" stroke="black" points="583.5,-397.5 583.5,-414.5 1422.5,-414.5 1422.5,-397.5 583.5,-397.5"/>
<text text-anchor="start" x="986.5" y="-404.5" font-family="Times,serif" text-decoration="underline" font-size="10.00">b :Bank</text>
<polygon fill="none" stroke="black" points="583.5,-369.5 583.5,-397.5 1422.5,-397.5 1422.5,-369.5 583.5,-369.5"/>
<text text-anchor="start" x="586.5" y="-386.5" font-family="Times,serif" font-size="10.00">accountsMap = 4b2d8177&#45;2bdf&#45;4eb2&#45;b705&#45;87b2f172a5ddsendItToTheBank8a633aa5&#45;907c&#45;4e57&#45;a313&#45;22e0adb2672ec43776b6&#45;58d6&#45;425e&#45;98f8&#45;a4667dd2e6827ec351d6&#45;652f&#45;4691&#45;8e72&#45;ea432d44a0c8</text>
<text text-anchor="start" x="586.5" y="-375.5" font-family="Times,serif" font-size="10.00">customerMap = e2f7bc4c&#45;ef2a&#45;466e&#45;b8a5&#45;d24f48b13afe1eaf6f4c&#45;4f92&#45;4e04&#45;bd87&#45;c82be03265de1cd07617&#45;0f6d&#45;4799&#45;b7a2&#45;80f200761a93350cf111&#45;aaa8&#45;402c&#45;8670&#45;74672d3349f3</text>
</g>
<!-- sendItToTheBank -->
<g id="node2" class="node">
<title>sendItToTheBank</title>
<polygon fill="none" stroke="black" points="8.5,-165 8.5,-182 157.5,-182 157.5,-165 8.5,-165"/>
<text text-anchor="start" x="26" y="-172" font-family="Times,serif" text-decoration="underline" font-size="10.00">sendItToTheBank :Account</text>
<polygon fill="none" stroke="black" points="8.5,-82 8.5,-165 157.5,-165 157.5,-82 8.5,-82"/>
<text text-anchor="start" x="11.5" y="-154" font-family="Times,serif" font-size="10.00">balance = 69420.0</text>
<text text-anchor="start" x="11.5" y="-143" font-family="Times,serif" font-size="10.00">customerId = null</text>
<text text-anchor="start" x="11.5" y="-132" font-family="Times,serif" font-size="10.00">iban = &quot;EE302566631599242001&quot;</text>
<text text-anchor="start" x="11.5" y="-121" font-family="Times,serif" font-size="10.00">id = &quot;sendItToTheBank&quot;</text>
<text text-anchor="start" x="11.5" y="-110" font-family="Times,serif" font-size="10.00">receivedTransaction = </text>
<text text-anchor="start" x="11.5" y="-99" font-family="Times,serif" font-size="10.00">sentTransaction = </text>
<text text-anchor="start" x="11.5" y="-88" font-family="Times,serif" font-size="10.00">status = &quot;ACTIVE&quot;</text>
</g>
<!-- b&#45;&gt;sendItToTheBank -->
<g id="edge1" class="edge">
<title>b&#45;&gt;sendItToTheBank</title>
<path fill="none" stroke="black" d="M574.77,-376.93C396.41,-367.56 222.35,-352.74 187.5,-330 137.52,-297.38 109.67,-232.72 95.42,-186.37"/>
<text text-anchor="middle" x="67.42" y="-189.37" font-family="Times,serif" font-size="10.00">bankAccount</text>
<text text-anchor="middle" x="564.27" y="-379.93" font-family="Times,serif" font-size="10.00">bank</text>
</g>
<!-- 8a633aa5_907c_4e57_a313_22e0adb2672e -->
<g id="node3" class="node">
<title>8a633aa5_907c_4e57_a313_22e0adb2672e</title>
<polygon fill="none" stroke="black" points="204.5,-309 204.5,-326 442.5,-326 442.5,-309 204.5,-309"/>
<text text-anchor="start" x="216.5" y="-316" font-family="Times,serif" text-decoration="underline" font-size="10.00">8a633aa5&#45;907c&#45;4e57&#45;a313&#45;22e0adb2672e :Account</text>
<polygon fill="none" stroke="black" points="204.5,-226 204.5,-309 442.5,-309 442.5,-226 204.5,-226"/>
<text text-anchor="start" x="207.5" y="-298" font-family="Times,serif" font-size="10.00">balance = 0.0</text>
<text text-anchor="start" x="207.5" y="-287" font-family="Times,serif" font-size="10.00">customerId = &quot;1eaf6f4c&#45;4f92&#45;4e04&#45;bd87&#45;c82be03265de&quot;</text>
<text text-anchor="start" x="207.5" y="-276" font-family="Times,serif" font-size="10.00">iban = null</text>
<text text-anchor="start" x="207.5" y="-265" font-family="Times,serif" font-size="10.00">id = &quot;8a633aa5&#45;907c&#45;4e57&#45;a313&#45;22e0adb2672e&quot;</text>
<text text-anchor="start" x="207.5" y="-254" font-family="Times,serif" font-size="10.00">receivedTransaction = </text>
<text text-anchor="start" x="207.5" y="-243" font-family="Times,serif" font-size="10.00">sentTransaction = </text>
<text text-anchor="start" x="207.5" y="-232" font-family="Times,serif" font-size="10.00">status = &quot;ACTIVE&quot;</text>
</g>
<!-- b&#45;&gt;8a633aa5_907c_4e57_a313_22e0adb2672e -->
<g id="edge2" class="edge">
<title>b&#45;&gt;8a633aa5_907c_4e57_a313_22e0adb2672e</title>
<path fill="none" stroke="black" d="M666.64,-366C599.17,-357.27 529.16,-345.6 464.5,-330 459.92,-328.9 455.29,-327.69 450.64,-326.39"/>
<text text-anchor="middle" x="469.14" y="-329.39" font-family="Times,serif" font-size="10.00">accounts</text>
<text text-anchor="middle" x="656.14" y="-358" font-family="Times,serif" font-size="10.00">bank</text>
</g>
<!-- 7ec351d6_652f_4691_8e72_ea432d44a0c8 -->
<g id="node4" class="node">
<title>7ec351d6_652f_4691_8e72_ea432d44a0c8</title>
<polygon fill="none" stroke="black" points="514.5,-309 514.5,-326 748.5,-326 748.5,-309 514.5,-309"/>
<text text-anchor="start" x="524.5" y="-316" font-family="Times,serif" text-decoration="underline" font-size="10.00">7ec351d6&#45;652f&#45;4691&#45;8e72&#45;ea432d44a0c8 :Account</text>
<polygon fill="none" stroke="black" points="514.5,-226 514.5,-309 748.5,-309 748.5,-226 514.5,-226"/>
<text text-anchor="start" x="517.5" y="-298" font-family="Times,serif" font-size="10.00">balance = 100.0</text>
<text text-anchor="start" x="517.5" y="-287" font-family="Times,serif" font-size="10.00">customerId = &quot;e2f7bc4c&#45;ef2a&#45;466e&#45;b8a5&#45;d24f48b13afe&quot;</text>
<text text-anchor="start" x="517.5" y="-276" font-family="Times,serif" font-size="10.00">iban = null</text>
<text text-anchor="start" x="517.5" y="-265" font-family="Times,serif" font-size="10.00">id = &quot;7ec351d6&#45;652f&#45;4691&#45;8e72&#45;ea432d44a0c8&quot;</text>
<text text-anchor="start" x="517.5" y="-254" font-family="Times,serif" font-size="10.00">receivedTransaction = </text>
<text text-anchor="start" x="517.5" y="-243" font-family="Times,serif" font-size="10.00">sentTransaction = </text>
<text text-anchor="start" x="517.5" y="-232" font-family="Times,serif" font-size="10.00">status = &quot;ACTIVE&quot;</text>
</g>
<!-- b&#45;&gt;7ec351d6_652f_4691_8e72_ea432d44a0c8 -->
<g id="edge3" class="edge">
<title>b&#45;&gt;7ec351d6_652f_4691_8e72_ea432d44a0c8</title>
<path fill="none" stroke="black" d="M901.56,-365.99C862.3,-355.56 817.09,-342.92 776.5,-330 769.99,-327.93 763.33,-325.74 756.63,-323.49"/>
<text text-anchor="middle" x="775.13" y="-326.49" font-family="Times,serif" font-size="10.00">accounts</text>
<text text-anchor="middle" x="912.06" y="-357.99" font-family="Times,serif" font-size="10.00">bank</text>
</g>
<!-- 4b2d8177_2bdf_4eb2_b705_87b2f172a5dd -->
<g id="node5" class="node">
<title>4b2d8177_2bdf_4eb2_b705_87b2f172a5dd</title>
<polygon fill="none" stroke="black" points="1210.5,-309 1210.5,-326 1461.5,-326 1461.5,-309 1210.5,-309"/>
<text text-anchor="start" x="1228.5" y="-316" font-family="Times,serif" text-decoration="underline" font-size="10.00">4b2d8177&#45;2bdf&#45;4eb2&#45;b705&#45;87b2f172a5dd :Account</text>
<polygon fill="none" stroke="black" points="1210.5,-226 1210.5,-309 1461.5,-309 1461.5,-226 1210.5,-226"/>
<text text-anchor="start" x="1213.5" y="-298" font-family="Times,serif" font-size="10.00">balance = 200.0</text>
<text text-anchor="start" x="1213.5" y="-287" font-family="Times,serif" font-size="10.00">customerId = null</text>
<text text-anchor="start" x="1213.5" y="-276" font-family="Times,serif" font-size="10.00">iban = &quot;EE558794267878096111&quot;</text>
<text text-anchor="start" x="1213.5" y="-265" font-family="Times,serif" font-size="10.00">id = &quot;4b2d8177&#45;2bdf&#45;4eb2&#45;b705&#45;87b2f172a5dd&quot;</text>
<text text-anchor="start" x="1213.5" y="-254" font-family="Times,serif" font-size="10.00">receivedTransaction = </text>
<text text-anchor="start" x="1213.5" y="-243" font-family="Times,serif" font-size="10.00">sentTransaction = c91f4821&#45;2cf1&#45;4c11&#45;99d8&#45;cc72e5342623</text>
<text text-anchor="start" x="1213.5" y="-232" font-family="Times,serif" font-size="10.00">status = &quot;ACTIVE&quot;</text>
</g>
<!-- b&#45;&gt;4b2d8177_2bdf_4eb2_b705_87b2f172a5dd -->
<g id="edge4" class="edge">
<title>b&#45;&gt;4b2d8177_2bdf_4eb2_b705_87b2f172a5dd</title>
<path fill="none" stroke="black" d="M1080.95,-365.86C1113.91,-354.98 1152.63,-342.04 1187.5,-330 1192.14,-328.4 1196.87,-326.76 1201.63,-325.09"/>
<text text-anchor="middle" x="1183.13" y="-328.09" font-family="Times,serif" font-size="10.00">accounts</text>
<text text-anchor="middle" x="1070.45" y="-357.86" font-family="Times,serif" font-size="10.00">bank</text>
</g>
<!-- c43776b6_58d6_425e_98f8_a4667dd2e682 -->
<g id="node6" class="node">
<title>c43776b6_58d6_425e_98f8_a4667dd2e682</title>
<polygon fill="none" stroke="black" points="868.5,-309 868.5,-326 1137.5,-326 1137.5,-309 868.5,-309"/>
<text text-anchor="start" x="895" y="-316" font-family="Times,serif" text-decoration="underline" font-size="10.00">c43776b6&#45;58d6&#45;425e&#45;98f8&#45;a4667dd2e682 :Account</text>
<polygon fill="none" stroke="black" points="868.5,-226 868.5,-309 1137.5,-309 1137.5,-226 868.5,-226"/>
<text text-anchor="start" x="871.5" y="-298" font-family="Times,serif" font-size="10.00">balance = 300.0</text>
<text text-anchor="start" x="871.5" y="-287" font-family="Times,serif" font-size="10.00">customerId = null</text>
<text text-anchor="start" x="871.5" y="-276" font-family="Times,serif" font-size="10.00">iban = &quot;EE107540670470229297&quot;</text>
<text text-anchor="start" x="871.5" y="-265" font-family="Times,serif" font-size="10.00">id = &quot;c43776b6&#45;58d6&#45;425e&#45;98f8&#45;a4667dd2e682&quot;</text>
<text text-anchor="start" x="871.5" y="-254" font-family="Times,serif" font-size="10.00">receivedTransaction = c91f4821&#45;2cf1&#45;4c11&#45;99d8&#45;cc72e5342623</text>
<text text-anchor="start" x="871.5" y="-243" font-family="Times,serif" font-size="10.00">sentTransaction = </text>
<text text-anchor="start" x="871.5" y="-232" font-family="Times,serif" font-size="10.00">status = &quot;ACTIVE&quot;</text>
</g>
<!-- b&#45;&gt;c43776b6_58d6_425e_98f8_a4667dd2e682 -->
<g id="edge5" class="edge">
<title>b&#45;&gt;c43776b6_58d6_425e_98f8_a4667dd2e682</title>
<path fill="none" stroke="black" d="M1002.5,-365.8C1002.5,-355.25 1002.5,-342.63 1002.5,-330.25"/>
<text text-anchor="middle" x="984" y="-333.25" font-family="Times,serif" font-size="10.00">accounts</text>
<text text-anchor="middle" x="992" y="-357.8" font-family="Times,serif" font-size="10.00">bank</text>
</g>
<!-- 95bb6851_c8e1_4995_a7c9_f92fefc72ac4 -->
<g id="node7" class="node">
<title>95bb6851_c8e1_4995_a7c9_f92fefc72ac4</title>
<polygon fill="none" stroke="black" points="1533.5,-298 1533.5,-315 1769.5,-315 1769.5,-298 1533.5,-298"/>
<text text-anchor="start" x="1536.5" y="-305" font-family="Times,serif" text-decoration="underline" font-size="10.00">95bb6851&#45;c8e1&#45;4995&#45;a7c9&#45;f92fefc72ac4 :Administrator</text>
<polygon fill="none" stroke="black" points="1533.5,-237 1533.5,-298 1769.5,-298 1769.5,-237 1533.5,-237"/>
<text text-anchor="start" x="1554.5" y="-287" font-family="Times,serif" font-size="10.00">email = &quot;admin@bank.ee&quot;</text>
<text text-anchor="start" x="1554.5" y="-276" font-family="Times,serif" font-size="10.00">firstName = &quot;Admin&quot;</text>
<text text-anchor="start" x="1554.5" y="-265" font-family="Times,serif" font-size="10.00">id = &quot;95bb6851&#45;c8e1&#45;4995&#45;a7c9&#45;f92fefc72ac4&quot;</text>
<text text-anchor="start" x="1554.5" y="-254" font-family="Times,serif" font-size="10.00">lastName = &quot;Alice&quot;</text>
<text text-anchor="start" x="1554.5" y="-243" font-family="Times,serif" font-size="10.00">password = &quot;secure_p@ssw0|2d&quot;</text>
</g>
<!-- b&#45;&gt;95bb6851_c8e1_4995_a7c9_f92fefc72ac4 -->
<g id="edge6" class="edge">
<title>b&#45;&gt;95bb6851_c8e1_4995_a7c9_f92fefc72ac4</title>
<path fill="none" stroke="black" d="M1313.87,-365.98C1379.66,-357.22 1448.29,-345.54 1511.5,-330 1523.74,-326.99 1536.37,-323.22 1548.8,-319.08"/>
<text text-anchor="middle" x="1519.8" y="-322.08" font-family="Times,serif" font-size="10.00">administrators</text>
<text text-anchor="middle" x="1303.37" y="-357.98" font-family="Times,serif" font-size="10.00">bank</text>
</g>
<!-- e2f7bc4c_ef2a_466e_b8a5_d24f48b13afe -->
<g id="node8" class="node">
<title>e2f7bc4c_ef2a_466e_b8a5_d24f48b13afe</title>
<polygon fill="none" stroke="black" points="522.5,-154 522.5,-171 737.5,-171 737.5,-154 522.5,-154"/>
<text text-anchor="start" x="525.5" y="-161" font-family="Times,serif" text-decoration="underline" font-size="10.00">e2f7bc4c&#45;ef2a&#45;466e&#45;b8a5&#45;d24f48b13afe :Customer</text>
<polygon fill="none" stroke="black" points="522.5,-93 522.5,-154 737.5,-154 737.5,-93 522.5,-93"/>
<text text-anchor="start" x="534.5" y="-143" font-family="Times,serif" font-size="10.00">email = &quot;john@doe.ee&quot;</text>
<text text-anchor="start" x="534.5" y="-132" font-family="Times,serif" font-size="10.00">firstName = &quot;John&quot;</text>
<text text-anchor="start" x="534.5" y="-121" font-family="Times,serif" font-size="10.00">id = &quot;e2f7bc4c&#45;ef2a&#45;466e&#45;b8a5&#45;d24f48b13afe&quot;</text>
<text text-anchor="start" x="534.5" y="-110" font-family="Times,serif" font-size="10.00">lastName = &quot;Doe&quot;</text>
<text text-anchor="start" x="534.5" y="-99" font-family="Times,serif" font-size="10.00">password = &quot;pass1234&quot;</text>
</g>
<!-- b&#45;&gt;e2f7bc4c_ef2a_466e_b8a5_d24f48b13afe -->
<g id="edge7" class="edge">
<title>b&#45;&gt;e2f7bc4c_ef2a_466e_b8a5_d24f48b13afe</title>
<path fill="none" stroke="black" d="M896.23,-365.85C873.31,-357.02 850.33,-345.35 831.5,-330 787.89,-294.46 804.66,-262.39 765.5,-222 748.41,-204.37 727.23,-188.45 706.71,-175.11"/>
<text text-anchor="middle" x="686.21" y="-178.11" font-family="Times,serif" font-size="10.00">customers</text>
<text text-anchor="middle" x="885.73" y="-357.85" font-family="Times,serif" font-size="10.00">bank</text>
</g>
<!-- 1eaf6f4c_4f92_4e04_bd87_c82be03265de -->
<g id="node9" class="node">
<title>1eaf6f4c_4f92_4e04_bd87_c82be03265de</title>
<polygon fill="none" stroke="black" points="230.5,-154 230.5,-171 449.5,-171 449.5,-154 230.5,-154"/>
<text text-anchor="start" x="233.5" y="-161" font-family="Times,serif" text-decoration="underline" font-size="10.00">1eaf6f4c&#45;4f92&#45;4e04&#45;bd87&#45;c82be03265de :Customer</text>
<polygon fill="none" stroke="black" points="230.5,-93 230.5,-154 449.5,-154 449.5,-93 230.5,-93"/>
<text text-anchor="start" x="242.5" y="-143" font-family="Times,serif" font-size="10.00">email = &quot;bobby@tt.ee&quot;</text>
<text text-anchor="start" x="242.5" y="-132" font-family="Times,serif" font-size="10.00">firstName = &quot;Bob&quot;</text>
<text text-anchor="start" x="242.5" y="-121" font-family="Times,serif" font-size="10.00">id = &quot;1eaf6f4c&#45;4f92&#45;4e04&#45;bd87&#45;c82be03265de&quot;</text>
<text text-anchor="start" x="242.5" y="-110" font-family="Times,serif" font-size="10.00">lastName = &quot;Jackson&quot;</text>
<text text-anchor="start" x="242.5" y="-99" font-family="Times,serif" font-size="10.00">password = &quot;secret&quot;</text>
</g>
<!-- b&#45;&gt;1eaf6f4c_4f92_4e04_bd87_c82be03265de -->
<g id="edge8" class="edge">
<title>b&#45;&gt;1eaf6f4c_4f92_4e04_bd87_c82be03265de</title>
<path fill="none" stroke="black" d="M595.01,-365.96C551.94,-357.2 516.82,-345.52 497.5,-330 457.83,-298.13 489.7,-262.95 459.5,-222 446.34,-204.15 428.58,-188.3 410.77,-175.1"/>
<text text-anchor="middle" x="390.27" y="-178.1" font-family="Times,serif" font-size="10.00">customers</text>
<text text-anchor="middle" x="584.51" y="-357.96" font-family="Times,serif" font-size="10.00">bank</text>
</g>
<!-- 350cf111_aaa8_402c_8670_74672d3349f3 -->
<g id="node10" class="node">
<title>350cf111_aaa8_402c_8670_74672d3349f3</title>
<polygon fill="none" stroke="black" points="1389.5,-154 1389.5,-171 1609.5,-171 1609.5,-154 1389.5,-154"/>
<text text-anchor="start" x="1392.5" y="-161" font-family="Times,serif" text-decoration="underline" font-size="10.00">350cf111&#45;aaa8&#45;402c&#45;8670&#45;74672d3349f3 :Customer</text>
<polygon fill="none" stroke="black" points="1389.5,-93 1389.5,-154 1609.5,-154 1609.5,-93 1389.5,-93"/>
<text text-anchor="start" x="1401.5" y="-143" font-family="Times,serif" font-size="10.00">email = &quot;johntest@doe.ee&quot;</text>
<text text-anchor="start" x="1401.5" y="-132" font-family="Times,serif" font-size="10.00">firstName = &quot;johntest&quot;</text>
<text text-anchor="start" x="1401.5" y="-121" font-family="Times,serif" font-size="10.00">id = &quot;350cf111&#45;aaa8&#45;402c&#45;8670&#45;74672d3349f3&quot;</text>
<text text-anchor="start" x="1401.5" y="-110" font-family="Times,serif" font-size="10.00">lastName = &quot;Doe&quot;</text>
<text text-anchor="start" x="1401.5" y="-99" font-family="Times,serif" font-size="10.00">password = &quot;pass1234&quot;</text>
</g>
<!-- b&#45;&gt;350cf111_aaa8_402c_8670_74672d3349f3 -->
<g id="edge9" class="edge">
<title>b&#45;&gt;350cf111_aaa8_402c_8670_74672d3349f3</title>
<path fill="none" stroke="black" d="M1313.44,-365.99C1395.18,-356.33 1464.63,-344.19 1478.5,-330 1518.06,-289.55 1515.45,-219.74 1508.53,-175.01"/>
<text text-anchor="middle" x="1488.03" y="-178.01" font-family="Times,serif" font-size="10.00">customers</text>
<text text-anchor="middle" x="1323.94" y="-357.99" font-family="Times,serif" font-size="10.00">bank</text>
</g>
<!-- 1cd07617_0f6d_4799_b7a2_80f200761a93 -->
<g id="node11" class="node">
<title>1cd07617_0f6d_4799_b7a2_80f200761a93</title>
<polygon fill="none" stroke="black" points="771.5,-154 771.5,-171 995.5,-171 995.5,-154 771.5,-154"/>
<text text-anchor="start" x="774.5" y="-161" font-family="Times,serif" text-decoration="underline" font-size="10.00">1cd07617&#45;0f6d&#45;4799&#45;b7a2&#45;80f200761a93 :Customer</text>
<polygon fill="none" stroke="black" points="771.5,-93 771.5,-154 995.5,-154 995.5,-93 771.5,-93"/>
<text text-anchor="start" x="783.5" y="-143" font-family="Times,serif" font-size="10.00">email = &quot;bobbytest@tt.ee&quot;</text>
<text text-anchor="start" x="783.5" y="-132" font-family="Times,serif" font-size="10.00">firstName = &quot;Bob&quot;</text>
<text text-anchor="start" x="783.5" y="-121" font-family="Times,serif" font-size="10.00">id = &quot;1cd07617&#45;0f6d&#45;4799&#45;b7a2&#45;80f200761a93&quot;</text>
<text text-anchor="start" x="783.5" y="-110" font-family="Times,serif" font-size="10.00">lastName = &quot;Jackson&quot;</text>
<text text-anchor="start" x="783.5" y="-99" font-family="Times,serif" font-size="10.00">password = &quot;secret&quot;</text>
</g>
<!-- b&#45;&gt;1cd07617_0f6d_4799_b7a2_80f200761a93 -->
<g id="edge10" class="edge">
<title>b&#45;&gt;1cd07617_0f6d_4799_b7a2_80f200761a93</title>
<path fill="none" stroke="black" d="M892.96,-365.9C876.19,-357.21 861,-345.58 850.5,-330 819.29,-283.71 840.39,-217.72 860.35,-175.13"/>
<text text-anchor="middle" x="839.85" y="-178.13" font-family="Times,serif" font-size="10.00">customers</text>
<text text-anchor="middle" x="898.21" y="-357.9" font-family="Times,serif" font-size="10.00">bank</text>
</g>
<!-- t -->
<g id="node12" class="node">
<title>t</title>
<polygon fill="none" stroke="black" points="1804.5,-270 1804.5,-287 1841.5,-287 1841.5,-270 1804.5,-270"/>
<text text-anchor="start" x="1807.5" y="-277" font-family="Times,serif" text-decoration="underline" font-size="10.00">t :Trace</text>
<polygon fill="none" stroke="black" points="1804.5,-264 1804.5,-270 1841.5,-270 1841.5,-264 1804.5,-264"/>
</g>
<!-- b&#45;&gt;t -->
<g id="edge11" class="edge">
<title>b&#45;&gt;t</title>
<path fill="none" stroke="black" d="M1430.23,-373.6C1595.44,-363.72 1753.04,-349.44 1786.5,-330 1800.25,-322.01 1809.88,-306.41 1815.69,-294.19"/>
<text text-anchor="middle" x="1803.69" y="-297.19" font-family="Times,serif" font-size="10.00">traces</text>
</g>
<!-- t1 -->
<g id="node13" class="node">
<title>t1</title>
<polygon fill="none" stroke="black" points="1876.5,-270 1876.5,-287 1919.5,-287 1919.5,-270 1876.5,-270"/>
<text text-anchor="start" x="1879.5" y="-277" font-family="Times,serif" text-decoration="underline" font-size="10.00">t1 :Trace</text>
<polygon fill="none" stroke="black" points="1876.5,-264 1876.5,-270 1919.5,-270 1919.5,-264 1876.5,-264"/>
</g>
<!-- b&#45;&gt;t1 -->
<g id="edge12" class="edge">
<title>b&#45;&gt;t1</title>
<path fill="none" stroke="black" d="M1430.26,-376.51C1624.04,-366.82 1818.87,-351.86 1858.5,-330 1872.8,-322.11 1883.3,-306.5 1889.77,-294.25"/>
<text text-anchor="middle" x="1877.77" y="-297.25" font-family="Times,serif" font-size="10.00">traces</text>
</g>
<!-- c91f4821_2cf1_4c11_99d8_cc72e5342623 -->
<g id="node14" class="node">
<title>c91f4821_2cf1_4c11_99d8_cc72e5342623</title>
<polygon fill="none" stroke="black" points="1067.5,-154 1067.5,-171 1317.5,-171 1317.5,-154 1067.5,-154"/>
<text text-anchor="start" x="1081" y="-161" font-family="Times,serif" text-decoration="underline" font-size="10.00">c91f4821&#45;2cf1&#45;4c11&#45;99d8&#45;cc72e5342623 :Transaction</text>
<polygon fill="none" stroke="black" points="1067.5,-93 1067.5,-154 1317.5,-154 1317.5,-93 1067.5,-93"/>
<text text-anchor="start" x="1070.5" y="-143" font-family="Times,serif" font-size="10.00">amount = 50.0</text>
<text text-anchor="start" x="1070.5" y="-132" font-family="Times,serif" font-size="10.00">description = &quot;Ref: concert ticket&quot;</text>
<text text-anchor="start" x="1070.5" y="-121" font-family="Times,serif" font-size="10.00">id = &quot;c91f4821&#45;2cf1&#45;4c11&#45;99d8&#45;cc72e5342623&quot;</text>
<text text-anchor="start" x="1070.5" y="-110" font-family="Times,serif" font-size="10.00">rejectionDescription = &quot;Made a mistake in the sent amount&quot;</text>
<text text-anchor="start" x="1070.5" y="-99" font-family="Times,serif" font-size="10.00">timestamp = 2021&#45;12&#45;04T18:16:14.945780185</text>
</g>
<!-- b&#45;&gt;c91f4821_2cf1_4c11_99d8_cc72e5342623 -->
<g id="edge13" class="edge">
<title>b&#45;&gt;c91f4821_2cf1_4c11_99d8_cc72e5342623</title>
<path fill="none" stroke="black" d="M1105.06,-365.86C1123.4,-357.14 1140.71,-345.5 1153.5,-330 1172.58,-306.87 1183.63,-225.89 1188.82,-175.24"/>
<text text-anchor="middle" x="1164.32" y="-178.24" font-family="Times,serif" font-size="10.00">transactions</text>
<text text-anchor="middle" x="1094.56" y="-357.86" font-family="Times,serif" font-size="10.00">bank</text>
</g>
<!-- c -->
<g id="node15" class="node">
<title>c</title>
<polygon fill="none" stroke="black" points="647.5,-21 647.5,-38 811.5,-38 811.5,-21 647.5,-21"/>
<text text-anchor="start" x="705.5" y="-28" font-family="Times,serif" text-decoration="underline" font-size="10.00">c :Currency</text>
<polygon fill="none" stroke="black" points="647.5,-4 647.5,-21 811.5,-21 811.5,-4 647.5,-4"/>
<text text-anchor="start" x="650.5" y="-10" font-family="Times,serif" font-size="10.00">declaringClass = class model.Currency</text>
</g>
<!-- sendItToTheBank&#45;&gt;c -->
<g id="edge14" class="edge">
<title>sendItToTheBank&#45;&gt;c</title>
<path fill="none" stroke="black" d="M165.16,-83.11C169.94,-81.2 174.73,-79.48 179.5,-78 262.98,-52.11 506.05,-34.71 639.39,-26.83"/>
<text text-anchor="middle" x="621.39" y="-29.83" font-family="Times,serif" font-size="10.00">currency</text>
</g>
<!-- 8a633aa5_907c_4e57_a313_22e0adb2672e&#45;&gt;1eaf6f4c_4f92_4e04_bd87_c82be03265de -->
<g id="edge16" class="edge">
<title>8a633aa5_907c_4e57_a313_22e0adb2672e&#45;&gt;1eaf6f4c_4f92_4e04_bd87_c82be03265de</title>
<path fill="none" stroke="black" d="M329.5,-221.72C331.24,-206.3 333.11,-189.68 334.76,-175.04"/>
<text text-anchor="middle" x="321.76" y="-178.04" font-family="Times,serif" font-size="10.00">owner</text>
<text text-anchor="middle" x="313" y="-213.72" font-family="Times,serif" font-size="10.00">account</text>
</g>
<!-- 8a633aa5_907c_4e57_a313_22e0adb2672e&#45;&gt;c -->
<g id="edge15" class="edge">
<title>8a633aa5_907c_4e57_a313_22e0adb2672e&#45;&gt;c</title>
<path fill="none" stroke="black" d="M239.21,-221.87C228.42,-211.35 218.91,-199.36 212.5,-186 191.73,-142.73 180.44,-113.72 212.5,-78 240.43,-46.88 498.66,-31.48 639.26,-25.34"/>
<text text-anchor="middle" x="621.26" y="-17.34" font-family="Times,serif" font-size="10.00">currency</text>
</g>
<!-- 7ec351d6_652f_4691_8e72_ea432d44a0c8&#45;&gt;e2f7bc4c_ef2a_466e_b8a5_d24f48b13afe -->
<g id="edge18" class="edge">
<title>7ec351d6_652f_4691_8e72_ea432d44a0c8&#45;&gt;e2f7bc4c_ef2a_466e_b8a5_d24f48b13afe</title>
<path fill="none" stroke="black" d="M630.75,-221.72C630.53,-206.3 630.3,-189.68 630.09,-175.04"/>
<text text-anchor="middle" x="617.09" y="-178.04" font-family="Times,serif" font-size="10.00">owner</text>
<text text-anchor="middle" x="614.25" y="-213.72" font-family="Times,serif" font-size="10.00">account</text>
</g>
<!-- 7ec351d6_652f_4691_8e72_ea432d44a0c8&#45;&gt;c -->
<g id="edge17" class="edge">
<title>7ec351d6_652f_4691_8e72_ea432d44a0c8&#45;&gt;c</title>
<path fill="none" stroke="black" d="M533.43,-221.95C521.81,-211.58 511.58,-199.61 504.5,-186 482.34,-143.42 474.94,-115.82 504.5,-78 521.42,-56.35 584.26,-41.87 639.25,-33.07"/>
<text text-anchor="middle" x="621.25" y="-36.07" font-family="Times,serif" font-size="10.00">currency</text>
</g>
<!-- 4b2d8177_2bdf_4eb2_b705_87b2f172a5dd&#45;&gt;350cf111_aaa8_402c_8670_74672d3349f3 -->
<g id="edge21" class="edge">
<title>4b2d8177_2bdf_4eb2_b705_87b2f172a5dd&#45;&gt;350cf111_aaa8_402c_8670_74672d3349f3</title>
<path fill="none" stroke="black" d="M1397.03,-221.72C1414.85,-206.3 1434.04,-189.68 1450.94,-175.04"/>
<text text-anchor="middle" x="1437.94" y="-178.04" font-family="Times,serif" font-size="10.00">owner</text>
<text text-anchor="middle" x="1380.53" y="-213.72" font-family="Times,serif" font-size="10.00">account</text>
</g>
<!-- 4b2d8177_2bdf_4eb2_b705_87b2f172a5dd&#45;&gt;c91f4821_2cf1_4c11_99d8_cc72e5342623 -->
<g id="edge19" class="edge">
<title>4b2d8177_2bdf_4eb2_b705_87b2f172a5dd&#45;&gt;c91f4821_2cf1_4c11_99d8_cc72e5342623</title>
<path fill="none" stroke="black" d="M1281.85,-221.72C1266.31,-206.3 1249.58,-189.68 1234.84,-175.04"/>
<text text-anchor="middle" x="1292.84" y="-178.04" font-family="Times,serif" font-size="10.00">allTransactionsOrderedDesc</text>
<text text-anchor="middle" x="1268.35" y="-213.72" font-family="Times,serif" font-size="10.00">source</text>
</g>
<!-- 4b2d8177_2bdf_4eb2_b705_87b2f172a5dd&#45;&gt;c -->
<g id="edge20" class="edge">
<title>4b2d8177_2bdf_4eb2_b705_87b2f172a5dd&#45;&gt;c</title>
<path fill="none" stroke="black" d="M1352.74,-221.98C1363.47,-177.77 1369.39,-116.08 1334.5,-78 1317.35,-59.29 983.91,-37.05 819.54,-27.17"/>
<text text-anchor="middle" x="837.54" y="-19.17" font-family="Times,serif" font-size="10.00">currency</text>
</g>
<!-- c43776b6_58d6_425e_98f8_a4667dd2e682&#45;&gt;1cd07617_0f6d_4799_b7a2_80f200761a93 -->
<g id="edge24" class="edge">
<title>c43776b6_58d6_425e_98f8_a4667dd2e682&#45;&gt;1cd07617_0f6d_4799_b7a2_80f200761a93</title>
<path fill="none" stroke="black" d="M957.85,-221.72C944.92,-206.3 931,-189.68 918.73,-175.04"/>
<text text-anchor="middle" x="905.73" y="-178.04" font-family="Times,serif" font-size="10.00">owner</text>
<text text-anchor="middle" x="941.35" y="-213.72" font-family="Times,serif" font-size="10.00">account</text>
</g>
<!-- c43776b6_58d6_425e_98f8_a4667dd2e682&#45;&gt;c91f4821_2cf1_4c11_99d8_cc72e5342623 -->
<g id="edge22" class="edge">
<title>c43776b6_58d6_425e_98f8_a4667dd2e682&#45;&gt;c91f4821_2cf1_4c11_99d8_cc72e5342623</title>
<path fill="none" stroke="black" d="M1073.52,-221.92C1094.18,-206.48 1116.46,-189.83 1136.09,-175.16"/>
<text text-anchor="middle" x="1078.09" y="-178.16" font-family="Times,serif" font-size="10.00">allTransactionsOrderedDesc</text>
<text text-anchor="middle" x="1050.52" y="-213.92" font-family="Times,serif" font-size="10.00">destination</text>
</g>
<!-- c43776b6_58d6_425e_98f8_a4667dd2e682&#45;&gt;c -->
<g id="edge23" class="edge">
<title>c43776b6_58d6_425e_98f8_a4667dd2e682&#45;&gt;c</title>
<path fill="none" stroke="black" d="M1023.13,-221.62C1036.13,-178.1 1045,-117.56 1012.5,-78 988.34,-48.59 893.1,-34.36 819.71,-27.65"/>
<text text-anchor="middle" x="837.71" y="-30.65" font-family="Times,serif" font-size="10.00">currency</text>
</g>
<!-- c91f4821_2cf1_4c11_99d8_cc72e5342623&#45;&gt;c -->
<g id="edge25" class="edge">
<title>c91f4821_2cf1_4c11_99d8_cc72e5342623&#45;&gt;c</title>
<path fill="none" stroke="black" d="M1081.97,-88.88C1069.76,-84.91 1057.43,-81.18 1045.5,-78 970.4,-57.96 883.32,-43.14 819.61,-33.79"/>
<text text-anchor="middle" x="837.61" y="-36.79" font-family="Times,serif" font-size="10.00">currency</text>
</g>
<!-- s -->
<g id="node16" class="node">
<title>s</title>
<polygon fill="none" stroke="black" points="1090.5,-21 1090.5,-38 1295.5,-38 1295.5,-21 1090.5,-21"/>
<text text-anchor="start" x="1176" y="-28" font-family="Times,serif" text-decoration="underline" font-size="10.00">s :Status</text>
<polygon fill="none" stroke="black" points="1090.5,-4 1090.5,-21 1295.5,-21 1295.5,-4 1090.5,-4"/>
<text text-anchor="start" x="1093.5" y="-10" font-family="Times,serif" font-size="10.00">declaringClass = class model.Transaction$Status</text>
</g>
<!-- c91f4821_2cf1_4c11_99d8_cc72e5342623&#45;&gt;s -->
<g id="edge26" class="edge">
<title>c91f4821_2cf1_4c11_99d8_cc72e5342623&#45;&gt;s</title>
<path fill="none" stroke="black" d="M1192.5,-88.86C1192.5,-72.8 1192.5,-55.24 1192.5,-42.14"/>
<text text-anchor="middle" x="1180.5" y="-45.14" font-family="Times,serif" font-size="10.00">status</text>
</g>
</g>
</svg>
