<?xml version="1.0" encoding="UTF-8" standalone="no"?>
<!DOCTYPE svg PUBLIC "-//W3C//DTD SVG 1.1//EN"
 "http://www.w3.org/Graphics/SVG/1.1/DTD/svg11.dtd">
<!-- Generated by graphviz version 2.43.0 (0)
 -->
<!-- Title: model Pages: 1 -->
<svg width="800px" height="344px"
 viewBox="0.00 0.00 799.74 344.00" xmlns="http://www.w3.org/2000/svg" xmlns:xlink="http://www.w3.org/1999/xlink">
<g id="graph0" class="graph" transform="scale(1.0 1.0) rotate(0) translate(4 340)">
<title>model</title>
<polygon fill="white" stroke="transparent" points="-4,4 -4,-340 795.74,-340 795.74,4 -4,4"/>
<!-- 740fc53e_f173_4f4d_a83e_40c265f2835a -->
<g id="node1" class="node">
<title>740fc53e_f173_4f4d_a83e_40c265f2835a</title>
<polygon fill="none" stroke="black" points="538,-315 538,-332 752,-332 752,-315 538,-315"/>
<text text-anchor="start" x="541" y="-322" font-family="Times,serif" text-decoration="underline" font-size="10.00">740fc53e&#45;f173&#45;4f4d&#45;a83e&#45;40c265f2835a :Account</text>
<polygon fill="none" stroke="black" points="538,-276 538,-315 752,-315 752,-276 538,-276"/>
<text text-anchor="start" x="548.5" y="-304" font-family="Times,serif" font-size="10.00">balance = 0.0</text>
<text text-anchor="start" x="548.5" y="-293" font-family="Times,serif" font-size="10.00">id = &quot;740fc53e&#45;f173&#45;4f4d&#45;a83e&#45;40c265f2835a&quot;</text>
<text text-anchor="start" x="548.5" y="-282" font-family="Times,serif" font-size="10.00">status = &quot;FROZEN&quot;</text>
</g>
<!-- b -->
<g id="node2" class="node">
<title>b</title>
<polygon fill="none" stroke="black" points="466,-212 466,-229 505,-229 505,-212 466,-212"/>
<text text-anchor="start" x="469" y="-219" font-family="Times,serif" text-decoration="underline" font-size="10.00">b :Bank</text>
<polygon fill="none" stroke="black" points="466,-206 466,-212 505,-212 505,-206 466,-206"/>
</g>
<!-- 740fc53e_f173_4f4d_a83e_40c265f2835a&#45;&gt;b -->
<g id="edge1" class="edge">
<title>740fc53e_f173_4f4d_a83e_40c265f2835a&#45;&gt;b</title>
<path fill="none" stroke="black" d="M585.88,-271.96C560.77,-258.78 532.72,-244.05 512.58,-233.48"/>
<text text-anchor="middle" x="523.08" y="-236.48" font-family="Times,serif" font-size="10.00">bank</text>
<text text-anchor="middle" x="567.38" y="-263.96" font-family="Times,serif" font-size="10.00">accounts</text>
</g>
<!-- c -->
<g id="node3" class="node">
<title>c</title>
<polygon fill="none" stroke="black" points="374,-21 374,-38 538,-38 538,-21 374,-21"/>
<text text-anchor="start" x="432" y="-28" font-family="Times,serif" text-decoration="underline" font-size="10.00">c :Currency</text>
<polygon fill="none" stroke="black" points="374,-4 374,-21 538,-21 538,-4 374,-4"/>
<text text-anchor="start" x="377" y="-10" font-family="Times,serif" font-size="10.00">declaringClass = class model.Currency</text>
</g>
<!-- 740fc53e_f173_4f4d_a83e_40c265f2835a&#45;&gt;c -->
<g id="edge2" class="edge">
<title>740fc53e_f173_4f4d_a83e_40c265f2835a&#45;&gt;c</title>
<path fill="none" stroke="black" d="M686.38,-271.73C741.74,-226.16 827.22,-140.19 775,-78 746.25,-43.77 630.16,-30.46 546.31,-25.28"/>
<text text-anchor="middle" x="564.31" y="-28.28" font-family="Times,serif" font-size="10.00">currency</text>
</g>
<!-- 47713628_8814_4f21_9578_f35585647e05 -->
<g id="node4" class="node">
<title>47713628_8814_4f21_9578_f35585647e05</title>
<polygon fill="none" stroke="black" points="532,-143 532,-160 758,-160 758,-143 532,-143"/>
<text text-anchor="start" x="535" y="-150" font-family="Times,serif" text-decoration="underline" font-size="10.00">47713628&#45;8814&#45;4f21&#45;9578&#45;f35585647e05 :Customer</text>
<polygon fill="none" stroke="black" points="532,-82 532,-143 758,-143 758,-82 532,-82"/>
<text text-anchor="start" x="544" y="-132" font-family="Times,serif" font-size="10.00">email = &quot;bobby@tt.ee&quot;</text>
<text text-anchor="start" x="544" y="-121" font-family="Times,serif" font-size="10.00">firstName = &quot;Bob&quot;</text>
<text text-anchor="start" x="544" y="-110" font-family="Times,serif" font-size="10.00">id = &quot;47713628&#45;8814&#45;4f21&#45;9578&#45;f35585647e05&quot;</text>
<text text-anchor="start" x="544" y="-99" font-family="Times,serif" font-size="10.00">lastName = &quot;Jackson&quot;</text>
<text text-anchor="start" x="544" y="-88" font-family="Times,serif" font-size="10.00">password = &quot;secret&quot;</text>
</g>
<!-- 740fc53e_f173_4f4d_a83e_40c265f2835a&#45;&gt;47713628_8814_4f21_9578_f35585647e05 -->
<g id="edge3" class="edge">
<title>740fc53e_f173_4f4d_a83e_40c265f2835a&#45;&gt;47713628_8814_4f21_9578_f35585647e05</title>
<path fill="none" stroke="black" d="M645,-271.88C645,-242.17 645,-197.16 645,-164.22"/>
<text text-anchor="middle" x="632" y="-167.22" font-family="Times,serif" font-size="10.00">owner</text>
<text text-anchor="middle" x="628.5" y="-263.88" font-family="Times,serif" font-size="10.00">account</text>
</g>
<!-- b&#45;&gt;47713628_8814_4f21_9578_f35585647e05 -->
<g id="edge6" class="edge">
<title>b&#45;&gt;47713628_8814_4f21_9578_f35585647e05</title>
<path fill="none" stroke="black" d="M512.5,-200.67C529.57,-190.54 552.34,-177.02 574.19,-164.04"/>
<text text-anchor="middle" x="553.69" y="-167.04" font-family="Times,serif" font-size="10.00">customers</text>
<text text-anchor="middle" x="502" y="-192.67" font-family="Times,serif" font-size="10.00">bank</text>
</g>
<!-- b679eb08_de89_489e_9364_a59c02ee5f08 -->
<g id="node5" class="node">
<title>b679eb08_de89_489e_9364_a59c02ee5f08</title>
<polygon fill="none" stroke="black" points="8,-132 8,-149 228,-149 228,-132 8,-132"/>
<text text-anchor="start" x="11" y="-139" font-family="Times,serif" text-decoration="underline" font-size="10.00">b679eb08&#45;de89&#45;489e&#45;9364&#45;a59c02ee5f08 :Account</text>
<polygon fill="none" stroke="black" points="8,-93 8,-132 228,-132 228,-93 8,-93"/>
<text text-anchor="start" x="18.5" y="-121" font-family="Times,serif" font-size="10.00">balance = 69420.0</text>
<text text-anchor="start" x="18.5" y="-110" font-family="Times,serif" font-size="10.00">id = &quot;b679eb08&#45;de89&#45;489e&#45;9364&#45;a59c02ee5f08&quot;</text>
<text text-anchor="start" x="18.5" y="-99" font-family="Times,serif" font-size="10.00">status = &quot;ACTIVE&quot;</text>
</g>
<!-- b&#45;&gt;b679eb08_de89_489e_9364_a59c02ee5f08 -->
<g id="edge4" class="edge">
<title>b&#45;&gt;b679eb08_de89_489e_9364_a59c02ee5f08</title>
<path fill="none" stroke="black" d="M457.42,-211.86C412.56,-203.29 321.11,-184.93 245,-164 233.02,-160.71 220.5,-156.95 208.19,-153.08"/>
<text text-anchor="middle" x="180.19" y="-156.08" font-family="Times,serif" font-size="10.00">bankAccount</text>
<text text-anchor="middle" x="446.92" y="-214.86" font-family="Times,serif" font-size="10.00">bank</text>
</g>
<!-- a1fdca06_5ade_4eaf_921c_acab0145cd4d -->
<g id="node6" class="node">
<title>a1fdca06_5ade_4eaf_921c_acab0145cd4d</title>
<polygon fill="none" stroke="black" points="263,-143 263,-160 498,-160 498,-143 263,-143"/>
<text text-anchor="start" x="266" y="-150" font-family="Times,serif" text-decoration="underline" font-size="10.00">a1fdca06&#45;5ade&#45;4eaf&#45;921c&#45;acab0145cd4d :Administrator</text>
<polygon fill="none" stroke="black" points="263,-82 263,-143 498,-143 498,-82 263,-82"/>
<text text-anchor="start" x="284" y="-132" font-family="Times,serif" font-size="10.00">email = &quot;admin@bank.ee&quot;</text>
<text text-anchor="start" x="284" y="-121" font-family="Times,serif" font-size="10.00">firstName = &quot;Admin&quot;</text>
<text text-anchor="start" x="284" y="-110" font-family="Times,serif" font-size="10.00">id = &quot;a1fdca06&#45;5ade&#45;4eaf&#45;921c&#45;acab0145cd4d&quot;</text>
<text text-anchor="start" x="284" y="-99" font-family="Times,serif" font-size="10.00">lastName = &quot;ALice&quot;</text>
<text text-anchor="start" x="284" y="-88" font-family="Times,serif" font-size="10.00">password = &quot;secure_p@ssw0|2d&quot;</text>
</g>
<!-- b&#45;&gt;a1fdca06_5ade_4eaf_921c_acab0145cd4d -->
<g id="edge5" class="edge">
<title>b&#45;&gt;a1fdca06_5ade_4eaf_921c_acab0145cd4d</title>
<path fill="none" stroke="black" d="M465.74,-199.58C454.73,-189.61 440.4,-176.65 426.62,-164.18"/>
<text text-anchor="middle" x="397.62" y="-167.18" font-family="Times,serif" font-size="10.00">administrators</text>
<text text-anchor="middle" x="455.24" y="-191.58" font-family="Times,serif" font-size="10.00">bank</text>
</g>
<!-- b679eb08_de89_489e_9364_a59c02ee5f08&#45;&gt;c -->
<g id="edge7" class="edge">
<title>b679eb08_de89_489e_9364_a59c02ee5f08&#45;&gt;c</title>
<path fill="none" stroke="black" d="M209.71,-88.95C221.55,-85.15 233.54,-81.41 245,-78 288.04,-65.18 336.45,-52.23 376.03,-42.02"/>
<text text-anchor="middle" x="358.03" y="-45.02" font-family="Times,serif" font-size="10.00">currency</text>
</g>
</g>
</svg>
