<?xml version="1.0" encoding="UTF-8" standalone="no"?>
<!DOCTYPE svg PUBLIC "-//W3C//DTD SVG 1.1//EN"
 "http://www.w3.org/Graphics/SVG/1.1/DTD/svg11.dtd">
<!-- Generated by graphviz version 2.43.0 (0)
 -->
<!-- Title: model Pages: 1 -->
<svg width="1933px" height="427px"
 viewBox="0.00 0.00 1933.00 427.00" xmlns="http://www.w3.org/2000/svg" xmlns:xlink="http://www.w3.org/1999/xlink">
<g id="graph0" class="graph" transform="scale(1.0 1.0) rotate(0) translate(4 423)">
<title>model</title>
<polygon fill="white" stroke="transparent" points="-4,4 -4,-423 1929,-423 1929,4 -4,4"/>
<!-- b -->
<g id="node1" class="node">
<title>b</title>
<polygon fill="none" stroke="black" points="585.5,-397.5 585.5,-414.5 1414.5,-414.5 1414.5,-397.5 585.5,-397.5"/>
<text text-anchor="start" x="983.5" y="-404.5" font-family="Times,serif" text-decoration="underline" font-size="10.00">b :Bank</text>
<polygon fill="none" stroke="black" points="585.5,-369.5 585.5,-397.5 1414.5,-397.5 1414.5,-369.5 585.5,-369.5"/>
<text text-anchor="start" x="588.5" y="-386.5" font-family="Times,serif" font-size="10.00">accountsMap = sendItToTheBank8a633aa5&#45;907c&#45;4e57&#45;a313&#45;22e0adb2672e7ec351d6&#45;652f&#45;4691&#45;8e72&#45;ea432d44a0c8832e9ab4&#45;a76d&#45;46cd&#45;94d9&#45;fed86837f22e3410ff17&#45;ad24&#45;444f&#45;817c&#45;f43493335f4d</text>
<text text-anchor="start" x="588.5" y="-375.5" font-family="Times,serif" font-size="10.00">customerMap = b7f428fa&#45;e056&#45;4cda&#45;94f0&#45;d3113f6a1e24e2f7bc4c&#45;ef2a&#45;466e&#45;b8a5&#45;d24f48b13afe1eaf6f4c&#45;4f92&#45;4e04&#45;bd87&#45;c82be03265de8925193e&#45;12c3&#45;434b&#45;a9c7&#45;4085b54bfcd9</text>
</g>
<!-- sendItToTheBank -->
<g id="node2" class="node">
<title>sendItToTheBank</title>
<polygon fill="none" stroke="black" points="8.5,-165 8.5,-182 157.5,-182 157.5,-165 8.5,-165"/>
<text text-anchor="start" x="26" y="-172" font-family="Times,serif" text-decoration="underline" font-size="10.00">sendItToTheBank :Account</text>
<polygon fill="none" stroke="black" points="8.5,-82 8.5,-165 157.5,-165 157.5,-82 8.5,-82"/>
<text text-anchor="start" x="11.5" y="-154" font-family="Times,serif" font-size="10.00">balance = 69420.0</text>
<text text-anchor="start" x="11.5" y="-143" font-family="Times,serif" font-size="10.00">customerId = null</text>
<text text-anchor="start" x="11.5" y="-132" font-family="Times,serif" font-size="10.00">iban = &quot;EE253424716343810724&quot;</text>
<text text-anchor="start" x="11.5" y="-121" font-family="Times,serif" font-size="10.00">id = &quot;sendItToTheBank&quot;</text>
<text text-anchor="start" x="11.5" y="-110" font-family="Times,serif" font-size="10.00">receivedTransaction = </text>
<text text-anchor="start" x="11.5" y="-99" font-family="Times,serif" font-size="10.00">sentTransaction = </text>
<text text-anchor="start" x="11.5" y="-88" font-family="Times,serif" font-size="10.00">status = &quot;ACTIVE&quot;</text>
</g>
<!-- b&#45;&gt;sendItToTheBank -->
<g id="edge1" class="edge">
<title>b&#45;&gt;sendItToTheBank</title>
<path fill="none" stroke="black" d="M576.76,-377.16C397.44,-367.8 221.48,-352.93 186.5,-330 136.69,-297.35 109.17,-232.69 95.15,-186.35"/>
<text text-anchor="middle" x="67.15" y="-189.35" font-family="Times,serif" font-size="10.00">bankAccount</text>
<text text-anchor="middle" x="566.26" y="-380.16" font-family="Times,serif" font-size="10.00">bank</text>
</g>
<!-- 8a633aa5_907c_4e57_a313_22e0adb2672e -->
<g id="node3" class="node">
<title>8a633aa5_907c_4e57_a313_22e0adb2672e</title>
<polygon fill="none" stroke="black" points="203.5,-309 203.5,-326 441.5,-326 441.5,-309 203.5,-309"/>
<text text-anchor="start" x="215.5" y="-316" font-family="Times,serif" text-decoration="underline" font-size="10.00">8a633aa5&#45;907c&#45;4e57&#45;a313&#45;22e0adb2672e :Account</text>
<polygon fill="none" stroke="black" points="203.5,-226 203.5,-309 441.5,-309 441.5,-226 203.5,-226"/>
<text text-anchor="start" x="206.5" y="-298" font-family="Times,serif" font-size="10.00">balance = 0.0</text>
<text text-anchor="start" x="206.5" y="-287" font-family="Times,serif" font-size="10.00">customerId = &quot;1eaf6f4c&#45;4f92&#45;4e04&#45;bd87&#45;c82be03265de&quot;</text>
<text text-anchor="start" x="206.5" y="-276" font-family="Times,serif" font-size="10.00">iban = null</text>
<text text-anchor="start" x="206.5" y="-265" font-family="Times,serif" font-size="10.00">id = &quot;8a633aa5&#45;907c&#45;4e57&#45;a313&#45;22e0adb2672e&quot;</text>
<text text-anchor="start" x="206.5" y="-254" font-family="Times,serif" font-size="10.00">receivedTransaction = </text>
<text text-anchor="start" x="206.5" y="-243" font-family="Times,serif" font-size="10.00">sentTransaction = </text>
<text text-anchor="start" x="206.5" y="-232" font-family="Times,serif" font-size="10.00">status = &quot;ACTIVE&quot;</text>
</g>
<!-- b&#45;&gt;8a633aa5_907c_4e57_a313_22e0adb2672e -->
<g id="edge2" class="edge">
<title>b&#45;&gt;8a633aa5_907c_4e57_a313_22e0adb2672e</title>
<path fill="none" stroke="black" d="M665.24,-365.97C597.92,-357.25 528.03,-345.58 463.5,-330 458.92,-328.9 454.29,-327.68 449.64,-326.39"/>
<text text-anchor="middle" x="468.14" y="-329.39" font-family="Times,serif" font-size="10.00">accounts</text>
<text text-anchor="middle" x="654.74" y="-357.97" font-family="Times,serif" font-size="10.00">bank</text>
</g>
<!-- 7ec351d6_652f_4691_8e72_ea432d44a0c8 -->
<g id="node4" class="node">
<title>7ec351d6_652f_4691_8e72_ea432d44a0c8</title>
<polygon fill="none" stroke="black" points="513.5,-309 513.5,-326 747.5,-326 747.5,-309 513.5,-309"/>
<text text-anchor="start" x="523.5" y="-316" font-family="Times,serif" text-decoration="underline" font-size="10.00">7ec351d6&#45;652f&#45;4691&#45;8e72&#45;ea432d44a0c8 :Account</text>
<polygon fill="none" stroke="black" points="513.5,-226 513.5,-309 747.5,-309 747.5,-226 513.5,-226"/>
<text text-anchor="start" x="516.5" y="-298" font-family="Times,serif" font-size="10.00">balance = 100.0</text>
<text text-anchor="start" x="516.5" y="-287" font-family="Times,serif" font-size="10.00">customerId = &quot;e2f7bc4c&#45;ef2a&#45;466e&#45;b8a5&#45;d24f48b13afe&quot;</text>
<text text-anchor="start" x="516.5" y="-276" font-family="Times,serif" font-size="10.00">iban = null</text>
<text text-anchor="start" x="516.5" y="-265" font-family="Times,serif" font-size="10.00">id = &quot;7ec351d6&#45;652f&#45;4691&#45;8e72&#45;ea432d44a0c8&quot;</text>
<text text-anchor="start" x="516.5" y="-254" font-family="Times,serif" font-size="10.00">receivedTransaction = </text>
<text text-anchor="start" x="516.5" y="-243" font-family="Times,serif" font-size="10.00">sentTransaction = </text>
<text text-anchor="start" x="516.5" y="-232" font-family="Times,serif" font-size="10.00">status = &quot;ACTIVE&quot;</text>
</g>
<!-- b&#45;&gt;7ec351d6_652f_4691_8e72_ea432d44a0c8 -->
<g id="edge3" class="edge">
<title>b&#45;&gt;7ec351d6_652f_4691_8e72_ea432d44a0c8</title>
<path fill="none" stroke="black" d="M897.96,-365.94C858.83,-355.54 813.87,-342.94 773.5,-330 767.7,-328.14 761.79,-326.19 755.83,-324.17"/>
<text text-anchor="middle" x="774.33" y="-327.17" font-family="Times,serif" font-size="10.00">accounts</text>
<text text-anchor="middle" x="908.46" y="-357.94" font-family="Times,serif" font-size="10.00">bank</text>
</g>
<!-- 832e9ab4_a76d_46cd_94d9_fed86837f22e -->
<g id="node5" class="node">
<title>832e9ab4_a76d_46cd_94d9_fed86837f22e</title>
<polygon fill="none" stroke="black" points="1208.5,-309 1208.5,-326 1461.5,-326 1461.5,-309 1208.5,-309"/>
<text text-anchor="start" x="1229" y="-316" font-family="Times,serif" text-decoration="underline" font-size="10.00">832e9ab4&#45;a76d&#45;46cd&#45;94d9&#45;fed86837f22e :Account</text>
<polygon fill="none" stroke="black" points="1208.5,-226 1208.5,-309 1461.5,-309 1461.5,-226 1208.5,-226"/>
<text text-anchor="start" x="1211.5" y="-298" font-family="Times,serif" font-size="10.00">balance = 200.0</text>
<text text-anchor="start" x="1211.5" y="-287" font-family="Times,serif" font-size="10.00">customerId = null</text>
<text text-anchor="start" x="1211.5" y="-276" font-family="Times,serif" font-size="10.00">iban = &quot;EE673937026037077191&quot;</text>
<text text-anchor="start" x="1211.5" y="-265" font-family="Times,serif" font-size="10.00">id = &quot;832e9ab4&#45;a76d&#45;46cd&#45;94d9&#45;fed86837f22e&quot;</text>
<text text-anchor="start" x="1211.5" y="-254" font-family="Times,serif" font-size="10.00">receivedTransaction = </text>
<text text-anchor="start" x="1211.5" y="-243" font-family="Times,serif" font-size="10.00">sentTransaction = 6e1bee19&#45;f63c&#45;40a3&#45;beb2&#45;34c260c91b27</text>
<text text-anchor="start" x="1211.5" y="-232" font-family="Times,serif" font-size="10.00">status = &quot;ACTIVE&quot;</text>
</g>
<!-- b&#45;&gt;832e9ab4_a76d_46cd_94d9_fed86837f22e -->
<g id="edge4" class="edge">
<title>b&#45;&gt;832e9ab4_a76d_46cd_94d9_fed86837f22e</title>
<path fill="none" stroke="black" d="M1078.37,-365.86C1111.51,-354.97 1150.43,-342.03 1185.5,-330 1190.17,-328.4 1194.93,-326.76 1199.73,-325.09"/>
<text text-anchor="middle" x="1181.23" y="-328.09" font-family="Times,serif" font-size="10.00">accounts</text>
<text text-anchor="middle" x="1067.87" y="-357.86" font-family="Times,serif" font-size="10.00">bank</text>
</g>
<!-- 3410ff17_ad24_444f_817c_f43493335f4d -->
<g id="node6" class="node">
<title>3410ff17_ad24_444f_817c_f43493335f4d</title>
<polygon fill="none" stroke="black" points="864.5,-309 864.5,-326 1135.5,-326 1135.5,-309 864.5,-309"/>
<text text-anchor="start" x="896" y="-316" font-family="Times,serif" text-decoration="underline" font-size="10.00">3410ff17&#45;ad24&#45;444f&#45;817c&#45;f43493335f4d :Account</text>
<polygon fill="none" stroke="black" points="864.5,-226 864.5,-309 1135.5,-309 1135.5,-226 864.5,-226"/>
<text text-anchor="start" x="867.5" y="-298" font-family="Times,serif" font-size="10.00">balance = 300.0</text>
<text text-anchor="start" x="867.5" y="-287" font-family="Times,serif" font-size="10.00">customerId = null</text>
<text text-anchor="start" x="867.5" y="-276" font-family="Times,serif" font-size="10.00">iban = &quot;EE324708849342390860&quot;</text>
<text text-anchor="start" x="867.5" y="-265" font-family="Times,serif" font-size="10.00">id = &quot;3410ff17&#45;ad24&#45;444f&#45;817c&#45;f43493335f4d&quot;</text>
<text text-anchor="start" x="867.5" y="-254" font-family="Times,serif" font-size="10.00">receivedTransaction = 6e1bee19&#45;f63c&#45;40a3&#45;beb2&#45;34c260c91b27</text>
<text text-anchor="start" x="867.5" y="-243" font-family="Times,serif" font-size="10.00">sentTransaction = </text>
<text text-anchor="start" x="867.5" y="-232" font-family="Times,serif" font-size="10.00">status = &quot;ACTIVE&quot;</text>
</g>
<!-- b&#45;&gt;3410ff17_ad24_444f_817c_f43493335f4d -->
<g id="edge5" class="edge">
<title>b&#45;&gt;3410ff17_ad24_444f_817c_f43493335f4d</title>
<path fill="none" stroke="black" d="M999.5,-365.8C999.5,-355.25 999.5,-342.63 999.5,-330.25"/>
<text text-anchor="middle" x="981" y="-333.25" font-family="Times,serif" font-size="10.00">accounts</text>
<text text-anchor="middle" x="989" y="-357.8" font-family="Times,serif" font-size="10.00">bank</text>
</g>
<!-- a13a2fb1_8b34_4fcc_976f_c7411fb61d4a -->
<g id="node7" class="node">
<title>a13a2fb1_8b34_4fcc_976f_c7411fb61d4a</title>
<polygon fill="none" stroke="black" points="1533.5,-298 1533.5,-315 1767.5,-315 1767.5,-298 1533.5,-298"/>
<text text-anchor="start" x="1536.5" y="-305" font-family="Times,serif" text-decoration="underline" font-size="10.00">a13a2fb1&#45;8b34&#45;4fcc&#45;976f&#45;c7411fb61d4a :Administrator</text>
<polygon fill="none" stroke="black" points="1533.5,-237 1533.5,-298 1767.5,-298 1767.5,-237 1533.5,-237"/>
<text text-anchor="start" x="1554.5" y="-287" font-family="Times,serif" font-size="10.00">email = &quot;admin@bank.ee&quot;</text>
<text text-anchor="start" x="1554.5" y="-276" font-family="Times,serif" font-size="10.00">firstName = &quot;Admin&quot;</text>
<text text-anchor="start" x="1554.5" y="-265" font-family="Times,serif" font-size="10.00">id = &quot;a13a2fb1&#45;8b34&#45;4fcc&#45;976f&#45;c7411fb61d4a&quot;</text>
<text text-anchor="start" x="1554.5" y="-254" font-family="Times,serif" font-size="10.00">lastName = &quot;Alice&quot;</text>
<text text-anchor="start" x="1554.5" y="-243" font-family="Times,serif" font-size="10.00">password = &quot;secure_p@ssw0|2d&quot;</text>
</g>
<!-- b&#45;&gt;a13a2fb1_8b34_4fcc_976f_c7411fb61d4a -->
<g id="edge6" class="edge">
<title>b&#45;&gt;a13a2fb1_8b34_4fcc_976f_c7411fb61d4a</title>
<path fill="none" stroke="black" d="M1314.43,-365.97C1380.09,-357.22 1448.48,-345.55 1511.5,-330 1523.66,-327 1536.2,-323.23 1548.55,-319.1"/>
<text text-anchor="middle" x="1519.55" y="-322.1" font-family="Times,serif" font-size="10.00">administrators</text>
<text text-anchor="middle" x="1303.93" y="-357.97" font-family="Times,serif" font-size="10.00">bank</text>
</g>
<!-- e2f7bc4c_ef2a_466e_b8a5_d24f48b13afe -->
<g id="node8" class="node">
<title>e2f7bc4c_ef2a_466e_b8a5_d24f48b13afe</title>
<polygon fill="none" stroke="black" points="522.5,-154 522.5,-171 737.5,-171 737.5,-154 522.5,-154"/>
<text text-anchor="start" x="525.5" y="-161" font-family="Times,serif" text-decoration="underline" font-size="10.00">e2f7bc4c&#45;ef2a&#45;466e&#45;b8a5&#45;d24f48b13afe :Customer</text>
<polygon fill="none" stroke="black" points="522.5,-93 522.5,-154 737.5,-154 737.5,-93 522.5,-93"/>
<text text-anchor="start" x="534.5" y="-143" font-family="Times,serif" font-size="10.00">email = &quot;john@doe.ee&quot;</text>
<text text-anchor="start" x="534.5" y="-132" font-family="Times,serif" font-size="10.00">firstName = &quot;John&quot;</text>
<text text-anchor="start" x="534.5" y="-121" font-family="Times,serif" font-size="10.00">id = &quot;e2f7bc4c&#45;ef2a&#45;466e&#45;b8a5&#45;d24f48b13afe&quot;</text>
<text text-anchor="start" x="534.5" y="-110" font-family="Times,serif" font-size="10.00">lastName = &quot;Doe&quot;</text>
<text text-anchor="start" x="534.5" y="-99" font-family="Times,serif" font-size="10.00">password = &quot;pass1234&quot;</text>
</g>
<!-- b&#45;&gt;e2f7bc4c_ef2a_466e_b8a5_d24f48b13afe -->
<g id="edge7" class="edge">
<title>b&#45;&gt;e2f7bc4c_ef2a_466e_b8a5_d24f48b13afe</title>
<path fill="none" stroke="black" d="M891.48,-365.88C868.73,-357.07 846.04,-345.4 827.5,-330 784.75,-294.5 802.7,-262.36 764.5,-222 747.81,-204.37 726.98,-188.49 706.72,-175.19"/>
<text text-anchor="middle" x="686.22" y="-178.19" font-family="Times,serif" font-size="10.00">customers</text>
<text text-anchor="middle" x="880.98" y="-357.88" font-family="Times,serif" font-size="10.00">bank</text>
</g>
<!-- 1eaf6f4c_4f92_4e04_bd87_c82be03265de -->
<g id="node9" class="node">
<title>1eaf6f4c_4f92_4e04_bd87_c82be03265de</title>
<polygon fill="none" stroke="black" points="230.5,-154 230.5,-171 449.5,-171 449.5,-154 230.5,-154"/>
<text text-anchor="start" x="233.5" y="-161" font-family="Times,serif" text-decoration="underline" font-size="10.00">1eaf6f4c&#45;4f92&#45;4e04&#45;bd87&#45;c82be03265de :Customer</text>
<polygon fill="none" stroke="black" points="230.5,-93 230.5,-154 449.5,-154 449.5,-93 230.5,-93"/>
<text text-anchor="start" x="242.5" y="-143" font-family="Times,serif" font-size="10.00">email = &quot;bobby@tt.ee&quot;</text>
<text text-anchor="start" x="242.5" y="-132" font-family="Times,serif" font-size="10.00">firstName = &quot;Bob&quot;</text>
<text text-anchor="start" x="242.5" y="-121" font-family="Times,serif" font-size="10.00">id = &quot;1eaf6f4c&#45;4f92&#45;4e04&#45;bd87&#45;c82be03265de&quot;</text>
<text text-anchor="start" x="242.5" y="-110" font-family="Times,serif" font-size="10.00">lastName = &quot;Jackson&quot;</text>
<text text-anchor="start" x="242.5" y="-99" font-family="Times,serif" font-size="10.00">password = &quot;secret&quot;</text>
</g>
<!-- b&#45;&gt;1eaf6f4c_4f92_4e04_bd87_c82be03265de -->
<g id="edge8" class="edge">
<title>b&#45;&gt;1eaf6f4c_4f92_4e04_bd87_c82be03265de</title>
<path fill="none" stroke="black" d="M594.19,-365.98C551.04,-357.21 515.83,-345.54 496.5,-330 456.84,-298.12 488.62,-263.01 458.5,-222 445.44,-204.22 427.83,-188.39 410.17,-175.19"/>
<text text-anchor="middle" x="389.67" y="-178.19" font-family="Times,serif" font-size="10.00">customers</text>
<text text-anchor="middle" x="583.69" y="-357.98" font-family="Times,serif" font-size="10.00">bank</text>
</g>
<!-- b7f428fa_e056_4cda_94f0_d3113f6a1e24 -->
<g id="node10" class="node">
<title>b7f428fa_e056_4cda_94f0_d3113f6a1e24</title>
<polygon fill="none" stroke="black" points="1390.5,-154 1390.5,-171 1606.5,-171 1606.5,-154 1390.5,-154"/>
<text text-anchor="start" x="1393.5" y="-161" font-family="Times,serif" text-decoration="underline" font-size="10.00">b7f428fa&#45;e056&#45;4cda&#45;94f0&#45;d3113f6a1e24 :Customer</text>
<polygon fill="none" stroke="black" points="1390.5,-93 1390.5,-154 1606.5,-154 1606.5,-93 1390.5,-93"/>
<text text-anchor="start" x="1402.5" y="-143" font-family="Times,serif" font-size="10.00">email = &quot;johntest@doe.ee&quot;</text>
<text text-anchor="start" x="1402.5" y="-132" font-family="Times,serif" font-size="10.00">firstName = &quot;johntest&quot;</text>
<text text-anchor="start" x="1402.5" y="-121" font-family="Times,serif" font-size="10.00">id = &quot;b7f428fa&#45;e056&#45;4cda&#45;94f0&#45;d3113f6a1e24&quot;</text>
<text text-anchor="start" x="1402.5" y="-110" font-family="Times,serif" font-size="10.00">lastName = &quot;Doe&quot;</text>
<text text-anchor="start" x="1402.5" y="-99" font-family="Times,serif" font-size="10.00">password = &quot;pass1234&quot;</text>
</g>
<!-- b&#45;&gt;b7f428fa_e056_4cda_94f0_d3113f6a1e24 -->
<g id="edge9" class="edge">
<title>b&#45;&gt;b7f428fa_e056_4cda_94f0_d3113f6a1e24</title>
<path fill="none" stroke="black" d="M1313.73,-365.97C1395.43,-356.35 1464.64,-344.23 1478.5,-330 1517.83,-289.61 1514.98,-220.12 1507.85,-175.39"/>
<text text-anchor="middle" x="1487.35" y="-178.39" font-family="Times,serif" font-size="10.00">customers</text>
<text text-anchor="middle" x="1324.23" y="-357.97" font-family="Times,serif" font-size="10.00">bank</text>
</g>
<!-- 8925193e_12c3_434b_a9c7_4085b54bfcd9 -->
<g id="node11" class="node">
<title>8925193e_12c3_434b_a9c7_4085b54bfcd9</title>
<polygon fill="none" stroke="black" points="771.5,-154 771.5,-171 996.5,-171 996.5,-154 771.5,-154"/>
<text text-anchor="start" x="774.5" y="-161" font-family="Times,serif" text-decoration="underline" font-size="10.00">8925193e&#45;12c3&#45;434b&#45;a9c7&#45;4085b54bfcd9 :Customer</text>
<polygon fill="none" stroke="black" points="771.5,-93 771.5,-154 996.5,-154 996.5,-93 771.5,-93"/>
<text text-anchor="start" x="783.5" y="-143" font-family="Times,serif" font-size="10.00">email = &quot;bobbytest@tt.ee&quot;</text>
<text text-anchor="start" x="783.5" y="-132" font-family="Times,serif" font-size="10.00">firstName = &quot;Bob&quot;</text>
<text text-anchor="start" x="783.5" y="-121" font-family="Times,serif" font-size="10.00">id = &quot;8925193e&#45;12c3&#45;434b&#45;a9c7&#45;4085b54bfcd9&quot;</text>
<text text-anchor="start" x="783.5" y="-110" font-family="Times,serif" font-size="10.00">lastName = &quot;Jackson&quot;</text>
<text text-anchor="start" x="783.5" y="-99" font-family="Times,serif" font-size="10.00">password = &quot;secret&quot;</text>
</g>
<!-- b&#45;&gt;8925193e_12c3_434b_a9c7_4085b54bfcd9 -->
<g id="edge10" class="edge">
<title>b&#45;&gt;8925193e_12c3_434b_a9c7_4085b54bfcd9</title>
<path fill="none" stroke="black" d="M888.86,-365.83C872.14,-357.15 857,-345.54 846.5,-330 815.13,-283.58 837.85,-217.63 859.04,-175.07"/>
<text text-anchor="middle" x="838.54" y="-178.07" font-family="Times,serif" font-size="10.00">customers</text>
<text text-anchor="middle" x="894.11" y="-357.83" font-family="Times,serif" font-size="10.00">bank</text>
</g>
<!-- t -->
<g id="node12" class="node">
<title>t</title>
<polygon fill="none" stroke="black" points="1802.5,-270 1802.5,-287 1839.5,-287 1839.5,-270 1802.5,-270"/>
<text text-anchor="start" x="1805.5" y="-277" font-family="Times,serif" text-decoration="underline" font-size="10.00">t :Trace</text>
<polygon fill="none" stroke="black" points="1802.5,-264 1802.5,-270 1839.5,-270 1839.5,-264 1802.5,-264"/>
</g>
<!-- b&#45;&gt;t -->
<g id="edge11" class="edge">
<title>b&#45;&gt;t</title>
<path fill="none" stroke="black" d="M1422.03,-373.96C1589.53,-364.07 1750.61,-349.68 1784.5,-330 1798.25,-322.01 1807.88,-306.41 1813.69,-294.19"/>
<text text-anchor="middle" x="1801.69" y="-297.19" font-family="Times,serif" font-size="10.00">traces</text>
</g>
<!-- t1 -->
<g id="node13" class="node">
<title>t1</title>
<polygon fill="none" stroke="black" points="1874.5,-270 1874.5,-287 1917.5,-287 1917.5,-270 1874.5,-270"/>
<text text-anchor="start" x="1877.5" y="-277" font-family="Times,serif" text-decoration="underline" font-size="10.00">t1 :Trace</text>
<polygon fill="none" stroke="black" points="1874.5,-264 1874.5,-270 1917.5,-270 1917.5,-264 1874.5,-264"/>
</g>
<!-- b&#45;&gt;t1 -->
<g id="edge12" class="edge">
<title>b&#45;&gt;t1</title>
<path fill="none" stroke="black" d="M1422.07,-376.81C1617.94,-367.14 1816.44,-352.1 1856.5,-330 1870.8,-322.11 1881.3,-306.5 1887.77,-294.25"/>
<text text-anchor="middle" x="1875.77" y="-297.25" font-family="Times,serif" font-size="10.00">traces</text>
</g>
<!-- 6e1bee19_f63c_40a3_beb2_34c260c91b27 -->
<g id="node14" class="node">
<title>6e1bee19_f63c_40a3_beb2_34c260c91b27</title>
<polygon fill="none" stroke="black" points="1068.5,-154 1068.5,-171 1318.5,-171 1318.5,-154 1068.5,-154"/>
<text text-anchor="start" x="1080.5" y="-161" font-family="Times,serif" text-decoration="underline" font-size="10.00">6e1bee19&#45;f63c&#45;40a3&#45;beb2&#45;34c260c91b27 :Transaction</text>
<polygon fill="none" stroke="black" points="1068.5,-93 1068.5,-154 1318.5,-154 1318.5,-93 1068.5,-93"/>
<text text-anchor="start" x="1071.5" y="-143" font-family="Times,serif" font-size="10.00">amount = 50.0</text>
<text text-anchor="start" x="1071.5" y="-132" font-family="Times,serif" font-size="10.00">description = &quot;Ref: concert ticket&quot;</text>
<text text-anchor="start" x="1071.5" y="-121" font-family="Times,serif" font-size="10.00">id = &quot;6e1bee19&#45;f63c&#45;40a3&#45;beb2&#45;34c260c91b27&quot;</text>
<text text-anchor="start" x="1071.5" y="-110" font-family="Times,serif" font-size="10.00">rejectionDescription = &quot;Made a mistake in the sent amount&quot;</text>
<text text-anchor="start" x="1071.5" y="-99" font-family="Times,serif" font-size="10.00">timestamp = 2021&#45;12&#45;04T18:20:20.038310791</text>
</g>
<!-- b&#45;&gt;6e1bee19_f63c_40a3_beb2_34c260c91b27 -->
<g id="edge13" class="edge">
<title>b&#45;&gt;6e1bee19_f63c_40a3_beb2_34c260c91b27</title>
<path fill="none" stroke="black" d="M1102.55,-365.82C1121.03,-357.11 1138.51,-345.48 1151.5,-330 1170.83,-306.96 1183.15,-225.95 1189.15,-175.27"/>
<text text-anchor="middle" x="1164.65" y="-178.27" font-family="Times,serif" font-size="10.00">transactions</text>
<text text-anchor="middle" x="1092.05" y="-357.82" font-family="Times,serif" font-size="10.00">bank</text>
</g>
<!-- c -->
<g id="node15" class="node">
<title>c</title>
<polygon fill="none" stroke="black" points="648.5,-21 648.5,-38 812.5,-38 812.5,-21 648.5,-21"/>
<text text-anchor="start" x="706.5" y="-28" font-family="Times,serif" text-decoration="underline" font-size="10.00">c :Currency</text>
<polygon fill="none" stroke="black" points="648.5,-4 648.5,-21 812.5,-21 812.5,-4 648.5,-4"/>
<text text-anchor="start" x="651.5" y="-10" font-family="Times,serif" font-size="10.00">declaringClass = class model.Currency</text>
</g>
<!-- sendItToTheBank&#45;&gt;c -->
<g id="edge14" class="edge">
<title>sendItToTheBank&#45;&gt;c</title>
<path fill="none" stroke="black" d="M165.16,-83.11C169.94,-81.2 174.73,-79.48 179.5,-78 263.19,-52.05 506.98,-34.67 640.5,-26.8"/>
<text text-anchor="middle" x="622.5" y="-29.8" font-family="Times,serif" font-size="10.00">currency</text>
</g>
<!-- 8a633aa5_907c_4e57_a313_22e0adb2672e&#45;&gt;1eaf6f4c_4f92_4e04_bd87_c82be03265de -->
<g id="edge16" class="edge">
<title>8a633aa5_907c_4e57_a313_22e0adb2672e&#45;&gt;1eaf6f4c_4f92_4e04_bd87_c82be03265de</title>
<path fill="none" stroke="black" d="M328.88,-221.72C330.73,-206.3 332.71,-189.68 334.47,-175.04"/>
<text text-anchor="middle" x="321.47" y="-178.04" font-family="Times,serif" font-size="10.00">owner</text>
<text text-anchor="middle" x="312.38" y="-213.72" font-family="Times,serif" font-size="10.00">account</text>
</g>
<!-- 8a633aa5_907c_4e57_a313_22e0adb2672e&#45;&gt;c -->
<g id="edge15" class="edge">
<title>8a633aa5_907c_4e57_a313_22e0adb2672e&#45;&gt;c</title>
<path fill="none" stroke="black" d="M238.96,-221.77C228.26,-211.26 218.85,-199.3 212.5,-186 191.83,-142.68 180.43,-113.72 212.5,-78 240.5,-46.81 499.57,-31.42 640.37,-25.31"/>
<text text-anchor="middle" x="622.37" y="-17.31" font-family="Times,serif" font-size="10.00">currency</text>
</g>
<!-- 7ec351d6_652f_4691_8e72_ea432d44a0c8&#45;&gt;e2f7bc4c_ef2a_466e_b8a5_d24f48b13afe -->
<g id="edge18" class="edge">
<title>7ec351d6_652f_4691_8e72_ea432d44a0c8&#45;&gt;e2f7bc4c_ef2a_466e_b8a5_d24f48b13afe</title>
<path fill="none" stroke="black" d="M630.12,-221.72C630.02,-206.3 629.9,-189.68 629.8,-175.04"/>
<text text-anchor="middle" x="616.8" y="-178.04" font-family="Times,serif" font-size="10.00">owner</text>
<text text-anchor="middle" x="613.62" y="-213.72" font-family="Times,serif" font-size="10.00">account</text>
</g>
<!-- 7ec351d6_652f_4691_8e72_ea432d44a0c8&#45;&gt;c -->
<g id="edge17" class="edge">
<title>7ec351d6_652f_4691_8e72_ea432d44a0c8&#45;&gt;c</title>
<path fill="none" stroke="black" d="M533.19,-221.84C521.66,-211.49 511.52,-199.56 504.5,-186 482.42,-143.38 474.92,-115.8 504.5,-78 521.56,-56.19 585.09,-41.69 640.46,-32.92"/>
<text text-anchor="middle" x="622.46" y="-35.92" font-family="Times,serif" font-size="10.00">currency</text>
</g>
<!-- 832e9ab4_a76d_46cd_94d9_fed86837f22e&#45;&gt;b7f428fa_e056_4cda_94f0_d3113f6a1e24 -->
<g id="edge21" class="edge">
<title>832e9ab4_a76d_46cd_94d9_fed86837f22e&#45;&gt;b7f428fa_e056_4cda_94f0_d3113f6a1e24</title>
<path fill="none" stroke="black" d="M1396.03,-221.72C1413.85,-206.3 1433.04,-189.68 1449.94,-175.04"/>
<text text-anchor="middle" x="1436.94" y="-178.04" font-family="Times,serif" font-size="10.00">owner</text>
<text text-anchor="middle" x="1379.53" y="-213.72" font-family="Times,serif" font-size="10.00">account</text>
</g>
<!-- 832e9ab4_a76d_46cd_94d9_fed86837f22e&#45;&gt;6e1bee19_f63c_40a3_beb2_34c260c91b27 -->
<g id="edge19" class="edge">
<title>832e9ab4_a76d_46cd_94d9_fed86837f22e&#45;&gt;6e1bee19_f63c_40a3_beb2_34c260c91b27</title>
<path fill="none" stroke="black" d="M1281.6,-221.72C1266.28,-206.3 1249.78,-189.68 1235.25,-175.04"/>
<text text-anchor="middle" x="1293.25" y="-178.04" font-family="Times,serif" font-size="10.00">allTransactionsOrderedDesc</text>
<text text-anchor="middle" x="1268.1" y="-213.72" font-family="Times,serif" font-size="10.00">source</text>
</g>
<!-- 832e9ab4_a76d_46cd_94d9_fed86837f22e&#45;&gt;c -->
<g id="edge20" class="edge">
<title>832e9ab4_a76d_46cd_94d9_fed86837f22e&#45;&gt;c</title>
<path fill="none" stroke="black" d="M1352.54,-221.58C1363.74,-177.44 1370.18,-116.04 1335.5,-78 1318.4,-59.24 984.93,-37.03 820.55,-27.17"/>
<text text-anchor="middle" x="838.55" y="-19.17" font-family="Times,serif" font-size="10.00">currency</text>
</g>
<!-- 3410ff17_ad24_444f_817c_f43493335f4d&#45;&gt;8925193e_12c3_434b_a9c7_4085b54bfcd9 -->
<g id="edge24" class="edge">
<title>3410ff17_ad24_444f_817c_f43493335f4d&#45;&gt;8925193e_12c3_434b_a9c7_4085b54bfcd9</title>
<path fill="none" stroke="black" d="M955.98,-221.72C943.38,-206.3 929.8,-189.68 917.85,-175.04"/>
<text text-anchor="middle" x="904.85" y="-178.04" font-family="Times,serif" font-size="10.00">owner</text>
<text text-anchor="middle" x="939.48" y="-213.72" font-family="Times,serif" font-size="10.00">account</text>
</g>
<!-- 3410ff17_ad24_444f_817c_f43493335f4d&#45;&gt;6e1bee19_f63c_40a3_beb2_34c260c91b27 -->
<g id="edge22" class="edge">
<title>3410ff17_ad24_444f_817c_f43493335f4d&#45;&gt;6e1bee19_f63c_40a3_beb2_34c260c91b27</title>
<path fill="none" stroke="black" d="M1072.01,-221.92C1093.11,-206.48 1115.86,-189.83 1135.9,-175.16"/>
<text text-anchor="middle" x="1077.9" y="-178.16" font-family="Times,serif" font-size="10.00">allTransactionsOrderedDesc</text>
<text text-anchor="middle" x="1049.01" y="-213.92" font-family="Times,serif" font-size="10.00">destination</text>
</g>
<!-- 3410ff17_ad24_444f_817c_f43493335f4d&#45;&gt;c -->
<g id="edge23" class="edge">
<title>3410ff17_ad24_444f_817c_f43493335f4d&#45;&gt;c</title>
<path fill="none" stroke="black" d="M1021.26,-221.65C1035.12,-178.14 1045.01,-117.61 1012.5,-78 988.47,-48.73 893.84,-34.48 820.75,-27.73"/>
<text text-anchor="middle" x="838.75" y="-30.73" font-family="Times,serif" font-size="10.00">currency</text>
</g>
<!-- 6e1bee19_f63c_40a3_beb2_34c260c91b27&#45;&gt;c -->
<g id="edge25" class="edge">
<title>6e1bee19_f63c_40a3_beb2_34c260c91b27&#45;&gt;c</title>
<path fill="none" stroke="black" d="M1082.97,-88.88C1070.76,-84.91 1058.43,-81.18 1046.5,-78 971.4,-57.96 884.32,-43.14 820.61,-33.79"/>
<text text-anchor="middle" x="838.61" y="-36.79" font-family="Times,serif" font-size="10.00">currency</text>
</g>
<!-- s -->
<g id="node16" class="node">
<title>s</title>
<polygon fill="none" stroke="black" points="1091.5,-21 1091.5,-38 1296.5,-38 1296.5,-21 1091.5,-21"/>
<text text-anchor="start" x="1177" y="-28" font-family="Times,serif" text-decoration="underline" font-size="10.00">s :Status</text>
<polygon fill="none" stroke="black" points="1091.5,-4 1091.5,-21 1296.5,-21 1296.5,-4 1091.5,-4"/>
<text text-anchor="start" x="1094.5" y="-10" font-family="Times,serif" font-size="10.00">declaringClass = class model.Transaction$Status</text>
</g>
<!-- 6e1bee19_f63c_40a3_beb2_34c260c91b27&#45;&gt;s -->
<g id="edge26" class="edge">
<title>6e1bee19_f63c_40a3_beb2_34c260c91b27&#45;&gt;s</title>
<path fill="none" stroke="black" d="M1193.5,-88.86C1193.5,-72.8 1193.5,-55.24 1193.5,-42.14"/>
<text text-anchor="middle" x="1181.5" y="-45.14" font-family="Times,serif" font-size="10.00">status</text>
</g>
</g>
</svg>
