<?xml version="1.0" encoding="UTF-8" standalone="no"?>
<!DOCTYPE svg PUBLIC "-//W3C//DTD SVG 1.1//EN"
 "http://www.w3.org/Graphics/SVG/1.1/DTD/svg11.dtd">
<!-- Generated by graphviz version 2.44.0 (20200408.0750)
 -->
<!-- Pages: 1 -->
<svg width="876px" height="516px"
 viewBox="0.00 0.00 875.97 516.00" xmlns="http://www.w3.org/2000/svg" xmlns:xlink="http://www.w3.org/1999/xlink">
<g id="graph0" class="graph" transform="scale(1.0 1.0) rotate(0) translate(4 512)">
<polygon fill="white" stroke="transparent" points="-4,4 -4,-512 871.97,-512 871.97,4 -4,4"/>
<!-- 353a5bf8_c45f_42a6_b0e1_779982be1e67 -->
<g id="node1" class="node">
<title>353a5bf8_c45f_42a6_b0e1_779982be1e67</title>
<polygon fill="none" stroke="black" points="196.97,-486 196.97,-504 421.97,-504 421.97,-486 196.97,-486"/>
<text text-anchor="start" x="199.93" y="-493" font-family="Times,serif" text-decoration="underline" font-size="10.00">353a5bf8&#45;c45f&#45;42a6&#45;b0e1&#45;779982be1e67 :Transaction</text>
<polygon fill="none" stroke="black" points="196.97,-420 196.97,-486 421.97,-486 421.97,-420 196.97,-420"/>
<text text-anchor="start" x="208.85" y="-474" font-family="Times,serif" font-size="10.00">amount = 25.5</text>
<text text-anchor="start" x="208.85" y="-462" font-family="Times,serif" font-size="10.00">description = &quot;ref: 001&quot;</text>
<text text-anchor="start" x="208.85" y="-450" font-family="Times,serif" font-size="10.00">id = &quot;353a5bf8&#45;c45f&#45;42a6&#45;b0e1&#45;779982be1e67&quot;</text>
<text text-anchor="start" x="208.85" y="-438" font-family="Times,serif" font-size="10.00">rejectionDescription = &quot;Source account is invalid&quot;</text>
<text text-anchor="start" x="208.85" y="-426" font-family="Times,serif" font-size="10.00">timestamp = 2021&#45;11&#45;21T21:23:42.038528600</text>
</g>
<!-- b -->
<g id="node2" class="node">
<title>b</title>
<polygon fill="none" stroke="black" points="273.97,-126 273.97,-144 344.97,-144 344.97,-126 273.97,-126"/>
<text text-anchor="start" x="293.78" y="-133" font-family="Times,serif" text-decoration="underline" font-size="10.00">b :Bank</text>
<polygon fill="none" stroke="black" points="273.97,-96 273.97,-126 344.97,-126 344.97,-96 273.97,-96"/>
<text text-anchor="start" x="276.97" y="-114" font-family="Times,serif" font-size="10.00">accountsMap = </text>
<text text-anchor="start" x="276.97" y="-102" font-family="Times,serif" font-size="10.00">customerMap = </text>
</g>
<!-- 353a5bf8_c45f_42a6_b0e1_779982be1e67&#45;&gt;b -->
<g id="edge1" class="edge">
<title>353a5bf8_c45f_42a6_b0e1_779982be1e67&#45;&gt;b</title>
<path fill="none" stroke="black" d="M188.18,-442.41C117.96,-428.86 39.23,-407.98 17.97,-380 -64.87,-270.94 165.43,-172.36 265.3,-135.92"/>
<text text-anchor="middle" x="255.58" y="-138.92" font-family="Times,serif" font-size="10.00">bank</text>
</g>
<!-- c -->
<g id="node3" class="node">
<title>c</title>
<polygon fill="none" stroke="black" points="34.97,-346 34.97,-364 168.97,-364 168.97,-346 34.97,-346"/>
<text text-anchor="start" x="78.51" y="-353" font-family="Times,serif" text-decoration="underline" font-size="10.00">c :Currency</text>
<polygon fill="none" stroke="black" points="34.97,-328 34.97,-346 168.97,-346 168.97,-328 34.97,-328"/>
<text text-anchor="start" x="37.97" y="-334" font-family="Times,serif" font-size="10.00">declaringClass = class Currency</text>
</g>
<!-- 353a5bf8_c45f_42a6_b0e1_779982be1e67&#45;&gt;c -->
<g id="edge2" class="edge">
<title>353a5bf8_c45f_42a6_b0e1_779982be1e67&#45;&gt;c</title>
<path fill="none" stroke="black" d="M227.16,-415.94C197.21,-399.45 164.73,-381.56 140.36,-368.14"/>
<text text-anchor="middle" x="122.87" y="-371.14" font-family="Times,serif" font-size="10.00">currency</text>
</g>
<!-- 0943816e_20cb_404d_a41a_44d7cc11fb7f -->
<g id="node4" class="node">
<title>0943816e_20cb_404d_a41a_44d7cc11fb7f</title>
<polygon fill="none" stroke="black" points="203.97,-358 203.97,-376 414.97,-376 414.97,-358 203.97,-358"/>
<text text-anchor="start" x="206.59" y="-365" font-family="Times,serif" text-decoration="underline" font-size="10.00">0943816e&#45;20cb&#45;404d&#45;a41a&#45;44d7cc11fb7f :Account</text>
<polygon fill="none" stroke="black" points="203.97,-316 203.97,-358 414.97,-358 414.97,-316 203.97,-316"/>
<text text-anchor="start" x="212.88" y="-346" font-family="Times,serif" font-size="10.00">balance = 0.0</text>
<text text-anchor="start" x="212.88" y="-334" font-family="Times,serif" font-size="10.00">currency = EUR</text>
<text text-anchor="start" x="212.88" y="-322" font-family="Times,serif" font-size="10.00">id = &quot;0943816e&#45;20cb&#45;404d&#45;a41a&#45;44d7cc11fb7f&quot;</text>
</g>
<!-- 353a5bf8_c45f_42a6_b0e1_779982be1e67&#45;&gt;0943816e_20cb_404d_a41a_44d7cc11fb7f -->
<g id="edge3" class="edge">
<title>353a5bf8_c45f_42a6_b0e1_779982be1e67&#45;&gt;0943816e_20cb_404d_a41a_44d7cc11fb7f</title>
<path fill="none" stroke="black" d="M308.97,-415.94C308.97,-403.99 308.97,-391.31 308.97,-380.13"/>
<text text-anchor="middle" x="287.03" y="-383.13" font-family="Times,serif" font-size="10.00">destination</text>
</g>
<!-- af9e6618_1e6f_45ff_bf3e_7f9e6e370e9e -->
<g id="node5" class="node">
<title>af9e6618_1e6f_45ff_bf3e_7f9e6e370e9e</title>
<polygon fill="none" stroke="black" points="448.97,-358 448.97,-376 651.97,-376 651.97,-358 448.97,-358"/>
<text text-anchor="start" x="451.5" y="-365" font-family="Times,serif" text-decoration="underline" font-size="10.00">af9e6618&#45;1e6f&#45;45ff&#45;bf3e&#45;7f9e6e370e9e :Account</text>
<polygon fill="none" stroke="black" points="448.97,-316 448.97,-358 651.97,-358 651.97,-316 448.97,-316"/>
<text text-anchor="start" x="457.78" y="-346" font-family="Times,serif" font-size="10.00">balance = 100.0</text>
<text text-anchor="start" x="457.78" y="-334" font-family="Times,serif" font-size="10.00">currency = EUR</text>
<text text-anchor="start" x="457.78" y="-322" font-family="Times,serif" font-size="10.00">id = &quot;af9e6618&#45;1e6f&#45;45ff&#45;bf3e&#45;7f9e6e370e9e&quot;</text>
</g>
<!-- 353a5bf8_c45f_42a6_b0e1_779982be1e67&#45;&gt;af9e6618_1e6f_45ff_bf3e_7f9e6e370e9e -->
<g id="edge4" class="edge">
<title>353a5bf8_c45f_42a6_b0e1_779982be1e67&#45;&gt;af9e6618_1e6f_45ff_bf3e_7f9e6e370e9e</title>
<path fill="none" stroke="black" d="M404.22,-415.94C429.48,-403.99 456.3,-391.31 479.94,-380.13"/>
<text text-anchor="middle" x="466.89" y="-383.13" font-family="Times,serif" font-size="10.00">source</text>
</g>
<!-- s -->
<g id="node6" class="node">
<title>s</title>
<polygon fill="none" stroke="black" points="685.97,-346 685.97,-364 859.97,-364 859.97,-346 685.97,-346"/>
<text text-anchor="start" x="756.17" y="-353" font-family="Times,serif" text-decoration="underline" font-size="10.00">s :Status</text>
<polygon fill="none" stroke="black" points="685.97,-328 685.97,-346 859.97,-346 859.97,-328 685.97,-328"/>
<text text-anchor="start" x="688.97" y="-334" font-family="Times,serif" font-size="10.00">declaringClass = class Transaction$Status</text>
</g>
<!-- 353a5bf8_c45f_42a6_b0e1_779982be1e67&#45;&gt;s -->
<g id="edge5" class="edge">
<title>353a5bf8_c45f_42a6_b0e1_779982be1e67&#45;&gt;s</title>
<path fill="none" stroke="black" d="M429.66,-436.37C499.61,-421.45 589.16,-401.24 667.97,-380 681.35,-376.4 695.57,-372.19 709.09,-368"/>
<text text-anchor="middle" x="697.7" y="-371" font-family="Times,serif" font-size="10.00">status</text>
</g>
<!-- 62a236ed_1488_4c32_8909_de73334dfcd6 -->
<g id="node7" class="node">
<title>62a236ed_1488_4c32_8909_de73334dfcd6</title>
<polygon fill="none" stroke="black" points="202.97,-34 202.97,-52 415.97,-52 415.97,-34 202.97,-34"/>
<text text-anchor="start" x="205.48" y="-41" font-family="Times,serif" text-decoration="underline" font-size="10.00">62a236ed&#45;1488&#45;4c32&#45;8909&#45;de73334dfcd6 :Account</text>
<polygon fill="none" stroke="black" points="202.97,-4 202.97,-34 415.97,-34 415.97,-4 202.97,-4"/>
<text text-anchor="start" x="211.77" y="-22" font-family="Times,serif" font-size="10.00">balance = 69420.0</text>
<text text-anchor="start" x="211.77" y="-10" font-family="Times,serif" font-size="10.00">id = &quot;62a236ed&#45;1488&#45;4c32&#45;8909&#45;de73334dfcd6&quot;</text>
</g>
<!-- b&#45;&gt;62a236ed_1488_4c32_8909_de73334dfcd6 -->
<g id="edge6" class="edge">
<title>b&#45;&gt;62a236ed_1488_4c32_8909_de73334dfcd6</title>
<path fill="none" stroke="black" d="M308.97,-92C308.97,-80.71 308.97,-67.61 308.97,-56.29"/>
<text text-anchor="middle" x="282.32" y="-59.29" font-family="Times,serif" font-size="10.00">bankAccount</text>
<text text-anchor="middle" x="299.25" y="-83" font-family="Times,serif" font-size="10.00">bank</text>
</g>
<!-- 0943816e_20cb_404d_a41a_44d7cc11fb7f&#45;&gt;b -->
<g id="edge7" class="edge">
<title>0943816e_20cb_404d_a41a_44d7cc11fb7f&#45;&gt;b</title>
<path fill="none" stroke="black" d="M219.22,-311.83C204.75,-302.47 191.68,-290.7 182.97,-276 162.13,-240.82 161.48,-218.78 182.97,-184 200.85,-155.08 236.46,-138.99 265.27,-130.33"/>
<text text-anchor="middle" x="255.55" y="-121.33" font-family="Times,serif" font-size="10.00">bank</text>
</g>
<!-- d2a98b9f_c71d_49ce_84a7_dd15db2449a7 -->
<g id="node8" class="node">
<title>d2a98b9f_c71d_49ce_84a7_dd15db2449a7</title>
<polygon fill="none" stroke="black" points="199.97,-254 199.97,-272 417.97,-272 417.97,-254 199.97,-254"/>
<text text-anchor="start" x="202.75" y="-261" font-family="Times,serif" text-decoration="underline" font-size="10.00">d2a98b9f&#45;c71d&#45;49ce&#45;84a7&#45;dd15db2449a7 :Customer</text>
<polygon fill="none" stroke="black" points="199.97,-188 199.97,-254 417.97,-254 417.97,-188 199.97,-188"/>
<text text-anchor="start" x="211.55" y="-242" font-family="Times,serif" font-size="10.00">email = &quot;bobby@tt.ee&quot;</text>
<text text-anchor="start" x="211.55" y="-230" font-family="Times,serif" font-size="10.00">firstName = &quot;Bob&quot;</text>
<text text-anchor="start" x="211.55" y="-218" font-family="Times,serif" font-size="10.00">id = &quot;d2a98b9f&#45;c71d&#45;49ce&#45;84a7&#45;dd15db2449a7&quot;</text>
<text text-anchor="start" x="211.55" y="-206" font-family="Times,serif" font-size="10.00">lastName = &quot;Jackson&quot;</text>
<text text-anchor="start" x="211.55" y="-194" font-family="Times,serif" font-size="10.00">password = &quot;secret&quot;</text>
</g>
<!-- 0943816e_20cb_404d_a41a_44d7cc11fb7f&#45;&gt;d2a98b9f_c71d_49ce_84a7_dd15db2449a7 -->
<g id="edge8" class="edge">
<title>0943816e_20cb_404d_a41a_44d7cc11fb7f&#45;&gt;d2a98b9f_c71d_49ce_84a7_dd15db2449a7</title>
<path fill="none" stroke="black" d="M308.97,-311.72C308.97,-300.68 308.97,-288.19 308.97,-276.4"/>
<text text-anchor="middle" x="296.48" y="-279.4" font-family="Times,serif" font-size="10.00">owner</text>
</g>
<!-- af9e6618_1e6f_45ff_bf3e_7f9e6e370e9e&#45;&gt;b -->
<g id="edge9" class="edge">
<title>af9e6618_1e6f_45ff_bf3e_7f9e6e370e9e&#45;&gt;b</title>
<path fill="none" stroke="black" d="M506.2,-311.87C494.32,-301.35 482.2,-289.04 472.97,-276 447.42,-239.89 465.11,-216.39 434.97,-184 412.73,-160.1 379.42,-143.99 352.64,-134.05"/>
<text text-anchor="middle" x="362.36" y="-125.05" font-family="Times,serif" font-size="10.00">bank</text>
</g>
<!-- 92d9ad95_3809_4796_ba0a_beb78567012a -->
<g id="node9" class="node">
<title>92d9ad95_3809_4796_ba0a_beb78567012a</title>
<polygon fill="none" stroke="black" points="489.97,-254 489.97,-272 709.97,-272 709.97,-254 489.97,-254"/>
<text text-anchor="start" x="492.64" y="-261" font-family="Times,serif" text-decoration="underline" font-size="10.00">92d9ad95&#45;3809&#45;4796&#45;ba0a&#45;beb78567012a :Customer</text>
<polygon fill="none" stroke="black" points="489.97,-188 489.97,-254 709.97,-254 709.97,-188 489.97,-188"/>
<text text-anchor="start" x="501.43" y="-242" font-family="Times,serif" font-size="10.00">email = &quot;john@doe.ee&quot;</text>
<text text-anchor="start" x="501.43" y="-230" font-family="Times,serif" font-size="10.00">firstName = &quot;John&quot;</text>
<text text-anchor="start" x="501.43" y="-218" font-family="Times,serif" font-size="10.00">id = &quot;92d9ad95&#45;3809&#45;4796&#45;ba0a&#45;beb78567012a&quot;</text>
<text text-anchor="start" x="501.43" y="-206" font-family="Times,serif" font-size="10.00">lastName = &quot;Doe&quot;</text>
<text text-anchor="start" x="501.43" y="-194" font-family="Times,serif" font-size="10.00">password = &quot;pass1234&quot;</text>
</g>
<!-- af9e6618_1e6f_45ff_bf3e_7f9e6e370e9e&#45;&gt;92d9ad95_3809_4796_ba0a_beb78567012a -->
<g id="edge10" class="edge">
<title>af9e6618_1e6f_45ff_bf3e_7f9e6e370e9e&#45;&gt;92d9ad95_3809_4796_ba0a_beb78567012a</title>
<path fill="none" stroke="black" d="M564.57,-311.72C569.41,-300.68 574.89,-288.19 580.06,-276.4"/>
<text text-anchor="middle" x="567.57" y="-279.4" font-family="Times,serif" font-size="10.00">owner</text>
</g>
<!-- d2a98b9f_c71d_49ce_84a7_dd15db2449a7&#45;&gt;b -->
<g id="edge11" class="edge">
<title>d2a98b9f_c71d_49ce_84a7_dd15db2449a7&#45;&gt;b</title>
<path fill="none" stroke="black" d="M308.97,-183.82C308.97,-171.69 308.97,-158.94 308.97,-148.12"/>
<text text-anchor="middle" x="299.25" y="-151.12" font-family="Times,serif" font-size="10.00">bank</text>
</g>
<!-- 92d9ad95_3809_4796_ba0a_beb78567012a&#45;&gt;b -->
<g id="edge12" class="edge">
<title>92d9ad95_3809_4796_ba0a_beb78567012a&#45;&gt;b</title>
<path fill="none" stroke="black" d="M481.61,-185.07C436.14,-168.19 387,-149.96 352.81,-137.27"/>
<text text-anchor="middle" x="362.53" y="-140.27" font-family="Times,serif" font-size="10.00">bank</text>
</g>
</g>
</svg>
