<?xml version="1.0" encoding="UTF-8" standalone="no"?>
<!DOCTYPE svg PUBLIC "-//W3C//DTD SVG 1.1//EN"
 "http://www.w3.org/Graphics/SVG/1.1/DTD/svg11.dtd">
<!-- Generated by graphviz version 2.44.0 (20200408.0750)
 -->
<!-- Title: model Pages: 1 -->
<svg width="1737px" height="484px"
 viewBox="0.00 0.00 1736.50 484.00" xmlns="http://www.w3.org/2000/svg" xmlns:xlink="http://www.w3.org/1999/xlink">
<g id="graph0" class="graph" transform="scale(1.0 1.0) rotate(0) translate(4 480)">
<title>model</title>
<polygon fill="white" stroke="transparent" points="-4,4 -4,-480 1732.5,-480 1732.5,4 -4,4"/>
<!-- 2ce13fa9_830a_4df4_9b3e_cc8263bf0ee4 -->
<g id="node1" class="node">
<title>2ce13fa9_830a_4df4_9b3e_cc8263bf0ee4</title>
<polygon fill="none" stroke="black" points="1192,-454 1192,-472 1413,-472 1413,-454 1192,-454"/>
<text text-anchor="start" x="1194.63" y="-461" font-family="Times,serif" text-decoration="underline" font-size="10.00">2ce13fa9&#45;830a&#45;4df4&#45;9b3e&#45;cc8263bf0ee4 :Transaction</text>
<polygon fill="none" stroke="black" points="1192,-388 1192,-454 1413,-454 1413,-388 1192,-388"/>
<text text-anchor="start" x="1195.08" y="-442" font-family="Times,serif" font-size="10.00">amount = 25.0</text>
<text text-anchor="start" x="1195.08" y="-430" font-family="Times,serif" font-size="10.00">description = &quot;Ref: concert ticket&quot;</text>
<text text-anchor="start" x="1195.08" y="-418" font-family="Times,serif" font-size="10.00">id = &quot;2ce13fa9&#45;830a&#45;4df4&#45;9b3e&#45;cc8263bf0ee4&quot;</text>
<text text-anchor="start" x="1195.08" y="-406" font-family="Times,serif" font-size="10.00">rejectionDescription = &quot;Currency mismatch detected&quot;</text>
<text text-anchor="start" x="1195.08" y="-394" font-family="Times,serif" font-size="10.00">timestamp = 2021&#45;12&#45;10T00:12:54.190310</text>
</g>
<!-- b -->
<g id="node2" class="node">
<title>b</title>
<polygon fill="none" stroke="black" points="405,-326 405,-344 1219,-344 1219,-326 405,-326"/>
<text text-anchor="start" x="796.31" y="-333" font-family="Times,serif" text-decoration="underline" font-size="10.00">b :Bank</text>
<polygon fill="none" stroke="black" points="405,-296 405,-326 1219,-326 1219,-296 405,-296"/>
<text text-anchor="start" x="408" y="-314" font-family="Times,serif" font-size="10.00">accountsMap = 725f3664&#45;d9b0&#45;473f&#45;8610&#45;12cb682a5ddesendItToTheBank8a633aa5&#45;907c&#45;4e57&#45;a313&#45;22e0adb2672e7ec351d6&#45;652f&#45;4691&#45;8e72&#45;ea432d44a0c85b0c8d48&#45;d86f&#45;406b&#45;9ba4&#45;3b1f967997e5</text>
<text text-anchor="start" x="408" y="-302" font-family="Times,serif" font-size="10.00">customerMap = 7f6b63b8&#45;eafa&#45;4ff8&#45;814d&#45;004a51d4f0dd1c0f88c2&#45;4440&#45;4cc3&#45;8d9c&#45;ad5a413417c1e2f7bc4c&#45;ef2a&#45;466e&#45;b8a5&#45;d24f48b13afe1eaf6f4c&#45;4f92&#45;4e04&#45;bd87&#45;c82be03265de</text>
</g>
<!-- 2ce13fa9_830a_4df4_9b3e_cc8263bf0ee4&#45;&gt;b -->
<g id="edge1" class="edge">
<title>2ce13fa9_830a_4df4_9b3e_cc8263bf0ee4&#45;&gt;b</title>
<path fill="none" stroke="black" d="M1183.38,-402.86C1108.04,-386.25 1010.75,-364.81 934.64,-348.03"/>
<text text-anchor="middle" x="924.92" y="-351.03" font-family="Times,serif" font-size="10.00">bank</text>
<text text-anchor="middle" x="1159.5" y="-405.86" font-family="Times,serif" font-size="10.00">transactions</text>
</g>
<!-- c -->
<g id="node3" class="node">
<title>c</title>
<polygon fill="none" stroke="black" points="1008,-46 1008,-64 1170,-64 1170,-46 1008,-46"/>
<text text-anchor="start" x="1065.54" y="-53" font-family="Times,serif" text-decoration="underline" font-size="10.00">c :Currency</text>
<polygon fill="none" stroke="black" points="1008,-28 1008,-46 1170,-46 1170,-28 1008,-28"/>
<text text-anchor="start" x="1011" y="-34" font-family="Times,serif" font-size="10.00">declaringClass = class model.Currency</text>
</g>
<!-- 2ce13fa9_830a_4df4_9b3e_cc8263bf0ee4&#45;&gt;c -->
<g id="edge2" class="edge">
<title>2ce13fa9_830a_4df4_9b3e_cc8263bf0ee4&#45;&gt;c</title>
<path fill="none" stroke="black" d="M1346.93,-383.93C1404.12,-321.07 1488.31,-206.03 1425,-128 1376.06,-67.69 1329.5,-110.23 1254,-92 1223.98,-84.75 1191.12,-75.97 1162.68,-68.09"/>
<text text-anchor="middle" x="1145.2" y="-71.09" font-family="Times,serif" font-size="10.00">currency</text>
</g>
<!-- 5b0c8d48_d86f_406b_9ba4_3b1f967997e5 -->
<g id="node4" class="node">
<title>5b0c8d48_d86f_406b_9ba4_3b1f967997e5</title>
<polygon fill="none" stroke="black" points="122,-234 122,-252 335,-252 335,-234 122,-234"/>
<text text-anchor="start" x="124.78" y="-241" font-family="Times,serif" text-decoration="underline" font-size="10.00">5b0c8d48&#45;d86f&#45;406b&#45;9ba4&#45;3b1f967997e5 :Account</text>
<polygon fill="none" stroke="black" points="122,-132 122,-234 335,-234 335,-132 122,-132"/>
<text text-anchor="start" x="131.07" y="-222" font-family="Times,serif" font-size="10.00">balance = 0.0</text>
<text text-anchor="start" x="131.07" y="-210" font-family="Times,serif" font-size="10.00">count = 0</text>
<text text-anchor="start" x="131.07" y="-198" font-family="Times,serif" font-size="10.00">customerId = null</text>
<text text-anchor="start" x="131.07" y="-186" font-family="Times,serif" font-size="10.00">iban = &quot;EE630339691486896677&quot;</text>
<text text-anchor="start" x="131.07" y="-174" font-family="Times,serif" font-size="10.00">id = &quot;5b0c8d48&#45;d86f&#45;406b&#45;9ba4&#45;3b1f967997e5&quot;</text>
<text text-anchor="start" x="131.07" y="-162" font-family="Times,serif" font-size="10.00">receivedTransaction = </text>
<text text-anchor="start" x="131.07" y="-150" font-family="Times,serif" font-size="10.00">sentTransaction = </text>
<text text-anchor="start" x="131.07" y="-138" font-family="Times,serif" font-size="10.00">status = &quot;ACTIVE&quot;</text>
</g>
<!-- 2ce13fa9_830a_4df4_9b3e_cc8263bf0ee4&#45;&gt;5b0c8d48_d86f_406b_9ba4_3b1f967997e5 -->
<g id="edge3" class="edge">
<title>2ce13fa9_830a_4df4_9b3e_cc8263bf0ee4&#45;&gt;5b0c8d48_d86f_406b_9ba4_3b1f967997e5</title>
<path fill="none" stroke="black" d="M1183.17,-428.24C968.77,-425.28 526.62,-411.4 388,-348 343.51,-327.65 303.92,-289.57 275.25,-256.24"/>
<text text-anchor="middle" x="253.31" y="-259.24" font-family="Times,serif" font-size="10.00">destination</text>
</g>
<!-- 725f3664_d9b0_473f_8610_12cb682a5dde -->
<g id="node5" class="node">
<title>725f3664_d9b0_473f_8610_12cb682a5dde</title>
<polygon fill="none" stroke="black" points="1196,-234 1196,-252 1409,-252 1409,-234 1196,-234"/>
<text text-anchor="start" x="1198.78" y="-241" font-family="Times,serif" text-decoration="underline" font-size="10.00">725f3664&#45;d9b0&#45;473f&#45;8610&#45;12cb682a5dde :Account</text>
<polygon fill="none" stroke="black" points="1196,-132 1196,-234 1409,-234 1409,-132 1196,-132"/>
<text text-anchor="start" x="1205.07" y="-222" font-family="Times,serif" font-size="10.00">balance = 100.0</text>
<text text-anchor="start" x="1205.07" y="-210" font-family="Times,serif" font-size="10.00">count = 0</text>
<text text-anchor="start" x="1205.07" y="-198" font-family="Times,serif" font-size="10.00">customerId = null</text>
<text text-anchor="start" x="1205.07" y="-186" font-family="Times,serif" font-size="10.00">iban = &quot;EE341974493396961381&quot;</text>
<text text-anchor="start" x="1205.07" y="-174" font-family="Times,serif" font-size="10.00">id = &quot;725f3664&#45;d9b0&#45;473f&#45;8610&#45;12cb682a5dde&quot;</text>
<text text-anchor="start" x="1205.07" y="-162" font-family="Times,serif" font-size="10.00">receivedTransaction = </text>
<text text-anchor="start" x="1205.07" y="-150" font-family="Times,serif" font-size="10.00">sentTransaction = </text>
<text text-anchor="start" x="1205.07" y="-138" font-family="Times,serif" font-size="10.00">status = &quot;ACTIVE&quot;</text>
</g>
<!-- 2ce13fa9_830a_4df4_9b3e_cc8263bf0ee4&#45;&gt;725f3664_d9b0_473f_8610_12cb682a5dde -->
<g id="edge4" class="edge">
<title>2ce13fa9_830a_4df4_9b3e_cc8263bf0ee4&#45;&gt;725f3664_d9b0_473f_8610_12cb682a5dde</title>
<path fill="none" stroke="black" d="M1302,-383.78C1302,-347.64 1302,-296.56 1302,-256.35"/>
<text text-anchor="middle" x="1288.95" y="-259.35" font-family="Times,serif" font-size="10.00">source</text>
</g>
<!-- s -->
<g id="node6" class="node">
<title>s</title>
<polygon fill="none" stroke="black" points="1520,-320 1520,-338 1721,-338 1721,-320 1520,-320"/>
<text text-anchor="start" x="1603.69" y="-327" font-family="Times,serif" text-decoration="underline" font-size="10.00">s :Status</text>
<polygon fill="none" stroke="black" points="1520,-302 1520,-320 1721,-320 1721,-302 1520,-302"/>
<text text-anchor="start" x="1523" y="-308" font-family="Times,serif" font-size="10.00">declaringClass = class model.Transaction$Status</text>
</g>
<!-- 2ce13fa9_830a_4df4_9b3e_cc8263bf0ee4&#45;&gt;s -->
<g id="edge5" class="edge">
<title>2ce13fa9_830a_4df4_9b3e_cc8263bf0ee4&#45;&gt;s</title>
<path fill="none" stroke="black" d="M1420.86,-388.63C1467.44,-372.81 1518.93,-355.33 1557.88,-342.1"/>
<text text-anchor="middle" x="1546.49" y="-345.1" font-family="Times,serif" font-size="10.00">status</text>
</g>
<!-- b&#45;&gt;5b0c8d48_d86f_406b_9ba4_3b1f967997e5 -->
<g id="edge10" class="edge">
<title>b&#45;&gt;5b0c8d48_d86f_406b_9ba4_3b1f967997e5</title>
<path fill="none" stroke="black" d="M516.54,-291.97C462.8,-283.15 407.73,-271.47 357,-256 352.23,-254.55 347.42,-252.94 342.6,-251.2"/>
<text text-anchor="middle" x="360.1" y="-254.2" font-family="Times,serif" font-size="10.00">accounts</text>
<text text-anchor="middle" x="526.26" y="-282.97" font-family="Times,serif" font-size="10.00">bank</text>
</g>
<!-- b&#45;&gt;725f3664_d9b0_473f_8610_12cb682a5dde -->
<g id="edge9" class="edge">
<title>b&#45;&gt;725f3664_d9b0_473f_8610_12cb682a5dde</title>
<path fill="none" stroke="black" d="M1032.85,-291.97C1081.35,-283.01 1131.95,-271.27 1178,-256 1181.09,-254.97 1184.21,-253.88 1187.33,-252.73"/>
<text text-anchor="middle" x="1169.83" y="-255.73" font-family="Times,serif" font-size="10.00">accounts</text>
<text text-anchor="middle" x="1023.13" y="-282.97" font-family="Times,serif" font-size="10.00">bank</text>
</g>
<!-- sendItToTheBank -->
<g id="node7" class="node">
<title>sendItToTheBank</title>
<polygon fill="none" stroke="black" points="1017,-234 1017,-252 1161,-252 1161,-234 1017,-234"/>
<text text-anchor="start" x="1033.32" y="-241" font-family="Times,serif" text-decoration="underline" font-size="10.00">sendItToTheBank :Account</text>
<polygon fill="none" stroke="black" points="1017,-132 1017,-234 1161,-234 1161,-132 1017,-132"/>
<text text-anchor="start" x="1020" y="-222" font-family="Times,serif" font-size="10.00">balance = 69420.0</text>
<text text-anchor="start" x="1020" y="-210" font-family="Times,serif" font-size="10.00">count = 0</text>
<text text-anchor="start" x="1020" y="-198" font-family="Times,serif" font-size="10.00">customerId = null</text>
<text text-anchor="start" x="1020" y="-186" font-family="Times,serif" font-size="10.00">iban = &quot;EE303153226344512375&quot;</text>
<text text-anchor="start" x="1020" y="-174" font-family="Times,serif" font-size="10.00">id = &quot;sendItToTheBank&quot;</text>
<text text-anchor="start" x="1020" y="-162" font-family="Times,serif" font-size="10.00">receivedTransaction = </text>
<text text-anchor="start" x="1020" y="-150" font-family="Times,serif" font-size="10.00">sentTransaction = </text>
<text text-anchor="start" x="1020" y="-138" font-family="Times,serif" font-size="10.00">status = &quot;ACTIVE&quot;</text>
</g>
<!-- b&#45;&gt;sendItToTheBank -->
<g id="edge6" class="edge">
<title>b&#45;&gt;sendItToTheBank</title>
<path fill="none" stroke="black" d="M909.75,-291.9C939.15,-282.22 971.02,-270.14 999,-256 1002.32,-254.32 1005.66,-252.54 1008.99,-250.66"/>
<text text-anchor="middle" x="982.33" y="-253.66" font-family="Times,serif" font-size="10.00">bankAccount</text>
<text text-anchor="middle" x="900.03" y="-282.9" font-family="Times,serif" font-size="10.00">bank</text>
</g>
<!-- 8a633aa5_907c_4e57_a313_22e0adb2672e -->
<g id="node8" class="node">
<title>8a633aa5_907c_4e57_a313_22e0adb2672e</title>
<polygon fill="none" stroke="black" points="445,-234 445,-252 679,-252 679,-234 445,-234"/>
<text text-anchor="start" x="458.29" y="-241" font-family="Times,serif" text-decoration="underline" font-size="10.00">8a633aa5&#45;907c&#45;4e57&#45;a313&#45;22e0adb2672e :Account</text>
<polygon fill="none" stroke="black" points="445,-132 445,-234 679,-234 679,-132 445,-132"/>
<text text-anchor="start" x="448" y="-222" font-family="Times,serif" font-size="10.00">balance = 0.0</text>
<text text-anchor="start" x="448" y="-210" font-family="Times,serif" font-size="10.00">count = 0</text>
<text text-anchor="start" x="448" y="-198" font-family="Times,serif" font-size="10.00">customerId = &quot;1eaf6f4c&#45;4f92&#45;4e04&#45;bd87&#45;c82be03265de&quot;</text>
<text text-anchor="start" x="448" y="-186" font-family="Times,serif" font-size="10.00">iban = &quot;EE500467859057350272&quot;</text>
<text text-anchor="start" x="448" y="-174" font-family="Times,serif" font-size="10.00">id = &quot;8a633aa5&#45;907c&#45;4e57&#45;a313&#45;22e0adb2672e&quot;</text>
<text text-anchor="start" x="448" y="-162" font-family="Times,serif" font-size="10.00">receivedTransaction = </text>
<text text-anchor="start" x="448" y="-150" font-family="Times,serif" font-size="10.00">sentTransaction = </text>
<text text-anchor="start" x="448" y="-138" font-family="Times,serif" font-size="10.00">status = &quot;ACTIVE&quot;</text>
</g>
<!-- b&#45;&gt;8a633aa5_907c_4e57_a313_22e0adb2672e -->
<g id="edge7" class="edge">
<title>b&#45;&gt;8a633aa5_907c_4e57_a313_22e0adb2672e</title>
<path fill="none" stroke="black" d="M758.37,-291.97C737.35,-281.38 712.28,-268.74 687.2,-256.1"/>
<text text-anchor="middle" x="669.71" y="-259.1" font-family="Times,serif" font-size="10.00">accounts</text>
<text text-anchor="middle" x="748.65" y="-282.97" font-family="Times,serif" font-size="10.00">bank</text>
</g>
<!-- 7ec351d6_652f_4691_8e72_ea432d44a0c8 -->
<g id="node9" class="node">
<title>7ec351d6_652f_4691_8e72_ea432d44a0c8</title>
<polygon fill="none" stroke="black" points="752,-234 752,-252 983,-252 983,-234 752,-234"/>
<text text-anchor="start" x="764.06" y="-241" font-family="Times,serif" text-decoration="underline" font-size="10.00">7ec351d6&#45;652f&#45;4691&#45;8e72&#45;ea432d44a0c8 :Account</text>
<polygon fill="none" stroke="black" points="752,-132 752,-234 983,-234 983,-132 752,-132"/>
<text text-anchor="start" x="755" y="-222" font-family="Times,serif" font-size="10.00">balance = 100.0</text>
<text text-anchor="start" x="755" y="-210" font-family="Times,serif" font-size="10.00">count = 0</text>
<text text-anchor="start" x="755" y="-198" font-family="Times,serif" font-size="10.00">customerId = &quot;e2f7bc4c&#45;ef2a&#45;466e&#45;b8a5&#45;d24f48b13afe&quot;</text>
<text text-anchor="start" x="755" y="-186" font-family="Times,serif" font-size="10.00">iban = &quot;EE508166157234538669&quot;</text>
<text text-anchor="start" x="755" y="-174" font-family="Times,serif" font-size="10.00">id = &quot;7ec351d6&#45;652f&#45;4691&#45;8e72&#45;ea432d44a0c8&quot;</text>
<text text-anchor="start" x="755" y="-162" font-family="Times,serif" font-size="10.00">receivedTransaction = </text>
<text text-anchor="start" x="755" y="-150" font-family="Times,serif" font-size="10.00">sentTransaction = </text>
<text text-anchor="start" x="755" y="-138" font-family="Times,serif" font-size="10.00">status = &quot;ACTIVE&quot;</text>
</g>
<!-- b&#45;&gt;7ec351d6_652f_4691_8e72_ea432d44a0c8 -->
<g id="edge8" class="edge">
<title>b&#45;&gt;7ec351d6_652f_4691_8e72_ea432d44a0c8</title>
<path fill="none" stroke="black" d="M823.8,-291.97C828.41,-281.41 833.9,-268.83 839.4,-256.23"/>
<text text-anchor="middle" x="821.91" y="-259.23" font-family="Times,serif" font-size="10.00">accounts</text>
<text text-anchor="middle" x="814.08" y="-282.97" font-family="Times,serif" font-size="10.00">bank</text>
</g>
<!-- e2f7bc4c_ef2a_466e_b8a5_d24f48b13afe -->
<g id="node10" class="node">
<title>e2f7bc4c_ef2a_466e_b8a5_d24f48b13afe</title>
<polygon fill="none" stroke="black" points="733,-70 733,-88 944,-88 944,-70 733,-70"/>
<text text-anchor="start" x="735.63" y="-77" font-family="Times,serif" text-decoration="underline" font-size="10.00">e2f7bc4c&#45;ef2a&#45;466e&#45;b8a5&#45;d24f48b13afe :Customer</text>
<polygon fill="none" stroke="black" points="733,-4 733,-70 944,-70 944,-4 733,-4"/>
<text text-anchor="start" x="744.42" y="-58" font-family="Times,serif" font-size="10.00">email = &quot;john@doe.ee&quot;</text>
<text text-anchor="start" x="744.42" y="-46" font-family="Times,serif" font-size="10.00">firstName = &quot;John&quot;</text>
<text text-anchor="start" x="744.42" y="-34" font-family="Times,serif" font-size="10.00">id = &quot;e2f7bc4c&#45;ef2a&#45;466e&#45;b8a5&#45;d24f48b13afe&quot;</text>
<text text-anchor="start" x="744.42" y="-22" font-family="Times,serif" font-size="10.00">lastName = &quot;Doe&quot;</text>
<text text-anchor="start" x="744.42" y="-10" font-family="Times,serif" font-size="10.00">password = &quot;pass1234&quot;</text>
</g>
<!-- b&#45;&gt;e2f7bc4c_ef2a_466e_b8a5_d24f48b13afe -->
<g id="edge11" class="edge">
<title>b&#45;&gt;e2f7bc4c_ef2a_466e_b8a5_d24f48b13afe</title>
<path fill="none" stroke="black" d="M764.66,-291.72C752.4,-282.12 740.75,-270.14 734,-256 709.48,-204.67 709.02,-179.11 734,-128 740.63,-114.43 750.76,-102.47 762.13,-92.2"/>
<text text-anchor="middle" x="741.86" y="-95.2" font-family="Times,serif" font-size="10.00">customers</text>
<text text-anchor="middle" x="774.38" y="-282.72" font-family="Times,serif" font-size="10.00">bank</text>
</g>
<!-- 1eaf6f4c_4f92_4e04_bd87_c82be03265de -->
<g id="node11" class="node">
<title>1eaf6f4c_4f92_4e04_bd87_c82be03265de</title>
<polygon fill="none" stroke="black" points="455,-70 455,-88 669,-88 669,-70 455,-70"/>
<text text-anchor="start" x="457.73" y="-77" font-family="Times,serif" text-decoration="underline" font-size="10.00">1eaf6f4c&#45;4f92&#45;4e04&#45;bd87&#45;c82be03265de :Customer</text>
<polygon fill="none" stroke="black" points="455,-4 455,-70 669,-70 669,-4 455,-4"/>
<text text-anchor="start" x="466.52" y="-58" font-family="Times,serif" font-size="10.00">email = &quot;bobby@tt.ee&quot;</text>
<text text-anchor="start" x="466.52" y="-46" font-family="Times,serif" font-size="10.00">firstName = &quot;Bob&quot;</text>
<text text-anchor="start" x="466.52" y="-34" font-family="Times,serif" font-size="10.00">id = &quot;1eaf6f4c&#45;4f92&#45;4e04&#45;bd87&#45;c82be03265de&quot;</text>
<text text-anchor="start" x="466.52" y="-22" font-family="Times,serif" font-size="10.00">lastName = &quot;Jackson&quot;</text>
<text text-anchor="start" x="466.52" y="-10" font-family="Times,serif" font-size="10.00">password = &quot;secret&quot;</text>
</g>
<!-- b&#45;&gt;1eaf6f4c_4f92_4e04_bd87_c82be03265de -->
<g id="edge12" class="edge">
<title>b&#45;&gt;1eaf6f4c_4f92_4e04_bd87_c82be03265de</title>
<path fill="none" stroke="black" d="M504.47,-291.93C469.18,-283.12 441.12,-271.45 428,-256 391.17,-212.64 400.05,-177.55 428,-128 435.95,-113.91 447.44,-102 460.4,-92.01"/>
<text text-anchor="middle" x="440.12" y="-95.01" font-family="Times,serif" font-size="10.00">customers</text>
<text text-anchor="middle" x="494.75" y="-282.93" font-family="Times,serif" font-size="10.00">bank</text>
</g>
<!-- 7f6b63b8_eafa_4ff8_814d_004a51d4f0dd -->
<g id="node12" class="node">
<title>7f6b63b8_eafa_4ff8_814d_004a51d4f0dd</title>
<polygon fill="none" stroke="black" points="1271,-70 1271,-88 1483,-88 1483,-70 1271,-70"/>
<text text-anchor="start" x="1273.56" y="-77" font-family="Times,serif" text-decoration="underline" font-size="10.00">7f6b63b8&#45;eafa&#45;4ff8&#45;814d&#45;004a51d4f0dd :Customer</text>
<polygon fill="none" stroke="black" points="1271,-4 1271,-70 1483,-70 1483,-4 1271,-4"/>
<text text-anchor="start" x="1282.35" y="-58" font-family="Times,serif" font-size="10.00">email = &quot;johntest@doe.ee&quot;</text>
<text text-anchor="start" x="1282.35" y="-46" font-family="Times,serif" font-size="10.00">firstName = &quot;johntest&quot;</text>
<text text-anchor="start" x="1282.35" y="-34" font-family="Times,serif" font-size="10.00">id = &quot;7f6b63b8&#45;eafa&#45;4ff8&#45;814d&#45;004a51d4f0dd&quot;</text>
<text text-anchor="start" x="1282.35" y="-22" font-family="Times,serif" font-size="10.00">lastName = &quot;Doe&quot;</text>
<text text-anchor="start" x="1282.35" y="-10" font-family="Times,serif" font-size="10.00">password = &quot;pass1234&quot;</text>
</g>
<!-- b&#45;&gt;7f6b63b8_eafa_4ff8_814d_004a51d4f0dd -->
<g id="edge13" class="edge">
<title>b&#45;&gt;7f6b63b8_eafa_4ff8_814d_004a51d4f0dd</title>
<path fill="none" stroke="black" d="M1227.37,-296.74C1326.52,-287.25 1408.69,-274.07 1425,-256 1465.53,-211.09 1435.27,-138.98 1407.75,-92.3"/>
<text text-anchor="middle" x="1387.48" y="-95.3" font-family="Times,serif" font-size="10.00">customers</text>
<text text-anchor="middle" x="1237.09" y="-299.74" font-family="Times,serif" font-size="10.00">bank</text>
</g>
<!-- 1c0f88c2_4440_4cc3_8d9c_ad5a413417c1 -->
<g id="node13" class="node">
<title>1c0f88c2_4440_4cc3_8d9c_ad5a413417c1</title>
<polygon fill="none" stroke="black" points="204,-70 204,-88 421,-88 421,-70 204,-70"/>
<text text-anchor="start" x="206.84" y="-77" font-family="Times,serif" text-decoration="underline" font-size="10.00">1c0f88c2&#45;4440&#45;4cc3&#45;8d9c&#45;ad5a413417c1 :Customer</text>
<polygon fill="none" stroke="black" points="204,-4 204,-70 421,-70 421,-4 204,-4"/>
<text text-anchor="start" x="215.63" y="-58" font-family="Times,serif" font-size="10.00">email = &quot;bobbytest@tt.ee&quot;</text>
<text text-anchor="start" x="215.63" y="-46" font-family="Times,serif" font-size="10.00">firstName = &quot;Bob&quot;</text>
<text text-anchor="start" x="215.63" y="-34" font-family="Times,serif" font-size="10.00">id = &quot;1c0f88c2&#45;4440&#45;4cc3&#45;8d9c&#45;ad5a413417c1&quot;</text>
<text text-anchor="start" x="215.63" y="-22" font-family="Times,serif" font-size="10.00">lastName = &quot;Jackson&quot;</text>
<text text-anchor="start" x="215.63" y="-10" font-family="Times,serif" font-size="10.00">password = &quot;secret&quot;</text>
</g>
<!-- b&#45;&gt;1c0f88c2_4440_4cc3_8d9c_ad5a413417c1 -->
<g id="edge14" class="edge">
<title>b&#45;&gt;1c0f88c2_4440_4cc3_8d9c_ad5a413417c1</title>
<path fill="none" stroke="black" d="M502.75,-291.95C457.2,-283.12 419.15,-271.44 400,-256 352.58,-217.77 375.12,-183.93 351,-128 345.93,-116.25 340.11,-103.71 334.54,-92.1"/>
<text text-anchor="middle" x="314.26" y="-95.1" font-family="Times,serif" font-size="10.00">customers</text>
<text text-anchor="middle" x="507.61" y="-282.95" font-family="Times,serif" font-size="10.00">bank</text>
</g>
<!-- 5b0c8d48_d86f_406b_9ba4_3b1f967997e5&#45;&gt;1c0f88c2_4440_4cc3_8d9c_ad5a413417c1 -->
<g id="edge16" class="edge">
<title>5b0c8d48_d86f_406b_9ba4_3b1f967997e5&#45;&gt;1c0f88c2_4440_4cc3_8d9c_ad5a413417c1</title>
<path fill="none" stroke="black" d="M264.84,-127.84C271.81,-115.9 278.97,-103.63 285.53,-92.37"/>
<text text-anchor="middle" x="273.04" y="-95.37" font-family="Times,serif" font-size="10.00">owner</text>
<text text-anchor="middle" x="249.3" y="-118.84" font-family="Times,serif" font-size="10.00">account</text>
</g>
<!-- c1 -->
<g id="node14" class="node">
<title>c1</title>
<polygon fill="none" stroke="black" points="8,-46 8,-64 170,-64 170,-46 8,-46"/>
<text text-anchor="start" x="63.04" y="-53" font-family="Times,serif" text-decoration="underline" font-size="10.00">c1 :Currency</text>
<polygon fill="none" stroke="black" points="8,-28 8,-46 170,-46 170,-28 8,-28"/>
<text text-anchor="start" x="11" y="-34" font-family="Times,serif" font-size="10.00">declaringClass = class model.Currency</text>
</g>
<!-- 5b0c8d48_d86f_406b_9ba4_3b1f967997e5&#45;&gt;c1 -->
<g id="edge15" class="edge">
<title>5b0c8d48_d86f_406b_9ba4_3b1f967997e5&#45;&gt;c1</title>
<path fill="none" stroke="black" d="M167.03,-127.84C146.32,-106.38 124.57,-83.85 109.32,-68.05"/>
<text text-anchor="middle" x="91.83" y="-71.05" font-family="Times,serif" font-size="10.00">currency</text>
</g>
<!-- 725f3664_d9b0_473f_8610_12cb682a5dde&#45;&gt;c -->
<g id="edge17" class="edge">
<title>725f3664_d9b0_473f_8610_12cb682a5dde&#45;&gt;c</title>
<path fill="none" stroke="black" d="M1208.58,-127.84C1176.83,-106.38 1143.51,-83.85 1120.13,-68.05"/>
<text text-anchor="middle" x="1102.64" y="-71.05" font-family="Times,serif" font-size="10.00">currency</text>
</g>
<!-- 725f3664_d9b0_473f_8610_12cb682a5dde&#45;&gt;7f6b63b8_eafa_4ff8_814d_004a51d4f0dd -->
<g id="edge18" class="edge">
<title>725f3664_d9b0_473f_8610_12cb682a5dde&#45;&gt;7f6b63b8_eafa_4ff8_814d_004a51d4f0dd</title>
<path fill="none" stroke="black" d="M1334.9,-127.84C1341.11,-115.9 1347.5,-103.63 1353.37,-92.37"/>
<text text-anchor="middle" x="1340.87" y="-95.37" font-family="Times,serif" font-size="10.00">owner</text>
<text text-anchor="middle" x="1319.35" y="-118.84" font-family="Times,serif" font-size="10.00">account</text>
</g>
<!-- sendItToTheBank&#45;&gt;c -->
<g id="edge19" class="edge">
<title>sendItToTheBank&#45;&gt;c</title>
<path fill="none" stroke="black" d="M1089,-127.84C1089,-106.38 1089,-83.85 1089,-68.05"/>
<text text-anchor="middle" x="1071.51" y="-71.05" font-family="Times,serif" font-size="10.00">currency</text>
</g>
<!-- 8a633aa5_907c_4e57_a313_22e0adb2672e&#45;&gt;c -->
<g id="edge20" class="edge">
<title>8a633aa5_907c_4e57_a313_22e0adb2672e&#45;&gt;c</title>
<path fill="none" stroke="black" d="M687.46,-141.89C702.99,-136.75 718.77,-131.96 734,-128 832.43,-102.39 861.37,-116.85 960,-92 985.19,-85.65 1012.43,-76.5 1035.36,-68.11"/>
<text text-anchor="middle" x="1017.87" y="-71.11" font-family="Times,serif" font-size="10.00">currency</text>
</g>
<!-- 8a633aa5_907c_4e57_a313_22e0adb2672e&#45;&gt;1eaf6f4c_4f92_4e04_bd87_c82be03265de -->
<g id="edge21" class="edge">
<title>8a633aa5_907c_4e57_a313_22e0adb2672e&#45;&gt;1eaf6f4c_4f92_4e04_bd87_c82be03265de</title>
<path fill="none" stroke="black" d="M562,-127.84C562,-115.9 562,-103.63 562,-92.37"/>
<text text-anchor="middle" x="549.51" y="-95.37" font-family="Times,serif" font-size="10.00">owner</text>
<text text-anchor="middle" x="546.45" y="-118.84" font-family="Times,serif" font-size="10.00">account</text>
</g>
<!-- 7ec351d6_652f_4691_8e72_ea432d44a0c8&#45;&gt;c -->
<g id="edge22" class="edge">
<title>7ec351d6_652f_4691_8e72_ea432d44a0c8&#45;&gt;c</title>
<path fill="none" stroke="black" d="M964.37,-127.84C997.46,-106.38 1032.19,-83.85 1056.55,-68.05"/>
<text text-anchor="middle" x="1039.06" y="-71.05" font-family="Times,serif" font-size="10.00">currency</text>
</g>
<!-- 7ec351d6_652f_4691_8e72_ea432d44a0c8&#45;&gt;e2f7bc4c_ef2a_466e_b8a5_d24f48b13afe -->
<g id="edge23" class="edge">
<title>7ec351d6_652f_4691_8e72_ea432d44a0c8&#45;&gt;e2f7bc4c_ef2a_466e_b8a5_d24f48b13afe</title>
<path fill="none" stroke="black" d="M854.28,-127.84C851.88,-115.9 849.4,-103.63 847.14,-92.37"/>
<text text-anchor="middle" x="834.64" y="-95.37" font-family="Times,serif" font-size="10.00">owner</text>
<text text-anchor="middle" x="838.73" y="-118.84" font-family="Times,serif" font-size="10.00">account</text>
</g>
</g>
</svg>
