<?xml version="1.0" encoding="UTF-8" standalone="no"?>
<!DOCTYPE svg PUBLIC "-//W3C//DTD SVG 1.1//EN"
 "http://www.w3.org/Graphics/SVG/1.1/DTD/svg11.dtd">
<!-- Generated by graphviz version 2.49.3 (20211023.0002)
 -->
<!-- Pages: 1 -->
<svg width="585px" height="383px"
 viewBox="0.00 0.00 584.77 383.00" xmlns="http://www.w3.org/2000/svg" xmlns:xlink="http://www.w3.org/1999/xlink">
<g id="graph0" class="graph" transform="scale(1.0 1.0) rotate(0) translate(4 379)">
<polygon fill="white" stroke="transparent" points="-4,4 -4,-379 580.77,-379 580.77,4 -4,4"/>
<!-- 542f810e_5354_48e9_830d_17178f76d21f -->
<g id="node1" class="node">
<title>542f810e_5354_48e9_830d_17178f76d21f</title>
<polygon fill="none" stroke="black" points="173.77,-354 173.77,-371 399.77,-371 399.77,-354 173.77,-354"/>
<text text-anchor="start" x="176.77" y="-361" font-family="Times,serif" text-decoration="underline" font-size="10.00">542f810e&#45;5354&#45;48e9&#45;830d&#45;17178f76d21f :Transaction</text>
<polygon fill="none" stroke="black" points="173.77,-293 173.77,-354 399.77,-354 399.77,-293 173.77,-293"/>
<text text-anchor="start" x="189.77" y="-343" font-family="Times,serif" font-size="10.00">amount = 250.0</text>
<text text-anchor="start" x="189.77" y="-332" font-family="Times,serif" font-size="10.00">description = &quot;Salary&quot;</text>
<text text-anchor="start" x="189.77" y="-321" font-family="Times,serif" font-size="10.00">id = &quot;542f810e&#45;5354&#45;48e9&#45;830d&#45;17178f76d21f&quot;</text>
<text text-anchor="start" x="189.77" y="-310" font-family="Times,serif" font-size="10.00">rejectionDescription = &quot;&quot;</text>
<text text-anchor="start" x="189.77" y="-299" font-family="Times,serif" font-size="10.00">timestamp = 2021&#45;11&#45;27T18:55:03.165082</text>
</g>
<!-- b -->
<g id="node2" class="node">
<title>b</title>
<polygon fill="none" stroke="black" points="322.77,-226 322.77,-243 360.77,-243 360.77,-226 322.77,-226"/>
<text text-anchor="start" x="325.77" y="-233" font-family="Times,serif" text-decoration="underline" font-size="10.00">b :Bank</text>
<polygon fill="none" stroke="black" points="322.77,-220 322.77,-226 360.77,-226 360.77,-220 322.77,-220"/>
</g>
<!-- 542f810e_5354_48e9_830d_17178f76d21f&#45;&gt;b -->
<g id="edge1" class="edge">
<title>542f810e_5354_48e9_830d_17178f76d21f&#45;&gt;b</title>
<path fill="none" stroke="black" d="M310.41,-288.87C317.98,-275.38 325.95,-261.19 331.96,-250.48"/>
<text text-anchor="middle" x="321.96" y="-253.48" font-family="Times,serif" font-size="10.00">bank</text>
<text text-anchor="middle" x="286.41" y="-280.87" font-family="Times,serif" font-size="10.00">transactions</text>
</g>
<!-- c -->
<g id="node3" class="node">
<title>c</title>
<polygon fill="none" stroke="black" points="65.77,-43 65.77,-60 200.77,-60 200.77,-43 65.77,-43"/>
<text text-anchor="start" x="109.77" y="-50" font-family="Times,serif" text-decoration="underline" font-size="10.00">c :Currency</text>
<polygon fill="none" stroke="black" points="65.77,-26 65.77,-43 200.77,-43 200.77,-26 65.77,-26"/>
<text text-anchor="start" x="68.77" y="-32" font-family="Times,serif" font-size="10.00">declaringClass = class Currency</text>
</g>
<!-- 542f810e_5354_48e9_830d_17178f76d21f&#45;&gt;c -->
<g id="edge2" class="edge">
<title>542f810e_5354_48e9_830d_17178f76d21f&#45;&gt;c</title>
<path fill="none" stroke="black" d="M165.68,-295.26C107.35,-271.27 42.81,-233.15 8.77,-175 -3.14,-154.67 -2.62,-142.62 8.77,-122 23.52,-95.29 51.69,-76.48 77.46,-64.03"/>
<text text-anchor="middle" x="59.96" y="-67.03" font-family="Times,serif" font-size="10.00">currency</text>
</g>
<!-- 5d131dd3_06f2_4d97_b3b2_31aba1a03fd9 -->
<g id="node4" class="node">
<title>5d131dd3_06f2_4d97_b3b2_31aba1a03fd9</title>
<polygon fill="none" stroke="black" points="273.77,-153.5 273.77,-170.5 487.77,-170.5 487.77,-153.5 273.77,-153.5"/>
<text text-anchor="start" x="276.77" y="-160.5" font-family="Times,serif" text-decoration="underline" font-size="10.00">5d131dd3&#45;06f2&#45;4d97&#45;b3b2&#45;31aba1a03fd9 :Account</text>
<polygon fill="none" stroke="black" points="273.77,-125.5 273.77,-153.5 487.77,-153.5 487.77,-125.5 273.77,-125.5"/>
<text text-anchor="start" x="283.27" y="-142.5" font-family="Times,serif" font-size="10.00">balance = 260.0</text>
<text text-anchor="start" x="283.27" y="-131.5" font-family="Times,serif" font-size="10.00">id = &quot;5d131dd3&#45;06f2&#45;4d97&#45;b3b2&#45;31aba1a03fd9&quot;</text>
</g>
<!-- 542f810e_5354_48e9_830d_17178f76d21f&#45;&gt;5d131dd3_06f2_4d97_b3b2_31aba1a03fd9 -->
<g id="edge3" class="edge">
<title>542f810e_5354_48e9_830d_17178f76d21f&#45;&gt;5d131dd3_06f2_4d97_b3b2_31aba1a03fd9</title>
<path fill="none" stroke="black" d="M286.18,-288.85C287.55,-264.66 292.29,-234.51 305.77,-211 313.81,-196.98 326.36,-184.82 338.92,-175.11"/>
<text text-anchor="middle" x="316.92" y="-178.11" font-family="Times,serif" font-size="10.00">destination</text>
</g>
<!-- 03dc002d_e17a_4209_aa38_9c5ad6b982dc -->
<g id="node5" class="node">
<title>03dc002d_e17a_4209_aa38_9c5ad6b982dc</title>
<polygon fill="none" stroke="black" points="25.77,-153.5 25.77,-170.5 239.77,-170.5 239.77,-153.5 25.77,-153.5"/>
<text text-anchor="start" x="28.77" y="-160.5" font-family="Times,serif" text-decoration="underline" font-size="10.00">03dc002d&#45;e17a&#45;4209&#45;aa38&#45;9c5ad6b982dc :Account</text>
<polygon fill="none" stroke="black" points="25.77,-125.5 25.77,-153.5 239.77,-153.5 239.77,-125.5 25.77,-125.5"/>
<text text-anchor="start" x="34.77" y="-142.5" font-family="Times,serif" font-size="10.00">balance = 69170.0</text>
<text text-anchor="start" x="34.77" y="-131.5" font-family="Times,serif" font-size="10.00">id = &quot;03dc002d&#45;e17a&#45;4209&#45;aa38&#45;9c5ad6b982dc&quot;</text>
</g>
<!-- 542f810e_5354_48e9_830d_17178f76d21f&#45;&gt;03dc002d_e17a_4209_aa38_9c5ad6b982dc -->
<g id="edge4" class="edge">
<title>542f810e_5354_48e9_830d_17178f76d21f&#45;&gt;03dc002d_e17a_4209_aa38_9c5ad6b982dc</title>
<path fill="none" stroke="black" d="M251.05,-288.9C221.19,-253.72 179.58,-204.68 154.5,-175.12"/>
<text text-anchor="middle" x="141" y="-178.12" font-family="Times,serif" font-size="10.00">source</text>
</g>
<!-- s -->
<g id="node6" class="node">
<title>s</title>
<polygon fill="none" stroke="black" points="394.77,-232 394.77,-249 568.77,-249 568.77,-232 394.77,-232"/>
<text text-anchor="start" x="464.77" y="-239" font-family="Times,serif" text-decoration="underline" font-size="10.00">s :Status</text>
<polygon fill="none" stroke="black" points="394.77,-215 394.77,-232 568.77,-232 568.77,-215 394.77,-215"/>
<text text-anchor="start" x="397.77" y="-221" font-family="Times,serif" font-size="10.00">declaringClass = class Transaction$Status</text>
</g>
<!-- 542f810e_5354_48e9_830d_17178f76d21f&#45;&gt;s -->
<g id="edge5" class="edge">
<title>542f810e_5354_48e9_830d_17178f76d21f&#45;&gt;s</title>
<path fill="none" stroke="black" d="M370.6,-288.87C395.37,-276.42 421.35,-263.37 441.95,-253.01"/>
<text text-anchor="middle" x="430.45" y="-256.01" font-family="Times,serif" font-size="10.00">status</text>
</g>
<!-- b&#45;&gt;5d131dd3_06f2_4d97_b3b2_31aba1a03fd9 -->
<g id="edge7" class="edge">
<title>b&#45;&gt;5d131dd3_06f2_4d97_b3b2_31aba1a03fd9</title>
<path fill="none" stroke="black" d="M350.04,-213.72C355.4,-202.5 362.49,-187.69 368.51,-175.12"/>
<text text-anchor="middle" x="386.01" y="-178.12" font-family="Times,serif" font-size="10.00">accounts</text>
<text text-anchor="middle" x="340.04" y="-205.72" font-family="Times,serif" font-size="10.00">bank</text>
</g>
<!-- b&#45;&gt;03dc002d_e17a_4209_aa38_9c5ad6b982dc -->
<g id="edge6" class="edge">
<title>b&#45;&gt;03dc002d_e17a_4209_aa38_9c5ad6b982dc</title>
<path fill="none" stroke="black" d="M314.44,-220.35C285.12,-208.91 237.48,-190.33 198.34,-175.07"/>
<text text-anchor="middle" x="225.34" y="-178.07" font-family="Times,serif" font-size="10.00">bankAccount</text>
<text text-anchor="middle" x="304.44" y="-223.35" font-family="Times,serif" font-size="10.00">bank</text>
</g>
<!-- f84ec83e_afed_45bc_8307_f489ef671eb6 -->
<g id="node7" class="node">
<title>f84ec83e_afed_45bc_8307_f489ef671eb6</title>
<polygon fill="none" stroke="black" points="345.77,-65 345.77,-82 558.77,-82 558.77,-65 345.77,-65"/>
<text text-anchor="start" x="348.77" y="-72" font-family="Times,serif" text-decoration="underline" font-size="10.00">f84ec83e&#45;afed&#45;45bc&#45;8307&#45;f489ef671eb6 :Customer</text>
<polygon fill="none" stroke="black" points="345.77,-4 345.77,-65 558.77,-65 558.77,-4 345.77,-4"/>
<text text-anchor="start" x="357.77" y="-54" font-family="Times,serif" font-size="10.00">email = &quot;john@doe.ee&quot;</text>
<text text-anchor="start" x="357.77" y="-43" font-family="Times,serif" font-size="10.00">firstName = &quot;John&quot;</text>
<text text-anchor="start" x="357.77" y="-32" font-family="Times,serif" font-size="10.00">id = &quot;f84ec83e&#45;afed&#45;45bc&#45;8307&#45;f489ef671eb6&quot;</text>
<text text-anchor="start" x="357.77" y="-21" font-family="Times,serif" font-size="10.00">lastName = &quot;Doe&quot;</text>
<text text-anchor="start" x="357.77" y="-10" font-family="Times,serif" font-size="10.00">password = &quot;pass1234&quot;</text>
</g>
<!-- b&#45;&gt;f84ec83e_afed_45bc_8307_f489ef671eb6 -->
<g id="edge8" class="edge">
<title>b&#45;&gt;f84ec83e_afed_45bc_8307_f489ef671eb6</title>
<path fill="none" stroke="black" d="M368.96,-215.04C371.89,-213.58 374.86,-212.2 377.77,-211 431.99,-188.61 469.39,-221.8 504.77,-175 524.81,-148.48 508.79,-113.33 489.26,-86.12"/>
<text text-anchor="middle" x="468.76" y="-89.12" font-family="Times,serif" font-size="10.00">customers</text>
<text text-anchor="middle" x="373.96" y="-207.04" font-family="Times,serif" font-size="10.00">bank</text>
</g>
<!-- 5d131dd3_06f2_4d97_b3b2_31aba1a03fd9&#45;&gt;c -->
<g id="edge9" class="edge">
<title>5d131dd3_06f2_4d97_b3b2_31aba1a03fd9&#45;&gt;c</title>
<path fill="none" stroke="black" d="M319.46,-121.92C276.72,-104.08 220.49,-80.61 180.95,-64.11"/>
<text text-anchor="middle" x="163.45" y="-67.11" font-family="Times,serif" font-size="10.00">currency</text>
</g>
<!-- 5d131dd3_06f2_4d97_b3b2_31aba1a03fd9&#45;&gt;f84ec83e_afed_45bc_8307_f489ef671eb6 -->
<g id="edge10" class="edge">
<title>5d131dd3_06f2_4d97_b3b2_31aba1a03fd9&#45;&gt;f84ec83e_afed_45bc_8307_f489ef671eb6</title>
<path fill="none" stroke="black" d="M398.32,-121.92C405.71,-111.14 414.51,-98.31 422.81,-86.2"/>
<text text-anchor="middle" x="410.31" y="-89.2" font-family="Times,serif" font-size="10.00">owner</text>
<text text-anchor="middle" x="382.32" y="-113.92" font-family="Times,serif" font-size="10.00">account</text>
</g>
<!-- 03dc002d_e17a_4209_aa38_9c5ad6b982dc&#45;&gt;c -->
<g id="edge11" class="edge">
<title>03dc002d_e17a_4209_aa38_9c5ad6b982dc&#45;&gt;c</title>
<path fill="none" stroke="black" d="M132.77,-121.92C132.77,-104.08 132.77,-80.61 132.77,-64.11"/>
<text text-anchor="middle" x="115.27" y="-67.11" font-family="Times,serif" font-size="10.00">currency</text>
</g>
</g>
</svg>
