<?xml version="1.0" encoding="UTF-8" standalone="no"?>
<!DOCTYPE svg PUBLIC "-//W3C//DTD SVG 1.1//EN"
 "http://www.w3.org/Graphics/SVG/1.1/DTD/svg11.dtd">
<!-- Generated by graphviz version 2.43.0 (0)
 -->
<!-- Title: model Pages: 1 -->
<svg width="1656px" height="449px"
 viewBox="0.00 0.00 1656.00 449.00" xmlns="http://www.w3.org/2000/svg" xmlns:xlink="http://www.w3.org/1999/xlink">
<g id="graph0" class="graph" transform="scale(1.0 1.0) rotate(0) translate(4 445)">
<title>model</title>
<polygon fill="white" stroke="transparent" points="-4,4 -4,-445 1652,-445 1652,4 -4,4"/>
<!-- e5170d5d_801a_4c8d_b159_f38b79e7d3dc -->
<g id="node1" class="node">
<title>e5170d5d_801a_4c8d_b159_f38b79e7d3dc</title>
<polygon fill="none" stroke="black" points="1175,-420 1175,-437 1409,-437 1409,-420 1175,-420"/>
<text text-anchor="start" x="1178" y="-427" font-family="Times,serif" text-decoration="underline" font-size="10.00">e5170d5d&#45;801a&#45;4c8d&#45;b159&#45;f38b79e7d3dc :Transaction</text>
<polygon fill="none" stroke="black" points="1175,-359 1175,-420 1409,-420 1409,-359 1175,-359"/>
<text text-anchor="start" x="1191.5" y="-409" font-family="Times,serif" font-size="10.00">amount = 25.0</text>
<text text-anchor="start" x="1191.5" y="-398" font-family="Times,serif" font-size="10.00">description = &quot;Ref: concert ticket&quot;</text>
<text text-anchor="start" x="1191.5" y="-387" font-family="Times,serif" font-size="10.00">id = &quot;e5170d5d&#45;801a&#45;4c8d&#45;b159&#45;f38b79e7d3dc&quot;</text>
<text text-anchor="start" x="1191.5" y="-376" font-family="Times,serif" font-size="10.00">rejectionDescription = &quot;&quot;</text>
<text text-anchor="start" x="1191.5" y="-365" font-family="Times,serif" font-size="10.00">timestamp = 2021&#45;12&#45;04T18:01:05.320783819</text>
</g>
<!-- b -->
<g id="node2" class="node">
<title>b</title>
<polygon fill="none" stroke="black" points="430,-297.5 430,-314.5 1257,-314.5 1257,-297.5 430,-297.5"/>
<text text-anchor="start" x="827" y="-304.5" font-family="Times,serif" text-decoration="underline" font-size="10.00">b :Bank</text>
<polygon fill="none" stroke="black" points="430,-269.5 430,-297.5 1257,-297.5 1257,-269.5 430,-269.5"/>
<text text-anchor="start" x="433" y="-286.5" font-family="Times,serif" font-size="10.00">accountsMap = 51323bbc&#45;0ca0&#45;41fb&#45;86c3&#45;2910f1d0f69csendItToTheBank8a633aa5&#45;907c&#45;4e57&#45;a313&#45;22e0adb2672ef040b8db&#45;02f2&#45;45fa&#45;aa38&#45;b79b6b45e5fa7ec351d6&#45;652f&#45;4691&#45;8e72&#45;ea432d44a0c8</text>
<text text-anchor="start" x="433" y="-275.5" font-family="Times,serif" font-size="10.00">customerMap = e2f7bc4c&#45;ef2a&#45;466e&#45;b8a5&#45;d24f48b13afe1eaf6f4c&#45;4f92&#45;4e04&#45;bd87&#45;c82be03265de81fd1611&#45;5e28&#45;48a8&#45;8703&#45;616d8b00ba8ac7023d64&#45;46f9&#45;4dff&#45;8357&#45;d16ba24d2554</text>
</g>
<!-- e5170d5d_801a_4c8d_b159_f38b79e7d3dc&#45;&gt;b -->
<g id="edge1" class="edge">
<title>e5170d5d_801a_4c8d_b159_f38b79e7d3dc&#45;&gt;b</title>
<path fill="none" stroke="black" d="M1166.93,-368.17C1099.98,-352.74 1018.25,-333.9 953.64,-319"/>
<text text-anchor="middle" x="943.14" y="-322" font-family="Times,serif" font-size="10.00">bank</text>
<text text-anchor="middle" x="1142.43" y="-371.17" font-family="Times,serif" font-size="10.00">transactions</text>
</g>
<!-- c -->
<g id="node3" class="node">
<title>c</title>
<polygon fill="none" stroke="black" points="789,-43 789,-60 953,-60 953,-43 789,-43"/>
<text text-anchor="start" x="847" y="-50" font-family="Times,serif" text-decoration="underline" font-size="10.00">c :Currency</text>
<polygon fill="none" stroke="black" points="789,-26 789,-43 953,-43 953,-26 789,-26"/>
<text text-anchor="start" x="792" y="-32" font-family="Times,serif" font-size="10.00">declaringClass = class model.Currency</text>
</g>
<!-- e5170d5d_801a_4c8d_b159_f38b79e7d3dc&#45;&gt;c -->
<g id="edge2" class="edge">
<title>e5170d5d_801a_4c8d_b159_f38b79e7d3dc&#45;&gt;c</title>
<path fill="none" stroke="black" d="M1297.08,-354.76C1301.83,-293.54 1300.26,-181.04 1235,-122 1159.57,-53.77 1108.11,-108.86 1009,-86 982.89,-79.98 954.5,-71.65 930.29,-64"/>
<text text-anchor="middle" x="948.29" y="-67" font-family="Times,serif" font-size="10.00">currency</text>
</g>
<!-- 51323bbc_0ca0_41fb_86c3_2910f1d0f69c -->
<g id="node4" class="node">
<title>51323bbc_0ca0_41fb_86c3_2910f1d0f69c</title>
<polygon fill="none" stroke="black" points="1366,-209 1366,-226 1640,-226 1640,-209 1366,-209"/>
<text text-anchor="start" x="1397.5" y="-216" font-family="Times,serif" text-decoration="underline" font-size="10.00">51323bbc&#45;0ca0&#45;41fb&#45;86c3&#45;2910f1d0f69c :Account</text>
<polygon fill="none" stroke="black" points="1366,-126 1366,-209 1640,-209 1640,-126 1366,-126"/>
<text text-anchor="start" x="1369" y="-198" font-family="Times,serif" font-size="10.00">balance = 25.0</text>
<text text-anchor="start" x="1369" y="-187" font-family="Times,serif" font-size="10.00">customerId = null</text>
<text text-anchor="start" x="1369" y="-176" font-family="Times,serif" font-size="10.00">iban = &quot;EE546341954900236731&quot;</text>
<text text-anchor="start" x="1369" y="-165" font-family="Times,serif" font-size="10.00">id = &quot;51323bbc&#45;0ca0&#45;41fb&#45;86c3&#45;2910f1d0f69c&quot;</text>
<text text-anchor="start" x="1369" y="-154" font-family="Times,serif" font-size="10.00">receivedTransaction = e5170d5d&#45;801a&#45;4c8d&#45;b159&#45;f38b79e7d3dc</text>
<text text-anchor="start" x="1369" y="-143" font-family="Times,serif" font-size="10.00">sentTransaction = </text>
<text text-anchor="start" x="1369" y="-132" font-family="Times,serif" font-size="10.00">status = &quot;ACTIVE&quot;</text>
</g>
<!-- e5170d5d_801a_4c8d_b159_f38b79e7d3dc&#45;&gt;51323bbc_0ca0_41fb_86c3_2910f1d0f69c -->
<g id="edge3" class="edge">
<title>e5170d5d_801a_4c8d_b159_f38b79e7d3dc&#45;&gt;51323bbc_0ca0_41fb_86c3_2910f1d0f69c</title>
<path fill="none" stroke="black" d="M1303.21,-354.85C1312.25,-327.12 1327.27,-291.38 1350,-266 1362.1,-252.49 1376.74,-240.49 1392.12,-230"/>
<text text-anchor="middle" x="1369.12" y="-233" font-family="Times,serif" font-size="10.00">destination</text>
<text text-anchor="middle" x="1245.21" y="-346.85" font-family="Times,serif" font-size="10.00">allTransactionsOrderedDesc</text>
</g>
<!-- f040b8db_02f2_45fa_aa38_b79b6b45e5fa -->
<g id="node5" class="node">
<title>f040b8db_02f2_45fa_aa38_b79b6b45e5fa</title>
<polygon fill="none" stroke="black" points="8,-209 8,-226 264,-226 264,-209 8,-209"/>
<text text-anchor="start" x="32" y="-216" font-family="Times,serif" text-decoration="underline" font-size="10.00">f040b8db&#45;02f2&#45;45fa&#45;aa38&#45;b79b6b45e5fa :Account</text>
<polygon fill="none" stroke="black" points="8,-126 8,-209 264,-209 264,-126 8,-126"/>
<text text-anchor="start" x="11" y="-198" font-family="Times,serif" font-size="10.00">balance = 75.0</text>
<text text-anchor="start" x="11" y="-187" font-family="Times,serif" font-size="10.00">customerId = null</text>
<text text-anchor="start" x="11" y="-176" font-family="Times,serif" font-size="10.00">iban = &quot;EE884711938606705565&quot;</text>
<text text-anchor="start" x="11" y="-165" font-family="Times,serif" font-size="10.00">id = &quot;f040b8db&#45;02f2&#45;45fa&#45;aa38&#45;b79b6b45e5fa&quot;</text>
<text text-anchor="start" x="11" y="-154" font-family="Times,serif" font-size="10.00">receivedTransaction = </text>
<text text-anchor="start" x="11" y="-143" font-family="Times,serif" font-size="10.00">sentTransaction = e5170d5d&#45;801a&#45;4c8d&#45;b159&#45;f38b79e7d3dc</text>
<text text-anchor="start" x="11" y="-132" font-family="Times,serif" font-size="10.00">status = &quot;ACTIVE&quot;</text>
</g>
<!-- e5170d5d_801a_4c8d_b159_f38b79e7d3dc&#45;&gt;f040b8db_02f2_45fa_aa38_b79b6b45e5fa -->
<g id="edge4" class="edge">
<title>e5170d5d_801a_4c8d_b159_f38b79e7d3dc&#45;&gt;f040b8db_02f2_45fa_aa38_b79b6b45e5fa</title>
<path fill="none" stroke="black" d="M1166.78,-391.84C958.53,-382.27 550.21,-359.01 412,-319 343.16,-299.07 271.35,-261.52 218.24,-230.04"/>
<text text-anchor="middle" x="204.74" y="-233.04" font-family="Times,serif" font-size="10.00">source</text>
<text text-anchor="middle" x="1108.78" y="-394.84" font-family="Times,serif" font-size="10.00">allTransactionsOrderedDesc</text>
</g>
<!-- s -->
<g id="node6" class="node">
<title>s</title>
<polygon fill="none" stroke="black" points="1367,-292.5 1367,-309.5 1572,-309.5 1572,-292.5 1367,-292.5"/>
<text text-anchor="start" x="1452.5" y="-299.5" font-family="Times,serif" text-decoration="underline" font-size="10.00">s :Status</text>
<polygon fill="none" stroke="black" points="1367,-275.5 1367,-292.5 1572,-292.5 1572,-275.5 1367,-275.5"/>
<text text-anchor="start" x="1370" y="-281.5" font-family="Times,serif" font-size="10.00">declaringClass = class model.Transaction$Status</text>
</g>
<!-- e5170d5d_801a_4c8d_b159_f38b79e7d3dc&#45;&gt;s -->
<g id="edge5" class="edge">
<title>e5170d5d_801a_4c8d_b159_f38b79e7d3dc&#45;&gt;s</title>
<path fill="none" stroke="black" d="M1363.99,-354.9C1388.3,-340.69 1414.34,-325.46 1434.4,-313.73"/>
<text text-anchor="middle" x="1422.4" y="-316.73" font-family="Times,serif" font-size="10.00">status</text>
</g>
<!-- b&#45;&gt;51323bbc_0ca0_41fb_86c3_2910f1d0f69c -->
<g id="edge11" class="edge">
<title>b&#45;&gt;51323bbc_0ca0_41fb_86c3_2910f1d0f69c</title>
<path fill="none" stroke="black" d="M1132.15,-265.98C1201.98,-257.08 1276.04,-245.34 1344,-230 1348.54,-228.98 1353.14,-227.87 1357.76,-226.7"/>
<text text-anchor="middle" x="1339.26" y="-218.7" font-family="Times,serif" font-size="10.00">accounts</text>
<text text-anchor="middle" x="1142.65" y="-257.98" font-family="Times,serif" font-size="10.00">bank</text>
</g>
<!-- b&#45;&gt;f040b8db_02f2_45fa_aa38_b79b6b45e5fa -->
<g id="edge10" class="edge">
<title>b&#45;&gt;f040b8db_02f2_45fa_aa38_b79b6b45e5fa</title>
<path fill="none" stroke="black" d="M498.48,-265.97C427.71,-257.23 354.05,-245.56 286,-230 281.42,-228.95 276.79,-227.81 272.14,-226.59"/>
<text text-anchor="middle" x="290.64" y="-229.59" font-family="Times,serif" font-size="10.00">accounts</text>
<text text-anchor="middle" x="487.98" y="-257.97" font-family="Times,serif" font-size="10.00">bank</text>
</g>
<!-- sendItToTheBank -->
<g id="node7" class="node">
<title>sendItToTheBank</title>
<polygon fill="none" stroke="black" points="797,-209 797,-226 946,-226 946,-209 797,-209"/>
<text text-anchor="start" x="814.5" y="-216" font-family="Times,serif" text-decoration="underline" font-size="10.00">sendItToTheBank :Account</text>
<polygon fill="none" stroke="black" points="797,-126 797,-209 946,-209 946,-126 797,-126"/>
<text text-anchor="start" x="800" y="-198" font-family="Times,serif" font-size="10.00">balance = 69420.0</text>
<text text-anchor="start" x="800" y="-187" font-family="Times,serif" font-size="10.00">customerId = null</text>
<text text-anchor="start" x="800" y="-176" font-family="Times,serif" font-size="10.00">iban = &quot;EE955936843313370635&quot;</text>
<text text-anchor="start" x="800" y="-165" font-family="Times,serif" font-size="10.00">id = &quot;sendItToTheBank&quot;</text>
<text text-anchor="start" x="800" y="-154" font-family="Times,serif" font-size="10.00">receivedTransaction = </text>
<text text-anchor="start" x="800" y="-143" font-family="Times,serif" font-size="10.00">sentTransaction = </text>
<text text-anchor="start" x="800" y="-132" font-family="Times,serif" font-size="10.00">status = &quot;ACTIVE&quot;</text>
</g>
<!-- b&#45;&gt;sendItToTheBank -->
<g id="edge6" class="edge">
<title>b&#45;&gt;sendItToTheBank</title>
<path fill="none" stroke="black" d="M849.28,-265.8C851.86,-255.25 854.95,-242.63 857.98,-230.25"/>
<text text-anchor="middle" x="829.98" y="-233.25" font-family="Times,serif" font-size="10.00">bankAccount</text>
<text text-anchor="middle" x="838.78" y="-257.8" font-family="Times,serif" font-size="10.00">bank</text>
</g>
<!-- sendItToTheBank1 -->
<g id="node8" class="node">
<title>sendItToTheBank1</title>
<polygon fill="none" stroke="black" points="642,-209 642,-226 762,-226 762,-209 642,-209"/>
<text text-anchor="start" x="645" y="-216" font-family="Times,serif" text-decoration="underline" font-size="10.00">sendItToTheBank :Account</text>
<polygon fill="none" stroke="black" points="642,-126 642,-209 762,-209 762,-126 642,-126"/>
<text text-anchor="start" x="652" y="-198" font-family="Times,serif" font-size="10.00">balance = 74420.0</text>
<text text-anchor="start" x="652" y="-187" font-family="Times,serif" font-size="10.00">customerId = &quot;&quot;</text>
<text text-anchor="start" x="652" y="-176" font-family="Times,serif" font-size="10.00">iban = null</text>
<text text-anchor="start" x="652" y="-165" font-family="Times,serif" font-size="10.00">id = &quot;sendItToTheBank&quot;</text>
<text text-anchor="start" x="652" y="-154" font-family="Times,serif" font-size="10.00">receivedTransaction = </text>
<text text-anchor="start" x="652" y="-143" font-family="Times,serif" font-size="10.00">sentTransaction = </text>
<text text-anchor="start" x="652" y="-132" font-family="Times,serif" font-size="10.00">status = &quot;ACTIVE&quot;</text>
</g>
<!-- b&#45;&gt;sendItToTheBank1 -->
<g id="edge7" class="edge">
<title>b&#45;&gt;sendItToTheBank1</title>
<path fill="none" stroke="black" d="M811.36,-265.8C798.28,-255.19 782.62,-242.47 767.29,-230.02"/>
<text text-anchor="middle" x="748.79" y="-233.02" font-family="Times,serif" font-size="10.00">accounts</text>
<text text-anchor="middle" x="800.86" y="-257.8" font-family="Times,serif" font-size="10.00">bank</text>
</g>
<!-- 8a633aa5_907c_4e57_a313_22e0adb2672e -->
<g id="node9" class="node">
<title>8a633aa5_907c_4e57_a313_22e0adb2672e</title>
<polygon fill="none" stroke="black" points="980,-209 980,-226 1218,-226 1218,-209 980,-209"/>
<text text-anchor="start" x="992" y="-216" font-family="Times,serif" text-decoration="underline" font-size="10.00">8a633aa5&#45;907c&#45;4e57&#45;a313&#45;22e0adb2672e :Account</text>
<polygon fill="none" stroke="black" points="980,-126 980,-209 1218,-209 1218,-126 980,-126"/>
<text text-anchor="start" x="983" y="-198" font-family="Times,serif" font-size="10.00">balance = 0.0</text>
<text text-anchor="start" x="983" y="-187" font-family="Times,serif" font-size="10.00">customerId = &quot;1eaf6f4c&#45;4f92&#45;4e04&#45;bd87&#45;c82be03265de&quot;</text>
<text text-anchor="start" x="983" y="-176" font-family="Times,serif" font-size="10.00">iban = null</text>
<text text-anchor="start" x="983" y="-165" font-family="Times,serif" font-size="10.00">id = &quot;8a633aa5&#45;907c&#45;4e57&#45;a313&#45;22e0adb2672e&quot;</text>
<text text-anchor="start" x="983" y="-154" font-family="Times,serif" font-size="10.00">receivedTransaction = </text>
<text text-anchor="start" x="983" y="-143" font-family="Times,serif" font-size="10.00">sentTransaction = </text>
<text text-anchor="start" x="983" y="-132" font-family="Times,serif" font-size="10.00">status = &quot;ACTIVE&quot;</text>
</g>
<!-- b&#45;&gt;8a633aa5_907c_4e57_a313_22e0adb2672e -->
<g id="edge8" class="edge">
<title>b&#45;&gt;8a633aa5_907c_4e57_a313_22e0adb2672e</title>
<path fill="none" stroke="black" d="M900.13,-265.95C923.93,-255.3 952.5,-242.52 980.47,-230.01"/>
<text text-anchor="middle" x="961.97" y="-233.01" font-family="Times,serif" font-size="10.00">accounts</text>
<text text-anchor="middle" x="889.63" y="-257.95" font-family="Times,serif" font-size="10.00">bank</text>
</g>
<!-- 7ec351d6_652f_4691_8e72_ea432d44a0c8 -->
<g id="node10" class="node">
<title>7ec351d6_652f_4691_8e72_ea432d44a0c8</title>
<polygon fill="none" stroke="black" points="374,-209 374,-226 608,-226 608,-209 374,-209"/>
<text text-anchor="start" x="384" y="-216" font-family="Times,serif" text-decoration="underline" font-size="10.00">7ec351d6&#45;652f&#45;4691&#45;8e72&#45;ea432d44a0c8 :Account</text>
<polygon fill="none" stroke="black" points="374,-126 374,-209 608,-209 608,-126 374,-126"/>
<text text-anchor="start" x="377" y="-198" font-family="Times,serif" font-size="10.00">balance = 100.0</text>
<text text-anchor="start" x="377" y="-187" font-family="Times,serif" font-size="10.00">customerId = &quot;e2f7bc4c&#45;ef2a&#45;466e&#45;b8a5&#45;d24f48b13afe&quot;</text>
<text text-anchor="start" x="377" y="-176" font-family="Times,serif" font-size="10.00">iban = null</text>
<text text-anchor="start" x="377" y="-165" font-family="Times,serif" font-size="10.00">id = &quot;7ec351d6&#45;652f&#45;4691&#45;8e72&#45;ea432d44a0c8&quot;</text>
<text text-anchor="start" x="377" y="-154" font-family="Times,serif" font-size="10.00">receivedTransaction = </text>
<text text-anchor="start" x="377" y="-143" font-family="Times,serif" font-size="10.00">sentTransaction = </text>
<text text-anchor="start" x="377" y="-132" font-family="Times,serif" font-size="10.00">status = &quot;ACTIVE&quot;</text>
</g>
<!-- b&#45;&gt;7ec351d6_652f_4691_8e72_ea432d44a0c8 -->
<g id="edge9" class="edge">
<title>b&#45;&gt;7ec351d6_652f_4691_8e72_ea432d44a0c8</title>
<path fill="none" stroke="black" d="M744.41,-265.97C706.78,-255.63 663.65,-243.06 625,-230 622.04,-229 619.04,-227.97 616.03,-226.92"/>
<text text-anchor="middle" x="634.53" y="-229.92" font-family="Times,serif" font-size="10.00">accounts</text>
<text text-anchor="middle" x="733.91" y="-257.97" font-family="Times,serif" font-size="10.00">bank</text>
</g>
<!-- e2f7bc4c_ef2a_466e_b8a5_d24f48b13afe -->
<g id="node11" class="node">
<title>e2f7bc4c_ef2a_466e_b8a5_d24f48b13afe</title>
<polygon fill="none" stroke="black" points="359,-65 359,-82 574,-82 574,-65 359,-65"/>
<text text-anchor="start" x="362" y="-72" font-family="Times,serif" text-decoration="underline" font-size="10.00">e2f7bc4c&#45;ef2a&#45;466e&#45;b8a5&#45;d24f48b13afe :Customer</text>
<polygon fill="none" stroke="black" points="359,-4 359,-65 574,-65 574,-4 359,-4"/>
<text text-anchor="start" x="371" y="-54" font-family="Times,serif" font-size="10.00">email = &quot;john@doe.ee&quot;</text>
<text text-anchor="start" x="371" y="-43" font-family="Times,serif" font-size="10.00">firstName = &quot;John&quot;</text>
<text text-anchor="start" x="371" y="-32" font-family="Times,serif" font-size="10.00">id = &quot;e2f7bc4c&#45;ef2a&#45;466e&#45;b8a5&#45;d24f48b13afe&quot;</text>
<text text-anchor="start" x="371" y="-21" font-family="Times,serif" font-size="10.00">lastName = &quot;Doe&quot;</text>
<text text-anchor="start" x="371" y="-10" font-family="Times,serif" font-size="10.00">password = &quot;pass1234&quot;</text>
</g>
<!-- b&#45;&gt;e2f7bc4c_ef2a_466e_b8a5_d24f48b13afe -->
<g id="edge12" class="edge">
<title>b&#45;&gt;e2f7bc4c_ef2a_466e_b8a5_d24f48b13afe</title>
<path fill="none" stroke="black" d="M514.49,-265.99C435.44,-256.58 369.85,-244.57 357,-230 325.26,-193.99 335.05,-164.69 357,-122 364.13,-108.13 374.99,-96.18 387.15,-86.1"/>
<text text-anchor="middle" x="366.65" y="-89.1" font-family="Times,serif" font-size="10.00">customers</text>
<text text-anchor="middle" x="524.99" y="-257.99" font-family="Times,serif" font-size="10.00">bank</text>
</g>
<!-- 1eaf6f4c_4f92_4e04_bd87_c82be03265de -->
<g id="node12" class="node">
<title>1eaf6f4c_4f92_4e04_bd87_c82be03265de</title>
<polygon fill="none" stroke="black" points="1027,-65 1027,-82 1246,-82 1246,-65 1027,-65"/>
<text text-anchor="start" x="1030" y="-72" font-family="Times,serif" text-decoration="underline" font-size="10.00">1eaf6f4c&#45;4f92&#45;4e04&#45;bd87&#45;c82be03265de :Customer</text>
<polygon fill="none" stroke="black" points="1027,-4 1027,-65 1246,-65 1246,-4 1027,-4"/>
<text text-anchor="start" x="1039" y="-54" font-family="Times,serif" font-size="10.00">email = &quot;bobby@tt.ee&quot;</text>
<text text-anchor="start" x="1039" y="-43" font-family="Times,serif" font-size="10.00">firstName = &quot;Bob&quot;</text>
<text text-anchor="start" x="1039" y="-32" font-family="Times,serif" font-size="10.00">id = &quot;1eaf6f4c&#45;4f92&#45;4e04&#45;bd87&#45;c82be03265de&quot;</text>
<text text-anchor="start" x="1039" y="-21" font-family="Times,serif" font-size="10.00">lastName = &quot;Jackson&quot;</text>
<text text-anchor="start" x="1039" y="-10" font-family="Times,serif" font-size="10.00">password = &quot;secret&quot;</text>
</g>
<!-- b&#45;&gt;1eaf6f4c_4f92_4e04_bd87_c82be03265de -->
<g id="edge13" class="edge">
<title>b&#45;&gt;1eaf6f4c_4f92_4e04_bd87_c82be03265de</title>
<path fill="none" stroke="black" d="M1157.77,-265.95C1193.37,-257.23 1221.68,-245.57 1235,-230 1266.2,-193.52 1255.95,-165.18 1235,-122 1228.41,-108.42 1218.18,-96.49 1206.75,-86.31"/>
<text text-anchor="middle" x="1186.25" y="-89.31" font-family="Times,serif" font-size="10.00">customers</text>
<text text-anchor="middle" x="1168.27" y="-257.95" font-family="Times,serif" font-size="10.00">bank</text>
</g>
<!-- c7023d64_46f9_4dff_8357_d16ba24d2554 -->
<g id="node13" class="node">
<title>c7023d64_46f9_4dff_8357_d16ba24d2554</title>
<polygon fill="none" stroke="black" points="51,-65 51,-82 274,-82 274,-65 51,-65"/>
<text text-anchor="start" x="54" y="-72" font-family="Times,serif" text-decoration="underline" font-size="10.00">c7023d64&#45;46f9&#45;4dff&#45;8357&#45;d16ba24d2554 :Customer</text>
<polygon fill="none" stroke="black" points="51,-4 51,-65 274,-65 274,-4 51,-4"/>
<text text-anchor="start" x="63" y="-54" font-family="Times,serif" font-size="10.00">email = &quot;johntest@doe.ee&quot;</text>
<text text-anchor="start" x="63" y="-43" font-family="Times,serif" font-size="10.00">firstName = &quot;johntest&quot;</text>
<text text-anchor="start" x="63" y="-32" font-family="Times,serif" font-size="10.00">id = &quot;c7023d64&#45;46f9&#45;4dff&#45;8357&#45;d16ba24d2554&quot;</text>
<text text-anchor="start" x="63" y="-21" font-family="Times,serif" font-size="10.00">lastName = &quot;Doe&quot;</text>
<text text-anchor="start" x="63" y="-10" font-family="Times,serif" font-size="10.00">password = &quot;pass1234&quot;</text>
</g>
<!-- b&#45;&gt;c7023d64_46f9_4dff_8357_d16ba24d2554 -->
<g id="edge14" class="edge">
<title>b&#45;&gt;c7023d64_46f9_4dff_8357_d16ba24d2554</title>
<path fill="none" stroke="black" d="M442.48,-265.98C394.5,-257.27 354.8,-245.6 333,-230 289.67,-199 316.11,-162.06 281,-122 269.2,-108.53 254.53,-96.44 239.58,-86.02"/>
<text text-anchor="middle" x="219.08" y="-89.02" font-family="Times,serif" font-size="10.00">customers</text>
<text text-anchor="middle" x="431.98" y="-257.98" font-family="Times,serif" font-size="10.00">bank</text>
</g>
<!-- 81fd1611_5e28_48a8_8703_616d8b00ba8a -->
<g id="node14" class="node">
<title>81fd1611_5e28_48a8_8703_616d8b00ba8a</title>
<polygon fill="none" stroke="black" points="1354,-65 1354,-82 1578,-82 1578,-65 1354,-65"/>
<text text-anchor="start" x="1357" y="-72" font-family="Times,serif" text-decoration="underline" font-size="10.00">81fd1611&#45;5e28&#45;48a8&#45;8703&#45;616d8b00ba8a :Customer</text>
<polygon fill="none" stroke="black" points="1354,-4 1354,-65 1578,-65 1578,-4 1354,-4"/>
<text text-anchor="start" x="1366" y="-54" font-family="Times,serif" font-size="10.00">email = &quot;bobbytest@tt.ee&quot;</text>
<text text-anchor="start" x="1366" y="-43" font-family="Times,serif" font-size="10.00">firstName = &quot;Bob&quot;</text>
<text text-anchor="start" x="1366" y="-32" font-family="Times,serif" font-size="10.00">id = &quot;81fd1611&#45;5e28&#45;48a8&#45;8703&#45;616d8b00ba8a&quot;</text>
<text text-anchor="start" x="1366" y="-21" font-family="Times,serif" font-size="10.00">lastName = &quot;Jackson&quot;</text>
<text text-anchor="start" x="1366" y="-10" font-family="Times,serif" font-size="10.00">password = &quot;secret&quot;</text>
</g>
<!-- b&#45;&gt;81fd1611_5e28_48a8_8703_616d8b00ba8a -->
<g id="edge15" class="edge">
<title>b&#45;&gt;81fd1611_5e28_48a8_8703_616d8b00ba8a</title>
<path fill="none" stroke="black" d="M1117,-265.96C1177.8,-256.89 1232.14,-245.07 1259,-230 1313.49,-199.42 1302.52,-163.76 1349,-122 1363.25,-109.19 1379.77,-96.9 1395.82,-86.02"/>
<text text-anchor="middle" x="1375.32" y="-89.02" font-family="Times,serif" font-size="10.00">customers</text>
<text text-anchor="middle" x="1106.5" y="-257.96" font-family="Times,serif" font-size="10.00">bank</text>
</g>
<!-- 51323bbc_0ca0_41fb_86c3_2910f1d0f69c&#45;&gt;c -->
<g id="edge16" class="edge">
<title>51323bbc_0ca0_41fb_86c3_2910f1d0f69c&#45;&gt;c</title>
<path fill="none" stroke="black" d="M1357.77,-133.44C1340.41,-129.21 1322.86,-125.27 1306,-122 1175.47,-96.66 1139.1,-113.46 1009,-86 982.29,-80.36 953.31,-71.91 928.83,-64.06"/>
<text text-anchor="middle" x="910.83" y="-67.06" font-family="Times,serif" font-size="10.00">currency</text>
</g>
<!-- 51323bbc_0ca0_41fb_86c3_2910f1d0f69c&#45;&gt;81fd1611_5e28_48a8_8703_616d8b00ba8a -->
<g id="edge17" class="edge">
<title>51323bbc_0ca0_41fb_86c3_2910f1d0f69c&#45;&gt;81fd1611_5e28_48a8_8703_616d8b00ba8a</title>
<path fill="none" stroke="black" d="M1487.95,-121.72C1484.63,-109.96 1481.15,-97.66 1477.97,-86.4"/>
<text text-anchor="middle" x="1464.97" y="-89.4" font-family="Times,serif" font-size="10.00">owner</text>
<text text-anchor="middle" x="1471.45" y="-113.72" font-family="Times,serif" font-size="10.00">account</text>
</g>
<!-- f040b8db_02f2_45fa_aa38_b79b6b45e5fa&#45;&gt;c -->
<g id="edge18" class="edge">
<title>f040b8db_02f2_45fa_aa38_b79b6b45e5fa&#45;&gt;c</title>
<path fill="none" stroke="black" d="M272.06,-140.46C300.06,-133.89 329.41,-127.39 357,-122 377.57,-117.98 638.9,-78.73 780.77,-57.49"/>
<text text-anchor="middle" x="762.77" y="-60.49" font-family="Times,serif" font-size="10.00">currency</text>
</g>
<!-- f040b8db_02f2_45fa_aa38_b79b6b45e5fa&#45;&gt;c7023d64_46f9_4dff_8357_d16ba24d2554 -->
<g id="edge19" class="edge">
<title>f040b8db_02f2_45fa_aa38_b79b6b45e5fa&#45;&gt;c7023d64_46f9_4dff_8357_d16ba24d2554</title>
<path fill="none" stroke="black" d="M146.58,-121.72C148.91,-109.96 151.35,-97.66 153.59,-86.4"/>
<text text-anchor="middle" x="140.59" y="-89.4" font-family="Times,serif" font-size="10.00">owner</text>
<text text-anchor="middle" x="130.08" y="-113.72" font-family="Times,serif" font-size="10.00">account</text>
</g>
<!-- sendItToTheBank&#45;&gt;c -->
<g id="edge20" class="edge">
<title>sendItToTheBank&#45;&gt;c</title>
<path fill="none" stroke="black" d="M871,-121.72C871,-101.46 871,-79.58 871,-64.22"/>
<text text-anchor="middle" x="853" y="-67.22" font-family="Times,serif" font-size="10.00">currency</text>
</g>
<!-- sendItToTheBank1&#45;&gt;c -->
<g id="edge21" class="edge">
<title>sendItToTheBank1&#45;&gt;c</title>
<path fill="none" stroke="black" d="M770.25,-122.09C796.63,-101.64 825.21,-79.49 845.17,-64.02"/>
<text text-anchor="middle" x="827.17" y="-67.02" font-family="Times,serif" font-size="10.00">currency</text>
</g>
<!-- 8a633aa5_907c_4e57_a313_22e0adb2672e&#45;&gt;c -->
<g id="edge22" class="edge">
<title>8a633aa5_907c_4e57_a313_22e0adb2672e&#45;&gt;c</title>
<path fill="none" stroke="black" d="M1006.59,-121.91C971.17,-101.55 932.85,-79.54 906.02,-64.12"/>
<text text-anchor="middle" x="888.02" y="-67.12" font-family="Times,serif" font-size="10.00">currency</text>
</g>
<!-- 8a633aa5_907c_4e57_a313_22e0adb2672e&#45;&gt;1eaf6f4c_4f92_4e04_bd87_c82be03265de -->
<g id="edge23" class="edge">
<title>8a633aa5_907c_4e57_a313_22e0adb2672e&#45;&gt;1eaf6f4c_4f92_4e04_bd87_c82be03265de</title>
<path fill="none" stroke="black" d="M1114.05,-121.72C1117.37,-109.96 1120.85,-97.66 1124.03,-86.4"/>
<text text-anchor="middle" x="1111.03" y="-89.4" font-family="Times,serif" font-size="10.00">owner</text>
<text text-anchor="middle" x="1097.55" y="-113.72" font-family="Times,serif" font-size="10.00">account</text>
</g>
<!-- 7ec351d6_652f_4691_8e72_ea432d44a0c8&#45;&gt;c -->
<g id="edge24" class="edge">
<title>7ec351d6_652f_4691_8e72_ea432d44a0c8&#45;&gt;c</title>
<path fill="none" stroke="black" d="M616.08,-125.21C619.08,-124.12 622.05,-123.05 625,-122 684.83,-100.71 753.83,-79.08 803.5,-64.02"/>
<text text-anchor="middle" x="785.5" y="-67.02" font-family="Times,serif" font-size="10.00">currency</text>
</g>
<!-- 7ec351d6_652f_4691_8e72_ea432d44a0c8&#45;&gt;e2f7bc4c_ef2a_466e_b8a5_d24f48b13afe -->
<g id="edge25" class="edge">
<title>7ec351d6_652f_4691_8e72_ea432d44a0c8&#45;&gt;e2f7bc4c_ef2a_466e_b8a5_d24f48b13afe</title>
<path fill="none" stroke="black" d="M480.83,-121.72C478.59,-109.96 476.24,-97.66 474.09,-86.4"/>
<text text-anchor="middle" x="461.09" y="-89.4" font-family="Times,serif" font-size="10.00">owner</text>
<text text-anchor="middle" x="464.33" y="-113.72" font-family="Times,serif" font-size="10.00">account</text>
</g>
</g>
</svg>
