<?xml version="1.0" encoding="UTF-8" standalone="no"?>
<!DOCTYPE svg PUBLIC "-//W3C//DTD SVG 1.1//EN"
 "http://www.w3.org/Graphics/SVG/1.1/DTD/svg11.dtd">
<!-- Generated by graphviz version 2.49.3 (20211023.0002)
 -->
<!-- Pages: 1 -->
<svg width="858px" height="377px"
 viewBox="0.00 0.00 858.00 377.00" xmlns="http://www.w3.org/2000/svg" xmlns:xlink="http://www.w3.org/1999/xlink">
<g id="graph0" class="graph" transform="scale(1.0 1.0) rotate(0) translate(4 373)">
<polygon fill="white" stroke="transparent" points="-4,4 -4,-373 854,-373 854,4 -4,4"/>
<!-- beeee200_7050_4bf7_9cb5_8579787f6130 -->
<g id="node1" class="node">
<title>beeee200_7050_4bf7_9cb5_8579787f6130</title>
<polygon fill="none" stroke="black" points="166.5,-348 166.5,-365 392.5,-365 392.5,-348 166.5,-348"/>
<text text-anchor="start" x="169.5" y="-355" font-family="Times,serif" text-decoration="underline" font-size="10.00">beeee200&#45;7050&#45;4bf7&#45;9cb5&#45;8579787f6130 :Transaction</text>
<polygon fill="none" stroke="black" points="166.5,-287 166.5,-348 392.5,-348 392.5,-287 166.5,-287"/>
<text text-anchor="start" x="182.5" y="-337" font-family="Times,serif" font-size="10.00">amount = 25.0</text>
<text text-anchor="start" x="182.5" y="-326" font-family="Times,serif" font-size="10.00">description = &quot;Ref: concert ticket&quot;</text>
<text text-anchor="start" x="182.5" y="-315" font-family="Times,serif" font-size="10.00">id = &quot;beeee200&#45;7050&#45;4bf7&#45;9cb5&#45;8579787f6130&quot;</text>
<text text-anchor="start" x="182.5" y="-304" font-family="Times,serif" font-size="10.00">rejectionDescription = &quot;&quot;</text>
<text text-anchor="start" x="182.5" y="-293" font-family="Times,serif" font-size="10.00">timestamp = 2021&#45;11&#45;27T18:54:59.943992</text>
</g>
<!-- b -->
<g id="node2" class="node">
<title>b</title>
<polygon fill="none" stroke="black" points="411.5,-223 411.5,-240 449.5,-240 449.5,-223 411.5,-223"/>
<text text-anchor="start" x="414.5" y="-230" font-family="Times,serif" text-decoration="underline" font-size="10.00">b :Bank</text>
<polygon fill="none" stroke="black" points="411.5,-217 411.5,-223 449.5,-223 449.5,-217 411.5,-217"/>
</g>
<!-- beeee200_7050_4bf7_9cb5_8579787f6130&#45;&gt;b -->
<g id="edge1" class="edge">
<title>beeee200_7050_4bf7_9cb5_8579787f6130&#45;&gt;b</title>
<path fill="none" stroke="black" d="M346.61,-282.78C366.62,-270.19 387.42,-257.1 403.3,-247.11"/>
<text text-anchor="middle" x="393.3" y="-250.11" font-family="Times,serif" font-size="10.00">bank</text>
<text text-anchor="middle" x="322.61" y="-274.78" font-family="Times,serif" font-size="10.00">transactions</text>
</g>
<!-- c -->
<g id="node3" class="node">
<title>c</title>
<polygon fill="none" stroke="black" points="8.5,-43 8.5,-60 143.5,-60 143.5,-43 8.5,-43"/>
<text text-anchor="start" x="52.5" y="-50" font-family="Times,serif" text-decoration="underline" font-size="10.00">c :Currency</text>
<polygon fill="none" stroke="black" points="8.5,-26 8.5,-43 143.5,-43 143.5,-26 8.5,-26"/>
<text text-anchor="start" x="11.5" y="-32" font-family="Times,serif" font-size="10.00">declaringClass = class Currency</text>
</g>
<!-- beeee200_7050_4bf7_9cb5_8579787f6130&#45;&gt;c -->
<g id="edge2" class="edge">
<title>beeee200_7050_4bf7_9cb5_8579787f6130&#45;&gt;c</title>
<path fill="none" stroke="black" d="M158.21,-287.91C104.18,-264.66 45.79,-228.66 14.5,-175 -7.49,-137.29 28.59,-90.32 53.97,-64.1"/>
<text text-anchor="middle" x="36.47" y="-67.1" font-family="Times,serif" font-size="10.00">currency</text>
</g>
<!-- bab3ef5c_aeea_4656_a98d_e571fbca4169 -->
<g id="node4" class="node">
<title>bab3ef5c_aeea_4656_a98d_e571fbca4169</title>
<polygon fill="none" stroke="black" points="275.5,-153.5 275.5,-170.5 484.5,-170.5 484.5,-153.5 275.5,-153.5"/>
<text text-anchor="start" x="278.5" y="-160.5" font-family="Times,serif" text-decoration="underline" font-size="10.00">bab3ef5c&#45;aeea&#45;4656&#45;a98d&#45;e571fbca4169 :Account</text>
<polygon fill="none" stroke="black" points="275.5,-125.5 275.5,-153.5 484.5,-153.5 484.5,-125.5 275.5,-125.5"/>
<text text-anchor="start" x="284.5" y="-142.5" font-family="Times,serif" font-size="10.00">balance = 0.0</text>
<text text-anchor="start" x="284.5" y="-131.5" font-family="Times,serif" font-size="10.00">id = &quot;bab3ef5c&#45;aeea&#45;4656&#45;a98d&#45;e571fbca4169&quot;</text>
</g>
<!-- beeee200_7050_4bf7_9cb5_8579787f6130&#45;&gt;bab3ef5c_aeea_4656_a98d_e571fbca4169 -->
<g id="edge3" class="edge">
<title>beeee200_7050_4bf7_9cb5_8579787f6130&#45;&gt;bab3ef5c_aeea_4656_a98d_e571fbca4169</title>
<path fill="none" stroke="black" d="M303.45,-282.96C322.58,-249.4 348.76,-203.45 364.88,-175.16"/>
<text text-anchor="middle" x="342.88" y="-178.16" font-family="Times,serif" font-size="10.00">destination</text>
</g>
<!-- 58f339a4_f97e_480a_922c_bb8f7fb94e69 -->
<g id="node5" class="node">
<title>58f339a4_f97e_480a_922c_bb8f7fb94e69</title>
<polygon fill="none" stroke="black" points="32.5,-153.5 32.5,-170.5 241.5,-170.5 241.5,-153.5 32.5,-153.5"/>
<text text-anchor="start" x="35.5" y="-160.5" font-family="Times,serif" text-decoration="underline" font-size="10.00">58f339a4&#45;f97e&#45;480a&#45;922c&#45;bb8f7fb94e69 :Account</text>
<polygon fill="none" stroke="black" points="32.5,-125.5 32.5,-153.5 241.5,-153.5 241.5,-125.5 32.5,-125.5"/>
<text text-anchor="start" x="41.5" y="-142.5" font-family="Times,serif" font-size="10.00">balance = 100.0</text>
<text text-anchor="start" x="41.5" y="-131.5" font-family="Times,serif" font-size="10.00">id = &quot;58f339a4&#45;f97e&#45;480a&#45;922c&#45;bb8f7fb94e69&quot;</text>
</g>
<!-- beeee200_7050_4bf7_9cb5_8579787f6130&#45;&gt;58f339a4_f97e_480a_922c_bb8f7fb94e69 -->
<g id="edge4" class="edge">
<title>beeee200_7050_4bf7_9cb5_8579787f6130&#45;&gt;58f339a4_f97e_480a_922c_bb8f7fb94e69</title>
<path fill="none" stroke="black" d="M245.25,-282.96C217.9,-249.4 180.46,-203.45 157.41,-175.16"/>
<text text-anchor="middle" x="143.91" y="-178.16" font-family="Times,serif" font-size="10.00">source</text>
</g>
<!-- b&#45;&gt;bab3ef5c_aeea_4656_a98d_e571fbca4169 -->
<g id="edge7" class="edge">
<title>b&#45;&gt;bab3ef5c_aeea_4656_a98d_e571fbca4169</title>
<path fill="none" stroke="black" d="M419.43,-210.97C412.64,-200.51 403.8,-186.9 396.17,-175.16"/>
<text text-anchor="middle" x="413.67" y="-178.16" font-family="Times,serif" font-size="10.00">accounts</text>
<text text-anchor="middle" x="409.43" y="-202.97" font-family="Times,serif" font-size="10.00">bank</text>
</g>
<!-- b&#45;&gt;58f339a4_f97e_480a_922c_bb8f7fb94e69 -->
<g id="edge6" class="edge">
<title>b&#45;&gt;58f339a4_f97e_480a_922c_bb8f7fb94e69</title>
<path fill="none" stroke="black" d="M403.37,-220.76C364.77,-210.45 292.07,-191.04 232.28,-175.07"/>
<text text-anchor="middle" x="214.78" y="-178.07" font-family="Times,serif" font-size="10.00">accounts</text>
<text text-anchor="middle" x="393.37" y="-223.76" font-family="Times,serif" font-size="10.00">bank</text>
</g>
<!-- 9c6671c0_4ec1_44e7_bf37_a2251eb85c27 -->
<g id="node6" class="node">
<title>9c6671c0_4ec1_44e7_bf37_a2251eb85c27</title>
<polygon fill="none" stroke="black" points="629.5,-153.5 629.5,-170.5 842.5,-170.5 842.5,-153.5 629.5,-153.5"/>
<text text-anchor="start" x="632.5" y="-160.5" font-family="Times,serif" text-decoration="underline" font-size="10.00">9c6671c0&#45;4ec1&#45;44e7&#45;bf37&#45;a2251eb85c27 :Account</text>
<polygon fill="none" stroke="black" points="629.5,-125.5 629.5,-153.5 842.5,-153.5 842.5,-125.5 629.5,-125.5"/>
<text text-anchor="start" x="639" y="-142.5" font-family="Times,serif" font-size="10.00">balance = 69420.0</text>
<text text-anchor="start" x="639" y="-131.5" font-family="Times,serif" font-size="10.00">id = &quot;9c6671c0&#45;4ec1&#45;44e7&#45;bf37&#45;a2251eb85c27&quot;</text>
</g>
<!-- b&#45;&gt;9c6671c0_4ec1_44e7_bf37_a2251eb85c27 -->
<g id="edge5" class="edge">
<title>b&#45;&gt;9c6671c0_4ec1_44e7_bf37_a2251eb85c27</title>
<path fill="none" stroke="black" d="M457.57,-221.03C497.37,-210.79 573.74,-191.13 636.37,-175.01"/>
<text text-anchor="middle" x="609.37" y="-178.01" font-family="Times,serif" font-size="10.00">bankAccount</text>
<text text-anchor="middle" x="467.57" y="-224.03" font-family="Times,serif" font-size="10.00">bank</text>
</g>
<!-- bd5cb180_a6db_42d7_b278_f029981dda47 -->
<g id="node7" class="node">
<title>bd5cb180_a6db_42d7_b278_f029981dda47</title>
<polygon fill="none" stroke="black" points="177.5,-65 177.5,-82 398.5,-82 398.5,-65 177.5,-65"/>
<text text-anchor="start" x="180.5" y="-72" font-family="Times,serif" text-decoration="underline" font-size="10.00">bd5cb180&#45;a6db&#45;42d7&#45;b278&#45;f029981dda47 :Customer</text>
<polygon fill="none" stroke="black" points="177.5,-4 177.5,-65 398.5,-65 398.5,-4 177.5,-4"/>
<text text-anchor="start" x="189.5" y="-54" font-family="Times,serif" font-size="10.00">email = &quot;john@doe.ee&quot;</text>
<text text-anchor="start" x="189.5" y="-43" font-family="Times,serif" font-size="10.00">firstName = &quot;John&quot;</text>
<text text-anchor="start" x="189.5" y="-32" font-family="Times,serif" font-size="10.00">id = &quot;bd5cb180&#45;a6db&#45;42d7&#45;b278&#45;f029981dda47&quot;</text>
<text text-anchor="start" x="189.5" y="-21" font-family="Times,serif" font-size="10.00">lastName = &quot;Doe&quot;</text>
<text text-anchor="start" x="189.5" y="-10" font-family="Times,serif" font-size="10.00">password = &quot;pass1234&quot;</text>
</g>
<!-- b&#45;&gt;bd5cb180_a6db_42d7_b278_f029981dda47 -->
<g id="edge8" class="edge">
<title>b&#45;&gt;bd5cb180_a6db_42d7_b278_f029981dda47</title>
<path fill="none" stroke="black" d="M457.57,-215.72C473.52,-206.88 492.33,-193.29 501.5,-175 512.06,-153.94 515.01,-141.3 501.5,-122 498.21,-117.29 453.77,-100.78 406.25,-84.15"/>
<text text-anchor="middle" x="426.75" y="-87.15" font-family="Times,serif" font-size="10.00">customers</text>
<text text-anchor="middle" x="467.57" y="-207.72" font-family="Times,serif" font-size="10.00">bank</text>
</g>
<!-- 816588ac_17be_4c63_9cde_f08e00066332 -->
<g id="node8" class="node">
<title>816588ac_17be_4c63_9cde_f08e00066332</title>
<polygon fill="none" stroke="black" points="432.5,-65 432.5,-82 650.5,-82 650.5,-65 432.5,-65"/>
<text text-anchor="start" x="435.5" y="-72" font-family="Times,serif" text-decoration="underline" font-size="10.00">816588ac&#45;17be&#45;4c63&#45;9cde&#45;f08e00066332 :Customer</text>
<polygon fill="none" stroke="black" points="432.5,-4 432.5,-65 650.5,-65 650.5,-4 432.5,-4"/>
<text text-anchor="start" x="444" y="-54" font-family="Times,serif" font-size="10.00">email = &quot;bobby@tt.ee&quot;</text>
<text text-anchor="start" x="444" y="-43" font-family="Times,serif" font-size="10.00">firstName = &quot;Bob&quot;</text>
<text text-anchor="start" x="444" y="-32" font-family="Times,serif" font-size="10.00">id = &quot;816588ac&#45;17be&#45;4c63&#45;9cde&#45;f08e00066332&quot;</text>
<text text-anchor="start" x="444" y="-21" font-family="Times,serif" font-size="10.00">lastName = &quot;Jackson&quot;</text>
<text text-anchor="start" x="444" y="-10" font-family="Times,serif" font-size="10.00">password = &quot;secret&quot;</text>
</g>
<!-- b&#45;&gt;816588ac_17be_4c63_9cde_f08e00066332 -->
<g id="edge9" class="edge">
<title>b&#45;&gt;816588ac_17be_4c63_9cde_f08e00066332</title>
<path fill="none" stroke="black" d="M457.82,-222.19C482.42,-215.39 517.27,-201.5 534.5,-175 551.38,-149.03 552.3,-113.68 549.46,-86.25"/>
<text text-anchor="middle" x="528.96" y="-89.25" font-family="Times,serif" font-size="10.00">customers</text>
<text text-anchor="middle" x="467.82" y="-214.19" font-family="Times,serif" font-size="10.00">bank</text>
</g>
<!-- bab3ef5c_aeea_4656_a98d_e571fbca4169&#45;&gt;c -->
<g id="edge10" class="edge">
<title>bab3ef5c_aeea_4656_a98d_e571fbca4169&#45;&gt;c</title>
<path fill="none" stroke="black" d="M273.5,-121.98C237.2,-112.13 196.63,-99.86 160.5,-86 144.36,-79.81 127.16,-71.63 112.49,-64.14"/>
<text text-anchor="middle" x="94.99" y="-67.14" font-family="Times,serif" font-size="10.00">currency</text>
</g>
<!-- bab3ef5c_aeea_4656_a98d_e571fbca4169&#45;&gt;816588ac_17be_4c63_9cde_f08e00066332 -->
<g id="edge11" class="edge">
<title>bab3ef5c_aeea_4656_a98d_e571fbca4169&#45;&gt;816588ac_17be_4c63_9cde_f08e00066332</title>
<path fill="none" stroke="black" d="M419.54,-121.92C436.5,-111.08 456.71,-98.17 475.76,-86"/>
<text text-anchor="middle" x="463.26" y="-89" font-family="Times,serif" font-size="10.00">owner</text>
<text text-anchor="middle" x="403.54" y="-113.92" font-family="Times,serif" font-size="10.00">account</text>
</g>
<!-- 58f339a4_f97e_480a_922c_bb8f7fb94e69&#45;&gt;c -->
<g id="edge12" class="edge">
<title>58f339a4_f97e_480a_922c_bb8f7fb94e69&#45;&gt;c</title>
<path fill="none" stroke="black" d="M121.42,-121.92C110.91,-104.08 97.08,-80.61 87.35,-64.11"/>
<text text-anchor="middle" x="69.85" y="-67.11" font-family="Times,serif" font-size="10.00">currency</text>
</g>
<!-- 58f339a4_f97e_480a_922c_bb8f7fb94e69&#45;&gt;bd5cb180_a6db_42d7_b278_f029981dda47 -->
<g id="edge13" class="edge">
<title>58f339a4_f97e_480a_922c_bb8f7fb94e69&#45;&gt;bd5cb180_a6db_42d7_b278_f029981dda47</title>
<path fill="none" stroke="black" d="M173.83,-121.92C189.63,-111.08 208.47,-98.17 226.22,-86"/>
<text text-anchor="middle" x="213.72" y="-89" font-family="Times,serif" font-size="10.00">owner</text>
<text text-anchor="middle" x="157.83" y="-113.92" font-family="Times,serif" font-size="10.00">account</text>
</g>
<!-- c1 -->
<g id="node9" class="node">
<title>c1</title>
<polygon fill="none" stroke="black" points="685.5,-43 685.5,-60 820.5,-60 820.5,-43 685.5,-43"/>
<text text-anchor="start" x="727" y="-50" font-family="Times,serif" text-decoration="underline" font-size="10.00">c1 :Currency</text>
<polygon fill="none" stroke="black" points="685.5,-26 685.5,-43 820.5,-43 820.5,-26 685.5,-26"/>
<text text-anchor="start" x="688.5" y="-32" font-family="Times,serif" font-size="10.00">declaringClass = class Currency</text>
</g>
<!-- 9c6671c0_4ec1_44e7_bf37_a2251eb85c27&#45;&gt;c1 -->
<g id="edge14" class="edge">
<title>9c6671c0_4ec1_44e7_bf37_a2251eb85c27&#45;&gt;c1</title>
<path fill="none" stroke="black" d="M739.7,-121.92C742.63,-104.08 746.49,-80.61 749.2,-64.11"/>
<text text-anchor="middle" x="731.7" y="-67.11" font-family="Times,serif" font-size="10.00">currency</text>
</g>
</g>
</svg>
