<?xml version="1.0" encoding="UTF-8" standalone="no"?>
<!DOCTYPE svg PUBLIC "-//W3C//DTD SVG 1.1//EN"
 "http://www.w3.org/Graphics/SVG/1.1/DTD/svg11.dtd">
<!-- Generated by graphviz version 2.43.0 (0)
 -->
<!-- Title: model Pages: 1 -->
<svg width="1493px" height="449px"
 viewBox="0.00 0.00 1492.50 449.00" xmlns="http://www.w3.org/2000/svg" xmlns:xlink="http://www.w3.org/1999/xlink">
<g id="graph0" class="graph" transform="scale(1.0 1.0) rotate(0) translate(4 445)">
<title>model</title>
<polygon fill="white" stroke="transparent" points="-4,4 -4,-445 1488.5,-445 1488.5,4 -4,4"/>
<!-- 8084f8c4_2f8d_4bcb_bd94_02fa35c423b2 -->
<g id="node1" class="node">
<title>8084f8c4_2f8d_4bcb_bd94_02fa35c423b2</title>
<polygon fill="none" stroke="black" points="109,-420 109,-437 339,-437 339,-420 109,-420"/>
<text text-anchor="start" x="112" y="-427" font-family="Times,serif" text-decoration="underline" font-size="10.00">8084f8c4&#45;2f8d&#45;4bcb&#45;bd94&#45;02fa35c423b2 :Transaction</text>
<polygon fill="none" stroke="black" points="109,-359 109,-420 339,-420 339,-359 109,-359"/>
<text text-anchor="start" x="125.5" y="-409" font-family="Times,serif" font-size="10.00">amount = 25.0</text>
<text text-anchor="start" x="125.5" y="-398" font-family="Times,serif" font-size="10.00">description = &quot;Ref: concert ticket&quot;</text>
<text text-anchor="start" x="125.5" y="-387" font-family="Times,serif" font-size="10.00">id = &quot;8084f8c4&#45;2f8d&#45;4bcb&#45;bd94&#45;02fa35c423b2&quot;</text>
<text text-anchor="start" x="125.5" y="-376" font-family="Times,serif" font-size="10.00">rejectionDescription = &quot;&quot;</text>
<text text-anchor="start" x="125.5" y="-365" font-family="Times,serif" font-size="10.00">timestamp = 2021&#45;12&#45;04T18:16:14.739335474</text>
</g>
<!-- b -->
<g id="node2" class="node">
<title>b</title>
<polygon fill="none" stroke="black" points="280,-297.5 280,-314.5 1109,-314.5 1109,-297.5 280,-297.5"/>
<text text-anchor="start" x="678" y="-304.5" font-family="Times,serif" text-decoration="underline" font-size="10.00">b :Bank</text>
<polygon fill="none" stroke="black" points="280,-269.5 280,-297.5 1109,-297.5 1109,-269.5 280,-269.5"/>
<text text-anchor="start" x="283" y="-286.5" font-family="Times,serif" font-size="10.00">accountsMap = f69030a1&#45;b7b4&#45;44d2&#45;8378&#45;ecb15652ffdf3cf1a8d0&#45;38d4&#45;495b&#45;87d2&#45;d29afb6a45bfsendItToTheBank8a633aa5&#45;907c&#45;4e57&#45;a313&#45;22e0adb2672e7ec351d6&#45;652f&#45;4691&#45;8e72&#45;ea432d44a0c8</text>
<text text-anchor="start" x="283" y="-275.5" font-family="Times,serif" font-size="10.00">customerMap = e2f7bc4c&#45;ef2a&#45;466e&#45;b8a5&#45;d24f48b13afe1eaf6f4c&#45;4f92&#45;4e04&#45;bd87&#45;c82be03265de55d450c7&#45;1813&#45;48a9&#45;9403&#45;d34d6ddb438887b64650&#45;d58c&#45;4eb1&#45;8e10&#45;8161c92e0e32</text>
</g>
<!-- 8084f8c4_2f8d_4bcb_bd94_02fa35c423b2&#45;&gt;b -->
<g id="edge1" class="edge">
<title>8084f8c4_2f8d_4bcb_bd94_02fa35c423b2&#45;&gt;b</title>
<path fill="none" stroke="black" d="M347.18,-369.87C418.58,-354.15 507.93,-334.48 578.05,-319.03"/>
<text text-anchor="middle" x="567.55" y="-322.03" font-family="Times,serif" font-size="10.00">bank</text>
<text text-anchor="middle" x="371.68" y="-372.87" font-family="Times,serif" font-size="10.00">transactions</text>
</g>
<!-- c -->
<g id="node3" class="node">
<title>c</title>
<polygon fill="none" stroke="black" points="8,-43 8,-60 172,-60 172,-43 8,-43"/>
<text text-anchor="start" x="66" y="-50" font-family="Times,serif" text-decoration="underline" font-size="10.00">c :Currency</text>
<polygon fill="none" stroke="black" points="8,-26 8,-43 172,-43 172,-26 8,-26"/>
<text text-anchor="start" x="11" y="-32" font-family="Times,serif" font-size="10.00">declaringClass = class model.Currency</text>
</g>
<!-- 8084f8c4_2f8d_4bcb_bd94_02fa35c423b2&#45;&gt;c -->
<g id="edge2" class="edge">
<title>8084f8c4_2f8d_4bcb_bd94_02fa35c423b2&#45;&gt;c</title>
<path fill="none" stroke="black" d="M175.66,-354.92C144.01,-323.99 105.42,-278.97 88,-230 67.6,-172.65 78.33,-98.91 85.4,-64.01"/>
<text text-anchor="middle" x="67.4" y="-67.01" font-family="Times,serif" font-size="10.00">currency</text>
</g>
<!-- f69030a1_b7b4_44d2_8378_ecb15652ffdf -->
<g id="node4" class="node">
<title>f69030a1_b7b4_44d2_8378_ecb15652ffdf</title>
<polygon fill="none" stroke="black" points="357,-209 357,-226 573,-226 573,-209 357,-209"/>
<text text-anchor="start" x="360" y="-216" font-family="Times,serif" text-decoration="underline" font-size="10.00">f69030a1&#45;b7b4&#45;44d2&#45;8378&#45;ecb15652ffdf :Account</text>
<polygon fill="none" stroke="black" points="357,-126 357,-209 573,-209 573,-126 357,-126"/>
<text text-anchor="start" x="367" y="-198" font-family="Times,serif" font-size="10.00">balance = 0.0</text>
<text text-anchor="start" x="367" y="-187" font-family="Times,serif" font-size="10.00">customerId = null</text>
<text text-anchor="start" x="367" y="-176" font-family="Times,serif" font-size="10.00">iban = &quot;EE564750224819467412&quot;</text>
<text text-anchor="start" x="367" y="-165" font-family="Times,serif" font-size="10.00">id = &quot;f69030a1&#45;b7b4&#45;44d2&#45;8378&#45;ecb15652ffdf&quot;</text>
<text text-anchor="start" x="367" y="-154" font-family="Times,serif" font-size="10.00">receivedTransaction = </text>
<text text-anchor="start" x="367" y="-143" font-family="Times,serif" font-size="10.00">sentTransaction = </text>
<text text-anchor="start" x="367" y="-132" font-family="Times,serif" font-size="10.00">status = &quot;ACTIVE&quot;</text>
</g>
<!-- 8084f8c4_2f8d_4bcb_bd94_02fa35c423b2&#45;&gt;f69030a1_b7b4_44d2_8378_ecb15652ffdf -->
<g id="edge3" class="edge">
<title>8084f8c4_2f8d_4bcb_bd94_02fa35c423b2&#45;&gt;f69030a1_b7b4_44d2_8378_ecb15652ffdf</title>
<path fill="none" stroke="black" d="M227.04,-354.82C231.09,-326.72 240.45,-290.57 262,-266 263.81,-263.93 304.44,-245.99 348.87,-226.74"/>
<text text-anchor="middle" x="325.87" y="-229.74" font-family="Times,serif" font-size="10.00">destination</text>
</g>
<!-- 3cf1a8d0_38d4_495b_87d2_d29afb6a45bf -->
<g id="node5" class="node">
<title>3cf1a8d0_38d4_495b_87d2_d29afb6a45bf</title>
<polygon fill="none" stroke="black" points="106,-209 106,-226 323,-226 323,-209 106,-209"/>
<text text-anchor="start" x="109" y="-216" font-family="Times,serif" text-decoration="underline" font-size="10.00">3cf1a8d0&#45;38d4&#45;495b&#45;87d2&#45;d29afb6a45bf :Account</text>
<polygon fill="none" stroke="black" points="106,-126 106,-209 323,-209 323,-126 106,-126"/>
<text text-anchor="start" x="116" y="-198" font-family="Times,serif" font-size="10.00">balance = 100.0</text>
<text text-anchor="start" x="116" y="-187" font-family="Times,serif" font-size="10.00">customerId = null</text>
<text text-anchor="start" x="116" y="-176" font-family="Times,serif" font-size="10.00">iban = &quot;EE273803268615797977&quot;</text>
<text text-anchor="start" x="116" y="-165" font-family="Times,serif" font-size="10.00">id = &quot;3cf1a8d0&#45;38d4&#45;495b&#45;87d2&#45;d29afb6a45bf&quot;</text>
<text text-anchor="start" x="116" y="-154" font-family="Times,serif" font-size="10.00">receivedTransaction = </text>
<text text-anchor="start" x="116" y="-143" font-family="Times,serif" font-size="10.00">sentTransaction = </text>
<text text-anchor="start" x="116" y="-132" font-family="Times,serif" font-size="10.00">status = &quot;ACTIVE&quot;</text>
</g>
<!-- 8084f8c4_2f8d_4bcb_bd94_02fa35c423b2&#45;&gt;3cf1a8d0_38d4_495b_87d2_d29afb6a45bf -->
<g id="edge4" class="edge">
<title>8084f8c4_2f8d_4bcb_bd94_02fa35c423b2&#45;&gt;3cf1a8d0_38d4_495b_87d2_d29afb6a45bf</title>
<path fill="none" stroke="black" d="M222.08,-354.84C220.47,-319.41 218.16,-268.57 216.42,-230.31"/>
<text text-anchor="middle" x="202.92" y="-233.31" font-family="Times,serif" font-size="10.00">source</text>
</g>
<!-- b&#45;&gt;f69030a1_b7b4_44d2_8378_ecb15652ffdf -->
<g id="edge9" class="edge">
<title>b&#45;&gt;f69030a1_b7b4_44d2_8378_ecb15652ffdf</title>
<path fill="none" stroke="black" d="M642.89,-265.95C621.67,-255.34 596.2,-242.6 571.26,-230.13"/>
<text text-anchor="middle" x="552.76" y="-233.13" font-family="Times,serif" font-size="10.00">accounts</text>
<text text-anchor="middle" x="632.39" y="-257.95" font-family="Times,serif" font-size="10.00">bank</text>
</g>
<!-- b&#45;&gt;3cf1a8d0_38d4_495b_87d2_d29afb6a45bf -->
<g id="edge8" class="edge">
<title>b&#45;&gt;3cf1a8d0_38d4_495b_87d2_d29afb6a45bf</title>
<path fill="none" stroke="black" d="M500.19,-265.96C447.66,-256.84 391.18,-245 340,-230 336.93,-229.1 333.83,-228.15 330.71,-227.15"/>
<text text-anchor="middle" x="349.21" y="-219.15" font-family="Times,serif" font-size="10.00">accounts</text>
<text text-anchor="middle" x="489.69" y="-257.96" font-family="Times,serif" font-size="10.00">bank</text>
</g>
<!-- sendItToTheBank -->
<g id="node6" class="node">
<title>sendItToTheBank</title>
<polygon fill="none" stroke="black" points="989,-209 989,-226 1137,-226 1137,-209 989,-209"/>
<text text-anchor="start" x="1006" y="-216" font-family="Times,serif" text-decoration="underline" font-size="10.00">sendItToTheBank :Account</text>
<polygon fill="none" stroke="black" points="989,-126 989,-209 1137,-209 1137,-126 989,-126"/>
<text text-anchor="start" x="992" y="-198" font-family="Times,serif" font-size="10.00">balance = 69420.0</text>
<text text-anchor="start" x="992" y="-187" font-family="Times,serif" font-size="10.00">customerId = null</text>
<text text-anchor="start" x="992" y="-176" font-family="Times,serif" font-size="10.00">iban = &quot;EE227653241524480611&quot;</text>
<text text-anchor="start" x="992" y="-165" font-family="Times,serif" font-size="10.00">id = &quot;sendItToTheBank&quot;</text>
<text text-anchor="start" x="992" y="-154" font-family="Times,serif" font-size="10.00">receivedTransaction = </text>
<text text-anchor="start" x="992" y="-143" font-family="Times,serif" font-size="10.00">sentTransaction = </text>
<text text-anchor="start" x="992" y="-132" font-family="Times,serif" font-size="10.00">status = &quot;ACTIVE&quot;</text>
</g>
<!-- b&#45;&gt;sendItToTheBank -->
<g id="edge5" class="edge">
<title>b&#45;&gt;sendItToTheBank</title>
<path fill="none" stroke="black" d="M849.48,-265.99C890.1,-256.93 933.33,-245.11 972,-230 974.98,-228.84 977.98,-227.58 980.98,-226.26"/>
<text text-anchor="middle" x="952.98" y="-229.26" font-family="Times,serif" font-size="10.00">bankAccount</text>
<text text-anchor="middle" x="838.98" y="-257.99" font-family="Times,serif" font-size="10.00">bank</text>
</g>
<!-- 8a633aa5_907c_4e57_a313_22e0adb2672e -->
<g id="node7" class="node">
<title>8a633aa5_907c_4e57_a313_22e0adb2672e</title>
<polygon fill="none" stroke="black" points="1171,-209 1171,-226 1409,-226 1409,-209 1171,-209"/>
<text text-anchor="start" x="1183" y="-216" font-family="Times,serif" text-decoration="underline" font-size="10.00">8a633aa5&#45;907c&#45;4e57&#45;a313&#45;22e0adb2672e :Account</text>
<polygon fill="none" stroke="black" points="1171,-126 1171,-209 1409,-209 1409,-126 1171,-126"/>
<text text-anchor="start" x="1174" y="-198" font-family="Times,serif" font-size="10.00">balance = 0.0</text>
<text text-anchor="start" x="1174" y="-187" font-family="Times,serif" font-size="10.00">customerId = &quot;1eaf6f4c&#45;4f92&#45;4e04&#45;bd87&#45;c82be03265de&quot;</text>
<text text-anchor="start" x="1174" y="-176" font-family="Times,serif" font-size="10.00">iban = null</text>
<text text-anchor="start" x="1174" y="-165" font-family="Times,serif" font-size="10.00">id = &quot;8a633aa5&#45;907c&#45;4e57&#45;a313&#45;22e0adb2672e&quot;</text>
<text text-anchor="start" x="1174" y="-154" font-family="Times,serif" font-size="10.00">receivedTransaction = </text>
<text text-anchor="start" x="1174" y="-143" font-family="Times,serif" font-size="10.00">sentTransaction = </text>
<text text-anchor="start" x="1174" y="-132" font-family="Times,serif" font-size="10.00">status = &quot;ACTIVE&quot;</text>
</g>
<!-- b&#45;&gt;8a633aa5_907c_4e57_a313_22e0adb2672e -->
<g id="edge6" class="edge">
<title>b&#45;&gt;8a633aa5_907c_4e57_a313_22e0adb2672e</title>
<path fill="none" stroke="black" d="M966.68,-265.97C1028.8,-257.14 1094.12,-245.43 1154,-230 1156.94,-229.24 1159.91,-228.44 1162.89,-227.59"/>
<text text-anchor="middle" x="1144.39" y="-230.59" font-family="Times,serif" font-size="10.00">accounts</text>
<text text-anchor="middle" x="956.18" y="-257.97" font-family="Times,serif" font-size="10.00">bank</text>
</g>
<!-- 7ec351d6_652f_4691_8e72_ea432d44a0c8 -->
<g id="node8" class="node">
<title>7ec351d6_652f_4691_8e72_ea432d44a0c8</title>
<polygon fill="none" stroke="black" points="721,-209 721,-226 955,-226 955,-209 721,-209"/>
<text text-anchor="start" x="731" y="-216" font-family="Times,serif" text-decoration="underline" font-size="10.00">7ec351d6&#45;652f&#45;4691&#45;8e72&#45;ea432d44a0c8 :Account</text>
<polygon fill="none" stroke="black" points="721,-126 721,-209 955,-209 955,-126 721,-126"/>
<text text-anchor="start" x="724" y="-198" font-family="Times,serif" font-size="10.00">balance = 100.0</text>
<text text-anchor="start" x="724" y="-187" font-family="Times,serif" font-size="10.00">customerId = &quot;e2f7bc4c&#45;ef2a&#45;466e&#45;b8a5&#45;d24f48b13afe&quot;</text>
<text text-anchor="start" x="724" y="-176" font-family="Times,serif" font-size="10.00">iban = null</text>
<text text-anchor="start" x="724" y="-165" font-family="Times,serif" font-size="10.00">id = &quot;7ec351d6&#45;652f&#45;4691&#45;8e72&#45;ea432d44a0c8&quot;</text>
<text text-anchor="start" x="724" y="-154" font-family="Times,serif" font-size="10.00">receivedTransaction = </text>
<text text-anchor="start" x="724" y="-143" font-family="Times,serif" font-size="10.00">sentTransaction = </text>
<text text-anchor="start" x="724" y="-132" font-family="Times,serif" font-size="10.00">status = &quot;ACTIVE&quot;</text>
</g>
<!-- b&#45;&gt;7ec351d6_652f_4691_8e72_ea432d44a0c8 -->
<g id="edge7" class="edge">
<title>b&#45;&gt;7ec351d6_652f_4691_8e72_ea432d44a0c8</title>
<path fill="none" stroke="black" d="M726.32,-265.8C739.67,-255.19 755.66,-242.47 771.32,-230.02"/>
<text text-anchor="middle" x="752.82" y="-233.02" font-family="Times,serif" font-size="10.00">accounts</text>
<text text-anchor="middle" x="715.82" y="-257.8" font-family="Times,serif" font-size="10.00">bank</text>
</g>
<!-- e2f7bc4c_ef2a_466e_b8a5_d24f48b13afe -->
<g id="node9" class="node">
<title>e2f7bc4c_ef2a_466e_b8a5_d24f48b13afe</title>
<polygon fill="none" stroke="black" points="731,-65 731,-82 946,-82 946,-65 731,-65"/>
<text text-anchor="start" x="734" y="-72" font-family="Times,serif" text-decoration="underline" font-size="10.00">e2f7bc4c&#45;ef2a&#45;466e&#45;b8a5&#45;d24f48b13afe :Customer</text>
<polygon fill="none" stroke="black" points="731,-4 731,-65 946,-65 946,-4 731,-4"/>
<text text-anchor="start" x="743" y="-54" font-family="Times,serif" font-size="10.00">email = &quot;john@doe.ee&quot;</text>
<text text-anchor="start" x="743" y="-43" font-family="Times,serif" font-size="10.00">firstName = &quot;John&quot;</text>
<text text-anchor="start" x="743" y="-32" font-family="Times,serif" font-size="10.00">id = &quot;e2f7bc4c&#45;ef2a&#45;466e&#45;b8a5&#45;d24f48b13afe&quot;</text>
<text text-anchor="start" x="743" y="-21" font-family="Times,serif" font-size="10.00">lastName = &quot;Doe&quot;</text>
<text text-anchor="start" x="743" y="-10" font-family="Times,serif" font-size="10.00">password = &quot;pass1234&quot;</text>
</g>
<!-- b&#45;&gt;e2f7bc4c_ef2a_466e_b8a5_d24f48b13afe -->
<g id="edge10" class="edge">
<title>b&#45;&gt;e2f7bc4c_ef2a_466e_b8a5_d24f48b13afe</title>
<path fill="none" stroke="black" d="M688.46,-265.74C682.35,-230.46 676.67,-166.45 704,-122 712.67,-107.9 724.91,-96.07 738.5,-86.24"/>
<text text-anchor="middle" x="718" y="-89.24" font-family="Times,serif" font-size="10.00">customers</text>
<text text-anchor="middle" x="677.96" y="-257.74" font-family="Times,serif" font-size="10.00">bank</text>
</g>
<!-- 1eaf6f4c_4f92_4e04_bd87_c82be03265de -->
<g id="node10" class="node">
<title>1eaf6f4c_4f92_4e04_bd87_c82be03265de</title>
<polygon fill="none" stroke="black" points="1258,-65 1258,-82 1477,-82 1477,-65 1258,-65"/>
<text text-anchor="start" x="1261" y="-72" font-family="Times,serif" text-decoration="underline" font-size="10.00">1eaf6f4c&#45;4f92&#45;4e04&#45;bd87&#45;c82be03265de :Customer</text>
<polygon fill="none" stroke="black" points="1258,-4 1258,-65 1477,-65 1477,-4 1258,-4"/>
<text text-anchor="start" x="1270" y="-54" font-family="Times,serif" font-size="10.00">email = &quot;bobby@tt.ee&quot;</text>
<text text-anchor="start" x="1270" y="-43" font-family="Times,serif" font-size="10.00">firstName = &quot;Bob&quot;</text>
<text text-anchor="start" x="1270" y="-32" font-family="Times,serif" font-size="10.00">id = &quot;1eaf6f4c&#45;4f92&#45;4e04&#45;bd87&#45;c82be03265de&quot;</text>
<text text-anchor="start" x="1270" y="-21" font-family="Times,serif" font-size="10.00">lastName = &quot;Jackson&quot;</text>
<text text-anchor="start" x="1270" y="-10" font-family="Times,serif" font-size="10.00">password = &quot;secret&quot;</text>
</g>
<!-- b&#45;&gt;1eaf6f4c_4f92_4e04_bd87_c82be03265de -->
<g id="edge11" class="edge">
<title>b&#45;&gt;1eaf6f4c_4f92_4e04_bd87_c82be03265de</title>
<path fill="none" stroke="black" d="M1116.6,-279.32C1265.66,-270.6 1402.42,-255.64 1426,-230 1458.49,-194.67 1441.27,-167.51 1426,-122 1421.73,-109.28 1414.48,-96.99 1406.49,-86.06"/>
<text text-anchor="middle" x="1385.99" y="-89.06" font-family="Times,serif" font-size="10.00">customers</text>
<text text-anchor="middle" x="1127.1" y="-282.32" font-family="Times,serif" font-size="10.00">bank</text>
</g>
<!-- 55d450c7_1813_48a9_9403_d34d6ddb4388 -->
<g id="node11" class="node">
<title>55d450c7_1813_48a9_9403_d34d6ddb4388</title>
<polygon fill="none" stroke="black" points="207,-65 207,-82 436,-82 436,-65 207,-65"/>
<text text-anchor="start" x="210" y="-72" font-family="Times,serif" text-decoration="underline" font-size="10.00">55d450c7&#45;1813&#45;48a9&#45;9403&#45;d34d6ddb4388 :Customer</text>
<polygon fill="none" stroke="black" points="207,-4 207,-65 436,-65 436,-4 207,-4"/>
<text text-anchor="start" x="219" y="-54" font-family="Times,serif" font-size="10.00">email = &quot;johntest@doe.ee&quot;</text>
<text text-anchor="start" x="219" y="-43" font-family="Times,serif" font-size="10.00">firstName = &quot;johntest&quot;</text>
<text text-anchor="start" x="219" y="-32" font-family="Times,serif" font-size="10.00">id = &quot;55d450c7&#45;1813&#45;48a9&#45;9403&#45;d34d6ddb4388&quot;</text>
<text text-anchor="start" x="219" y="-21" font-family="Times,serif" font-size="10.00">lastName = &quot;Doe&quot;</text>
<text text-anchor="start" x="219" y="-10" font-family="Times,serif" font-size="10.00">password = &quot;pass1234&quot;</text>
</g>
<!-- b&#45;&gt;55d450c7_1813_48a9_9403_d34d6ddb4388 -->
<g id="edge12" class="edge">
<title>b&#45;&gt;55d450c7_1813_48a9_9403_d34d6ddb4388</title>
<path fill="none" stroke="black" d="M656.58,-265.75C644.42,-255.8 631.8,-243.53 623,-230 595.63,-187.93 626.19,-156.78 590,-122 544.61,-78.37 513.46,-103.55 453,-86 449.88,-85.09 446.73,-84.17 443.54,-83.23"/>
<text text-anchor="middle" x="464.04" y="-86.23" font-family="Times,serif" font-size="10.00">customers</text>
<text text-anchor="middle" x="656.58" y="-257.75" font-family="Times,serif" font-size="10.00">bank</text>
</g>
<!-- 87b64650_d58c_4eb1_8e10_8161c92e0e32 -->
<g id="node12" class="node">
<title>87b64650_d58c_4eb1_8e10_8161c92e0e32</title>
<polygon fill="none" stroke="black" points="470,-65 470,-82 696,-82 696,-65 470,-65"/>
<text text-anchor="start" x="473" y="-72" font-family="Times,serif" text-decoration="underline" font-size="10.00">87b64650&#45;d58c&#45;4eb1&#45;8e10&#45;8161c92e0e32 :Customer</text>
<polygon fill="none" stroke="black" points="470,-4 470,-65 696,-65 696,-4 470,-4"/>
<text text-anchor="start" x="482" y="-54" font-family="Times,serif" font-size="10.00">email = &quot;bobbytest@tt.ee&quot;</text>
<text text-anchor="start" x="482" y="-43" font-family="Times,serif" font-size="10.00">firstName = &quot;Bob&quot;</text>
<text text-anchor="start" x="482" y="-32" font-family="Times,serif" font-size="10.00">id = &quot;87b64650&#45;d58c&#45;4eb1&#45;8e10&#45;8161c92e0e32&quot;</text>
<text text-anchor="start" x="482" y="-21" font-family="Times,serif" font-size="10.00">lastName = &quot;Jackson&quot;</text>
<text text-anchor="start" x="482" y="-10" font-family="Times,serif" font-size="10.00">password = &quot;secret&quot;</text>
</g>
<!-- b&#45;&gt;87b64650_d58c_4eb1_8e10_8161c92e0e32 -->
<g id="edge13" class="edge">
<title>b&#45;&gt;87b64650_d58c_4eb1_8e10_8161c92e0e32</title>
<path fill="none" stroke="black" d="M684.02,-265.96C670.8,-232.55 646.41,-172.34 623,-122 617.55,-110.27 611.3,-97.73 605.4,-86.21"/>
<text text-anchor="middle" x="584.9" y="-89.21" font-family="Times,serif" font-size="10.00">customers</text>
<text text-anchor="middle" x="694.52" y="-257.96" font-family="Times,serif" font-size="10.00">bank</text>
</g>
<!-- f69030a1_b7b4_44d2_8378_ecb15652ffdf&#45;&gt;c -->
<g id="edge14" class="edge">
<title>f69030a1_b7b4_44d2_8378_ecb15652ffdf&#45;&gt;c</title>
<path fill="none" stroke="black" d="M348.9,-125.35C345.57,-124.19 342.27,-123.07 339,-122 273.85,-100.64 254.11,-107.46 189,-86 170.38,-79.86 150.38,-71.7 133.27,-64.19"/>
<text text-anchor="middle" x="151.27" y="-67.19" font-family="Times,serif" font-size="10.00">currency</text>
</g>
<!-- f69030a1_b7b4_44d2_8378_ecb15652ffdf&#45;&gt;87b64650_d58c_4eb1_8e10_8161c92e0e32 -->
<g id="edge15" class="edge">
<title>f69030a1_b7b4_44d2_8378_ecb15652ffdf&#45;&gt;87b64650_d58c_4eb1_8e10_8161c92e0e32</title>
<path fill="none" stroke="black" d="M513,-121.72C523.59,-109.96 534.67,-97.66 544.81,-86.4"/>
<text text-anchor="middle" x="531.81" y="-89.4" font-family="Times,serif" font-size="10.00">owner</text>
<text text-anchor="middle" x="496.5" y="-113.72" font-family="Times,serif" font-size="10.00">account</text>
</g>
<!-- 3cf1a8d0_38d4_495b_87d2_d29afb6a45bf&#45;&gt;c -->
<g id="edge16" class="edge">
<title>3cf1a8d0_38d4_495b_87d2_d29afb6a45bf&#45;&gt;c</title>
<path fill="none" stroke="black" d="M163.56,-121.72C144.39,-101.46 123.68,-79.58 109.14,-64.22"/>
<text text-anchor="middle" x="91.14" y="-67.22" font-family="Times,serif" font-size="10.00">currency</text>
</g>
<!-- 3cf1a8d0_38d4_495b_87d2_d29afb6a45bf&#45;&gt;55d450c7_1813_48a9_9403_d34d6ddb4388 -->
<g id="edge17" class="edge">
<title>3cf1a8d0_38d4_495b_87d2_d29afb6a45bf&#45;&gt;55d450c7_1813_48a9_9403_d34d6ddb4388</title>
<path fill="none" stroke="black" d="M257.52,-121.72C267.13,-109.96 277.17,-97.66 286.37,-86.4"/>
<text text-anchor="middle" x="273.37" y="-89.4" font-family="Times,serif" font-size="10.00">owner</text>
<text text-anchor="middle" x="241.02" y="-113.72" font-family="Times,serif" font-size="10.00">account</text>
</g>
<!-- c1 -->
<g id="node13" class="node">
<title>c1</title>
<polygon fill="none" stroke="black" points="981,-43 981,-60 1145,-60 1145,-43 981,-43"/>
<text text-anchor="start" x="1036.5" y="-50" font-family="Times,serif" text-decoration="underline" font-size="10.00">c1 :Currency</text>
<polygon fill="none" stroke="black" points="981,-26 981,-43 1145,-43 1145,-26 981,-26"/>
<text text-anchor="start" x="984" y="-32" font-family="Times,serif" font-size="10.00">declaringClass = class model.Currency</text>
</g>
<!-- sendItToTheBank&#45;&gt;c1 -->
<g id="edge18" class="edge">
<title>sendItToTheBank&#45;&gt;c1</title>
<path fill="none" stroke="black" d="M1063,-121.72C1063,-101.46 1063,-79.58 1063,-64.22"/>
<text text-anchor="middle" x="1045" y="-67.22" font-family="Times,serif" font-size="10.00">currency</text>
</g>
<!-- 8a633aa5_907c_4e57_a313_22e0adb2672e&#45;&gt;1eaf6f4c_4f92_4e04_bd87_c82be03265de -->
<g id="edge20" class="edge">
<title>8a633aa5_907c_4e57_a313_22e0adb2672e&#45;&gt;1eaf6f4c_4f92_4e04_bd87_c82be03265de</title>
<path fill="none" stroke="black" d="M1321.32,-121.72C1328.23,-109.96 1335.46,-97.66 1342.08,-86.4"/>
<text text-anchor="middle" x="1329.08" y="-89.4" font-family="Times,serif" font-size="10.00">owner</text>
<text text-anchor="middle" x="1304.82" y="-113.72" font-family="Times,serif" font-size="10.00">account</text>
</g>
<!-- 8a633aa5_907c_4e57_a313_22e0adb2672e&#45;&gt;c1 -->
<g id="edge19" class="edge">
<title>8a633aa5_907c_4e57_a313_22e0adb2672e&#45;&gt;c1</title>
<path fill="none" stroke="black" d="M1198,-121.91C1162.73,-101.55 1124.58,-79.54 1097.86,-64.12"/>
<text text-anchor="middle" x="1115.86" y="-67.12" font-family="Times,serif" font-size="10.00">currency</text>
</g>
<!-- 7ec351d6_652f_4691_8e72_ea432d44a0c8&#45;&gt;e2f7bc4c_ef2a_466e_b8a5_d24f48b13afe -->
<g id="edge22" class="edge">
<title>7ec351d6_652f_4691_8e72_ea432d44a0c8&#45;&gt;e2f7bc4c_ef2a_466e_b8a5_d24f48b13afe</title>
<path fill="none" stroke="black" d="M838,-121.72C838,-109.96 838,-97.66 838,-86.4"/>
<text text-anchor="middle" x="825" y="-89.4" font-family="Times,serif" font-size="10.00">owner</text>
<text text-anchor="middle" x="821.5" y="-113.72" font-family="Times,serif" font-size="10.00">account</text>
</g>
<!-- 7ec351d6_652f_4691_8e72_ea432d44a0c8&#45;&gt;c1 -->
<g id="edge21" class="edge">
<title>7ec351d6_652f_4691_8e72_ea432d44a0c8&#45;&gt;c1</title>
<path fill="none" stroke="black" d="M929.19,-121.91C964.15,-101.55 1001.96,-79.54 1028.44,-64.12"/>
<text text-anchor="middle" x="1010.44" y="-67.12" font-family="Times,serif" font-size="10.00">currency</text>
</g>
</g>
</svg>
