<?xml version="1.0" encoding="UTF-8" standalone="no"?>
<!DOCTYPE svg PUBLIC "-//W3C//DTD SVG 1.1//EN"
 "http://www.w3.org/Graphics/SVG/1.1/DTD/svg11.dtd">
<!-- Generated by graphviz version 2.43.0 (0)
 -->
<!-- Title: model Pages: 1 -->
<svg width="2233px" height="327px"
 viewBox="0.00 0.00 2233.00 327.00" xmlns="http://www.w3.org/2000/svg" xmlns:xlink="http://www.w3.org/1999/xlink">
<g id="graph0" class="graph" transform="scale(1.0 1.0) rotate(0) translate(4 323)">
<title>model</title>
<polygon fill="white" stroke="transparent" points="-4,4 -4,-323 2229,-323 2229,4 -4,4"/>
<!-- b -->
<g id="node1" class="node">
<title>b</title>
<polygon fill="none" stroke="black" points="147.5,-297.5 147.5,-314.5 809.5,-314.5 809.5,-297.5 147.5,-297.5"/>
<text text-anchor="start" x="462" y="-304.5" font-family="Times,serif" text-decoration="underline" font-size="10.00">b :Bank</text>
<polygon fill="none" stroke="black" points="147.5,-269.5 147.5,-297.5 809.5,-297.5 809.5,-269.5 147.5,-269.5"/>
<text text-anchor="start" x="150.5" y="-286.5" font-family="Times,serif" font-size="10.00">accountsMap = sendItToTheBank8a633aa5&#45;907c&#45;4e57&#45;a313&#45;22e0adb2672e7ec351d6&#45;652f&#45;4691&#45;8e72&#45;ea432d44a0c824928a4e&#45;9448&#45;4c93&#45;bd2b&#45;81d0cf93caec</text>
<text text-anchor="start" x="150.5" y="-275.5" font-family="Times,serif" font-size="10.00">customerMap = e2f7bc4c&#45;ef2a&#45;466e&#45;b8a5&#45;d24f48b13afe1eaf6f4c&#45;4f92&#45;4e04&#45;bd87&#45;c82be03265dea03ea285&#45;5c7b&#45;42a5&#45;aff3&#45;0c1052854bff</text>
</g>
<!-- sendItToTheBank -->
<g id="node3" class="node">
<title>sendItToTheBank</title>
<polygon fill="none" stroke="black" points="940.5,-209 940.5,-226 1089.5,-226 1089.5,-209 940.5,-209"/>
<text text-anchor="start" x="958" y="-216" font-family="Times,serif" text-decoration="underline" font-size="10.00">sendItToTheBank :Account</text>
<polygon fill="none" stroke="black" points="940.5,-126 940.5,-209 1089.5,-209 1089.5,-126 940.5,-126"/>
<text text-anchor="start" x="943.5" y="-198" font-family="Times,serif" font-size="10.00">balance = 69420.0</text>
<text text-anchor="start" x="943.5" y="-187" font-family="Times,serif" font-size="10.00">customerId = null</text>
<text text-anchor="start" x="943.5" y="-176" font-family="Times,serif" font-size="10.00">iban = &quot;EE823457754072050295&quot;</text>
<text text-anchor="start" x="943.5" y="-165" font-family="Times,serif" font-size="10.00">id = &quot;sendItToTheBank&quot;</text>
<text text-anchor="start" x="943.5" y="-154" font-family="Times,serif" font-size="10.00">receivedTransaction = </text>
<text text-anchor="start" x="943.5" y="-143" font-family="Times,serif" font-size="10.00">sentTransaction = </text>
<text text-anchor="start" x="943.5" y="-132" font-family="Times,serif" font-size="10.00">status = &quot;ACTIVE&quot;</text>
</g>
<!-- b&#45;&gt;sendItToTheBank -->
<g id="edge1" class="edge">
<title>b&#45;&gt;sendItToTheBank</title>
<path fill="none" stroke="black" d="M778.65,-265.97C827.48,-257.27 876.95,-245.61 922.5,-230 925.64,-228.92 928.79,-227.74 931.94,-226.46"/>
<text text-anchor="middle" x="903.94" y="-229.46" font-family="Times,serif" font-size="10.00">bankAccount</text>
<text text-anchor="middle" x="768.15" y="-257.97" font-family="Times,serif" font-size="10.00">bank</text>
</g>
<!-- 8a633aa5_907c_4e57_a313_22e0adb2672e -->
<g id="node4" class="node">
<title>8a633aa5_907c_4e57_a313_22e0adb2672e</title>
<polygon fill="none" stroke="black" points="667.5,-209 667.5,-226 905.5,-226 905.5,-209 667.5,-209"/>
<text text-anchor="start" x="679.5" y="-216" font-family="Times,serif" text-decoration="underline" font-size="10.00">8a633aa5&#45;907c&#45;4e57&#45;a313&#45;22e0adb2672e :Account</text>
<polygon fill="none" stroke="black" points="667.5,-126 667.5,-209 905.5,-209 905.5,-126 667.5,-126"/>
<text text-anchor="start" x="670.5" y="-198" font-family="Times,serif" font-size="10.00">balance = 0.0</text>
<text text-anchor="start" x="670.5" y="-187" font-family="Times,serif" font-size="10.00">customerId = &quot;1eaf6f4c&#45;4f92&#45;4e04&#45;bd87&#45;c82be03265de&quot;</text>
<text text-anchor="start" x="670.5" y="-176" font-family="Times,serif" font-size="10.00">iban = null</text>
<text text-anchor="start" x="670.5" y="-165" font-family="Times,serif" font-size="10.00">id = &quot;8a633aa5&#45;907c&#45;4e57&#45;a313&#45;22e0adb2672e&quot;</text>
<text text-anchor="start" x="670.5" y="-154" font-family="Times,serif" font-size="10.00">receivedTransaction = </text>
<text text-anchor="start" x="670.5" y="-143" font-family="Times,serif" font-size="10.00">sentTransaction = </text>
<text text-anchor="start" x="670.5" y="-132" font-family="Times,serif" font-size="10.00">status = &quot;ACTIVE&quot;</text>
</g>
<!-- b&#45;&gt;8a633aa5_907c_4e57_a313_22e0adb2672e -->
<g id="edge2" class="edge">
<title>b&#45;&gt;8a633aa5_907c_4e57_a313_22e0adb2672e</title>
<path fill="none" stroke="black" d="M548.42,-265.87C578.33,-254.87 613.65,-241.85 645.5,-230 650.03,-228.31 654.65,-226.59 659.31,-224.85"/>
<text text-anchor="middle" x="640.81" y="-227.85" font-family="Times,serif" font-size="10.00">accounts</text>
<text text-anchor="middle" x="537.92" y="-257.87" font-family="Times,serif" font-size="10.00">bank</text>
</g>
<!-- 7ec351d6_652f_4691_8e72_ea432d44a0c8 -->
<g id="node5" class="node">
<title>7ec351d6_652f_4691_8e72_ea432d44a0c8</title>
<polygon fill="none" stroke="black" points="361.5,-209 361.5,-226 595.5,-226 595.5,-209 361.5,-209"/>
<text text-anchor="start" x="371.5" y="-216" font-family="Times,serif" text-decoration="underline" font-size="10.00">7ec351d6&#45;652f&#45;4691&#45;8e72&#45;ea432d44a0c8 :Account</text>
<polygon fill="none" stroke="black" points="361.5,-126 361.5,-209 595.5,-209 595.5,-126 361.5,-126"/>
<text text-anchor="start" x="364.5" y="-198" font-family="Times,serif" font-size="10.00">balance = 100.0</text>
<text text-anchor="start" x="364.5" y="-187" font-family="Times,serif" font-size="10.00">customerId = &quot;e2f7bc4c&#45;ef2a&#45;466e&#45;b8a5&#45;d24f48b13afe&quot;</text>
<text text-anchor="start" x="364.5" y="-176" font-family="Times,serif" font-size="10.00">iban = null</text>
<text text-anchor="start" x="364.5" y="-165" font-family="Times,serif" font-size="10.00">id = &quot;7ec351d6&#45;652f&#45;4691&#45;8e72&#45;ea432d44a0c8&quot;</text>
<text text-anchor="start" x="364.5" y="-154" font-family="Times,serif" font-size="10.00">receivedTransaction = </text>
<text text-anchor="start" x="364.5" y="-143" font-family="Times,serif" font-size="10.00">sentTransaction = </text>
<text text-anchor="start" x="364.5" y="-132" font-family="Times,serif" font-size="10.00">status = &quot;ACTIVE&quot;</text>
</g>
<!-- b&#45;&gt;7ec351d6_652f_4691_8e72_ea432d44a0c8 -->
<g id="edge3" class="edge">
<title>b&#45;&gt;7ec351d6_652f_4691_8e72_ea432d44a0c8</title>
<path fill="none" stroke="black" d="M478.5,-265.8C478.5,-255.25 478.5,-242.63 478.5,-230.25"/>
<text text-anchor="middle" x="460" y="-233.25" font-family="Times,serif" font-size="10.00">accounts</text>
<text text-anchor="middle" x="468" y="-257.8" font-family="Times,serif" font-size="10.00">bank</text>
</g>
<!-- 24928a4e_9448_4c93_bd2b_81d0cf93caec -->
<g id="node6" class="node">
<title>24928a4e_9448_4c93_bd2b_81d0cf93caec</title>
<polygon fill="none" stroke="black" points="70.5,-209 70.5,-226 289.5,-226 289.5,-209 70.5,-209"/>
<text text-anchor="start" x="73.5" y="-216" font-family="Times,serif" text-decoration="underline" font-size="10.00">24928a4e&#45;9448&#45;4c93&#45;bd2b&#45;81d0cf93caec :Account</text>
<polygon fill="none" stroke="black" points="70.5,-126 70.5,-209 289.5,-209 289.5,-126 70.5,-126"/>
<text text-anchor="start" x="80.5" y="-198" font-family="Times,serif" font-size="10.00">balance = 100.0</text>
<text text-anchor="start" x="80.5" y="-187" font-family="Times,serif" font-size="10.00">customerId = null</text>
<text text-anchor="start" x="80.5" y="-176" font-family="Times,serif" font-size="10.00">iban = &quot;EE443156380570938784&quot;</text>
<text text-anchor="start" x="80.5" y="-165" font-family="Times,serif" font-size="10.00">id = &quot;24928a4e&#45;9448&#45;4c93&#45;bd2b&#45;81d0cf93caec&quot;</text>
<text text-anchor="start" x="80.5" y="-154" font-family="Times,serif" font-size="10.00">receivedTransaction = </text>
<text text-anchor="start" x="80.5" y="-143" font-family="Times,serif" font-size="10.00">sentTransaction = </text>
<text text-anchor="start" x="80.5" y="-132" font-family="Times,serif" font-size="10.00">status = &quot;ACTIVE&quot;</text>
</g>
<!-- b&#45;&gt;24928a4e_9448_4c93_bd2b_81d0cf93caec -->
<g id="edge4" class="edge">
<title>b&#45;&gt;24928a4e_9448_4c93_bd2b_81d0cf93caec</title>
<path fill="none" stroke="black" d="M407.64,-265.92C377.87,-255.04 342.93,-242.09 311.5,-230 306.78,-228.18 301.96,-226.32 297.1,-224.42"/>
<text text-anchor="middle" x="315.6" y="-227.42" font-family="Times,serif" font-size="10.00">accounts</text>
<text text-anchor="middle" x="397.14" y="-257.92" font-family="Times,serif" font-size="10.00">bank</text>
</g>
<!-- e2f7bc4c_ef2a_466e_b8a5_d24f48b13afe -->
<g id="node7" class="node">
<title>e2f7bc4c_ef2a_466e_b8a5_d24f48b13afe</title>
<polygon fill="none" stroke="black" points="280.5,-65 280.5,-82 495.5,-82 495.5,-65 280.5,-65"/>
<text text-anchor="start" x="283.5" y="-72" font-family="Times,serif" text-decoration="underline" font-size="10.00">e2f7bc4c&#45;ef2a&#45;466e&#45;b8a5&#45;d24f48b13afe :Customer</text>
<polygon fill="none" stroke="black" points="280.5,-4 280.5,-65 495.5,-65 495.5,-4 280.5,-4"/>
<text text-anchor="start" x="292.5" y="-54" font-family="Times,serif" font-size="10.00">email = &quot;john@doe.ee&quot;</text>
<text text-anchor="start" x="292.5" y="-43" font-family="Times,serif" font-size="10.00">firstName = &quot;John&quot;</text>
<text text-anchor="start" x="292.5" y="-32" font-family="Times,serif" font-size="10.00">id = &quot;e2f7bc4c&#45;ef2a&#45;466e&#45;b8a5&#45;d24f48b13afe&quot;</text>
<text text-anchor="start" x="292.5" y="-21" font-family="Times,serif" font-size="10.00">lastName = &quot;Doe&quot;</text>
<text text-anchor="start" x="292.5" y="-10" font-family="Times,serif" font-size="10.00">password = &quot;pass1234&quot;</text>
</g>
<!-- b&#45;&gt;e2f7bc4c_ef2a_466e_b8a5_d24f48b13afe -->
<g id="edge5" class="edge">
<title>b&#45;&gt;e2f7bc4c_ef2a_466e_b8a5_d24f48b13afe</title>
<path fill="none" stroke="black" d="M385.76,-265.9C369.4,-257.17 354.45,-245.51 344.5,-230 316.41,-186.2 338.95,-126.17 360.58,-86.28"/>
<text text-anchor="middle" x="340.08" y="-89.28" font-family="Times,serif" font-size="10.00">customers</text>
<text text-anchor="middle" x="375.26" y="-257.9" font-family="Times,serif" font-size="10.00">bank</text>
</g>
<!-- 1eaf6f4c_4f92_4e04_bd87_c82be03265de -->
<g id="node8" class="node">
<title>1eaf6f4c_4f92_4e04_bd87_c82be03265de</title>
<polygon fill="none" stroke="black" points="599.5,-65 599.5,-82 818.5,-82 818.5,-65 599.5,-65"/>
<text text-anchor="start" x="602.5" y="-72" font-family="Times,serif" text-decoration="underline" font-size="10.00">1eaf6f4c&#45;4f92&#45;4e04&#45;bd87&#45;c82be03265de :Customer</text>
<polygon fill="none" stroke="black" points="599.5,-4 599.5,-65 818.5,-65 818.5,-4 599.5,-4"/>
<text text-anchor="start" x="611.5" y="-54" font-family="Times,serif" font-size="10.00">email = &quot;bobby@tt.ee&quot;</text>
<text text-anchor="start" x="611.5" y="-43" font-family="Times,serif" font-size="10.00">firstName = &quot;Bob&quot;</text>
<text text-anchor="start" x="611.5" y="-32" font-family="Times,serif" font-size="10.00">id = &quot;1eaf6f4c&#45;4f92&#45;4e04&#45;bd87&#45;c82be03265de&quot;</text>
<text text-anchor="start" x="611.5" y="-21" font-family="Times,serif" font-size="10.00">lastName = &quot;Jackson&quot;</text>
<text text-anchor="start" x="611.5" y="-10" font-family="Times,serif" font-size="10.00">password = &quot;secret&quot;</text>
</g>
<!-- b&#45;&gt;1eaf6f4c_4f92_4e04_bd87_c82be03265de -->
<g id="edge6" class="edge">
<title>b&#45;&gt;1eaf6f4c_4f92_4e04_bd87_c82be03265de</title>
<path fill="none" stroke="black" d="M561.51,-265.88C580.21,-256.96 598.61,-245.22 612.5,-230 646.79,-192.4 626.6,-166.92 650.5,-122 657,-109.78 665.28,-97.39 673.55,-86.19"/>
<text text-anchor="middle" x="653.05" y="-89.19" font-family="Times,serif" font-size="10.00">customers</text>
<text text-anchor="middle" x="572.01" y="-257.88" font-family="Times,serif" font-size="10.00">bank</text>
</g>
<!-- a03ea285_5c7b_42a5_aff3_0c1052854bff -->
<g id="node9" class="node">
<title>a03ea285_5c7b_42a5_aff3_0c1052854bff</title>
<polygon fill="none" stroke="black" points="8.5,-65 8.5,-82 225.5,-82 225.5,-65 8.5,-65"/>
<text text-anchor="start" x="11.5" y="-72" font-family="Times,serif" text-decoration="underline" font-size="10.00">a03ea285&#45;5c7b&#45;42a5&#45;aff3&#45;0c1052854bff :Customer</text>
<polygon fill="none" stroke="black" points="8.5,-4 8.5,-65 225.5,-65 225.5,-4 8.5,-4"/>
<text text-anchor="start" x="20.5" y="-54" font-family="Times,serif" font-size="10.00">email = &quot;johntest@doe.ee&quot;</text>
<text text-anchor="start" x="20.5" y="-43" font-family="Times,serif" font-size="10.00">firstName = &quot;johntest&quot;</text>
<text text-anchor="start" x="20.5" y="-32" font-family="Times,serif" font-size="10.00">id = &quot;a03ea285&#45;5c7b&#45;42a5&#45;aff3&#45;0c1052854bff&quot;</text>
<text text-anchor="start" x="20.5" y="-21" font-family="Times,serif" font-size="10.00">lastName = &quot;Doe&quot;</text>
<text text-anchor="start" x="20.5" y="-10" font-family="Times,serif" font-size="10.00">password = &quot;pass1234&quot;</text>
</g>
<!-- b&#45;&gt;a03ea285_5c7b_42a5_aff3_0c1052854bff -->
<g id="edge7" class="edge">
<title>b&#45;&gt;a03ea285_5c7b_42a5_aff3_0c1052854bff</title>
<path fill="none" stroke="black" d="M139.01,-268.69C99.16,-259.64 67.36,-247.16 52.5,-230 21.08,-193.71 36.33,-167.19 52.5,-122 57.1,-109.14 64.84,-96.87 73.38,-86.03"/>
<text text-anchor="middle" x="52.88" y="-89.03" font-family="Times,serif" font-size="10.00">customers</text>
<text text-anchor="middle" x="128.51" y="-271.69" font-family="Times,serif" font-size="10.00">bank</text>
</g>
<!-- b1 -->
<g id="node2" class="node">
<title>b1</title>
<polygon fill="none" stroke="black" points="1402.5,-297.5 1402.5,-314.5 2064.5,-314.5 2064.5,-297.5 1402.5,-297.5"/>
<text text-anchor="start" x="1714.5" y="-304.5" font-family="Times,serif" text-decoration="underline" font-size="10.00">b1 :Bank</text>
<polygon fill="none" stroke="black" points="1402.5,-269.5 1402.5,-297.5 2064.5,-297.5 2064.5,-269.5 1402.5,-269.5"/>
<text text-anchor="start" x="1405.5" y="-286.5" font-family="Times,serif" font-size="10.00">accountsMap = sendItToTheBank8a633aa5&#45;907c&#45;4e57&#45;a313&#45;22e0adb2672e351a88b5&#45;2490&#45;42ea&#45;854b&#45;91eacdf8dbea7ec351d6&#45;652f&#45;4691&#45;8e72&#45;ea432d44a0c8</text>
<text text-anchor="start" x="1405.5" y="-275.5" font-family="Times,serif" font-size="10.00">customerMap = 5fe8301e&#45;1c30&#45;49e2&#45;97a7&#45;0b1b0424df69e2f7bc4c&#45;ef2a&#45;466e&#45;b8a5&#45;d24f48b13afe1eaf6f4c&#45;4f92&#45;4e04&#45;bd87&#45;c82be03265de</text>
</g>
<!-- sendItToTheBank2 -->
<g id="node10" class="node">
<title>sendItToTheBank2</title>
<polygon fill="none" stroke="black" points="1123.5,-209 1123.5,-226 1272.5,-226 1272.5,-209 1123.5,-209"/>
<text text-anchor="start" x="1141" y="-216" font-family="Times,serif" text-decoration="underline" font-size="10.00">sendItToTheBank :Account</text>
<polygon fill="none" stroke="black" points="1123.5,-126 1123.5,-209 1272.5,-209 1272.5,-126 1123.5,-126"/>
<text text-anchor="start" x="1126.5" y="-198" font-family="Times,serif" font-size="10.00">balance = 69420.0</text>
<text text-anchor="start" x="1126.5" y="-187" font-family="Times,serif" font-size="10.00">customerId = null</text>
<text text-anchor="start" x="1126.5" y="-176" font-family="Times,serif" font-size="10.00">iban = &quot;EE103148836775525131&quot;</text>
<text text-anchor="start" x="1126.5" y="-165" font-family="Times,serif" font-size="10.00">id = &quot;sendItToTheBank&quot;</text>
<text text-anchor="start" x="1126.5" y="-154" font-family="Times,serif" font-size="10.00">receivedTransaction = </text>
<text text-anchor="start" x="1126.5" y="-143" font-family="Times,serif" font-size="10.00">sentTransaction = </text>
<text text-anchor="start" x="1126.5" y="-132" font-family="Times,serif" font-size="10.00">status = &quot;ACTIVE&quot;</text>
</g>
<!-- b1&#45;&gt;sendItToTheBank2 -->
<g id="edge8" class="edge">
<title>b1&#45;&gt;sendItToTheBank2</title>
<path fill="none" stroke="black" d="M1433.35,-265.97C1384.52,-257.27 1335.05,-245.61 1289.5,-230 1286.36,-228.92 1283.21,-227.74 1280.06,-226.46"/>
<text text-anchor="middle" x="1308.06" y="-229.46" font-family="Times,serif" font-size="10.00">bankAccount</text>
<text text-anchor="middle" x="1422.85" y="-257.97" font-family="Times,serif" font-size="10.00">bank</text>
</g>
<!-- 8a633aa5_907c_4e57_a313_22e0adb2672e3 -->
<g id="node11" class="node">
<title>8a633aa5_907c_4e57_a313_22e0adb2672e3</title>
<polygon fill="none" stroke="black" points="1306.5,-209 1306.5,-226 1544.5,-226 1544.5,-209 1306.5,-209"/>
<text text-anchor="start" x="1318.5" y="-216" font-family="Times,serif" text-decoration="underline" font-size="10.00">8a633aa5&#45;907c&#45;4e57&#45;a313&#45;22e0adb2672e :Account</text>
<polygon fill="none" stroke="black" points="1306.5,-126 1306.5,-209 1544.5,-209 1544.5,-126 1306.5,-126"/>
<text text-anchor="start" x="1309.5" y="-198" font-family="Times,serif" font-size="10.00">balance = 0.0</text>
<text text-anchor="start" x="1309.5" y="-187" font-family="Times,serif" font-size="10.00">customerId = &quot;1eaf6f4c&#45;4f92&#45;4e04&#45;bd87&#45;c82be03265de&quot;</text>
<text text-anchor="start" x="1309.5" y="-176" font-family="Times,serif" font-size="10.00">iban = null</text>
<text text-anchor="start" x="1309.5" y="-165" font-family="Times,serif" font-size="10.00">id = &quot;8a633aa5&#45;907c&#45;4e57&#45;a313&#45;22e0adb2672e&quot;</text>
<text text-anchor="start" x="1309.5" y="-154" font-family="Times,serif" font-size="10.00">receivedTransaction = </text>
<text text-anchor="start" x="1309.5" y="-143" font-family="Times,serif" font-size="10.00">sentTransaction = </text>
<text text-anchor="start" x="1309.5" y="-132" font-family="Times,serif" font-size="10.00">status = &quot;ACTIVE&quot;</text>
</g>
<!-- b1&#45;&gt;8a633aa5_907c_4e57_a313_22e0adb2672e3 -->
<g id="edge9" class="edge">
<title>b1&#45;&gt;8a633aa5_907c_4e57_a313_22e0adb2672e3</title>
<path fill="none" stroke="black" d="M1663.58,-265.87C1633.67,-254.87 1598.35,-241.85 1566.5,-230 1561.97,-228.31 1557.35,-226.59 1552.69,-224.85"/>
<text text-anchor="middle" x="1571.19" y="-227.85" font-family="Times,serif" font-size="10.00">accounts</text>
<text text-anchor="middle" x="1653.08" y="-257.87" font-family="Times,serif" font-size="10.00">bank</text>
</g>
<!-- 7ec351d6_652f_4691_8e72_ea432d44a0c84 -->
<g id="node12" class="node">
<title>7ec351d6_652f_4691_8e72_ea432d44a0c84</title>
<polygon fill="none" stroke="black" points="1616.5,-209 1616.5,-226 1850.5,-226 1850.5,-209 1616.5,-209"/>
<text text-anchor="start" x="1626.5" y="-216" font-family="Times,serif" text-decoration="underline" font-size="10.00">7ec351d6&#45;652f&#45;4691&#45;8e72&#45;ea432d44a0c8 :Account</text>
<polygon fill="none" stroke="black" points="1616.5,-126 1616.5,-209 1850.5,-209 1850.5,-126 1616.5,-126"/>
<text text-anchor="start" x="1619.5" y="-198" font-family="Times,serif" font-size="10.00">balance = 100.0</text>
<text text-anchor="start" x="1619.5" y="-187" font-family="Times,serif" font-size="10.00">customerId = &quot;e2f7bc4c&#45;ef2a&#45;466e&#45;b8a5&#45;d24f48b13afe&quot;</text>
<text text-anchor="start" x="1619.5" y="-176" font-family="Times,serif" font-size="10.00">iban = null</text>
<text text-anchor="start" x="1619.5" y="-165" font-family="Times,serif" font-size="10.00">id = &quot;7ec351d6&#45;652f&#45;4691&#45;8e72&#45;ea432d44a0c8&quot;</text>
<text text-anchor="start" x="1619.5" y="-154" font-family="Times,serif" font-size="10.00">receivedTransaction = </text>
<text text-anchor="start" x="1619.5" y="-143" font-family="Times,serif" font-size="10.00">sentTransaction = </text>
<text text-anchor="start" x="1619.5" y="-132" font-family="Times,serif" font-size="10.00">status = &quot;ACTIVE&quot;</text>
</g>
<!-- b1&#45;&gt;7ec351d6_652f_4691_8e72_ea432d44a0c84 -->
<g id="edge10" class="edge">
<title>b1&#45;&gt;7ec351d6_652f_4691_8e72_ea432d44a0c84</title>
<path fill="none" stroke="black" d="M1733.5,-265.8C1733.5,-255.25 1733.5,-242.63 1733.5,-230.25"/>
<text text-anchor="middle" x="1715" y="-233.25" font-family="Times,serif" font-size="10.00">accounts</text>
<text text-anchor="middle" x="1723" y="-257.8" font-family="Times,serif" font-size="10.00">bank</text>
</g>
<!-- 351a88b5_2490_42ea_854b_91eacdf8dbea -->
<g id="node13" class="node">
<title>351a88b5_2490_42ea_854b_91eacdf8dbea</title>
<polygon fill="none" stroke="black" points="1923.5,-209 1923.5,-226 2142.5,-226 2142.5,-209 1923.5,-209"/>
<text text-anchor="start" x="1926.5" y="-216" font-family="Times,serif" text-decoration="underline" font-size="10.00">351a88b5&#45;2490&#45;42ea&#45;854b&#45;91eacdf8dbea :Account</text>
<polygon fill="none" stroke="black" points="1923.5,-126 1923.5,-209 2142.5,-209 2142.5,-126 1923.5,-126"/>
<text text-anchor="start" x="1933.5" y="-198" font-family="Times,serif" font-size="10.00">balance = 0.0</text>
<text text-anchor="start" x="1933.5" y="-187" font-family="Times,serif" font-size="10.00">customerId = null</text>
<text text-anchor="start" x="1933.5" y="-176" font-family="Times,serif" font-size="10.00">iban = &quot;EE748768641447773535&quot;</text>
<text text-anchor="start" x="1933.5" y="-165" font-family="Times,serif" font-size="10.00">id = &quot;351a88b5&#45;2490&#45;42ea&#45;854b&#45;91eacdf8dbea&quot;</text>
<text text-anchor="start" x="1933.5" y="-154" font-family="Times,serif" font-size="10.00">receivedTransaction = </text>
<text text-anchor="start" x="1933.5" y="-143" font-family="Times,serif" font-size="10.00">sentTransaction = </text>
<text text-anchor="start" x="1933.5" y="-132" font-family="Times,serif" font-size="10.00">status = &quot;ACTIVE&quot;</text>
</g>
<!-- b1&#45;&gt;351a88b5_2490_42ea_854b_91eacdf8dbea -->
<g id="edge11" class="edge">
<title>b1&#45;&gt;351a88b5_2490_42ea_854b_91eacdf8dbea</title>
<path fill="none" stroke="black" d="M1804.36,-265.92C1834.13,-255.04 1869.07,-242.09 1900.5,-230 1905.22,-228.18 1910.04,-226.32 1914.9,-224.42"/>
<text text-anchor="middle" x="1896.4" y="-227.42" font-family="Times,serif" font-size="10.00">accounts</text>
<text text-anchor="middle" x="1793.86" y="-257.92" font-family="Times,serif" font-size="10.00">bank</text>
</g>
<!-- e2f7bc4c_ef2a_466e_b8a5_d24f48b13afe5 -->
<g id="node14" class="node">
<title>e2f7bc4c_ef2a_466e_b8a5_d24f48b13afe5</title>
<polygon fill="none" stroke="black" points="1649.5,-65 1649.5,-82 1864.5,-82 1864.5,-65 1649.5,-65"/>
<text text-anchor="start" x="1652.5" y="-72" font-family="Times,serif" text-decoration="underline" font-size="10.00">e2f7bc4c&#45;ef2a&#45;466e&#45;b8a5&#45;d24f48b13afe :Customer</text>
<polygon fill="none" stroke="black" points="1649.5,-4 1649.5,-65 1864.5,-65 1864.5,-4 1649.5,-4"/>
<text text-anchor="start" x="1661.5" y="-54" font-family="Times,serif" font-size="10.00">email = &quot;john@doe.ee&quot;</text>
<text text-anchor="start" x="1661.5" y="-43" font-family="Times,serif" font-size="10.00">firstName = &quot;John&quot;</text>
<text text-anchor="start" x="1661.5" y="-32" font-family="Times,serif" font-size="10.00">id = &quot;e2f7bc4c&#45;ef2a&#45;466e&#45;b8a5&#45;d24f48b13afe&quot;</text>
<text text-anchor="start" x="1661.5" y="-21" font-family="Times,serif" font-size="10.00">lastName = &quot;Doe&quot;</text>
<text text-anchor="start" x="1661.5" y="-10" font-family="Times,serif" font-size="10.00">password = &quot;pass1234&quot;</text>
</g>
<!-- b1&#45;&gt;e2f7bc4c_ef2a_466e_b8a5_d24f48b13afe5 -->
<g id="edge12" class="edge">
<title>b1&#45;&gt;e2f7bc4c_ef2a_466e_b8a5_d24f48b13afe5</title>
<path fill="none" stroke="black" d="M1826.24,-265.9C1842.6,-257.17 1857.55,-245.51 1867.5,-230 1893.41,-189.6 1889.63,-164.6 1867.5,-122 1860.28,-108.1 1849.32,-96.16 1837.05,-86.1"/>
<text text-anchor="middle" x="1816.55" y="-89.1" font-family="Times,serif" font-size="10.00">customers</text>
<text text-anchor="middle" x="1815.74" y="-257.9" font-family="Times,serif" font-size="10.00">bank</text>
</g>
<!-- 1eaf6f4c_4f92_4e04_bd87_c82be03265de6 -->
<g id="node15" class="node">
<title>1eaf6f4c_4f92_4e04_bd87_c82be03265de6</title>
<polygon fill="none" stroke="black" points="1344.5,-65 1344.5,-82 1563.5,-82 1563.5,-65 1344.5,-65"/>
<text text-anchor="start" x="1347.5" y="-72" font-family="Times,serif" text-decoration="underline" font-size="10.00">1eaf6f4c&#45;4f92&#45;4e04&#45;bd87&#45;c82be03265de :Customer</text>
<polygon fill="none" stroke="black" points="1344.5,-4 1344.5,-65 1563.5,-65 1563.5,-4 1344.5,-4"/>
<text text-anchor="start" x="1356.5" y="-54" font-family="Times,serif" font-size="10.00">email = &quot;bobby@tt.ee&quot;</text>
<text text-anchor="start" x="1356.5" y="-43" font-family="Times,serif" font-size="10.00">firstName = &quot;Bob&quot;</text>
<text text-anchor="start" x="1356.5" y="-32" font-family="Times,serif" font-size="10.00">id = &quot;1eaf6f4c&#45;4f92&#45;4e04&#45;bd87&#45;c82be03265de&quot;</text>
<text text-anchor="start" x="1356.5" y="-21" font-family="Times,serif" font-size="10.00">lastName = &quot;Jackson&quot;</text>
<text text-anchor="start" x="1356.5" y="-10" font-family="Times,serif" font-size="10.00">password = &quot;secret&quot;</text>
</g>
<!-- b1&#45;&gt;1eaf6f4c_4f92_4e04_bd87_c82be03265de6 -->
<g id="edge13" class="edge">
<title>b1&#45;&gt;1eaf6f4c_4f92_4e04_bd87_c82be03265de6</title>
<path fill="none" stroke="black" d="M1650.49,-265.88C1631.79,-256.96 1613.39,-245.22 1599.5,-230 1565.21,-192.4 1591.96,-162.76 1561.5,-122 1551.46,-108.57 1538.45,-96.49 1524.95,-86.07"/>
<text text-anchor="middle" x="1504.45" y="-89.07" font-family="Times,serif" font-size="10.00">customers</text>
<text text-anchor="middle" x="1639.99" y="-257.88" font-family="Times,serif" font-size="10.00">bank</text>
</g>
<!-- 5fe8301e_1c30_49e2_97a7_0b1b0424df69 -->
<g id="node16" class="node">
<title>5fe8301e_1c30_49e2_97a7_0b1b0424df69</title>
<polygon fill="none" stroke="black" points="1994.5,-65 1994.5,-82 2217.5,-82 2217.5,-65 1994.5,-65"/>
<text text-anchor="start" x="1997.5" y="-72" font-family="Times,serif" text-decoration="underline" font-size="10.00">5fe8301e&#45;1c30&#45;49e2&#45;97a7&#45;0b1b0424df69 :Customer</text>
<polygon fill="none" stroke="black" points="1994.5,-4 1994.5,-65 2217.5,-65 2217.5,-4 1994.5,-4"/>
<text text-anchor="start" x="2006.5" y="-54" font-family="Times,serif" font-size="10.00">email = &quot;bobbytest@tt.ee&quot;</text>
<text text-anchor="start" x="2006.5" y="-43" font-family="Times,serif" font-size="10.00">firstName = &quot;Bob&quot;</text>
<text text-anchor="start" x="2006.5" y="-32" font-family="Times,serif" font-size="10.00">id = &quot;5fe8301e&#45;1c30&#45;49e2&#45;97a7&#45;0b1b0424df69&quot;</text>
<text text-anchor="start" x="2006.5" y="-21" font-family="Times,serif" font-size="10.00">lastName = &quot;Jackson&quot;</text>
<text text-anchor="start" x="2006.5" y="-10" font-family="Times,serif" font-size="10.00">password = &quot;secret&quot;</text>
</g>
<!-- b1&#45;&gt;5fe8301e_1c30_49e2_97a7_0b1b0424df69 -->
<g id="edge14" class="edge">
<title>b1&#45;&gt;5fe8301e_1c30_49e2_97a7_0b1b0424df69</title>
<path fill="none" stroke="black" d="M2072.99,-268.69C2112.84,-259.64 2144.64,-247.16 2159.5,-230 2190.92,-193.71 2173.81,-167.82 2159.5,-122 2155.57,-109.42 2148.82,-97.09 2141.4,-86.08"/>
<text text-anchor="middle" x="2120.9" y="-89.08" font-family="Times,serif" font-size="10.00">customers</text>
<text text-anchor="middle" x="2083.49" y="-271.69" font-family="Times,serif" font-size="10.00">bank</text>
</g>
<!-- c -->
<g id="node17" class="node">
<title>c</title>
<polygon fill="none" stroke="black" points="1023.5,-43 1023.5,-60 1187.5,-60 1187.5,-43 1023.5,-43"/>
<text text-anchor="start" x="1081.5" y="-50" font-family="Times,serif" text-decoration="underline" font-size="10.00">c :Currency</text>
<polygon fill="none" stroke="black" points="1023.5,-26 1023.5,-43 1187.5,-43 1187.5,-26 1023.5,-26"/>
<text text-anchor="start" x="1026.5" y="-32" font-family="Times,serif" font-size="10.00">declaringClass = class model.Currency</text>
</g>
<!-- sendItToTheBank&#45;&gt;c -->
<g id="edge15" class="edge">
<title>sendItToTheBank&#45;&gt;c</title>
<path fill="none" stroke="black" d="M1051.51,-121.72C1065.59,-101.46 1080.78,-79.58 1091.46,-64.22"/>
<text text-anchor="middle" x="1073.46" y="-67.22" font-family="Times,serif" font-size="10.00">currency</text>
</g>
<!-- 8a633aa5_907c_4e57_a313_22e0adb2672e&#45;&gt;1eaf6f4c_4f92_4e04_bd87_c82be03265de -->
<g id="edge17" class="edge">
<title>8a633aa5_907c_4e57_a313_22e0adb2672e&#45;&gt;1eaf6f4c_4f92_4e04_bd87_c82be03265de</title>
<path fill="none" stroke="black" d="M754.77,-121.72C747.77,-109.96 740.45,-97.66 733.74,-86.4"/>
<text text-anchor="middle" x="720.74" y="-89.4" font-family="Times,serif" font-size="10.00">owner</text>
<text text-anchor="middle" x="738.27" y="-113.72" font-family="Times,serif" font-size="10.00">account</text>
</g>
<!-- 8a633aa5_907c_4e57_a313_22e0adb2672e&#45;&gt;c -->
<g id="edge16" class="edge">
<title>8a633aa5_907c_4e57_a313_22e0adb2672e&#45;&gt;c</title>
<path fill="none" stroke="black" d="M913.95,-122.66C964.11,-102.06 1018.67,-79.66 1056.69,-64.05"/>
<text text-anchor="middle" x="1038.69" y="-67.05" font-family="Times,serif" font-size="10.00">currency</text>
</g>
<!-- 7ec351d6_652f_4691_8e72_ea432d44a0c8&#45;&gt;e2f7bc4c_ef2a_466e_b8a5_d24f48b13afe -->
<g id="edge19" class="edge">
<title>7ec351d6_652f_4691_8e72_ea432d44a0c8&#45;&gt;e2f7bc4c_ef2a_466e_b8a5_d24f48b13afe</title>
<path fill="none" stroke="black" d="M441.49,-121.72C433.32,-109.96 424.77,-97.66 416.95,-86.4"/>
<text text-anchor="middle" x="403.95" y="-89.4" font-family="Times,serif" font-size="10.00">owner</text>
<text text-anchor="middle" x="424.99" y="-113.72" font-family="Times,serif" font-size="10.00">account</text>
</g>
<!-- 7ec351d6_652f_4691_8e72_ea432d44a0c8&#45;&gt;c -->
<g id="edge18" class="edge">
<title>7ec351d6_652f_4691_8e72_ea432d44a0c8&#45;&gt;c</title>
<path fill="none" stroke="black" d="M603.86,-134.32C619.48,-129.86 635.3,-125.63 650.5,-122 718.13,-105.86 903.08,-75.77 1015.26,-58.05"/>
<text text-anchor="middle" x="997.26" y="-61.05" font-family="Times,serif" font-size="10.00">currency</text>
</g>
<!-- 24928a4e_9448_4c93_bd2b_81d0cf93caec&#45;&gt;a03ea285_5c7b_42a5_aff3_0c1052854bff -->
<g id="edge21" class="edge">
<title>24928a4e_9448_4c93_bd2b_81d0cf93caec&#45;&gt;a03ea285_5c7b_42a5_aff3_0c1052854bff</title>
<path fill="none" stroke="black" d="M153.88,-121.72C148.22,-109.96 142.3,-97.66 136.89,-86.4"/>
<text text-anchor="middle" x="123.89" y="-89.4" font-family="Times,serif" font-size="10.00">owner</text>
<text text-anchor="middle" x="137.38" y="-113.72" font-family="Times,serif" font-size="10.00">account</text>
</g>
<!-- 24928a4e_9448_4c93_bd2b_81d0cf93caec&#45;&gt;c -->
<g id="edge20" class="edge">
<title>24928a4e_9448_4c93_bd2b_81d0cf93caec&#45;&gt;c</title>
<path fill="none" stroke="black" d="M297.13,-133.49C312.91,-129.02 328.99,-125.02 344.5,-122 558.85,-80.32 617.54,-110.74 834.5,-86 895.05,-79.1 962.8,-68.6 1015.41,-59.82"/>
<text text-anchor="middle" x="997.41" y="-51.82" font-family="Times,serif" font-size="10.00">currency</text>
</g>
<!-- sendItToTheBank2&#45;&gt;c -->
<g id="edge22" class="edge">
<title>sendItToTheBank2&#45;&gt;c</title>
<path fill="none" stroke="black" d="M1160.08,-121.72C1145.85,-101.46 1130.49,-79.58 1119.7,-64.22"/>
<text text-anchor="middle" x="1137.7" y="-67.22" font-family="Times,serif" font-size="10.00">currency</text>
</g>
<!-- 8a633aa5_907c_4e57_a313_22e0adb2672e3&#45;&gt;1eaf6f4c_4f92_4e04_bd87_c82be03265de6 -->
<g id="edge24" class="edge">
<title>8a633aa5_907c_4e57_a313_22e0adb2672e3&#45;&gt;1eaf6f4c_4f92_4e04_bd87_c82be03265de6</title>
<path fill="none" stroke="black" d="M1436.89,-121.72C1439.4,-109.96 1442.03,-97.66 1444.44,-86.4"/>
<text text-anchor="middle" x="1431.44" y="-89.4" font-family="Times,serif" font-size="10.00">owner</text>
<text text-anchor="middle" x="1420.39" y="-113.72" font-family="Times,serif" font-size="10.00">account</text>
</g>
<!-- 8a633aa5_907c_4e57_a313_22e0adb2672e3&#45;&gt;c -->
<g id="edge23" class="edge">
<title>8a633aa5_907c_4e57_a313_22e0adb2672e3&#45;&gt;c</title>
<path fill="none" stroke="black" d="M1298.11,-122.85C1247.74,-102.23 1192.86,-79.76 1154.62,-64.11"/>
<text text-anchor="middle" x="1172.62" y="-67.11" font-family="Times,serif" font-size="10.00">currency</text>
</g>
<!-- 7ec351d6_652f_4691_8e72_ea432d44a0c84&#45;&gt;e2f7bc4c_ef2a_466e_b8a5_d24f48b13afe5 -->
<g id="edge26" class="edge">
<title>7ec351d6_652f_4691_8e72_ea432d44a0c84&#45;&gt;e2f7bc4c_ef2a_466e_b8a5_d24f48b13afe5</title>
<path fill="none" stroke="black" d="M1742.85,-121.72C1744.92,-109.96 1747.08,-97.66 1749.06,-86.4"/>
<text text-anchor="middle" x="1736.06" y="-89.4" font-family="Times,serif" font-size="10.00">owner</text>
<text text-anchor="middle" x="1726.35" y="-113.72" font-family="Times,serif" font-size="10.00">account</text>
</g>
<!-- 7ec351d6_652f_4691_8e72_ea432d44a0c84&#45;&gt;c -->
<g id="edge25" class="edge">
<title>7ec351d6_652f_4691_8e72_ea432d44a0c84&#45;&gt;c</title>
<path fill="none" stroke="black" d="M1608.2,-134.06C1592.57,-129.64 1576.73,-125.49 1561.5,-122 1458.51,-98.38 1430.64,-103.87 1326.5,-86 1283.39,-78.6 1235.7,-69.64 1195.69,-61.9"/>
<text text-anchor="middle" x="1213.69" y="-53.9" font-family="Times,serif" font-size="10.00">currency</text>
</g>
<!-- 351a88b5_2490_42ea_854b_91eacdf8dbea&#45;&gt;5fe8301e_1c30_49e2_97a7_0b1b0424df69 -->
<g id="edge28" class="edge">
<title>351a88b5_2490_42ea_854b_91eacdf8dbea&#45;&gt;5fe8301e_1c30_49e2_97a7_0b1b0424df69</title>
<path fill="none" stroke="black" d="M2062.19,-121.72C2068.74,-109.96 2075.6,-97.66 2081.87,-86.4"/>
<text text-anchor="middle" x="2068.87" y="-89.4" font-family="Times,serif" font-size="10.00">owner</text>
<text text-anchor="middle" x="2045.69" y="-113.72" font-family="Times,serif" font-size="10.00">account</text>
</g>
<!-- 351a88b5_2490_42ea_854b_91eacdf8dbea&#45;&gt;c -->
<g id="edge27" class="edge">
<title>351a88b5_2490_42ea_854b_91eacdf8dbea&#45;&gt;c</title>
<path fill="none" stroke="black" d="M1914.89,-133.39C1899.11,-128.94 1883.02,-124.96 1867.5,-122 1630.8,-76.82 1565.53,-116.55 1326.5,-86 1283.21,-80.47 1235.6,-71.76 1195.69,-63.71"/>
<text text-anchor="middle" x="1213.69" y="-66.71" font-family="Times,serif" font-size="10.00">currency</text>
</g>
</g>
</svg>
