<?xml version="1.0" encoding="UTF-8" standalone="no"?>
<!DOCTYPE svg PUBLIC "-//W3C//DTD SVG 1.1//EN"
 "http://www.w3.org/Graphics/SVG/1.1/DTD/svg11.dtd">
<!-- Generated by graphviz version 2.49.3 (20211023.0002)
 -->
<!-- Pages: 1 -->
<svg width="587px" height="383px"
 viewBox="0.00 0.00 586.79 383.00" xmlns="http://www.w3.org/2000/svg" xmlns:xlink="http://www.w3.org/1999/xlink">
<g id="graph0" class="graph" transform="scale(1.0 1.0) rotate(0) translate(4 379)">
<polygon fill="white" stroke="transparent" points="-4,4 -4,-379 582.79,-379 582.79,4 -4,4"/>
<!-- 93f238f3_08d4_47f6_af63_32639481a4ef -->
<g id="node1" class="node">
<title>93f238f3_08d4_47f6_af63_32639481a4ef</title>
<polygon fill="none" stroke="black" points="152.79,-354 152.79,-371 425.79,-371 425.79,-354 152.79,-354"/>
<text text-anchor="start" x="181.29" y="-361" font-family="Times,serif" text-decoration="underline" font-size="10.00">93f238f3&#45;08d4&#45;47f6&#45;af63&#45;32639481a4ef :Transaction</text>
<polygon fill="none" stroke="black" points="152.79,-293 152.79,-354 425.79,-354 425.79,-293 152.79,-293"/>
<text text-anchor="start" x="155.79" y="-343" font-family="Times,serif" font-size="10.00">amount = 50.0</text>
<text text-anchor="start" x="155.79" y="-332" font-family="Times,serif" font-size="10.00">description = &quot;Expensive fee&quot;</text>
<text text-anchor="start" x="155.79" y="-321" font-family="Times,serif" font-size="10.00">id = &quot;93f238f3&#45;08d4&#45;47f6&#45;af63&#45;32639481a4ef&quot;</text>
<text text-anchor="start" x="155.79" y="-310" font-family="Times,serif" font-size="10.00">rejectionDescription = &quot;Not enough money on the source account&quot;</text>
<text text-anchor="start" x="155.79" y="-299" font-family="Times,serif" font-size="10.00">timestamp = 2021&#45;11&#45;27T18:54:59.311969</text>
</g>
<!-- b -->
<g id="node2" class="node">
<title>b</title>
<polygon fill="none" stroke="black" points="324.79,-226 324.79,-243 362.79,-243 362.79,-226 324.79,-226"/>
<text text-anchor="start" x="327.79" y="-233" font-family="Times,serif" text-decoration="underline" font-size="10.00">b :Bank</text>
<polygon fill="none" stroke="black" points="324.79,-220 324.79,-226 362.79,-226 362.79,-220 324.79,-220"/>
</g>
<!-- 93f238f3_08d4_47f6_af63_32639481a4ef&#45;&gt;b -->
<g id="edge1" class="edge">
<title>93f238f3_08d4_47f6_af63_32639481a4ef&#45;&gt;b</title>
<path fill="none" stroke="black" d="M312.44,-288.87C320.01,-275.38 327.97,-261.19 333.98,-250.48"/>
<text text-anchor="middle" x="323.98" y="-253.48" font-family="Times,serif" font-size="10.00">bank</text>
<text text-anchor="middle" x="288.44" y="-280.87" font-family="Times,serif" font-size="10.00">transactions</text>
</g>
<!-- c -->
<g id="node3" class="node">
<title>c</title>
<polygon fill="none" stroke="black" points="66.79,-43 66.79,-60 201.79,-60 201.79,-43 66.79,-43"/>
<text text-anchor="start" x="110.79" y="-50" font-family="Times,serif" text-decoration="underline" font-size="10.00">c :Currency</text>
<polygon fill="none" stroke="black" points="66.79,-26 66.79,-43 201.79,-43 201.79,-26 66.79,-26"/>
<text text-anchor="start" x="69.79" y="-32" font-family="Times,serif" font-size="10.00">declaringClass = class Currency</text>
</g>
<!-- 93f238f3_08d4_47f6_af63_32639481a4ef&#45;&gt;c -->
<g id="edge2" class="edge">
<title>93f238f3_08d4_47f6_af63_32639481a4ef&#45;&gt;c</title>
<path fill="none" stroke="black" d="M151.55,-288.97C97.14,-264.82 40.15,-228.37 8.79,-175 -3.14,-154.69 -2.63,-142.6 8.79,-122 23.62,-95.27 51.84,-76.5 77.72,-64.08"/>
<text text-anchor="middle" x="60.22" y="-67.08" font-family="Times,serif" font-size="10.00">currency</text>
</g>
<!-- 9488de34_6feb_44bb_97b4_a7617eb7a053 -->
<g id="node4" class="node">
<title>9488de34_6feb_44bb_97b4_a7617eb7a053</title>
<polygon fill="none" stroke="black" points="26.79,-153.5 26.79,-170.5 241.79,-170.5 241.79,-153.5 26.79,-153.5"/>
<text text-anchor="start" x="29.79" y="-160.5" font-family="Times,serif" text-decoration="underline" font-size="10.00">9488de34&#45;6feb&#45;44bb&#45;97b4&#45;a7617eb7a053 :Account</text>
<polygon fill="none" stroke="black" points="26.79,-125.5 26.79,-153.5 241.79,-153.5 241.79,-125.5 26.79,-125.5"/>
<text text-anchor="start" x="36.29" y="-142.5" font-family="Times,serif" font-size="10.00">balance = 69420.0</text>
<text text-anchor="start" x="36.29" y="-131.5" font-family="Times,serif" font-size="10.00">id = &quot;9488de34&#45;6feb&#45;44bb&#45;97b4&#45;a7617eb7a053&quot;</text>
</g>
<!-- 93f238f3_08d4_47f6_af63_32639481a4ef&#45;&gt;9488de34_6feb_44bb_97b4_a7617eb7a053 -->
<g id="edge3" class="edge">
<title>93f238f3_08d4_47f6_af63_32639481a4ef&#45;&gt;9488de34_6feb_44bb_97b4_a7617eb7a053</title>
<path fill="none" stroke="black" d="M252.84,-288.9C222.79,-253.72 180.91,-204.68 155.67,-175.12"/>
<text text-anchor="middle" x="133.67" y="-178.12" font-family="Times,serif" font-size="10.00">destination</text>
</g>
<!-- ca998ee3_e363_4831_9865_d67e667ca4b3 -->
<g id="node5" class="node">
<title>ca998ee3_e363_4831_9865_d67e667ca4b3</title>
<polygon fill="none" stroke="black" points="275.79,-153.5 275.79,-170.5 489.79,-170.5 489.79,-153.5 275.79,-153.5"/>
<text text-anchor="start" x="278.79" y="-160.5" font-family="Times,serif" text-decoration="underline" font-size="10.00">ca998ee3&#45;e363&#45;4831&#45;9865&#45;d67e667ca4b3 :Account</text>
<polygon fill="none" stroke="black" points="275.79,-125.5 275.79,-153.5 489.79,-153.5 489.79,-125.5 275.79,-125.5"/>
<text text-anchor="start" x="284.79" y="-142.5" font-family="Times,serif" font-size="10.00">balance = 10.0</text>
<text text-anchor="start" x="284.79" y="-131.5" font-family="Times,serif" font-size="10.00">id = &quot;ca998ee3&#45;e363&#45;4831&#45;9865&#45;d67e667ca4b3&quot;</text>
</g>
<!-- 93f238f3_08d4_47f6_af63_32639481a4ef&#45;&gt;ca998ee3_e363_4831_9865_d67e667ca4b3 -->
<g id="edge4" class="edge">
<title>93f238f3_08d4_47f6_af63_32639481a4ef&#45;&gt;ca998ee3_e363_4831_9865_d67e667ca4b3</title>
<path fill="none" stroke="black" d="M288.21,-288.85C289.58,-264.66 294.31,-234.51 307.79,-211 315.83,-196.98 328.39,-184.82 340.94,-175.11"/>
<text text-anchor="middle" x="327.44" y="-178.11" font-family="Times,serif" font-size="10.00">source</text>
</g>
<!-- s -->
<g id="node6" class="node">
<title>s</title>
<polygon fill="none" stroke="black" points="396.79,-232 396.79,-249 570.79,-249 570.79,-232 396.79,-232"/>
<text text-anchor="start" x="466.79" y="-239" font-family="Times,serif" text-decoration="underline" font-size="10.00">s :Status</text>
<polygon fill="none" stroke="black" points="396.79,-215 396.79,-232 570.79,-232 570.79,-215 396.79,-215"/>
<text text-anchor="start" x="399.79" y="-221" font-family="Times,serif" font-size="10.00">declaringClass = class Transaction$Status</text>
</g>
<!-- 93f238f3_08d4_47f6_af63_32639481a4ef&#45;&gt;s -->
<g id="edge5" class="edge">
<title>93f238f3_08d4_47f6_af63_32639481a4ef&#45;&gt;s</title>
<path fill="none" stroke="black" d="M372.62,-288.87C397.4,-276.42 423.37,-263.37 443.98,-253.01"/>
<text text-anchor="middle" x="432.48" y="-256.01" font-family="Times,serif" font-size="10.00">status</text>
</g>
<!-- b&#45;&gt;9488de34_6feb_44bb_97b4_a7617eb7a053 -->
<g id="edge6" class="edge">
<title>b&#45;&gt;9488de34_6feb_44bb_97b4_a7617eb7a053</title>
<path fill="none" stroke="black" d="M316.77,-220.51C287.3,-209.08 239.06,-190.36 199.51,-175.01"/>
<text text-anchor="middle" x="226.51" y="-178.01" font-family="Times,serif" font-size="10.00">bankAccount</text>
<text text-anchor="middle" x="306.77" y="-223.51" font-family="Times,serif" font-size="10.00">bank</text>
</g>
<!-- b&#45;&gt;ca998ee3_e363_4831_9865_d67e667ca4b3 -->
<g id="edge7" class="edge">
<title>b&#45;&gt;ca998ee3_e363_4831_9865_d67e667ca4b3</title>
<path fill="none" stroke="black" d="M352.06,-213.72C357.43,-202.5 364.52,-187.69 370.53,-175.12"/>
<text text-anchor="middle" x="388.03" y="-178.12" font-family="Times,serif" font-size="10.00">accounts</text>
<text text-anchor="middle" x="342.06" y="-205.72" font-family="Times,serif" font-size="10.00">bank</text>
</g>
<!-- 47918e48_08c2_487f_9b01_de517e37cfdb -->
<g id="node7" class="node">
<title>47918e48_08c2_487f_9b01_de517e37cfdb</title>
<polygon fill="none" stroke="black" points="344.79,-65 344.79,-82 562.79,-82 562.79,-65 344.79,-65"/>
<text text-anchor="start" x="347.79" y="-72" font-family="Times,serif" text-decoration="underline" font-size="10.00">47918e48&#45;08c2&#45;487f&#45;9b01&#45;de517e37cfdb :Customer</text>
<polygon fill="none" stroke="black" points="344.79,-4 344.79,-65 562.79,-65 562.79,-4 344.79,-4"/>
<text text-anchor="start" x="356.79" y="-54" font-family="Times,serif" font-size="10.00">email = &quot;john@doe.ee&quot;</text>
<text text-anchor="start" x="356.79" y="-43" font-family="Times,serif" font-size="10.00">firstName = &quot;John&quot;</text>
<text text-anchor="start" x="356.79" y="-32" font-family="Times,serif" font-size="10.00">id = &quot;47918e48&#45;08c2&#45;487f&#45;9b01&#45;de517e37cfdb&quot;</text>
<text text-anchor="start" x="356.79" y="-21" font-family="Times,serif" font-size="10.00">lastName = &quot;Doe&quot;</text>
<text text-anchor="start" x="356.79" y="-10" font-family="Times,serif" font-size="10.00">password = &quot;pass1234&quot;</text>
</g>
<!-- b&#45;&gt;47918e48_08c2_487f_9b01_de517e37cfdb -->
<g id="edge8" class="edge">
<title>b&#45;&gt;47918e48_08c2_487f_9b01_de517e37cfdb</title>
<path fill="none" stroke="black" d="M370.98,-215.04C373.91,-213.58 376.88,-212.2 379.79,-211 434.02,-188.61 471.41,-221.8 506.79,-175 526.84,-148.48 510.82,-113.33 491.29,-86.12"/>
<text text-anchor="middle" x="470.79" y="-89.12" font-family="Times,serif" font-size="10.00">customers</text>
<text text-anchor="middle" x="375.98" y="-207.04" font-family="Times,serif" font-size="10.00">bank</text>
</g>
<!-- 9488de34_6feb_44bb_97b4_a7617eb7a053&#45;&gt;c -->
<g id="edge9" class="edge">
<title>9488de34_6feb_44bb_97b4_a7617eb7a053&#45;&gt;c</title>
<path fill="none" stroke="black" d="M133.79,-121.92C133.79,-104.08 133.79,-80.61 133.79,-64.11"/>
<text text-anchor="middle" x="116.29" y="-67.11" font-family="Times,serif" font-size="10.00">currency</text>
</g>
<!-- ca998ee3_e363_4831_9865_d67e667ca4b3&#45;&gt;c -->
<g id="edge10" class="edge">
<title>ca998ee3_e363_4831_9865_d67e667ca4b3&#45;&gt;c</title>
<path fill="none" stroke="black" d="M321.24,-121.92C278.32,-104.08 221.86,-80.61 182.17,-64.11"/>
<text text-anchor="middle" x="164.67" y="-67.11" font-family="Times,serif" font-size="10.00">currency</text>
</g>
<!-- ca998ee3_e363_4831_9865_d67e667ca4b3&#45;&gt;47918e48_08c2_487f_9b01_de517e37cfdb -->
<g id="edge11" class="edge">
<title>ca998ee3_e363_4831_9865_d67e667ca4b3&#45;&gt;47918e48_08c2_487f_9b01_de517e37cfdb</title>
<path fill="none" stroke="black" d="M400.34,-121.92C407.73,-111.14 416.53,-98.31 424.84,-86.2"/>
<text text-anchor="middle" x="412.34" y="-89.2" font-family="Times,serif" font-size="10.00">owner</text>
<text text-anchor="middle" x="384.34" y="-113.92" font-family="Times,serif" font-size="10.00">account</text>
</g>
</g>
</svg>
