<?xml version="1.0" encoding="UTF-8" standalone="no"?>
<!DOCTYPE svg PUBLIC "-//W3C//DTD SVG 1.1//EN"
 "http://www.w3.org/Graphics/SVG/1.1/DTD/svg11.dtd">
<!-- Generated by graphviz version 2.43.0 (0)
 -->
<!-- Title: model Pages: 1 -->
<svg width="1320px" height="449px"
 viewBox="0.00 0.00 1320.40 449.00" xmlns="http://www.w3.org/2000/svg" xmlns:xlink="http://www.w3.org/1999/xlink">
<g id="graph0" class="graph" transform="scale(1.0 1.0) rotate(0) translate(4 445)">
<title>model</title>
<polygon fill="white" stroke="transparent" points="-4,4 -4,-445 1316.4,-445 1316.4,4 -4,4"/>
<!-- 4ea9cc5b_1e27_4af1_a1e3_1ac36fb9a07c -->
<g id="node1" class="node">
<title>4ea9cc5b_1e27_4af1_a1e3_1ac36fb9a07c</title>
<polygon fill="none" stroke="black" points="214.9,-420 214.9,-437 440.9,-437 440.9,-420 214.9,-420"/>
<text text-anchor="start" x="217.9" y="-427" font-family="Times,serif" text-decoration="underline" font-size="10.00">4ea9cc5b&#45;1e27&#45;4af1&#45;a1e3&#45;1ac36fb9a07c :Transaction</text>
<polygon fill="none" stroke="black" points="214.9,-359 214.9,-420 440.9,-420 440.9,-359 214.9,-359"/>
<text text-anchor="start" x="230.9" y="-409" font-family="Times,serif" font-size="10.00">amount = 10.0</text>
<text text-anchor="start" x="230.9" y="-398" font-family="Times,serif" font-size="10.00">description = &quot;Fee&quot;</text>
<text text-anchor="start" x="230.9" y="-387" font-family="Times,serif" font-size="10.00">id = &quot;4ea9cc5b&#45;1e27&#45;4af1&#45;a1e3&#45;1ac36fb9a07c&quot;</text>
<text text-anchor="start" x="230.9" y="-376" font-family="Times,serif" font-size="10.00">rejectionDescription = &quot;&quot;</text>
<text text-anchor="start" x="230.9" y="-365" font-family="Times,serif" font-size="10.00">timestamp = 2021&#45;12&#45;04T18:16:14.881075208</text>
</g>
<!-- b -->
<g id="node2" class="node">
<title>b</title>
<polygon fill="none" stroke="black" points="364.9,-297.5 364.9,-314.5 1031.9,-314.5 1031.9,-297.5 364.9,-297.5"/>
<text text-anchor="start" x="681.9" y="-304.5" font-family="Times,serif" text-decoration="underline" font-size="10.00">b :Bank</text>
<polygon fill="none" stroke="black" points="364.9,-269.5 364.9,-297.5 1031.9,-297.5 1031.9,-269.5 364.9,-269.5"/>
<text text-anchor="start" x="367.9" y="-286.5" font-family="Times,serif" font-size="10.00">accountsMap = sendItToTheBank8a633aa5&#45;907c&#45;4e57&#45;a313&#45;22e0adb2672e7a0aacd4&#45;bbd6&#45;4258&#45;82cd&#45;3225610d60867ec351d6&#45;652f&#45;4691&#45;8e72&#45;ea432d44a0c8</text>
<text text-anchor="start" x="367.9" y="-275.5" font-family="Times,serif" font-size="10.00">customerMap = e2f7bc4c&#45;ef2a&#45;466e&#45;b8a5&#45;d24f48b13afe1eaf6f4c&#45;4f92&#45;4e04&#45;bd87&#45;c82be03265de688349e7&#45;363d&#45;4ade&#45;9594&#45;484baf817388</text>
</g>
<!-- 4ea9cc5b_1e27_4af1_a1e3_1ac36fb9a07c&#45;&gt;b -->
<g id="edge1" class="edge">
<title>4ea9cc5b_1e27_4af1_a1e3_1ac36fb9a07c&#45;&gt;b</title>
<path fill="none" stroke="black" d="M449.05,-363.11C500.37,-348.75 559.16,-332.31 606.71,-319.01"/>
<text text-anchor="middle" x="596.21" y="-322.01" font-family="Times,serif" font-size="10.00">bank</text>
<text text-anchor="middle" x="473.55" y="-366.11" font-family="Times,serif" font-size="10.00">transactions</text>
</g>
<!-- c -->
<g id="node3" class="node">
<title>c</title>
<polygon fill="none" stroke="black" points="310.9,-43 310.9,-60 474.9,-60 474.9,-43 310.9,-43"/>
<text text-anchor="start" x="368.9" y="-50" font-family="Times,serif" text-decoration="underline" font-size="10.00">c :Currency</text>
<polygon fill="none" stroke="black" points="310.9,-26 310.9,-43 474.9,-43 474.9,-26 310.9,-26"/>
<text text-anchor="start" x="313.9" y="-32" font-family="Times,serif" font-size="10.00">declaringClass = class model.Currency</text>
</g>
<!-- 4ea9cc5b_1e27_4af1_a1e3_1ac36fb9a07c&#45;&gt;c -->
<g id="edge2" class="edge">
<title>4ea9cc5b_1e27_4af1_a1e3_1ac36fb9a07c&#45;&gt;c</title>
<path fill="none" stroke="black" d="M206.9,-364.59C139.44,-339.65 61.13,-297.67 20.9,-230 -3.62,-188.74 -9.36,-159.26 20.9,-122 55.74,-79.1 204.24,-58.95 302.76,-50.14"/>
<text text-anchor="middle" x="284.76" y="-53.14" font-family="Times,serif" font-size="10.00">currency</text>
</g>
<!-- sendItToTheBank -->
<g id="node4" class="node">
<title>sendItToTheBank</title>
<polygon fill="none" stroke="black" points="37.9,-209 37.9,-226 303.9,-226 303.9,-209 37.9,-209"/>
<text text-anchor="start" x="113.9" y="-216" font-family="Times,serif" text-decoration="underline" font-size="10.00">sendItToTheBank :Account</text>
<polygon fill="none" stroke="black" points="37.9,-126 37.9,-209 303.9,-209 303.9,-126 37.9,-126"/>
<text text-anchor="start" x="40.9" y="-198" font-family="Times,serif" font-size="10.00">balance = 69430.0</text>
<text text-anchor="start" x="40.9" y="-187" font-family="Times,serif" font-size="10.00">customerId = null</text>
<text text-anchor="start" x="40.9" y="-176" font-family="Times,serif" font-size="10.00">iban = &quot;EE024605178282021441&quot;</text>
<text text-anchor="start" x="40.9" y="-165" font-family="Times,serif" font-size="10.00">id = &quot;sendItToTheBank&quot;</text>
<text text-anchor="start" x="40.9" y="-154" font-family="Times,serif" font-size="10.00">receivedTransaction = 4ea9cc5b&#45;1e27&#45;4af1&#45;a1e3&#45;1ac36fb9a07c</text>
<text text-anchor="start" x="40.9" y="-143" font-family="Times,serif" font-size="10.00">sentTransaction = </text>
<text text-anchor="start" x="40.9" y="-132" font-family="Times,serif" font-size="10.00">status = &quot;ACTIVE&quot;</text>
</g>
<!-- 4ea9cc5b_1e27_4af1_a1e3_1ac36fb9a07c&#45;&gt;sendItToTheBank -->
<g id="edge3" class="edge">
<title>4ea9cc5b_1e27_4af1_a1e3_1ac36fb9a07c&#45;&gt;sendItToTheBank</title>
<path fill="none" stroke="black" d="M297.82,-354.84C272.53,-319.41 236.25,-268.57 208.95,-230.31"/>
<text text-anchor="middle" x="185.95" y="-233.31" font-family="Times,serif" font-size="10.00">destination</text>
<text text-anchor="middle" x="239.82" y="-346.84" font-family="Times,serif" font-size="10.00">allTransactionsOrderedDesc</text>
</g>
<!-- 7a0aacd4_bbd6_4258_82cd_3225610d6086 -->
<g id="node5" class="node">
<title>7a0aacd4_bbd6_4258_82cd_3225610d6086</title>
<polygon fill="none" stroke="black" points="337.9,-209 337.9,-226 585.9,-226 585.9,-209 337.9,-209"/>
<text text-anchor="start" x="353.4" y="-216" font-family="Times,serif" text-decoration="underline" font-size="10.00">7a0aacd4&#45;bbd6&#45;4258&#45;82cd&#45;3225610d6086 :Account</text>
<polygon fill="none" stroke="black" points="337.9,-126 337.9,-209 585.9,-209 585.9,-126 337.9,-126"/>
<text text-anchor="start" x="340.9" y="-198" font-family="Times,serif" font-size="10.00">balance = 90.0</text>
<text text-anchor="start" x="340.9" y="-187" font-family="Times,serif" font-size="10.00">customerId = null</text>
<text text-anchor="start" x="340.9" y="-176" font-family="Times,serif" font-size="10.00">iban = &quot;EE823709870747553973&quot;</text>
<text text-anchor="start" x="340.9" y="-165" font-family="Times,serif" font-size="10.00">id = &quot;7a0aacd4&#45;bbd6&#45;4258&#45;82cd&#45;3225610d6086&quot;</text>
<text text-anchor="start" x="340.9" y="-154" font-family="Times,serif" font-size="10.00">receivedTransaction = </text>
<text text-anchor="start" x="340.9" y="-143" font-family="Times,serif" font-size="10.00">sentTransaction = 4ea9cc5b&#45;1e27&#45;4af1&#45;a1e3&#45;1ac36fb9a07c</text>
<text text-anchor="start" x="340.9" y="-132" font-family="Times,serif" font-size="10.00">status = &quot;ACTIVE&quot;</text>
</g>
<!-- 4ea9cc5b_1e27_4af1_a1e3_1ac36fb9a07c&#45;&gt;7a0aacd4_bbd6_4258_82cd_3225610d6086 -->
<g id="edge4" class="edge">
<title>4ea9cc5b_1e27_4af1_a1e3_1ac36fb9a07c&#45;&gt;7a0aacd4_bbd6_4258_82cd_3225610d6086</title>
<path fill="none" stroke="black" d="M326.15,-354.83C326.84,-327.76 331.27,-292.8 346.9,-266 354.66,-252.7 365.25,-240.68 376.89,-230.09"/>
<text text-anchor="middle" x="363.39" y="-233.09" font-family="Times,serif" font-size="10.00">source</text>
<text text-anchor="middle" x="384.15" y="-346.83" font-family="Times,serif" font-size="10.00">allTransactionsOrderedDesc</text>
</g>
<!-- s -->
<g id="node6" class="node">
<title>s</title>
<polygon fill="none" stroke="black" points="1065.9,-292.5 1065.9,-309.5 1270.9,-309.5 1270.9,-292.5 1065.9,-292.5"/>
<text text-anchor="start" x="1151.4" y="-299.5" font-family="Times,serif" text-decoration="underline" font-size="10.00">s :Status</text>
<polygon fill="none" stroke="black" points="1065.9,-275.5 1065.9,-292.5 1270.9,-292.5 1270.9,-275.5 1065.9,-275.5"/>
<text text-anchor="start" x="1068.9" y="-281.5" font-family="Times,serif" font-size="10.00">declaringClass = class model.Transaction$Status</text>
</g>
<!-- 4ea9cc5b_1e27_4af1_a1e3_1ac36fb9a07c&#45;&gt;s -->
<g id="edge5" class="edge">
<title>4ea9cc5b_1e27_4af1_a1e3_1ac36fb9a07c&#45;&gt;s</title>
<path fill="none" stroke="black" d="M448.97,-387.75C592.63,-375.88 839.13,-352.73 1048.9,-319 1058.81,-317.41 1069.14,-315.53 1079.39,-313.52"/>
<text text-anchor="middle" x="1067.39" y="-316.52" font-family="Times,serif" font-size="10.00">status</text>
</g>
<!-- b&#45;&gt;sendItToTheBank -->
<g id="edge6" class="edge">
<title>b&#45;&gt;sendItToTheBank</title>
<path fill="none" stroke="black" d="M499.89,-265.98C441.77,-256.67 378.4,-244.72 320.9,-230 317.96,-229.25 314.99,-228.46 312.01,-227.64"/>
<text text-anchor="middle" x="284.01" y="-230.64" font-family="Times,serif" font-size="10.00">bankAccount</text>
<text text-anchor="middle" x="489.39" y="-257.98" font-family="Times,serif" font-size="10.00">bank</text>
</g>
<!-- b&#45;&gt;7a0aacd4_bbd6_4258_82cd_3225610d6086 -->
<g id="edge9" class="edge">
<title>b&#45;&gt;7a0aacd4_bbd6_4258_82cd_3225610d6086</title>
<path fill="none" stroke="black" d="M645.23,-265.95C623.36,-255.34 597.12,-242.6 571.41,-230.13"/>
<text text-anchor="middle" x="552.91" y="-233.13" font-family="Times,serif" font-size="10.00">accounts</text>
<text text-anchor="middle" x="634.73" y="-257.95" font-family="Times,serif" font-size="10.00">bank</text>
</g>
<!-- 8a633aa5_907c_4e57_a313_22e0adb2672e -->
<g id="node7" class="node">
<title>8a633aa5_907c_4e57_a313_22e0adb2672e</title>
<polygon fill="none" stroke="black" points="963.9,-209 963.9,-226 1201.9,-226 1201.9,-209 963.9,-209"/>
<text text-anchor="start" x="975.9" y="-216" font-family="Times,serif" text-decoration="underline" font-size="10.00">8a633aa5&#45;907c&#45;4e57&#45;a313&#45;22e0adb2672e :Account</text>
<polygon fill="none" stroke="black" points="963.9,-126 963.9,-209 1201.9,-209 1201.9,-126 963.9,-126"/>
<text text-anchor="start" x="966.9" y="-198" font-family="Times,serif" font-size="10.00">balance = 0.0</text>
<text text-anchor="start" x="966.9" y="-187" font-family="Times,serif" font-size="10.00">customerId = &quot;1eaf6f4c&#45;4f92&#45;4e04&#45;bd87&#45;c82be03265de&quot;</text>
<text text-anchor="start" x="966.9" y="-176" font-family="Times,serif" font-size="10.00">iban = null</text>
<text text-anchor="start" x="966.9" y="-165" font-family="Times,serif" font-size="10.00">id = &quot;8a633aa5&#45;907c&#45;4e57&#45;a313&#45;22e0adb2672e&quot;</text>
<text text-anchor="start" x="966.9" y="-154" font-family="Times,serif" font-size="10.00">receivedTransaction = </text>
<text text-anchor="start" x="966.9" y="-143" font-family="Times,serif" font-size="10.00">sentTransaction = </text>
<text text-anchor="start" x="966.9" y="-132" font-family="Times,serif" font-size="10.00">status = &quot;ACTIVE&quot;</text>
</g>
<!-- b&#45;&gt;8a633aa5_907c_4e57_a313_22e0adb2672e -->
<g id="edge7" class="edge">
<title>b&#45;&gt;8a633aa5_907c_4e57_a313_22e0adb2672e</title>
<path fill="none" stroke="black" d="M810.39,-265.95C852,-255.77 899.38,-243.31 941.9,-230 946.4,-228.59 950.95,-227.12 955.54,-225.61"/>
<text text-anchor="middle" x="937.04" y="-228.61" font-family="Times,serif" font-size="10.00">accounts</text>
<text text-anchor="middle" x="799.89" y="-257.95" font-family="Times,serif" font-size="10.00">bank</text>
</g>
<!-- 7ec351d6_652f_4691_8e72_ea432d44a0c8 -->
<g id="node8" class="node">
<title>7ec351d6_652f_4691_8e72_ea432d44a0c8</title>
<polygon fill="none" stroke="black" points="657.9,-209 657.9,-226 891.9,-226 891.9,-209 657.9,-209"/>
<text text-anchor="start" x="667.9" y="-216" font-family="Times,serif" text-decoration="underline" font-size="10.00">7ec351d6&#45;652f&#45;4691&#45;8e72&#45;ea432d44a0c8 :Account</text>
<polygon fill="none" stroke="black" points="657.9,-126 657.9,-209 891.9,-209 891.9,-126 657.9,-126"/>
<text text-anchor="start" x="660.9" y="-198" font-family="Times,serif" font-size="10.00">balance = 100.0</text>
<text text-anchor="start" x="660.9" y="-187" font-family="Times,serif" font-size="10.00">customerId = &quot;e2f7bc4c&#45;ef2a&#45;466e&#45;b8a5&#45;d24f48b13afe&quot;</text>
<text text-anchor="start" x="660.9" y="-176" font-family="Times,serif" font-size="10.00">iban = null</text>
<text text-anchor="start" x="660.9" y="-165" font-family="Times,serif" font-size="10.00">id = &quot;7ec351d6&#45;652f&#45;4691&#45;8e72&#45;ea432d44a0c8&quot;</text>
<text text-anchor="start" x="660.9" y="-154" font-family="Times,serif" font-size="10.00">receivedTransaction = </text>
<text text-anchor="start" x="660.9" y="-143" font-family="Times,serif" font-size="10.00">sentTransaction = </text>
<text text-anchor="start" x="660.9" y="-132" font-family="Times,serif" font-size="10.00">status = &quot;ACTIVE&quot;</text>
</g>
<!-- b&#45;&gt;7ec351d6_652f_4691_8e72_ea432d44a0c8 -->
<g id="edge8" class="edge">
<title>b&#45;&gt;7ec351d6_652f_4691_8e72_ea432d44a0c8</title>
<path fill="none" stroke="black" d="M715.18,-265.8C722.28,-255.25 730.77,-242.63 739.09,-230.25"/>
<text text-anchor="middle" x="720.59" y="-233.25" font-family="Times,serif" font-size="10.00">accounts</text>
<text text-anchor="middle" x="704.68" y="-257.8" font-family="Times,serif" font-size="10.00">bank</text>
</g>
<!-- e2f7bc4c_ef2a_466e_b8a5_d24f48b13afe -->
<g id="node9" class="node">
<title>e2f7bc4c_ef2a_466e_b8a5_d24f48b13afe</title>
<polygon fill="none" stroke="black" points="794.9,-65 794.9,-82 1009.9,-82 1009.9,-65 794.9,-65"/>
<text text-anchor="start" x="797.9" y="-72" font-family="Times,serif" text-decoration="underline" font-size="10.00">e2f7bc4c&#45;ef2a&#45;466e&#45;b8a5&#45;d24f48b13afe :Customer</text>
<polygon fill="none" stroke="black" points="794.9,-4 794.9,-65 1009.9,-65 1009.9,-4 794.9,-4"/>
<text text-anchor="start" x="806.9" y="-54" font-family="Times,serif" font-size="10.00">email = &quot;john@doe.ee&quot;</text>
<text text-anchor="start" x="806.9" y="-43" font-family="Times,serif" font-size="10.00">firstName = &quot;John&quot;</text>
<text text-anchor="start" x="806.9" y="-32" font-family="Times,serif" font-size="10.00">id = &quot;e2f7bc4c&#45;ef2a&#45;466e&#45;b8a5&#45;d24f48b13afe&quot;</text>
<text text-anchor="start" x="806.9" y="-21" font-family="Times,serif" font-size="10.00">lastName = &quot;Doe&quot;</text>
<text text-anchor="start" x="806.9" y="-10" font-family="Times,serif" font-size="10.00">password = &quot;pass1234&quot;</text>
</g>
<!-- b&#45;&gt;e2f7bc4c_ef2a_466e_b8a5_d24f48b13afe -->
<g id="edge10" class="edge">
<title>b&#45;&gt;e2f7bc4c_ef2a_466e_b8a5_d24f48b13afe</title>
<path fill="none" stroke="black" d="M831.8,-265.94C867,-256.38 898.17,-244.31 908.9,-230 939.73,-188.9 929.57,-127.1 917.44,-86.17"/>
<text text-anchor="middle" x="896.94" y="-89.17" font-family="Times,serif" font-size="10.00">customers</text>
<text text-anchor="middle" x="821.3" y="-257.94" font-family="Times,serif" font-size="10.00">bank</text>
</g>
<!-- 1eaf6f4c_4f92_4e04_bd87_c82be03265de -->
<g id="node10" class="node">
<title>1eaf6f4c_4f92_4e04_bd87_c82be03265de</title>
<polygon fill="none" stroke="black" points="1085.9,-65 1085.9,-82 1304.9,-82 1304.9,-65 1085.9,-65"/>
<text text-anchor="start" x="1088.9" y="-72" font-family="Times,serif" text-decoration="underline" font-size="10.00">1eaf6f4c&#45;4f92&#45;4e04&#45;bd87&#45;c82be03265de :Customer</text>
<polygon fill="none" stroke="black" points="1085.9,-4 1085.9,-65 1304.9,-65 1304.9,-4 1085.9,-4"/>
<text text-anchor="start" x="1097.9" y="-54" font-family="Times,serif" font-size="10.00">email = &quot;bobby@tt.ee&quot;</text>
<text text-anchor="start" x="1097.9" y="-43" font-family="Times,serif" font-size="10.00">firstName = &quot;Bob&quot;</text>
<text text-anchor="start" x="1097.9" y="-32" font-family="Times,serif" font-size="10.00">id = &quot;1eaf6f4c&#45;4f92&#45;4e04&#45;bd87&#45;c82be03265de&quot;</text>
<text text-anchor="start" x="1097.9" y="-21" font-family="Times,serif" font-size="10.00">lastName = &quot;Jackson&quot;</text>
<text text-anchor="start" x="1097.9" y="-10" font-family="Times,serif" font-size="10.00">password = &quot;secret&quot;</text>
</g>
<!-- b&#45;&gt;1eaf6f4c_4f92_4e04_bd87_c82be03265de -->
<g id="edge11" class="edge">
<title>b&#45;&gt;1eaf6f4c_4f92_4e04_bd87_c82be03265de</title>
<path fill="none" stroke="black" d="M980.34,-265.98C1098.11,-253.95 1209.96,-240.06 1218.9,-230 1253.62,-190.94 1235.37,-127.75 1216.93,-86.03"/>
<text text-anchor="middle" x="1196.43" y="-89.03" font-family="Times,serif" font-size="10.00">customers</text>
<text text-anchor="middle" x="969.84" y="-257.98" font-family="Times,serif" font-size="10.00">bank</text>
</g>
<!-- 688349e7_363d_4ade_9594_484baf817388 -->
<g id="node11" class="node">
<title>688349e7_363d_4ade_9594_484baf817388</title>
<polygon fill="none" stroke="black" points="508.9,-65 508.9,-82 734.9,-82 734.9,-65 508.9,-65"/>
<text text-anchor="start" x="511.9" y="-72" font-family="Times,serif" text-decoration="underline" font-size="10.00">688349e7&#45;363d&#45;4ade&#45;9594&#45;484baf817388 :Customer</text>
<polygon fill="none" stroke="black" points="508.9,-4 508.9,-65 734.9,-65 734.9,-4 508.9,-4"/>
<text text-anchor="start" x="520.9" y="-54" font-family="Times,serif" font-size="10.00">email = &quot;johntest@doe.ee&quot;</text>
<text text-anchor="start" x="520.9" y="-43" font-family="Times,serif" font-size="10.00">firstName = &quot;johntest&quot;</text>
<text text-anchor="start" x="520.9" y="-32" font-family="Times,serif" font-size="10.00">id = &quot;688349e7&#45;363d&#45;4ade&#45;9594&#45;484baf817388&quot;</text>
<text text-anchor="start" x="520.9" y="-21" font-family="Times,serif" font-size="10.00">lastName = &quot;Doe&quot;</text>
<text text-anchor="start" x="520.9" y="-10" font-family="Times,serif" font-size="10.00">password = &quot;pass1234&quot;</text>
</g>
<!-- b&#45;&gt;688349e7_363d_4ade_9594_484baf817388 -->
<g id="edge12" class="edge">
<title>b&#45;&gt;688349e7_363d_4ade_9594_484baf817388</title>
<path fill="none" stroke="black" d="M667.18,-265.9C657.11,-255.8 646.96,-243.4 640.9,-230 620.11,-184.01 617.57,-125.26 618.77,-86.23"/>
<text text-anchor="middle" x="598.27" y="-89.23" font-family="Times,serif" font-size="10.00">customers</text>
<text text-anchor="middle" x="656.68" y="-257.9" font-family="Times,serif" font-size="10.00">bank</text>
</g>
<!-- sendItToTheBank&#45;&gt;c -->
<g id="edge13" class="edge">
<title>sendItToTheBank&#45;&gt;c</title>
<path fill="none" stroke="black" d="M260.88,-121.91C295.37,-101.55 332.68,-79.54 358.81,-64.12"/>
<text text-anchor="middle" x="340.81" y="-67.12" font-family="Times,serif" font-size="10.00">currency</text>
</g>
<!-- 7a0aacd4_bbd6_4258_82cd_3225610d6086&#45;&gt;c -->
<g id="edge14" class="edge">
<title>7a0aacd4_bbd6_4258_82cd_3225610d6086&#45;&gt;c</title>
<path fill="none" stroke="black" d="M433.84,-121.72C423.17,-101.46 411.64,-79.58 403.55,-64.22"/>
<text text-anchor="middle" x="385.55" y="-67.22" font-family="Times,serif" font-size="10.00">currency</text>
</g>
<!-- 7a0aacd4_bbd6_4258_82cd_3225610d6086&#45;&gt;688349e7_363d_4ade_9594_484baf817388 -->
<g id="edge15" class="edge">
<title>7a0aacd4_bbd6_4258_82cd_3225610d6086&#45;&gt;688349e7_363d_4ade_9594_484baf817388</title>
<path fill="none" stroke="black" d="M526.98,-121.72C541.34,-109.96 556.37,-97.66 570.12,-86.4"/>
<text text-anchor="middle" x="557.12" y="-89.4" font-family="Times,serif" font-size="10.00">owner</text>
<text text-anchor="middle" x="510.48" y="-113.72" font-family="Times,serif" font-size="10.00">account</text>
</g>
<!-- 8a633aa5_907c_4e57_a313_22e0adb2672e&#45;&gt;c -->
<g id="edge16" class="edge">
<title>8a633aa5_907c_4e57_a313_22e0adb2672e&#45;&gt;c</title>
<path fill="none" stroke="black" d="M955.86,-132.97C940.17,-128.77 924.25,-124.97 908.9,-122 726.26,-86.7 672.43,-130.88 491.9,-86 471.61,-80.95 450.12,-72.29 432.37,-64.13"/>
<text text-anchor="middle" x="450.37" y="-67.13" font-family="Times,serif" font-size="10.00">currency</text>
</g>
<!-- 8a633aa5_907c_4e57_a313_22e0adb2672e&#45;&gt;1eaf6f4c_4f92_4e04_bd87_c82be03265de -->
<g id="edge17" class="edge">
<title>8a633aa5_907c_4e57_a313_22e0adb2672e&#45;&gt;1eaf6f4c_4f92_4e04_bd87_c82be03265de</title>
<path fill="none" stroke="black" d="M1128.46,-121.72C1138.51,-109.96 1149.03,-97.66 1158.66,-86.4"/>
<text text-anchor="middle" x="1145.66" y="-89.4" font-family="Times,serif" font-size="10.00">owner</text>
<text text-anchor="middle" x="1111.96" y="-113.72" font-family="Times,serif" font-size="10.00">account</text>
</g>
<!-- 7ec351d6_652f_4691_8e72_ea432d44a0c8&#45;&gt;c -->
<g id="edge18" class="edge">
<title>7ec351d6_652f_4691_8e72_ea432d44a0c8&#45;&gt;c</title>
<path fill="none" stroke="black" d="M649.7,-136.23C581.46,-115 507.73,-91.83 491.9,-86 474.03,-79.42 454.69,-71.41 437.88,-64.16"/>
<text text-anchor="middle" x="419.88" y="-67.16" font-family="Times,serif" font-size="10.00">currency</text>
</g>
<!-- 7ec351d6_652f_4691_8e72_ea432d44a0c8&#45;&gt;e2f7bc4c_ef2a_466e_b8a5_d24f48b13afe -->
<g id="edge19" class="edge">
<title>7ec351d6_652f_4691_8e72_ea432d44a0c8&#45;&gt;e2f7bc4c_ef2a_466e_b8a5_d24f48b13afe</title>
<path fill="none" stroke="black" d="M826.56,-121.72C837.96,-109.96 849.89,-97.66 860.8,-86.4"/>
<text text-anchor="middle" x="847.8" y="-89.4" font-family="Times,serif" font-size="10.00">owner</text>
<text text-anchor="middle" x="810.06" y="-113.72" font-family="Times,serif" font-size="10.00">account</text>
</g>
</g>
</svg>
