<?xml version="1.0" encoding="UTF-8" standalone="no"?>
<!DOCTYPE svg PUBLIC "-//W3C//DTD SVG 1.1//EN"
 "http://www.w3.org/Graphics/SVG/1.1/DTD/svg11.dtd">
<!-- Generated by graphviz version 2.44.0 (20200408.0750)
 -->
<!-- Title: model Pages: 1 -->
<svg width="3148px" height="520px"
 viewBox="0.00 0.00 3148.00 520.00" xmlns="http://www.w3.org/2000/svg" xmlns:xlink="http://www.w3.org/1999/xlink">
<g id="graph0" class="graph" transform="scale(1.0 1.0) rotate(0) translate(4 516)">
<title>model</title>
<polygon fill="white" stroke="transparent" points="-4,4 -4,-516 3144,-516 3144,4 -4,4"/>
<!-- 48fa1568_a64f_45a1_8126_1dd7641c4b20 -->
<g id="node1" class="node">
<title>48fa1568_a64f_45a1_8126_1dd7641c4b20</title>
<polygon fill="none" stroke="black" points="1538.5,-490 1538.5,-508 1750.5,-508 1750.5,-490 1538.5,-490"/>
<text text-anchor="start" x="1541.06" y="-497" font-family="Times,serif" text-decoration="underline" font-size="10.00">48fa1568&#45;a64f&#45;45a1&#45;8126&#45;1dd7641c4b20 :Account</text>
<polygon fill="none" stroke="black" points="1538.5,-388 1538.5,-490 1750.5,-490 1750.5,-388 1538.5,-388"/>
<text text-anchor="start" x="1547.35" y="-478" font-family="Times,serif" font-size="10.00">balance = 0.0</text>
<text text-anchor="start" x="1547.35" y="-466" font-family="Times,serif" font-size="10.00">count = 0</text>
<text text-anchor="start" x="1547.35" y="-454" font-family="Times,serif" font-size="10.00">customerId = null</text>
<text text-anchor="start" x="1547.35" y="-442" font-family="Times,serif" font-size="10.00">iban = &quot;EE570931355601861051&quot;</text>
<text text-anchor="start" x="1547.35" y="-430" font-family="Times,serif" font-size="10.00">id = &quot;48fa1568&#45;a64f&#45;45a1&#45;8126&#45;1dd7641c4b20&quot;</text>
<text text-anchor="start" x="1547.35" y="-418" font-family="Times,serif" font-size="10.00">receivedTransaction = </text>
<text text-anchor="start" x="1547.35" y="-406" font-family="Times,serif" font-size="10.00">sentTransaction = </text>
<text text-anchor="start" x="1547.35" y="-394" font-family="Times,serif" font-size="10.00">status = &quot;FROZEN&quot;</text>
</g>
<!-- b -->
<g id="node2" class="node">
<title>b</title>
<polygon fill="none" stroke="black" points="828.5,-326 828.5,-344 2461.5,-344 2461.5,-326 828.5,-326"/>
<text text-anchor="start" x="1629.31" y="-333" font-family="Times,serif" text-decoration="underline" font-size="10.00">b :Bank</text>
<polygon fill="none" stroke="black" points="828.5,-296 828.5,-326 2461.5,-326 2461.5,-296 828.5,-296"/>
<text text-anchor="start" x="831.5" y="-314" font-family="Times,serif" font-size="10.00">accountsMap = c95c6fe2&#45;1742&#45;40a2&#45;9dfa&#45;f0dcc90243d0bf79c166&#45;c5aa&#45;428e&#45;8e43&#45;627e623357246637a81a&#45;4aa3&#45;4efe&#45;ade9&#45;4cfacc9b3975fef96271&#45;fd9c&#45;493a&#45;abd7&#45;3bf7aef18657e172231e&#45;629d&#45;4c1b&#45;be5f&#45;b54139ff2120643946d5&#45;d776&#45;40e0&#45;8d35&#45;5499a87f1824sendItToTheBankb9241394&#45;65dc&#45;4df2&#45;aff2&#45;02ce8883a1cc64d2b6ad&#45;1faa&#45;48df&#45;8f99&#45;6857c8ed172148fa1568&#45;a64f&#45;45a1&#45;8126&#45;1dd7641c4b20</text>
<text text-anchor="start" x="831.5" y="-302" font-family="Times,serif" font-size="10.00">customerMap = 21eb2d43&#45;1a04&#45;430f&#45;b8a5&#45;5612d60a883ca70d08d5&#45;ec28&#45;467a&#45;adaf&#45;6845d3e3ea045d021ce0&#45;a6c8&#45;45e9&#45;ac0f&#45;c2d6d7785ddf6e3cd55b&#45;b55d&#45;4c1c&#45;a631&#45;b801fc91540191c6fc4b&#45;e762&#45;4f6d&#45;9c0b&#45;4598162847fd8bd34921&#45;c54a&#45;45db&#45;b0b0&#45;fd24d38a9a4067b83f8f&#45;3613&#45;497c&#45;9186&#45;503f6a3679d20bb19850&#45;1192&#45;478f&#45;811c&#45;5f9b6ac3e3fe157ec70c&#45;4e73&#45;4934&#45;88dc&#45;d5508f1a2cdd</text>
</g>
<!-- 48fa1568_a64f_45a1_8126_1dd7641c4b20&#45;&gt;b -->
<g id="edge1" class="edge">
<title>48fa1568_a64f_45a1_8126_1dd7641c4b20&#45;&gt;b</title>
<path fill="none" stroke="black" d="M1644.5,-383.63C1644.5,-371.13 1644.5,-358.65 1644.5,-348.15"/>
<text text-anchor="middle" x="1634.78" y="-351.15" font-family="Times,serif" font-size="10.00">bank</text>
<text text-anchor="middle" x="1627.01" y="-374.63" font-family="Times,serif" font-size="10.00">accounts</text>
</g>
<!-- c -->
<g id="node3" class="node">
<title>c</title>
<polygon fill="none" stroke="black" points="1225.5,-46 1225.5,-64 1387.5,-64 1387.5,-46 1225.5,-46"/>
<text text-anchor="start" x="1283.04" y="-53" font-family="Times,serif" text-decoration="underline" font-size="10.00">c :Currency</text>
<polygon fill="none" stroke="black" points="1225.5,-28 1225.5,-46 1387.5,-46 1387.5,-28 1225.5,-28"/>
<text text-anchor="start" x="1228.5" y="-34" font-family="Times,serif" font-size="10.00">declaringClass = class model.Currency</text>
</g>
<!-- 48fa1568_a64f_45a1_8126_1dd7641c4b20&#45;&gt;c -->
<g id="edge2" class="edge">
<title>48fa1568_a64f_45a1_8126_1dd7641c4b20&#45;&gt;c</title>
<path fill="none" stroke="black" d="M1530.39,-441.98C1180.79,-425.44 142.22,-367.27 43.5,-256 5.74,-213.45 3.96,-168.9 43.5,-128 84.69,-85.4 1050.74,-99.63 1109.5,-92 1149.68,-86.78 1193.71,-77.11 1229.93,-68.07"/>
<text text-anchor="middle" x="1212.44" y="-71.07" font-family="Times,serif" font-size="10.00">currency</text>
</g>
<!-- 0bb19850_1192_478f_811c_5f9b6ac3e3fe -->
<g id="node4" class="node">
<title>0bb19850_1192_478f_811c_5f9b6ac3e3fe</title>
<polygon fill="none" stroke="black" points="2917.5,-216 2917.5,-234 3132.5,-234 3132.5,-216 2917.5,-216"/>
<text text-anchor="start" x="2920.17" y="-223" font-family="Times,serif" text-decoration="underline" font-size="10.00">0bb19850&#45;1192&#45;478f&#45;811c&#45;5f9b6ac3e3fe :Customer</text>
<polygon fill="none" stroke="black" points="2917.5,-150 2917.5,-216 3132.5,-216 3132.5,-150 2917.5,-150"/>
<text text-anchor="start" x="2928.96" y="-204" font-family="Times,serif" font-size="10.00">email = &quot;bobbytest@tt.ee&quot;</text>
<text text-anchor="start" x="2928.96" y="-192" font-family="Times,serif" font-size="10.00">firstName = &quot;Bob&quot;</text>
<text text-anchor="start" x="2928.96" y="-180" font-family="Times,serif" font-size="10.00">id = &quot;0bb19850&#45;1192&#45;478f&#45;811c&#45;5f9b6ac3e3fe&quot;</text>
<text text-anchor="start" x="2928.96" y="-168" font-family="Times,serif" font-size="10.00">lastName = &quot;Jackson&quot;</text>
<text text-anchor="start" x="2928.96" y="-156" font-family="Times,serif" font-size="10.00">password = &quot;secret&quot;</text>
</g>
<!-- 48fa1568_a64f_45a1_8126_1dd7641c4b20&#45;&gt;0bb19850_1192_478f_811c_5f9b6ac3e3fe -->
<g id="edge3" class="edge">
<title>48fa1568_a64f_45a1_8126_1dd7641c4b20&#45;&gt;0bb19850_1192_478f_811c_5f9b6ac3e3fe</title>
<path fill="none" stroke="black" d="M1758.78,-442.39C1981.22,-430.63 2485.59,-390.15 2885.5,-256 2900.82,-250.86 2916.74,-244.59 2932.09,-238.03"/>
<text text-anchor="middle" x="2919.59" y="-241.03" font-family="Times,serif" font-size="10.00">owner</text>
<text text-anchor="middle" x="1774.33" y="-445.39" font-family="Times,serif" font-size="10.00">account</text>
</g>
<!-- b&#45;&gt;0bb19850_1192_478f_811c_5f9b6ac3e3fe -->
<g id="edge22" class="edge">
<title>b&#45;&gt;0bb19850_1192_478f_811c_5f9b6ac3e3fe</title>
<path fill="none" stroke="black" d="M2469.07,-302.07C2646.99,-292.7 2807.67,-278.25 2894.5,-256 2911.14,-251.74 2928.19,-245.24 2944.23,-238.02"/>
<text text-anchor="middle" x="2964.5" y="-241.02" font-family="Times,serif" font-size="10.00">customers</text>
<text text-anchor="middle" x="2478.79" y="-305.07" font-family="Times,serif" font-size="10.00">bank</text>
</g>
<!-- c95c6fe2_1742_40a2_9dfa_f0dcc90243d0 -->
<g id="node5" class="node">
<title>c95c6fe2_1742_40a2_9dfa_f0dcc90243d0</title>
<polygon fill="none" stroke="black" points="2262.5,-234 2262.5,-252 2498.5,-252 2498.5,-234 2262.5,-234"/>
<text text-anchor="start" x="2278.73" y="-241" font-family="Times,serif" text-decoration="underline" font-size="10.00">c95c6fe2&#45;1742&#45;40a2&#45;9dfa&#45;f0dcc90243d0 :Account</text>
<polygon fill="none" stroke="black" points="2262.5,-132 2262.5,-234 2498.5,-234 2498.5,-132 2262.5,-132"/>
<text text-anchor="start" x="2265.5" y="-222" font-family="Times,serif" font-size="10.00">balance = 0.0</text>
<text text-anchor="start" x="2265.5" y="-210" font-family="Times,serif" font-size="10.00">count = 0</text>
<text text-anchor="start" x="2265.5" y="-198" font-family="Times,serif" font-size="10.00">customerId = &quot;a70d08d5&#45;ec28&#45;467a&#45;adaf&#45;6845d3e3ea04&quot;</text>
<text text-anchor="start" x="2265.5" y="-186" font-family="Times,serif" font-size="10.00">iban = &quot;EE103520425064700043&quot;</text>
<text text-anchor="start" x="2265.5" y="-174" font-family="Times,serif" font-size="10.00">id = &quot;c95c6fe2&#45;1742&#45;40a2&#45;9dfa&#45;f0dcc90243d0&quot;</text>
<text text-anchor="start" x="2265.5" y="-162" font-family="Times,serif" font-size="10.00">receivedTransaction = </text>
<text text-anchor="start" x="2265.5" y="-150" font-family="Times,serif" font-size="10.00">sentTransaction = </text>
<text text-anchor="start" x="2265.5" y="-138" font-family="Times,serif" font-size="10.00">status = &quot;ACTIVE&quot;</text>
</g>
<!-- b&#45;&gt;c95c6fe2_1742_40a2_9dfa_f0dcc90243d0 -->
<g id="edge4" class="edge">
<title>b&#45;&gt;c95c6fe2_1742_40a2_9dfa_f0dcc90243d0</title>
<path fill="none" stroke="black" d="M2071.36,-291.99C2130.45,-283.12 2189.9,-271.42 2245.5,-256 2248.37,-255.21 2251.25,-254.35 2254.14,-253.45"/>
<text text-anchor="middle" x="2236.64" y="-256.45" font-family="Times,serif" font-size="10.00">accounts</text>
<text text-anchor="middle" x="2061.65" y="-282.99" font-family="Times,serif" font-size="10.00">bank</text>
</g>
<!-- bf79c166_c5aa_428e_8e43_627e62335724 -->
<g id="node6" class="node">
<title>bf79c166_c5aa_428e_8e43_627e62335724</title>
<polygon fill="none" stroke="black" points="2608.5,-234 2608.5,-252 2844.5,-252 2844.5,-234 2608.5,-234"/>
<text text-anchor="start" x="2623.06" y="-241" font-family="Times,serif" text-decoration="underline" font-size="10.00">bf79c166&#45;c5aa&#45;428e&#45;8e43&#45;627e62335724 :Account</text>
<polygon fill="none" stroke="black" points="2608.5,-132 2608.5,-234 2844.5,-234 2844.5,-132 2608.5,-132"/>
<text text-anchor="start" x="2611.5" y="-222" font-family="Times,serif" font-size="10.00">balance = 0.0</text>
<text text-anchor="start" x="2611.5" y="-210" font-family="Times,serif" font-size="10.00">count = 0</text>
<text text-anchor="start" x="2611.5" y="-198" font-family="Times,serif" font-size="10.00">customerId = &quot;67b83f8f&#45;3613&#45;497c&#45;9186&#45;503f6a3679d2&quot;</text>
<text text-anchor="start" x="2611.5" y="-186" font-family="Times,serif" font-size="10.00">iban = &quot;EE212057706600947237&quot;</text>
<text text-anchor="start" x="2611.5" y="-174" font-family="Times,serif" font-size="10.00">id = &quot;bf79c166&#45;c5aa&#45;428e&#45;8e43&#45;627e62335724&quot;</text>
<text text-anchor="start" x="2611.5" y="-162" font-family="Times,serif" font-size="10.00">receivedTransaction = </text>
<text text-anchor="start" x="2611.5" y="-150" font-family="Times,serif" font-size="10.00">sentTransaction = </text>
<text text-anchor="start" x="2611.5" y="-138" font-family="Times,serif" font-size="10.00">status = &quot;ACTIVE&quot;</text>
</g>
<!-- b&#45;&gt;bf79c166_c5aa_428e_8e43_627e62335724 -->
<g id="edge5" class="edge">
<title>b&#45;&gt;bf79c166_c5aa_428e_8e43_627e62335724</title>
<path fill="none" stroke="black" d="M2293.8,-291.99C2416.55,-282.99 2525.53,-271.23 2586.5,-256 2591.03,-254.87 2595.59,-253.6 2600.16,-252.21"/>
<text text-anchor="middle" x="2582.66" y="-255.21" font-family="Times,serif" font-size="10.00">accounts</text>
<text text-anchor="middle" x="2284.09" y="-282.99" font-family="Times,serif" font-size="10.00">bank</text>
</g>
<!-- 6637a81a_4aa3_4efe_ade9_4cfacc9b3975 -->
<g id="node7" class="node">
<title>6637a81a_4aa3_4efe_ade9_4cfacc9b3975</title>
<polygon fill="none" stroke="black" points="949.5,-234 949.5,-252 1188.5,-252 1188.5,-234 949.5,-234"/>
<text text-anchor="start" x="967.8" y="-241" font-family="Times,serif" text-decoration="underline" font-size="10.00">6637a81a&#45;4aa3&#45;4efe&#45;ade9&#45;4cfacc9b3975 :Account</text>
<polygon fill="none" stroke="black" points="949.5,-132 949.5,-234 1188.5,-234 1188.5,-132 949.5,-132"/>
<text text-anchor="start" x="952.5" y="-222" font-family="Times,serif" font-size="10.00">balance = 0.0</text>
<text text-anchor="start" x="952.5" y="-210" font-family="Times,serif" font-size="10.00">count = 0</text>
<text text-anchor="start" x="952.5" y="-198" font-family="Times,serif" font-size="10.00">customerId = &quot;8bd34921&#45;c54a&#45;45db&#45;b0b0&#45;fd24d38a9a40&quot;</text>
<text text-anchor="start" x="952.5" y="-186" font-family="Times,serif" font-size="10.00">iban = &quot;EE613711917048588404&quot;</text>
<text text-anchor="start" x="952.5" y="-174" font-family="Times,serif" font-size="10.00">id = &quot;6637a81a&#45;4aa3&#45;4efe&#45;ade9&#45;4cfacc9b3975&quot;</text>
<text text-anchor="start" x="952.5" y="-162" font-family="Times,serif" font-size="10.00">receivedTransaction = </text>
<text text-anchor="start" x="952.5" y="-150" font-family="Times,serif" font-size="10.00">sentTransaction = </text>
<text text-anchor="start" x="952.5" y="-138" font-family="Times,serif" font-size="10.00">status = &quot;ACTIVE&quot;</text>
</g>
<!-- b&#45;&gt;6637a81a_4aa3_4efe_ade9_4cfacc9b3975 -->
<g id="edge6" class="edge">
<title>b&#45;&gt;6637a81a_4aa3_4efe_ade9_4cfacc9b3975</title>
<path fill="none" stroke="black" d="M1368.1,-292C1313.26,-283.13 1256.57,-271.43 1204.5,-256 1201.76,-255.19 1199,-254.33 1196.23,-253.43"/>
<text text-anchor="middle" x="1213.72" y="-256.43" font-family="Times,serif" font-size="10.00">accounts</text>
<text text-anchor="middle" x="1358.38" y="-283" font-family="Times,serif" font-size="10.00">bank</text>
</g>
<!-- fef96271_fd9c_493a_abd7_3bf7aef18657 -->
<g id="node8" class="node">
<title>fef96271_fd9c_493a_abd7_3bf7aef18657</title>
<polygon fill="none" stroke="black" points="1680.5,-234 1680.5,-252 1918.5,-252 1918.5,-234 1680.5,-234"/>
<text text-anchor="start" x="1699.12" y="-241" font-family="Times,serif" text-decoration="underline" font-size="10.00">fef96271&#45;fd9c&#45;493a&#45;abd7&#45;3bf7aef18657 :Account</text>
<polygon fill="none" stroke="black" points="1680.5,-132 1680.5,-234 1918.5,-234 1918.5,-132 1680.5,-132"/>
<text text-anchor="start" x="1683.5" y="-222" font-family="Times,serif" font-size="10.00">balance = 0.0</text>
<text text-anchor="start" x="1683.5" y="-210" font-family="Times,serif" font-size="10.00">count = 0</text>
<text text-anchor="start" x="1683.5" y="-198" font-family="Times,serif" font-size="10.00">customerId = &quot;6e3cd55b&#45;b55d&#45;4c1c&#45;a631&#45;b801fc915401&quot;</text>
<text text-anchor="start" x="1683.5" y="-186" font-family="Times,serif" font-size="10.00">iban = &quot;EE319001747935046121&quot;</text>
<text text-anchor="start" x="1683.5" y="-174" font-family="Times,serif" font-size="10.00">id = &quot;fef96271&#45;fd9c&#45;493a&#45;abd7&#45;3bf7aef18657&quot;</text>
<text text-anchor="start" x="1683.5" y="-162" font-family="Times,serif" font-size="10.00">receivedTransaction = </text>
<text text-anchor="start" x="1683.5" y="-150" font-family="Times,serif" font-size="10.00">sentTransaction = </text>
<text text-anchor="start" x="1683.5" y="-138" font-family="Times,serif" font-size="10.00">status = &quot;ACTIVE&quot;</text>
</g>
<!-- b&#45;&gt;fef96271_fd9c_493a_abd7_3bf7aef18657 -->
<g id="edge7" class="edge">
<title>b&#45;&gt;fef96271_fd9c_493a_abd7_3bf7aef18657</title>
<path fill="none" stroke="black" d="M1677.75,-291.97C1690.74,-281.41 1706.22,-268.83 1721.71,-256.23"/>
<text text-anchor="middle" x="1704.22" y="-259.23" font-family="Times,serif" font-size="10.00">accounts</text>
<text text-anchor="middle" x="1668.03" y="-282.97" font-family="Times,serif" font-size="10.00">bank</text>
</g>
<!-- e172231e_629d_4c1b_be5f_b54139ff2120 -->
<g id="node9" class="node">
<title>e172231e_629d_4c1b_be5f_b54139ff2120</title>
<polygon fill="none" stroke="black" points="61.5,-234 61.5,-252 296.5,-252 296.5,-234 61.5,-234"/>
<text text-anchor="start" x="76.39" y="-241" font-family="Times,serif" text-decoration="underline" font-size="10.00">e172231e&#45;629d&#45;4c1b&#45;be5f&#45;b54139ff2120 :Account</text>
<polygon fill="none" stroke="black" points="61.5,-132 61.5,-234 296.5,-234 296.5,-132 61.5,-132"/>
<text text-anchor="start" x="64.5" y="-222" font-family="Times,serif" font-size="10.00">balance = 0.0</text>
<text text-anchor="start" x="64.5" y="-210" font-family="Times,serif" font-size="10.00">count = 0</text>
<text text-anchor="start" x="64.5" y="-198" font-family="Times,serif" font-size="10.00">customerId = &quot;5d021ce0&#45;a6c8&#45;45e9&#45;ac0f&#45;c2d6d7785ddf&quot;</text>
<text text-anchor="start" x="64.5" y="-186" font-family="Times,serif" font-size="10.00">iban = &quot;EE660732275185744626&quot;</text>
<text text-anchor="start" x="64.5" y="-174" font-family="Times,serif" font-size="10.00">id = &quot;e172231e&#45;629d&#45;4c1b&#45;be5f&#45;b54139ff2120&quot;</text>
<text text-anchor="start" x="64.5" y="-162" font-family="Times,serif" font-size="10.00">receivedTransaction = </text>
<text text-anchor="start" x="64.5" y="-150" font-family="Times,serif" font-size="10.00">sentTransaction = </text>
<text text-anchor="start" x="64.5" y="-138" font-family="Times,serif" font-size="10.00">status = &quot;ACTIVE&quot;</text>
</g>
<!-- b&#45;&gt;e172231e_629d_4c1b_be5f_b54139ff2120 -->
<g id="edge8" class="edge">
<title>b&#45;&gt;e172231e_629d_4c1b_be5f_b54139ff2120</title>
<path fill="none" stroke="black" d="M819.98,-304.27C611.84,-295.02 419.01,-280.08 318.5,-256 313.7,-254.85 308.87,-253.54 304.03,-252.09"/>
<text text-anchor="middle" x="321.52" y="-255.09" font-family="Times,serif" font-size="10.00">accounts</text>
<text text-anchor="middle" x="810.26" y="-307.27" font-family="Times,serif" font-size="10.00">bank</text>
</g>
<!-- 643946d5_d776_40e0_8d35_5499a87f1824 -->
<g id="node10" class="node">
<title>643946d5_d776_40e0_8d35_5499a87f1824</title>
<polygon fill="none" stroke="black" points="368.5,-234 368.5,-252 606.5,-252 606.5,-234 368.5,-234"/>
<text text-anchor="start" x="382.66" y="-241" font-family="Times,serif" text-decoration="underline" font-size="10.00">643946d5&#45;d776&#45;40e0&#45;8d35&#45;5499a87f1824 :Account</text>
<polygon fill="none" stroke="black" points="368.5,-132 368.5,-234 606.5,-234 606.5,-132 368.5,-132"/>
<text text-anchor="start" x="371.5" y="-222" font-family="Times,serif" font-size="10.00">balance = 0.0</text>
<text text-anchor="start" x="371.5" y="-210" font-family="Times,serif" font-size="10.00">count = 0</text>
<text text-anchor="start" x="371.5" y="-198" font-family="Times,serif" font-size="10.00">customerId = &quot;21eb2d43&#45;1a04&#45;430f&#45;b8a5&#45;5612d60a883c&quot;</text>
<text text-anchor="start" x="371.5" y="-186" font-family="Times,serif" font-size="10.00">iban = &quot;EE498930772301307533&quot;</text>
<text text-anchor="start" x="371.5" y="-174" font-family="Times,serif" font-size="10.00">id = &quot;643946d5&#45;d776&#45;40e0&#45;8d35&#45;5499a87f1824&quot;</text>
<text text-anchor="start" x="371.5" y="-162" font-family="Times,serif" font-size="10.00">receivedTransaction = </text>
<text text-anchor="start" x="371.5" y="-150" font-family="Times,serif" font-size="10.00">sentTransaction = </text>
<text text-anchor="start" x="371.5" y="-138" font-family="Times,serif" font-size="10.00">status = &quot;ACTIVE&quot;</text>
</g>
<!-- b&#45;&gt;643946d5_d776_40e0_8d35_5499a87f1824 -->
<g id="edge9" class="edge">
<title>b&#45;&gt;643946d5_d776_40e0_8d35_5499a87f1824</title>
<path fill="none" stroke="black" d="M910.34,-292C789.82,-283.13 684.46,-271.42 623.5,-256 620.6,-255.27 617.68,-254.47 614.76,-253.62"/>
<text text-anchor="middle" x="632.25" y="-256.62" font-family="Times,serif" font-size="10.00">accounts</text>
<text text-anchor="middle" x="900.62" y="-283" font-family="Times,serif" font-size="10.00">bank</text>
</g>
<!-- sendItToTheBank -->
<g id="node11" class="node">
<title>sendItToTheBank</title>
<polygon fill="none" stroke="black" points="1222.5,-234 1222.5,-252 1339.5,-252 1339.5,-234 1222.5,-234"/>
<text text-anchor="start" x="1225.32" y="-241" font-family="Times,serif" text-decoration="underline" font-size="10.00">sendItToTheBank :Account</text>
<polygon fill="none" stroke="black" points="1222.5,-132 1222.5,-234 1339.5,-234 1339.5,-132 1222.5,-132"/>
<text text-anchor="start" x="1231.61" y="-222" font-family="Times,serif" font-size="10.00">balance = 69420.0</text>
<text text-anchor="start" x="1231.61" y="-210" font-family="Times,serif" font-size="10.00">count = 0</text>
<text text-anchor="start" x="1231.61" y="-198" font-family="Times,serif" font-size="10.00">customerId = &quot;&quot;</text>
<text text-anchor="start" x="1231.61" y="-186" font-family="Times,serif" font-size="10.00">iban = &quot;&quot;</text>
<text text-anchor="start" x="1231.61" y="-174" font-family="Times,serif" font-size="10.00">id = &quot;sendItToTheBank&quot;</text>
<text text-anchor="start" x="1231.61" y="-162" font-family="Times,serif" font-size="10.00">receivedTransaction = </text>
<text text-anchor="start" x="1231.61" y="-150" font-family="Times,serif" font-size="10.00">sentTransaction = </text>
<text text-anchor="start" x="1231.61" y="-138" font-family="Times,serif" font-size="10.00">status = &quot;ACTIVE&quot;</text>
</g>
<!-- b&#45;&gt;sendItToTheBank -->
<g id="edge10" class="edge">
<title>b&#45;&gt;sendItToTheBank</title>
<path fill="none" stroke="black" d="M1456.93,-291.98C1422.18,-283.15 1386.96,-271.45 1355.5,-256 1352.75,-254.65 1350.02,-253.18 1347.32,-251.61"/>
<text text-anchor="middle" x="1373.97" y="-254.61" font-family="Times,serif" font-size="10.00">bankAccount</text>
<text text-anchor="middle" x="1447.21" y="-282.98" font-family="Times,serif" font-size="10.00">bank</text>
</g>
<!-- b9241394_65dc_4df2_aff2_02ce8883a1cc -->
<g id="node12" class="node">
<title>b9241394_65dc_4df2_aff2_02ce8883a1cc</title>
<polygon fill="none" stroke="black" points="1373.5,-234 1373.5,-252 1608.5,-252 1608.5,-234 1373.5,-234"/>
<text text-anchor="start" x="1389.23" y="-241" font-family="Times,serif" text-decoration="underline" font-size="10.00">b9241394&#45;65dc&#45;4df2&#45;aff2&#45;02ce8883a1cc :Account</text>
<polygon fill="none" stroke="black" points="1373.5,-132 1373.5,-234 1608.5,-234 1608.5,-132 1373.5,-132"/>
<text text-anchor="start" x="1376.5" y="-222" font-family="Times,serif" font-size="10.00">balance = 0.0</text>
<text text-anchor="start" x="1376.5" y="-210" font-family="Times,serif" font-size="10.00">count = 0</text>
<text text-anchor="start" x="1376.5" y="-198" font-family="Times,serif" font-size="10.00">customerId = &quot;91c6fc4b&#45;e762&#45;4f6d&#45;9c0b&#45;4598162847fd&quot;</text>
<text text-anchor="start" x="1376.5" y="-186" font-family="Times,serif" font-size="10.00">iban = &quot;EE582847619919000092&quot;</text>
<text text-anchor="start" x="1376.5" y="-174" font-family="Times,serif" font-size="10.00">id = &quot;b9241394&#45;65dc&#45;4df2&#45;aff2&#45;02ce8883a1cc&quot;</text>
<text text-anchor="start" x="1376.5" y="-162" font-family="Times,serif" font-size="10.00">receivedTransaction = </text>
<text text-anchor="start" x="1376.5" y="-150" font-family="Times,serif" font-size="10.00">sentTransaction = </text>
<text text-anchor="start" x="1376.5" y="-138" font-family="Times,serif" font-size="10.00">status = &quot;ACTIVE&quot;</text>
</g>
<!-- b&#45;&gt;b9241394_65dc_4df2_aff2_02ce8883a1cc -->
<g id="edge11" class="edge">
<title>b&#45;&gt;b9241394_65dc_4df2_aff2_02ce8883a1cc</title>
<path fill="none" stroke="black" d="M1611.46,-291.97C1598.56,-281.41 1583.18,-268.83 1567.78,-256.23"/>
<text text-anchor="middle" x="1550.29" y="-259.23" font-family="Times,serif" font-size="10.00">accounts</text>
<text text-anchor="middle" x="1601.74" y="-282.97" font-family="Times,serif" font-size="10.00">bank</text>
</g>
<!-- 64d2b6ad_1faa_48df_8f99_6857c8ed1721 -->
<g id="node13" class="node">
<title>64d2b6ad_1faa_48df_8f99_6857c8ed1721</title>
<polygon fill="none" stroke="black" points="1991.5,-234 1991.5,-252 2228.5,-252 2228.5,-234 1991.5,-234"/>
<text text-anchor="start" x="2007.67" y="-241" font-family="Times,serif" text-decoration="underline" font-size="10.00">64d2b6ad&#45;1faa&#45;48df&#45;8f99&#45;6857c8ed1721 :Account</text>
<polygon fill="none" stroke="black" points="1991.5,-132 1991.5,-234 2228.5,-234 2228.5,-132 1991.5,-132"/>
<text text-anchor="start" x="1994.5" y="-222" font-family="Times,serif" font-size="10.00">balance = 0.0</text>
<text text-anchor="start" x="1994.5" y="-210" font-family="Times,serif" font-size="10.00">count = 0</text>
<text text-anchor="start" x="1994.5" y="-198" font-family="Times,serif" font-size="10.00">customerId = &quot;157ec70c&#45;4e73&#45;4934&#45;88dc&#45;d5508f1a2cdd&quot;</text>
<text text-anchor="start" x="1994.5" y="-186" font-family="Times,serif" font-size="10.00">iban = &quot;EE861841777016350585&quot;</text>
<text text-anchor="start" x="1994.5" y="-174" font-family="Times,serif" font-size="10.00">id = &quot;64d2b6ad&#45;1faa&#45;48df&#45;8f99&#45;6857c8ed1721&quot;</text>
<text text-anchor="start" x="1994.5" y="-162" font-family="Times,serif" font-size="10.00">receivedTransaction = </text>
<text text-anchor="start" x="1994.5" y="-150" font-family="Times,serif" font-size="10.00">sentTransaction = </text>
<text text-anchor="start" x="1994.5" y="-138" font-family="Times,serif" font-size="10.00">status = &quot;ACTIVE&quot;</text>
</g>
<!-- b&#45;&gt;64d2b6ad_1faa_48df_8f99_6857c8ed1721 -->
<g id="edge12" class="edge">
<title>b&#45;&gt;64d2b6ad_1faa_48df_8f99_6857c8ed1721</title>
<path fill="none" stroke="black" d="M1822.47,-291.95C1870.43,-282.63 1921.92,-270.72 1968.5,-256 1973.23,-254.51 1978.01,-252.9 1982.81,-251.2"/>
<text text-anchor="middle" x="1965.32" y="-254.2" font-family="Times,serif" font-size="10.00">accounts</text>
<text text-anchor="middle" x="1812.75" y="-282.95" font-family="Times,serif" font-size="10.00">bank</text>
</g>
<!-- 77ad7a5e_377a_4443_9785_a492488f20b0 -->
<g id="node14" class="node">
<title>77ad7a5e_377a_4443_9785_a492488f20b0</title>
<polygon fill="none" stroke="black" points="640.5,-216 640.5,-234 876.5,-234 876.5,-216 640.5,-216"/>
<text text-anchor="start" x="643.39" y="-223" font-family="Times,serif" text-decoration="underline" font-size="10.00">77ad7a5e&#45;377a&#45;4443&#45;9785&#45;a492488f20b0 :Administrator</text>
<polygon fill="none" stroke="black" points="640.5,-150 640.5,-216 876.5,-216 876.5,-150 640.5,-150"/>
<text text-anchor="start" x="660.79" y="-204" font-family="Times,serif" font-size="10.00">email = &quot;admin@bank.ee&quot;</text>
<text text-anchor="start" x="660.79" y="-192" font-family="Times,serif" font-size="10.00">firstName = &quot;Admin&quot;</text>
<text text-anchor="start" x="660.79" y="-180" font-family="Times,serif" font-size="10.00">id = &quot;77ad7a5e&#45;377a&#45;4443&#45;9785&#45;a492488f20b0&quot;</text>
<text text-anchor="start" x="660.79" y="-168" font-family="Times,serif" font-size="10.00">lastName = &quot;ALice&quot;</text>
<text text-anchor="start" x="660.79" y="-156" font-family="Times,serif" font-size="10.00">password = &quot;secure_p@ssw0|2d&quot;</text>
</g>
<!-- b&#45;&gt;77ad7a5e_377a_4443_9785_a492488f20b0 -->
<g id="edge13" class="edge">
<title>b&#45;&gt;77ad7a5e_377a_4443_9785_a492488f20b0</title>
<path fill="none" stroke="black" d="M1176.8,-291.99C1061.11,-282.48 954.33,-270.47 898.5,-256 881.34,-251.55 863.65,-245.17 846.86,-238.15"/>
<text text-anchor="middle" x="818.26" y="-241.15" font-family="Times,serif" font-size="10.00">administrators</text>
<text text-anchor="middle" x="1167.08" y="-282.99" font-family="Times,serif" font-size="10.00">bank</text>
</g>
<!-- 21eb2d43_1a04_430f_b8a5_5612d60a883c -->
<g id="node15" class="node">
<title>21eb2d43_1a04_430f_b8a5_5612d60a883c</title>
<polygon fill="none" stroke="black" points="285.5,-70 285.5,-88 504.5,-88 504.5,-70 285.5,-70"/>
<text text-anchor="start" x="288.5" y="-77" font-family="Times,serif" text-decoration="underline" font-size="10.00">21eb2d43&#45;1a04&#45;430f&#45;b8a5&#45;5612d60a883c :Customer</text>
<polygon fill="none" stroke="black" points="285.5,-4 285.5,-70 504.5,-70 504.5,-4 285.5,-4"/>
<text text-anchor="start" x="297.29" y="-58" font-family="Times,serif" font-size="10.00">email = &quot;ASDSD@ASDbuASmdDSDe.com&quot;</text>
<text text-anchor="start" x="297.29" y="-46" font-family="Times,serif" font-size="10.00">firstName = &quot;gaASDSSDF&quot;</text>
<text text-anchor="start" x="297.29" y="-34" font-family="Times,serif" font-size="10.00">id = &quot;21eb2d43&#45;1a04&#45;430f&#45;b8a5&#45;5612d60a883c&quot;</text>
<text text-anchor="start" x="297.29" y="-22" font-family="Times,serif" font-size="10.00">lastName = &quot;DFSDDSA&quot;</text>
<text text-anchor="start" x="297.29" y="-10" font-family="Times,serif" font-size="10.00">password = &quot;MPO4yynMyN&quot;</text>
</g>
<!-- b&#45;&gt;21eb2d43_1a04_430f_b8a5_5612d60a883c -->
<g id="edge14" class="edge">
<title>b&#45;&gt;21eb2d43_1a04_430f_b8a5_5612d60a883c</title>
<path fill="none" stroke="black" d="M819.79,-300.35C577.48,-290.76 371.12,-276.6 351.5,-256 309.85,-212.28 338.67,-139.5 365.11,-92.4"/>
<text text-anchor="middle" x="344.84" y="-95.4" font-family="Times,serif" font-size="10.00">customers</text>
<text text-anchor="middle" x="810.07" y="-291.35" font-family="Times,serif" font-size="10.00">bank</text>
</g>
<!-- a70d08d5_ec28_467a_adaf_6845d3e3ea04 -->
<g id="node16" class="node">
<title>a70d08d5_ec28_467a_adaf_6845d3e3ea04</title>
<polygon fill="none" stroke="black" points="2319.5,-70 2319.5,-88 2535.5,-88 2535.5,-70 2319.5,-70"/>
<text text-anchor="start" x="2322.12" y="-77" font-family="Times,serif" text-decoration="underline" font-size="10.00">a70d08d5&#45;ec28&#45;467a&#45;adaf&#45;6845d3e3ea04 :Customer</text>
<polygon fill="none" stroke="black" points="2319.5,-4 2319.5,-70 2535.5,-70 2535.5,-4 2319.5,-4"/>
<text text-anchor="start" x="2330.91" y="-58" font-family="Times,serif" font-size="10.00">email = &quot;Egjs@bumde.com&quot;</text>
<text text-anchor="start" x="2330.91" y="-46" font-family="Times,serif" font-size="10.00">firstName = &quot;Egjs&quot;</text>
<text text-anchor="start" x="2330.91" y="-34" font-family="Times,serif" font-size="10.00">id = &quot;a70d08d5&#45;ec28&#45;467a&#45;adaf&#45;6845d3e3ea04&quot;</text>
<text text-anchor="start" x="2330.91" y="-22" font-family="Times,serif" font-size="10.00">lastName = &quot;Bumde&quot;</text>
<text text-anchor="start" x="2330.91" y="-10" font-family="Times,serif" font-size="10.00">password = &quot;kJOIgFvIOW&quot;</text>
</g>
<!-- b&#45;&gt;a70d08d5_ec28_467a_adaf_6845d3e3ea04 -->
<g id="edge15" class="edge">
<title>b&#45;&gt;a70d08d5_ec28_467a_adaf_6845d3e3ea04</title>
<path fill="none" stroke="black" d="M2414.4,-291.96C2481.21,-283.07 2529.16,-271.38 2543.5,-256 2582.3,-214.39 2569.8,-178.44 2543.5,-128 2536.29,-114.17 2525.52,-102.22 2513.4,-92.06"/>
<text text-anchor="middle" x="2493.13" y="-95.06" font-family="Times,serif" font-size="10.00">customers</text>
<text text-anchor="middle" x="2404.68" y="-282.96" font-family="Times,serif" font-size="10.00">bank</text>
</g>
<!-- 5d021ce0_a6c8_45e9_ac0f_c2d6d7785ddf -->
<g id="node17" class="node">
<title>5d021ce0_a6c8_45e9_ac0f_c2d6d7785ddf</title>
<polygon fill="none" stroke="black" points="8.5,-70 8.5,-88 223.5,-88 223.5,-70 8.5,-70"/>
<text text-anchor="start" x="11.18" y="-77" font-family="Times,serif" text-decoration="underline" font-size="10.00">5d021ce0&#45;a6c8&#45;45e9&#45;ac0f&#45;c2d6d7785ddf :Customer</text>
<polygon fill="none" stroke="black" points="8.5,-4 8.5,-70 223.5,-70 223.5,-4 8.5,-4"/>
<text text-anchor="start" x="19.97" y="-58" font-family="Times,serif" font-size="10.00">email = &quot;SD@ASDbuASmdDSDe.com&quot;</text>
<text text-anchor="start" x="19.97" y="-46" font-family="Times,serif" font-size="10.00">firstName = &quot;gaASDSSDF&quot;</text>
<text text-anchor="start" x="19.97" y="-34" font-family="Times,serif" font-size="10.00">id = &quot;5d021ce0&#45;a6c8&#45;45e9&#45;ac0f&#45;c2d6d7785ddf&quot;</text>
<text text-anchor="start" x="19.97" y="-22" font-family="Times,serif" font-size="10.00">lastName = &quot;DFSDDSA&quot;</text>
<text text-anchor="start" x="19.97" y="-10" font-family="Times,serif" font-size="10.00">password = &quot;8o45xEnM0B&quot;</text>
</g>
<!-- b&#45;&gt;5d021ce0_a6c8_45e9_ac0f_c2d6d7785ddf -->
<g id="edge16" class="edge">
<title>b&#45;&gt;5d021ce0_a6c8_45e9_ac0f_c2d6d7785ddf</title>
<path fill="none" stroke="black" d="M819.97,-310.6C443.14,-302.55 73.11,-286.8 43.5,-256 4.07,-214.99 23.28,-181.18 43.5,-128 48.38,-115.16 56.33,-103.06 65.21,-92.32"/>
<text text-anchor="middle" x="44.94" y="-95.32" font-family="Times,serif" font-size="10.00">customers</text>
<text text-anchor="middle" x="810.25" y="-313.6" font-family="Times,serif" font-size="10.00">bank</text>
</g>
<!-- 6e3cd55b_b55d_4c1c_a631_b801fc915401 -->
<g id="node18" class="node">
<title>6e3cd55b_b55d_4c1c_a631_b801fc915401</title>
<polygon fill="none" stroke="black" points="1719.5,-70 1719.5,-88 1937.5,-88 1937.5,-70 1719.5,-70"/>
<text text-anchor="start" x="1722.28" y="-77" font-family="Times,serif" text-decoration="underline" font-size="10.00">6e3cd55b&#45;b55d&#45;4c1c&#45;a631&#45;b801fc915401 :Customer</text>
<polygon fill="none" stroke="black" points="1719.5,-4 1719.5,-70 1937.5,-70 1937.5,-4 1719.5,-4"/>
<text text-anchor="start" x="1731.07" y="-58" font-family="Times,serif" font-size="10.00">email = &quot;SD@buASmdDSDe.com&quot;</text>
<text text-anchor="start" x="1731.07" y="-46" font-family="Times,serif" font-size="10.00">firstName = &quot;gaASDSSDF&quot;</text>
<text text-anchor="start" x="1731.07" y="-34" font-family="Times,serif" font-size="10.00">id = &quot;6e3cd55b&#45;b55d&#45;4c1c&#45;a631&#45;b801fc915401&quot;</text>
<text text-anchor="start" x="1731.07" y="-22" font-family="Times,serif" font-size="10.00">lastName = &quot;DFSDDSA&quot;</text>
<text text-anchor="start" x="1731.07" y="-10" font-family="Times,serif" font-size="10.00">password = &quot;XwglsWexlk&quot;</text>
</g>
<!-- b&#45;&gt;6e3cd55b_b55d_4c1c_a631_b801fc915401 -->
<g id="edge17" class="edge">
<title>b&#45;&gt;6e3cd55b_b55d_4c1c_a631_b801fc915401</title>
<path fill="none" stroke="black" d="M1855.86,-291.95C1892.71,-282.97 1923.21,-271.24 1935.5,-256 1971.22,-211.72 1960.83,-178.94 1935.5,-128 1928.71,-114.34 1918.38,-102.36 1906.78,-92.11"/>
<text text-anchor="middle" x="1886.51" y="-95.11" font-family="Times,serif" font-size="10.00">customers</text>
<text text-anchor="middle" x="1846.14" y="-282.95" font-family="Times,serif" font-size="10.00">bank</text>
</g>
<!-- 91c6fc4b_e762_4f6d_9c0b_4598162847fd -->
<g id="node19" class="node">
<title>91c6fc4b_e762_4f6d_9c0b_4598162847fd</title>
<polygon fill="none" stroke="black" points="1447.5,-70 1447.5,-88 1663.5,-88 1663.5,-70 1447.5,-70"/>
<text text-anchor="start" x="1450.39" y="-77" font-family="Times,serif" text-decoration="underline" font-size="10.00">91c6fc4b&#45;e762&#45;4f6d&#45;9c0b&#45;4598162847fd :Customer</text>
<polygon fill="none" stroke="black" points="1447.5,-4 1447.5,-70 1663.5,-70 1663.5,-4 1447.5,-4"/>
<text text-anchor="start" x="1459.18" y="-58" font-family="Times,serif" font-size="10.00">email = &quot;SD@bumdSDe.com&quot;</text>
<text text-anchor="start" x="1459.18" y="-46" font-family="Times,serif" font-size="10.00">firstName = &quot;gaSDF&quot;</text>
<text text-anchor="start" x="1459.18" y="-34" font-family="Times,serif" font-size="10.00">id = &quot;91c6fc4b&#45;e762&#45;4f6d&#45;9c0b&#45;4598162847fd&quot;</text>
<text text-anchor="start" x="1459.18" y="-22" font-family="Times,serif" font-size="10.00">lastName = &quot;ASDGASD&quot;</text>
<text text-anchor="start" x="1459.18" y="-10" font-family="Times,serif" font-size="10.00">password = &quot;nKmNEdLM2M&quot;</text>
</g>
<!-- b&#45;&gt;91c6fc4b_e762_4f6d_9c0b_4598162847fd -->
<g id="edge18" class="edge">
<title>b&#45;&gt;91c6fc4b_e762_4f6d_9c0b_4598162847fd</title>
<path fill="none" stroke="black" d="M1646.57,-291.8C1648.42,-253.58 1647.88,-182.55 1624.5,-128 1619.04,-115.27 1610.86,-103.04 1602.02,-92.12"/>
<text text-anchor="middle" x="1581.75" y="-95.12" font-family="Times,serif" font-size="10.00">customers</text>
<text text-anchor="middle" x="1636.85" y="-282.8" font-family="Times,serif" font-size="10.00">bank</text>
</g>
<!-- 8bd34921_c54a_45db_b0b0_fd24d38a9a40 -->
<g id="node20" class="node">
<title>8bd34921_c54a_45db_b0b0_fd24d38a9a40</title>
<polygon fill="none" stroke="black" points="874.5,-70 874.5,-88 1093.5,-88 1093.5,-70 874.5,-70"/>
<text text-anchor="start" x="877.22" y="-77" font-family="Times,serif" text-decoration="underline" font-size="10.00">8bd34921&#45;c54a&#45;45db&#45;b0b0&#45;fd24d38a9a40 :Customer</text>
<polygon fill="none" stroke="black" points="874.5,-4 874.5,-70 1093.5,-70 1093.5,-4 874.5,-4"/>
<text text-anchor="start" x="886.01" y="-58" font-family="Times,serif" font-size="10.00">email = &quot;SD@bumdDSDe.com&quot;</text>
<text text-anchor="start" x="886.01" y="-46" font-family="Times,serif" font-size="10.00">firstName = &quot;gaSSDF&quot;</text>
<text text-anchor="start" x="886.01" y="-34" font-family="Times,serif" font-size="10.00">id = &quot;8bd34921&#45;c54a&#45;45db&#45;b0b0&#45;fd24d38a9a40&quot;</text>
<text text-anchor="start" x="886.01" y="-22" font-family="Times,serif" font-size="10.00">lastName = &quot;DFDSA&quot;</text>
<text text-anchor="start" x="886.01" y="-10" font-family="Times,serif" font-size="10.00">password = &quot;vebptuDwoS&quot;</text>
</g>
<!-- b&#45;&gt;8bd34921_c54a_45db_b0b0_fd24d38a9a40 -->
<g id="edge19" class="edge">
<title>b&#45;&gt;8bd34921_c54a_45db_b0b0_fd24d38a9a40</title>
<path fill="none" stroke="black" d="M1077.1,-291.99C1001.92,-283.16 945.66,-271.47 931.5,-256 893.08,-214.04 915.49,-182.59 931.5,-128 935.12,-115.65 941.27,-103.41 948.1,-92.31"/>
<text text-anchor="middle" x="927.82" y="-95.31" font-family="Times,serif" font-size="10.00">customers</text>
<text text-anchor="middle" x="1067.38" y="-282.99" font-family="Times,serif" font-size="10.00">bank</text>
</g>
<!-- 67b83f8f_3613_497c_9186_503f6a3679d2 -->
<g id="node21" class="node">
<title>67b83f8f_3613_497c_9186_503f6a3679d2</title>
<polygon fill="none" stroke="black" points="2695.5,-70 2695.5,-88 2912.5,-88 2912.5,-70 2695.5,-70"/>
<text text-anchor="start" x="2698.33" y="-77" font-family="Times,serif" text-decoration="underline" font-size="10.00">67b83f8f&#45;3613&#45;497c&#45;9186&#45;503f6a3679d2 :Customer</text>
<polygon fill="none" stroke="black" points="2695.5,-4 2695.5,-70 2912.5,-70 2912.5,-4 2695.5,-4"/>
<text text-anchor="start" x="2707.12" y="-58" font-family="Times,serif" font-size="10.00">email = &quot;ASDSD@SD.com&quot;</text>
<text text-anchor="start" x="2707.12" y="-46" font-family="Times,serif" font-size="10.00">firstName = &quot;gaASDSSDF&quot;</text>
<text text-anchor="start" x="2707.12" y="-34" font-family="Times,serif" font-size="10.00">id = &quot;67b83f8f&#45;3613&#45;497c&#45;9186&#45;503f6a3679d2&quot;</text>
<text text-anchor="start" x="2707.12" y="-22" font-family="Times,serif" font-size="10.00">lastName = &quot;DFSDDSA&quot;</text>
<text text-anchor="start" x="2707.12" y="-10" font-family="Times,serif" font-size="10.00">password = &quot;sxIY3VEQYe&quot;</text>
</g>
<!-- b&#45;&gt;67b83f8f_3613_497c_9186_503f6a3679d2 -->
<g id="edge20" class="edge">
<title>b&#45;&gt;67b83f8f_3613_497c_9186_503f6a3679d2</title>
<path fill="none" stroke="black" d="M2469.18,-296.9C2675.75,-287.31 2844.38,-274.03 2861.5,-256 2900.67,-214.75 2878.89,-182.16 2861.5,-128 2857.48,-115.48 2850.74,-103.26 2843.24,-92.26"/>
<text text-anchor="middle" x="2822.97" y="-95.26" font-family="Times,serif" font-size="10.00">customers</text>
<text text-anchor="middle" x="2478.9" y="-287.9" font-family="Times,serif" font-size="10.00">bank</text>
</g>
<!-- 157ec70c_4e73_4934_88dc_d5508f1a2cdd -->
<g id="node22" class="node">
<title>157ec70c_4e73_4934_88dc_d5508f1a2cdd</title>
<polygon fill="none" stroke="black" points="2034.5,-70 2034.5,-88 2251.5,-88 2251.5,-70 2034.5,-70"/>
<text text-anchor="start" x="2037.06" y="-77" font-family="Times,serif" text-decoration="underline" font-size="10.00">157ec70c&#45;4e73&#45;4934&#45;88dc&#45;d5508f1a2cdd :Customer</text>
<polygon fill="none" stroke="black" points="2034.5,-4 2034.5,-70 2251.5,-70 2251.5,-4 2034.5,-4"/>
<text text-anchor="start" x="2045.85" y="-58" font-family="Times,serif" font-size="10.00">email = &quot;HJ@SD.com&quot;</text>
<text text-anchor="start" x="2045.85" y="-46" font-family="Times,serif" font-size="10.00">firstName = &quot;gaASDSSDF&quot;</text>
<text text-anchor="start" x="2045.85" y="-34" font-family="Times,serif" font-size="10.00">id = &quot;157ec70c&#45;4e73&#45;4934&#45;88dc&#45;d5508f1a2cdd&quot;</text>
<text text-anchor="start" x="2045.85" y="-22" font-family="Times,serif" font-size="10.00">lastName = &quot;DFSDDSA&quot;</text>
<text text-anchor="start" x="2045.85" y="-10" font-family="Times,serif" font-size="10.00">password = &quot;oowVsQd8RN&quot;</text>
</g>
<!-- b&#45;&gt;157ec70c_4e73_4934_88dc_d5508f1a2cdd -->
<g id="edge21" class="edge">
<title>b&#45;&gt;157ec70c_4e73_4934_88dc_d5508f1a2cdd</title>
<path fill="none" stroke="black" d="M2384.07,-291.94C2452.12,-283.09 2501.17,-271.4 2515.5,-256 2554.25,-214.35 2552.22,-171.45 2515.5,-128 2484.51,-91.34 2349.34,-102.51 2302.5,-92 2288.42,-88.84 2273.74,-85.2 2259.23,-81.38"/>
<text text-anchor="middle" x="2279.5" y="-84.38" font-family="Times,serif" font-size="10.00">customers</text>
<text text-anchor="middle" x="2374.35" y="-282.94" font-family="Times,serif" font-size="10.00">bank</text>
</g>
<!-- c95c6fe2_1742_40a2_9dfa_f0dcc90243d0&#45;&gt;c -->
<g id="edge23" class="edge">
<title>c95c6fe2_1742_40a2_9dfa_f0dcc90243d0&#45;&gt;c</title>
<path fill="none" stroke="black" d="M2254.2,-130.31C2251.29,-129.48 2248.39,-128.71 2245.5,-128 1893.35,-41.68 1786.12,-162.66 1430.5,-92 1404.44,-86.82 1376.54,-77.1 1353.81,-68.01"/>
<text text-anchor="middle" x="1336.33" y="-71.01" font-family="Times,serif" font-size="10.00">currency</text>
</g>
<!-- c95c6fe2_1742_40a2_9dfa_f0dcc90243d0&#45;&gt;a70d08d5_ec28_467a_adaf_6845d3e3ea04 -->
<g id="edge24" class="edge">
<title>c95c6fe2_1742_40a2_9dfa_f0dcc90243d0&#45;&gt;a70d08d5_ec28_467a_adaf_6845d3e3ea04</title>
<path fill="none" stroke="black" d="M2401.11,-127.84C2405.01,-115.9 2409.02,-103.63 2412.69,-92.37"/>
<text text-anchor="middle" x="2400.2" y="-95.37" font-family="Times,serif" font-size="10.00">owner</text>
<text text-anchor="middle" x="2385.57" y="-118.84" font-family="Times,serif" font-size="10.00">account</text>
</g>
<!-- bf79c166_c5aa_428e_8e43_627e62335724&#45;&gt;c -->
<g id="edge25" class="edge">
<title>bf79c166_c5aa_428e_8e43_627e62335724&#45;&gt;c</title>
<path fill="none" stroke="black" d="M2600.26,-147.57C2572.63,-139.69 2543.33,-132.54 2515.5,-128 2039.3,-50.34 1904.25,-183.43 1430.5,-92 1404.3,-86.94 1376.27,-77.17 1353.5,-68.02"/>
<text text-anchor="middle" x="1370.98" y="-71.02" font-family="Times,serif" font-size="10.00">currency</text>
</g>
<!-- bf79c166_c5aa_428e_8e43_627e62335724&#45;&gt;67b83f8f_3613_497c_9186_503f6a3679d2 -->
<g id="edge26" class="edge">
<title>bf79c166_c5aa_428e_8e43_627e62335724&#45;&gt;67b83f8f_3613_497c_9186_503f6a3679d2</title>
<path fill="none" stroke="black" d="M2760.27,-127.84C2766.66,-115.9 2773.22,-103.63 2779.24,-92.37"/>
<text text-anchor="middle" x="2766.74" y="-95.37" font-family="Times,serif" font-size="10.00">owner</text>
<text text-anchor="middle" x="2744.73" y="-118.84" font-family="Times,serif" font-size="10.00">account</text>
</g>
<!-- 6637a81a_4aa3_4efe_ade9_4cfacc9b3975&#45;&gt;c -->
<g id="edge27" class="edge">
<title>6637a81a_4aa3_4efe_ade9_4cfacc9b3975&#45;&gt;c</title>
<path fill="none" stroke="black" d="M1172.89,-127.84C1208.36,-106.38 1245.59,-83.85 1271.71,-68.05"/>
<text text-anchor="middle" x="1254.23" y="-71.05" font-family="Times,serif" font-size="10.00">currency</text>
</g>
<!-- 6637a81a_4aa3_4efe_ade9_4cfacc9b3975&#45;&gt;8bd34921_c54a_45db_b0b0_fd24d38a9a40 -->
<g id="edge28" class="edge">
<title>6637a81a_4aa3_4efe_ade9_4cfacc9b3975&#45;&gt;8bd34921_c54a_45db_b0b0_fd24d38a9a40</title>
<path fill="none" stroke="black" d="M1031.22,-127.84C1024.17,-115.9 1016.93,-103.63 1010.28,-92.37"/>
<text text-anchor="middle" x="997.79" y="-95.37" font-family="Times,serif" font-size="10.00">owner</text>
<text text-anchor="middle" x="1015.67" y="-118.84" font-family="Times,serif" font-size="10.00">account</text>
</g>
<!-- fef96271_fd9c_493a_abd7_3bf7aef18657&#45;&gt;c -->
<g id="edge29" class="edge">
<title>fef96271_fd9c_493a_abd7_3bf7aef18657&#45;&gt;c</title>
<path fill="none" stroke="black" d="M1672.19,-142.47C1656.26,-137.2 1640.08,-132.22 1624.5,-128 1539.86,-105.07 1515.11,-115.04 1430.5,-92 1406.52,-85.47 1380.6,-76.4 1358.68,-68.1"/>
<text text-anchor="middle" x="1376.17" y="-71.1" font-family="Times,serif" font-size="10.00">currency</text>
</g>
<!-- fef96271_fd9c_493a_abd7_3bf7aef18657&#45;&gt;6e3cd55b_b55d_4c1c_a631_b801fc915401 -->
<g id="edge30" class="edge">
<title>fef96271_fd9c_493a_abd7_3bf7aef18657&#45;&gt;6e3cd55b_b55d_4c1c_a631_b801fc915401</title>
<path fill="none" stroke="black" d="M1812.22,-127.84C1814.62,-115.9 1817.1,-103.63 1819.36,-92.37"/>
<text text-anchor="middle" x="1806.87" y="-95.37" font-family="Times,serif" font-size="10.00">owner</text>
<text text-anchor="middle" x="1796.67" y="-118.84" font-family="Times,serif" font-size="10.00">account</text>
</g>
<!-- e172231e_629d_4c1b_be5f_b54139ff2120&#45;&gt;c -->
<g id="edge31" class="edge">
<title>e172231e_629d_4c1b_be5f_b54139ff2120&#45;&gt;c</title>
<path fill="none" stroke="black" d="M304.32,-140.24C320.01,-135.39 335.99,-131.12 351.5,-128 682.16,-61.54 775.35,-137.73 1109.5,-92 1149.3,-86.55 1192.9,-76.98 1228.95,-68.05"/>
<text text-anchor="middle" x="1211.46" y="-59.05" font-family="Times,serif" font-size="10.00">currency</text>
</g>
<!-- e172231e_629d_4c1b_be5f_b54139ff2120&#45;&gt;5d021ce0_a6c8_45e9_ac0f_c2d6d7785ddf -->
<g id="edge32" class="edge">
<title>e172231e_629d_4c1b_be5f_b54139ff2120&#45;&gt;5d021ce0_a6c8_45e9_ac0f_c2d6d7785ddf</title>
<path fill="none" stroke="black" d="M150.87,-127.84C145.64,-115.9 140.28,-103.63 135.35,-92.37"/>
<text text-anchor="middle" x="122.86" y="-95.37" font-family="Times,serif" font-size="10.00">owner</text>
<text text-anchor="middle" x="135.32" y="-118.84" font-family="Times,serif" font-size="10.00">account</text>
</g>
<!-- 643946d5_d776_40e0_8d35_5499a87f1824&#45;&gt;c -->
<g id="edge33" class="edge">
<title>643946d5_d776_40e0_8d35_5499a87f1824&#45;&gt;c</title>
<path fill="none" stroke="black" d="M614.77,-130.43C617.69,-129.56 620.6,-128.75 623.5,-128 833.15,-73.6 895.32,-124.21 1109.5,-92 1148.53,-86.13 1191.3,-76.73 1226.99,-68.03"/>
<text text-anchor="middle" x="1209.5" y="-71.03" font-family="Times,serif" font-size="10.00">currency</text>
</g>
<!-- 643946d5_d776_40e0_8d35_5499a87f1824&#45;&gt;21eb2d43_1a04_430f_b8a5_5612d60a883c -->
<g id="edge34" class="edge">
<title>643946d5_d776_40e0_8d35_5499a87f1824&#45;&gt;21eb2d43_1a04_430f_b8a5_5612d60a883c</title>
<path fill="none" stroke="black" d="M446.71,-127.84C439,-115.9 431.07,-103.63 423.8,-92.37"/>
<text text-anchor="middle" x="411.31" y="-95.37" font-family="Times,serif" font-size="10.00">owner</text>
<text text-anchor="middle" x="431.16" y="-118.84" font-family="Times,serif" font-size="10.00">account</text>
</g>
<!-- sendItToTheBank&#45;&gt;c -->
<g id="edge35" class="edge">
<title>sendItToTheBank&#45;&gt;c</title>
<path fill="none" stroke="black" d="M1291.9,-127.84C1295.78,-106.38 1299.85,-83.85 1302.7,-68.05"/>
<text text-anchor="middle" x="1285.21" y="-71.05" font-family="Times,serif" font-size="10.00">currency</text>
</g>
<!-- b9241394_65dc_4df2_aff2_02ce8883a1cc&#45;&gt;c -->
<g id="edge36" class="edge">
<title>b9241394_65dc_4df2_aff2_02ce8883a1cc&#45;&gt;c</title>
<path fill="none" stroke="black" d="M1409.79,-127.84C1382.37,-106.38 1353.59,-83.85 1333.39,-68.05"/>
<text text-anchor="middle" x="1315.91" y="-71.05" font-family="Times,serif" font-size="10.00">currency</text>
</g>
<!-- b9241394_65dc_4df2_aff2_02ce8883a1cc&#45;&gt;91c6fc4b_e762_4f6d_9c0b_4598162847fd -->
<g id="edge37" class="edge">
<title>b9241394_65dc_4df2_aff2_02ce8883a1cc&#45;&gt;91c6fc4b_e762_4f6d_9c0b_4598162847fd</title>
<path fill="none" stroke="black" d="M1519.01,-127.84C1524.4,-115.9 1529.94,-103.63 1535.02,-92.37"/>
<text text-anchor="middle" x="1522.53" y="-95.37" font-family="Times,serif" font-size="10.00">owner</text>
<text text-anchor="middle" x="1503.46" y="-118.84" font-family="Times,serif" font-size="10.00">account</text>
</g>
<!-- 64d2b6ad_1faa_48df_8f99_6857c8ed1721&#45;&gt;c -->
<g id="edge38" class="edge">
<title>64d2b6ad_1faa_48df_8f99_6857c8ed1721&#45;&gt;c</title>
<path fill="none" stroke="black" d="M1982.87,-140.6C1967.1,-135.69 1951.06,-131.3 1935.5,-128 1715.4,-81.25 1650.59,-138.83 1430.5,-92 1404.85,-86.54 1377.34,-76.97 1354.76,-68.04"/>
<text text-anchor="middle" x="1337.28" y="-59.04" font-family="Times,serif" font-size="10.00">currency</text>
</g>
<!-- 64d2b6ad_1faa_48df_8f99_6857c8ed1721&#45;&gt;157ec70c_4e73_4934_88dc_d5508f1a2cdd -->
<g id="edge39" class="edge">
<title>64d2b6ad_1faa_48df_8f99_6857c8ed1721&#45;&gt;157ec70c_4e73_4934_88dc_d5508f1a2cdd</title>
<path fill="none" stroke="black" d="M2123.97,-127.84C2126.71,-115.9 2129.52,-103.63 2132.1,-92.37"/>
<text text-anchor="middle" x="2119.61" y="-95.37" font-family="Times,serif" font-size="10.00">owner</text>
<text text-anchor="middle" x="2108.43" y="-118.84" font-family="Times,serif" font-size="10.00">account</text>
</g>
</g>
</svg>
