<?xml version="1.0" encoding="UTF-8" standalone="no"?>
<!DOCTYPE svg PUBLIC "-//W3C//DTD SVG 1.1//EN"
 "http://www.w3.org/Graphics/SVG/1.1/DTD/svg11.dtd">
<!-- Generated by graphviz version 2.43.0 (0)
 -->
<!-- Title: model Pages: 1 -->
<svg width="1337px" height="449px"
 viewBox="0.00 0.00 1336.63 449.00" xmlns="http://www.w3.org/2000/svg" xmlns:xlink="http://www.w3.org/1999/xlink">
<g id="graph0" class="graph" transform="scale(1.0 1.0) rotate(0) translate(4 445)">
<title>model</title>
<polygon fill="white" stroke="transparent" points="-4,4 -4,-445 1332.63,-445 1332.63,4 -4,4"/>
<!-- e6095741_0b24_4600_932f_5494fb22c591 -->
<g id="node1" class="node">
<title>e6095741_0b24_4600_932f_5494fb22c591</title>
<polygon fill="none" stroke="black" points="229.13,-420 229.13,-437 463.13,-437 463.13,-420 229.13,-420"/>
<text text-anchor="start" x="232.13" y="-427" font-family="Times,serif" text-decoration="underline" font-size="10.00">e6095741&#45;0b24&#45;4600&#45;932f&#45;5494fb22c591 :Transaction</text>
<polygon fill="none" stroke="black" points="229.13,-359 229.13,-420 463.13,-420 463.13,-359 229.13,-359"/>
<text text-anchor="start" x="245.63" y="-409" font-family="Times,serif" font-size="10.00">amount = 10.0</text>
<text text-anchor="start" x="245.63" y="-398" font-family="Times,serif" font-size="10.00">description = &quot;Fee&quot;</text>
<text text-anchor="start" x="245.63" y="-387" font-family="Times,serif" font-size="10.00">id = &quot;e6095741&#45;0b24&#45;4600&#45;932f&#45;5494fb22c591&quot;</text>
<text text-anchor="start" x="245.63" y="-376" font-family="Times,serif" font-size="10.00">rejectionDescription = &quot;&quot;</text>
<text text-anchor="start" x="245.63" y="-365" font-family="Times,serif" font-size="10.00">timestamp = 2021&#45;12&#45;04T18:20:19.977547327</text>
</g>
<!-- b -->
<g id="node2" class="node">
<title>b</title>
<polygon fill="none" stroke="black" points="382.13,-297.5 382.13,-314.5 1046.13,-314.5 1046.13,-297.5 382.13,-297.5"/>
<text text-anchor="start" x="697.63" y="-304.5" font-family="Times,serif" text-decoration="underline" font-size="10.00">b :Bank</text>
<polygon fill="none" stroke="black" points="382.13,-269.5 382.13,-297.5 1046.13,-297.5 1046.13,-269.5 382.13,-269.5"/>
<text text-anchor="start" x="385.13" y="-286.5" font-family="Times,serif" font-size="10.00">accountsMap = e0f174c0&#45;03d5&#45;4e34&#45;b1e6&#45;5e4560576722sendItToTheBank8a633aa5&#45;907c&#45;4e57&#45;a313&#45;22e0adb2672e7ec351d6&#45;652f&#45;4691&#45;8e72&#45;ea432d44a0c8</text>
<text text-anchor="start" x="385.13" y="-275.5" font-family="Times,serif" font-size="10.00">customerMap = e2f7bc4c&#45;ef2a&#45;466e&#45;b8a5&#45;d24f48b13afe1eaf6f4c&#45;4f92&#45;4e04&#45;bd87&#45;c82be03265de4c7333b7&#45;ea56&#45;41a2&#45;aa50&#45;469c3598d0ae</text>
</g>
<!-- e6095741_0b24_4600_932f_5494fb22c591&#45;&gt;b -->
<g id="edge1" class="edge">
<title>e6095741_0b24_4600_932f_5494fb22c591&#45;&gt;b</title>
<path fill="none" stroke="black" d="M471.23,-361.82C521.13,-347.78 577.5,-331.93 623.36,-319.03"/>
<text text-anchor="middle" x="612.86" y="-322.03" font-family="Times,serif" font-size="10.00">bank</text>
<text text-anchor="middle" x="495.73" y="-364.82" font-family="Times,serif" font-size="10.00">transactions</text>
</g>
<!-- c -->
<g id="node3" class="node">
<title>c</title>
<polygon fill="none" stroke="black" points="328.13,-43 328.13,-60 492.13,-60 492.13,-43 328.13,-43"/>
<text text-anchor="start" x="386.13" y="-50" font-family="Times,serif" text-decoration="underline" font-size="10.00">c :Currency</text>
<polygon fill="none" stroke="black" points="328.13,-26 328.13,-43 492.13,-43 492.13,-26 328.13,-26"/>
<text text-anchor="start" x="331.13" y="-32" font-family="Times,serif" font-size="10.00">declaringClass = class model.Currency</text>
</g>
<!-- e6095741_0b24_4600_932f_5494fb22c591&#45;&gt;c -->
<g id="edge2" class="edge">
<title>e6095741_0b24_4600_932f_5494fb22c591&#45;&gt;c</title>
<path fill="none" stroke="black" d="M220.72,-367.31C148.83,-343.16 64.51,-301.07 21.13,-230 -3.88,-189.03 -9.3,-159.13 21.13,-122 58.18,-76.78 217.13,-57.23 320.03,-49.2"/>
<text text-anchor="middle" x="302.03" y="-52.2" font-family="Times,serif" font-size="10.00">currency</text>
</g>
<!-- sendItToTheBank -->
<g id="node4" class="node">
<title>sendItToTheBank</title>
<polygon fill="none" stroke="black" points="38.13,-209 38.13,-226 312.13,-226 312.13,-209 38.13,-209"/>
<text text-anchor="start" x="118.13" y="-216" font-family="Times,serif" text-decoration="underline" font-size="10.00">sendItToTheBank :Account</text>
<polygon fill="none" stroke="black" points="38.13,-126 38.13,-209 312.13,-209 312.13,-126 38.13,-126"/>
<text text-anchor="start" x="41.13" y="-198" font-family="Times,serif" font-size="10.00">balance = 69430.0</text>
<text text-anchor="start" x="41.13" y="-187" font-family="Times,serif" font-size="10.00">customerId = null</text>
<text text-anchor="start" x="41.13" y="-176" font-family="Times,serif" font-size="10.00">iban = &quot;EE189209008752063403&quot;</text>
<text text-anchor="start" x="41.13" y="-165" font-family="Times,serif" font-size="10.00">id = &quot;sendItToTheBank&quot;</text>
<text text-anchor="start" x="41.13" y="-154" font-family="Times,serif" font-size="10.00">receivedTransaction = e6095741&#45;0b24&#45;4600&#45;932f&#45;5494fb22c591</text>
<text text-anchor="start" x="41.13" y="-143" font-family="Times,serif" font-size="10.00">sentTransaction = </text>
<text text-anchor="start" x="41.13" y="-132" font-family="Times,serif" font-size="10.00">status = &quot;ACTIVE&quot;</text>
</g>
<!-- e6095741_0b24_4600_932f_5494fb22c591&#45;&gt;sendItToTheBank -->
<g id="edge3" class="edge">
<title>e6095741_0b24_4600_932f_5494fb22c591&#45;&gt;sendItToTheBank</title>
<path fill="none" stroke="black" d="M313.36,-354.84C285.82,-319.41 246.3,-268.57 216.56,-230.31"/>
<text text-anchor="middle" x="193.56" y="-233.31" font-family="Times,serif" font-size="10.00">destination</text>
<text text-anchor="middle" x="255.36" y="-346.84" font-family="Times,serif" font-size="10.00">allTransactionsOrderedDesc</text>
</g>
<!-- e0f174c0_03d5_4e34_b1e6_5e4560576722 -->
<g id="node5" class="node">
<title>e0f174c0_03d5_4e34_b1e6_5e4560576722</title>
<polygon fill="none" stroke="black" points="346.13,-209 346.13,-226 602.13,-226 602.13,-209 346.13,-209"/>
<text text-anchor="start" x="366.63" y="-216" font-family="Times,serif" text-decoration="underline" font-size="10.00">e0f174c0&#45;03d5&#45;4e34&#45;b1e6&#45;5e4560576722 :Account</text>
<polygon fill="none" stroke="black" points="346.13,-126 346.13,-209 602.13,-209 602.13,-126 346.13,-126"/>
<text text-anchor="start" x="349.13" y="-198" font-family="Times,serif" font-size="10.00">balance = 90.0</text>
<text text-anchor="start" x="349.13" y="-187" font-family="Times,serif" font-size="10.00">customerId = null</text>
<text text-anchor="start" x="349.13" y="-176" font-family="Times,serif" font-size="10.00">iban = &quot;EE654479412049037358&quot;</text>
<text text-anchor="start" x="349.13" y="-165" font-family="Times,serif" font-size="10.00">id = &quot;e0f174c0&#45;03d5&#45;4e34&#45;b1e6&#45;5e4560576722&quot;</text>
<text text-anchor="start" x="349.13" y="-154" font-family="Times,serif" font-size="10.00">receivedTransaction = </text>
<text text-anchor="start" x="349.13" y="-143" font-family="Times,serif" font-size="10.00">sentTransaction = e6095741&#45;0b24&#45;4600&#45;932f&#45;5494fb22c591</text>
<text text-anchor="start" x="349.13" y="-132" font-family="Times,serif" font-size="10.00">status = &quot;ACTIVE&quot;</text>
</g>
<!-- e6095741_0b24_4600_932f_5494fb22c591&#45;&gt;e0f174c0_03d5_4e34_b1e6_5e4560576722 -->
<g id="edge4" class="edge">
<title>e6095741_0b24_4600_932f_5494fb22c591&#45;&gt;e0f174c0_03d5_4e34_b1e6_5e4560576722</title>
<path fill="none" stroke="black" d="M344.6,-354.96C345.4,-327.95 349.84,-293 365.13,-266 372.59,-252.82 382.83,-240.8 394.06,-230.16"/>
<text text-anchor="middle" x="380.56" y="-233.16" font-family="Times,serif" font-size="10.00">source</text>
<text text-anchor="middle" x="402.6" y="-346.96" font-family="Times,serif" font-size="10.00">allTransactionsOrderedDesc</text>
</g>
<!-- s -->
<g id="node6" class="node">
<title>s</title>
<polygon fill="none" stroke="black" points="1081.13,-292.5 1081.13,-309.5 1286.13,-309.5 1286.13,-292.5 1081.13,-292.5"/>
<text text-anchor="start" x="1166.63" y="-299.5" font-family="Times,serif" text-decoration="underline" font-size="10.00">s :Status</text>
<polygon fill="none" stroke="black" points="1081.13,-275.5 1081.13,-292.5 1286.13,-292.5 1286.13,-275.5 1081.13,-275.5"/>
<text text-anchor="start" x="1084.13" y="-281.5" font-family="Times,serif" font-size="10.00">declaringClass = class model.Transaction$Status</text>
</g>
<!-- e6095741_0b24_4600_932f_5494fb22c591&#45;&gt;s -->
<g id="edge5" class="edge">
<title>e6095741_0b24_4600_932f_5494fb22c591&#45;&gt;s</title>
<path fill="none" stroke="black" d="M471.31,-387.24C614.8,-375.16 856.81,-352.06 1063.13,-319 1073.11,-317.4 1083.53,-315.51 1093.87,-313.51"/>
<text text-anchor="middle" x="1081.87" y="-316.51" font-family="Times,serif" font-size="10.00">status</text>
</g>
<!-- b&#45;&gt;sendItToTheBank -->
<g id="edge6" class="edge">
<title>b&#45;&gt;sendItToTheBank</title>
<path fill="none" stroke="black" d="M511.98,-265.94C452.63,-256.63 387.9,-244.69 329.13,-230 326.25,-229.28 323.34,-228.53 320.42,-227.75"/>
<text text-anchor="middle" x="292.42" y="-230.75" font-family="Times,serif" font-size="10.00">bankAccount</text>
<text text-anchor="middle" x="501.48" y="-257.94" font-family="Times,serif" font-size="10.00">bank</text>
</g>
<!-- b&#45;&gt;e0f174c0_03d5_4e34_b1e6_5e4560576722 -->
<g id="edge9" class="edge">
<title>b&#45;&gt;e0f174c0_03d5_4e34_b1e6_5e4560576722</title>
<path fill="none" stroke="black" d="M660.56,-265.95C638.32,-255.34 611.63,-242.6 585.49,-230.13"/>
<text text-anchor="middle" x="566.99" y="-233.13" font-family="Times,serif" font-size="10.00">accounts</text>
<text text-anchor="middle" x="650.06" y="-257.95" font-family="Times,serif" font-size="10.00">bank</text>
</g>
<!-- 8a633aa5_907c_4e57_a313_22e0adb2672e -->
<g id="node7" class="node">
<title>8a633aa5_907c_4e57_a313_22e0adb2672e</title>
<polygon fill="none" stroke="black" points="980.13,-209 980.13,-226 1218.13,-226 1218.13,-209 980.13,-209"/>
<text text-anchor="start" x="992.13" y="-216" font-family="Times,serif" text-decoration="underline" font-size="10.00">8a633aa5&#45;907c&#45;4e57&#45;a313&#45;22e0adb2672e :Account</text>
<polygon fill="none" stroke="black" points="980.13,-126 980.13,-209 1218.13,-209 1218.13,-126 980.13,-126"/>
<text text-anchor="start" x="983.13" y="-198" font-family="Times,serif" font-size="10.00">balance = 0.0</text>
<text text-anchor="start" x="983.13" y="-187" font-family="Times,serif" font-size="10.00">customerId = &quot;1eaf6f4c&#45;4f92&#45;4e04&#45;bd87&#45;c82be03265de&quot;</text>
<text text-anchor="start" x="983.13" y="-176" font-family="Times,serif" font-size="10.00">iban = null</text>
<text text-anchor="start" x="983.13" y="-165" font-family="Times,serif" font-size="10.00">id = &quot;8a633aa5&#45;907c&#45;4e57&#45;a313&#45;22e0adb2672e&quot;</text>
<text text-anchor="start" x="983.13" y="-154" font-family="Times,serif" font-size="10.00">receivedTransaction = </text>
<text text-anchor="start" x="983.13" y="-143" font-family="Times,serif" font-size="10.00">sentTransaction = </text>
<text text-anchor="start" x="983.13" y="-132" font-family="Times,serif" font-size="10.00">status = &quot;ACTIVE&quot;</text>
</g>
<!-- b&#45;&gt;8a633aa5_907c_4e57_a313_22e0adb2672e -->
<g id="edge7" class="edge">
<title>b&#45;&gt;8a633aa5_907c_4e57_a313_22e0adb2672e</title>
<path fill="none" stroke="black" d="M826.62,-265.95C868.22,-255.77 915.6,-243.31 958.13,-230 962.62,-228.59 967.18,-227.12 971.77,-225.61"/>
<text text-anchor="middle" x="953.27" y="-228.61" font-family="Times,serif" font-size="10.00">accounts</text>
<text text-anchor="middle" x="816.12" y="-257.95" font-family="Times,serif" font-size="10.00">bank</text>
</g>
<!-- 7ec351d6_652f_4691_8e72_ea432d44a0c8 -->
<g id="node8" class="node">
<title>7ec351d6_652f_4691_8e72_ea432d44a0c8</title>
<polygon fill="none" stroke="black" points="674.13,-209 674.13,-226 908.13,-226 908.13,-209 674.13,-209"/>
<text text-anchor="start" x="684.13" y="-216" font-family="Times,serif" text-decoration="underline" font-size="10.00">7ec351d6&#45;652f&#45;4691&#45;8e72&#45;ea432d44a0c8 :Account</text>
<polygon fill="none" stroke="black" points="674.13,-126 674.13,-209 908.13,-209 908.13,-126 674.13,-126"/>
<text text-anchor="start" x="677.13" y="-198" font-family="Times,serif" font-size="10.00">balance = 100.0</text>
<text text-anchor="start" x="677.13" y="-187" font-family="Times,serif" font-size="10.00">customerId = &quot;e2f7bc4c&#45;ef2a&#45;466e&#45;b8a5&#45;d24f48b13afe&quot;</text>
<text text-anchor="start" x="677.13" y="-176" font-family="Times,serif" font-size="10.00">iban = null</text>
<text text-anchor="start" x="677.13" y="-165" font-family="Times,serif" font-size="10.00">id = &quot;7ec351d6&#45;652f&#45;4691&#45;8e72&#45;ea432d44a0c8&quot;</text>
<text text-anchor="start" x="677.13" y="-154" font-family="Times,serif" font-size="10.00">receivedTransaction = </text>
<text text-anchor="start" x="677.13" y="-143" font-family="Times,serif" font-size="10.00">sentTransaction = </text>
<text text-anchor="start" x="677.13" y="-132" font-family="Times,serif" font-size="10.00">status = &quot;ACTIVE&quot;</text>
</g>
<!-- b&#45;&gt;7ec351d6_652f_4691_8e72_ea432d44a0c8 -->
<g id="edge8" class="edge">
<title>b&#45;&gt;7ec351d6_652f_4691_8e72_ea432d44a0c8</title>
<path fill="none" stroke="black" d="M731.41,-265.8C738.5,-255.25 746.99,-242.63 755.32,-230.25"/>
<text text-anchor="middle" x="736.82" y="-233.25" font-family="Times,serif" font-size="10.00">accounts</text>
<text text-anchor="middle" x="720.91" y="-257.8" font-family="Times,serif" font-size="10.00">bank</text>
</g>
<!-- e2f7bc4c_ef2a_466e_b8a5_d24f48b13afe -->
<g id="node9" class="node">
<title>e2f7bc4c_ef2a_466e_b8a5_d24f48b13afe</title>
<polygon fill="none" stroke="black" points="811.13,-65 811.13,-82 1026.13,-82 1026.13,-65 811.13,-65"/>
<text text-anchor="start" x="814.13" y="-72" font-family="Times,serif" text-decoration="underline" font-size="10.00">e2f7bc4c&#45;ef2a&#45;466e&#45;b8a5&#45;d24f48b13afe :Customer</text>
<polygon fill="none" stroke="black" points="811.13,-4 811.13,-65 1026.13,-65 1026.13,-4 811.13,-4"/>
<text text-anchor="start" x="823.13" y="-54" font-family="Times,serif" font-size="10.00">email = &quot;john@doe.ee&quot;</text>
<text text-anchor="start" x="823.13" y="-43" font-family="Times,serif" font-size="10.00">firstName = &quot;John&quot;</text>
<text text-anchor="start" x="823.13" y="-32" font-family="Times,serif" font-size="10.00">id = &quot;e2f7bc4c&#45;ef2a&#45;466e&#45;b8a5&#45;d24f48b13afe&quot;</text>
<text text-anchor="start" x="823.13" y="-21" font-family="Times,serif" font-size="10.00">lastName = &quot;Doe&quot;</text>
<text text-anchor="start" x="823.13" y="-10" font-family="Times,serif" font-size="10.00">password = &quot;pass1234&quot;</text>
</g>
<!-- b&#45;&gt;e2f7bc4c_ef2a_466e_b8a5_d24f48b13afe -->
<g id="edge10" class="edge">
<title>b&#45;&gt;e2f7bc4c_ef2a_466e_b8a5_d24f48b13afe</title>
<path fill="none" stroke="black" d="M848.03,-265.94C883.22,-256.38 914.39,-244.31 925.13,-230 955.96,-188.9 945.79,-127.1 933.66,-86.17"/>
<text text-anchor="middle" x="913.16" y="-89.17" font-family="Times,serif" font-size="10.00">customers</text>
<text text-anchor="middle" x="837.53" y="-257.94" font-family="Times,serif" font-size="10.00">bank</text>
</g>
<!-- 1eaf6f4c_4f92_4e04_bd87_c82be03265de -->
<g id="node10" class="node">
<title>1eaf6f4c_4f92_4e04_bd87_c82be03265de</title>
<polygon fill="none" stroke="black" points="1102.13,-65 1102.13,-82 1321.13,-82 1321.13,-65 1102.13,-65"/>
<text text-anchor="start" x="1105.13" y="-72" font-family="Times,serif" text-decoration="underline" font-size="10.00">1eaf6f4c&#45;4f92&#45;4e04&#45;bd87&#45;c82be03265de :Customer</text>
<polygon fill="none" stroke="black" points="1102.13,-4 1102.13,-65 1321.13,-65 1321.13,-4 1102.13,-4"/>
<text text-anchor="start" x="1114.13" y="-54" font-family="Times,serif" font-size="10.00">email = &quot;bobby@tt.ee&quot;</text>
<text text-anchor="start" x="1114.13" y="-43" font-family="Times,serif" font-size="10.00">firstName = &quot;Bob&quot;</text>
<text text-anchor="start" x="1114.13" y="-32" font-family="Times,serif" font-size="10.00">id = &quot;1eaf6f4c&#45;4f92&#45;4e04&#45;bd87&#45;c82be03265de&quot;</text>
<text text-anchor="start" x="1114.13" y="-21" font-family="Times,serif" font-size="10.00">lastName = &quot;Jackson&quot;</text>
<text text-anchor="start" x="1114.13" y="-10" font-family="Times,serif" font-size="10.00">password = &quot;secret&quot;</text>
</g>
<!-- b&#45;&gt;1eaf6f4c_4f92_4e04_bd87_c82be03265de -->
<g id="edge11" class="edge">
<title>b&#45;&gt;1eaf6f4c_4f92_4e04_bd87_c82be03265de</title>
<path fill="none" stroke="black" d="M996.56,-265.98C1114.34,-253.95 1226.18,-240.06 1235.13,-230 1269.84,-190.94 1251.59,-127.75 1233.15,-86.03"/>
<text text-anchor="middle" x="1212.65" y="-89.03" font-family="Times,serif" font-size="10.00">customers</text>
<text text-anchor="middle" x="986.06" y="-257.98" font-family="Times,serif" font-size="10.00">bank</text>
</g>
<!-- 4c7333b7_ea56_41a2_aa50_469c3598d0ae -->
<g id="node11" class="node">
<title>4c7333b7_ea56_41a2_aa50_469c3598d0ae</title>
<polygon fill="none" stroke="black" points="526.13,-65 526.13,-82 750.13,-82 750.13,-65 526.13,-65"/>
<text text-anchor="start" x="529.13" y="-72" font-family="Times,serif" text-decoration="underline" font-size="10.00">4c7333b7&#45;ea56&#45;41a2&#45;aa50&#45;469c3598d0ae :Customer</text>
<polygon fill="none" stroke="black" points="526.13,-4 526.13,-65 750.13,-65 750.13,-4 526.13,-4"/>
<text text-anchor="start" x="538.13" y="-54" font-family="Times,serif" font-size="10.00">email = &quot;johntest@doe.ee&quot;</text>
<text text-anchor="start" x="538.13" y="-43" font-family="Times,serif" font-size="10.00">firstName = &quot;johntest&quot;</text>
<text text-anchor="start" x="538.13" y="-32" font-family="Times,serif" font-size="10.00">id = &quot;4c7333b7&#45;ea56&#45;41a2&#45;aa50&#45;469c3598d0ae&quot;</text>
<text text-anchor="start" x="538.13" y="-21" font-family="Times,serif" font-size="10.00">lastName = &quot;Doe&quot;</text>
<text text-anchor="start" x="538.13" y="-10" font-family="Times,serif" font-size="10.00">password = &quot;pass1234&quot;</text>
</g>
<!-- b&#45;&gt;4c7333b7_ea56_41a2_aa50_469c3598d0ae -->
<g id="edge12" class="edge">
<title>b&#45;&gt;4c7333b7_ea56_41a2_aa50_469c3598d0ae</title>
<path fill="none" stroke="black" d="M683.4,-265.9C673.33,-255.8 663.18,-243.4 657.13,-230 636.33,-184.01 633.79,-125.26 635,-86.23"/>
<text text-anchor="middle" x="614.5" y="-89.23" font-family="Times,serif" font-size="10.00">customers</text>
<text text-anchor="middle" x="672.9" y="-257.9" font-family="Times,serif" font-size="10.00">bank</text>
</g>
<!-- sendItToTheBank&#45;&gt;c -->
<g id="edge13" class="edge">
<title>sendItToTheBank&#45;&gt;c</title>
<path fill="none" stroke="black" d="M270.37,-121.91C306.88,-101.55 346.38,-79.54 374.03,-64.12"/>
<text text-anchor="middle" x="356.03" y="-67.12" font-family="Times,serif" font-size="10.00">currency</text>
</g>
<!-- e0f174c0_03d5_4e34_b1e6_5e4560576722&#45;&gt;c -->
<g id="edge14" class="edge">
<title>e0f174c0_03d5_4e34_b1e6_5e4560576722&#45;&gt;c</title>
<path fill="none" stroke="black" d="M448.09,-121.72C438.2,-101.46 427.51,-79.58 420,-64.22"/>
<text text-anchor="middle" x="402" y="-67.22" font-family="Times,serif" font-size="10.00">currency</text>
</g>
<!-- e0f174c0_03d5_4e34_b1e6_5e4560576722&#45;&gt;4c7333b7_ea56_41a2_aa50_469c3598d0ae -->
<g id="edge15" class="edge">
<title>e0f174c0_03d5_4e34_b1e6_5e4560576722&#45;&gt;4c7333b7_ea56_41a2_aa50_469c3598d0ae</title>
<path fill="none" stroke="black" d="M540.83,-121.72C555.64,-109.89 571.14,-97.51 585.3,-86.19"/>
<text text-anchor="middle" x="572.3" y="-89.19" font-family="Times,serif" font-size="10.00">owner</text>
<text text-anchor="middle" x="524.33" y="-113.72" font-family="Times,serif" font-size="10.00">account</text>
</g>
<!-- 8a633aa5_907c_4e57_a313_22e0adb2672e&#45;&gt;c -->
<g id="edge16" class="edge">
<title>8a633aa5_907c_4e57_a313_22e0adb2672e&#45;&gt;c</title>
<path fill="none" stroke="black" d="M972.08,-132.97C956.39,-128.77 940.47,-124.97 925.13,-122 742.92,-86.77 689.22,-130.79 509.13,-86 488.83,-80.95 467.35,-72.28 449.6,-64.13"/>
<text text-anchor="middle" x="467.6" y="-67.13" font-family="Times,serif" font-size="10.00">currency</text>
</g>
<!-- 8a633aa5_907c_4e57_a313_22e0adb2672e&#45;&gt;1eaf6f4c_4f92_4e04_bd87_c82be03265de -->
<g id="edge17" class="edge">
<title>8a633aa5_907c_4e57_a313_22e0adb2672e&#45;&gt;1eaf6f4c_4f92_4e04_bd87_c82be03265de</title>
<path fill="none" stroke="black" d="M1144.68,-121.72C1154.73,-109.96 1165.25,-97.66 1174.88,-86.4"/>
<text text-anchor="middle" x="1161.88" y="-89.4" font-family="Times,serif" font-size="10.00">owner</text>
<text text-anchor="middle" x="1128.18" y="-113.72" font-family="Times,serif" font-size="10.00">account</text>
</g>
<!-- 7ec351d6_652f_4691_8e72_ea432d44a0c8&#45;&gt;c -->
<g id="edge18" class="edge">
<title>7ec351d6_652f_4691_8e72_ea432d44a0c8&#45;&gt;c</title>
<path fill="none" stroke="black" d="M665.97,-136.11C598.09,-114.9 524.87,-91.81 509.13,-86 491.26,-79.41 471.91,-71.4 455.1,-64.15"/>
<text text-anchor="middle" x="437.1" y="-67.15" font-family="Times,serif" font-size="10.00">currency</text>
</g>
<!-- 7ec351d6_652f_4691_8e72_ea432d44a0c8&#45;&gt;e2f7bc4c_ef2a_466e_b8a5_d24f48b13afe -->
<g id="edge19" class="edge">
<title>7ec351d6_652f_4691_8e72_ea432d44a0c8&#45;&gt;e2f7bc4c_ef2a_466e_b8a5_d24f48b13afe</title>
<path fill="none" stroke="black" d="M842.78,-121.72C854.18,-109.96 866.11,-97.66 877.02,-86.4"/>
<text text-anchor="middle" x="864.02" y="-89.4" font-family="Times,serif" font-size="10.00">owner</text>
<text text-anchor="middle" x="826.28" y="-113.72" font-family="Times,serif" font-size="10.00">account</text>
</g>
</g>
</svg>
