<?xml version="1.0" encoding="UTF-8" standalone="no"?>
<!DOCTYPE svg PUBLIC "-//W3C//DTD SVG 1.1//EN"
 "http://www.w3.org/Graphics/SVG/1.1/DTD/svg11.dtd">
<!-- Generated by graphviz version 2.49.3 (20211023.0002)
 -->
<!-- Title: model Pages: 1 -->
<svg width="1457px" height="449px"
 viewBox="0.00 0.00 1457.00 449.00" xmlns="http://www.w3.org/2000/svg" xmlns:xlink="http://www.w3.org/1999/xlink">
<g id="graph0" class="graph" transform="scale(1.0 1.0) rotate(0) translate(4 445)">
<title>model</title>
<polygon fill="white" stroke="transparent" points="-4,4 -4,-445 1453,-445 1453,4 -4,4"/>
<!-- 3700a148_9a31_44fa_9c23_63516e6774e8 -->
<g id="node1" class="node">
<title>3700a148_9a31_44fa_9c23_63516e6774e8</title>
<polygon fill="none" stroke="black" points="88.5,-420 88.5,-437 315.5,-437 315.5,-420 88.5,-420"/>
<text text-anchor="start" x="91.5" y="-427" font-family="Times,serif" text-decoration="underline" font-size="10.00">3700a148&#45;9a31&#45;44fa&#45;9c23&#45;63516e6774e8 :Transaction</text>
<polygon fill="none" stroke="black" points="88.5,-359 88.5,-420 315.5,-420 315.5,-359 88.5,-359"/>
<text text-anchor="start" x="104.5" y="-409" font-family="Times,serif" font-size="10.00">amount = 25.0</text>
<text text-anchor="start" x="104.5" y="-398" font-family="Times,serif" font-size="10.00">description = &quot;Ref: concert ticket&quot;</text>
<text text-anchor="start" x="104.5" y="-387" font-family="Times,serif" font-size="10.00">id = &quot;3700a148&#45;9a31&#45;44fa&#45;9c23&#45;63516e6774e8&quot;</text>
<text text-anchor="start" x="104.5" y="-376" font-family="Times,serif" font-size="10.00">rejectionDescription = &quot;&quot;</text>
<text text-anchor="start" x="104.5" y="-365" font-family="Times,serif" font-size="10.00">timestamp = 2021&#45;12&#45;05T17:29:27.461257</text>
</g>
<!-- b -->
<g id="node2" class="node">
<title>b</title>
<polygon fill="none" stroke="black" points="257.5,-297.5 257.5,-314.5 1072.5,-314.5 1072.5,-297.5 257.5,-297.5"/>
<text text-anchor="start" x="649" y="-304.5" font-family="Times,serif" text-decoration="underline" font-size="10.00">b :Bank</text>
<polygon fill="none" stroke="black" points="257.5,-269.5 257.5,-297.5 1072.5,-297.5 1072.5,-269.5 257.5,-269.5"/>
<text text-anchor="start" x="260.5" y="-286.5" font-family="Times,serif" font-size="10.00">accountsMap = sendItToTheBank8a633aa5&#45;907c&#45;4e57&#45;a313&#45;22e0adb2672ee237d926&#45;d1d4&#45;4e9f&#45;aeba&#45;7b22c2996c267ec351d6&#45;652f&#45;4691&#45;8e72&#45;ea432d44a0c8c0469993&#45;920d&#45;43f7&#45;843a&#45;7c0609131a89</text>
<text text-anchor="start" x="260.5" y="-275.5" font-family="Times,serif" font-size="10.00">customerMap = e2f7bc4c&#45;ef2a&#45;466e&#45;b8a5&#45;d24f48b13afe1eaf6f4c&#45;4f92&#45;4e04&#45;bd87&#45;c82be03265decb71ebbb&#45;0a98&#45;4657&#45;9eae&#45;f9c2cfcd57ff8bea8b96&#45;bc21&#45;43ea&#45;886c&#45;e0158be489f4</text>
</g>
<!-- 3700a148_9a31_44fa_9c23_63516e6774e8&#45;&gt;b -->
<g id="edge1" class="edge">
<title>3700a148_9a31_44fa_9c23_63516e6774e8&#45;&gt;b</title>
<path fill="none" stroke="black" d="M323.15,-369.81C393.48,-354.08 481.42,-334.43 550.43,-319"/>
<text text-anchor="middle" x="540.43" y="-322" font-family="Times,serif" font-size="10.00">bank</text>
<text text-anchor="middle" x="347.15" y="-372.81" font-family="Times,serif" font-size="10.00">transactions</text>
</g>
<!-- c -->
<g id="node3" class="node">
<title>c</title>
<polygon fill="none" stroke="black" points="8.5,-43 8.5,-60 171.5,-60 171.5,-43 8.5,-43"/>
<text text-anchor="start" x="66.5" y="-50" font-family="Times,serif" text-decoration="underline" font-size="10.00">c :Currency</text>
<polygon fill="none" stroke="black" points="8.5,-26 8.5,-43 171.5,-43 171.5,-26 8.5,-26"/>
<text text-anchor="start" x="11.5" y="-32" font-family="Times,serif" font-size="10.00">declaringClass = class model.Currency</text>
</g>
<!-- 3700a148_9a31_44fa_9c23_63516e6774e8&#45;&gt;c -->
<g id="edge2" class="edge">
<title>3700a148_9a31_44fa_9c23_63516e6774e8&#45;&gt;c</title>
<path fill="none" stroke="black" d="M153.16,-354.92C121.51,-323.99 82.92,-278.97 65.5,-230 44.99,-172.33 67.55,-99.05 80.98,-64.19"/>
<text text-anchor="middle" x="63.48" y="-67.19" font-family="Times,serif" font-size="10.00">currency</text>
</g>
<!-- c0469993_920d_43f7_843a_7c0609131a89 -->
<g id="node4" class="node">
<title>c0469993_920d_43f7_843a_7c0609131a89</title>
<polygon fill="none" stroke="black" points="330.5,-209 330.5,-226 545.5,-226 545.5,-209 330.5,-209"/>
<text text-anchor="start" x="333.5" y="-216" font-family="Times,serif" text-decoration="underline" font-size="10.00">c0469993&#45;920d&#45;43f7&#45;843a&#45;7c0609131a89 :Account</text>
<polygon fill="none" stroke="black" points="330.5,-126 330.5,-209 545.5,-209 545.5,-126 330.5,-126"/>
<text text-anchor="start" x="340" y="-198" font-family="Times,serif" font-size="10.00">balance = 0.0</text>
<text text-anchor="start" x="340" y="-187" font-family="Times,serif" font-size="10.00">customerId = null</text>
<text text-anchor="start" x="340" y="-176" font-family="Times,serif" font-size="10.00">iban = &quot;EE851866659964243282&quot;</text>
<text text-anchor="start" x="340" y="-165" font-family="Times,serif" font-size="10.00">id = &quot;c0469993&#45;920d&#45;43f7&#45;843a&#45;7c0609131a89&quot;</text>
<text text-anchor="start" x="340" y="-154" font-family="Times,serif" font-size="10.00">receivedTransaction = </text>
<text text-anchor="start" x="340" y="-143" font-family="Times,serif" font-size="10.00">sentTransaction = </text>
<text text-anchor="start" x="340" y="-132" font-family="Times,serif" font-size="10.00">status = &quot;ACTIVE&quot;</text>
</g>
<!-- 3700a148_9a31_44fa_9c23_63516e6774e8&#45;&gt;c0469993_920d_43f7_843a_7c0609131a89 -->
<g id="edge3" class="edge">
<title>3700a148_9a31_44fa_9c23_63516e6774e8&#45;&gt;c0469993_920d_43f7_843a_7c0609131a89</title>
<path fill="none" stroke="black" d="M204.62,-354.88C208.7,-326.81 218.07,-290.67 239.5,-266 242.92,-262.06 280.44,-244.87 321.91,-226.64"/>
<text text-anchor="middle" x="299.91" y="-229.64" font-family="Times,serif" font-size="10.00">destination</text>
</g>
<!-- e237d926_d1d4_4e9f_aeba_7b22c2996c26 -->
<g id="node5" class="node">
<title>e237d926_d1d4_4e9f_aeba_7b22c2996c26</title>
<polygon fill="none" stroke="black" points="83.5,-209 83.5,-226 296.5,-226 296.5,-209 83.5,-209"/>
<text text-anchor="start" x="86.5" y="-216" font-family="Times,serif" text-decoration="underline" font-size="10.00">e237d926&#45;d1d4&#45;4e9f&#45;aeba&#45;7b22c2996c26 :Account</text>
<polygon fill="none" stroke="black" points="83.5,-126 83.5,-209 296.5,-209 296.5,-126 83.5,-126"/>
<text text-anchor="start" x="92.5" y="-198" font-family="Times,serif" font-size="10.00">balance = 100.0</text>
<text text-anchor="start" x="92.5" y="-187" font-family="Times,serif" font-size="10.00">customerId = null</text>
<text text-anchor="start" x="92.5" y="-176" font-family="Times,serif" font-size="10.00">iban = &quot;EE980552888365280663&quot;</text>
<text text-anchor="start" x="92.5" y="-165" font-family="Times,serif" font-size="10.00">id = &quot;e237d926&#45;d1d4&#45;4e9f&#45;aeba&#45;7b22c2996c26&quot;</text>
<text text-anchor="start" x="92.5" y="-154" font-family="Times,serif" font-size="10.00">receivedTransaction = </text>
<text text-anchor="start" x="92.5" y="-143" font-family="Times,serif" font-size="10.00">sentTransaction = </text>
<text text-anchor="start" x="92.5" y="-132" font-family="Times,serif" font-size="10.00">status = &quot;ACTIVE&quot;</text>
</g>
<!-- 3700a148_9a31_44fa_9c23_63516e6774e8&#45;&gt;e237d926_d1d4_4e9f_aeba_7b22c2996c26 -->
<g id="edge4" class="edge">
<title>3700a148_9a31_44fa_9c23_63516e6774e8&#45;&gt;e237d926_d1d4_4e9f_aeba_7b22c2996c26</title>
<path fill="none" stroke="black" d="M199.2,-354.84C197.27,-319.41 194.49,-268.57 192.41,-230.31"/>
<text text-anchor="middle" x="178.91" y="-233.31" font-family="Times,serif" font-size="10.00">source</text>
</g>
<!-- b&#45;&gt;c0469993_920d_43f7_843a_7c0609131a89 -->
<g id="edge9" class="edge">
<title>b&#45;&gt;c0469993_920d_43f7_843a_7c0609131a89</title>
<path fill="none" stroke="black" d="M613.84,-265.95C592.8,-255.34 567.56,-242.6 542.83,-230.13"/>
<text text-anchor="middle" x="525.33" y="-233.13" font-family="Times,serif" font-size="10.00">accounts</text>
<text text-anchor="middle" x="603.84" y="-257.95" font-family="Times,serif" font-size="10.00">bank</text>
</g>
<!-- b&#45;&gt;e237d926_d1d4_4e9f_aeba_7b22c2996c26 -->
<g id="edge8" class="edge">
<title>b&#45;&gt;e237d926_d1d4_4e9f_aeba_7b22c2996c26</title>
<path fill="none" stroke="black" d="M470.33,-265.93C418.48,-256.85 362.88,-245.03 312.5,-230 309.71,-229.17 306.91,-228.29 304.09,-227.38"/>
<text text-anchor="middle" x="321.59" y="-219.38" font-family="Times,serif" font-size="10.00">accounts</text>
<text text-anchor="middle" x="460.33" y="-257.93" font-family="Times,serif" font-size="10.00">bank</text>
</g>
<!-- sendItToTheBank -->
<g id="node6" class="node">
<title>sendItToTheBank</title>
<polygon fill="none" stroke="black" points="960.5,-209 960.5,-226 1105.5,-226 1105.5,-209 960.5,-209"/>
<text text-anchor="start" x="977.5" y="-216" font-family="Times,serif" text-decoration="underline" font-size="10.00">sendItToTheBank :Account</text>
<polygon fill="none" stroke="black" points="960.5,-126 960.5,-209 1105.5,-209 1105.5,-126 960.5,-126"/>
<text text-anchor="start" x="963.5" y="-198" font-family="Times,serif" font-size="10.00">balance = 69420.0</text>
<text text-anchor="start" x="963.5" y="-187" font-family="Times,serif" font-size="10.00">customerId = null</text>
<text text-anchor="start" x="963.5" y="-176" font-family="Times,serif" font-size="10.00">iban = &quot;EE281023312551581201&quot;</text>
<text text-anchor="start" x="963.5" y="-165" font-family="Times,serif" font-size="10.00">id = &quot;sendItToTheBank&quot;</text>
<text text-anchor="start" x="963.5" y="-154" font-family="Times,serif" font-size="10.00">receivedTransaction = </text>
<text text-anchor="start" x="963.5" y="-143" font-family="Times,serif" font-size="10.00">sentTransaction = </text>
<text text-anchor="start" x="963.5" y="-132" font-family="Times,serif" font-size="10.00">status = &quot;ACTIVE&quot;</text>
</g>
<!-- b&#45;&gt;sendItToTheBank -->
<g id="edge5" class="edge">
<title>b&#45;&gt;sendItToTheBank</title>
<path fill="none" stroke="black" d="M820.75,-265.95C861.16,-256.91 904.09,-245.12 942.5,-230 945.62,-228.77 948.76,-227.44 951.9,-226.04"/>
<text text-anchor="middle" x="924.9" y="-229.04" font-family="Times,serif" font-size="10.00">bankAccount</text>
<text text-anchor="middle" x="810.75" y="-257.95" font-family="Times,serif" font-size="10.00">bank</text>
</g>
<!-- 8a633aa5_907c_4e57_a313_22e0adb2672e -->
<g id="node7" class="node">
<title>8a633aa5_907c_4e57_a313_22e0adb2672e</title>
<polygon fill="none" stroke="black" points="1139.5,-209 1139.5,-226 1374.5,-226 1374.5,-209 1139.5,-209"/>
<text text-anchor="start" x="1153" y="-216" font-family="Times,serif" text-decoration="underline" font-size="10.00">8a633aa5&#45;907c&#45;4e57&#45;a313&#45;22e0adb2672e :Account</text>
<polygon fill="none" stroke="black" points="1139.5,-126 1139.5,-209 1374.5,-209 1374.5,-126 1139.5,-126"/>
<text text-anchor="start" x="1142.5" y="-198" font-family="Times,serif" font-size="10.00">balance = 0.0</text>
<text text-anchor="start" x="1142.5" y="-187" font-family="Times,serif" font-size="10.00">customerId = &quot;1eaf6f4c&#45;4f92&#45;4e04&#45;bd87&#45;c82be03265de&quot;</text>
<text text-anchor="start" x="1142.5" y="-176" font-family="Times,serif" font-size="10.00">iban = null</text>
<text text-anchor="start" x="1142.5" y="-165" font-family="Times,serif" font-size="10.00">id = &quot;8a633aa5&#45;907c&#45;4e57&#45;a313&#45;22e0adb2672e&quot;</text>
<text text-anchor="start" x="1142.5" y="-154" font-family="Times,serif" font-size="10.00">receivedTransaction = </text>
<text text-anchor="start" x="1142.5" y="-143" font-family="Times,serif" font-size="10.00">sentTransaction = </text>
<text text-anchor="start" x="1142.5" y="-132" font-family="Times,serif" font-size="10.00">status = &quot;ACTIVE&quot;</text>
</g>
<!-- b&#45;&gt;8a633aa5_907c_4e57_a313_22e0adb2672e -->
<g id="edge6" class="edge">
<title>b&#45;&gt;8a633aa5_907c_4e57_a313_22e0adb2672e</title>
<path fill="none" stroke="black" d="M936.96,-265.99C998.53,-257.17 1063.21,-245.46 1122.5,-230 1125.28,-229.27 1128.09,-228.51 1130.91,-227.7"/>
<text text-anchor="middle" x="1113.41" y="-230.7" font-family="Times,serif" font-size="10.00">accounts</text>
<text text-anchor="middle" x="926.96" y="-257.99" font-family="Times,serif" font-size="10.00">bank</text>
</g>
<!-- 7ec351d6_652f_4691_8e72_ea432d44a0c8 -->
<g id="node8" class="node">
<title>7ec351d6_652f_4691_8e72_ea432d44a0c8</title>
<polygon fill="none" stroke="black" points="693.5,-209 693.5,-226 925.5,-226 925.5,-209 693.5,-209"/>
<text text-anchor="start" x="706" y="-216" font-family="Times,serif" text-decoration="underline" font-size="10.00">7ec351d6&#45;652f&#45;4691&#45;8e72&#45;ea432d44a0c8 :Account</text>
<polygon fill="none" stroke="black" points="693.5,-126 693.5,-209 925.5,-209 925.5,-126 693.5,-126"/>
<text text-anchor="start" x="696.5" y="-198" font-family="Times,serif" font-size="10.00">balance = 100.0</text>
<text text-anchor="start" x="696.5" y="-187" font-family="Times,serif" font-size="10.00">customerId = &quot;e2f7bc4c&#45;ef2a&#45;466e&#45;b8a5&#45;d24f48b13afe&quot;</text>
<text text-anchor="start" x="696.5" y="-176" font-family="Times,serif" font-size="10.00">iban = null</text>
<text text-anchor="start" x="696.5" y="-165" font-family="Times,serif" font-size="10.00">id = &quot;7ec351d6&#45;652f&#45;4691&#45;8e72&#45;ea432d44a0c8&quot;</text>
<text text-anchor="start" x="696.5" y="-154" font-family="Times,serif" font-size="10.00">receivedTransaction = </text>
<text text-anchor="start" x="696.5" y="-143" font-family="Times,serif" font-size="10.00">sentTransaction = </text>
<text text-anchor="start" x="696.5" y="-132" font-family="Times,serif" font-size="10.00">status = &quot;ACTIVE&quot;</text>
</g>
<!-- b&#45;&gt;7ec351d6_652f_4691_8e72_ea432d44a0c8 -->
<g id="edge7" class="edge">
<title>b&#45;&gt;7ec351d6_652f_4691_8e72_ea432d44a0c8</title>
<path fill="none" stroke="black" d="M697.04,-265.8C710.48,-255.19 726.59,-242.47 742.36,-230.02"/>
<text text-anchor="middle" x="724.86" y="-233.02" font-family="Times,serif" font-size="10.00">accounts</text>
<text text-anchor="middle" x="687.04" y="-257.8" font-family="Times,serif" font-size="10.00">bank</text>
</g>
<!-- e2f7bc4c_ef2a_466e_b8a5_d24f48b13afe -->
<g id="node9" class="node">
<title>e2f7bc4c_ef2a_466e_b8a5_d24f48b13afe</title>
<polygon fill="none" stroke="black" points="703.5,-65 703.5,-82 915.5,-82 915.5,-65 703.5,-65"/>
<text text-anchor="start" x="706.5" y="-72" font-family="Times,serif" text-decoration="underline" font-size="10.00">e2f7bc4c&#45;ef2a&#45;466e&#45;b8a5&#45;d24f48b13afe :Customer</text>
<polygon fill="none" stroke="black" points="703.5,-4 703.5,-65 915.5,-65 915.5,-4 703.5,-4"/>
<text text-anchor="start" x="715" y="-54" font-family="Times,serif" font-size="10.00">email = &quot;john@doe.ee&quot;</text>
<text text-anchor="start" x="715" y="-43" font-family="Times,serif" font-size="10.00">firstName = &quot;John&quot;</text>
<text text-anchor="start" x="715" y="-32" font-family="Times,serif" font-size="10.00">id = &quot;e2f7bc4c&#45;ef2a&#45;466e&#45;b8a5&#45;d24f48b13afe&quot;</text>
<text text-anchor="start" x="715" y="-21" font-family="Times,serif" font-size="10.00">lastName = &quot;Doe&quot;</text>
<text text-anchor="start" x="715" y="-10" font-family="Times,serif" font-size="10.00">password = &quot;pass1234&quot;</text>
</g>
<!-- b&#45;&gt;e2f7bc4c_ef2a_466e_b8a5_d24f48b13afe -->
<g id="edge10" class="edge">
<title>b&#45;&gt;e2f7bc4c_ef2a_466e_b8a5_d24f48b13afe</title>
<path fill="none" stroke="black" d="M659.36,-265.71C653.77,-230.41 648.96,-166.36 676.5,-122 685.25,-107.9 697.57,-96.05 711.2,-86.2"/>
<text text-anchor="middle" x="690.7" y="-89.2" font-family="Times,serif" font-size="10.00">customers</text>
<text text-anchor="middle" x="649.36" y="-257.71" font-family="Times,serif" font-size="10.00">bank</text>
</g>
<!-- 1eaf6f4c_4f92_4e04_bd87_c82be03265de -->
<g id="node10" class="node">
<title>1eaf6f4c_4f92_4e04_bd87_c82be03265de</title>
<polygon fill="none" stroke="black" points="1226.5,-65 1226.5,-82 1441.5,-82 1441.5,-65 1226.5,-65"/>
<text text-anchor="start" x="1229.5" y="-72" font-family="Times,serif" text-decoration="underline" font-size="10.00">1eaf6f4c&#45;4f92&#45;4e04&#45;bd87&#45;c82be03265de :Customer</text>
<polygon fill="none" stroke="black" points="1226.5,-4 1226.5,-65 1441.5,-65 1441.5,-4 1226.5,-4"/>
<text text-anchor="start" x="1238.5" y="-54" font-family="Times,serif" font-size="10.00">email = &quot;bobby@tt.ee&quot;</text>
<text text-anchor="start" x="1238.5" y="-43" font-family="Times,serif" font-size="10.00">firstName = &quot;Bob&quot;</text>
<text text-anchor="start" x="1238.5" y="-32" font-family="Times,serif" font-size="10.00">id = &quot;1eaf6f4c&#45;4f92&#45;4e04&#45;bd87&#45;c82be03265de&quot;</text>
<text text-anchor="start" x="1238.5" y="-21" font-family="Times,serif" font-size="10.00">lastName = &quot;Jackson&quot;</text>
<text text-anchor="start" x="1238.5" y="-10" font-family="Times,serif" font-size="10.00">password = &quot;secret&quot;</text>
</g>
<!-- b&#45;&gt;1eaf6f4c_4f92_4e04_bd87_c82be03265de -->
<g id="edge11" class="edge">
<title>b&#45;&gt;1eaf6f4c_4f92_4e04_bd87_c82be03265de</title>
<path fill="none" stroke="black" d="M1080.15,-279.39C1229.76,-270.68 1367.88,-255.71 1391.5,-230 1423.98,-194.66 1406.59,-167.57 1391.5,-122 1387.31,-109.34 1380.18,-97.07 1372.33,-86.15"/>
<text text-anchor="middle" x="1351.83" y="-89.15" font-family="Times,serif" font-size="10.00">customers</text>
<text text-anchor="middle" x="1090.15" y="-282.39" font-family="Times,serif" font-size="10.00">bank</text>
</g>
<!-- cb71ebbb_0a98_4657_9eae_f9c2cfcd57ff -->
<g id="node11" class="node">
<title>cb71ebbb_0a98_4657_9eae_f9c2cfcd57ff</title>
<polygon fill="none" stroke="black" points="205.5,-65 205.5,-82 417.5,-82 417.5,-65 205.5,-65"/>
<text text-anchor="start" x="208.5" y="-72" font-family="Times,serif" text-decoration="underline" font-size="10.00">cb71ebbb&#45;0a98&#45;4657&#45;9eae&#45;f9c2cfcd57ff :Customer</text>
<polygon fill="none" stroke="black" points="205.5,-4 205.5,-65 417.5,-65 417.5,-4 205.5,-4"/>
<text text-anchor="start" x="217.5" y="-54" font-family="Times,serif" font-size="10.00">email = &quot;johntest@doe.ee&quot;</text>
<text text-anchor="start" x="217.5" y="-43" font-family="Times,serif" font-size="10.00">firstName = &quot;johntest&quot;</text>
<text text-anchor="start" x="217.5" y="-32" font-family="Times,serif" font-size="10.00">id = &quot;cb71ebbb&#45;0a98&#45;4657&#45;9eae&#45;f9c2cfcd57ff&quot;</text>
<text text-anchor="start" x="217.5" y="-21" font-family="Times,serif" font-size="10.00">lastName = &quot;Doe&quot;</text>
<text text-anchor="start" x="217.5" y="-10" font-family="Times,serif" font-size="10.00">password = &quot;pass1234&quot;</text>
</g>
<!-- b&#45;&gt;cb71ebbb_0a98_4657_9eae_f9c2cfcd57ff -->
<g id="edge12" class="edge">
<title>b&#45;&gt;cb71ebbb_0a98_4657_9eae_f9c2cfcd57ff</title>
<path fill="none" stroke="black" d="M628.57,-265.83C616.65,-255.81 604.21,-243.48 595.5,-230 568.18,-187.74 597.59,-157.07 561.5,-122 519.42,-81.12 490.5,-103.49 434.5,-86 431.59,-85.09 428.65,-84.16 425.68,-83.22"/>
<text text-anchor="middle" x="446.18" y="-86.22" font-family="Times,serif" font-size="10.00">customers</text>
<text text-anchor="middle" x="628.57" y="-257.83" font-family="Times,serif" font-size="10.00">bank</text>
</g>
<!-- 8bea8b96_bc21_43ea_886c_e0158be489f4 -->
<g id="node12" class="node">
<title>8bea8b96_bc21_43ea_886c_e0158be489f4</title>
<polygon fill="none" stroke="black" points="451.5,-65 451.5,-82 669.5,-82 669.5,-65 451.5,-65"/>
<text text-anchor="start" x="454.5" y="-72" font-family="Times,serif" text-decoration="underline" font-size="10.00">8bea8b96&#45;bc21&#45;43ea&#45;886c&#45;e0158be489f4 :Customer</text>
<polygon fill="none" stroke="black" points="451.5,-4 451.5,-65 669.5,-65 669.5,-4 451.5,-4"/>
<text text-anchor="start" x="463.5" y="-54" font-family="Times,serif" font-size="10.00">email = &quot;bobbytest@tt.ee&quot;</text>
<text text-anchor="start" x="463.5" y="-43" font-family="Times,serif" font-size="10.00">firstName = &quot;Bob&quot;</text>
<text text-anchor="start" x="463.5" y="-32" font-family="Times,serif" font-size="10.00">id = &quot;8bea8b96&#45;bc21&#45;43ea&#45;886c&#45;e0158be489f4&quot;</text>
<text text-anchor="start" x="463.5" y="-21" font-family="Times,serif" font-size="10.00">lastName = &quot;Jackson&quot;</text>
<text text-anchor="start" x="463.5" y="-10" font-family="Times,serif" font-size="10.00">password = &quot;secret&quot;</text>
</g>
<!-- b&#45;&gt;8bea8b96_bc21_43ea_886c_e0158be489f4 -->
<g id="edge13" class="edge">
<title>b&#45;&gt;8bea8b96_bc21_43ea_886c_e0158be489f4</title>
<path fill="none" stroke="black" d="M654.38,-265.83C641.17,-232.52 617.18,-172.68 595.5,-122 590.54,-110.4 585.01,-97.9 579.85,-86.39"/>
<text text-anchor="middle" x="559.35" y="-89.39" font-family="Times,serif" font-size="10.00">customers</text>
<text text-anchor="middle" x="664.38" y="-257.83" font-family="Times,serif" font-size="10.00">bank</text>
</g>
<!-- c0469993_920d_43f7_843a_7c0609131a89&#45;&gt;c -->
<g id="edge14" class="edge">
<title>c0469993_920d_43f7_843a_7c0609131a89&#45;&gt;c</title>
<path fill="none" stroke="black" d="M321.92,-125.42C318.75,-124.25 315.61,-123.11 312.5,-122 258.43,-102.77 242.57,-105.24 188.5,-86 170.38,-79.55 150.82,-71.49 133.9,-64.17"/>
<text text-anchor="middle" x="151.4" y="-67.17" font-family="Times,serif" font-size="10.00">currency</text>
</g>
<!-- c0469993_920d_43f7_843a_7c0609131a89&#45;&gt;8bea8b96_bc21_43ea_886c_e0158be489f4 -->
<g id="edge15" class="edge">
<title>c0469993_920d_43f7_843a_7c0609131a89&#45;&gt;8bea8b96_bc21_43ea_886c_e0158be489f4</title>
<path fill="none" stroke="black" d="M487.53,-121.72C498.57,-109.96 510.12,-97.66 520.69,-86.4"/>
<text text-anchor="middle" x="508.19" y="-89.4" font-family="Times,serif" font-size="10.00">owner</text>
<text text-anchor="middle" x="471.53" y="-113.72" font-family="Times,serif" font-size="10.00">account</text>
</g>
<!-- e237d926_d1d4_4e9f_aeba_7b22c2996c26&#45;&gt;c -->
<g id="edge16" class="edge">
<title>e237d926_d1d4_4e9f_aeba_7b22c2996c26&#45;&gt;c</title>
<path fill="none" stroke="black" d="M148.83,-121.72C133.36,-101.46 116.66,-79.58 104.93,-64.22"/>
<text text-anchor="middle" x="122.43" y="-67.22" font-family="Times,serif" font-size="10.00">currency</text>
</g>
<!-- e237d926_d1d4_4e9f_aeba_7b22c2996c26&#45;&gt;cb71ebbb_0a98_4657_9eae_f9c2cfcd57ff -->
<g id="edge17" class="edge">
<title>e237d926_d1d4_4e9f_aeba_7b22c2996c26&#45;&gt;cb71ebbb_0a98_4657_9eae_f9c2cfcd57ff</title>
<path fill="none" stroke="black" d="M239.12,-121.72C250.07,-109.96 261.53,-97.66 272.02,-86.4"/>
<text text-anchor="middle" x="259.52" y="-89.4" font-family="Times,serif" font-size="10.00">owner</text>
<text text-anchor="middle" x="223.12" y="-113.72" font-family="Times,serif" font-size="10.00">account</text>
</g>
<!-- c1 -->
<g id="node13" class="node">
<title>c1</title>
<polygon fill="none" stroke="black" points="951.5,-43 951.5,-60 1114.5,-60 1114.5,-43 951.5,-43"/>
<text text-anchor="start" x="1007" y="-50" font-family="Times,serif" text-decoration="underline" font-size="10.00">c1 :Currency</text>
<polygon fill="none" stroke="black" points="951.5,-26 951.5,-43 1114.5,-43 1114.5,-26 951.5,-26"/>
<text text-anchor="start" x="954.5" y="-32" font-family="Times,serif" font-size="10.00">declaringClass = class model.Currency</text>
</g>
<!-- sendItToTheBank&#45;&gt;c1 -->
<g id="edge18" class="edge">
<title>sendItToTheBank&#45;&gt;c1</title>
<path fill="none" stroke="black" d="M1032.5,-121.72C1032.5,-101.46 1032.5,-79.58 1032.5,-64.22"/>
<text text-anchor="middle" x="1015" y="-67.22" font-family="Times,serif" font-size="10.00">currency</text>
</g>
<!-- 8a633aa5_907c_4e57_a313_22e0adb2672e&#45;&gt;1eaf6f4c_4f92_4e04_bd87_c82be03265de -->
<g id="edge20" class="edge">
<title>8a633aa5_907c_4e57_a313_22e0adb2672e&#45;&gt;1eaf6f4c_4f92_4e04_bd87_c82be03265de</title>
<path fill="none" stroke="black" d="M1287.82,-121.72C1294.73,-109.96 1301.96,-97.66 1308.58,-86.4"/>
<text text-anchor="middle" x="1296.08" y="-89.4" font-family="Times,serif" font-size="10.00">owner</text>
<text text-anchor="middle" x="1271.82" y="-113.72" font-family="Times,serif" font-size="10.00">account</text>
</g>
<!-- 8a633aa5_907c_4e57_a313_22e0adb2672e&#45;&gt;c1 -->
<g id="edge19" class="edge">
<title>8a633aa5_907c_4e57_a313_22e0adb2672e&#45;&gt;c1</title>
<path fill="none" stroke="black" d="M1165.71,-121.91C1130.91,-101.55 1093.27,-79.54 1066.9,-64.12"/>
<text text-anchor="middle" x="1084.4" y="-67.12" font-family="Times,serif" font-size="10.00">currency</text>
</g>
<!-- 7ec351d6_652f_4691_8e72_ea432d44a0c8&#45;&gt;e2f7bc4c_ef2a_466e_b8a5_d24f48b13afe -->
<g id="edge22" class="edge">
<title>7ec351d6_652f_4691_8e72_ea432d44a0c8&#45;&gt;e2f7bc4c_ef2a_466e_b8a5_d24f48b13afe</title>
<path fill="none" stroke="black" d="M809.5,-121.72C809.5,-109.96 809.5,-97.66 809.5,-86.4"/>
<text text-anchor="middle" x="797" y="-89.4" font-family="Times,serif" font-size="10.00">owner</text>
<text text-anchor="middle" x="793.5" y="-113.72" font-family="Times,serif" font-size="10.00">account</text>
</g>
<!-- 7ec351d6_652f_4691_8e72_ea432d44a0c8&#45;&gt;c1 -->
<g id="edge21" class="edge">
<title>7ec351d6_652f_4691_8e72_ea432d44a0c8&#45;&gt;c1</title>
<path fill="none" stroke="black" d="M899.88,-121.91C934.53,-101.55 972.01,-79.54 998.25,-64.12"/>
<text text-anchor="middle" x="980.75" y="-67.12" font-family="Times,serif" font-size="10.00">currency</text>
</g>
</g>
</svg>
