<?xml version="1.0" encoding="UTF-8" standalone="no"?>
<!DOCTYPE svg PUBLIC "-//W3C//DTD SVG 1.1//EN"
 "http://www.w3.org/Graphics/SVG/1.1/DTD/svg11.dtd">
<!-- Generated by graphviz version 2.43.0 (0)
 -->
<!-- Title: model Pages: 1 -->
<svg width="1188px" height="449px"
 viewBox="0.00 0.00 1188.33 449.00" xmlns="http://www.w3.org/2000/svg" xmlns:xlink="http://www.w3.org/1999/xlink">
<g id="graph0" class="graph" transform="scale(1.0 1.0) rotate(0) translate(4 445)">
<title>model</title>
<polygon fill="white" stroke="transparent" points="-4,4 -4,-445 1184.33,-445 1184.33,4 -4,4"/>
<!-- dd58f510_b3d6_4e4a_b3e4_d8429a49e714 -->
<g id="node1" class="node">
<title>dd58f510_b3d6_4e4a_b3e4_d8429a49e714</title>
<polygon fill="none" stroke="black" points="93.83,-420 93.83,-437 371.83,-437 371.83,-420 93.83,-420"/>
<text text-anchor="start" x="118.83" y="-427" font-family="Times,serif" text-decoration="underline" font-size="10.00">dd58f510&#45;b3d6&#45;4e4a&#45;b3e4&#45;d8429a49e714 :Transaction</text>
<polygon fill="none" stroke="black" points="93.83,-359 93.83,-420 371.83,-420 371.83,-359 93.83,-359"/>
<text text-anchor="start" x="96.83" y="-409" font-family="Times,serif" font-size="10.00">amount = 50.0</text>
<text text-anchor="start" x="96.83" y="-398" font-family="Times,serif" font-size="10.00">description = &quot;Expensive fee&quot;</text>
<text text-anchor="start" x="96.83" y="-387" font-family="Times,serif" font-size="10.00">id = &quot;dd58f510&#45;b3d6&#45;4e4a&#45;b3e4&#45;d8429a49e714&quot;</text>
<text text-anchor="start" x="96.83" y="-376" font-family="Times,serif" font-size="10.00">rejectionDescription = &quot;Not enough money on the source account&quot;</text>
<text text-anchor="start" x="96.83" y="-365" font-family="Times,serif" font-size="10.00">timestamp = 2021&#45;12&#45;04T18:16:14.541030820</text>
</g>
<!-- b -->
<g id="node2" class="node">
<title>b</title>
<polygon fill="none" stroke="black" points="268.83,-297.5 268.83,-314.5 932.83,-314.5 932.83,-297.5 268.83,-297.5"/>
<text text-anchor="start" x="584.33" y="-304.5" font-family="Times,serif" text-decoration="underline" font-size="10.00">b :Bank</text>
<polygon fill="none" stroke="black" points="268.83,-269.5 268.83,-297.5 932.83,-297.5 932.83,-269.5 268.83,-269.5"/>
<text text-anchor="start" x="271.83" y="-286.5" font-family="Times,serif" font-size="10.00">accountsMap = d55fdcd9&#45;1166&#45;4b15&#45;b583&#45;dae968131bd0sendItToTheBank8a633aa5&#45;907c&#45;4e57&#45;a313&#45;22e0adb2672e7ec351d6&#45;652f&#45;4691&#45;8e72&#45;ea432d44a0c8</text>
<text text-anchor="start" x="271.83" y="-275.5" font-family="Times,serif" font-size="10.00">customerMap = e2f7bc4c&#45;ef2a&#45;466e&#45;b8a5&#45;d24f48b13afe1eaf6f4c&#45;4f92&#45;4e04&#45;bd87&#45;c82be03265debfe30646&#45;9111&#45;4fca&#45;86cd&#45;875828797043</text>
</g>
<!-- dd58f510_b3d6_4e4a_b3e4_d8429a49e714&#45;&gt;b -->
<g id="edge1" class="edge">
<title>dd58f510_b3d6_4e4a_b3e4_d8429a49e714&#45;&gt;b</title>
<path fill="none" stroke="black" d="M379.85,-355.65C423.8,-343.29 470.68,-330.1 509.9,-319.07"/>
<text text-anchor="middle" x="499.4" y="-322.07" font-family="Times,serif" font-size="10.00">bank</text>
<text text-anchor="middle" x="355.35" y="-347.65" font-family="Times,serif" font-size="10.00">transactions</text>
</g>
<!-- c -->
<g id="node3" class="node">
<title>c</title>
<polygon fill="none" stroke="black" points="167.83,-43 167.83,-60 331.83,-60 331.83,-43 167.83,-43"/>
<text text-anchor="start" x="225.83" y="-50" font-family="Times,serif" text-decoration="underline" font-size="10.00">c :Currency</text>
<polygon fill="none" stroke="black" points="167.83,-26 167.83,-43 331.83,-43 331.83,-26 167.83,-26"/>
<text text-anchor="start" x="170.83" y="-32" font-family="Times,serif" font-size="10.00">declaringClass = class model.Currency</text>
</g>
<!-- dd58f510_b3d6_4e4a_b3e4_d8429a49e714&#45;&gt;c -->
<g id="edge2" class="edge">
<title>dd58f510_b3d6_4e4a_b3e4_d8429a49e714&#45;&gt;c</title>
<path fill="none" stroke="black" d="M147.04,-354.98C99.83,-326.77 45.54,-284.74 18.83,-230 -2.23,-186.86 -9.17,-160.99 18.83,-122 50.79,-77.47 109.53,-58.03 159.77,-49.69"/>
<text text-anchor="middle" x="141.77" y="-52.69" font-family="Times,serif" font-size="10.00">currency</text>
</g>
<!-- sendItToTheBank -->
<g id="node4" class="node">
<title>sendItToTheBank</title>
<polygon fill="none" stroke="black" points="36.83,-209 36.83,-226 185.83,-226 185.83,-209 36.83,-209"/>
<text text-anchor="start" x="54.33" y="-216" font-family="Times,serif" text-decoration="underline" font-size="10.00">sendItToTheBank :Account</text>
<polygon fill="none" stroke="black" points="36.83,-126 36.83,-209 185.83,-209 185.83,-126 36.83,-126"/>
<text text-anchor="start" x="39.83" y="-198" font-family="Times,serif" font-size="10.00">balance = 69420.0</text>
<text text-anchor="start" x="39.83" y="-187" font-family="Times,serif" font-size="10.00">customerId = null</text>
<text text-anchor="start" x="39.83" y="-176" font-family="Times,serif" font-size="10.00">iban = &quot;EE123605337467162128&quot;</text>
<text text-anchor="start" x="39.83" y="-165" font-family="Times,serif" font-size="10.00">id = &quot;sendItToTheBank&quot;</text>
<text text-anchor="start" x="39.83" y="-154" font-family="Times,serif" font-size="10.00">receivedTransaction = </text>
<text text-anchor="start" x="39.83" y="-143" font-family="Times,serif" font-size="10.00">sentTransaction = </text>
<text text-anchor="start" x="39.83" y="-132" font-family="Times,serif" font-size="10.00">status = &quot;ACTIVE&quot;</text>
</g>
<!-- dd58f510_b3d6_4e4a_b3e4_d8429a49e714&#45;&gt;sendItToTheBank -->
<g id="edge3" class="edge">
<title>dd58f510_b3d6_4e4a_b3e4_d8429a49e714&#45;&gt;sendItToTheBank</title>
<path fill="none" stroke="black" d="M209.45,-354.84C189.8,-319.41 161.6,-268.57 140.39,-230.31"/>
<text text-anchor="middle" x="117.39" y="-233.31" font-family="Times,serif" font-size="10.00">destination</text>
</g>
<!-- d55fdcd9_1166_4b15_b583_dae968131bd0 -->
<g id="node5" class="node">
<title>d55fdcd9_1166_4b15_b583_dae968131bd0</title>
<polygon fill="none" stroke="black" points="219.83,-209 219.83,-226 440.83,-226 440.83,-209 219.83,-209"/>
<text text-anchor="start" x="222.83" y="-216" font-family="Times,serif" text-decoration="underline" font-size="10.00">d55fdcd9&#45;1166&#45;4b15&#45;b583&#45;dae968131bd0 :Account</text>
<polygon fill="none" stroke="black" points="219.83,-126 219.83,-209 440.83,-209 440.83,-126 219.83,-126"/>
<text text-anchor="start" x="229.83" y="-198" font-family="Times,serif" font-size="10.00">balance = 10.0</text>
<text text-anchor="start" x="229.83" y="-187" font-family="Times,serif" font-size="10.00">customerId = null</text>
<text text-anchor="start" x="229.83" y="-176" font-family="Times,serif" font-size="10.00">iban = &quot;EE526762161173564075&quot;</text>
<text text-anchor="start" x="229.83" y="-165" font-family="Times,serif" font-size="10.00">id = &quot;d55fdcd9&#45;1166&#45;4b15&#45;b583&#45;dae968131bd0&quot;</text>
<text text-anchor="start" x="229.83" y="-154" font-family="Times,serif" font-size="10.00">receivedTransaction = </text>
<text text-anchor="start" x="229.83" y="-143" font-family="Times,serif" font-size="10.00">sentTransaction = </text>
<text text-anchor="start" x="229.83" y="-132" font-family="Times,serif" font-size="10.00">status = &quot;ACTIVE&quot;</text>
</g>
<!-- dd58f510_b3d6_4e4a_b3e4_d8429a49e714&#45;&gt;d55fdcd9_1166_4b15_b583_dae968131bd0 -->
<g id="edge4" class="edge">
<title>dd58f510_b3d6_4e4a_b3e4_d8429a49e714&#45;&gt;d55fdcd9_1166_4b15_b583_dae968131bd0</title>
<path fill="none" stroke="black" d="M232.89,-354.86C234.37,-328.29 238.98,-293.86 251.83,-266 257.59,-253.5 265.67,-241.44 274.48,-230.46"/>
<text text-anchor="middle" x="260.98" y="-233.46" font-family="Times,serif" font-size="10.00">source</text>
</g>
<!-- s -->
<g id="node6" class="node">
<title>s</title>
<polygon fill="none" stroke="black" points="967.83,-292.5 967.83,-309.5 1172.83,-309.5 1172.83,-292.5 967.83,-292.5"/>
<text text-anchor="start" x="1053.33" y="-299.5" font-family="Times,serif" text-decoration="underline" font-size="10.00">s :Status</text>
<polygon fill="none" stroke="black" points="967.83,-275.5 967.83,-292.5 1172.83,-292.5 1172.83,-275.5 967.83,-275.5"/>
<text text-anchor="start" x="970.83" y="-281.5" font-family="Times,serif" font-size="10.00">declaringClass = class model.Transaction$Status</text>
</g>
<!-- dd58f510_b3d6_4e4a_b3e4_d8429a49e714&#45;&gt;s -->
<g id="edge5" class="edge">
<title>dd58f510_b3d6_4e4a_b3e4_d8429a49e714&#45;&gt;s</title>
<path fill="none" stroke="black" d="M379.99,-385.37C525.34,-372.85 753.71,-350.42 949.83,-319 959.81,-317.4 970.23,-315.51 980.56,-313.51"/>
<text text-anchor="middle" x="968.56" y="-316.51" font-family="Times,serif" font-size="10.00">status</text>
</g>
<!-- b&#45;&gt;sendItToTheBank -->
<g id="edge6" class="edge">
<title>b&#45;&gt;sendItToTheBank</title>
<path fill="none" stroke="black" d="M341.37,-265.95C294.16,-257.26 245.93,-245.61 201.83,-230 199.07,-229.02 196.3,-227.96 193.53,-226.83"/>
<text text-anchor="middle" x="221.53" y="-229.83" font-family="Times,serif" font-size="10.00">bankAccount</text>
<text text-anchor="middle" x="330.87" y="-257.95" font-family="Times,serif" font-size="10.00">bank</text>
</g>
<!-- b&#45;&gt;d55fdcd9_1166_4b15_b583_dae968131bd0 -->
<g id="edge9" class="edge">
<title>b&#45;&gt;d55fdcd9_1166_4b15_b583_dae968131bd0</title>
<path fill="none" stroke="black" d="M540.34,-265.95C513.2,-254.48 480.19,-240.53 448.44,-227.12"/>
<text text-anchor="middle" x="466.94" y="-230.12" font-family="Times,serif" font-size="10.00">accounts</text>
<text text-anchor="middle" x="550.84" y="-257.95" font-family="Times,serif" font-size="10.00">bank</text>
</g>
<!-- 8a633aa5_907c_4e57_a313_22e0adb2672e -->
<g id="node7" class="node">
<title>8a633aa5_907c_4e57_a313_22e0adb2672e</title>
<polygon fill="none" stroke="black" points="818.83,-209 818.83,-226 1056.83,-226 1056.83,-209 818.83,-209"/>
<text text-anchor="start" x="830.83" y="-216" font-family="Times,serif" text-decoration="underline" font-size="10.00">8a633aa5&#45;907c&#45;4e57&#45;a313&#45;22e0adb2672e :Account</text>
<polygon fill="none" stroke="black" points="818.83,-126 818.83,-209 1056.83,-209 1056.83,-126 818.83,-126"/>
<text text-anchor="start" x="821.83" y="-198" font-family="Times,serif" font-size="10.00">balance = 0.0</text>
<text text-anchor="start" x="821.83" y="-187" font-family="Times,serif" font-size="10.00">customerId = &quot;1eaf6f4c&#45;4f92&#45;4e04&#45;bd87&#45;c82be03265de&quot;</text>
<text text-anchor="start" x="821.83" y="-176" font-family="Times,serif" font-size="10.00">iban = null</text>
<text text-anchor="start" x="821.83" y="-165" font-family="Times,serif" font-size="10.00">id = &quot;8a633aa5&#45;907c&#45;4e57&#45;a313&#45;22e0adb2672e&quot;</text>
<text text-anchor="start" x="821.83" y="-154" font-family="Times,serif" font-size="10.00">receivedTransaction = </text>
<text text-anchor="start" x="821.83" y="-143" font-family="Times,serif" font-size="10.00">sentTransaction = </text>
<text text-anchor="start" x="821.83" y="-132" font-family="Times,serif" font-size="10.00">status = &quot;ACTIVE&quot;</text>
</g>
<!-- b&#45;&gt;8a633aa5_907c_4e57_a313_22e0adb2672e -->
<g id="edge7" class="edge">
<title>b&#45;&gt;8a633aa5_907c_4e57_a313_22e0adb2672e</title>
<path fill="none" stroke="black" d="M686.06,-265.88C720.59,-255.21 760.75,-242.43 796.83,-230 801.4,-228.42 806.05,-226.8 810.74,-225.14"/>
<text text-anchor="middle" x="792.24" y="-228.14" font-family="Times,serif" font-size="10.00">accounts</text>
<text text-anchor="middle" x="675.56" y="-257.88" font-family="Times,serif" font-size="10.00">bank</text>
</g>
<!-- 7ec351d6_652f_4691_8e72_ea432d44a0c8 -->
<g id="node8" class="node">
<title>7ec351d6_652f_4691_8e72_ea432d44a0c8</title>
<polygon fill="none" stroke="black" points="512.83,-209 512.83,-226 746.83,-226 746.83,-209 512.83,-209"/>
<text text-anchor="start" x="522.83" y="-216" font-family="Times,serif" text-decoration="underline" font-size="10.00">7ec351d6&#45;652f&#45;4691&#45;8e72&#45;ea432d44a0c8 :Account</text>
<polygon fill="none" stroke="black" points="512.83,-126 512.83,-209 746.83,-209 746.83,-126 512.83,-126"/>
<text text-anchor="start" x="515.83" y="-198" font-family="Times,serif" font-size="10.00">balance = 100.0</text>
<text text-anchor="start" x="515.83" y="-187" font-family="Times,serif" font-size="10.00">customerId = &quot;e2f7bc4c&#45;ef2a&#45;466e&#45;b8a5&#45;d24f48b13afe&quot;</text>
<text text-anchor="start" x="515.83" y="-176" font-family="Times,serif" font-size="10.00">iban = null</text>
<text text-anchor="start" x="515.83" y="-165" font-family="Times,serif" font-size="10.00">id = &quot;7ec351d6&#45;652f&#45;4691&#45;8e72&#45;ea432d44a0c8&quot;</text>
<text text-anchor="start" x="515.83" y="-154" font-family="Times,serif" font-size="10.00">receivedTransaction = </text>
<text text-anchor="start" x="515.83" y="-143" font-family="Times,serif" font-size="10.00">sentTransaction = </text>
<text text-anchor="start" x="515.83" y="-132" font-family="Times,serif" font-size="10.00">status = &quot;ACTIVE&quot;</text>
</g>
<!-- b&#45;&gt;7ec351d6_652f_4691_8e72_ea432d44a0c8 -->
<g id="edge8" class="edge">
<title>b&#45;&gt;7ec351d6_652f_4691_8e72_ea432d44a0c8</title>
<path fill="none" stroke="black" d="M607.33,-265.8C610.01,-255.25 613.2,-242.63 616.34,-230.25"/>
<text text-anchor="middle" x="597.84" y="-233.25" font-family="Times,serif" font-size="10.00">accounts</text>
<text text-anchor="middle" x="596.83" y="-257.8" font-family="Times,serif" font-size="10.00">bank</text>
</g>
<!-- e2f7bc4c_ef2a_466e_b8a5_d24f48b13afe -->
<g id="node9" class="node">
<title>e2f7bc4c_ef2a_466e_b8a5_d24f48b13afe</title>
<polygon fill="none" stroke="black" points="648.83,-65 648.83,-82 863.83,-82 863.83,-65 648.83,-65"/>
<text text-anchor="start" x="651.83" y="-72" font-family="Times,serif" text-decoration="underline" font-size="10.00">e2f7bc4c&#45;ef2a&#45;466e&#45;b8a5&#45;d24f48b13afe :Customer</text>
<polygon fill="none" stroke="black" points="648.83,-4 648.83,-65 863.83,-65 863.83,-4 648.83,-4"/>
<text text-anchor="start" x="660.83" y="-54" font-family="Times,serif" font-size="10.00">email = &quot;john@doe.ee&quot;</text>
<text text-anchor="start" x="660.83" y="-43" font-family="Times,serif" font-size="10.00">firstName = &quot;John&quot;</text>
<text text-anchor="start" x="660.83" y="-32" font-family="Times,serif" font-size="10.00">id = &quot;e2f7bc4c&#45;ef2a&#45;466e&#45;b8a5&#45;d24f48b13afe&quot;</text>
<text text-anchor="start" x="660.83" y="-21" font-family="Times,serif" font-size="10.00">lastName = &quot;Doe&quot;</text>
<text text-anchor="start" x="660.83" y="-10" font-family="Times,serif" font-size="10.00">password = &quot;pass1234&quot;</text>
</g>
<!-- b&#45;&gt;e2f7bc4c_ef2a_466e_b8a5_d24f48b13afe -->
<g id="edge10" class="edge">
<title>b&#45;&gt;e2f7bc4c_ef2a_466e_b8a5_d24f48b13afe</title>
<path fill="none" stroke="black" d="M720.99,-265.86C737.86,-257.17 753.07,-245.55 763.83,-230 792.96,-187.86 782.95,-126.6 771.1,-86.05"/>
<text text-anchor="middle" x="750.6" y="-89.05" font-family="Times,serif" font-size="10.00">customers</text>
<text text-anchor="middle" x="710.49" y="-257.86" font-family="Times,serif" font-size="10.00">bank</text>
</g>
<!-- 1eaf6f4c_4f92_4e04_bd87_c82be03265de -->
<g id="node10" class="node">
<title>1eaf6f4c_4f92_4e04_bd87_c82be03265de</title>
<polygon fill="none" stroke="black" points="940.83,-65 940.83,-82 1159.83,-82 1159.83,-65 940.83,-65"/>
<text text-anchor="start" x="943.83" y="-72" font-family="Times,serif" text-decoration="underline" font-size="10.00">1eaf6f4c&#45;4f92&#45;4e04&#45;bd87&#45;c82be03265de :Customer</text>
<polygon fill="none" stroke="black" points="940.83,-4 940.83,-65 1159.83,-65 1159.83,-4 940.83,-4"/>
<text text-anchor="start" x="952.83" y="-54" font-family="Times,serif" font-size="10.00">email = &quot;bobby@tt.ee&quot;</text>
<text text-anchor="start" x="952.83" y="-43" font-family="Times,serif" font-size="10.00">firstName = &quot;Bob&quot;</text>
<text text-anchor="start" x="952.83" y="-32" font-family="Times,serif" font-size="10.00">id = &quot;1eaf6f4c&#45;4f92&#45;4e04&#45;bd87&#45;c82be03265de&quot;</text>
<text text-anchor="start" x="952.83" y="-21" font-family="Times,serif" font-size="10.00">lastName = &quot;Jackson&quot;</text>
<text text-anchor="start" x="952.83" y="-10" font-family="Times,serif" font-size="10.00">password = &quot;secret&quot;</text>
</g>
<!-- b&#45;&gt;1eaf6f4c_4f92_4e04_bd87_c82be03265de -->
<g id="edge11" class="edge">
<title>b&#45;&gt;1eaf6f4c_4f92_4e04_bd87_c82be03265de</title>
<path fill="none" stroke="black" d="M917.09,-265.97C995.58,-256.47 1061.15,-244.43 1073.83,-230 1108.21,-190.86 1090.24,-127.99 1071.92,-86.34"/>
<text text-anchor="middle" x="1051.42" y="-89.34" font-family="Times,serif" font-size="10.00">customers</text>
<text text-anchor="middle" x="906.59" y="-257.97" font-family="Times,serif" font-size="10.00">bank</text>
</g>
<!-- bfe30646_9111_4fca_86cd_875828797043 -->
<g id="node11" class="node">
<title>bfe30646_9111_4fca_86cd_875828797043</title>
<polygon fill="none" stroke="black" points="366.83,-65 366.83,-82 587.83,-82 587.83,-65 366.83,-65"/>
<text text-anchor="start" x="369.83" y="-72" font-family="Times,serif" text-decoration="underline" font-size="10.00">bfe30646&#45;9111&#45;4fca&#45;86cd&#45;875828797043 :Customer</text>
<polygon fill="none" stroke="black" points="366.83,-4 366.83,-65 587.83,-65 587.83,-4 366.83,-4"/>
<text text-anchor="start" x="378.83" y="-54" font-family="Times,serif" font-size="10.00">email = &quot;johntest@doe.ee&quot;</text>
<text text-anchor="start" x="378.83" y="-43" font-family="Times,serif" font-size="10.00">firstName = &quot;johntest&quot;</text>
<text text-anchor="start" x="378.83" y="-32" font-family="Times,serif" font-size="10.00">id = &quot;bfe30646&#45;9111&#45;4fca&#45;86cd&#45;875828797043&quot;</text>
<text text-anchor="start" x="378.83" y="-21" font-family="Times,serif" font-size="10.00">lastName = &quot;Doe&quot;</text>
<text text-anchor="start" x="378.83" y="-10" font-family="Times,serif" font-size="10.00">password = &quot;pass1234&quot;</text>
</g>
<!-- b&#45;&gt;bfe30646_9111_4fca_86cd_875828797043 -->
<g id="edge12" class="edge">
<title>b&#45;&gt;bfe30646_9111_4fca_86cd_875828797043</title>
<path fill="none" stroke="black" d="M535.59,-265.9C520.2,-256.82 505.48,-245.02 495.83,-230 468.18,-187 467.36,-126.5 470.82,-86.32"/>
<text text-anchor="middle" x="450.32" y="-89.32" font-family="Times,serif" font-size="10.00">customers</text>
<text text-anchor="middle" x="525.09" y="-257.9" font-family="Times,serif" font-size="10.00">bank</text>
</g>
<!-- sendItToTheBank&#45;&gt;c -->
<g id="edge13" class="edge">
<title>sendItToTheBank&#45;&gt;c</title>
<path fill="none" stroke="black" d="M167.36,-121.72C188.86,-101.46 212.07,-79.58 228.37,-64.22"/>
<text text-anchor="middle" x="210.37" y="-67.22" font-family="Times,serif" font-size="10.00">currency</text>
</g>
<!-- d55fdcd9_1166_4b15_b583_dae968131bd0&#45;&gt;c -->
<g id="edge14" class="edge">
<title>d55fdcd9_1166_4b15_b583_dae968131bd0&#45;&gt;c</title>
<path fill="none" stroke="black" d="M297.29,-121.72C284.91,-101.46 271.55,-79.58 262.17,-64.22"/>
<text text-anchor="middle" x="280.17" y="-67.22" font-family="Times,serif" font-size="10.00">currency</text>
</g>
<!-- d55fdcd9_1166_4b15_b583_dae968131bd0&#45;&gt;bfe30646_9111_4fca_86cd_875828797043 -->
<g id="edge15" class="edge">
<title>d55fdcd9_1166_4b15_b583_dae968131bd0&#45;&gt;bfe30646_9111_4fca_86cd_875828797043</title>
<path fill="none" stroke="black" d="M389.62,-121.72C402.81,-109.96 416.62,-97.66 429.25,-86.4"/>
<text text-anchor="middle" x="416.25" y="-89.4" font-family="Times,serif" font-size="10.00">owner</text>
<text text-anchor="middle" x="373.12" y="-113.72" font-family="Times,serif" font-size="10.00">account</text>
</g>
<!-- 8a633aa5_907c_4e57_a313_22e0adb2672e&#45;&gt;c -->
<g id="edge16" class="edge">
<title>8a633aa5_907c_4e57_a313_22e0adb2672e&#45;&gt;c</title>
<path fill="none" stroke="black" d="M810.78,-132.97C795.09,-128.77 779.17,-124.97 763.83,-122 582.06,-86.84 528.48,-130.7 348.83,-86 328.53,-80.95 307.05,-72.28 289.3,-64.12"/>
<text text-anchor="middle" x="307.3" y="-67.12" font-family="Times,serif" font-size="10.00">currency</text>
</g>
<!-- 8a633aa5_907c_4e57_a313_22e0adb2672e&#45;&gt;1eaf6f4c_4f92_4e04_bd87_c82be03265de -->
<g id="edge17" class="edge">
<title>8a633aa5_907c_4e57_a313_22e0adb2672e&#45;&gt;1eaf6f4c_4f92_4e04_bd87_c82be03265de</title>
<path fill="none" stroke="black" d="M983.38,-121.72C993.43,-109.96 1003.95,-97.66 1013.58,-86.4"/>
<text text-anchor="middle" x="1000.58" y="-89.4" font-family="Times,serif" font-size="10.00">owner</text>
<text text-anchor="middle" x="966.88" y="-113.72" font-family="Times,serif" font-size="10.00">account</text>
</g>
<!-- 7ec351d6_652f_4691_8e72_ea432d44a0c8&#45;&gt;c -->
<g id="edge18" class="edge">
<title>7ec351d6_652f_4691_8e72_ea432d44a0c8&#45;&gt;c</title>
<path fill="none" stroke="black" d="M504.63,-136.61C444.1,-117.8 378.29,-96.89 348.83,-86 330.96,-79.4 311.62,-71.39 294.81,-64.14"/>
<text text-anchor="middle" x="276.81" y="-56.14" font-family="Times,serif" font-size="10.00">currency</text>
</g>
<!-- 7ec351d6_652f_4691_8e72_ea432d44a0c8&#45;&gt;e2f7bc4c_ef2a_466e_b8a5_d24f48b13afe -->
<g id="edge19" class="edge">
<title>7ec351d6_652f_4691_8e72_ea432d44a0c8&#45;&gt;e2f7bc4c_ef2a_466e_b8a5_d24f48b13afe</title>
<path fill="none" stroke="black" d="M681.07,-121.72C692.38,-109.96 704.22,-97.66 715.05,-86.4"/>
<text text-anchor="middle" x="702.05" y="-89.4" font-family="Times,serif" font-size="10.00">owner</text>
<text text-anchor="middle" x="664.57" y="-113.72" font-family="Times,serif" font-size="10.00">account</text>
</g>
</g>
</svg>
