<?xml version="1.0" encoding="UTF-8" standalone="no"?>
<!DOCTYPE svg PUBLIC "-//W3C//DTD SVG 1.1//EN"
 "http://www.w3.org/Graphics/SVG/1.1/DTD/svg11.dtd">
<!-- Generated by graphviz version 2.49.3 (20211023.0002)
 -->
<!-- Pages: 1 -->
<svg width="846px" height="383px"
 viewBox="0.00 0.00 846.00 383.00" xmlns="http://www.w3.org/2000/svg" xmlns:xlink="http://www.w3.org/1999/xlink">
<g id="graph0" class="graph" transform="scale(1.0 1.0) rotate(0) translate(4 379)">
<polygon fill="white" stroke="transparent" points="-4,4 -4,-379 842,-379 842,4 -4,4"/>
<!-- 4ed9c17f_5bff_42fb_82ff_e389f19334f2 -->
<g id="node1" class="node">
<title>4ed9c17f_5bff_42fb_82ff_e389f19334f2</title>
<polygon fill="none" stroke="black" points="269,-354 269,-371 486,-371 486,-354 269,-354"/>
<text text-anchor="start" x="272" y="-361" font-family="Times,serif" text-decoration="underline" font-size="10.00">4ed9c17f&#45;5bff&#45;42fb&#45;82ff&#45;e389f19334f2 :Transaction</text>
<polygon fill="none" stroke="black" points="269,-293 269,-354 486,-354 486,-293 269,-293"/>
<text text-anchor="start" x="285" y="-343" font-family="Times,serif" font-size="10.00">amount = 25.0</text>
<text text-anchor="start" x="285" y="-332" font-family="Times,serif" font-size="10.00">description = &quot;Ref: concert ticket&quot;</text>
<text text-anchor="start" x="285" y="-321" font-family="Times,serif" font-size="10.00">id = &quot;4ed9c17f&#45;5bff&#45;42fb&#45;82ff&#45;e389f19334f2&quot;</text>
<text text-anchor="start" x="285" y="-310" font-family="Times,serif" font-size="10.00">rejectionDescription = &quot;&quot;</text>
<text text-anchor="start" x="285" y="-299" font-family="Times,serif" font-size="10.00">timestamp = 2021&#45;11&#45;27T18:55:01.908977</text>
</g>
<!-- b -->
<g id="node2" class="node">
<title>b</title>
<polygon fill="none" stroke="black" points="358,-226 358,-243 396,-243 396,-226 358,-226"/>
<text text-anchor="start" x="361" y="-233" font-family="Times,serif" text-decoration="underline" font-size="10.00">b :Bank</text>
<polygon fill="none" stroke="black" points="358,-220 358,-226 396,-226 396,-220 358,-220"/>
</g>
<!-- 4ed9c17f_5bff_42fb_82ff_e389f19334f2&#45;&gt;b -->
<g id="edge1" class="edge">
<title>4ed9c17f_5bff_42fb_82ff_e389f19334f2&#45;&gt;b</title>
<path fill="none" stroke="black" d="M377,-288.87C377,-275.38 377,-261.19 377,-250.48"/>
<text text-anchor="middle" x="367" y="-253.48" font-family="Times,serif" font-size="10.00">bank</text>
<text text-anchor="middle" x="353" y="-280.87" font-family="Times,serif" font-size="10.00">transactions</text>
</g>
<!-- c -->
<g id="node3" class="node">
<title>c</title>
<polygon fill="none" stroke="black" points="331,-43 331,-60 466,-60 466,-43 331,-43"/>
<text text-anchor="start" x="375" y="-50" font-family="Times,serif" text-decoration="underline" font-size="10.00">c :Currency</text>
<polygon fill="none" stroke="black" points="331,-26 331,-43 466,-43 466,-26 331,-26"/>
<text text-anchor="start" x="334" y="-32" font-family="Times,serif" font-size="10.00">declaringClass = class Currency</text>
</g>
<!-- 4ed9c17f_5bff_42fb_82ff_e389f19334f2&#45;&gt;c -->
<g id="edge2" class="edge">
<title>4ed9c17f_5bff_42fb_82ff_e389f19334f2&#45;&gt;c</title>
<path fill="none" stroke="black" d="M348.28,-288.72C322.89,-245.75 293.29,-177.76 317,-122 327.16,-98.11 348.63,-77.99 366.91,-64.17"/>
<text text-anchor="middle" x="349.41" y="-67.17" font-family="Times,serif" font-size="10.00">currency</text>
</g>
<!-- 92573b50_8589_4fdc_a352_6447b7346801 -->
<g id="node4" class="node">
<title>92573b50_8589_4fdc_a352_6447b7346801</title>
<polygon fill="none" stroke="black" points="8,-153.5 8,-170.5 224,-170.5 224,-153.5 8,-153.5"/>
<text text-anchor="start" x="11" y="-160.5" font-family="Times,serif" text-decoration="underline" font-size="10.00">92573b50&#45;8589&#45;4fdc&#45;a352&#45;6447b7346801 :Account</text>
<polygon fill="none" stroke="black" points="8,-125.5 8,-153.5 224,-153.5 224,-125.5 8,-125.5"/>
<text text-anchor="start" x="17" y="-142.5" font-family="Times,serif" font-size="10.00">balance = 25.0</text>
<text text-anchor="start" x="17" y="-131.5" font-family="Times,serif" font-size="10.00">id = &quot;92573b50&#45;8589&#45;4fdc&#45;a352&#45;6447b7346801&quot;</text>
</g>
<!-- 4ed9c17f_5bff_42fb_82ff_e389f19334f2&#45;&gt;92573b50_8589_4fdc_a352_6447b7346801 -->
<g id="edge3" class="edge">
<title>4ed9c17f_5bff_42fb_82ff_e389f19334f2&#45;&gt;92573b50_8589_4fdc_a352_6447b7346801</title>
<path fill="none" stroke="black" d="M302.46,-288.98C283.71,-277.78 263.86,-265.34 246,-253 210.28,-228.32 171.63,-196.88 145.84,-175.17"/>
<text text-anchor="middle" x="123.84" y="-178.17" font-family="Times,serif" font-size="10.00">destination</text>
</g>
<!-- e667ee78_772c_4e09_8e26_b5d92ae15326 -->
<g id="node5" class="node">
<title>e667ee78_772c_4e09_8e26_b5d92ae15326</title>
<polygon fill="none" stroke="black" points="616,-153.5 616,-170.5 830,-170.5 830,-153.5 616,-153.5"/>
<text text-anchor="start" x="619" y="-160.5" font-family="Times,serif" text-decoration="underline" font-size="10.00">e667ee78&#45;772c&#45;4e09&#45;8e26&#45;b5d92ae15326 :Account</text>
<polygon fill="none" stroke="black" points="616,-125.5 616,-153.5 830,-153.5 830,-125.5 616,-125.5"/>
<text text-anchor="start" x="625" y="-142.5" font-family="Times,serif" font-size="10.00">balance = 75.0</text>
<text text-anchor="start" x="625" y="-131.5" font-family="Times,serif" font-size="10.00">id = &quot;e667ee78&#45;772c&#45;4e09&#45;8e26&#45;b5d92ae15326&quot;</text>
</g>
<!-- 4ed9c17f_5bff_42fb_82ff_e389f19334f2&#45;&gt;e667ee78_772c_4e09_8e26_b5d92ae15326 -->
<g id="edge4" class="edge">
<title>4ed9c17f_5bff_42fb_82ff_e389f19334f2&#45;&gt;e667ee78_772c_4e09_8e26_b5d92ae15326</title>
<path fill="none" stroke="black" d="M398.53,-288.7C414.74,-258.44 436.56,-221.31 451,-211 457.81,-206.14 536.59,-188.59 607.62,-173.48"/>
<text text-anchor="middle" x="594.12" y="-176.48" font-family="Times,serif" font-size="10.00">source</text>
</g>
<!-- s -->
<g id="node6" class="node">
<title>s</title>
<polygon fill="none" stroke="black" points="468,-232 468,-249 642,-249 642,-232 468,-232"/>
<text text-anchor="start" x="538" y="-239" font-family="Times,serif" text-decoration="underline" font-size="10.00">s :Status</text>
<polygon fill="none" stroke="black" points="468,-215 468,-232 642,-232 642,-215 468,-215"/>
<text text-anchor="start" x="471" y="-221" font-family="Times,serif" font-size="10.00">declaringClass = class Transaction$Status</text>
</g>
<!-- 4ed9c17f_5bff_42fb_82ff_e389f19334f2&#45;&gt;s -->
<g id="edge5" class="edge">
<title>4ed9c17f_5bff_42fb_82ff_e389f19334f2&#45;&gt;s</title>
<path fill="none" stroke="black" d="M453.52,-288.87C476.14,-276.42 499.85,-263.37 518.66,-253.01"/>
<text text-anchor="middle" x="507.16" y="-256.01" font-family="Times,serif" font-size="10.00">status</text>
</g>
<!-- b&#45;&gt;92573b50_8589_4fdc_a352_6447b7346801 -->
<g id="edge8" class="edge">
<title>b&#45;&gt;92573b50_8589_4fdc_a352_6447b7346801</title>
<path fill="none" stroke="black" d="M349.56,-222.43C313.83,-211.27 249.8,-191.28 197.81,-175.05"/>
<text text-anchor="middle" x="180.31" y="-178.05" font-family="Times,serif" font-size="10.00">accounts</text>
<text text-anchor="middle" x="339.56" y="-225.43" font-family="Times,serif" font-size="10.00">bank</text>
</g>
<!-- b&#45;&gt;e667ee78_772c_4e09_8e26_b5d92ae15326 -->
<g id="edge7" class="edge">
<title>b&#45;&gt;e667ee78_772c_4e09_8e26_b5d92ae15326</title>
<path fill="none" stroke="black" d="M404.38,-216.46C408.86,-214.43 413.5,-212.52 418,-211 422.72,-209.4 523.25,-189.23 607.62,-172.42"/>
<text text-anchor="middle" x="590.12" y="-164.42" font-family="Times,serif" font-size="10.00">accounts</text>
<text text-anchor="middle" x="414.38" y="-219.46" font-family="Times,serif" font-size="10.00">bank</text>
</g>
<!-- e00a156f_0c0c_4fed_8650_40d5e7fe8965 -->
<g id="node7" class="node">
<title>e00a156f_0c0c_4fed_8650_40d5e7fe8965</title>
<polygon fill="none" stroke="black" points="334,-153.5 334,-170.5 544,-170.5 544,-153.5 334,-153.5"/>
<text text-anchor="start" x="337" y="-160.5" font-family="Times,serif" text-decoration="underline" font-size="10.00">e00a156f&#45;0c0c&#45;4fed&#45;8650&#45;40d5e7fe8965 :Account</text>
<polygon fill="none" stroke="black" points="334,-125.5 334,-153.5 544,-153.5 544,-125.5 334,-125.5"/>
<text text-anchor="start" x="343.5" y="-142.5" font-family="Times,serif" font-size="10.00">balance = 69420.0</text>
<text text-anchor="start" x="343.5" y="-131.5" font-family="Times,serif" font-size="10.00">id = &quot;e00a156f&#45;0c0c&#45;4fed&#45;8650&#45;40d5e7fe8965&quot;</text>
</g>
<!-- b&#45;&gt;e00a156f_0c0c_4fed_8650_40d5e7fe8965 -->
<g id="edge6" class="edge">
<title>b&#45;&gt;e00a156f_0c0c_4fed_8650_40d5e7fe8965</title>
<path fill="none" stroke="black" d="M390.15,-213.72C398.68,-202.5 409.95,-187.69 419.51,-175.12"/>
<text text-anchor="middle" x="392.51" y="-178.12" font-family="Times,serif" font-size="10.00">bankAccount</text>
<text text-anchor="middle" x="380.15" y="-205.72" font-family="Times,serif" font-size="10.00">bank</text>
</g>
<!-- 3d784bc3_4731_482c_9d08_598bbd008010 -->
<g id="node8" class="node">
<title>3d784bc3_4731_482c_9d08_598bbd008010</title>
<polygon fill="none" stroke="black" points="510,-65 510,-82 733,-82 733,-65 510,-65"/>
<text text-anchor="start" x="513" y="-72" font-family="Times,serif" text-decoration="underline" font-size="10.00">3d784bc3&#45;4731&#45;482c&#45;9d08&#45;598bbd008010 :Customer</text>
<polygon fill="none" stroke="black" points="510,-4 510,-65 733,-65 733,-4 510,-4"/>
<text text-anchor="start" x="522" y="-54" font-family="Times,serif" font-size="10.00">email = &quot;john@doe.ee&quot;</text>
<text text-anchor="start" x="522" y="-43" font-family="Times,serif" font-size="10.00">firstName = &quot;John&quot;</text>
<text text-anchor="start" x="522" y="-32" font-family="Times,serif" font-size="10.00">id = &quot;3d784bc3&#45;4731&#45;482c&#45;9d08&#45;598bbd008010&quot;</text>
<text text-anchor="start" x="522" y="-21" font-family="Times,serif" font-size="10.00">lastName = &quot;Doe&quot;</text>
<text text-anchor="start" x="522" y="-10" font-family="Times,serif" font-size="10.00">password = &quot;pass1234&quot;</text>
</g>
<!-- b&#45;&gt;3d784bc3_4731_482c_9d08_598bbd008010 -->
<g id="edge9" class="edge">
<title>b&#45;&gt;3d784bc3_4731_482c_9d08_598bbd008010</title>
<path fill="none" stroke="black" d="M404,-216.85C408.6,-214.73 413.39,-212.68 418,-211 479.56,-188.51 510.62,-216.92 561,-175 588.02,-152.52 603.45,-115.26 611.88,-86.21"/>
<text text-anchor="middle" x="591.38" y="-89.21" font-family="Times,serif" font-size="10.00">customers</text>
<text text-anchor="middle" x="414" y="-208.85" font-family="Times,serif" font-size="10.00">bank</text>
</g>
<!-- 947481ea_030f_42d7_bace_d391b1d0d027 -->
<g id="node9" class="node">
<title>947481ea_030f_42d7_bace_d391b1d0d027</title>
<polygon fill="none" stroke="black" points="57,-65 57,-82 277,-82 277,-65 57,-65"/>
<text text-anchor="start" x="60" y="-72" font-family="Times,serif" text-decoration="underline" font-size="10.00">947481ea&#45;030f&#45;42d7&#45;bace&#45;d391b1d0d027 :Customer</text>
<polygon fill="none" stroke="black" points="57,-4 57,-65 277,-65 277,-4 57,-4"/>
<text text-anchor="start" x="69" y="-54" font-family="Times,serif" font-size="10.00">email = &quot;bobby@tt.ee&quot;</text>
<text text-anchor="start" x="69" y="-43" font-family="Times,serif" font-size="10.00">firstName = &quot;Bob&quot;</text>
<text text-anchor="start" x="69" y="-32" font-family="Times,serif" font-size="10.00">id = &quot;947481ea&#45;030f&#45;42d7&#45;bace&#45;d391b1d0d027&quot;</text>
<text text-anchor="start" x="69" y="-21" font-family="Times,serif" font-size="10.00">lastName = &quot;Jackson&quot;</text>
<text text-anchor="start" x="69" y="-10" font-family="Times,serif" font-size="10.00">password = &quot;secret&quot;</text>
</g>
<!-- b&#45;&gt;947481ea_030f_42d7_bace_d391b1d0d027 -->
<g id="edge10" class="edge">
<title>b&#45;&gt;947481ea_030f_42d7_bace_d391b1d0d027</title>
<path fill="none" stroke="black" d="M357.62,-213.74C325.33,-184.99 259.62,-126.47 214.46,-86.26"/>
<text text-anchor="middle" x="193.96" y="-89.26" font-family="Times,serif" font-size="10.00">customers</text>
<text text-anchor="middle" x="347.62" y="-205.74" font-family="Times,serif" font-size="10.00">bank</text>
</g>
<!-- 92573b50_8589_4fdc_a352_6447b7346801&#45;&gt;c -->
<g id="edge11" class="edge">
<title>92573b50_8589_4fdc_a352_6447b7346801&#45;&gt;c</title>
<path fill="none" stroke="black" d="M192.97,-121.87C224.42,-111.14 261.08,-98.32 294,-86 312.33,-79.14 332.29,-71.19 349.79,-64.07"/>
<text text-anchor="middle" x="367.29" y="-67.07" font-family="Times,serif" font-size="10.00">currency</text>
</g>
<!-- 92573b50_8589_4fdc_a352_6447b7346801&#45;&gt;947481ea_030f_42d7_bace_d391b1d0d027 -->
<g id="edge12" class="edge">
<title>92573b50_8589_4fdc_a352_6447b7346801&#45;&gt;947481ea_030f_42d7_bace_d391b1d0d027</title>
<path fill="none" stroke="black" d="M128.61,-121.92C133.92,-111.14 140.24,-98.31 146.2,-86.2"/>
<text text-anchor="middle" x="133.7" y="-89.2" font-family="Times,serif" font-size="10.00">owner</text>
<text text-anchor="middle" x="112.61" y="-113.92" font-family="Times,serif" font-size="10.00">account</text>
</g>
<!-- e667ee78_772c_4e09_8e26_b5d92ae15326&#45;&gt;c -->
<g id="edge13" class="edge">
<title>e667ee78_772c_4e09_8e26_b5d92ae15326&#45;&gt;c</title>
<path fill="none" stroke="black" d="M613.72,-121.97C575.17,-112 531.79,-99.67 493,-86 475.14,-79.71 455.95,-71.51 439.53,-64.03"/>
<text text-anchor="middle" x="457.03" y="-67.03" font-family="Times,serif" font-size="10.00">currency</text>
</g>
<!-- e667ee78_772c_4e09_8e26_b5d92ae15326&#45;&gt;3d784bc3_4731_482c_9d08_598bbd008010 -->
<g id="edge14" class="edge">
<title>e667ee78_772c_4e09_8e26_b5d92ae15326&#45;&gt;3d784bc3_4731_482c_9d08_598bbd008010</title>
<path fill="none" stroke="black" d="M697.79,-121.92C687.17,-111.14 674.52,-98.31 662.59,-86.2"/>
<text text-anchor="middle" x="650.09" y="-89.2" font-family="Times,serif" font-size="10.00">owner</text>
<text text-anchor="middle" x="681.79" y="-113.92" font-family="Times,serif" font-size="10.00">account</text>
</g>
<!-- e00a156f_0c0c_4fed_8650_40d5e7fe8965&#45;&gt;c -->
<g id="edge15" class="edge">
<title>e00a156f_0c0c_4fed_8650_40d5e7fe8965&#45;&gt;c</title>
<path fill="none" stroke="black" d="M428.87,-121.92C421.8,-104.08 412.5,-80.61 405.97,-64.11"/>
<text text-anchor="middle" x="423.47" y="-67.11" font-family="Times,serif" font-size="10.00">currency</text>
</g>
</g>
</svg>
