<?xml version="1.0" encoding="UTF-8" standalone="no"?>
<!DOCTYPE svg PUBLIC "-//W3C//DTD SVG 1.1//EN"
 "http://www.w3.org/Graphics/SVG/1.1/DTD/svg11.dtd">
<!-- Generated by graphviz version 2.49.3 (20211023.0002)
 -->
<!-- Title: model Pages: 1 -->
<svg width="1316px" height="449px"
 viewBox="0.00 0.00 1315.50 449.00" xmlns="http://www.w3.org/2000/svg" xmlns:xlink="http://www.w3.org/1999/xlink">
<g id="graph0" class="graph" transform="scale(1.0 1.0) rotate(0) translate(4 445)">
<title>model</title>
<polygon fill="white" stroke="transparent" points="-4,4 -4,-445 1311.5,-445 1311.5,4 -4,4"/>
<!-- d6fa2b83_8fc7_4295_8cb2_deb9c7fa7db1 -->
<g id="node1" class="node">
<title>d6fa2b83_8fc7_4295_8cb2_deb9c7fa7db1</title>
<polygon fill="none" stroke="black" points="269.5,-420 269.5,-437 493.5,-437 493.5,-420 269.5,-420"/>
<text text-anchor="start" x="272.5" y="-427" font-family="Times,serif" text-decoration="underline" font-size="10.00">d6fa2b83&#45;8fc7&#45;4295&#45;8cb2&#45;deb9c7fa7db1 :Transaction</text>
<polygon fill="none" stroke="black" points="269.5,-359 269.5,-420 493.5,-420 493.5,-359 269.5,-359"/>
<text text-anchor="start" x="285.5" y="-409" font-family="Times,serif" font-size="10.00">amount = 250.0</text>
<text text-anchor="start" x="285.5" y="-398" font-family="Times,serif" font-size="10.00">description = &quot;Salary&quot;</text>
<text text-anchor="start" x="285.5" y="-387" font-family="Times,serif" font-size="10.00">id = &quot;d6fa2b83&#45;8fc7&#45;4295&#45;8cb2&#45;deb9c7fa7db1&quot;</text>
<text text-anchor="start" x="285.5" y="-376" font-family="Times,serif" font-size="10.00">rejectionDescription = &quot;&quot;</text>
<text text-anchor="start" x="285.5" y="-365" font-family="Times,serif" font-size="10.00">timestamp = 2021&#45;12&#45;05T17:29:31.699101</text>
</g>
<!-- b -->
<g id="node2" class="node">
<title>b</title>
<polygon fill="none" stroke="black" points="417.5,-297.5 417.5,-314.5 1063.5,-314.5 1063.5,-297.5 417.5,-297.5"/>
<text text-anchor="start" x="724.5" y="-304.5" font-family="Times,serif" text-decoration="underline" font-size="10.00">b :Bank</text>
<polygon fill="none" stroke="black" points="417.5,-269.5 417.5,-297.5 1063.5,-297.5 1063.5,-269.5 417.5,-269.5"/>
<text text-anchor="start" x="420.5" y="-286.5" font-family="Times,serif" font-size="10.00">accountsMap = 93eb3c39&#45;fe33&#45;4d24&#45;b163&#45;508777cf69ddsendItToTheBank8a633aa5&#45;907c&#45;4e57&#45;a313&#45;22e0adb2672e7ec351d6&#45;652f&#45;4691&#45;8e72&#45;ea432d44a0c8</text>
<text text-anchor="start" x="420.5" y="-275.5" font-family="Times,serif" font-size="10.00">customerMap = 215c15ab&#45;361e&#45;48e2&#45;b592&#45;cc6f47287046e2f7bc4c&#45;ef2a&#45;466e&#45;b8a5&#45;d24f48b13afe1eaf6f4c&#45;4f92&#45;4e04&#45;bd87&#45;c82be03265de</text>
</g>
<!-- d6fa2b83_8fc7_4295_8cb2_deb9c7fa7db1&#45;&gt;b -->
<g id="edge1" class="edge">
<title>d6fa2b83_8fc7_4295_8cb2_deb9c7fa7db1&#45;&gt;b</title>
<path fill="none" stroke="black" d="M501.54,-362.39C550.67,-348.23 606.49,-332.14 651.82,-319.07"/>
<text text-anchor="middle" x="641.82" y="-322.07" font-family="Times,serif" font-size="10.00">bank</text>
<text text-anchor="middle" x="525.54" y="-365.39" font-family="Times,serif" font-size="10.00">transactions</text>
</g>
<!-- c -->
<g id="node3" class="node">
<title>c</title>
<polygon fill="none" stroke="black" points="385.5,-43 385.5,-60 548.5,-60 548.5,-43 385.5,-43"/>
<text text-anchor="start" x="443.5" y="-50" font-family="Times,serif" text-decoration="underline" font-size="10.00">c :Currency</text>
<polygon fill="none" stroke="black" points="385.5,-26 385.5,-43 548.5,-43 548.5,-26 385.5,-26"/>
<text text-anchor="start" x="388.5" y="-32" font-family="Times,serif" font-size="10.00">declaringClass = class model.Currency</text>
</g>
<!-- d6fa2b83_8fc7_4295_8cb2_deb9c7fa7db1&#45;&gt;c -->
<g id="edge2" class="edge">
<title>d6fa2b83_8fc7_4295_8cb2_deb9c7fa7db1&#45;&gt;c</title>
<path fill="none" stroke="black" d="M356.03,-354.86C325.36,-298.16 283.09,-195.88 326.5,-122 342.57,-94.65 372.09,-76.19 399.89,-64.13"/>
<text text-anchor="middle" x="382.39" y="-67.13" font-family="Times,serif" font-size="10.00">currency</text>
</g>
<!-- 93eb3c39_fe33_4d24_b163_508777cf69dd -->
<g id="node4" class="node">
<title>93eb3c39_fe33_4d24_b163_508777cf69dd</title>
<polygon fill="none" stroke="black" points="8.5,-209 8.5,-226 271.5,-226 271.5,-209 8.5,-209"/>
<text text-anchor="start" x="36.5" y="-216" font-family="Times,serif" text-decoration="underline" font-size="10.00">93eb3c39&#45;fe33&#45;4d24&#45;b163&#45;508777cf69dd :Account</text>
<polygon fill="none" stroke="black" points="8.5,-126 8.5,-209 271.5,-209 271.5,-126 8.5,-126"/>
<text text-anchor="start" x="11.5" y="-198" font-family="Times,serif" font-size="10.00">balance = 260.0</text>
<text text-anchor="start" x="11.5" y="-187" font-family="Times,serif" font-size="10.00">customerId = null</text>
<text text-anchor="start" x="11.5" y="-176" font-family="Times,serif" font-size="10.00">iban = &quot;EE928481987970763034&quot;</text>
<text text-anchor="start" x="11.5" y="-165" font-family="Times,serif" font-size="10.00">id = &quot;93eb3c39&#45;fe33&#45;4d24&#45;b163&#45;508777cf69dd&quot;</text>
<text text-anchor="start" x="11.5" y="-154" font-family="Times,serif" font-size="10.00">receivedTransaction = d6fa2b83&#45;8fc7&#45;4295&#45;8cb2&#45;deb9c7fa7db1</text>
<text text-anchor="start" x="11.5" y="-143" font-family="Times,serif" font-size="10.00">sentTransaction = </text>
<text text-anchor="start" x="11.5" y="-132" font-family="Times,serif" font-size="10.00">status = &quot;ACTIVE&quot;</text>
</g>
<!-- d6fa2b83_8fc7_4295_8cb2_deb9c7fa7db1&#45;&gt;93eb3c39_fe33_4d24_b163_508777cf69dd -->
<g id="edge3" class="edge">
<title>d6fa2b83_8fc7_4295_8cb2_deb9c7fa7db1&#45;&gt;93eb3c39_fe33_4d24_b163_508777cf69dd</title>
<path fill="none" stroke="black" d="M333.39,-354.66C320.4,-343.15 306.37,-330.64 293.5,-319 261.26,-289.86 225.57,-256.98 196.66,-230.2"/>
<text text-anchor="middle" x="174.66" y="-233.2" font-family="Times,serif" font-size="10.00">destination</text>
<text text-anchor="middle" x="276.39" y="-346.66" font-family="Times,serif" font-size="10.00">allTransactionsOrderedDesc</text>
</g>
<!-- sendItToTheBank -->
<g id="node5" class="node">
<title>sendItToTheBank</title>
<polygon fill="none" stroke="black" points="344.5,-209 344.5,-226 589.5,-226 589.5,-209 344.5,-209"/>
<text text-anchor="start" x="411.5" y="-216" font-family="Times,serif" text-decoration="underline" font-size="10.00">sendItToTheBank :Account</text>
<polygon fill="none" stroke="black" points="344.5,-126 344.5,-209 589.5,-209 589.5,-126 344.5,-126"/>
<text text-anchor="start" x="347.5" y="-198" font-family="Times,serif" font-size="10.00">balance = 69170.0</text>
<text text-anchor="start" x="347.5" y="-187" font-family="Times,serif" font-size="10.00">customerId = null</text>
<text text-anchor="start" x="347.5" y="-176" font-family="Times,serif" font-size="10.00">iban = &quot;EE447486943053804110&quot;</text>
<text text-anchor="start" x="347.5" y="-165" font-family="Times,serif" font-size="10.00">id = &quot;sendItToTheBank&quot;</text>
<text text-anchor="start" x="347.5" y="-154" font-family="Times,serif" font-size="10.00">receivedTransaction = </text>
<text text-anchor="start" x="347.5" y="-143" font-family="Times,serif" font-size="10.00">sentTransaction = d6fa2b83&#45;8fc7&#45;4295&#45;8cb2&#45;deb9c7fa7db1</text>
<text text-anchor="start" x="347.5" y="-132" font-family="Times,serif" font-size="10.00">status = &quot;ACTIVE&quot;</text>
</g>
<!-- d6fa2b83_8fc7_4295_8cb2_deb9c7fa7db1&#45;&gt;sendItToTheBank -->
<g id="edge4" class="edge">
<title>d6fa2b83_8fc7_4295_8cb2_deb9c7fa7db1&#45;&gt;sendItToTheBank</title>
<path fill="none" stroke="black" d="M382.38,-354.91C384.18,-328.51 388.85,-294.26 400.5,-266 405.56,-253.73 412.69,-241.61 420.4,-230.45"/>
<text text-anchor="middle" x="406.9" y="-233.45" font-family="Times,serif" font-size="10.00">source</text>
<text text-anchor="middle" x="439.38" y="-346.91" font-family="Times,serif" font-size="10.00">allTransactionsOrderedDesc</text>
</g>
<!-- s -->
<g id="node6" class="node">
<title>s</title>
<polygon fill="none" stroke="black" points="1097.5,-292.5 1097.5,-309.5 1299.5,-309.5 1299.5,-292.5 1097.5,-292.5"/>
<text text-anchor="start" x="1181.5" y="-299.5" font-family="Times,serif" text-decoration="underline" font-size="10.00">s :Status</text>
<polygon fill="none" stroke="black" points="1097.5,-275.5 1097.5,-292.5 1299.5,-292.5 1299.5,-275.5 1097.5,-275.5"/>
<text text-anchor="start" x="1100.5" y="-281.5" font-family="Times,serif" font-size="10.00">declaringClass = class model.Transaction$Status</text>
</g>
<!-- d6fa2b83_8fc7_4295_8cb2_deb9c7fa7db1&#45;&gt;s -->
<g id="edge5" class="edge">
<title>d6fa2b83_8fc7_4295_8cb2_deb9c7fa7db1&#45;&gt;s</title>
<path fill="none" stroke="black" d="M501.67,-387.33C641.34,-375.23 878.5,-352.01 1080.5,-319 1090.22,-317.41 1100.35,-315.55 1110.41,-313.56"/>
<text text-anchor="middle" x="1098.91" y="-316.56" font-family="Times,serif" font-size="10.00">status</text>
</g>
<!-- b&#45;&gt;93eb3c39_fe33_4d24_b163_508777cf69dd -->
<g id="edge9" class="edge">
<title>b&#45;&gt;93eb3c39_fe33_4d24_b163_508777cf69dd</title>
<path fill="none" stroke="black" d="M532.66,-265.96C466.44,-256.4 393.1,-244.32 326.5,-230 311.08,-226.68 295.05,-222.81 279.16,-218.7"/>
<text text-anchor="middle" x="296.66" y="-221.7" font-family="Times,serif" font-size="10.00">accounts</text>
<text text-anchor="middle" x="522.66" y="-257.96" font-family="Times,serif" font-size="10.00">bank</text>
</g>
<!-- b&#45;&gt;sendItToTheBank -->
<g id="edge6" class="edge">
<title>b&#45;&gt;sendItToTheBank</title>
<path fill="none" stroke="black" d="M679.35,-265.95C653.88,-255.3 623.3,-242.52 593.37,-230.01"/>
<text text-anchor="middle" x="566.37" y="-233.01" font-family="Times,serif" font-size="10.00">bankAccount</text>
<text text-anchor="middle" x="669.35" y="-257.95" font-family="Times,serif" font-size="10.00">bank</text>
</g>
<!-- 8a633aa5_907c_4e57_a313_22e0adb2672e -->
<g id="node7" class="node">
<title>8a633aa5_907c_4e57_a313_22e0adb2672e</title>
<polygon fill="none" stroke="black" points="928.5,-209 928.5,-226 1163.5,-226 1163.5,-209 928.5,-209"/>
<text text-anchor="start" x="942" y="-216" font-family="Times,serif" text-decoration="underline" font-size="10.00">8a633aa5&#45;907c&#45;4e57&#45;a313&#45;22e0adb2672e :Account</text>
<polygon fill="none" stroke="black" points="928.5,-126 928.5,-209 1163.5,-209 1163.5,-126 928.5,-126"/>
<text text-anchor="start" x="931.5" y="-198" font-family="Times,serif" font-size="10.00">balance = 0.0</text>
<text text-anchor="start" x="931.5" y="-187" font-family="Times,serif" font-size="10.00">customerId = &quot;1eaf6f4c&#45;4f92&#45;4e04&#45;bd87&#45;c82be03265de&quot;</text>
<text text-anchor="start" x="931.5" y="-176" font-family="Times,serif" font-size="10.00">iban = null</text>
<text text-anchor="start" x="931.5" y="-165" font-family="Times,serif" font-size="10.00">id = &quot;8a633aa5&#45;907c&#45;4e57&#45;a313&#45;22e0adb2672e&quot;</text>
<text text-anchor="start" x="931.5" y="-154" font-family="Times,serif" font-size="10.00">receivedTransaction = </text>
<text text-anchor="start" x="931.5" y="-143" font-family="Times,serif" font-size="10.00">sentTransaction = </text>
<text text-anchor="start" x="931.5" y="-132" font-family="Times,serif" font-size="10.00">status = &quot;ACTIVE&quot;</text>
</g>
<!-- b&#45;&gt;8a633aa5_907c_4e57_a313_22e0adb2672e -->
<g id="edge7" class="edge">
<title>b&#45;&gt;8a633aa5_907c_4e57_a313_22e0adb2672e</title>
<path fill="none" stroke="black" d="M812.62,-265.89C842.92,-255.01 878.49,-242.07 910.5,-230 913.56,-228.85 916.66,-227.67 919.79,-226.48"/>
<text text-anchor="middle" x="902.29" y="-229.48" font-family="Times,serif" font-size="10.00">accounts</text>
<text text-anchor="middle" x="802.62" y="-257.89" font-family="Times,serif" font-size="10.00">bank</text>
</g>
<!-- 7ec351d6_652f_4691_8e72_ea432d44a0c8 -->
<g id="node8" class="node">
<title>7ec351d6_652f_4691_8e72_ea432d44a0c8</title>
<polygon fill="none" stroke="black" points="661.5,-209 661.5,-226 893.5,-226 893.5,-209 661.5,-209"/>
<text text-anchor="start" x="674" y="-216" font-family="Times,serif" text-decoration="underline" font-size="10.00">7ec351d6&#45;652f&#45;4691&#45;8e72&#45;ea432d44a0c8 :Account</text>
<polygon fill="none" stroke="black" points="661.5,-126 661.5,-209 893.5,-209 893.5,-126 661.5,-126"/>
<text text-anchor="start" x="664.5" y="-198" font-family="Times,serif" font-size="10.00">balance = 100.0</text>
<text text-anchor="start" x="664.5" y="-187" font-family="Times,serif" font-size="10.00">customerId = &quot;e2f7bc4c&#45;ef2a&#45;466e&#45;b8a5&#45;d24f48b13afe&quot;</text>
<text text-anchor="start" x="664.5" y="-176" font-family="Times,serif" font-size="10.00">iban = null</text>
<text text-anchor="start" x="664.5" y="-165" font-family="Times,serif" font-size="10.00">id = &quot;7ec351d6&#45;652f&#45;4691&#45;8e72&#45;ea432d44a0c8&quot;</text>
<text text-anchor="start" x="664.5" y="-154" font-family="Times,serif" font-size="10.00">receivedTransaction = </text>
<text text-anchor="start" x="664.5" y="-143" font-family="Times,serif" font-size="10.00">sentTransaction = </text>
<text text-anchor="start" x="664.5" y="-132" font-family="Times,serif" font-size="10.00">status = &quot;ACTIVE&quot;</text>
</g>
<!-- b&#45;&gt;7ec351d6_652f_4691_8e72_ea432d44a0c8 -->
<g id="edge8" class="edge">
<title>b&#45;&gt;7ec351d6_652f_4691_8e72_ea432d44a0c8</title>
<path fill="none" stroke="black" d="M748.8,-265.8C752.21,-255.25 756.29,-242.63 760.29,-230.25"/>
<text text-anchor="middle" x="742.79" y="-233.25" font-family="Times,serif" font-size="10.00">accounts</text>
<text text-anchor="middle" x="738.8" y="-257.8" font-family="Times,serif" font-size="10.00">bank</text>
</g>
<!-- e2f7bc4c_ef2a_466e_b8a5_d24f48b13afe -->
<g id="node9" class="node">
<title>e2f7bc4c_ef2a_466e_b8a5_d24f48b13afe</title>
<polygon fill="none" stroke="black" points="729.5,-65 729.5,-82 941.5,-82 941.5,-65 729.5,-65"/>
<text text-anchor="start" x="732.5" y="-72" font-family="Times,serif" text-decoration="underline" font-size="10.00">e2f7bc4c&#45;ef2a&#45;466e&#45;b8a5&#45;d24f48b13afe :Customer</text>
<polygon fill="none" stroke="black" points="729.5,-4 729.5,-65 941.5,-65 941.5,-4 729.5,-4"/>
<text text-anchor="start" x="741" y="-54" font-family="Times,serif" font-size="10.00">email = &quot;john@doe.ee&quot;</text>
<text text-anchor="start" x="741" y="-43" font-family="Times,serif" font-size="10.00">firstName = &quot;John&quot;</text>
<text text-anchor="start" x="741" y="-32" font-family="Times,serif" font-size="10.00">id = &quot;e2f7bc4c&#45;ef2a&#45;466e&#45;b8a5&#45;d24f48b13afe&quot;</text>
<text text-anchor="start" x="741" y="-21" font-family="Times,serif" font-size="10.00">lastName = &quot;Doe&quot;</text>
<text text-anchor="start" x="741" y="-10" font-family="Times,serif" font-size="10.00">password = &quot;pass1234&quot;</text>
</g>
<!-- b&#45;&gt;e2f7bc4c_ef2a_466e_b8a5_d24f48b13afe -->
<g id="edge10" class="edge">
<title>b&#45;&gt;e2f7bc4c_ef2a_466e_b8a5_d24f48b13afe</title>
<path fill="none" stroke="black" d="M1025.85,-265.98C1102.76,-256.23 1168.29,-244.04 1180.5,-230 1212,-193.79 1210.56,-159.42 1180.5,-122 1134.04,-64.16 1089.87,-102.34 1017.5,-86 995.52,-81.04 972.05,-75.67 949.54,-70.49"/>
<text text-anchor="middle" x="970.04" y="-73.49" font-family="Times,serif" font-size="10.00">customers</text>
<text text-anchor="middle" x="1015.85" y="-257.98" font-family="Times,serif" font-size="10.00">bank</text>
</g>
<!-- 1eaf6f4c_4f92_4e04_bd87_c82be03265de -->
<g id="node10" class="node">
<title>1eaf6f4c_4f92_4e04_bd87_c82be03265de</title>
<polygon fill="none" stroke="black" points="1034.5,-65 1034.5,-82 1249.5,-82 1249.5,-65 1034.5,-65"/>
<text text-anchor="start" x="1037.5" y="-72" font-family="Times,serif" text-decoration="underline" font-size="10.00">1eaf6f4c&#45;4f92&#45;4e04&#45;bd87&#45;c82be03265de :Customer</text>
<polygon fill="none" stroke="black" points="1034.5,-4 1034.5,-65 1249.5,-65 1249.5,-4 1034.5,-4"/>
<text text-anchor="start" x="1046.5" y="-54" font-family="Times,serif" font-size="10.00">email = &quot;bobby@tt.ee&quot;</text>
<text text-anchor="start" x="1046.5" y="-43" font-family="Times,serif" font-size="10.00">firstName = &quot;Bob&quot;</text>
<text text-anchor="start" x="1046.5" y="-32" font-family="Times,serif" font-size="10.00">id = &quot;1eaf6f4c&#45;4f92&#45;4e04&#45;bd87&#45;c82be03265de&quot;</text>
<text text-anchor="start" x="1046.5" y="-21" font-family="Times,serif" font-size="10.00">lastName = &quot;Jackson&quot;</text>
<text text-anchor="start" x="1046.5" y="-10" font-family="Times,serif" font-size="10.00">password = &quot;secret&quot;</text>
</g>
<!-- b&#45;&gt;1eaf6f4c_4f92_4e04_bd87_c82be03265de -->
<g id="edge11" class="edge">
<title>b&#45;&gt;1eaf6f4c_4f92_4e04_bd87_c82be03265de</title>
<path fill="none" stroke="black" d="M1048.93,-266C1127.19,-256.44 1192.92,-244.35 1205.5,-230 1237.14,-193.9 1221.67,-167.19 1205.5,-122 1200.9,-109.14 1193.16,-96.87 1184.62,-86.03"/>
<text text-anchor="middle" x="1164.12" y="-89.03" font-family="Times,serif" font-size="10.00">customers</text>
<text text-anchor="middle" x="1038.93" y="-258" font-family="Times,serif" font-size="10.00">bank</text>
</g>
<!-- 215c15ab_361e_48e2_b592_cc6f47287046 -->
<g id="node11" class="node">
<title>215c15ab_361e_48e2_b592_cc6f47287046</title>
<polygon fill="none" stroke="black" points="81.5,-65 81.5,-82 300.5,-82 300.5,-65 81.5,-65"/>
<text text-anchor="start" x="84.5" y="-72" font-family="Times,serif" text-decoration="underline" font-size="10.00">215c15ab&#45;361e&#45;48e2&#45;b592&#45;cc6f47287046 :Customer</text>
<polygon fill="none" stroke="black" points="81.5,-4 81.5,-65 300.5,-65 300.5,-4 81.5,-4"/>
<text text-anchor="start" x="93.5" y="-54" font-family="Times,serif" font-size="10.00">email = &quot;johntest@doe.ee&quot;</text>
<text text-anchor="start" x="93.5" y="-43" font-family="Times,serif" font-size="10.00">firstName = &quot;johntest&quot;</text>
<text text-anchor="start" x="93.5" y="-32" font-family="Times,serif" font-size="10.00">id = &quot;215c15ab&#45;361e&#45;48e2&#45;b592&#45;cc6f47287046&quot;</text>
<text text-anchor="start" x="93.5" y="-21" font-family="Times,serif" font-size="10.00">lastName = &quot;Doe&quot;</text>
<text text-anchor="start" x="93.5" y="-10" font-family="Times,serif" font-size="10.00">password = &quot;pass1234&quot;</text>
</g>
<!-- b&#45;&gt;215c15ab_361e_48e2_b592_cc6f47287046 -->
<g id="edge12" class="edge">
<title>b&#45;&gt;215c15ab_361e_48e2_b592_cc6f47287046</title>
<path fill="none" stroke="black" d="M686.7,-265.7C671.38,-256.24 655.8,-244.28 644.5,-230 612.91,-190.11 645.71,-154.43 606.5,-122 565.11,-87.77 420.23,-96.21 367.5,-86 348.28,-82.28 327.98,-77.9 308.26,-73.39"/>
<text text-anchor="middle" x="328.76" y="-76.39" font-family="Times,serif" font-size="10.00">customers</text>
<text text-anchor="middle" x="696.7" y="-257.7" font-family="Times,serif" font-size="10.00">bank</text>
</g>
<!-- 93eb3c39_fe33_4d24_b163_508777cf69dd&#45;&gt;c -->
<g id="edge13" class="edge">
<title>93eb3c39_fe33_4d24_b163_508777cf69dd&#45;&gt;c</title>
<path fill="none" stroke="black" d="M272.03,-121.91C322.84,-101.55 377.79,-79.54 416.28,-64.12"/>
<text text-anchor="middle" x="433.78" y="-67.12" font-family="Times,serif" font-size="10.00">currency</text>
</g>
<!-- 93eb3c39_fe33_4d24_b163_508777cf69dd&#45;&gt;215c15ab_361e_48e2_b592_cc6f47287046 -->
<g id="edge14" class="edge">
<title>93eb3c39_fe33_4d24_b163_508777cf69dd&#45;&gt;215c15ab_361e_48e2_b592_cc6f47287046</title>
<path fill="none" stroke="black" d="M160.24,-121.72C164.82,-109.96 169.61,-97.66 173.99,-86.4"/>
<text text-anchor="middle" x="161.49" y="-89.4" font-family="Times,serif" font-size="10.00">owner</text>
<text text-anchor="middle" x="144.24" y="-113.72" font-family="Times,serif" font-size="10.00">account</text>
</g>
<!-- sendItToTheBank&#45;&gt;c -->
<g id="edge15" class="edge">
<title>sendItToTheBank&#45;&gt;c</title>
<path fill="none" stroke="black" d="M466.5,-121.72C466.5,-101.46 466.5,-79.58 466.5,-64.22"/>
<text text-anchor="middle" x="484" y="-67.22" font-family="Times,serif" font-size="10.00">currency</text>
</g>
<!-- 8a633aa5_907c_4e57_a313_22e0adb2672e&#45;&gt;c -->
<g id="edge16" class="edge">
<title>8a633aa5_907c_4e57_a313_22e0adb2672e&#45;&gt;c</title>
<path fill="none" stroke="black" d="M919.66,-124.68C916.59,-123.75 913.53,-122.85 910.5,-122 893.55,-117.24 680.93,-80.61 556.18,-59.28"/>
<text text-anchor="middle" x="573.68" y="-62.28" font-family="Times,serif" font-size="10.00">currency</text>
</g>
<!-- 8a633aa5_907c_4e57_a313_22e0adb2672e&#45;&gt;1eaf6f4c_4f92_4e04_bd87_c82be03265de -->
<g id="edge17" class="edge">
<title>8a633aa5_907c_4e57_a313_22e0adb2672e&#45;&gt;1eaf6f4c_4f92_4e04_bd87_c82be03265de</title>
<path fill="none" stroke="black" d="M1084.55,-121.72C1093.16,-109.96 1102.18,-97.66 1110.43,-86.4"/>
<text text-anchor="middle" x="1097.93" y="-89.4" font-family="Times,serif" font-size="10.00">owner</text>
<text text-anchor="middle" x="1068.55" y="-113.72" font-family="Times,serif" font-size="10.00">account</text>
</g>
<!-- 7ec351d6_652f_4691_8e72_ea432d44a0c8&#45;&gt;c -->
<g id="edge18" class="edge">
<title>7ec351d6_652f_4691_8e72_ea432d44a0c8&#45;&gt;c</title>
<path fill="none" stroke="black" d="M653.24,-122.66C604.35,-102.06 551.15,-79.66 514.09,-64.05"/>
<text text-anchor="middle" x="531.59" y="-67.05" font-family="Times,serif" font-size="10.00">currency</text>
</g>
<!-- 7ec351d6_652f_4691_8e72_ea432d44a0c8&#45;&gt;e2f7bc4c_ef2a_466e_b8a5_d24f48b13afe -->
<g id="edge19" class="edge">
<title>7ec351d6_652f_4691_8e72_ea432d44a0c8&#45;&gt;e2f7bc4c_ef2a_466e_b8a5_d24f48b13afe</title>
<path fill="none" stroke="black" d="M801.09,-121.72C806.3,-109.96 811.74,-97.66 816.73,-86.4"/>
<text text-anchor="middle" x="804.23" y="-89.4" font-family="Times,serif" font-size="10.00">owner</text>
<text text-anchor="middle" x="785.09" y="-113.72" font-family="Times,serif" font-size="10.00">account</text>
</g>
</g>
</svg>
