<?xml version="1.0" encoding="UTF-8" standalone="no"?>
<!DOCTYPE svg PUBLIC "-//W3C//DTD SVG 1.1//EN"
 "http://www.w3.org/Graphics/SVG/1.1/DTD/svg11.dtd">
<!-- Generated by graphviz version 2.44.0 (20200408.0750)
 -->
<!-- Title: model Pages: 1 -->
<svg width="1356px" height="496px"
 viewBox="0.00 0.00 1356.30 496.00" xmlns="http://www.w3.org/2000/svg" xmlns:xlink="http://www.w3.org/1999/xlink">
<g id="graph0" class="graph" transform="scale(1.0 1.0) rotate(0) translate(4 492)">
<title>model</title>
<polygon fill="white" stroke="transparent" points="-4,4 -4,-492 1352.3,-492 1352.3,4 -4,4"/>
<!-- c51df445_b84d_4214_ac0e_dbb175648191 -->
<g id="node1" class="node">
<title>c51df445_b84d_4214_ac0e_dbb175648191</title>
<polygon fill="none" stroke="black" points="158.4,-466 158.4,-484 385.4,-484 385.4,-466 158.4,-466"/>
<text text-anchor="start" x="160.96" y="-473" font-family="Times,serif" text-decoration="underline" font-size="10.00">c51df445&#45;b84d&#45;4214&#45;ac0e&#45;dbb175648191 :Transaction</text>
<polygon fill="none" stroke="black" points="158.4,-400 158.4,-466 385.4,-466 385.4,-400 158.4,-400"/>
<text text-anchor="start" x="173.91" y="-454" font-family="Times,serif" font-size="10.00">amount = 10.0</text>
<text text-anchor="start" x="173.91" y="-442" font-family="Times,serif" font-size="10.00">description = &quot;Fee&quot;</text>
<text text-anchor="start" x="173.91" y="-430" font-family="Times,serif" font-size="10.00">id = &quot;c51df445&#45;b84d&#45;4214&#45;ac0e&#45;dbb175648191&quot;</text>
<text text-anchor="start" x="173.91" y="-418" font-family="Times,serif" font-size="10.00">rejectionDescription = &quot;&quot;</text>
<text text-anchor="start" x="173.91" y="-406" font-family="Times,serif" font-size="10.00">timestamp = 2021&#45;12&#45;10T00:12:54.628314</text>
</g>
<!-- b -->
<g id="node2" class="node">
<title>b</title>
<polygon fill="none" stroke="black" points="444.4,-338 444.4,-356 1090.4,-356 1090.4,-338 444.4,-338"/>
<text text-anchor="start" x="751.71" y="-345" font-family="Times,serif" text-decoration="underline" font-size="10.00">b :Bank</text>
<polygon fill="none" stroke="black" points="444.4,-308 444.4,-338 1090.4,-338 1090.4,-308 444.4,-308"/>
<text text-anchor="start" x="447.4" y="-326" font-family="Times,serif" font-size="10.00">accountsMap = sendItToTheBank8a633aa5&#45;907c&#45;4e57&#45;a313&#45;22e0adb2672e7ec351d6&#45;652f&#45;4691&#45;8e72&#45;ea432d44a0c87843e0fb&#45;ea98&#45;4268&#45;95e6&#45;34ed63608ab3</text>
<text text-anchor="start" x="447.4" y="-314" font-family="Times,serif" font-size="10.00">customerMap = e2f7bc4c&#45;ef2a&#45;466e&#45;b8a5&#45;d24f48b13afe1eaf6f4c&#45;4f92&#45;4e04&#45;bd87&#45;c82be03265def4bd943b&#45;b056&#45;400f&#45;ba8b&#45;196b64270418</text>
</g>
<!-- c51df445_b84d_4214_ac0e_dbb175648191&#45;&gt;b -->
<g id="edge1" class="edge">
<title>c51df445_b84d_4214_ac0e_dbb175648191&#45;&gt;b</title>
<path fill="none" stroke="black" d="M393.05,-414.51C469.06,-397.96 566.67,-376.71 643.16,-360.05"/>
<text text-anchor="middle" x="633.44" y="-363.05" font-family="Times,serif" font-size="10.00">bank</text>
<text text-anchor="middle" x="416.93" y="-417.51" font-family="Times,serif" font-size="10.00">transactions</text>
</g>
<!-- c -->
<g id="node3" class="node">
<title>c</title>
<polygon fill="none" stroke="black" points="569.4,-46 569.4,-64 731.4,-64 731.4,-46 569.4,-46"/>
<text text-anchor="start" x="626.94" y="-53" font-family="Times,serif" text-decoration="underline" font-size="10.00">c :Currency</text>
<polygon fill="none" stroke="black" points="569.4,-28 569.4,-46 731.4,-46 731.4,-28 569.4,-28"/>
<text text-anchor="start" x="572.4" y="-34" font-family="Times,serif" font-size="10.00">declaringClass = class model.Currency</text>
</g>
<!-- c51df445_b84d_4214_ac0e_dbb175648191&#45;&gt;c -->
<g id="edge2" class="edge">
<title>c51df445_b84d_4214_ac0e_dbb175648191&#45;&gt;c</title>
<path fill="none" stroke="black" d="M163.35,-395.93C111.06,-367.7 53.79,-325.61 26.4,-268 -0.31,-211.8 -15.98,-173.55 26.4,-128 64.27,-87.3 471.02,-103.52 525.4,-92 551.24,-86.53 578.97,-76.95 601.73,-68.03"/>
<text text-anchor="middle" x="619.22" y="-71.03" font-family="Times,serif" font-size="10.00">currency</text>
</g>
<!-- sendItToTheBank -->
<g id="node4" class="node">
<title>sendItToTheBank</title>
<polygon fill="none" stroke="black" points="44.4,-240 44.4,-258 311.4,-258 311.4,-240 44.4,-240"/>
<text text-anchor="start" x="122.22" y="-247" font-family="Times,serif" text-decoration="underline" font-size="10.00">sendItToTheBank :Account</text>
<polygon fill="none" stroke="black" points="44.4,-138 44.4,-240 311.4,-240 311.4,-138 44.4,-138"/>
<text text-anchor="start" x="47.4" y="-228" font-family="Times,serif" font-size="10.00">balance = 69430.0</text>
<text text-anchor="start" x="47.4" y="-216" font-family="Times,serif" font-size="10.00">count = 0</text>
<text text-anchor="start" x="47.4" y="-204" font-family="Times,serif" font-size="10.00">customerId = null</text>
<text text-anchor="start" x="47.4" y="-192" font-family="Times,serif" font-size="10.00">iban = &quot;EE175650977238553946&quot;</text>
<text text-anchor="start" x="47.4" y="-180" font-family="Times,serif" font-size="10.00">id = &quot;sendItToTheBank&quot;</text>
<text text-anchor="start" x="47.4" y="-168" font-family="Times,serif" font-size="10.00">receivedTransaction = c51df445&#45;b84d&#45;4214&#45;ac0e&#45;dbb175648191</text>
<text text-anchor="start" x="47.4" y="-156" font-family="Times,serif" font-size="10.00">sentTransaction = </text>
<text text-anchor="start" x="47.4" y="-144" font-family="Times,serif" font-size="10.00">status = &quot;ACTIVE&quot;</text>
</g>
<!-- c51df445_b84d_4214_ac0e_dbb175648191&#45;&gt;sendItToTheBank -->
<g id="edge3" class="edge">
<title>c51df445_b84d_4214_ac0e_dbb175648191&#45;&gt;sendItToTheBank</title>
<path fill="none" stroke="black" d="M183.76,-395.92C171.54,-385.79 160.69,-373.85 153.4,-360 137.67,-330.12 141.85,-293.05 150.79,-262.02"/>
<text text-anchor="middle" x="128.85" y="-265.02" font-family="Times,serif" font-size="10.00">destination</text>
<text text-anchor="middle" x="99.07" y="-386.92" font-family="Times,serif" font-size="10.00">allTransactionsWithSignAndOrderedDesc</text>
</g>
<!-- 7843e0fb_ea98_4268_95e6_34ed63608ab3 -->
<g id="node5" class="node">
<title>7843e0fb_ea98_4268_95e6_34ed63608ab3</title>
<polygon fill="none" stroke="black" points="993.4,-246 993.4,-264 1303.4,-264 1303.4,-246 993.4,-246"/>
<text text-anchor="start" x="1044.68" y="-253" font-family="Times,serif" text-decoration="underline" font-size="10.00">7843e0fb&#45;ea98&#45;4268&#45;95e6&#45;34ed63608ab3 :Account</text>
<polygon fill="none" stroke="black" points="993.4,-132 993.4,-246 1303.4,-246 1303.4,-132 993.4,-132"/>
<text text-anchor="start" x="996.4" y="-234" font-family="Times,serif" font-size="10.00">allTransactionsWithSignAndOrderedDesc = [model.Transaction@6a87a74]</text>
<text text-anchor="start" x="996.4" y="-222" font-family="Times,serif" font-size="10.00">balance = 90.0</text>
<text text-anchor="start" x="996.4" y="-210" font-family="Times,serif" font-size="10.00">count = 1</text>
<text text-anchor="start" x="996.4" y="-198" font-family="Times,serif" font-size="10.00">customerId = null</text>
<text text-anchor="start" x="996.4" y="-186" font-family="Times,serif" font-size="10.00">iban = &quot;EE641430216797071437&quot;</text>
<text text-anchor="start" x="996.4" y="-174" font-family="Times,serif" font-size="10.00">id = &quot;7843e0fb&#45;ea98&#45;4268&#45;95e6&#45;34ed63608ab3&quot;</text>
<text text-anchor="start" x="996.4" y="-162" font-family="Times,serif" font-size="10.00">receivedTransaction = </text>
<text text-anchor="start" x="996.4" y="-150" font-family="Times,serif" font-size="10.00">sentTransaction = c51df445&#45;b84d&#45;4214&#45;ac0e&#45;dbb175648191</text>
<text text-anchor="start" x="996.4" y="-138" font-family="Times,serif" font-size="10.00">status = &quot;ACTIVE&quot;</text>
</g>
<!-- c51df445_b84d_4214_ac0e_dbb175648191&#45;&gt;7843e0fb_ea98_4268_95e6_34ed63608ab3 -->
<g id="edge4" class="edge">
<title>c51df445_b84d_4214_ac0e_dbb175648191&#45;&gt;7843e0fb_ea98_4268_95e6_34ed63608ab3</title>
<path fill="none" stroke="black" d="M393.25,-424.6C464.36,-415.38 555.86,-404.13 637.4,-396 689.52,-390.8 1067.31,-393.7 1107.4,-360 1121.81,-347.89 1132.18,-306.29 1138.89,-268.41"/>
<text text-anchor="middle" x="1125.84" y="-271.41" font-family="Times,serif" font-size="10.00">source</text>
</g>
<!-- s -->
<g id="node6" class="node">
<title>s</title>
<polygon fill="none" stroke="black" points="171.4,-332 171.4,-350 372.4,-350 372.4,-332 171.4,-332"/>
<text text-anchor="start" x="255.1" y="-339" font-family="Times,serif" text-decoration="underline" font-size="10.00">s :Status</text>
<polygon fill="none" stroke="black" points="171.4,-314 171.4,-332 372.4,-332 372.4,-314 171.4,-314"/>
<text text-anchor="start" x="174.4" y="-320" font-family="Times,serif" font-size="10.00">declaringClass = class model.Transaction$Status</text>
</g>
<!-- c51df445_b84d_4214_ac0e_dbb175648191&#45;&gt;s -->
<g id="edge5" class="edge">
<title>c51df445_b84d_4214_ac0e_dbb175648191&#45;&gt;s</title>
<path fill="none" stroke="black" d="M271.4,-395.82C271.4,-381.37 271.4,-366.06 271.4,-354.16"/>
<text text-anchor="middle" x="260.01" y="-357.16" font-family="Times,serif" font-size="10.00">status</text>
</g>
<!-- b&#45;&gt;sendItToTheBank -->
<g id="edge6" class="edge">
<title>b&#45;&gt;sendItToTheBank</title>
<path fill="none" stroke="black" d="M500.74,-303.97C444.85,-295.07 386.72,-283.35 333.4,-268 327.14,-266.2 320.8,-264.2 314.45,-262.04"/>
<text text-anchor="middle" x="287.79" y="-265.04" font-family="Times,serif" font-size="10.00">bankAccount</text>
<text text-anchor="middle" x="491.02" y="-294.97" font-family="Times,serif" font-size="10.00">bank</text>
</g>
<!-- b&#45;&gt;7843e0fb_ea98_4268_95e6_34ed63608ab3 -->
<g id="edge9" class="edge">
<title>b&#45;&gt;7843e0fb_ea98_4268_95e6_34ed63608ab3</title>
<path fill="none" stroke="black" d="M860.02,-303.94C895.09,-293.29 935.27,-280.61 971.4,-268 975.92,-266.42 980.49,-264.81 985.1,-263.16"/>
<text text-anchor="middle" x="967.6" y="-266.16" font-family="Times,serif" font-size="10.00">accounts</text>
<text text-anchor="middle" x="850.3" y="-294.94" font-family="Times,serif" font-size="10.00">bank</text>
</g>
<!-- 8a633aa5_907c_4e57_a313_22e0adb2672e -->
<g id="node7" class="node">
<title>8a633aa5_907c_4e57_a313_22e0adb2672e</title>
<polygon fill="none" stroke="black" points="383.4,-240 383.4,-258 617.4,-258 617.4,-240 383.4,-240"/>
<text text-anchor="start" x="396.69" y="-247" font-family="Times,serif" text-decoration="underline" font-size="10.00">8a633aa5&#45;907c&#45;4e57&#45;a313&#45;22e0adb2672e :Account</text>
<polygon fill="none" stroke="black" points="383.4,-138 383.4,-240 617.4,-240 617.4,-138 383.4,-138"/>
<text text-anchor="start" x="386.4" y="-228" font-family="Times,serif" font-size="10.00">balance = 0.0</text>
<text text-anchor="start" x="386.4" y="-216" font-family="Times,serif" font-size="10.00">count = 0</text>
<text text-anchor="start" x="386.4" y="-204" font-family="Times,serif" font-size="10.00">customerId = &quot;1eaf6f4c&#45;4f92&#45;4e04&#45;bd87&#45;c82be03265de&quot;</text>
<text text-anchor="start" x="386.4" y="-192" font-family="Times,serif" font-size="10.00">iban = &quot;EE500467859057350272&quot;</text>
<text text-anchor="start" x="386.4" y="-180" font-family="Times,serif" font-size="10.00">id = &quot;8a633aa5&#45;907c&#45;4e57&#45;a313&#45;22e0adb2672e&quot;</text>
<text text-anchor="start" x="386.4" y="-168" font-family="Times,serif" font-size="10.00">receivedTransaction = </text>
<text text-anchor="start" x="386.4" y="-156" font-family="Times,serif" font-size="10.00">sentTransaction = </text>
<text text-anchor="start" x="386.4" y="-144" font-family="Times,serif" font-size="10.00">status = &quot;ACTIVE&quot;</text>
</g>
<!-- b&#45;&gt;8a633aa5_907c_4e57_a313_22e0adb2672e -->
<g id="edge7" class="edge">
<title>b&#45;&gt;8a633aa5_907c_4e57_a313_22e0adb2672e</title>
<path fill="none" stroke="black" d="M709.74,-303.89C686.56,-292.89 659.65,-279.98 635.4,-268 631.51,-266.08 627.56,-264.11 623.57,-262.13"/>
<text text-anchor="middle" x="606.08" y="-265.13" font-family="Times,serif" font-size="10.00">accounts</text>
<text text-anchor="middle" x="700.02" y="-294.89" font-family="Times,serif" font-size="10.00">bank</text>
</g>
<!-- 7ec351d6_652f_4691_8e72_ea432d44a0c8 -->
<g id="node8" class="node">
<title>7ec351d6_652f_4691_8e72_ea432d44a0c8</title>
<polygon fill="none" stroke="black" points="652.4,-240 652.4,-258 883.4,-258 883.4,-240 652.4,-240"/>
<text text-anchor="start" x="664.47" y="-247" font-family="Times,serif" text-decoration="underline" font-size="10.00">7ec351d6&#45;652f&#45;4691&#45;8e72&#45;ea432d44a0c8 :Account</text>
<polygon fill="none" stroke="black" points="652.4,-138 652.4,-240 883.4,-240 883.4,-138 652.4,-138"/>
<text text-anchor="start" x="655.4" y="-228" font-family="Times,serif" font-size="10.00">balance = 100.0</text>
<text text-anchor="start" x="655.4" y="-216" font-family="Times,serif" font-size="10.00">count = 0</text>
<text text-anchor="start" x="655.4" y="-204" font-family="Times,serif" font-size="10.00">customerId = &quot;e2f7bc4c&#45;ef2a&#45;466e&#45;b8a5&#45;d24f48b13afe&quot;</text>
<text text-anchor="start" x="655.4" y="-192" font-family="Times,serif" font-size="10.00">iban = &quot;EE508166157234538669&quot;</text>
<text text-anchor="start" x="655.4" y="-180" font-family="Times,serif" font-size="10.00">id = &quot;7ec351d6&#45;652f&#45;4691&#45;8e72&#45;ea432d44a0c8&quot;</text>
<text text-anchor="start" x="655.4" y="-168" font-family="Times,serif" font-size="10.00">receivedTransaction = </text>
<text text-anchor="start" x="655.4" y="-156" font-family="Times,serif" font-size="10.00">sentTransaction = </text>
<text text-anchor="start" x="655.4" y="-144" font-family="Times,serif" font-size="10.00">status = &quot;ACTIVE&quot;</text>
</g>
<!-- b&#45;&gt;7ec351d6_652f_4691_8e72_ea432d44a0c8 -->
<g id="edge8" class="edge">
<title>b&#45;&gt;7ec351d6_652f_4691_8e72_ea432d44a0c8</title>
<path fill="none" stroke="black" d="M767.4,-303.97C767.4,-291.83 767.4,-276.94 767.4,-262.24"/>
<text text-anchor="middle" x="749.91" y="-265.24" font-family="Times,serif" font-size="10.00">accounts</text>
<text text-anchor="middle" x="757.68" y="-294.97" font-family="Times,serif" font-size="10.00">bank</text>
</g>
<!-- e2f7bc4c_ef2a_466e_b8a5_d24f48b13afe -->
<g id="node9" class="node">
<title>e2f7bc4c_ef2a_466e_b8a5_d24f48b13afe</title>
<polygon fill="none" stroke="black" points="780.4,-70 780.4,-88 991.4,-88 991.4,-70 780.4,-70"/>
<text text-anchor="start" x="783.03" y="-77" font-family="Times,serif" text-decoration="underline" font-size="10.00">e2f7bc4c&#45;ef2a&#45;466e&#45;b8a5&#45;d24f48b13afe :Customer</text>
<polygon fill="none" stroke="black" points="780.4,-4 780.4,-70 991.4,-70 991.4,-4 780.4,-4"/>
<text text-anchor="start" x="791.82" y="-58" font-family="Times,serif" font-size="10.00">email = &quot;john@doe.ee&quot;</text>
<text text-anchor="start" x="791.82" y="-46" font-family="Times,serif" font-size="10.00">firstName = &quot;John&quot;</text>
<text text-anchor="start" x="791.82" y="-34" font-family="Times,serif" font-size="10.00">id = &quot;e2f7bc4c&#45;ef2a&#45;466e&#45;b8a5&#45;d24f48b13afe&quot;</text>
<text text-anchor="start" x="791.82" y="-22" font-family="Times,serif" font-size="10.00">lastName = &quot;Doe&quot;</text>
<text text-anchor="start" x="791.82" y="-10" font-family="Times,serif" font-size="10.00">password = &quot;pass1234&quot;</text>
</g>
<!-- b&#45;&gt;e2f7bc4c_ef2a_466e_b8a5_d24f48b13afe -->
<g id="edge10" class="edge">
<title>b&#45;&gt;e2f7bc4c_ef2a_466e_b8a5_d24f48b13afe</title>
<path fill="none" stroke="black" d="M860.19,-303.87C876.15,-295 890.7,-283.33 900.4,-268 933.92,-215.03 918.67,-139.92 903.17,-92.34"/>
<text text-anchor="middle" x="882.9" y="-95.34" font-family="Times,serif" font-size="10.00">customers</text>
<text text-anchor="middle" x="869.91" y="-294.87" font-family="Times,serif" font-size="10.00">bank</text>
</g>
<!-- 1eaf6f4c_4f92_4e04_bd87_c82be03265de -->
<g id="node10" class="node">
<title>1eaf6f4c_4f92_4e04_bd87_c82be03265de</title>
<polygon fill="none" stroke="black" points="294.4,-70 294.4,-88 508.4,-88 508.4,-70 294.4,-70"/>
<text text-anchor="start" x="297.13" y="-77" font-family="Times,serif" text-decoration="underline" font-size="10.00">1eaf6f4c&#45;4f92&#45;4e04&#45;bd87&#45;c82be03265de :Customer</text>
<polygon fill="none" stroke="black" points="294.4,-4 294.4,-70 508.4,-70 508.4,-4 294.4,-4"/>
<text text-anchor="start" x="305.93" y="-58" font-family="Times,serif" font-size="10.00">email = &quot;bobby@tt.ee&quot;</text>
<text text-anchor="start" x="305.93" y="-46" font-family="Times,serif" font-size="10.00">firstName = &quot;Bob&quot;</text>
<text text-anchor="start" x="305.93" y="-34" font-family="Times,serif" font-size="10.00">id = &quot;1eaf6f4c&#45;4f92&#45;4e04&#45;bd87&#45;c82be03265de&quot;</text>
<text text-anchor="start" x="305.93" y="-22" font-family="Times,serif" font-size="10.00">lastName = &quot;Jackson&quot;</text>
<text text-anchor="start" x="305.93" y="-10" font-family="Times,serif" font-size="10.00">password = &quot;secret&quot;</text>
</g>
<!-- b&#45;&gt;1eaf6f4c_4f92_4e04_bd87_c82be03265de -->
<g id="edge11" class="edge">
<title>b&#45;&gt;1eaf6f4c_4f92_4e04_bd87_c82be03265de</title>
<path fill="none" stroke="black" d="M442.21,-304C407.29,-295.16 379.63,-283.47 366.4,-268 324.62,-219.14 351.49,-141.09 375.71,-92.01"/>
<text text-anchor="middle" x="355.44" y="-95.01" font-family="Times,serif" font-size="10.00">customers</text>
<text text-anchor="middle" x="432.49" y="-295" font-family="Times,serif" font-size="10.00">bank</text>
</g>
<!-- f4bd943b_b056_400f_ba8b_196b64270418 -->
<g id="node11" class="node">
<title>f4bd943b_b056_400f_ba8b_196b64270418</title>
<polygon fill="none" stroke="black" points="1032.4,-70 1032.4,-88 1251.4,-88 1251.4,-70 1032.4,-70"/>
<text text-anchor="start" x="1035.11" y="-77" font-family="Times,serif" text-decoration="underline" font-size="10.00">f4bd943b&#45;b056&#45;400f&#45;ba8b&#45;196b64270418 :Customer</text>
<polygon fill="none" stroke="black" points="1032.4,-4 1032.4,-70 1251.4,-70 1251.4,-4 1032.4,-4"/>
<text text-anchor="start" x="1043.91" y="-58" font-family="Times,serif" font-size="10.00">email = &quot;johntest@doe.ee&quot;</text>
<text text-anchor="start" x="1043.91" y="-46" font-family="Times,serif" font-size="10.00">firstName = &quot;johntest&quot;</text>
<text text-anchor="start" x="1043.91" y="-34" font-family="Times,serif" font-size="10.00">id = &quot;f4bd943b&#45;b056&#45;400f&#45;ba8b&#45;196b64270418&quot;</text>
<text text-anchor="start" x="1043.91" y="-22" font-family="Times,serif" font-size="10.00">lastName = &quot;Doe&quot;</text>
<text text-anchor="start" x="1043.91" y="-10" font-family="Times,serif" font-size="10.00">password = &quot;pass1234&quot;</text>
</g>
<!-- b&#45;&gt;f4bd943b_b056_400f_ba8b_196b64270418 -->
<g id="edge12" class="edge">
<title>b&#45;&gt;f4bd943b_b056_400f_ba8b_196b64270418</title>
<path fill="none" stroke="black" d="M870.45,-303.99C890.24,-295.08 909.44,-283.36 924.4,-268 970.72,-220.46 931.89,-177.24 976.4,-128 989.67,-113.32 1006.19,-101 1023.61,-90.76"/>
<text text-anchor="middle" x="1003.34" y="-93.76" font-family="Times,serif" font-size="10.00">customers</text>
<text text-anchor="middle" x="880.17" y="-294.99" font-family="Times,serif" font-size="10.00">bank</text>
</g>
<!-- sendItToTheBank&#45;&gt;c -->
<g id="edge13" class="edge">
<title>sendItToTheBank&#45;&gt;c</title>
<path fill="none" stroke="black" d="M318.91,-143.13C334.84,-137.73 350.9,-132.56 366.4,-128 435.91,-107.53 455.85,-112.31 525.4,-92 548.98,-85.11 574.58,-76.17 596.43,-68.07"/>
<text text-anchor="middle" x="578.94" y="-71.07" font-family="Times,serif" font-size="10.00">currency</text>
</g>
<!-- 7843e0fb_ea98_4268_95e6_34ed63608ab3&#45;&gt;c -->
<g id="edge14" class="edge">
<title>7843e0fb_ea98_4268_95e6_34ed63608ab3&#45;&gt;c</title>
<path fill="none" stroke="black" d="M985.08,-151.2C956.86,-143.39 927.8,-135.41 900.4,-128 839.63,-111.56 823.2,-111.68 763.4,-92 742.14,-85 719.11,-76.08 699.43,-68.04"/>
<text text-anchor="middle" x="716.91" y="-71.04" font-family="Times,serif" font-size="10.00">currency</text>
</g>
<!-- 7843e0fb_ea98_4268_95e6_34ed63608ab3&#45;&gt;f4bd943b_b056_400f_ba8b_196b64270418 -->
<g id="edge15" class="edge">
<title>7843e0fb_ea98_4268_95e6_34ed63608ab3&#45;&gt;f4bd943b_b056_400f_ba8b_196b64270418</title>
<path fill="none" stroke="black" d="M1145.17,-127.71C1144.6,-115.58 1144.03,-103.25 1143.5,-92"/>
<text text-anchor="middle" x="1131.01" y="-95" font-family="Times,serif" font-size="10.00">owner</text>
<text text-anchor="middle" x="1129.62" y="-118.71" font-family="Times,serif" font-size="10.00">account</text>
</g>
<!-- 8a633aa5_907c_4e57_a313_22e0adb2672e&#45;&gt;c -->
<g id="edge16" class="edge">
<title>8a633aa5_907c_4e57_a313_22e0adb2672e&#45;&gt;c</title>
<path fill="none" stroke="black" d="M563.58,-133.82C587.12,-110.28 612.25,-85.15 629.39,-68.01"/>
<text text-anchor="middle" x="646.88" y="-71.01" font-family="Times,serif" font-size="10.00">currency</text>
</g>
<!-- 8a633aa5_907c_4e57_a313_22e0adb2672e&#45;&gt;1eaf6f4c_4f92_4e04_bd87_c82be03265de -->
<g id="edge17" class="edge">
<title>8a633aa5_907c_4e57_a313_22e0adb2672e&#45;&gt;1eaf6f4c_4f92_4e04_bd87_c82be03265de</title>
<path fill="none" stroke="black" d="M458.7,-133.82C449.51,-119.89 439.95,-105.4 431.33,-92.34"/>
<text text-anchor="middle" x="418.83" y="-95.34" font-family="Times,serif" font-size="10.00">owner</text>
<text text-anchor="middle" x="443.16" y="-124.82" font-family="Times,serif" font-size="10.00">account</text>
</g>
<!-- 7ec351d6_652f_4691_8e72_ea432d44a0c8&#45;&gt;c -->
<g id="edge18" class="edge">
<title>7ec351d6_652f_4691_8e72_ea432d44a0c8&#45;&gt;c</title>
<path fill="none" stroke="black" d="M718.12,-133.82C699.76,-110.28 680.16,-85.15 666.79,-68.01"/>
<text text-anchor="middle" x="684.28" y="-71.01" font-family="Times,serif" font-size="10.00">currency</text>
</g>
<!-- 7ec351d6_652f_4691_8e72_ea432d44a0c8&#45;&gt;e2f7bc4c_ef2a_466e_b8a5_d24f48b13afe -->
<g id="edge19" class="edge">
<title>7ec351d6_652f_4691_8e72_ea432d44a0c8&#45;&gt;e2f7bc4c_ef2a_466e_b8a5_d24f48b13afe</title>
<path fill="none" stroke="black" d="M817.1,-133.82C828.06,-119.89 839.46,-105.4 849.73,-92.34"/>
<text text-anchor="middle" x="837.24" y="-95.34" font-family="Times,serif" font-size="10.00">owner</text>
<text text-anchor="middle" x="801.55" y="-124.82" font-family="Times,serif" font-size="10.00">account</text>
</g>
<!-- c51df445_b84d_4214_ac0e_dbb1756481911 -->
<g id="node12" class="node">
<title>c51df445_b84d_4214_ac0e_dbb1756481911</title>
<polygon fill="none" stroke="black" points="654.4,-466 654.4,-484 881.4,-484 881.4,-466 654.4,-466"/>
<text text-anchor="start" x="656.96" y="-473" font-family="Times,serif" text-decoration="underline" font-size="10.00">c51df445&#45;b84d&#45;4214&#45;ac0e&#45;dbb175648191 :Transaction</text>
<polygon fill="none" stroke="black" points="654.4,-400 654.4,-466 881.4,-466 881.4,-400 654.4,-400"/>
<text text-anchor="start" x="669.91" y="-454" font-family="Times,serif" font-size="10.00">amount = &#45;10.0</text>
<text text-anchor="start" x="669.91" y="-442" font-family="Times,serif" font-size="10.00">description = &quot;Fee&quot;</text>
<text text-anchor="start" x="669.91" y="-430" font-family="Times,serif" font-size="10.00">id = &quot;c51df445&#45;b84d&#45;4214&#45;ac0e&#45;dbb175648191&quot;</text>
<text text-anchor="start" x="669.91" y="-418" font-family="Times,serif" font-size="10.00">rejectionDescription = &quot;&quot;</text>
<text text-anchor="start" x="669.91" y="-406" font-family="Times,serif" font-size="10.00">timestamp = 2021&#45;12&#45;10T00:12:54.628314</text>
</g>
<!-- c51df445_b84d_4214_ac0e_dbb1756481911&#45;&gt;b -->
<g id="edge20" class="edge">
<title>c51df445_b84d_4214_ac0e_dbb1756481911&#45;&gt;b</title>
<path fill="none" stroke="black" d="M767.4,-395.82C767.4,-383.69 767.4,-370.94 767.4,-360.12"/>
<text text-anchor="middle" x="757.68" y="-363.12" font-family="Times,serif" font-size="10.00">bank</text>
</g>
<!-- c51df445_b84d_4214_ac0e_dbb1756481911&#45;&gt;c -->
<g id="edge21" class="edge">
<title>c51df445_b84d_4214_ac0e_dbb1756481911&#45;&gt;c</title>
<path fill="none" stroke="black" d="M889.34,-426.79C969.43,-414.89 1075.44,-394.21 1164.4,-360 1239.53,-331.11 1280.48,-337.89 1320.4,-268 1351.26,-213.97 1362.96,-173.39 1320.4,-128 1277.99,-82.75 823.9,-105.64 763.4,-92 739.71,-86.66 714.5,-77.04 693.92,-68.06"/>
<text text-anchor="middle" x="676.43" y="-59.06" font-family="Times,serif" font-size="10.00">currency</text>
</g>
<!-- c51df445_b84d_4214_ac0e_dbb1756481911&#45;&gt;sendItToTheBank -->
<g id="edge22" class="edge">
<title>c51df445_b84d_4214_ac0e_dbb1756481911&#45;&gt;sendItToTheBank</title>
<path fill="none" stroke="black" d="M645.54,-433.3C576.59,-423.99 491.59,-403.74 427.4,-360 402.34,-342.92 411.36,-323.82 388.4,-304 367.73,-286.15 343.49,-270.47 318.95,-257.05"/>
<text text-anchor="middle" x="340.89" y="-260.05" font-family="Times,serif" font-size="10.00">destination</text>
</g>
<!-- c51df445_b84d_4214_ac0e_dbb1756481911&#45;&gt;7843e0fb_ea98_4268_95e6_34ed63608ab3 -->
<g id="edge23" class="edge">
<title>c51df445_b84d_4214_ac0e_dbb1756481911&#45;&gt;7843e0fb_ea98_4268_95e6_34ed63608ab3</title>
<path fill="none" stroke="black" d="M889.28,-430.39C985.32,-419.27 1108.21,-397.97 1140.4,-360 1161.49,-335.13 1165.04,-299.56 1162.65,-268.17"/>
<text text-anchor="middle" x="1175.7" y="-271.17" font-family="Times,serif" font-size="10.00">source</text>
</g>
<!-- c51df445_b84d_4214_ac0e_dbb1756481911&#45;&gt;s -->
<g id="edge24" class="edge">
<title>c51df445_b84d_4214_ac0e_dbb1756481911&#45;&gt;s</title>
<path fill="none" stroke="black" d="M645.59,-414.62C572.71,-398.82 478.24,-378.31 394.4,-360 385.54,-358.06 376.31,-356.05 367.08,-354.03"/>
<text text-anchor="middle" x="355.7" y="-357.03" font-family="Times,serif" font-size="10.00">status</text>
</g>
</g>
</svg>
