<?xml version="1.0" encoding="UTF-8" standalone="no"?>
<!DOCTYPE svg PUBLIC "-//W3C//DTD SVG 1.1//EN"
 "http://www.w3.org/Graphics/SVG/1.1/DTD/svg11.dtd">
<!-- Generated by graphviz version 2.43.0 (0)
 -->
<!-- Pages: 1 -->
<svg width="801px" height="344px"
 viewBox="0.00 0.00 800.76 344.00" xmlns="http://www.w3.org/2000/svg" xmlns:xlink="http://www.w3.org/1999/xlink">
<g id="graph0" class="graph" transform="scale(1.0 1.0) rotate(0) translate(4 340)">
<polygon fill="white" stroke="transparent" points="-4,4 -4,-340 796.76,-340 796.76,4 -4,4"/>
<!-- 5df8cb41_7095_42f6_abc7_ba280af0b0c8 -->
<g id="node1" class="node">
<title>5df8cb41_7095_42f6_abc7_ba280af0b0c8</title>
<polygon fill="none" stroke="black" points="540,-315 540,-332 756,-332 756,-315 540,-315"/>
<text text-anchor="start" x="543" y="-322" font-family="Times,serif" text-decoration="underline" font-size="10.00">5df8cb41&#45;7095&#45;42f6&#45;abc7&#45;ba280af0b0c8 :Account</text>
<polygon fill="none" stroke="black" points="540,-276 540,-315 756,-315 756,-276 540,-276"/>
<text text-anchor="start" x="550" y="-304" font-family="Times,serif" font-size="10.00">balance = 0.0</text>
<text text-anchor="start" x="550" y="-293" font-family="Times,serif" font-size="10.00">id = &quot;5df8cb41&#45;7095&#45;42f6&#45;abc7&#45;ba280af0b0c8&quot;</text>
<text text-anchor="start" x="550" y="-282" font-family="Times,serif" font-size="10.00">status = &quot;FROZEN&quot;</text>
</g>
<!-- b -->
<g id="node2" class="node">
<title>b</title>
<polygon fill="none" stroke="black" points="467,-212 467,-229 506,-229 506,-212 467,-212"/>
<text text-anchor="start" x="470" y="-219" font-family="Times,serif" text-decoration="underline" font-size="10.00">b :Bank</text>
<polygon fill="none" stroke="black" points="467,-206 467,-212 506,-212 506,-206 467,-206"/>
</g>
<!-- 5df8cb41_7095_42f6_abc7_ba280af0b0c8&#45;&gt;b -->
<g id="edge1" class="edge">
<title>5df8cb41_7095_42f6_abc7_ba280af0b0c8&#45;&gt;b</title>
<path fill="none" stroke="black" d="M588.14,-271.96C562.72,-258.78 534.32,-244.05 513.93,-233.48"/>
<text text-anchor="middle" x="524.43" y="-236.48" font-family="Times,serif" font-size="10.00">bank</text>
<text text-anchor="middle" x="569.64" y="-263.96" font-family="Times,serif" font-size="10.00">accounts</text>
</g>
<!-- c -->
<g id="node3" class="node">
<title>c</title>
<polygon fill="none" stroke="black" points="388,-21 388,-38 524,-38 524,-21 388,-21"/>
<text text-anchor="start" x="432" y="-28" font-family="Times,serif" text-decoration="underline" font-size="10.00">c :Currency</text>
<polygon fill="none" stroke="black" points="388,-4 388,-21 524,-21 524,-4 388,-4"/>
<text text-anchor="start" x="391" y="-10" font-family="Times,serif" font-size="10.00">declaringClass = class Currency</text>
</g>
<!-- 5df8cb41_7095_42f6_abc7_ba280af0b0c8&#45;&gt;c -->
<g id="edge2" class="edge">
<title>5df8cb41_7095_42f6_abc7_ba280af0b0c8&#45;&gt;c</title>
<path fill="none" stroke="black" d="M688.9,-271.66C743.62,-226.01 828.04,-139.93 776,-78 745.48,-41.67 616.85,-28.91 532.26,-24.42"/>
<text text-anchor="middle" x="550.26" y="-27.42" font-family="Times,serif" font-size="10.00">currency</text>
</g>
<!-- adad7557_6aa3_4144_81d1_87d47115f98c -->
<g id="node4" class="node">
<title>adad7557_6aa3_4144_81d1_87d47115f98c</title>
<polygon fill="none" stroke="black" points="537,-143 537,-160 760,-160 760,-143 537,-143"/>
<text text-anchor="start" x="540" y="-150" font-family="Times,serif" text-decoration="underline" font-size="10.00">adad7557&#45;6aa3&#45;4144&#45;81d1&#45;87d47115f98c :Customer</text>
<polygon fill="none" stroke="black" points="537,-82 537,-143 760,-143 760,-82 537,-82"/>
<text text-anchor="start" x="549" y="-132" font-family="Times,serif" font-size="10.00">email = &quot;bobby@tt.ee&quot;</text>
<text text-anchor="start" x="549" y="-121" font-family="Times,serif" font-size="10.00">firstName = &quot;Bob&quot;</text>
<text text-anchor="start" x="549" y="-110" font-family="Times,serif" font-size="10.00">id = &quot;adad7557&#45;6aa3&#45;4144&#45;81d1&#45;87d47115f98c&quot;</text>
<text text-anchor="start" x="549" y="-99" font-family="Times,serif" font-size="10.00">lastName = &quot;Jackson&quot;</text>
<text text-anchor="start" x="549" y="-88" font-family="Times,serif" font-size="10.00">password = &quot;secret&quot;</text>
</g>
<!-- 5df8cb41_7095_42f6_abc7_ba280af0b0c8&#45;&gt;adad7557_6aa3_4144_81d1_87d47115f98c -->
<g id="edge3" class="edge">
<title>5df8cb41_7095_42f6_abc7_ba280af0b0c8&#45;&gt;adad7557_6aa3_4144_81d1_87d47115f98c</title>
<path fill="none" stroke="black" d="M648,-271.88C648,-242.17 648,-197.16 648,-164.22"/>
<text text-anchor="middle" x="635" y="-167.22" font-family="Times,serif" font-size="10.00">owner</text>
<text text-anchor="middle" x="631.5" y="-263.88" font-family="Times,serif" font-size="10.00">account</text>
</g>
<!-- b&#45;&gt;adad7557_6aa3_4144_81d1_87d47115f98c -->
<g id="edge6" class="edge">
<title>b&#45;&gt;adad7557_6aa3_4144_81d1_87d47115f98c</title>
<path fill="none" stroke="black" d="M513.85,-200.67C531.13,-190.54 554.18,-177.02 576.3,-164.04"/>
<text text-anchor="middle" x="555.8" y="-167.04" font-family="Times,serif" font-size="10.00">customers</text>
<text text-anchor="middle" x="503.35" y="-192.67" font-family="Times,serif" font-size="10.00">bank</text>
</g>
<!-- c0b5c317_1f49_4833_8f0e_4faca32b6425 -->
<g id="node5" class="node">
<title>c0b5c317_1f49_4833_8f0e_4faca32b6425</title>
<polygon fill="none" stroke="black" points="8,-132 8,-149 224,-149 224,-132 8,-132"/>
<text text-anchor="start" x="11" y="-139" font-family="Times,serif" text-decoration="underline" font-size="10.00">c0b5c317&#45;1f49&#45;4833&#45;8f0e&#45;4faca32b6425 :Account</text>
<polygon fill="none" stroke="black" points="8,-93 8,-132 224,-132 224,-93 8,-93"/>
<text text-anchor="start" x="18" y="-121" font-family="Times,serif" font-size="10.00">balance = 69420.0</text>
<text text-anchor="start" x="18" y="-110" font-family="Times,serif" font-size="10.00">id = &quot;c0b5c317&#45;1f49&#45;4833&#45;8f0e&#45;4faca32b6425&quot;</text>
<text text-anchor="start" x="18" y="-99" font-family="Times,serif" font-size="10.00">status = &quot;ACTIVE&quot;</text>
</g>
<!-- b&#45;&gt;c0b5c317_1f49_4833_8f0e_4faca32b6425 -->
<g id="edge4" class="edge">
<title>b&#45;&gt;c0b5c317_1f49_4833_8f0e_4faca32b6425</title>
<path fill="none" stroke="black" d="M458.2,-212.03C412.51,-203.63 318.83,-185.42 241,-164 229.08,-160.72 216.63,-156.95 204.4,-153.05"/>
<text text-anchor="middle" x="176.4" y="-156.05" font-family="Times,serif" font-size="10.00">bankAccount</text>
<text text-anchor="middle" x="447.7" y="-215.03" font-family="Times,serif" font-size="10.00">bank</text>
</g>
<!-- 892d0790_4046_44b1_aaba_61c16476b9bf -->
<g id="node6" class="node">
<title>892d0790_4046_44b1_aaba_61c16476b9bf</title>
<polygon fill="none" stroke="black" points="258,-143 258,-160 502,-160 502,-143 258,-143"/>
<text text-anchor="start" x="261" y="-150" font-family="Times,serif" text-decoration="underline" font-size="10.00">892d0790&#45;4046&#45;44b1&#45;aaba&#45;61c16476b9bf :Administrator</text>
<polygon fill="none" stroke="black" points="258,-82 258,-143 502,-143 502,-82 258,-82"/>
<text text-anchor="start" x="279" y="-132" font-family="Times,serif" font-size="10.00">email = &quot;admin@bank.ee&quot;</text>
<text text-anchor="start" x="279" y="-121" font-family="Times,serif" font-size="10.00">firstName = &quot;Admin&quot;</text>
<text text-anchor="start" x="279" y="-110" font-family="Times,serif" font-size="10.00">id = &quot;892d0790&#45;4046&#45;44b1&#45;aaba&#45;61c16476b9bf&quot;</text>
<text text-anchor="start" x="279" y="-99" font-family="Times,serif" font-size="10.00">lastName = &quot;ALice&quot;</text>
<text text-anchor="start" x="279" y="-88" font-family="Times,serif" font-size="10.00">password = &quot;secure_p@ssw0|2d&quot;</text>
</g>
<!-- b&#45;&gt;892d0790_4046_44b1_aaba_61c16476b9bf -->
<g id="edge5" class="edge">
<title>b&#45;&gt;892d0790_4046_44b1_aaba_61c16476b9bf</title>
<path fill="none" stroke="black" d="M466.56,-199.58C455.44,-189.61 440.98,-176.65 427.07,-164.18"/>
<text text-anchor="middle" x="398.07" y="-167.18" font-family="Times,serif" font-size="10.00">administrators</text>
<text text-anchor="middle" x="456.06" y="-191.58" font-family="Times,serif" font-size="10.00">bank</text>
</g>
<!-- c0b5c317_1f49_4833_8f0e_4faca32b6425&#45;&gt;c -->
<g id="edge7" class="edge">
<title>c0b5c317_1f49_4833_8f0e_4faca32b6425&#45;&gt;c</title>
<path fill="none" stroke="black" d="M205.89,-88.97C217.66,-85.15 229.59,-81.4 241,-78 286.75,-64.37 338.51,-50.84 379.77,-40.49"/>
<text text-anchor="middle" x="361.77" y="-43.49" font-family="Times,serif" font-size="10.00">currency</text>
</g>
</g>
</svg>
