<?xml version="1.0" encoding="UTF-8" standalone="no"?>
<!DOCTYPE svg PUBLIC "-//W3C//DTD SVG 1.1//EN"
 "http://www.w3.org/Graphics/SVG/1.1/DTD/svg11.dtd">
<!-- Generated by graphviz version 2.43.0 (0)
 -->
<!-- Title: model Pages: 1 -->
<svg width="1553px" height="449px"
 viewBox="0.00 0.00 1553.00 449.00" xmlns="http://www.w3.org/2000/svg" xmlns:xlink="http://www.w3.org/1999/xlink">
<g id="graph0" class="graph" transform="scale(1.0 1.0) rotate(0) translate(4 445)">
<title>model</title>
<polygon fill="white" stroke="transparent" points="-4,4 -4,-445 1549,-445 1549,4 -4,4"/>
<!-- a534890e_ca9b_4322_8e32_3dd074d33705 -->
<g id="node1" class="node">
<title>a534890e_ca9b_4322_8e32_3dd074d33705</title>
<polygon fill="none" stroke="black" points="722.5,-420 722.5,-437 958.5,-437 958.5,-420 722.5,-420"/>
<text text-anchor="start" x="725.5" y="-427" font-family="Times,serif" text-decoration="underline" font-size="10.00">a534890e&#45;ca9b&#45;4322&#45;8e32&#45;3dd074d33705 :Transaction</text>
<polygon fill="none" stroke="black" points="722.5,-359 722.5,-420 958.5,-420 958.5,-359 722.5,-359"/>
<text text-anchor="start" x="739" y="-409" font-family="Times,serif" font-size="10.00">amount = 25.0</text>
<text text-anchor="start" x="739" y="-398" font-family="Times,serif" font-size="10.00">description = &quot;Ref: concert ticket&quot;</text>
<text text-anchor="start" x="739" y="-387" font-family="Times,serif" font-size="10.00">id = &quot;a534890e&#45;ca9b&#45;4322&#45;8e32&#45;3dd074d33705&quot;</text>
<text text-anchor="start" x="739" y="-376" font-family="Times,serif" font-size="10.00">rejectionDescription = &quot;&quot;</text>
<text text-anchor="start" x="739" y="-365" font-family="Times,serif" font-size="10.00">timestamp = 2021&#45;12&#45;04T18:20:20.101820346</text>
</g>
<!-- b -->
<g id="node2" class="node">
<title>b</title>
<polygon fill="none" stroke="black" points="421.5,-297.5 421.5,-314.5 1259.5,-314.5 1259.5,-297.5 421.5,-297.5"/>
<text text-anchor="start" x="824" y="-304.5" font-family="Times,serif" text-decoration="underline" font-size="10.00">b :Bank</text>
<polygon fill="none" stroke="black" points="421.5,-269.5 421.5,-297.5 1259.5,-297.5 1259.5,-269.5 421.5,-269.5"/>
<text text-anchor="start" x="424.5" y="-286.5" font-family="Times,serif" font-size="10.00">accountsMap = sendItToTheBank8a633aa5&#45;907c&#45;4e57&#45;a313&#45;22e0adb2672e744c4d1c&#45;a3b3&#45;4668&#45;8f46&#45;6c33fb0b22617ec351d6&#45;652f&#45;4691&#45;8e72&#45;ea432d44a0c86b7c88db&#45;738e&#45;41bb&#45;840b&#45;e2874d50f46d</text>
<text text-anchor="start" x="424.5" y="-275.5" font-family="Times,serif" font-size="10.00">customerMap = e2f7bc4c&#45;ef2a&#45;466e&#45;b8a5&#45;d24f48b13afe1eaf6f4c&#45;4f92&#45;4e04&#45;bd87&#45;c82be03265de1fc32eb0&#45;a3f9&#45;41d7&#45;a895&#45;0cc2faaea644cbe9be37&#45;a4ec&#45;4d10&#45;b29f&#45;95ed199c90b1</text>
</g>
<!-- a534890e_ca9b_4322_8e32_3dd074d33705&#45;&gt;b -->
<g id="edge1" class="edge">
<title>a534890e_ca9b_4322_8e32_3dd074d33705&#45;&gt;b</title>
<path fill="none" stroke="black" d="M840.5,-354.9C840.5,-342.81 840.5,-330 840.5,-319.22"/>
<text text-anchor="middle" x="830" y="-322.22" font-family="Times,serif" font-size="10.00">bank</text>
<text text-anchor="middle" x="816" y="-346.9" font-family="Times,serif" font-size="10.00">transactions</text>
</g>
<!-- c -->
<g id="node3" class="node">
<title>c</title>
<polygon fill="none" stroke="black" points="396.5,-43 396.5,-60 560.5,-60 560.5,-43 396.5,-43"/>
<text text-anchor="start" x="454.5" y="-50" font-family="Times,serif" text-decoration="underline" font-size="10.00">c :Currency</text>
<polygon fill="none" stroke="black" points="396.5,-26 396.5,-43 560.5,-43 560.5,-26 396.5,-26"/>
<text text-anchor="start" x="399.5" y="-32" font-family="Times,serif" font-size="10.00">declaringClass = class model.Currency</text>
</g>
<!-- a534890e_ca9b_4322_8e32_3dd074d33705&#45;&gt;c -->
<g id="edge2" class="edge">
<title>a534890e_ca9b_4322_8e32_3dd074d33705&#45;&gt;c</title>
<path fill="none" stroke="black" d="M714.25,-389.81C601.55,-380.73 447.82,-360.9 404.5,-319 341.27,-257.85 348.32,-201.72 385.5,-122 397.08,-97.17 420.88,-77.45 441.51,-64.04"/>
<text text-anchor="middle" x="459.51" y="-67.04" font-family="Times,serif" font-size="10.00">currency</text>
</g>
<!-- 744c4d1c_a3b3_4668_8f46_6c33fb0b2261 -->
<g id="node4" class="node">
<title>744c4d1c_a3b3_4668_8f46_6c33fb0b2261</title>
<polygon fill="none" stroke="black" points="1240.5,-209 1240.5,-226 1516.5,-226 1516.5,-209 1240.5,-209"/>
<text text-anchor="start" x="1271.5" y="-216" font-family="Times,serif" text-decoration="underline" font-size="10.00">744c4d1c&#45;a3b3&#45;4668&#45;8f46&#45;6c33fb0b2261 :Account</text>
<polygon fill="none" stroke="black" points="1240.5,-126 1240.5,-209 1516.5,-209 1516.5,-126 1240.5,-126"/>
<text text-anchor="start" x="1243.5" y="-198" font-family="Times,serif" font-size="10.00">balance = 25.0</text>
<text text-anchor="start" x="1243.5" y="-187" font-family="Times,serif" font-size="10.00">customerId = null</text>
<text text-anchor="start" x="1243.5" y="-176" font-family="Times,serif" font-size="10.00">iban = &quot;EE483886012699536918&quot;</text>
<text text-anchor="start" x="1243.5" y="-165" font-family="Times,serif" font-size="10.00">id = &quot;744c4d1c&#45;a3b3&#45;4668&#45;8f46&#45;6c33fb0b2261&quot;</text>
<text text-anchor="start" x="1243.5" y="-154" font-family="Times,serif" font-size="10.00">receivedTransaction = a534890e&#45;ca9b&#45;4322&#45;8e32&#45;3dd074d33705</text>
<text text-anchor="start" x="1243.5" y="-143" font-family="Times,serif" font-size="10.00">sentTransaction = </text>
<text text-anchor="start" x="1243.5" y="-132" font-family="Times,serif" font-size="10.00">status = &quot;ACTIVE&quot;</text>
</g>
<!-- a534890e_ca9b_4322_8e32_3dd074d33705&#45;&gt;744c4d1c_a3b3_4668_8f46_6c33fb0b2261 -->
<g id="edge3" class="edge">
<title>a534890e_ca9b_4322_8e32_3dd074d33705&#45;&gt;744c4d1c_a3b3_4668_8f46_6c33fb0b2261</title>
<path fill="none" stroke="black" d="M966.74,-385.03C1076.65,-372.71 1226.05,-350.81 1276.5,-319 1277.7,-318.25 1312.05,-270.27 1340.56,-230.29"/>
<text text-anchor="middle" x="1317.56" y="-233.29" font-family="Times,serif" font-size="10.00">destination</text>
<text text-anchor="middle" x="1024.74" y="-388.03" font-family="Times,serif" font-size="10.00">allTransactionsOrderedDesc</text>
</g>
<!-- 6b7c88db_738e_41bb_840b_e2874d50f46d -->
<g id="node5" class="node">
<title>6b7c88db_738e_41bb_840b_e2874d50f46d</title>
<polygon fill="none" stroke="black" points="72.5,-209 72.5,-226 330.5,-226 330.5,-209 72.5,-209"/>
<text text-anchor="start" x="93" y="-216" font-family="Times,serif" text-decoration="underline" font-size="10.00">6b7c88db&#45;738e&#45;41bb&#45;840b&#45;e2874d50f46d :Account</text>
<polygon fill="none" stroke="black" points="72.5,-126 72.5,-209 330.5,-209 330.5,-126 72.5,-126"/>
<text text-anchor="start" x="75.5" y="-198" font-family="Times,serif" font-size="10.00">balance = 75.0</text>
<text text-anchor="start" x="75.5" y="-187" font-family="Times,serif" font-size="10.00">customerId = null</text>
<text text-anchor="start" x="75.5" y="-176" font-family="Times,serif" font-size="10.00">iban = &quot;EE791272442354858083&quot;</text>
<text text-anchor="start" x="75.5" y="-165" font-family="Times,serif" font-size="10.00">id = &quot;6b7c88db&#45;738e&#45;41bb&#45;840b&#45;e2874d50f46d&quot;</text>
<text text-anchor="start" x="75.5" y="-154" font-family="Times,serif" font-size="10.00">receivedTransaction = </text>
<text text-anchor="start" x="75.5" y="-143" font-family="Times,serif" font-size="10.00">sentTransaction = a534890e&#45;ca9b&#45;4322&#45;8e32&#45;3dd074d33705</text>
<text text-anchor="start" x="75.5" y="-132" font-family="Times,serif" font-size="10.00">status = &quot;ACTIVE&quot;</text>
</g>
<!-- a534890e_ca9b_4322_8e32_3dd074d33705&#45;&gt;6b7c88db_738e_41bb_840b_e2874d50f46d -->
<g id="edge4" class="edge">
<title>a534890e_ca9b_4322_8e32_3dd074d33705&#45;&gt;6b7c88db_738e_41bb_840b_e2874d50f46d</title>
<path fill="none" stroke="black" d="M714.38,-385.33C591.52,-372.45 414.49,-349.45 352.5,-319 310.03,-298.14 271.34,-261.24 243.77,-230.28"/>
<text text-anchor="middle" x="230.27" y="-233.28" font-family="Times,serif" font-size="10.00">source</text>
<text text-anchor="middle" x="656.38" y="-388.33" font-family="Times,serif" font-size="10.00">allTransactionsOrderedDesc</text>
</g>
<!-- s -->
<g id="node6" class="node">
<title>s</title>
<polygon fill="none" stroke="black" points="1332.5,-292.5 1332.5,-309.5 1537.5,-309.5 1537.5,-292.5 1332.5,-292.5"/>
<text text-anchor="start" x="1418" y="-299.5" font-family="Times,serif" text-decoration="underline" font-size="10.00">s :Status</text>
<polygon fill="none" stroke="black" points="1332.5,-275.5 1332.5,-292.5 1537.5,-292.5 1537.5,-275.5 1332.5,-275.5"/>
<text text-anchor="start" x="1335.5" y="-281.5" font-family="Times,serif" font-size="10.00">declaringClass = class model.Transaction$Status</text>
</g>
<!-- a534890e_ca9b_4322_8e32_3dd074d33705&#45;&gt;s -->
<g id="edge5" class="edge">
<title>a534890e_ca9b_4322_8e32_3dd074d33705&#45;&gt;s</title>
<path fill="none" stroke="black" d="M966.62,-377.3C1061.16,-362.23 1193.64,-340.44 1309.5,-319 1318.76,-317.29 1328.38,-315.44 1338,-313.55"/>
<text text-anchor="middle" x="1326" y="-316.55" font-family="Times,serif" font-size="10.00">status</text>
</g>
<!-- b&#45;&gt;744c4d1c_a3b3_4668_8f46_6c33fb0b2261 -->
<g id="edge10" class="edge">
<title>b&#45;&gt;744c4d1c_a3b3_4668_8f46_6c33fb0b2261</title>
<path fill="none" stroke="black" d="M1034.48,-265.99C1093.92,-256.55 1159.25,-244.53 1218.5,-230 1223.05,-228.88 1227.65,-227.7 1232.29,-226.46"/>
<text text-anchor="middle" x="1213.79" y="-229.46" font-family="Times,serif" font-size="10.00">accounts</text>
<text text-anchor="middle" x="1023.98" y="-257.99" font-family="Times,serif" font-size="10.00">bank</text>
</g>
<!-- b&#45;&gt;6b7c88db_738e_41bb_840b_e2874d50f46d -->
<g id="edge9" class="edge">
<title>b&#45;&gt;6b7c88db_738e_41bb_840b_e2874d50f46d</title>
<path fill="none" stroke="black" d="M602.34,-265.98C532.14,-256.66 455.41,-244.71 385.5,-230 370.21,-226.78 354.33,-222.96 338.6,-218.86"/>
<text text-anchor="middle" x="357.1" y="-221.86" font-family="Times,serif" font-size="10.00">accounts</text>
<text text-anchor="middle" x="591.84" y="-257.98" font-family="Times,serif" font-size="10.00">bank</text>
</g>
<!-- sendItToTheBank -->
<g id="node7" class="node">
<title>sendItToTheBank</title>
<polygon fill="none" stroke="black" points="403.5,-209 403.5,-226 552.5,-226 552.5,-209 403.5,-209"/>
<text text-anchor="start" x="421" y="-216" font-family="Times,serif" text-decoration="underline" font-size="10.00">sendItToTheBank :Account</text>
<polygon fill="none" stroke="black" points="403.5,-126 403.5,-209 552.5,-209 552.5,-126 403.5,-126"/>
<text text-anchor="start" x="406.5" y="-198" font-family="Times,serif" font-size="10.00">balance = 69420.0</text>
<text text-anchor="start" x="406.5" y="-187" font-family="Times,serif" font-size="10.00">customerId = null</text>
<text text-anchor="start" x="406.5" y="-176" font-family="Times,serif" font-size="10.00">iban = &quot;EE666876555200230106&quot;</text>
<text text-anchor="start" x="406.5" y="-165" font-family="Times,serif" font-size="10.00">id = &quot;sendItToTheBank&quot;</text>
<text text-anchor="start" x="406.5" y="-154" font-family="Times,serif" font-size="10.00">receivedTransaction = </text>
<text text-anchor="start" x="406.5" y="-143" font-family="Times,serif" font-size="10.00">sentTransaction = </text>
<text text-anchor="start" x="406.5" y="-132" font-family="Times,serif" font-size="10.00">status = &quot;ACTIVE&quot;</text>
</g>
<!-- b&#45;&gt;sendItToTheBank -->
<g id="edge6" class="edge">
<title>b&#45;&gt;sendItToTheBank</title>
<path fill="none" stroke="black" d="M691.11,-266C650.9,-256.88 607.91,-245.03 569.5,-230 566.41,-228.79 563.3,-227.49 560.19,-226.12"/>
<text text-anchor="middle" x="588.19" y="-229.12" font-family="Times,serif" font-size="10.00">bankAccount</text>
<text text-anchor="middle" x="680.61" y="-258" font-family="Times,serif" font-size="10.00">bank</text>
</g>
<!-- 8a633aa5_907c_4e57_a313_22e0adb2672e -->
<g id="node8" class="node">
<title>8a633aa5_907c_4e57_a313_22e0adb2672e</title>
<polygon fill="none" stroke="black" points="586.5,-209 586.5,-226 824.5,-226 824.5,-209 586.5,-209"/>
<text text-anchor="start" x="598.5" y="-216" font-family="Times,serif" text-decoration="underline" font-size="10.00">8a633aa5&#45;907c&#45;4e57&#45;a313&#45;22e0adb2672e :Account</text>
<polygon fill="none" stroke="black" points="586.5,-126 586.5,-209 824.5,-209 824.5,-126 586.5,-126"/>
<text text-anchor="start" x="589.5" y="-198" font-family="Times,serif" font-size="10.00">balance = 0.0</text>
<text text-anchor="start" x="589.5" y="-187" font-family="Times,serif" font-size="10.00">customerId = &quot;1eaf6f4c&#45;4f92&#45;4e04&#45;bd87&#45;c82be03265de&quot;</text>
<text text-anchor="start" x="589.5" y="-176" font-family="Times,serif" font-size="10.00">iban = null</text>
<text text-anchor="start" x="589.5" y="-165" font-family="Times,serif" font-size="10.00">id = &quot;8a633aa5&#45;907c&#45;4e57&#45;a313&#45;22e0adb2672e&quot;</text>
<text text-anchor="start" x="589.5" y="-154" font-family="Times,serif" font-size="10.00">receivedTransaction = </text>
<text text-anchor="start" x="589.5" y="-143" font-family="Times,serif" font-size="10.00">sentTransaction = </text>
<text text-anchor="start" x="589.5" y="-132" font-family="Times,serif" font-size="10.00">status = &quot;ACTIVE&quot;</text>
</g>
<!-- b&#45;&gt;8a633aa5_907c_4e57_a313_22e0adb2672e -->
<g id="edge7" class="edge">
<title>b&#45;&gt;8a633aa5_907c_4e57_a313_22e0adb2672e</title>
<path fill="none" stroke="black" d="M810.2,-265.8C797.69,-255.19 782.69,-242.47 768.01,-230.02"/>
<text text-anchor="middle" x="749.51" y="-233.02" font-family="Times,serif" font-size="10.00">accounts</text>
<text text-anchor="middle" x="799.7" y="-257.8" font-family="Times,serif" font-size="10.00">bank</text>
</g>
<!-- 7ec351d6_652f_4691_8e72_ea432d44a0c8 -->
<g id="node9" class="node">
<title>7ec351d6_652f_4691_8e72_ea432d44a0c8</title>
<polygon fill="none" stroke="black" points="896.5,-209 896.5,-226 1130.5,-226 1130.5,-209 896.5,-209"/>
<text text-anchor="start" x="906.5" y="-216" font-family="Times,serif" text-decoration="underline" font-size="10.00">7ec351d6&#45;652f&#45;4691&#45;8e72&#45;ea432d44a0c8 :Account</text>
<polygon fill="none" stroke="black" points="896.5,-126 896.5,-209 1130.5,-209 1130.5,-126 896.5,-126"/>
<text text-anchor="start" x="899.5" y="-198" font-family="Times,serif" font-size="10.00">balance = 100.0</text>
<text text-anchor="start" x="899.5" y="-187" font-family="Times,serif" font-size="10.00">customerId = &quot;e2f7bc4c&#45;ef2a&#45;466e&#45;b8a5&#45;d24f48b13afe&quot;</text>
<text text-anchor="start" x="899.5" y="-176" font-family="Times,serif" font-size="10.00">iban = null</text>
<text text-anchor="start" x="899.5" y="-165" font-family="Times,serif" font-size="10.00">id = &quot;7ec351d6&#45;652f&#45;4691&#45;8e72&#45;ea432d44a0c8&quot;</text>
<text text-anchor="start" x="899.5" y="-154" font-family="Times,serif" font-size="10.00">receivedTransaction = </text>
<text text-anchor="start" x="899.5" y="-143" font-family="Times,serif" font-size="10.00">sentTransaction = </text>
<text text-anchor="start" x="899.5" y="-132" font-family="Times,serif" font-size="10.00">status = &quot;ACTIVE&quot;</text>
</g>
<!-- b&#45;&gt;7ec351d6_652f_4691_8e72_ea432d44a0c8 -->
<g id="edge8" class="edge">
<title>b&#45;&gt;7ec351d6_652f_4691_8e72_ea432d44a0c8</title>
<path fill="none" stroke="black" d="M879.32,-265.8C895.36,-255.19 914.58,-242.47 933.4,-230.02"/>
<text text-anchor="middle" x="914.9" y="-233.02" font-family="Times,serif" font-size="10.00">accounts</text>
<text text-anchor="middle" x="868.82" y="-257.8" font-family="Times,serif" font-size="10.00">bank</text>
</g>
<!-- e2f7bc4c_ef2a_466e_b8a5_d24f48b13afe -->
<g id="node10" class="node">
<title>e2f7bc4c_ef2a_466e_b8a5_d24f48b13afe</title>
<polygon fill="none" stroke="black" points="935.5,-65 935.5,-82 1150.5,-82 1150.5,-65 935.5,-65"/>
<text text-anchor="start" x="938.5" y="-72" font-family="Times,serif" text-decoration="underline" font-size="10.00">e2f7bc4c&#45;ef2a&#45;466e&#45;b8a5&#45;d24f48b13afe :Customer</text>
<polygon fill="none" stroke="black" points="935.5,-4 935.5,-65 1150.5,-65 1150.5,-4 935.5,-4"/>
<text text-anchor="start" x="947.5" y="-54" font-family="Times,serif" font-size="10.00">email = &quot;john@doe.ee&quot;</text>
<text text-anchor="start" x="947.5" y="-43" font-family="Times,serif" font-size="10.00">firstName = &quot;John&quot;</text>
<text text-anchor="start" x="947.5" y="-32" font-family="Times,serif" font-size="10.00">id = &quot;e2f7bc4c&#45;ef2a&#45;466e&#45;b8a5&#45;d24f48b13afe&quot;</text>
<text text-anchor="start" x="947.5" y="-21" font-family="Times,serif" font-size="10.00">lastName = &quot;Doe&quot;</text>
<text text-anchor="start" x="947.5" y="-10" font-family="Times,serif" font-size="10.00">password = &quot;pass1234&quot;</text>
</g>
<!-- b&#45;&gt;e2f7bc4c_ef2a_466e_b8a5_d24f48b13afe -->
<g id="edge11" class="edge">
<title>b&#45;&gt;e2f7bc4c_ef2a_466e_b8a5_d24f48b13afe</title>
<path fill="none" stroke="black" d="M1066.43,-265.94C1103.93,-257.18 1134.79,-245.5 1147.5,-230 1177.93,-192.87 1169.06,-164.88 1147.5,-122 1140.56,-108.2 1129.9,-96.23 1117.99,-86.09"/>
<text text-anchor="middle" x="1097.49" y="-89.09" font-family="Times,serif" font-size="10.00">customers</text>
<text text-anchor="middle" x="1055.93" y="-257.94" font-family="Times,serif" font-size="10.00">bank</text>
</g>
<!-- 1eaf6f4c_4f92_4e04_bd87_c82be03265de -->
<g id="node11" class="node">
<title>1eaf6f4c_4f92_4e04_bd87_c82be03265de</title>
<polygon fill="none" stroke="black" points="624.5,-65 624.5,-82 843.5,-82 843.5,-65 624.5,-65"/>
<text text-anchor="start" x="627.5" y="-72" font-family="Times,serif" text-decoration="underline" font-size="10.00">1eaf6f4c&#45;4f92&#45;4e04&#45;bd87&#45;c82be03265de :Customer</text>
<polygon fill="none" stroke="black" points="624.5,-4 624.5,-65 843.5,-65 843.5,-4 624.5,-4"/>
<text text-anchor="start" x="636.5" y="-54" font-family="Times,serif" font-size="10.00">email = &quot;bobby@tt.ee&quot;</text>
<text text-anchor="start" x="636.5" y="-43" font-family="Times,serif" font-size="10.00">firstName = &quot;Bob&quot;</text>
<text text-anchor="start" x="636.5" y="-32" font-family="Times,serif" font-size="10.00">id = &quot;1eaf6f4c&#45;4f92&#45;4e04&#45;bd87&#45;c82be03265de&quot;</text>
<text text-anchor="start" x="636.5" y="-21" font-family="Times,serif" font-size="10.00">lastName = &quot;Jackson&quot;</text>
<text text-anchor="start" x="636.5" y="-10" font-family="Times,serif" font-size="10.00">password = &quot;secret&quot;</text>
</g>
<!-- b&#45;&gt;1eaf6f4c_4f92_4e04_bd87_c82be03265de -->
<g id="edge12" class="edge">
<title>b&#45;&gt;1eaf6f4c_4f92_4e04_bd87_c82be03265de</title>
<path fill="none" stroke="black" d="M847.57,-265.99C855.71,-231.29 865.15,-168.25 841.5,-122 834.45,-108.2 823.69,-96.28 811.64,-86.21"/>
<text text-anchor="middle" x="791.14" y="-89.21" font-family="Times,serif" font-size="10.00">customers</text>
<text text-anchor="middle" x="837.07" y="-257.99" font-family="Times,serif" font-size="10.00">bank</text>
</g>
<!-- cbe9be37_a4ec_4d10_b29f_95ed199c90b1 -->
<g id="node12" class="node">
<title>cbe9be37_a4ec_4d10_b29f_95ed199c90b1</title>
<polygon fill="none" stroke="black" points="8.5,-65 8.5,-82 231.5,-82 231.5,-65 8.5,-65"/>
<text text-anchor="start" x="11.5" y="-72" font-family="Times,serif" text-decoration="underline" font-size="10.00">cbe9be37&#45;a4ec&#45;4d10&#45;b29f&#45;95ed199c90b1 :Customer</text>
<polygon fill="none" stroke="black" points="8.5,-4 8.5,-65 231.5,-65 231.5,-4 8.5,-4"/>
<text text-anchor="start" x="20.5" y="-54" font-family="Times,serif" font-size="10.00">email = &quot;johntest@doe.ee&quot;</text>
<text text-anchor="start" x="20.5" y="-43" font-family="Times,serif" font-size="10.00">firstName = &quot;johntest&quot;</text>
<text text-anchor="start" x="20.5" y="-32" font-family="Times,serif" font-size="10.00">id = &quot;cbe9be37&#45;a4ec&#45;4d10&#45;b29f&#45;95ed199c90b1&quot;</text>
<text text-anchor="start" x="20.5" y="-21" font-family="Times,serif" font-size="10.00">lastName = &quot;Doe&quot;</text>
<text text-anchor="start" x="20.5" y="-10" font-family="Times,serif" font-size="10.00">password = &quot;pass1234&quot;</text>
</g>
<!-- b&#45;&gt;cbe9be37_a4ec_4d10_b29f_95ed199c90b1 -->
<g id="edge13" class="edge">
<title>b&#45;&gt;cbe9be37_a4ec_4d10_b29f_95ed199c90b1</title>
<path fill="none" stroke="black" d="M413.25,-282.37C243.65,-274.23 82.21,-258.89 55.5,-230 22.91,-194.76 39.33,-167.19 55.5,-122 60.1,-109.14 67.84,-96.87 76.38,-86.03"/>
<text text-anchor="middle" x="55.88" y="-89.03" font-family="Times,serif" font-size="10.00">customers</text>
<text text-anchor="middle" x="402.75" y="-285.37" font-family="Times,serif" font-size="10.00">bank</text>
</g>
<!-- 1fc32eb0_a3f9_41d7_a895_0cc2faaea644 -->
<g id="node13" class="node">
<title>1fc32eb0_a3f9_41d7_a895_0cc2faaea644</title>
<polygon fill="none" stroke="black" points="1241.5,-65 1241.5,-82 1458.5,-82 1458.5,-65 1241.5,-65"/>
<text text-anchor="start" x="1244.5" y="-72" font-family="Times,serif" text-decoration="underline" font-size="10.00">1fc32eb0&#45;a3f9&#45;41d7&#45;a895&#45;0cc2faaea644 :Customer</text>
<polygon fill="none" stroke="black" points="1241.5,-4 1241.5,-65 1458.5,-65 1458.5,-4 1241.5,-4"/>
<text text-anchor="start" x="1253.5" y="-54" font-family="Times,serif" font-size="10.00">email = &quot;bobbytest@tt.ee&quot;</text>
<text text-anchor="start" x="1253.5" y="-43" font-family="Times,serif" font-size="10.00">firstName = &quot;Bob&quot;</text>
<text text-anchor="start" x="1253.5" y="-32" font-family="Times,serif" font-size="10.00">id = &quot;1fc32eb0&#45;a3f9&#45;41d7&#45;a895&#45;0cc2faaea644&quot;</text>
<text text-anchor="start" x="1253.5" y="-21" font-family="Times,serif" font-size="10.00">lastName = &quot;Jackson&quot;</text>
<text text-anchor="start" x="1253.5" y="-10" font-family="Times,serif" font-size="10.00">password = &quot;secret&quot;</text>
</g>
<!-- b&#45;&gt;1fc32eb0_a3f9_41d7_a895_0cc2faaea644 -->
<g id="edge14" class="edge">
<title>b&#45;&gt;1fc32eb0_a3f9_41d7_a895_0cc2faaea644</title>
<path fill="none" stroke="black" d="M1060.28,-265.96C1108.9,-256.87 1151.83,-245.05 1171.5,-230 1213.82,-197.64 1187.87,-161.61 1223.5,-122 1235.72,-108.42 1250.85,-96.37 1266.34,-86.05"/>
<text text-anchor="middle" x="1245.84" y="-89.05" font-family="Times,serif" font-size="10.00">customers</text>
<text text-anchor="middle" x="1070.78" y="-257.96" font-family="Times,serif" font-size="10.00">bank</text>
</g>
<!-- 744c4d1c_a3b3_4668_8f46_6c33fb0b2261&#45;&gt;c -->
<g id="edge15" class="edge">
<title>744c4d1c_a3b3_4668_8f46_6c33fb0b2261&#45;&gt;c</title>
<path fill="none" stroke="black" d="M1232.21,-137.75C1204.24,-131.68 1175.08,-126.06 1147.5,-122 909.09,-86.94 843.06,-131.92 606.5,-86 580.67,-80.99 552.82,-72.27 529.72,-64.07"/>
<text text-anchor="middle" x="511.72" y="-67.07" font-family="Times,serif" font-size="10.00">currency</text>
</g>
<!-- 744c4d1c_a3b3_4668_8f46_6c33fb0b2261&#45;&gt;1fc32eb0_a3f9_41d7_a895_0cc2faaea644 -->
<g id="edge16" class="edge">
<title>744c4d1c_a3b3_4668_8f46_6c33fb0b2261&#45;&gt;1fc32eb0_a3f9_41d7_a895_0cc2faaea644</title>
<path fill="none" stroke="black" d="M1366.7,-121.72C1364.1,-109.96 1361.38,-97.66 1358.89,-86.4"/>
<text text-anchor="middle" x="1345.89" y="-89.4" font-family="Times,serif" font-size="10.00">owner</text>
<text text-anchor="middle" x="1350.2" y="-113.72" font-family="Times,serif" font-size="10.00">account</text>
</g>
<!-- 6b7c88db_738e_41bb_840b_e2874d50f46d&#45;&gt;c -->
<g id="edge17" class="edge">
<title>6b7c88db_738e_41bb_840b_e2874d50f46d&#45;&gt;c</title>
<path fill="none" stroke="black" d="M313.77,-121.91C356.81,-101.55 403.36,-79.54 435.96,-64.12"/>
<text text-anchor="middle" x="417.96" y="-67.12" font-family="Times,serif" font-size="10.00">currency</text>
</g>
<!-- 6b7c88db_738e_41bb_840b_e2874d50f46d&#45;&gt;cbe9be37_a4ec_4d10_b29f_95ed199c90b1 -->
<g id="edge18" class="edge">
<title>6b7c88db_738e_41bb_840b_e2874d50f46d&#45;&gt;cbe9be37_a4ec_4d10_b29f_95ed199c90b1</title>
<path fill="none" stroke="black" d="M168.15,-121.72C160.79,-109.96 153.09,-97.66 146.04,-86.4"/>
<text text-anchor="middle" x="133.04" y="-89.4" font-family="Times,serif" font-size="10.00">owner</text>
<text text-anchor="middle" x="151.65" y="-113.72" font-family="Times,serif" font-size="10.00">account</text>
</g>
<!-- sendItToTheBank&#45;&gt;c -->
<g id="edge19" class="edge">
<title>sendItToTheBank&#45;&gt;c</title>
<path fill="none" stroke="black" d="M477.91,-121.72C478.06,-101.46 478.23,-79.58 478.35,-64.22"/>
<text text-anchor="middle" x="496.35" y="-67.22" font-family="Times,serif" font-size="10.00">currency</text>
</g>
<!-- 8a633aa5_907c_4e57_a313_22e0adb2672e&#45;&gt;c -->
<g id="edge20" class="edge">
<title>8a633aa5_907c_4e57_a313_22e0adb2672e&#45;&gt;c</title>
<path fill="none" stroke="black" d="M613.5,-121.91C578.23,-101.55 540.08,-79.54 513.36,-64.12"/>
<text text-anchor="middle" x="531.36" y="-67.12" font-family="Times,serif" font-size="10.00">currency</text>
</g>
<!-- 8a633aa5_907c_4e57_a313_22e0adb2672e&#45;&gt;1eaf6f4c_4f92_4e04_bd87_c82be03265de -->
<g id="edge21" class="edge">
<title>8a633aa5_907c_4e57_a313_22e0adb2672e&#45;&gt;1eaf6f4c_4f92_4e04_bd87_c82be03265de</title>
<path fill="none" stroke="black" d="M716.89,-121.72C719.4,-109.96 722.03,-97.66 724.44,-86.4"/>
<text text-anchor="middle" x="711.44" y="-89.4" font-family="Times,serif" font-size="10.00">owner</text>
<text text-anchor="middle" x="700.39" y="-113.72" font-family="Times,serif" font-size="10.00">account</text>
</g>
<!-- 7ec351d6_652f_4691_8e72_ea432d44a0c8&#45;&gt;c -->
<g id="edge22" class="edge">
<title>7ec351d6_652f_4691_8e72_ea432d44a0c8&#45;&gt;c</title>
<path fill="none" stroke="black" d="M888.2,-134.06C872.57,-129.64 856.73,-125.49 841.5,-122 738.51,-98.38 709.27,-110.55 606.5,-86 582.05,-80.16 555.56,-71.82 533.06,-64.1"/>
<text text-anchor="middle" x="551.06" y="-67.1" font-family="Times,serif" font-size="10.00">currency</text>
</g>
<!-- 7ec351d6_652f_4691_8e72_ea432d44a0c8&#45;&gt;e2f7bc4c_ef2a_466e_b8a5_d24f48b13afe -->
<g id="edge23" class="edge">
<title>7ec351d6_652f_4691_8e72_ea432d44a0c8&#45;&gt;e2f7bc4c_ef2a_466e_b8a5_d24f48b13afe</title>
<path fill="none" stroke="black" d="M1025.3,-121.72C1027.9,-109.96 1030.62,-97.66 1033.11,-86.4"/>
<text text-anchor="middle" x="1020.11" y="-89.4" font-family="Times,serif" font-size="10.00">owner</text>
<text text-anchor="middle" x="1008.8" y="-113.72" font-family="Times,serif" font-size="10.00">account</text>
</g>
</g>
</svg>
