<?xml version="1.0" encoding="UTF-8" standalone="no"?>
<!DOCTYPE svg PUBLIC "-//W3C//DTD SVG 1.1//EN"
 "http://www.w3.org/Graphics/SVG/1.1/DTD/svg11.dtd">
<!-- Generated by graphviz version 2.44.0 (20200408.0750)
 -->
<!-- Pages: 1 -->
<svg width="852px" height="392px"
 viewBox="0.00 0.00 851.65 392.00" xmlns="http://www.w3.org/2000/svg" xmlns:xlink="http://www.w3.org/1999/xlink">
<g id="graph0" class="graph" transform="scale(1.0 1.0) rotate(0) translate(4 388)">
<polygon fill="white" stroke="transparent" points="-4,4 -4,-388 847.65,-388 847.65,4 -4,4"/>
<!-- f0a74a1b_e09d_45be_83cd_f33549bcc73b -->
<g id="node1" class="node">
<title>f0a74a1b_e09d_45be_83cd_f33549bcc73b</title>
<polygon fill="none" stroke="black" points="159.15,-362 159.15,-380 383.15,-380 383.15,-362 159.15,-362"/>
<text text-anchor="start" x="161.89" y="-369" font-family="Times,serif" text-decoration="underline" font-size="10.00">f0a74a1b&#45;e09d&#45;45be&#45;83cd&#45;f33549bcc73b :Transaction</text>
<polygon fill="none" stroke="black" points="159.15,-296 159.15,-362 383.15,-362 383.15,-296 159.15,-296"/>
<text text-anchor="start" x="174.84" y="-350" font-family="Times,serif" font-size="10.00">amount = 25.0</text>
<text text-anchor="start" x="174.84" y="-338" font-family="Times,serif" font-size="10.00">description = &quot;Ref: concert ticket&quot;</text>
<text text-anchor="start" x="174.84" y="-326" font-family="Times,serif" font-size="10.00">id = &quot;f0a74a1b&#45;e09d&#45;45be&#45;83cd&#45;f33549bcc73b&quot;</text>
<text text-anchor="start" x="174.84" y="-314" font-family="Times,serif" font-size="10.00">rejectionDescription = &quot;&quot;</text>
<text text-anchor="start" x="174.84" y="-302" font-family="Times,serif" font-size="10.00">timestamp = 2021&#45;11&#45;28T10:58:07.260406700</text>
</g>
<!-- b -->
<g id="node2" class="node">
<title>b</title>
<polygon fill="none" stroke="black" points="405.15,-232 405.15,-250 442.15,-250 442.15,-232 405.15,-232"/>
<text text-anchor="start" x="407.96" y="-239" font-family="Times,serif" text-decoration="underline" font-size="10.00">b :Bank</text>
<polygon fill="none" stroke="black" points="405.15,-226 405.15,-232 442.15,-232 442.15,-226 405.15,-226"/>
</g>
<!-- f0a74a1b_e09d_45be_83cd_f33549bcc73b&#45;&gt;b -->
<g id="edge1" class="edge">
<title>f0a74a1b_e09d_45be_83cd_f33549bcc73b&#45;&gt;b</title>
<path fill="none" stroke="black" d="M341.37,-291.73C360.97,-279.09 381.09,-266.12 396.47,-256.21"/>
<text text-anchor="middle" x="386.75" y="-259.21" font-family="Times,serif" font-size="10.00">bank</text>
<text text-anchor="middle" x="317.49" y="-282.73" font-family="Times,serif" font-size="10.00">transactions</text>
</g>
<!-- c -->
<g id="node3" class="node">
<title>c</title>
<polygon fill="none" stroke="black" points="8.15,-46 8.15,-64 142.15,-64 142.15,-46 8.15,-46"/>
<text text-anchor="start" x="51.69" y="-53" font-family="Times,serif" text-decoration="underline" font-size="10.00">c :Currency</text>
<polygon fill="none" stroke="black" points="8.15,-28 8.15,-46 142.15,-46 142.15,-28 8.15,-28"/>
<text text-anchor="start" x="11.15" y="-34" font-family="Times,serif" font-size="10.00">declaringClass = class Currency</text>
</g>
<!-- f0a74a1b_e09d_45be_83cd_f33549bcc73b&#45;&gt;c -->
<g id="edge2" class="edge">
<title>f0a74a1b_e09d_45be_83cd_f33549bcc73b&#45;&gt;c</title>
<path fill="none" stroke="black" d="M150.92,-298.77C96.89,-274.9 38.36,-238.16 7.15,-184 -15.78,-144.2 23.33,-95.63 51.11,-68.31"/>
<text text-anchor="middle" x="33.62" y="-71.31" font-family="Times,serif" font-size="10.00">currency</text>
</g>
<!-- 1b78b1c6_5989_479e_9300_618ae048670d -->
<g id="node4" class="node">
<title>1b78b1c6_5989_479e_9300_618ae048670d</title>
<polygon fill="none" stroke="black" points="264.15,-162 264.15,-180 480.15,-180 480.15,-162 264.15,-162"/>
<text text-anchor="start" x="267.04" y="-169" font-family="Times,serif" text-decoration="underline" font-size="10.00">1b78b1c6&#45;5989&#45;479e&#45;9300&#45;618ae048670d :Account</text>
<polygon fill="none" stroke="black" points="264.15,-132 264.15,-162 480.15,-162 480.15,-132 264.15,-132"/>
<text text-anchor="start" x="273.33" y="-150" font-family="Times,serif" font-size="10.00">balance = 0.0</text>
<text text-anchor="start" x="273.33" y="-138" font-family="Times,serif" font-size="10.00">id = &quot;1b78b1c6&#45;5989&#45;479e&#45;9300&#45;618ae048670d&quot;</text>
</g>
<!-- f0a74a1b_e09d_45be_83cd_f33549bcc73b&#45;&gt;1b78b1c6_5989_479e_9300_618ae048670d -->
<g id="edge3" class="edge">
<title>f0a74a1b_e09d_45be_83cd_f33549bcc73b&#45;&gt;1b78b1c6_5989_479e_9300_618ae048670d</title>
<path fill="none" stroke="black" d="M296.64,-291.58C315.63,-257.73 340.94,-212.63 356.89,-184.2"/>
<text text-anchor="middle" x="334.95" y="-187.2" font-family="Times,serif" font-size="10.00">destination</text>
</g>
<!-- f82ecf21_7e83_4df6_9af9_8975d6ea4bf1 -->
<g id="node5" class="node">
<title>f82ecf21_7e83_4df6_9af9_8975d6ea4bf1</title>
<polygon fill="none" stroke="black" points="24.15,-162 24.15,-180 230.15,-180 230.15,-162 24.15,-162"/>
<text text-anchor="start" x="26.78" y="-169" font-family="Times,serif" text-decoration="underline" font-size="10.00">f82ecf21&#45;7e83&#45;4df6&#45;9af9&#45;8975d6ea4bf1 :Account</text>
<polygon fill="none" stroke="black" points="24.15,-132 24.15,-162 230.15,-162 230.15,-132 24.15,-132"/>
<text text-anchor="start" x="33.07" y="-150" font-family="Times,serif" font-size="10.00">balance = 100.0</text>
<text text-anchor="start" x="33.07" y="-138" font-family="Times,serif" font-size="10.00">id = &quot;f82ecf21&#45;7e83&#45;4df6&#45;9af9&#45;8975d6ea4bf1&quot;</text>
</g>
<!-- f0a74a1b_e09d_45be_83cd_f33549bcc73b&#45;&gt;f82ecf21_7e83_4df6_9af9_8975d6ea4bf1 -->
<g id="edge4" class="edge">
<title>f0a74a1b_e09d_45be_83cd_f33549bcc73b&#45;&gt;f82ecf21_7e83_4df6_9af9_8975d6ea4bf1</title>
<path fill="none" stroke="black" d="M234.81,-291.58C207.74,-257.73 171.65,-212.63 148.91,-184.2"/>
<text text-anchor="middle" x="135.86" y="-187.2" font-family="Times,serif" font-size="10.00">source</text>
</g>
<!-- b&#45;&gt;1b78b1c6_5989_479e_9300_618ae048670d -->
<g id="edge7" class="edge">
<title>b&#45;&gt;1b78b1c6_5989_479e_9300_618ae048670d</title>
<path fill="none" stroke="black" d="M412.09,-219.64C405.46,-209.26 396.91,-195.83 389.41,-184.08"/>
<text text-anchor="middle" x="406.91" y="-187.08" font-family="Times,serif" font-size="10.00">accounts</text>
<text text-anchor="middle" x="402.37" y="-210.64" font-family="Times,serif" font-size="10.00">bank</text>
</g>
<!-- b&#45;&gt;f82ecf21_7e83_4df6_9af9_8975d6ea4bf1 -->
<g id="edge6" class="edge">
<title>b&#45;&gt;f82ecf21_7e83_4df6_9af9_8975d6ea4bf1</title>
<path fill="none" stroke="black" d="M396.1,-229.69C358.06,-219.41 286.76,-200.14 227.12,-184.02"/>
<text text-anchor="middle" x="209.63" y="-187.02" font-family="Times,serif" font-size="10.00">accounts</text>
<text text-anchor="middle" x="386.38" y="-232.69" font-family="Times,serif" font-size="10.00">bank</text>
</g>
<!-- 97df0ec2_78e0_46d6_a9c4_079fa7593364 -->
<g id="node6" class="node">
<title>97df0ec2_78e0_46d6_a9c4_079fa7593364</title>
<polygon fill="none" stroke="black" points="625.15,-162 625.15,-180 836.15,-180 836.15,-162 625.15,-162"/>
<text text-anchor="start" x="627.77" y="-169" font-family="Times,serif" text-decoration="underline" font-size="10.00">97df0ec2&#45;78e0&#45;46d6&#45;a9c4&#45;079fa7593364 :Account</text>
<polygon fill="none" stroke="black" points="625.15,-132 625.15,-162 836.15,-162 836.15,-132 625.15,-132"/>
<text text-anchor="start" x="634.06" y="-150" font-family="Times,serif" font-size="10.00">balance = 69420.0</text>
<text text-anchor="start" x="634.06" y="-138" font-family="Times,serif" font-size="10.00">id = &quot;97df0ec2&#45;78e0&#45;46d6&#45;a9c4&#45;079fa7593364&quot;</text>
</g>
<!-- b&#45;&gt;97df0ec2_78e0_46d6_a9c4_079fa7593364 -->
<g id="edge5" class="edge">
<title>b&#45;&gt;97df0ec2_78e0_46d6_a9c4_079fa7593364</title>
<path fill="none" stroke="black" d="M450.4,-229.9C489.58,-219.69 563.97,-200.3 626.2,-184.09"/>
<text text-anchor="middle" x="599.54" y="-187.09" font-family="Times,serif" font-size="10.00">bankAccount</text>
<text text-anchor="middle" x="460.12" y="-232.9" font-family="Times,serif" font-size="10.00">bank</text>
</g>
<!-- f5a3a73d_5a76_4aa0_8c34_671758578d6c -->
<g id="node7" class="node">
<title>f5a3a73d_5a76_4aa0_8c34_671758578d6c</title>
<polygon fill="none" stroke="black" points="176.15,-70 176.15,-88 393.15,-88 393.15,-70 176.15,-70"/>
<text text-anchor="start" x="178.71" y="-77" font-family="Times,serif" text-decoration="underline" font-size="10.00">f5a3a73d&#45;5a76&#45;4aa0&#45;8c34&#45;671758578d6c :Customer</text>
<polygon fill="none" stroke="black" points="176.15,-4 176.15,-70 393.15,-70 393.15,-4 176.15,-4"/>
<text text-anchor="start" x="187.5" y="-58" font-family="Times,serif" font-size="10.00">email = &quot;john@doe.ee&quot;</text>
<text text-anchor="start" x="187.5" y="-46" font-family="Times,serif" font-size="10.00">firstName = &quot;John&quot;</text>
<text text-anchor="start" x="187.5" y="-34" font-family="Times,serif" font-size="10.00">id = &quot;f5a3a73d&#45;5a76&#45;4aa0&#45;8c34&#45;671758578d6c&quot;</text>
<text text-anchor="start" x="187.5" y="-22" font-family="Times,serif" font-size="10.00">lastName = &quot;Doe&quot;</text>
<text text-anchor="start" x="187.5" y="-10" font-family="Times,serif" font-size="10.00">password = &quot;pass1234&quot;</text>
</g>
<!-- b&#45;&gt;f5a3a73d_5a76_4aa0_8c34_671758578d6c -->
<g id="edge8" class="edge">
<title>b&#45;&gt;f5a3a73d_5a76_4aa0_8c34_671758578d6c</title>
<path fill="none" stroke="black" d="M450.21,-225.58C467.06,-216.88 487.33,-203.12 497.15,-184 508.53,-161.86 511.28,-148.49 497.15,-128 495.48,-125.58 449.53,-107.98 400.74,-89.8"/>
<text text-anchor="middle" x="421.01" y="-92.8" font-family="Times,serif" font-size="10.00">customers</text>
<text text-anchor="middle" x="459.93" y="-216.58" font-family="Times,serif" font-size="10.00">bank</text>
</g>
<!-- 49005cb3_3e6a_4fb9_9558_b10089bb925c -->
<g id="node8" class="node">
<title>49005cb3_3e6a_4fb9_9558_b10089bb925c</title>
<polygon fill="none" stroke="black" points="427.15,-70 427.15,-88 646.15,-88 646.15,-70 427.15,-70"/>
<text text-anchor="start" x="429.87" y="-77" font-family="Times,serif" text-decoration="underline" font-size="10.00">49005cb3&#45;3e6a&#45;4fb9&#45;9558&#45;b10089bb925c :Customer</text>
<polygon fill="none" stroke="black" points="427.15,-4 427.15,-70 646.15,-70 646.15,-4 427.15,-4"/>
<text text-anchor="start" x="438.66" y="-58" font-family="Times,serif" font-size="10.00">email = &quot;bobby@tt.ee&quot;</text>
<text text-anchor="start" x="438.66" y="-46" font-family="Times,serif" font-size="10.00">firstName = &quot;Bob&quot;</text>
<text text-anchor="start" x="438.66" y="-34" font-family="Times,serif" font-size="10.00">id = &quot;49005cb3&#45;3e6a&#45;4fb9&#45;9558&#45;b10089bb925c&quot;</text>
<text text-anchor="start" x="438.66" y="-22" font-family="Times,serif" font-size="10.00">lastName = &quot;Jackson&quot;</text>
<text text-anchor="start" x="438.66" y="-10" font-family="Times,serif" font-size="10.00">password = &quot;secret&quot;</text>
</g>
<!-- b&#45;&gt;49005cb3_3e6a_4fb9_9558_b10089bb925c -->
<g id="edge9" class="edge">
<title>b&#45;&gt;49005cb3_3e6a_4fb9_9558_b10089bb925c</title>
<path fill="none" stroke="black" d="M450.33,-231.71C475.71,-225.2 512.27,-211.45 530.15,-184 547.63,-157.17 548.4,-120.71 545.19,-92.16"/>
<text text-anchor="middle" x="524.92" y="-95.16" font-family="Times,serif" font-size="10.00">customers</text>
<text text-anchor="middle" x="460.05" y="-222.71" font-family="Times,serif" font-size="10.00">bank</text>
</g>
<!-- 1b78b1c6_5989_479e_9300_618ae048670d&#45;&gt;c -->
<g id="edge10" class="edge">
<title>1b78b1c6_5989_479e_9300_618ae048670d&#45;&gt;c</title>
<path fill="none" stroke="black" d="M265.04,-127.95C230.71,-118.05 192.86,-105.84 159.15,-92 142.78,-85.27 125.42,-76.31 110.75,-68.15"/>
<text text-anchor="middle" x="93.27" y="-71.15" font-family="Times,serif" font-size="10.00">currency</text>
</g>
<!-- 1b78b1c6_5989_479e_9300_618ae048670d&#45;&gt;49005cb3_3e6a_4fb9_9558_b10089bb925c -->
<g id="edge11" class="edge">
<title>1b78b1c6_5989_479e_9300_618ae048670d&#45;&gt;49005cb3_3e6a_4fb9_9558_b10089bb925c</title>
<path fill="none" stroke="black" d="M413.54,-127.75C429.95,-116.94 449.27,-104.21 467.66,-92.1"/>
<text text-anchor="middle" x="455.17" y="-95.1" font-family="Times,serif" font-size="10.00">owner</text>
<text text-anchor="middle" x="397.99" y="-118.75" font-family="Times,serif" font-size="10.00">account</text>
</g>
<!-- f82ecf21_7e83_4df6_9af9_8975d6ea4bf1&#45;&gt;c -->
<g id="edge12" class="edge">
<title>f82ecf21_7e83_4df6_9af9_8975d6ea4bf1&#45;&gt;c</title>
<path fill="none" stroke="black" d="M114.03,-127.75C105.12,-109.25 93.52,-85.15 85.32,-68.11"/>
<text text-anchor="middle" x="67.83" y="-71.11" font-family="Times,serif" font-size="10.00">currency</text>
</g>
<!-- f82ecf21_7e83_4df6_9af9_8975d6ea4bf1&#45;&gt;f5a3a73d_5a76_4aa0_8c34_671758578d6c -->
<g id="edge13" class="edge">
<title>f82ecf21_7e83_4df6_9af9_8975d6ea4bf1&#45;&gt;f5a3a73d_5a76_4aa0_8c34_671758578d6c</title>
<path fill="none" stroke="black" d="M166.77,-127.75C182.48,-116.94 200.98,-104.21 218.59,-92.1"/>
<text text-anchor="middle" x="206.09" y="-95.1" font-family="Times,serif" font-size="10.00">owner</text>
<text text-anchor="middle" x="151.22" y="-118.75" font-family="Times,serif" font-size="10.00">account</text>
</g>
<!-- c1 -->
<g id="node9" class="node">
<title>c1</title>
<polygon fill="none" stroke="black" points="680.15,-46 680.15,-64 814.15,-64 814.15,-46 680.15,-46"/>
<text text-anchor="start" x="721.19" y="-53" font-family="Times,serif" text-decoration="underline" font-size="10.00">c1 :Currency</text>
<polygon fill="none" stroke="black" points="680.15,-28 680.15,-46 814.15,-46 814.15,-28 680.15,-28"/>
<text text-anchor="start" x="683.15" y="-34" font-family="Times,serif" font-size="10.00">declaringClass = class Currency</text>
</g>
<!-- 97df0ec2_78e0_46d6_a9c4_079fa7593364&#45;&gt;c1 -->
<g id="edge14" class="edge">
<title>97df0ec2_78e0_46d6_a9c4_079fa7593364&#45;&gt;c1</title>
<path fill="none" stroke="black" d="M734.44,-127.75C737.35,-109.25 741.15,-85.15 743.83,-68.11"/>
<text text-anchor="middle" x="726.34" y="-71.11" font-family="Times,serif" font-size="10.00">currency</text>
</g>
</g>
</svg>
