<?xml version="1.0" encoding="UTF-8" standalone="no"?>
<!DOCTYPE svg PUBLIC "-//W3C//DTD SVG 1.1//EN"
 "http://www.w3.org/Graphics/SVG/1.1/DTD/svg11.dtd">
<!-- Generated by graphviz version 2.43.0 (0)
 -->
<!-- Title: model Pages: 1 -->
<svg width="2112px" height="427px"
 viewBox="0.00 0.00 2112.00 427.00" xmlns="http://www.w3.org/2000/svg" xmlns:xlink="http://www.w3.org/1999/xlink">
<g id="graph0" class="graph" transform="scale(1.0 1.0) rotate(0) translate(4 423)">
<title>model</title>
<polygon fill="white" stroke="transparent" points="-4,4 -4,-423 2108,-423 2108,4 -4,4"/>
<!-- b -->
<g id="node1" class="node">
<title>b</title>
<polygon fill="none" stroke="black" points="665.5,-397.5 665.5,-414.5 1497.5,-414.5 1497.5,-397.5 665.5,-397.5"/>
<text text-anchor="start" x="1065" y="-404.5" font-family="Times,serif" text-decoration="underline" font-size="10.00">b :Bank</text>
<polygon fill="none" stroke="black" points="665.5,-369.5 665.5,-397.5 1497.5,-397.5 1497.5,-369.5 665.5,-369.5"/>
<text text-anchor="start" x="668.5" y="-386.5" font-family="Times,serif" font-size="10.00">accountsMap = sendItToTheBank8a633aa5&#45;907c&#45;4e57&#45;a313&#45;22e0adb2672e22d56f17&#45;41d0&#45;4f76&#45;8575&#45;daed1a0227957ec351d6&#45;652f&#45;4691&#45;8e72&#45;ea432d44a0c8657bd0ef&#45;d7d9&#45;4cfc&#45;9c2d&#45;09ae9814f4b7</text>
<text text-anchor="start" x="668.5" y="-375.5" font-family="Times,serif" font-size="10.00">customerMap = b7953cbf&#45;3f1a&#45;44db&#45;8d6a&#45;99b7f6fc662be2f7bc4c&#45;ef2a&#45;466e&#45;b8a5&#45;d24f48b13afe1eaf6f4c&#45;4f92&#45;4e04&#45;bd87&#45;c82be03265de72f84e8d&#45;2bee&#45;4fd8&#45;b719&#45;e6d8a6a1baed</text>
</g>
<!-- sendItToTheBank -->
<g id="node2" class="node">
<title>sendItToTheBank</title>
<polygon fill="none" stroke="black" points="8.5,-165 8.5,-182 157.5,-182 157.5,-165 8.5,-165"/>
<text text-anchor="start" x="26" y="-172" font-family="Times,serif" text-decoration="underline" font-size="10.00">sendItToTheBank :Account</text>
<polygon fill="none" stroke="black" points="8.5,-82 8.5,-165 157.5,-165 157.5,-82 8.5,-82"/>
<text text-anchor="start" x="11.5" y="-154" font-family="Times,serif" font-size="10.00">balance = 69420.0</text>
<text text-anchor="start" x="11.5" y="-143" font-family="Times,serif" font-size="10.00">customerId = null</text>
<text text-anchor="start" x="11.5" y="-132" font-family="Times,serif" font-size="10.00">iban = &quot;EE508250354932890135&quot;</text>
<text text-anchor="start" x="11.5" y="-121" font-family="Times,serif" font-size="10.00">id = &quot;sendItToTheBank&quot;</text>
<text text-anchor="start" x="11.5" y="-110" font-family="Times,serif" font-size="10.00">receivedTransaction = </text>
<text text-anchor="start" x="11.5" y="-99" font-family="Times,serif" font-size="10.00">sentTransaction = </text>
<text text-anchor="start" x="11.5" y="-88" font-family="Times,serif" font-size="10.00">status = &quot;ACTIVE&quot;</text>
</g>
<!-- b&#45;&gt;sendItToTheBank -->
<g id="edge1" class="edge">
<title>b&#45;&gt;sendItToTheBank</title>
<path fill="none" stroke="black" d="M657.42,-384.81C503.58,-376.93 350.83,-361.12 282.5,-330 213.75,-298.69 154.93,-233.08 119.22,-186.18"/>
<text text-anchor="middle" x="91.22" y="-189.18" font-family="Times,serif" font-size="10.00">bankAccount</text>
<text text-anchor="middle" x="646.92" y="-387.81" font-family="Times,serif" font-size="10.00">bank</text>
</g>
<!-- sendItToTheBank1 -->
<g id="node3" class="node">
<title>sendItToTheBank1</title>
<polygon fill="none" stroke="black" points="482.5,-165 482.5,-182 602.5,-182 602.5,-165 482.5,-165"/>
<text text-anchor="start" x="485.5" y="-172" font-family="Times,serif" text-decoration="underline" font-size="10.00">sendItToTheBank :Account</text>
<polygon fill="none" stroke="black" points="482.5,-82 482.5,-165 602.5,-165 602.5,-82 482.5,-82"/>
<text text-anchor="start" x="492.5" y="-154" font-family="Times,serif" font-size="10.00">balance = 74420.0</text>
<text text-anchor="start" x="492.5" y="-143" font-family="Times,serif" font-size="10.00">customerId = &quot;&quot;</text>
<text text-anchor="start" x="492.5" y="-132" font-family="Times,serif" font-size="10.00">iban = null</text>
<text text-anchor="start" x="492.5" y="-121" font-family="Times,serif" font-size="10.00">id = &quot;sendItToTheBank&quot;</text>
<text text-anchor="start" x="492.5" y="-110" font-family="Times,serif" font-size="10.00">receivedTransaction = </text>
<text text-anchor="start" x="492.5" y="-99" font-family="Times,serif" font-size="10.00">sentTransaction = </text>
<text text-anchor="start" x="492.5" y="-88" font-family="Times,serif" font-size="10.00">status = &quot;ACTIVE&quot;</text>
</g>
<!-- b&#45;&gt;sendItToTheBank1 -->
<g id="edge2" class="edge">
<title>b&#45;&gt;sendItToTheBank1</title>
<path fill="none" stroke="black" d="M824.7,-365.98C767.04,-356.88 715.53,-345.05 690.5,-330 660.89,-312.2 609.74,-238.46 576.01,-186.44"/>
<text text-anchor="middle" x="557.51" y="-189.44" font-family="Times,serif" font-size="10.00">accounts</text>
<text text-anchor="middle" x="814.2" y="-357.98" font-family="Times,serif" font-size="10.00">bank</text>
</g>
<!-- 8a633aa5_907c_4e57_a313_22e0adb2672e -->
<g id="node4" class="node">
<title>8a633aa5_907c_4e57_a313_22e0adb2672e</title>
<polygon fill="none" stroke="black" points="336.5,-309 336.5,-326 574.5,-326 574.5,-309 336.5,-309"/>
<text text-anchor="start" x="348.5" y="-316" font-family="Times,serif" text-decoration="underline" font-size="10.00">8a633aa5&#45;907c&#45;4e57&#45;a313&#45;22e0adb2672e :Account</text>
<polygon fill="none" stroke="black" points="336.5,-226 336.5,-309 574.5,-309 574.5,-226 336.5,-226"/>
<text text-anchor="start" x="339.5" y="-298" font-family="Times,serif" font-size="10.00">balance = 0.0</text>
<text text-anchor="start" x="339.5" y="-287" font-family="Times,serif" font-size="10.00">customerId = &quot;1eaf6f4c&#45;4f92&#45;4e04&#45;bd87&#45;c82be03265de&quot;</text>
<text text-anchor="start" x="339.5" y="-276" font-family="Times,serif" font-size="10.00">iban = null</text>
<text text-anchor="start" x="339.5" y="-265" font-family="Times,serif" font-size="10.00">id = &quot;8a633aa5&#45;907c&#45;4e57&#45;a313&#45;22e0adb2672e&quot;</text>
<text text-anchor="start" x="339.5" y="-254" font-family="Times,serif" font-size="10.00">receivedTransaction = </text>
<text text-anchor="start" x="339.5" y="-243" font-family="Times,serif" font-size="10.00">sentTransaction = </text>
<text text-anchor="start" x="339.5" y="-232" font-family="Times,serif" font-size="10.00">status = &quot;ACTIVE&quot;</text>
</g>
<!-- b&#45;&gt;8a633aa5_907c_4e57_a313_22e0adb2672e -->
<g id="edge3" class="edge">
<title>b&#45;&gt;8a633aa5_907c_4e57_a313_22e0adb2672e</title>
<path fill="none" stroke="black" d="M839.25,-366C770.71,-356.79 696.33,-344.89 628.5,-330 613.62,-326.73 598.17,-322.8 582.9,-318.58"/>
<text text-anchor="middle" x="601.4" y="-321.58" font-family="Times,serif" font-size="10.00">accounts</text>
<text text-anchor="middle" x="849.75" y="-358" font-family="Times,serif" font-size="10.00">bank</text>
</g>
<!-- 7ec351d6_652f_4691_8e72_ea432d44a0c8 -->
<g id="node5" class="node">
<title>7ec351d6_652f_4691_8e72_ea432d44a0c8</title>
<polygon fill="none" stroke="black" points="730.5,-309 730.5,-326 964.5,-326 964.5,-309 730.5,-309"/>
<text text-anchor="start" x="740.5" y="-316" font-family="Times,serif" text-decoration="underline" font-size="10.00">7ec351d6&#45;652f&#45;4691&#45;8e72&#45;ea432d44a0c8 :Account</text>
<polygon fill="none" stroke="black" points="730.5,-226 730.5,-309 964.5,-309 964.5,-226 730.5,-226"/>
<text text-anchor="start" x="733.5" y="-298" font-family="Times,serif" font-size="10.00">balance = 100.0</text>
<text text-anchor="start" x="733.5" y="-287" font-family="Times,serif" font-size="10.00">customerId = &quot;e2f7bc4c&#45;ef2a&#45;466e&#45;b8a5&#45;d24f48b13afe&quot;</text>
<text text-anchor="start" x="733.5" y="-276" font-family="Times,serif" font-size="10.00">iban = null</text>
<text text-anchor="start" x="733.5" y="-265" font-family="Times,serif" font-size="10.00">id = &quot;7ec351d6&#45;652f&#45;4691&#45;8e72&#45;ea432d44a0c8&quot;</text>
<text text-anchor="start" x="733.5" y="-254" font-family="Times,serif" font-size="10.00">receivedTransaction = </text>
<text text-anchor="start" x="733.5" y="-243" font-family="Times,serif" font-size="10.00">sentTransaction = </text>
<text text-anchor="start" x="733.5" y="-232" font-family="Times,serif" font-size="10.00">status = &quot;ACTIVE&quot;</text>
</g>
<!-- b&#45;&gt;7ec351d6_652f_4691_8e72_ea432d44a0c8 -->
<g id="edge4" class="edge">
<title>b&#45;&gt;7ec351d6_652f_4691_8e72_ea432d44a0c8</title>
<path fill="none" stroke="black" d="M1029.28,-365.95C1007.59,-355.34 981.57,-342.6 956.08,-330.13"/>
<text text-anchor="middle" x="937.58" y="-333.13" font-family="Times,serif" font-size="10.00">accounts</text>
<text text-anchor="middle" x="1018.78" y="-357.95" font-family="Times,serif" font-size="10.00">bank</text>
</g>
<!-- 22d56f17_41d0_4f76_8575_daed1a022795 -->
<g id="node6" class="node">
<title>22d56f17_41d0_4f76_8575_daed1a022795</title>
<polygon fill="none" stroke="black" points="1037.5,-309 1037.5,-326 1288.5,-326 1288.5,-309 1037.5,-309"/>
<text text-anchor="start" x="1056" y="-316" font-family="Times,serif" text-decoration="underline" font-size="10.00">22d56f17&#45;41d0&#45;4f76&#45;8575&#45;daed1a022795 :Account</text>
<polygon fill="none" stroke="black" points="1037.5,-226 1037.5,-309 1288.5,-309 1288.5,-226 1037.5,-226"/>
<text text-anchor="start" x="1040.5" y="-298" font-family="Times,serif" font-size="10.00">balance = 200.0</text>
<text text-anchor="start" x="1040.5" y="-287" font-family="Times,serif" font-size="10.00">customerId = null</text>
<text text-anchor="start" x="1040.5" y="-276" font-family="Times,serif" font-size="10.00">iban = &quot;EE529988345300797289&quot;</text>
<text text-anchor="start" x="1040.5" y="-265" font-family="Times,serif" font-size="10.00">id = &quot;22d56f17&#45;41d0&#45;4f76&#45;8575&#45;daed1a022795&quot;</text>
<text text-anchor="start" x="1040.5" y="-254" font-family="Times,serif" font-size="10.00">receivedTransaction = </text>
<text text-anchor="start" x="1040.5" y="-243" font-family="Times,serif" font-size="10.00">sentTransaction = dccd5a11&#45;8a09&#45;4add&#45;8962&#45;2f721a287bfb</text>
<text text-anchor="start" x="1040.5" y="-232" font-family="Times,serif" font-size="10.00">status = &quot;ACTIVE&quot;</text>
</g>
<!-- b&#45;&gt;22d56f17_41d0_4f76_8575_daed1a022795 -->
<g id="edge5" class="edge">
<title>b&#45;&gt;22d56f17_41d0_4f76_8575_daed1a022795</title>
<path fill="none" stroke="black" d="M1099.68,-365.8C1107.14,-355.25 1116.07,-342.63 1124.83,-330.25"/>
<text text-anchor="middle" x="1106.33" y="-333.25" font-family="Times,serif" font-size="10.00">accounts</text>
<text text-anchor="middle" x="1089.18" y="-357.8" font-family="Times,serif" font-size="10.00">bank</text>
</g>
<!-- 657bd0ef_d7d9_4cfc_9c2d_09ae9814f4b7 -->
<g id="node7" class="node">
<title>657bd0ef_d7d9_4cfc_9c2d_09ae9814f4b7</title>
<polygon fill="none" stroke="black" points="1361.5,-309 1361.5,-326 1630.5,-326 1630.5,-309 1361.5,-309"/>
<text text-anchor="start" x="1391" y="-316" font-family="Times,serif" text-decoration="underline" font-size="10.00">657bd0ef&#45;d7d9&#45;4cfc&#45;9c2d&#45;09ae9814f4b7 :Account</text>
<polygon fill="none" stroke="black" points="1361.5,-226 1361.5,-309 1630.5,-309 1630.5,-226 1361.5,-226"/>
<text text-anchor="start" x="1364.5" y="-298" font-family="Times,serif" font-size="10.00">balance = 300.0</text>
<text text-anchor="start" x="1364.5" y="-287" font-family="Times,serif" font-size="10.00">customerId = null</text>
<text text-anchor="start" x="1364.5" y="-276" font-family="Times,serif" font-size="10.00">iban = &quot;EE650900065190003527&quot;</text>
<text text-anchor="start" x="1364.5" y="-265" font-family="Times,serif" font-size="10.00">id = &quot;657bd0ef&#45;d7d9&#45;4cfc&#45;9c2d&#45;09ae9814f4b7&quot;</text>
<text text-anchor="start" x="1364.5" y="-254" font-family="Times,serif" font-size="10.00">receivedTransaction = dccd5a11&#45;8a09&#45;4add&#45;8962&#45;2f721a287bfb</text>
<text text-anchor="start" x="1364.5" y="-243" font-family="Times,serif" font-size="10.00">sentTransaction = </text>
<text text-anchor="start" x="1364.5" y="-232" font-family="Times,serif" font-size="10.00">status = &quot;ACTIVE&quot;</text>
</g>
<!-- b&#45;&gt;657bd0ef_d7d9_4cfc_9c2d_09ae9814f4b7 -->
<g id="edge6" class="edge">
<title>b&#45;&gt;657bd0ef_d7d9_4cfc_9c2d_09ae9814f4b7</title>
<path fill="none" stroke="black" d="M1198.19,-365.94C1242.37,-355.64 1292.98,-343.1 1338.5,-330 1343.2,-328.65 1347.97,-327.24 1352.77,-325.79"/>
<text text-anchor="middle" x="1334.27" y="-328.79" font-family="Times,serif" font-size="10.00">accounts</text>
<text text-anchor="middle" x="1187.69" y="-357.94" font-family="Times,serif" font-size="10.00">bank</text>
</g>
<!-- c70360a5_f67d_4773_b1ad_e5d596e9649d -->
<g id="node8" class="node">
<title>c70360a5_f67d_4773_b1ad_e5d596e9649d</title>
<polygon fill="none" stroke="black" points="1703.5,-298 1703.5,-315 1946.5,-315 1946.5,-298 1703.5,-298"/>
<text text-anchor="start" x="1706.5" y="-305" font-family="Times,serif" text-decoration="underline" font-size="10.00">c70360a5&#45;f67d&#45;4773&#45;b1ad&#45;e5d596e9649d :Administrator</text>
<polygon fill="none" stroke="black" points="1703.5,-237 1703.5,-298 1946.5,-298 1946.5,-237 1703.5,-237"/>
<text text-anchor="start" x="1724.5" y="-287" font-family="Times,serif" font-size="10.00">email = &quot;admin@bank.ee&quot;</text>
<text text-anchor="start" x="1724.5" y="-276" font-family="Times,serif" font-size="10.00">firstName = &quot;Admin&quot;</text>
<text text-anchor="start" x="1724.5" y="-265" font-family="Times,serif" font-size="10.00">id = &quot;c70360a5&#45;f67d&#45;4773&#45;b1ad&#45;e5d596e9649d&quot;</text>
<text text-anchor="start" x="1724.5" y="-254" font-family="Times,serif" font-size="10.00">lastName = &quot;Alice&quot;</text>
<text text-anchor="start" x="1724.5" y="-243" font-family="Times,serif" font-size="10.00">password = &quot;secure_p@ssw0|2d&quot;</text>
</g>
<!-- b&#45;&gt;c70360a5_f67d_4773_b1ad_e5d596e9649d -->
<g id="edge7" class="edge">
<title>b&#45;&gt;c70360a5_f67d_4773_b1ad_e5d596e9649d</title>
<path fill="none" stroke="black" d="M1469.71,-365.97C1540.36,-357.27 1613.03,-345.62 1680.5,-330 1693.35,-327.03 1706.61,-323.22 1719.65,-319.02"/>
<text text-anchor="middle" x="1690.65" y="-322.02" font-family="Times,serif" font-size="10.00">administrators</text>
<text text-anchor="middle" x="1459.21" y="-357.97" font-family="Times,serif" font-size="10.00">bank</text>
</g>
<!-- e2f7bc4c_ef2a_466e_b8a5_d24f48b13afe -->
<g id="node9" class="node">
<title>e2f7bc4c_ef2a_466e_b8a5_d24f48b13afe</title>
<polygon fill="none" stroke="black" points="637.5,-154 637.5,-171 852.5,-171 852.5,-154 637.5,-154"/>
<text text-anchor="start" x="640.5" y="-161" font-family="Times,serif" text-decoration="underline" font-size="10.00">e2f7bc4c&#45;ef2a&#45;466e&#45;b8a5&#45;d24f48b13afe :Customer</text>
<polygon fill="none" stroke="black" points="637.5,-93 637.5,-154 852.5,-154 852.5,-93 637.5,-93"/>
<text text-anchor="start" x="649.5" y="-143" font-family="Times,serif" font-size="10.00">email = &quot;john@doe.ee&quot;</text>
<text text-anchor="start" x="649.5" y="-132" font-family="Times,serif" font-size="10.00">firstName = &quot;John&quot;</text>
<text text-anchor="start" x="649.5" y="-121" font-family="Times,serif" font-size="10.00">id = &quot;e2f7bc4c&#45;ef2a&#45;466e&#45;b8a5&#45;d24f48b13afe&quot;</text>
<text text-anchor="start" x="649.5" y="-110" font-family="Times,serif" font-size="10.00">lastName = &quot;Doe&quot;</text>
<text text-anchor="start" x="649.5" y="-99" font-family="Times,serif" font-size="10.00">password = &quot;pass1234&quot;</text>
</g>
<!-- b&#45;&gt;e2f7bc4c_ef2a_466e_b8a5_d24f48b13afe -->
<g id="edge8" class="edge">
<title>b&#45;&gt;e2f7bc4c_ef2a_466e_b8a5_d24f48b13afe</title>
<path fill="none" stroke="black" d="M792.31,-366C755.9,-357.3 726.74,-345.63 713.5,-330 677.03,-286.93 699.57,-218.84 720.76,-175.05"/>
<text text-anchor="middle" x="700.26" y="-178.05" font-family="Times,serif" font-size="10.00">customers</text>
<text text-anchor="middle" x="781.81" y="-358" font-family="Times,serif" font-size="10.00">bank</text>
</g>
<!-- 1eaf6f4c_4f92_4e04_bd87_c82be03265de -->
<g id="node10" class="node">
<title>1eaf6f4c_4f92_4e04_bd87_c82be03265de</title>
<polygon fill="none" stroke="black" points="191.5,-154 191.5,-171 410.5,-171 410.5,-154 191.5,-154"/>
<text text-anchor="start" x="194.5" y="-161" font-family="Times,serif" text-decoration="underline" font-size="10.00">1eaf6f4c&#45;4f92&#45;4e04&#45;bd87&#45;c82be03265de :Customer</text>
<polygon fill="none" stroke="black" points="191.5,-93 191.5,-154 410.5,-154 410.5,-93 191.5,-93"/>
<text text-anchor="start" x="203.5" y="-143" font-family="Times,serif" font-size="10.00">email = &quot;bobby@tt.ee&quot;</text>
<text text-anchor="start" x="203.5" y="-132" font-family="Times,serif" font-size="10.00">firstName = &quot;Bob&quot;</text>
<text text-anchor="start" x="203.5" y="-121" font-family="Times,serif" font-size="10.00">id = &quot;1eaf6f4c&#45;4f92&#45;4e04&#45;bd87&#45;c82be03265de&quot;</text>
<text text-anchor="start" x="203.5" y="-110" font-family="Times,serif" font-size="10.00">lastName = &quot;Jackson&quot;</text>
<text text-anchor="start" x="203.5" y="-99" font-family="Times,serif" font-size="10.00">password = &quot;secret&quot;</text>
</g>
<!-- b&#45;&gt;1eaf6f4c_4f92_4e04_bd87_c82be03265de -->
<g id="edge9" class="edge">
<title>b&#45;&gt;1eaf6f4c_4f92_4e04_bd87_c82be03265de</title>
<path fill="none" stroke="black" d="M657.24,-379.91C496.81,-371.27 346.13,-356.22 319.5,-330 279.22,-290.35 282.86,-220.31 290.61,-175.31"/>
<text text-anchor="middle" x="270.11" y="-178.31" font-family="Times,serif" font-size="10.00">customers</text>
<text text-anchor="middle" x="646.74" y="-371.91" font-family="Times,serif" font-size="10.00">bank</text>
</g>
<!-- b7953cbf_3f1a_44db_8d6a_99b7f6fc662b -->
<g id="node11" class="node">
<title>b7953cbf_3f1a_44db_8d6a_99b7f6fc662b</title>
<polygon fill="none" stroke="black" points="925.5,-154 925.5,-171 1144.5,-171 1144.5,-154 925.5,-154"/>
<text text-anchor="start" x="928.5" y="-161" font-family="Times,serif" text-decoration="underline" font-size="10.00">b7953cbf&#45;3f1a&#45;44db&#45;8d6a&#45;99b7f6fc662b :Customer</text>
<polygon fill="none" stroke="black" points="925.5,-93 925.5,-154 1144.5,-154 1144.5,-93 925.5,-93"/>
<text text-anchor="start" x="937.5" y="-143" font-family="Times,serif" font-size="10.00">email = &quot;johntest@doe.ee&quot;</text>
<text text-anchor="start" x="937.5" y="-132" font-family="Times,serif" font-size="10.00">firstName = &quot;johntest&quot;</text>
<text text-anchor="start" x="937.5" y="-121" font-family="Times,serif" font-size="10.00">id = &quot;b7953cbf&#45;3f1a&#45;44db&#45;8d6a&#45;99b7f6fc662b&quot;</text>
<text text-anchor="start" x="937.5" y="-110" font-family="Times,serif" font-size="10.00">lastName = &quot;Doe&quot;</text>
<text text-anchor="start" x="937.5" y="-99" font-family="Times,serif" font-size="10.00">password = &quot;pass1234&quot;</text>
</g>
<!-- b&#45;&gt;b7953cbf_3f1a_44db_8d6a_99b7f6fc662b -->
<g id="edge10" class="edge">
<title>b&#45;&gt;b7953cbf_3f1a_44db_8d6a_99b7f6fc662b</title>
<path fill="none" stroke="black" d="M1046.33,-365.81C1035.64,-355.94 1025.21,-343.72 1019.5,-330 998.59,-279.81 1009.33,-216.26 1020.53,-175.12"/>
<text text-anchor="middle" x="1000.03" y="-178.12" font-family="Times,serif" font-size="10.00">customers</text>
<text text-anchor="middle" x="1056.83" y="-357.81" font-family="Times,serif" font-size="10.00">bank</text>
</g>
<!-- 72f84e8d_2bee_4fd8_b719_e6d8a6a1baed -->
<g id="node12" class="node">
<title>72f84e8d_2bee_4fd8_b719_e6d8a6a1baed</title>
<polygon fill="none" stroke="black" points="1550.5,-154 1550.5,-171 1770.5,-171 1770.5,-154 1550.5,-154"/>
<text text-anchor="start" x="1553.5" y="-161" font-family="Times,serif" text-decoration="underline" font-size="10.00">72f84e8d&#45;2bee&#45;4fd8&#45;b719&#45;e6d8a6a1baed :Customer</text>
<polygon fill="none" stroke="black" points="1550.5,-93 1550.5,-154 1770.5,-154 1770.5,-93 1550.5,-93"/>
<text text-anchor="start" x="1562.5" y="-143" font-family="Times,serif" font-size="10.00">email = &quot;bobbytest@tt.ee&quot;</text>
<text text-anchor="start" x="1562.5" y="-132" font-family="Times,serif" font-size="10.00">firstName = &quot;Bob&quot;</text>
<text text-anchor="start" x="1562.5" y="-121" font-family="Times,serif" font-size="10.00">id = &quot;72f84e8d&#45;2bee&#45;4fd8&#45;b719&#45;e6d8a6a1baed&quot;</text>
<text text-anchor="start" x="1562.5" y="-110" font-family="Times,serif" font-size="10.00">lastName = &quot;Jackson&quot;</text>
<text text-anchor="start" x="1562.5" y="-99" font-family="Times,serif" font-size="10.00">password = &quot;secret&quot;</text>
</g>
<!-- b&#45;&gt;72f84e8d_2bee_4fd8_b719_e6d8a6a1baed -->
<g id="edge11" class="edge">
<title>b&#45;&gt;72f84e8d_2bee_4fd8_b719_e6d8a6a1baed</title>
<path fill="none" stroke="black" d="M1482.26,-365.97C1565.17,-356.88 1632,-345.06 1646.5,-330 1685.51,-289.5 1680.28,-220.04 1671.49,-175.35"/>
<text text-anchor="middle" x="1650.99" y="-178.35" font-family="Times,serif" font-size="10.00">customers</text>
<text text-anchor="middle" x="1492.76" y="-357.97" font-family="Times,serif" font-size="10.00">bank</text>
</g>
<!-- t -->
<g id="node13" class="node">
<title>t</title>
<polygon fill="none" stroke="black" points="1981.5,-270 1981.5,-287 2018.5,-287 2018.5,-270 1981.5,-270"/>
<text text-anchor="start" x="1984.5" y="-277" font-family="Times,serif" text-decoration="underline" font-size="10.00">t :Trace</text>
<polygon fill="none" stroke="black" points="1981.5,-264 1981.5,-270 2018.5,-270 2018.5,-264 1981.5,-264"/>
</g>
<!-- b&#45;&gt;t -->
<g id="edge12" class="edge">
<title>b&#45;&gt;t</title>
<path fill="none" stroke="black" d="M1505.66,-378.18C1710.42,-368.79 1920.88,-353.59 1962.5,-330 1976.46,-322.09 1986.37,-306.48 1992.4,-294.24"/>
<text text-anchor="middle" x="1980.4" y="-297.24" font-family="Times,serif" font-size="10.00">traces</text>
</g>
<!-- t2 -->
<g id="node14" class="node">
<title>t2</title>
<polygon fill="none" stroke="black" points="2053.5,-270 2053.5,-287 2096.5,-287 2096.5,-270 2053.5,-270"/>
<text text-anchor="start" x="2056.5" y="-277" font-family="Times,serif" text-decoration="underline" font-size="10.00">t2 :Trace</text>
<polygon fill="none" stroke="black" points="2053.5,-264 2053.5,-270 2096.5,-270 2096.5,-264 2053.5,-264"/>
</g>
<!-- b&#45;&gt;t2 -->
<g id="edge13" class="edge">
<title>b&#45;&gt;t2</title>
<path fill="none" stroke="black" d="M1505.64,-380.56C1737.69,-371.66 1987.67,-356.15 2035.5,-330 2049.93,-322.11 2060.47,-306.32 2066.93,-294.03"/>
<text text-anchor="middle" x="2054.93" y="-297.03" font-family="Times,serif" font-size="10.00">traces</text>
</g>
<!-- dccd5a11_8a09_4add_8962_2f721a287bfb -->
<g id="node15" class="node">
<title>dccd5a11_8a09_4add_8962_2f721a287bfb</title>
<polygon fill="none" stroke="black" points="1216.5,-154 1216.5,-171 1466.5,-171 1466.5,-154 1216.5,-154"/>
<text text-anchor="start" x="1230" y="-161" font-family="Times,serif" text-decoration="underline" font-size="10.00">dccd5a11&#45;8a09&#45;4add&#45;8962&#45;2f721a287bfb :Transaction</text>
<polygon fill="none" stroke="black" points="1216.5,-93 1216.5,-154 1466.5,-154 1466.5,-93 1216.5,-93"/>
<text text-anchor="start" x="1219.5" y="-143" font-family="Times,serif" font-size="10.00">amount = 50.0</text>
<text text-anchor="start" x="1219.5" y="-132" font-family="Times,serif" font-size="10.00">description = &quot;Ref: concert ticket&quot;</text>
<text text-anchor="start" x="1219.5" y="-121" font-family="Times,serif" font-size="10.00">id = &quot;dccd5a11&#45;8a09&#45;4add&#45;8962&#45;2f721a287bfb&quot;</text>
<text text-anchor="start" x="1219.5" y="-110" font-family="Times,serif" font-size="10.00">rejectionDescription = &quot;Made a mistake in the sent amount&quot;</text>
<text text-anchor="start" x="1219.5" y="-99" font-family="Times,serif" font-size="10.00">timestamp = 2021&#45;12&#45;04T18:01:05.258332510</text>
</g>
<!-- b&#45;&gt;dccd5a11_8a09_4add_8962_2f721a287bfb -->
<g id="edge14" class="edge">
<title>b&#45;&gt;dccd5a11_8a09_4add_8962_2f721a287bfb</title>
<path fill="none" stroke="black" d="M1219.24,-365.93C1257.19,-356.26 1291.52,-344.11 1304.5,-330 1324.82,-307.91 1334.56,-226.14 1338.74,-175.15"/>
<text text-anchor="middle" x="1314.24" y="-178.15" font-family="Times,serif" font-size="10.00">transactions</text>
<text text-anchor="middle" x="1208.74" y="-357.93" font-family="Times,serif" font-size="10.00">bank</text>
</g>
<!-- c -->
<g id="node16" class="node">
<title>c</title>
<polygon fill="none" stroke="black" points="806.5,-21 806.5,-38 970.5,-38 970.5,-21 806.5,-21"/>
<text text-anchor="start" x="864.5" y="-28" font-family="Times,serif" text-decoration="underline" font-size="10.00">c :Currency</text>
<polygon fill="none" stroke="black" points="806.5,-4 806.5,-21 970.5,-21 970.5,-4 806.5,-4"/>
<text text-anchor="start" x="809.5" y="-10" font-family="Times,serif" font-size="10.00">declaringClass = class model.Currency</text>
</g>
<!-- sendItToTheBank&#45;&gt;c -->
<g id="edge15" class="edge">
<title>sendItToTheBank&#45;&gt;c</title>
<path fill="none" stroke="black" d="M165.12,-80.9C167.91,-79.84 170.71,-78.87 173.5,-78 287.67,-42.34 633.18,-28.66 798.5,-24.06"/>
<text text-anchor="middle" x="780.5" y="-16.06" font-family="Times,serif" font-size="10.00">currency</text>
</g>
<!-- sendItToTheBank1&#45;&gt;c -->
<g id="edge16" class="edge">
<title>sendItToTheBank1&#45;&gt;c</title>
<path fill="none" stroke="black" d="M610.55,-82.17C613.53,-80.68 616.52,-79.28 619.5,-78 676.41,-53.67 744.73,-39.61 798.28,-31.67"/>
<text text-anchor="middle" x="780.28" y="-34.67" font-family="Times,serif" font-size="10.00">currency</text>
</g>
<!-- 8a633aa5_907c_4e57_a313_22e0adb2672e&#45;&gt;1eaf6f4c_4f92_4e04_bd87_c82be03265de -->
<g id="edge18" class="edge">
<title>8a633aa5_907c_4e57_a313_22e0adb2672e&#45;&gt;1eaf6f4c_4f92_4e04_bd87_c82be03265de</title>
<path fill="none" stroke="black" d="M397.34,-221.72C380.51,-206.3 362.37,-189.68 346.39,-175.04"/>
<text text-anchor="middle" x="333.39" y="-178.04" font-family="Times,serif" font-size="10.00">owner</text>
<text text-anchor="middle" x="380.84" y="-213.72" font-family="Times,serif" font-size="10.00">account</text>
</g>
<!-- 8a633aa5_907c_4e57_a313_22e0adb2672e&#45;&gt;c -->
<g id="edge17" class="edge">
<title>8a633aa5_907c_4e57_a313_22e0adb2672e&#45;&gt;c</title>
<path fill="none" stroke="black" d="M441.47,-221.95C433.26,-177.72 430.44,-116.01 465.5,-78 487.69,-53.94 680.88,-36.41 798.37,-27.86"/>
<text text-anchor="middle" x="780.37" y="-30.86" font-family="Times,serif" font-size="10.00">currency</text>
</g>
<!-- 7ec351d6_652f_4691_8e72_ea432d44a0c8&#45;&gt;e2f7bc4c_ef2a_466e_b8a5_d24f48b13afe -->
<g id="edge20" class="edge">
<title>7ec351d6_652f_4691_8e72_ea432d44a0c8&#45;&gt;e2f7bc4c_ef2a_466e_b8a5_d24f48b13afe</title>
<path fill="none" stroke="black" d="M808.85,-221.72C797.67,-206.3 785.61,-189.68 775,-175.04"/>
<text text-anchor="middle" x="762" y="-178.04" font-family="Times,serif" font-size="10.00">owner</text>
<text text-anchor="middle" x="792.35" y="-213.72" font-family="Times,serif" font-size="10.00">account</text>
</g>
<!-- 7ec351d6_652f_4691_8e72_ea432d44a0c8&#45;&gt;c -->
<g id="edge19" class="edge">
<title>7ec351d6_652f_4691_8e72_ea432d44a0c8&#45;&gt;c</title>
<path fill="none" stroke="black" d="M861.12,-221.55C863.81,-209.88 866.44,-197.57 868.5,-186 877.69,-134.47 883.94,-73.06 886.77,-42.05"/>
<text text-anchor="middle" x="868.77" y="-45.05" font-family="Times,serif" font-size="10.00">currency</text>
</g>
<!-- 22d56f17_41d0_4f76_8575_daed1a022795&#45;&gt;b7953cbf_3f1a_44db_8d6a_99b7f6fc662b -->
<g id="edge23" class="edge">
<title>22d56f17_41d0_4f76_8575_daed1a022795&#45;&gt;b7953cbf_3f1a_44db_8d6a_99b7f6fc662b</title>
<path fill="none" stroke="black" d="M1114.47,-221.72C1100.57,-206.3 1085.59,-189.68 1072.4,-175.04"/>
<text text-anchor="middle" x="1059.4" y="-178.04" font-family="Times,serif" font-size="10.00">owner</text>
<text text-anchor="middle" x="1097.97" y="-213.72" font-family="Times,serif" font-size="10.00">account</text>
</g>
<!-- 22d56f17_41d0_4f76_8575_daed1a022795&#45;&gt;dccd5a11_8a09_4add_8962_2f721a287bfb -->
<g id="edge21" class="edge">
<title>22d56f17_41d0_4f76_8575_daed1a022795&#45;&gt;dccd5a11_8a09_4add_8962_2f721a287bfb</title>
<path fill="none" stroke="black" d="M1229.41,-221.92C1248.87,-206.48 1269.86,-189.83 1288.35,-175.16"/>
<text text-anchor="middle" x="1230.35" y="-178.16" font-family="Times,serif" font-size="10.00">allTransactionsOrderedDesc</text>
<text text-anchor="middle" x="1215.91" y="-213.92" font-family="Times,serif" font-size="10.00">source</text>
</g>
<!-- 22d56f17_41d0_4f76_8575_daed1a022795&#45;&gt;c -->
<g id="edge22" class="edge">
<title>22d56f17_41d0_4f76_8575_daed1a022795&#45;&gt;c</title>
<path fill="none" stroke="black" d="M1178.63,-221.58C1188.23,-178.03 1193.01,-117.47 1160.5,-78 1137.59,-50.18 1048.68,-35.76 978.66,-28.57"/>
<text text-anchor="middle" x="996.66" y="-20.57" font-family="Times,serif" font-size="10.00">currency</text>
</g>
<!-- 657bd0ef_d7d9_4cfc_9c2d_09ae9814f4b7&#45;&gt;72f84e8d_2bee_4fd8_b719_e6d8a6a1baed -->
<g id="edge26" class="edge">
<title>657bd0ef_d7d9_4cfc_9c2d_09ae9814f4b7&#45;&gt;72f84e8d_2bee_4fd8_b719_e6d8a6a1baed</title>
<path fill="none" stroke="black" d="M1557.41,-221.72C1575.33,-206.3 1594.64,-189.68 1611.65,-175.04"/>
<text text-anchor="middle" x="1598.65" y="-178.04" font-family="Times,serif" font-size="10.00">owner</text>
<text text-anchor="middle" x="1540.91" y="-213.72" font-family="Times,serif" font-size="10.00">account</text>
</g>
<!-- 657bd0ef_d7d9_4cfc_9c2d_09ae9814f4b7&#45;&gt;dccd5a11_8a09_4add_8962_2f721a287bfb -->
<g id="edge24" class="edge">
<title>657bd0ef_d7d9_4cfc_9c2d_09ae9814f4b7&#45;&gt;dccd5a11_8a09_4add_8962_2f721a287bfb</title>
<path fill="none" stroke="black" d="M1437.72,-221.72C1420.99,-206.3 1402.97,-189.68 1387.1,-175.04"/>
<text text-anchor="middle" x="1445.1" y="-178.04" font-family="Times,serif" font-size="10.00">allTransactionsOrderedDesc</text>
<text text-anchor="middle" x="1414.72" y="-213.72" font-family="Times,serif" font-size="10.00">destination</text>
</g>
<!-- 657bd0ef_d7d9_4cfc_9c2d_09ae9814f4b7&#45;&gt;c -->
<g id="edge25" class="edge">
<title>657bd0ef_d7d9_4cfc_9c2d_09ae9814f4b7&#45;&gt;c</title>
<path fill="none" stroke="black" d="M1509.18,-221.97C1517.17,-177.45 1519.6,-115.31 1483.5,-78 1466.2,-60.12 1140.58,-37.58 978.54,-27.41"/>
<text text-anchor="middle" x="996.54" y="-30.41" font-family="Times,serif" font-size="10.00">currency</text>
</g>
<!-- dccd5a11_8a09_4add_8962_2f721a287bfb&#45;&gt;c -->
<g id="edge27" class="edge">
<title>dccd5a11_8a09_4add_8962_2f721a287bfb&#45;&gt;c</title>
<path fill="none" stroke="black" d="M1230.95,-88.95C1218.74,-84.96 1206.42,-81.22 1194.5,-78 1122.93,-58.69 1040.15,-43.99 978.75,-34.51"/>
<text text-anchor="middle" x="996.75" y="-37.51" font-family="Times,serif" font-size="10.00">currency</text>
</g>
<!-- s -->
<g id="node17" class="node">
<title>s</title>
<polygon fill="none" stroke="black" points="1239.5,-21 1239.5,-38 1444.5,-38 1444.5,-21 1239.5,-21"/>
<text text-anchor="start" x="1325" y="-28" font-family="Times,serif" text-decoration="underline" font-size="10.00">s :Status</text>
<polygon fill="none" stroke="black" points="1239.5,-4 1239.5,-21 1444.5,-21 1444.5,-4 1239.5,-4"/>
<text text-anchor="start" x="1242.5" y="-10" font-family="Times,serif" font-size="10.00">declaringClass = class model.Transaction$Status</text>
</g>
<!-- dccd5a11_8a09_4add_8962_2f721a287bfb&#45;&gt;s -->
<g id="edge28" class="edge">
<title>dccd5a11_8a09_4add_8962_2f721a287bfb&#45;&gt;s</title>
<path fill="none" stroke="black" d="M1341.5,-88.86C1341.5,-72.8 1341.5,-55.24 1341.5,-42.14"/>
<text text-anchor="middle" x="1329.5" y="-45.14" font-family="Times,serif" font-size="10.00">status</text>
</g>
</g>
</svg>
