<?xml version="1.0" encoding="UTF-8" standalone="no"?>
<!DOCTYPE svg PUBLIC "-//W3C//DTD SVG 1.1//EN"
 "http://www.w3.org/Graphics/SVG/1.1/DTD/svg11.dtd">
<!-- Generated by graphviz version 2.43.0 (0)
 -->
<!-- Pages: 1 -->
<svg width="1120px" height="416px"
 viewBox="0.00 0.00 1119.96 416.00" xmlns="http://www.w3.org/2000/svg" xmlns:xlink="http://www.w3.org/1999/xlink">
<g id="graph0" class="graph" transform="scale(1.0 1.0) rotate(0) translate(4 412)">
<polygon fill="white" stroke="transparent" points="-4,4 -4,-412 1115.96,-412 1115.96,4 -4,4"/>
<!-- b1199466_be04_4378_93b1_932e19a308b0 -->
<g id="node1" class="node">
<title>b1199466_be04_4378_93b1_932e19a308b0</title>
<polygon fill="none" stroke="black" points="418.46,-387 418.46,-404 654.46,-404 654.46,-387 418.46,-387"/>
<text text-anchor="start" x="421.46" y="-394" font-family="Times,serif" text-decoration="underline" font-size="10.00">b1199466&#45;be04&#45;4378&#45;93b1&#45;932e19a308b0 :Transaction</text>
<polygon fill="none" stroke="black" points="418.46,-326 418.46,-387 654.46,-387 654.46,-326 418.46,-326"/>
<text text-anchor="start" x="434.96" y="-376" font-family="Times,serif" font-size="10.00">amount = 20.0</text>
<text text-anchor="start" x="434.96" y="-365" font-family="Times,serif" font-size="10.00">description = &quot;Transaction test&quot;</text>
<text text-anchor="start" x="434.96" y="-354" font-family="Times,serif" font-size="10.00">id = &quot;b1199466&#45;be04&#45;4378&#45;93b1&#45;932e19a308b0&quot;</text>
<text text-anchor="start" x="434.96" y="-343" font-family="Times,serif" font-size="10.00">rejectionDescription = &quot;&quot;</text>
<text text-anchor="start" x="434.96" y="-332" font-family="Times,serif" font-size="10.00">timestamp = 2021&#45;11&#45;29T02:40:05.690064181</text>
</g>
<!-- b -->
<g id="node2" class="node">
<title>b</title>
<polygon fill="none" stroke="black" points="517.46,-259 517.46,-276 556.46,-276 556.46,-259 517.46,-259"/>
<text text-anchor="start" x="520.46" y="-266" font-family="Times,serif" text-decoration="underline" font-size="10.00">b :Bank</text>
<polygon fill="none" stroke="black" points="517.46,-253 517.46,-259 556.46,-259 556.46,-253 517.46,-253"/>
</g>
<!-- b1199466_be04_4378_93b1_932e19a308b0&#45;&gt;b -->
<g id="edge1" class="edge">
<title>b1199466_be04_4378_93b1_932e19a308b0&#45;&gt;b</title>
<path fill="none" stroke="black" d="M536.46,-321.87C536.46,-308.38 536.46,-294.19 536.46,-283.48"/>
<text text-anchor="middle" x="525.96" y="-286.48" font-family="Times,serif" font-size="10.00">bank</text>
</g>
<!-- c -->
<g id="node3" class="node">
<title>c</title>
<polygon fill="none" stroke="black" points="121.46,-43 121.46,-60 257.46,-60 257.46,-43 121.46,-43"/>
<text text-anchor="start" x="165.46" y="-50" font-family="Times,serif" text-decoration="underline" font-size="10.00">c :Currency</text>
<polygon fill="none" stroke="black" points="121.46,-26 121.46,-43 257.46,-43 257.46,-26 121.46,-26"/>
<text text-anchor="start" x="124.46" y="-32" font-family="Times,serif" font-size="10.00">declaringClass = class Currency</text>
</g>
<!-- b1199466_be04_4378_93b1_932e19a308b0&#45;&gt;c -->
<g id="edge2" class="edge">
<title>b1199466_be04_4378_93b1_932e19a308b0&#45;&gt;c</title>
<path fill="none" stroke="black" d="M410.2,-343.72C271.97,-318.64 63.62,-271.38 16.46,-208 -6.35,-177.33 -4.28,-154.1 16.46,-122 37.92,-88.79 77.27,-69.58 113.03,-58.54"/>
<text text-anchor="middle" x="95.03" y="-61.54" font-family="Times,serif" font-size="10.00">currency</text>
</g>
<!-- e743e946_234a_4e1b_87db_05cc2d8a857a -->
<g id="node4" class="node">
<title>e743e946_234a_4e1b_87db_05cc2d8a857a</title>
<polygon fill="none" stroke="black" points="34.46,-176 34.46,-193 255.46,-193 255.46,-176 34.46,-176"/>
<text text-anchor="start" x="37.46" y="-183" font-family="Times,serif" text-decoration="underline" font-size="10.00">e743e946&#45;234a&#45;4e1b&#45;87db&#45;05cc2d8a857a :Account</text>
<polygon fill="none" stroke="black" points="34.46,-137 34.46,-176 255.46,-176 255.46,-137 34.46,-137"/>
<text text-anchor="start" x="44.46" y="-165" font-family="Times,serif" font-size="10.00">balance = 20.0</text>
<text text-anchor="start" x="44.46" y="-154" font-family="Times,serif" font-size="10.00">id = &quot;e743e946&#45;234a&#45;4e1b&#45;87db&#45;05cc2d8a857a&quot;</text>
<text text-anchor="start" x="44.46" y="-143" font-family="Times,serif" font-size="10.00">status = &quot;ACTIVE&quot;</text>
</g>
<!-- b1199466_be04_4378_93b1_932e19a308b0&#45;&gt;e743e946_234a_4e1b_87db_05cc2d8a857a -->
<g id="edge3" class="edge">
<title>b1199466_be04_4378_93b1_932e19a308b0&#45;&gt;e743e946_234a_4e1b_87db_05cc2d8a857a</title>
<path fill="none" stroke="black" d="M452.85,-321.77C378.87,-284.4 272.63,-230.74 206.14,-197.15"/>
<text text-anchor="middle" x="183.14" y="-200.15" font-family="Times,serif" font-size="10.00">destination</text>
</g>
<!-- 45116baf_7807_4383_ae54_b34a4e25f77c -->
<g id="node5" class="node">
<title>45116baf_7807_4383_ae54_b34a4e25f77c</title>
<polygon fill="none" stroke="black" points="887.46,-176 887.46,-193 1104.46,-193 1104.46,-176 887.46,-176"/>
<text text-anchor="start" x="890.46" y="-183" font-family="Times,serif" text-decoration="underline" font-size="10.00">45116baf&#45;7807&#45;4383&#45;ae54&#45;b34a4e25f77c :Account</text>
<polygon fill="none" stroke="black" points="887.46,-137 887.46,-176 1104.46,-176 1104.46,-137 887.46,-137"/>
<text text-anchor="start" x="897.96" y="-165" font-family="Times,serif" font-size="10.00">balance = 1.0</text>
<text text-anchor="start" x="897.96" y="-154" font-family="Times,serif" font-size="10.00">id = &quot;45116baf&#45;7807&#45;4383&#45;ae54&#45;b34a4e25f77c&quot;</text>
<text text-anchor="start" x="897.96" y="-143" font-family="Times,serif" font-size="10.00">status = &quot;ACTIVE&quot;</text>
</g>
<!-- b1199466_be04_4378_93b1_932e19a308b0&#45;&gt;45116baf_7807_4383_ae54_b34a4e25f77c -->
<g id="edge4" class="edge">
<title>b1199466_be04_4378_93b1_932e19a308b0&#45;&gt;45116baf_7807_4383_ae54_b34a4e25f77c</title>
<path fill="none" stroke="black" d="M558.13,-321.99C574.75,-291.43 597.35,-253.78 612.46,-244 707.47,-182.56 754.21,-233.36 864.46,-208 877.85,-204.92 891.83,-201.11 905.46,-197.04"/>
<text text-anchor="middle" x="891.96" y="-200.04" font-family="Times,serif" font-size="10.00">source</text>
</g>
<!-- s -->
<g id="node6" class="node">
<title>s</title>
<polygon fill="none" stroke="black" points="629.46,-265 629.46,-282 806.46,-282 806.46,-265 629.46,-265"/>
<text text-anchor="start" x="700.96" y="-272" font-family="Times,serif" text-decoration="underline" font-size="10.00">s :Status</text>
<polygon fill="none" stroke="black" points="629.46,-248 629.46,-265 806.46,-265 806.46,-248 629.46,-248"/>
<text text-anchor="start" x="632.46" y="-254" font-family="Times,serif" font-size="10.00">declaringClass = class Transaction$Status</text>
</g>
<!-- b1199466_be04_4378_93b1_932e19a308b0&#45;&gt;s -->
<g id="edge5" class="edge">
<title>b1199466_be04_4378_93b1_932e19a308b0&#45;&gt;s</title>
<path fill="none" stroke="black" d="M614.27,-321.87C637.27,-309.42 661.38,-296.37 680.51,-286.01"/>
<text text-anchor="middle" x="668.51" y="-289.01" font-family="Times,serif" font-size="10.00">status</text>
</g>
<!-- b&#45;&gt;e743e946_234a_4e1b_87db_05cc2d8a857a -->
<g id="edge8" class="edge">
<title>b&#45;&gt;e743e946_234a_4e1b_87db_05cc2d8a857a</title>
<path fill="none" stroke="black" d="M508.76,-259.19C460.27,-250.55 357.04,-231.11 271.46,-208 259.36,-204.73 246.71,-200.97 234.28,-197.07"/>
<text text-anchor="middle" x="252.78" y="-200.07" font-family="Times,serif" font-size="10.00">accounts</text>
<text text-anchor="middle" x="498.26" y="-262.19" font-family="Times,serif" font-size="10.00">bank</text>
</g>
<!-- b&#45;&gt;45116baf_7807_4383_ae54_b34a4e25f77c -->
<g id="edge7" class="edge">
<title>b&#45;&gt;45116baf_7807_4383_ae54_b34a4e25f77c</title>
<path fill="none" stroke="black" d="M563.99,-249.38C568.72,-247.31 573.66,-245.41 578.46,-244 701.42,-208 739.37,-235.68 864.46,-208 878.11,-204.98 892.35,-201.15 906.22,-197.03"/>
<text text-anchor="middle" x="924.72" y="-200.03" font-family="Times,serif" font-size="10.00">accounts</text>
<text text-anchor="middle" x="574.49" y="-241.38" font-family="Times,serif" font-size="10.00">bank</text>
</g>
<!-- 61e3fe2d_dff4_44ff_8e74_5bdb37f54d39 -->
<g id="node7" class="node">
<title>61e3fe2d_dff4_44ff_8e74_5bdb37f54d39</title>
<polygon fill="none" stroke="black" points="289.46,-176 289.46,-193 500.46,-193 500.46,-176 289.46,-176"/>
<text text-anchor="start" x="292.46" y="-183" font-family="Times,serif" text-decoration="underline" font-size="10.00">61e3fe2d&#45;dff4&#45;44ff&#45;8e74&#45;5bdb37f54d39 :Account</text>
<polygon fill="none" stroke="black" points="289.46,-137 289.46,-176 500.46,-176 500.46,-137 289.46,-137"/>
<text text-anchor="start" x="299.46" y="-165" font-family="Times,serif" font-size="10.00">balance = 69420.0</text>
<text text-anchor="start" x="299.46" y="-154" font-family="Times,serif" font-size="10.00">id = &quot;61e3fe2d&#45;dff4&#45;44ff&#45;8e74&#45;5bdb37f54d39&quot;</text>
<text text-anchor="start" x="299.46" y="-143" font-family="Times,serif" font-size="10.00">status = &quot;ACTIVE&quot;</text>
</g>
<!-- b&#45;&gt;61e3fe2d_dff4_44ff_8e74_5bdb37f54d39 -->
<g id="edge6" class="edge">
<title>b&#45;&gt;61e3fe2d_dff4_44ff_8e74_5bdb37f54d39</title>
<path fill="none" stroke="black" d="M511.73,-246.93C491.86,-233.22 463.44,-213.6 439.55,-197.12"/>
<text text-anchor="middle" x="411.55" y="-200.12" font-family="Times,serif" font-size="10.00">bankAccount</text>
<text text-anchor="middle" x="501.23" y="-238.93" font-family="Times,serif" font-size="10.00">bank</text>
</g>
<!-- c9b968c1_9ec2_4826_8d41_389d5cc981f0 -->
<g id="node8" class="node">
<title>c9b968c1_9ec2_4826_8d41_389d5cc981f0</title>
<polygon fill="none" stroke="black" points="572.46,-187 572.46,-204 814.46,-204 814.46,-187 572.46,-187"/>
<text text-anchor="start" x="575.46" y="-194" font-family="Times,serif" text-decoration="underline" font-size="10.00">c9b968c1&#45;9ec2&#45;4826&#45;8d41&#45;389d5cc981f0 :Administrator</text>
<polygon fill="none" stroke="black" points="572.46,-126 572.46,-187 814.46,-187 814.46,-126 572.46,-126"/>
<text text-anchor="start" x="593.46" y="-176" font-family="Times,serif" font-size="10.00">email = &quot;admin@bank.ee&quot;</text>
<text text-anchor="start" x="593.46" y="-165" font-family="Times,serif" font-size="10.00">firstName = &quot;Admin&quot;</text>
<text text-anchor="start" x="593.46" y="-154" font-family="Times,serif" font-size="10.00">id = &quot;c9b968c1&#45;9ec2&#45;4826&#45;8d41&#45;389d5cc981f0&quot;</text>
<text text-anchor="start" x="593.46" y="-143" font-family="Times,serif" font-size="10.00">lastName = &quot;ALice&quot;</text>
<text text-anchor="start" x="593.46" y="-132" font-family="Times,serif" font-size="10.00">password = &quot;secure_p@ssw0|2d&quot;</text>
</g>
<!-- b&#45;&gt;c9b968c1_9ec2_4826_8d41_389d5cc981f0 -->
<g id="edge9" class="edge">
<title>b&#45;&gt;c9b968c1_9ec2_4826_8d41_389d5cc981f0</title>
<path fill="none" stroke="black" d="M563.81,-246.93C581.03,-236.18 604.07,-221.8 625.94,-208.15"/>
<text text-anchor="middle" x="596.94" y="-211.15" font-family="Times,serif" font-size="10.00">administrators</text>
<text text-anchor="middle" x="553.31" y="-238.93" font-family="Times,serif" font-size="10.00">bank</text>
</g>
<!-- 382a2784_56aa_4eab_bf0a_19f54c8040e2 -->
<g id="node9" class="node">
<title>382a2784_56aa_4eab_bf0a_19f54c8040e2</title>
<polygon fill="none" stroke="black" points="812.46,-65 812.46,-82 1032.46,-82 1032.46,-65 812.46,-65"/>
<text text-anchor="start" x="815.46" y="-72" font-family="Times,serif" text-decoration="underline" font-size="10.00">382a2784&#45;56aa&#45;4eab&#45;bf0a&#45;19f54c8040e2 :Customer</text>
<polygon fill="none" stroke="black" points="812.46,-4 812.46,-65 1032.46,-65 1032.46,-4 812.46,-4"/>
<text text-anchor="start" x="824.46" y="-54" font-family="Times,serif" font-size="10.00">email = &quot;bobby@tt.ee&quot;</text>
<text text-anchor="start" x="824.46" y="-43" font-family="Times,serif" font-size="10.00">firstName = &quot;Bob&quot;</text>
<text text-anchor="start" x="824.46" y="-32" font-family="Times,serif" font-size="10.00">id = &quot;382a2784&#45;56aa&#45;4eab&#45;bf0a&#45;19f54c8040e2&quot;</text>
<text text-anchor="start" x="824.46" y="-21" font-family="Times,serif" font-size="10.00">lastName = &quot;Jackson&quot;</text>
<text text-anchor="start" x="824.46" y="-10" font-family="Times,serif" font-size="10.00">password = &quot;secret&quot;</text>
</g>
<!-- b&#45;&gt;382a2784_56aa_4eab_bf0a_19f54c8040e2 -->
<g id="edge10" class="edge">
<title>b&#45;&gt;382a2784_56aa_4eab_bf0a_19f54c8040e2</title>
<path fill="none" stroke="black" d="M564.01,-249.44C568.73,-247.36 573.67,-245.45 578.46,-244 687.2,-211.21 740.58,-276.12 831.46,-208 865.05,-182.83 850.09,-158.69 870.46,-122 877.1,-110.05 884.98,-97.54 892.57,-86.13"/>
<text text-anchor="middle" x="872.07" y="-89.13" font-family="Times,serif" font-size="10.00">customers</text>
<text text-anchor="middle" x="574.51" y="-252.44" font-family="Times,serif" font-size="10.00">bank</text>
</g>
<!-- b5f8a4bd_b712_4ca9_83c1_4e5099167500 -->
<g id="node10" class="node">
<title>b5f8a4bd_b712_4ca9_83c1_4e5099167500</title>
<polygon fill="none" stroke="black" points="336.46,-65 336.46,-82 561.46,-82 561.46,-65 336.46,-65"/>
<text text-anchor="start" x="339.46" y="-72" font-family="Times,serif" text-decoration="underline" font-size="10.00">b5f8a4bd&#45;b712&#45;4ca9&#45;83c1&#45;4e5099167500 :Customer</text>
<polygon fill="none" stroke="black" points="336.46,-4 336.46,-65 561.46,-65 561.46,-4 336.46,-4"/>
<text text-anchor="start" x="348.46" y="-54" font-family="Times,serif" font-size="10.00">email = &quot;john@doe.ee&quot;</text>
<text text-anchor="start" x="348.46" y="-43" font-family="Times,serif" font-size="10.00">firstName = &quot;John&quot;</text>
<text text-anchor="start" x="348.46" y="-32" font-family="Times,serif" font-size="10.00">id = &quot;b5f8a4bd&#45;b712&#45;4ca9&#45;83c1&#45;4e5099167500&quot;</text>
<text text-anchor="start" x="348.46" y="-21" font-family="Times,serif" font-size="10.00">lastName = &quot;Doe&quot;</text>
<text text-anchor="start" x="348.46" y="-10" font-family="Times,serif" font-size="10.00">password = &quot;pass1234&quot;</text>
</g>
<!-- b&#45;&gt;b5f8a4bd_b712_4ca9_83c1_4e5099167500 -->
<g id="edge11" class="edge">
<title>b&#45;&gt;b5f8a4bd_b712_4ca9_83c1_4e5099167500</title>
<path fill="none" stroke="black" d="M537.3,-246.95C537.99,-219.37 536.59,-163.85 517.46,-122 511.6,-109.17 502.91,-96.92 493.65,-86.09"/>
<text text-anchor="middle" x="473.15" y="-89.09" font-family="Times,serif" font-size="10.00">customers</text>
<text text-anchor="middle" x="526.8" y="-238.95" font-family="Times,serif" font-size="10.00">bank</text>
</g>
<!-- e743e946_234a_4e1b_87db_05cc2d8a857a&#45;&gt;c -->
<g id="edge12" class="edge">
<title>e743e946_234a_4e1b_87db_05cc2d8a857a&#45;&gt;c</title>
<path fill="none" stroke="black" d="M156.17,-132.78C164.29,-111.12 174.88,-82.89 181.91,-64.14"/>
<text text-anchor="middle" x="163.91" y="-67.14" font-family="Times,serif" font-size="10.00">currency</text>
</g>
<!-- e743e946_234a_4e1b_87db_05cc2d8a857a&#45;&gt;b5f8a4bd_b712_4ca9_83c1_4e5099167500 -->
<g id="edge13" class="edge">
<title>e743e946_234a_4e1b_87db_05cc2d8a857a&#45;&gt;b5f8a4bd_b712_4ca9_83c1_4e5099167500</title>
<path fill="none" stroke="black" d="M223.15,-132.94C259.39,-118.64 302.94,-101.44 342.05,-86"/>
<text text-anchor="middle" x="329.05" y="-89" font-family="Times,serif" font-size="10.00">owner</text>
<text text-anchor="middle" x="206.65" y="-124.94" font-family="Times,serif" font-size="10.00">account</text>
</g>
<!-- 45116baf_7807_4383_ae54_b34a4e25f77c&#45;&gt;c -->
<g id="edge14" class="edge">
<title>45116baf_7807_4383_ae54_b34a4e25f77c&#45;&gt;c</title>
<path fill="none" stroke="black" d="M885.32,-132.9C867.43,-128.68 849.02,-124.84 831.46,-122 606.28,-85.55 543.42,-129.38 319.46,-86 293.27,-80.93 264.99,-72.2 241.52,-64.01"/>
<text text-anchor="middle" x="259.52" y="-67.01" font-family="Times,serif" font-size="10.00">currency</text>
</g>
<!-- 45116baf_7807_4383_ae54_b34a4e25f77c&#45;&gt;382a2784_56aa_4eab_bf0a_19f54c8040e2 -->
<g id="edge15" class="edge">
<title>45116baf_7807_4383_ae54_b34a4e25f77c&#45;&gt;382a2784_56aa_4eab_bf0a_19f54c8040e2</title>
<path fill="none" stroke="black" d="M976.47,-132.78C967.86,-118.62 957.53,-101.65 948.23,-86.35"/>
<text text-anchor="middle" x="935.23" y="-89.35" font-family="Times,serif" font-size="10.00">owner</text>
<text text-anchor="middle" x="959.97" y="-124.78" font-family="Times,serif" font-size="10.00">account</text>
</g>
<!-- 61e3fe2d_dff4_44ff_8e74_5bdb37f54d39&#45;&gt;c -->
<g id="edge16" class="edge">
<title>61e3fe2d_dff4_44ff_8e74_5bdb37f54d39&#45;&gt;c</title>
<path fill="none" stroke="black" d="M341.4,-132.94C304.27,-111.2 255.76,-82.81 223.65,-64.01"/>
<text text-anchor="middle" x="205.65" y="-67.01" font-family="Times,serif" font-size="10.00">currency</text>
</g>
</g>
</svg>
