<?xml version="1.0" encoding="UTF-8" standalone="no"?>
<!DOCTYPE svg PUBLIC "-//W3C//DTD SVG 1.1//EN"
 "http://www.w3.org/Graphics/SVG/1.1/DTD/svg11.dtd">
<!-- Generated by graphviz version 2.49.3 (20211023.0002)
 -->
<!-- Pages: 1 -->
<svg width="1131px" height="255px"
 viewBox="0.00 0.00 1130.50 255.00" xmlns="http://www.w3.org/2000/svg" xmlns:xlink="http://www.w3.org/1999/xlink">
<g id="graph0" class="graph" transform="scale(1.0 1.0) rotate(0) translate(4 251)">
<polygon fill="white" stroke="transparent" points="-4,4 -4,-251 1126.5,-251 1126.5,4 -4,4"/>
<!-- b -->
<g id="node1" class="node">
<title>b</title>
<polygon fill="none" stroke="black" points="168,-223 168,-240 206,-240 206,-223 168,-223"/>
<text text-anchor="start" x="171" y="-230" font-family="Times,serif" text-decoration="underline" font-size="10.00">b :Bank</text>
<polygon fill="none" stroke="black" points="168,-217 168,-223 206,-223 206,-217 168,-217"/>
</g>
<!-- 8666ae1d_a21e_475e_a299_b8659a7c40fa -->
<g id="node3" class="node">
<title>8666ae1d_a21e_475e_a299_b8659a7c40fa</title>
<polygon fill="none" stroke="black" points="327,-153.5 327,-170.5 539,-170.5 539,-153.5 327,-153.5"/>
<text text-anchor="start" x="330" y="-160.5" font-family="Times,serif" text-decoration="underline" font-size="10.00">8666ae1d&#45;a21e&#45;475e&#45;a299&#45;b8659a7c40fa :Account</text>
<polygon fill="none" stroke="black" points="327,-125.5 327,-153.5 539,-153.5 539,-125.5 327,-125.5"/>
<text text-anchor="start" x="336" y="-142.5" font-family="Times,serif" font-size="10.00">balance = 69420.0</text>
<text text-anchor="start" x="336" y="-131.5" font-family="Times,serif" font-size="10.00">id = &quot;8666ae1d&#45;a21e&#45;475e&#45;a299&#45;b8659a7c40fa&quot;</text>
</g>
<!-- b&#45;&gt;8666ae1d_a21e_475e_a299_b8659a7c40fa -->
<g id="edge1" class="edge">
<title>b&#45;&gt;8666ae1d_a21e_475e_a299_b8659a7c40fa</title>
<path fill="none" stroke="black" d="M214.27,-219.3C247.54,-208.68 305.28,-190.26 353.08,-175"/>
<text text-anchor="middle" x="326.08" y="-178" font-family="Times,serif" font-size="10.00">bankAccount</text>
<text text-anchor="middle" x="224.27" y="-222.3" font-family="Times,serif" font-size="10.00">bank</text>
</g>
<!-- 71886f7a_9d01_4aac_b17c_5e7aeba57ecd -->
<g id="node4" class="node">
<title>71886f7a_9d01_4aac_b17c_5e7aeba57ecd</title>
<polygon fill="none" stroke="black" points="82,-153.5 82,-170.5 293,-170.5 293,-153.5 82,-153.5"/>
<text text-anchor="start" x="85" y="-160.5" font-family="Times,serif" text-decoration="underline" font-size="10.00">71886f7a&#45;9d01&#45;4aac&#45;b17c&#45;5e7aeba57ecd :Account</text>
<polygon fill="none" stroke="black" points="82,-125.5 82,-153.5 293,-153.5 293,-125.5 82,-125.5"/>
<text text-anchor="start" x="91" y="-142.5" font-family="Times,serif" font-size="10.00">balance = 100.0</text>
<text text-anchor="start" x="91" y="-131.5" font-family="Times,serif" font-size="10.00">id = &quot;71886f7a&#45;9d01&#45;4aac&#45;b17c&#45;5e7aeba57ecd&quot;</text>
</g>
<!-- b&#45;&gt;71886f7a_9d01_4aac_b17c_5e7aeba57ecd -->
<g id="edge2" class="edge">
<title>b&#45;&gt;71886f7a_9d01_4aac_b17c_5e7aeba57ecd</title>
<path fill="none" stroke="black" d="M187,-210.97C187,-200.51 187,-186.9 187,-175.16"/>
<text text-anchor="middle" x="169.5" y="-178.16" font-family="Times,serif" font-size="10.00">accounts</text>
<text text-anchor="middle" x="177" y="-202.97" font-family="Times,serif" font-size="10.00">bank</text>
</g>
<!-- 816fa341_3f3b_4906_b3b7_8d82dfa624f1 -->
<g id="node5" class="node">
<title>816fa341_3f3b_4906_b3b7_8d82dfa624f1</title>
<polygon fill="none" stroke="black" points="8,-65 8,-82 224,-82 224,-65 8,-65"/>
<text text-anchor="start" x="11" y="-72" font-family="Times,serif" text-decoration="underline" font-size="10.00">816fa341&#45;3f3b&#45;4906&#45;b3b7&#45;8d82dfa624f1 :Customer</text>
<polygon fill="none" stroke="black" points="8,-4 8,-65 224,-65 224,-4 8,-4"/>
<text text-anchor="start" x="19.5" y="-54" font-family="Times,serif" font-size="10.00">email = &quot;john@doe.ee&quot;</text>
<text text-anchor="start" x="19.5" y="-43" font-family="Times,serif" font-size="10.00">firstName = &quot;John&quot;</text>
<text text-anchor="start" x="19.5" y="-32" font-family="Times,serif" font-size="10.00">id = &quot;816fa341&#45;3f3b&#45;4906&#45;b3b7&#45;8d82dfa624f1&quot;</text>
<text text-anchor="start" x="19.5" y="-21" font-family="Times,serif" font-size="10.00">lastName = &quot;Doe&quot;</text>
<text text-anchor="start" x="19.5" y="-10" font-family="Times,serif" font-size="10.00">password = &quot;pass1234&quot;</text>
</g>
<!-- b&#45;&gt;816fa341_3f3b_4906_b3b7_8d82dfa624f1 -->
<g id="edge3" class="edge">
<title>b&#45;&gt;816fa341_3f3b_4906_b3b7_8d82dfa624f1</title>
<path fill="none" stroke="black" d="M159.95,-224.91C130.64,-219.96 85.22,-207.24 64,-175 45.98,-147.61 61.07,-113 79.55,-86.24"/>
<text text-anchor="middle" x="59.05" y="-89.24" font-family="Times,serif" font-size="10.00">customers</text>
<text text-anchor="middle" x="149.95" y="-227.91" font-family="Times,serif" font-size="10.00">bank</text>
</g>
<!-- b1 -->
<g id="node2" class="node">
<title>b1</title>
<polygon fill="none" stroke="black" points="912,-223 912,-240 955,-240 955,-223 912,-223"/>
<text text-anchor="start" x="915" y="-230" font-family="Times,serif" text-decoration="underline" font-size="10.00">b1 :Bank</text>
<polygon fill="none" stroke="black" points="912,-217 912,-223 955,-223 955,-217 912,-217"/>
</g>
<!-- 6c1abbe9_d053_4b99_98b8_1041976403ad -->
<g id="node6" class="node">
<title>6c1abbe9_d053_4b99_98b8_1041976403ad</title>
<polygon fill="none" stroke="black" points="574,-153.5 574,-170.5 791,-170.5 791,-153.5 574,-153.5"/>
<text text-anchor="start" x="577" y="-160.5" font-family="Times,serif" text-decoration="underline" font-size="10.00">6c1abbe9&#45;d053&#45;4b99&#45;98b8&#45;1041976403ad :Account</text>
<polygon fill="none" stroke="black" points="574,-125.5 574,-153.5 791,-153.5 791,-125.5 574,-125.5"/>
<text text-anchor="start" x="583.5" y="-142.5" font-family="Times,serif" font-size="10.00">balance = 69420.0</text>
<text text-anchor="start" x="583.5" y="-131.5" font-family="Times,serif" font-size="10.00">id = &quot;6c1abbe9&#45;d053&#45;4b99&#45;98b8&#45;1041976403ad&quot;</text>
</g>
<!-- b1&#45;&gt;6c1abbe9_d053_4b99_98b8_1041976403ad -->
<g id="edge4" class="edge">
<title>b1&#45;&gt;6c1abbe9_d053_4b99_98b8_1041976403ad</title>
<path fill="none" stroke="black" d="M903.22,-218.69C869,-207.99 811.41,-189.97 763.57,-175.01"/>
<text text-anchor="middle" x="736.57" y="-178.01" font-family="Times,serif" font-size="10.00">bankAccount</text>
<text text-anchor="middle" x="893.22" y="-221.69" font-family="Times,serif" font-size="10.00">bank</text>
</g>
<!-- 95b3b220_9118_421c_9186_780e45391a22 -->
<g id="node7" class="node">
<title>95b3b220_9118_421c_9186_780e45391a22</title>
<polygon fill="none" stroke="black" points="825,-153.5 825,-170.5 1042,-170.5 1042,-153.5 825,-153.5"/>
<text text-anchor="start" x="828" y="-160.5" font-family="Times,serif" text-decoration="underline" font-size="10.00">95b3b220&#45;9118&#45;421c&#45;9186&#45;780e45391a22 :Account</text>
<polygon fill="none" stroke="black" points="825,-125.5 825,-153.5 1042,-153.5 1042,-125.5 825,-125.5"/>
<text text-anchor="start" x="834.5" y="-142.5" font-family="Times,serif" font-size="10.00">balance = 0.0</text>
<text text-anchor="start" x="834.5" y="-131.5" font-family="Times,serif" font-size="10.00">id = &quot;95b3b220&#45;9118&#45;421c&#45;9186&#45;780e45391a22&quot;</text>
</g>
<!-- b1&#45;&gt;95b3b220_9118_421c_9186_780e45391a22 -->
<g id="edge5" class="edge">
<title>b1&#45;&gt;95b3b220_9118_421c_9186_780e45391a22</title>
<path fill="none" stroke="black" d="M933,-210.97C933,-200.51 933,-186.9 933,-175.16"/>
<text text-anchor="middle" x="915.5" y="-178.16" font-family="Times,serif" font-size="10.00">accounts</text>
<text text-anchor="middle" x="923" y="-202.97" font-family="Times,serif" font-size="10.00">bank</text>
</g>
<!-- 0ddd7b83_39ea_498b_9fee_13e9737094da -->
<g id="node8" class="node">
<title>0ddd7b83_39ea_498b_9fee_13e9737094da</title>
<polygon fill="none" stroke="black" points="896,-65 896,-82 1115,-82 1115,-65 896,-65"/>
<text text-anchor="start" x="899" y="-72" font-family="Times,serif" text-decoration="underline" font-size="10.00">0ddd7b83&#45;39ea&#45;498b&#45;9fee&#45;13e9737094da :Customer</text>
<polygon fill="none" stroke="black" points="896,-4 896,-65 1115,-65 1115,-4 896,-4"/>
<text text-anchor="start" x="908" y="-54" font-family="Times,serif" font-size="10.00">email = &quot;bobby@tt.ee&quot;</text>
<text text-anchor="start" x="908" y="-43" font-family="Times,serif" font-size="10.00">firstName = &quot;Bob&quot;</text>
<text text-anchor="start" x="908" y="-32" font-family="Times,serif" font-size="10.00">id = &quot;0ddd7b83&#45;39ea&#45;498b&#45;9fee&#45;13e9737094da&quot;</text>
<text text-anchor="start" x="908" y="-21" font-family="Times,serif" font-size="10.00">lastName = &quot;Jackson&quot;</text>
<text text-anchor="start" x="908" y="-10" font-family="Times,serif" font-size="10.00">password = &quot;secret&quot;</text>
</g>
<!-- b1&#45;&gt;0ddd7b83_39ea_498b_9fee_13e9737094da -->
<g id="edge6" class="edge">
<title>b1&#45;&gt;0ddd7b83_39ea_498b_9fee_13e9737094da</title>
<path fill="none" stroke="black" d="M962.61,-224.81C992.65,-219.82 1037.66,-207.12 1059,-175 1077.24,-147.54 1061.59,-112.94 1042.53,-86.19"/>
<text text-anchor="middle" x="1022.03" y="-89.19" font-family="Times,serif" font-size="10.00">customers</text>
<text text-anchor="middle" x="972.61" y="-227.81" font-family="Times,serif" font-size="10.00">bank</text>
</g>
<!-- c -->
<g id="node9" class="node">
<title>c</title>
<polygon fill="none" stroke="black" points="490,-43 490,-60 625,-60 625,-43 490,-43"/>
<text text-anchor="start" x="534" y="-50" font-family="Times,serif" text-decoration="underline" font-size="10.00">c :Currency</text>
<polygon fill="none" stroke="black" points="490,-26 490,-43 625,-43 625,-26 490,-26"/>
<text text-anchor="start" x="493" y="-32" font-family="Times,serif" font-size="10.00">declaringClass = class Currency</text>
</g>
<!-- 8666ae1d_a21e_475e_a299_b8659a7c40fa&#45;&gt;c -->
<g id="edge7" class="edge">
<title>8666ae1d_a21e_475e_a299_b8659a7c40fa&#45;&gt;c</title>
<path fill="none" stroke="black" d="M463.65,-121.92C485.02,-104.08 513.14,-80.61 532.91,-64.11"/>
<text text-anchor="middle" x="515.41" y="-67.11" font-family="Times,serif" font-size="10.00">currency</text>
</g>
<!-- 71886f7a_9d01_4aac_b17c_5e7aeba57ecd&#45;&gt;816fa341_3f3b_4906_b3b7_8d82dfa624f1 -->
<g id="edge9" class="edge">
<title>71886f7a_9d01_4aac_b17c_5e7aeba57ecd&#45;&gt;816fa341_3f3b_4906_b3b7_8d82dfa624f1</title>
<path fill="none" stroke="black" d="M169.45,-121.92C162.06,-111.14 153.26,-98.31 144.95,-86.2"/>
<text text-anchor="middle" x="132.45" y="-89.2" font-family="Times,serif" font-size="10.00">owner</text>
<text text-anchor="middle" x="153.45" y="-113.92" font-family="Times,serif" font-size="10.00">account</text>
</g>
<!-- 71886f7a_9d01_4aac_b17c_5e7aeba57ecd&#45;&gt;c -->
<g id="edge8" class="edge">
<title>71886f7a_9d01_4aac_b17c_5e7aeba57ecd&#45;&gt;c</title>
<path fill="none" stroke="black" d="M278.46,-121.92C342.34,-104.05 426.41,-80.53 485.42,-64.02"/>
<text text-anchor="middle" x="467.92" y="-67.02" font-family="Times,serif" font-size="10.00">currency</text>
</g>
<!-- 6c1abbe9_d053_4b99_98b8_1041976403ad&#45;&gt;c -->
<g id="edge10" class="edge">
<title>6c1abbe9_d053_4b99_98b8_1041976403ad&#45;&gt;c</title>
<path fill="none" stroke="black" d="M651.1,-121.92C629.56,-104.08 601.21,-80.61 581.28,-64.11"/>
<text text-anchor="middle" x="563.78" y="-67.11" font-family="Times,serif" font-size="10.00">currency</text>
</g>
<!-- 95b3b220_9118_421c_9186_780e45391a22&#45;&gt;0ddd7b83_39ea_498b_9fee_13e9737094da -->
<g id="edge12" class="edge">
<title>95b3b220_9118_421c_9186_780e45391a22&#45;&gt;0ddd7b83_39ea_498b_9fee_13e9737094da</title>
<path fill="none" stroke="black" d="M950.8,-121.92C958.29,-111.14 967.22,-98.31 975.64,-86.2"/>
<text text-anchor="middle" x="963.14" y="-89.2" font-family="Times,serif" font-size="10.00">owner</text>
<text text-anchor="middle" x="934.8" y="-113.92" font-family="Times,serif" font-size="10.00">account</text>
</g>
<!-- 95b3b220_9118_421c_9186_780e45391a22&#45;&gt;c -->
<g id="edge11" class="edge">
<title>95b3b220_9118_421c_9186_780e45391a22&#45;&gt;c</title>
<path fill="none" stroke="black" d="M840.06,-121.92C775.14,-104.05 689.71,-80.53 629.75,-64.02"/>
<text text-anchor="middle" x="612.25" y="-67.02" font-family="Times,serif" font-size="10.00">currency</text>
</g>
</g>
</svg>
