<?xml version="1.0" encoding="UTF-8" standalone="no"?>
<!DOCTYPE svg PUBLIC "-//W3C//DTD SVG 1.1//EN"
 "http://www.w3.org/Graphics/SVG/1.1/DTD/svg11.dtd">
<!-- Generated by graphviz version 2.49.3 (20211023.0002)
 -->
<!-- Title: model Pages: 1 -->
<svg width="1731px" height="449px"
 viewBox="0.00 0.00 1731.00 449.00" xmlns="http://www.w3.org/2000/svg" xmlns:xlink="http://www.w3.org/1999/xlink">
<g id="graph0" class="graph" transform="scale(1.0 1.0) rotate(0) translate(4 445)">
<title>model</title>
<polygon fill="white" stroke="transparent" points="-4,4 -4,-445 1727,-445 1727,4 -4,4"/>
<!-- f2235f64_db7f_4ae2_a219_4b574309b383 -->
<g id="node1" class="node">
<title>f2235f64_db7f_4ae2_a219_4b574309b383</title>
<polygon fill="none" stroke="black" points="804,-420 804,-437 1029,-437 1029,-420 804,-420"/>
<text text-anchor="start" x="807" y="-427" font-family="Times,serif" text-decoration="underline" font-size="10.00">f2235f64&#45;db7f&#45;4ae2&#45;a219&#45;4b574309b383 :Transaction</text>
<polygon fill="none" stroke="black" points="804,-359 804,-420 1029,-420 1029,-359 804,-359"/>
<text text-anchor="start" x="819.5" y="-409" font-family="Times,serif" font-size="10.00">amount = 20.0</text>
<text text-anchor="start" x="819.5" y="-398" font-family="Times,serif" font-size="10.00">description = &quot;Transaction test&quot;</text>
<text text-anchor="start" x="819.5" y="-387" font-family="Times,serif" font-size="10.00">id = &quot;f2235f64&#45;db7f&#45;4ae2&#45;a219&#45;4b574309b383&quot;</text>
<text text-anchor="start" x="819.5" y="-376" font-family="Times,serif" font-size="10.00">rejectionDescription = &quot;&quot;</text>
<text text-anchor="start" x="819.5" y="-365" font-family="Times,serif" font-size="10.00">timestamp = 2021&#45;12&#45;05T17:28:02.236197</text>
</g>
<!-- b -->
<g id="node2" class="node">
<title>b</title>
<polygon fill="none" stroke="black" points="508,-297.5 508,-314.5 1324,-314.5 1324,-297.5 508,-297.5"/>
<text text-anchor="start" x="900" y="-304.5" font-family="Times,serif" text-decoration="underline" font-size="10.00">b :Bank</text>
<polygon fill="none" stroke="black" points="508,-269.5 508,-297.5 1324,-297.5 1324,-269.5 508,-269.5"/>
<text text-anchor="start" x="511" y="-286.5" font-family="Times,serif" font-size="10.00">accountsMap = sendItToTheBank8a633aa5&#45;907c&#45;4e57&#45;a313&#45;22e0adb2672e7ec351d6&#45;652f&#45;4691&#45;8e72&#45;ea432d44a0c834d20d6a&#45;bb98&#45;4484&#45;bcad&#45;0250b9b297c7412925f2&#45;6963&#45;4eed&#45;b469&#45;9fd161473fba</text>
<text text-anchor="start" x="511" y="-275.5" font-family="Times,serif" font-size="10.00">customerMap = b74365d8&#45;ab16&#45;4d34&#45;9848&#45;7b11365cc6fee2f7bc4c&#45;ef2a&#45;466e&#45;b8a5&#45;d24f48b13afe1eaf6f4c&#45;4f92&#45;4e04&#45;bd87&#45;c82be03265dee9dd259e&#45;d6eb&#45;4c96&#45;9725&#45;950f924f0fc9</text>
</g>
<!-- f2235f64_db7f_4ae2_a219_4b574309b383&#45;&gt;b -->
<g id="edge1" class="edge">
<title>f2235f64_db7f_4ae2_a219_4b574309b383&#45;&gt;b</title>
<path fill="none" stroke="black" d="M916,-354.9C916,-342.81 916,-330 916,-319.22"/>
<text text-anchor="middle" x="906" y="-322.22" font-family="Times,serif" font-size="10.00">bank</text>
</g>
<!-- c -->
<g id="node3" class="node">
<title>c</title>
<polygon fill="none" stroke="black" points="345,-43 345,-60 508,-60 508,-43 345,-43"/>
<text text-anchor="start" x="403" y="-50" font-family="Times,serif" text-decoration="underline" font-size="10.00">c :Currency</text>
<polygon fill="none" stroke="black" points="345,-26 345,-43 508,-43 508,-26 345,-26"/>
<text text-anchor="start" x="348" y="-32" font-family="Times,serif" font-size="10.00">declaringClass = class model.Currency</text>
</g>
<!-- f2235f64_db7f_4ae2_a219_4b574309b383&#45;&gt;c -->
<g id="edge2" class="edge">
<title>f2235f64_db7f_4ae2_a219_4b574309b383&#45;&gt;c</title>
<path fill="none" stroke="black" d="M795.41,-392.69C579.8,-382.07 142.51,-346.37 55,-230 26.15,-191.64 24.45,-159.03 55,-122 81.79,-89.53 199.8,-94.66 241,-86 273.55,-79.16 309.22,-71.18 340.47,-64.02"/>
<text text-anchor="middle" x="322.97" y="-67.02" font-family="Times,serif" font-size="10.00">currency</text>
</g>
<!-- 412925f2_6963_4eed_b469_9fd161473fba -->
<g id="node4" class="node">
<title>412925f2_6963_4eed_b469_9fd161473fba</title>
<polygon fill="none" stroke="black" points="1451,-209 1451,-226 1715,-226 1715,-209 1451,-209"/>
<text text-anchor="start" x="1480" y="-216" font-family="Times,serif" text-decoration="underline" font-size="10.00">412925f2&#45;6963&#45;4eed&#45;b469&#45;9fd161473fba :Account</text>
<polygon fill="none" stroke="black" points="1451,-126 1451,-209 1715,-209 1715,-126 1451,-126"/>
<text text-anchor="start" x="1454" y="-198" font-family="Times,serif" font-size="10.00">balance = 20.0</text>
<text text-anchor="start" x="1454" y="-187" font-family="Times,serif" font-size="10.00">customerId = null</text>
<text text-anchor="start" x="1454" y="-176" font-family="Times,serif" font-size="10.00">iban = &quot;EE555005216601001834&quot;</text>
<text text-anchor="start" x="1454" y="-165" font-family="Times,serif" font-size="10.00">id = &quot;412925f2&#45;6963&#45;4eed&#45;b469&#45;9fd161473fba&quot;</text>
<text text-anchor="start" x="1454" y="-154" font-family="Times,serif" font-size="10.00">receivedTransaction = f2235f64&#45;db7f&#45;4ae2&#45;a219&#45;4b574309b383</text>
<text text-anchor="start" x="1454" y="-143" font-family="Times,serif" font-size="10.00">sentTransaction = </text>
<text text-anchor="start" x="1454" y="-132" font-family="Times,serif" font-size="10.00">status = &quot;ACTIVE&quot;</text>
</g>
<!-- f2235f64_db7f_4ae2_a219_4b574309b383&#45;&gt;412925f2_6963_4eed_b469_9fd161473fba -->
<g id="edge3" class="edge">
<title>f2235f64_db7f_4ae2_a219_4b574309b383&#45;&gt;412925f2_6963_4eed_b469_9fd161473fba</title>
<path fill="none" stroke="black" d="M1036.75,-385C1144.1,-372.52 1291.51,-350.39 1341,-319 1365.48,-303.48 1356.46,-284.23 1379,-266 1398.08,-250.57 1420.24,-237.32 1442.79,-226.12"/>
<text text-anchor="middle" x="1420.79" y="-218.12" font-family="Times,serif" font-size="10.00">destination</text>
<text text-anchor="middle" x="1093.75" y="-388" font-family="Times,serif" font-size="10.00">allTransactionsOrderedDesc</text>
</g>
<!-- 34d20d6a_bb98_4484_bcad_0250b9b297c7 -->
<g id="node5" class="node">
<title>34d20d6a_bb98_4484_bcad_0250b9b297c7</title>
<polygon fill="none" stroke="black" points="73,-209 73,-226 320,-226 320,-209 73,-209"/>
<text text-anchor="start" x="91" y="-216" font-family="Times,serif" text-decoration="underline" font-size="10.00">34d20d6a&#45;bb98&#45;4484&#45;bcad&#45;0250b9b297c7 :Account</text>
<polygon fill="none" stroke="black" points="73,-126 73,-209 320,-209 320,-126 73,-126"/>
<text text-anchor="start" x="76" y="-198" font-family="Times,serif" font-size="10.00">balance = 1.0</text>
<text text-anchor="start" x="76" y="-187" font-family="Times,serif" font-size="10.00">customerId = null</text>
<text text-anchor="start" x="76" y="-176" font-family="Times,serif" font-size="10.00">iban = &quot;EE721136017826995628&quot;</text>
<text text-anchor="start" x="76" y="-165" font-family="Times,serif" font-size="10.00">id = &quot;34d20d6a&#45;bb98&#45;4484&#45;bcad&#45;0250b9b297c7&quot;</text>
<text text-anchor="start" x="76" y="-154" font-family="Times,serif" font-size="10.00">receivedTransaction = </text>
<text text-anchor="start" x="76" y="-143" font-family="Times,serif" font-size="10.00">sentTransaction = f2235f64&#45;db7f&#45;4ae2&#45;a219&#45;4b574309b383</text>
<text text-anchor="start" x="76" y="-132" font-family="Times,serif" font-size="10.00">status = &quot;ACTIVE&quot;</text>
</g>
<!-- f2235f64_db7f_4ae2_a219_4b574309b383&#45;&gt;34d20d6a_bb98_4484_bcad_0250b9b297c7 -->
<g id="edge4" class="edge">
<title>f2235f64_db7f_4ae2_a219_4b574309b383&#45;&gt;34d20d6a_bb98_4484_bcad_0250b9b297c7</title>
<path fill="none" stroke="black" d="M795.26,-383.58C709.02,-371.89 591.03,-351.6 491,-319 421.02,-296.19 346.35,-260.12 289.64,-230.04"/>
<text text-anchor="middle" x="276.14" y="-233.04" font-family="Times,serif" font-size="10.00">source</text>
<text text-anchor="middle" x="738.26" y="-386.58" font-family="Times,serif" font-size="10.00">allTransactionsOrderedDesc</text>
</g>
<!-- s -->
<g id="node6" class="node">
<title>s</title>
<polygon fill="none" stroke="black" points="1396,-292.5 1396,-309.5 1598,-309.5 1598,-292.5 1396,-292.5"/>
<text text-anchor="start" x="1480" y="-299.5" font-family="Times,serif" text-decoration="underline" font-size="10.00">s :Status</text>
<polygon fill="none" stroke="black" points="1396,-275.5 1396,-292.5 1598,-292.5 1598,-275.5 1396,-275.5"/>
<text text-anchor="start" x="1399" y="-281.5" font-family="Times,serif" font-size="10.00">declaringClass = class model.Transaction$Status</text>
</g>
<!-- f2235f64_db7f_4ae2_a219_4b574309b383&#45;&gt;s -->
<g id="edge5" class="edge">
<title>f2235f64_db7f_4ae2_a219_4b574309b383&#45;&gt;s</title>
<path fill="none" stroke="black" d="M1036.75,-377.64C1129.22,-362.53 1259.87,-340.54 1374,-319 1383.11,-317.28 1392.58,-315.43 1402.05,-313.54"/>
<text text-anchor="middle" x="1390.55" y="-316.54" font-family="Times,serif" font-size="10.00">status</text>
</g>
<!-- b&#45;&gt;412925f2_6963_4eed_b469_9fd161473fba -->
<g id="edge10" class="edge">
<title>b&#45;&gt;412925f2_6963_4eed_b469_9fd161473fba</title>
<path fill="none" stroke="black" d="M1218.94,-265.98C1288.44,-257.15 1361.68,-245.44 1429,-230 1433.55,-228.96 1438.15,-227.83 1442.78,-226.63"/>
<text text-anchor="middle" x="1425.28" y="-229.63" font-family="Times,serif" font-size="10.00">accounts</text>
<text text-anchor="middle" x="1208.94" y="-257.98" font-family="Times,serif" font-size="10.00">bank</text>
</g>
<!-- b&#45;&gt;34d20d6a_bb98_4484_bcad_0250b9b297c7 -->
<g id="edge9" class="edge">
<title>b&#45;&gt;34d20d6a_bb98_4484_bcad_0250b9b297c7</title>
<path fill="none" stroke="black" d="M541.15,-265.98C472.38,-257.29 401.63,-245.63 336,-230 333.22,-229.34 330.42,-228.63 327.61,-227.9"/>
<text text-anchor="middle" x="345.11" y="-230.9" font-family="Times,serif" font-size="10.00">accounts</text>
<text text-anchor="middle" x="531.15" y="-257.98" font-family="Times,serif" font-size="10.00">bank</text>
</g>
<!-- sendItToTheBank -->
<g id="node7" class="node">
<title>sendItToTheBank</title>
<polygon fill="none" stroke="black" points="354,-209 354,-226 499,-226 499,-209 354,-209"/>
<text text-anchor="start" x="371" y="-216" font-family="Times,serif" text-decoration="underline" font-size="10.00">sendItToTheBank :Account</text>
<polygon fill="none" stroke="black" points="354,-126 354,-209 499,-209 499,-126 354,-126"/>
<text text-anchor="start" x="357" y="-198" font-family="Times,serif" font-size="10.00">balance = 69420.0</text>
<text text-anchor="start" x="357" y="-187" font-family="Times,serif" font-size="10.00">customerId = null</text>
<text text-anchor="start" x="357" y="-176" font-family="Times,serif" font-size="10.00">iban = &quot;EE626696546955796540&quot;</text>
<text text-anchor="start" x="357" y="-165" font-family="Times,serif" font-size="10.00">id = &quot;sendItToTheBank&quot;</text>
<text text-anchor="start" x="357" y="-154" font-family="Times,serif" font-size="10.00">receivedTransaction = </text>
<text text-anchor="start" x="357" y="-143" font-family="Times,serif" font-size="10.00">sentTransaction = </text>
<text text-anchor="start" x="357" y="-132" font-family="Times,serif" font-size="10.00">status = &quot;ACTIVE&quot;</text>
</g>
<!-- b&#45;&gt;sendItToTheBank -->
<g id="edge6" class="edge">
<title>b&#45;&gt;sendItToTheBank</title>
<path fill="none" stroke="black" d="M654.77,-265.98C607.79,-257.29 559.85,-245.63 516,-230 512.93,-228.9 509.84,-227.7 506.76,-226.41"/>
<text text-anchor="middle" x="533.76" y="-229.41" font-family="Times,serif" font-size="10.00">bankAccount</text>
<text text-anchor="middle" x="644.77" y="-257.98" font-family="Times,serif" font-size="10.00">bank</text>
</g>
<!-- 8a633aa5_907c_4e57_a313_22e0adb2672e -->
<g id="node8" class="node">
<title>8a633aa5_907c_4e57_a313_22e0adb2672e</title>
<polygon fill="none" stroke="black" points="1106,-209 1106,-226 1341,-226 1341,-209 1106,-209"/>
<text text-anchor="start" x="1119.5" y="-216" font-family="Times,serif" text-decoration="underline" font-size="10.00">8a633aa5&#45;907c&#45;4e57&#45;a313&#45;22e0adb2672e :Account</text>
<polygon fill="none" stroke="black" points="1106,-126 1106,-209 1341,-209 1341,-126 1106,-126"/>
<text text-anchor="start" x="1109" y="-198" font-family="Times,serif" font-size="10.00">balance = 0.0</text>
<text text-anchor="start" x="1109" y="-187" font-family="Times,serif" font-size="10.00">customerId = &quot;1eaf6f4c&#45;4f92&#45;4e04&#45;bd87&#45;c82be03265de&quot;</text>
<text text-anchor="start" x="1109" y="-176" font-family="Times,serif" font-size="10.00">iban = null</text>
<text text-anchor="start" x="1109" y="-165" font-family="Times,serif" font-size="10.00">id = &quot;8a633aa5&#45;907c&#45;4e57&#45;a313&#45;22e0adb2672e&quot;</text>
<text text-anchor="start" x="1109" y="-154" font-family="Times,serif" font-size="10.00">receivedTransaction = </text>
<text text-anchor="start" x="1109" y="-143" font-family="Times,serif" font-size="10.00">sentTransaction = </text>
<text text-anchor="start" x="1109" y="-132" font-family="Times,serif" font-size="10.00">status = &quot;ACTIVE&quot;</text>
</g>
<!-- b&#45;&gt;8a633aa5_907c_4e57_a313_22e0adb2672e -->
<g id="edge7" class="edge">
<title>b&#45;&gt;8a633aa5_907c_4e57_a313_22e0adb2672e</title>
<path fill="none" stroke="black" d="M985.93,-265.91C1015.85,-254.92 1051.16,-241.89 1083,-230 1087.75,-228.23 1092.58,-226.42 1097.47,-224.59"/>
<text text-anchor="middle" x="1079.97" y="-227.59" font-family="Times,serif" font-size="10.00">accounts</text>
<text text-anchor="middle" x="975.93" y="-257.91" font-family="Times,serif" font-size="10.00">bank</text>
</g>
<!-- 7ec351d6_652f_4691_8e72_ea432d44a0c8 -->
<g id="node9" class="node">
<title>7ec351d6_652f_4691_8e72_ea432d44a0c8</title>
<polygon fill="none" stroke="black" points="533,-209 533,-226 765,-226 765,-209 533,-209"/>
<text text-anchor="start" x="545.5" y="-216" font-family="Times,serif" text-decoration="underline" font-size="10.00">7ec351d6&#45;652f&#45;4691&#45;8e72&#45;ea432d44a0c8 :Account</text>
<polygon fill="none" stroke="black" points="533,-126 533,-209 765,-209 765,-126 533,-126"/>
<text text-anchor="start" x="536" y="-198" font-family="Times,serif" font-size="10.00">balance = 100.0</text>
<text text-anchor="start" x="536" y="-187" font-family="Times,serif" font-size="10.00">customerId = &quot;e2f7bc4c&#45;ef2a&#45;466e&#45;b8a5&#45;d24f48b13afe&quot;</text>
<text text-anchor="start" x="536" y="-176" font-family="Times,serif" font-size="10.00">iban = null</text>
<text text-anchor="start" x="536" y="-165" font-family="Times,serif" font-size="10.00">id = &quot;7ec351d6&#45;652f&#45;4691&#45;8e72&#45;ea432d44a0c8&quot;</text>
<text text-anchor="start" x="536" y="-154" font-family="Times,serif" font-size="10.00">receivedTransaction = </text>
<text text-anchor="start" x="536" y="-143" font-family="Times,serif" font-size="10.00">sentTransaction = </text>
<text text-anchor="start" x="536" y="-132" font-family="Times,serif" font-size="10.00">status = &quot;ACTIVE&quot;</text>
</g>
<!-- b&#45;&gt;7ec351d6_652f_4691_8e72_ea432d44a0c8 -->
<g id="edge8" class="edge">
<title>b&#45;&gt;7ec351d6_652f_4691_8e72_ea432d44a0c8</title>
<path fill="none" stroke="black" d="M856.41,-265.95C831.59,-255.3 801.79,-242.52 772.62,-230.01"/>
<text text-anchor="middle" x="755.12" y="-233.01" font-family="Times,serif" font-size="10.00">accounts</text>
<text text-anchor="middle" x="846.41" y="-257.95" font-family="Times,serif" font-size="10.00">bank</text>
</g>
<!-- 9b55a35a_f922_49dd_a438_94fccfde575b -->
<g id="node10" class="node">
<title>9b55a35a_f922_49dd_a438_94fccfde575b</title>
<polygon fill="none" stroke="black" points="800,-198 800,-215 1033,-215 1033,-198 800,-198"/>
<text text-anchor="start" x="803" y="-205" font-family="Times,serif" text-decoration="underline" font-size="10.00">9b55a35a&#45;f922&#45;49dd&#45;a438&#45;94fccfde575b :Administrator</text>
<polygon fill="none" stroke="black" points="800,-137 800,-198 1033,-198 1033,-137 800,-137"/>
<text text-anchor="start" x="820.5" y="-187" font-family="Times,serif" font-size="10.00">email = &quot;admin@bank.ee&quot;</text>
<text text-anchor="start" x="820.5" y="-176" font-family="Times,serif" font-size="10.00">firstName = &quot;Admin&quot;</text>
<text text-anchor="start" x="820.5" y="-165" font-family="Times,serif" font-size="10.00">id = &quot;9b55a35a&#45;f922&#45;49dd&#45;a438&#45;94fccfde575b&quot;</text>
<text text-anchor="start" x="820.5" y="-154" font-family="Times,serif" font-size="10.00">lastName = &quot;ALice&quot;</text>
<text text-anchor="start" x="820.5" y="-143" font-family="Times,serif" font-size="10.00">password = &quot;secure_p@ssw0|2d&quot;</text>
</g>
<!-- b&#45;&gt;9b55a35a_f922_49dd_a438_94fccfde575b -->
<g id="edge11" class="edge">
<title>b&#45;&gt;9b55a35a_f922_49dd_a438_94fccfde575b</title>
<path fill="none" stroke="black" d="M916,-265.8C916,-252.09 916,-234.86 916,-219.24"/>
<text text-anchor="middle" x="887" y="-222.24" font-family="Times,serif" font-size="10.00">administrators</text>
<text text-anchor="middle" x="906" y="-257.8" font-family="Times,serif" font-size="10.00">bank</text>
</g>
<!-- e2f7bc4c_ef2a_466e_b8a5_d24f48b13afe -->
<g id="node11" class="node">
<title>e2f7bc4c_ef2a_466e_b8a5_d24f48b13afe</title>
<polygon fill="none" stroke="black" points="719,-65 719,-82 931,-82 931,-65 719,-65"/>
<text text-anchor="start" x="722" y="-72" font-family="Times,serif" text-decoration="underline" font-size="10.00">e2f7bc4c&#45;ef2a&#45;466e&#45;b8a5&#45;d24f48b13afe :Customer</text>
<polygon fill="none" stroke="black" points="719,-4 719,-65 931,-65 931,-4 719,-4"/>
<text text-anchor="start" x="730.5" y="-54" font-family="Times,serif" font-size="10.00">email = &quot;john@doe.ee&quot;</text>
<text text-anchor="start" x="730.5" y="-43" font-family="Times,serif" font-size="10.00">firstName = &quot;John&quot;</text>
<text text-anchor="start" x="730.5" y="-32" font-family="Times,serif" font-size="10.00">id = &quot;e2f7bc4c&#45;ef2a&#45;466e&#45;b8a5&#45;d24f48b13afe&quot;</text>
<text text-anchor="start" x="730.5" y="-21" font-family="Times,serif" font-size="10.00">lastName = &quot;Doe&quot;</text>
<text text-anchor="start" x="730.5" y="-10" font-family="Times,serif" font-size="10.00">password = &quot;pass1234&quot;</text>
</g>
<!-- b&#45;&gt;e2f7bc4c_ef2a_466e_b8a5_d24f48b13afe -->
<g id="edge12" class="edge">
<title>b&#45;&gt;e2f7bc4c_ef2a_466e_b8a5_d24f48b13afe</title>
<path fill="none" stroke="black" d="M1007.73,-265.96C1024.09,-257.21 1039.07,-245.54 1049,-230 1074.86,-189.56 1076.81,-161.13 1049,-122 1023.65,-86.34 980.76,-66.84 939.25,-56.23"/>
<text text-anchor="middle" x="959.75" y="-59.23" font-family="Times,serif" font-size="10.00">customers</text>
<text text-anchor="middle" x="997.73" y="-257.96" font-family="Times,serif" font-size="10.00">bank</text>
</g>
<!-- 1eaf6f4c_4f92_4e04_bd87_c82be03265de -->
<g id="node12" class="node">
<title>1eaf6f4c_4f92_4e04_bd87_c82be03265de</title>
<polygon fill="none" stroke="black" points="1143,-65 1143,-82 1358,-82 1358,-65 1143,-65"/>
<text text-anchor="start" x="1146" y="-72" font-family="Times,serif" text-decoration="underline" font-size="10.00">1eaf6f4c&#45;4f92&#45;4e04&#45;bd87&#45;c82be03265de :Customer</text>
<polygon fill="none" stroke="black" points="1143,-4 1143,-65 1358,-65 1358,-4 1143,-4"/>
<text text-anchor="start" x="1155" y="-54" font-family="Times,serif" font-size="10.00">email = &quot;bobby@tt.ee&quot;</text>
<text text-anchor="start" x="1155" y="-43" font-family="Times,serif" font-size="10.00">firstName = &quot;Bob&quot;</text>
<text text-anchor="start" x="1155" y="-32" font-family="Times,serif" font-size="10.00">id = &quot;1eaf6f4c&#45;4f92&#45;4e04&#45;bd87&#45;c82be03265de&quot;</text>
<text text-anchor="start" x="1155" y="-21" font-family="Times,serif" font-size="10.00">lastName = &quot;Jackson&quot;</text>
<text text-anchor="start" x="1155" y="-10" font-family="Times,serif" font-size="10.00">password = &quot;secret&quot;</text>
</g>
<!-- b&#45;&gt;1eaf6f4c_4f92_4e04_bd87_c82be03265de -->
<g id="edge13" class="edge">
<title>b&#45;&gt;1eaf6f4c_4f92_4e04_bd87_c82be03265de</title>
<path fill="none" stroke="black" d="M1282.75,-265.97C1316.77,-257.14 1343.55,-245.45 1357,-230 1388.51,-193.79 1378.76,-164.79 1357,-122 1349.97,-108.17 1339.2,-96.21 1327.17,-86.09"/>
<text text-anchor="middle" x="1306.67" y="-89.09" font-family="Times,serif" font-size="10.00">customers</text>
<text text-anchor="middle" x="1292.75" y="-257.97" font-family="Times,serif" font-size="10.00">bank</text>
</g>
<!-- e9dd259e_d6eb_4c96_9725_950f924f0fc9 -->
<g id="node13" class="node">
<title>e9dd259e_d6eb_4c96_9725_950f924f0fc9</title>
<polygon fill="none" stroke="black" points="8,-65 8,-82 224,-82 224,-65 8,-65"/>
<text text-anchor="start" x="11" y="-72" font-family="Times,serif" text-decoration="underline" font-size="10.00">e9dd259e&#45;d6eb&#45;4c96&#45;9725&#45;950f924f0fc9 :Customer</text>
<polygon fill="none" stroke="black" points="8,-4 8,-65 224,-65 224,-4 8,-4"/>
<text text-anchor="start" x="19.5" y="-54" font-family="Times,serif" font-size="10.00">email = &quot;bobbytest@tt.ee&quot;</text>
<text text-anchor="start" x="19.5" y="-43" font-family="Times,serif" font-size="10.00">firstName = &quot;Bob&quot;</text>
<text text-anchor="start" x="19.5" y="-32" font-family="Times,serif" font-size="10.00">id = &quot;e9dd259e&#45;d6eb&#45;4c96&#45;9725&#45;950f924f0fc9&quot;</text>
<text text-anchor="start" x="19.5" y="-21" font-family="Times,serif" font-size="10.00">lastName = &quot;Jackson&quot;</text>
<text text-anchor="start" x="19.5" y="-10" font-family="Times,serif" font-size="10.00">password = &quot;secret&quot;</text>
</g>
<!-- b&#45;&gt;e9dd259e_d6eb_4c96_9725_950f924f0fc9 -->
<g id="edge14" class="edge">
<title>b&#45;&gt;e9dd259e_d6eb_4c96_9725_950f924f0fc9</title>
<path fill="none" stroke="black" d="M499.99,-286.75C296.04,-279.97 87.15,-264.53 55,-230 22.29,-194.87 39.36,-167.38 55,-122 59.37,-109.32 66.74,-97.13 74.87,-86.3"/>
<text text-anchor="middle" x="54.37" y="-89.3" font-family="Times,serif" font-size="10.00">customers</text>
<text text-anchor="middle" x="489.99" y="-289.75" font-family="Times,serif" font-size="10.00">bank</text>
</g>
<!-- b74365d8_ab16_4d34_9848_7b11365cc6fe -->
<g id="node14" class="node">
<title>b74365d8_ab16_4d34_9848_7b11365cc6fe</title>
<polygon fill="none" stroke="black" points="1446,-65 1446,-82 1666,-82 1666,-65 1446,-65"/>
<text text-anchor="start" x="1449" y="-72" font-family="Times,serif" text-decoration="underline" font-size="10.00">b74365d8&#45;ab16&#45;4d34&#45;9848&#45;7b11365cc6fe :Customer</text>
<polygon fill="none" stroke="black" points="1446,-4 1446,-65 1666,-65 1666,-4 1446,-4"/>
<text text-anchor="start" x="1458" y="-54" font-family="Times,serif" font-size="10.00">email = &quot;johntest@doe.ee&quot;</text>
<text text-anchor="start" x="1458" y="-43" font-family="Times,serif" font-size="10.00">firstName = &quot;johntest&quot;</text>
<text text-anchor="start" x="1458" y="-32" font-family="Times,serif" font-size="10.00">id = &quot;b74365d8&#45;ab16&#45;4d34&#45;9848&#45;7b11365cc6fe&quot;</text>
<text text-anchor="start" x="1458" y="-21" font-family="Times,serif" font-size="10.00">lastName = &quot;Doe&quot;</text>
<text text-anchor="start" x="1458" y="-10" font-family="Times,serif" font-size="10.00">password = &quot;pass1234&quot;</text>
</g>
<!-- b&#45;&gt;b74365d8_ab16_4d34_9848_7b11365cc6fe -->
<g id="edge15" class="edge">
<title>b&#45;&gt;b74365d8_ab16_4d34_9848_7b11365cc6fe</title>
<path fill="none" stroke="black" d="M1270.69,-265.95C1319.59,-257.26 1360.44,-245.61 1382,-230 1425.15,-198.76 1398.66,-161.86 1434,-122 1445.92,-108.55 1460.7,-96.53 1475.82,-86.19"/>
<text text-anchor="middle" x="1455.32" y="-89.19" font-family="Times,serif" font-size="10.00">customers</text>
<text text-anchor="middle" x="1260.69" y="-257.95" font-family="Times,serif" font-size="10.00">bank</text>
</g>
<!-- 412925f2_6963_4eed_b469_9fd161473fba&#45;&gt;c -->
<g id="edge16" class="edge">
<title>412925f2_6963_4eed_b469_9fd161473fba&#45;&gt;c</title>
<path fill="none" stroke="black" d="M1442.98,-138.14C1414.69,-131.83 1385.02,-126.02 1357,-122 1068.41,-80.56 992.01,-115.97 702,-86 639.45,-79.54 569.4,-68.84 515.53,-59.85"/>
<text text-anchor="middle" x="533.03" y="-62.85" font-family="Times,serif" font-size="10.00">currency</text>
</g>
<!-- 412925f2_6963_4eed_b469_9fd161473fba&#45;&gt;b74365d8_ab16_4d34_9848_7b11365cc6fe -->
<g id="edge17" class="edge">
<title>412925f2_6963_4eed_b469_9fd161473fba&#45;&gt;b74365d8_ab16_4d34_9848_7b11365cc6fe</title>
<path fill="none" stroke="black" d="M1572.02,-121.72C1569.59,-109.96 1567.06,-97.66 1564.74,-86.4"/>
<text text-anchor="middle" x="1552.24" y="-89.4" font-family="Times,serif" font-size="10.00">owner</text>
<text text-anchor="middle" x="1556.02" y="-113.72" font-family="Times,serif" font-size="10.00">account</text>
</g>
<!-- 34d20d6a_bb98_4484_bcad_0250b9b297c7&#45;&gt;c -->
<g id="edge18" class="edge">
<title>34d20d6a_bb98_4484_bcad_0250b9b297c7&#45;&gt;c</title>
<path fill="none" stroke="black" d="M289.22,-121.91C324.96,-101.55 363.61,-79.54 390.68,-64.12"/>
<text text-anchor="middle" x="373.18" y="-67.12" font-family="Times,serif" font-size="10.00">currency</text>
</g>
<!-- 34d20d6a_bb98_4484_bcad_0250b9b297c7&#45;&gt;e9dd259e_d6eb_4c96_9725_950f924f0fc9 -->
<g id="edge19" class="edge">
<title>34d20d6a_bb98_4484_bcad_0250b9b297c7&#45;&gt;e9dd259e_d6eb_4c96_9725_950f924f0fc9</title>
<path fill="none" stroke="black" d="M163.46,-121.72C156.28,-109.96 148.77,-97.66 141.89,-86.4"/>
<text text-anchor="middle" x="129.39" y="-89.4" font-family="Times,serif" font-size="10.00">owner</text>
<text text-anchor="middle" x="147.46" y="-113.72" font-family="Times,serif" font-size="10.00">account</text>
</g>
<!-- sendItToTheBank&#45;&gt;c -->
<g id="edge20" class="edge">
<title>sendItToTheBank&#45;&gt;c</title>
<path fill="none" stroke="black" d="M426,-121.72C426,-101.46 426,-79.58 426,-64.22"/>
<text text-anchor="middle" x="408.5" y="-67.22" font-family="Times,serif" font-size="10.00">currency</text>
</g>
<!-- 8a633aa5_907c_4e57_a313_22e0adb2672e&#45;&gt;c -->
<g id="edge21" class="edge">
<title>8a633aa5_907c_4e57_a313_22e0adb2672e&#45;&gt;c</title>
<path fill="none" stroke="black" d="M1097.33,-133.61C1081.19,-129.22 1064.79,-125.19 1049,-122 897.03,-91.27 855.8,-105.67 702,-86 639.62,-78.02 569.57,-67.34 515.66,-58.75"/>
<text text-anchor="middle" x="533.16" y="-50.75" font-family="Times,serif" font-size="10.00">currency</text>
</g>
<!-- 8a633aa5_907c_4e57_a313_22e0adb2672e&#45;&gt;1eaf6f4c_4f92_4e04_bd87_c82be03265de -->
<g id="edge22" class="edge">
<title>8a633aa5_907c_4e57_a313_22e0adb2672e&#45;&gt;1eaf6f4c_4f92_4e04_bd87_c82be03265de</title>
<path fill="none" stroke="black" d="M1233.98,-121.72C1236.41,-109.96 1238.94,-97.66 1241.26,-86.4"/>
<text text-anchor="middle" x="1228.76" y="-89.4" font-family="Times,serif" font-size="10.00">owner</text>
<text text-anchor="middle" x="1217.98" y="-113.72" font-family="Times,serif" font-size="10.00">account</text>
</g>
<!-- 7ec351d6_652f_4691_8e72_ea432d44a0c8&#45;&gt;c -->
<g id="edge23" class="edge">
<title>7ec351d6_652f_4691_8e72_ea432d44a0c8&#45;&gt;c</title>
<path fill="none" stroke="black" d="M558.62,-121.91C523.97,-101.55 486.49,-79.54 460.25,-64.12"/>
<text text-anchor="middle" x="477.75" y="-67.12" font-family="Times,serif" font-size="10.00">currency</text>
</g>
<!-- 7ec351d6_652f_4691_8e72_ea432d44a0c8&#45;&gt;e2f7bc4c_ef2a_466e_b8a5_d24f48b13afe -->
<g id="edge24" class="edge">
<title>7ec351d6_652f_4691_8e72_ea432d44a0c8&#45;&gt;e2f7bc4c_ef2a_466e_b8a5_d24f48b13afe</title>
<path fill="none" stroke="black" d="M720.33,-121.91C736.34,-109.99 753.11,-97.51 768.42,-86.11"/>
<text text-anchor="middle" x="755.92" y="-89.11" font-family="Times,serif" font-size="10.00">owner</text>
<text text-anchor="middle" x="704.33" y="-113.91" font-family="Times,serif" font-size="10.00">account</text>
</g>
</g>
</svg>
