<?xml version="1.0" encoding="UTF-8" standalone="no"?>
<!DOCTYPE svg PUBLIC "-//W3C//DTD SVG 1.1//EN"
 "http://www.w3.org/Graphics/SVG/1.1/DTD/svg11.dtd">
<!-- Generated by graphviz version 2.44.0 (20200408.0750)
 -->
<!-- Title: model Pages: 1 -->
<svg width="1852px" height="496px"
 viewBox="0.00 0.00 1851.93 496.00" xmlns="http://www.w3.org/2000/svg" xmlns:xlink="http://www.w3.org/1999/xlink">
<g id="graph0" class="graph" transform="scale(1.0 1.0) rotate(0) translate(4 492)">
<title>model</title>
<polygon fill="white" stroke="transparent" points="-4,4 -4,-492 1847.93,-492 1847.93,4 -4,4"/>
<!-- acf0bad8_188b_4426_9475_6ee4cca1eb13 -->
<g id="node1" class="node">
<title>acf0bad8_188b_4426_9475_6ee4cca1eb13</title>
<polygon fill="none" stroke="black" points="962,-466 962,-484 1187,-484 1187,-466 962,-466"/>
<text text-anchor="start" x="964.96" y="-473" font-family="Times,serif" text-decoration="underline" font-size="10.00">acf0bad8&#45;188b&#45;4426&#45;9475&#45;6ee4cca1eb13 :Transaction</text>
<polygon fill="none" stroke="black" points="962,-400 962,-466 1187,-466 1187,-400 962,-400"/>
<text text-anchor="start" x="977.91" y="-454" font-family="Times,serif" font-size="10.00">amount = 20.0</text>
<text text-anchor="start" x="977.91" y="-442" font-family="Times,serif" font-size="10.00">description = &quot;Transaction test&quot;</text>
<text text-anchor="start" x="977.91" y="-430" font-family="Times,serif" font-size="10.00">id = &quot;acf0bad8&#45;188b&#45;4426&#45;9475&#45;6ee4cca1eb13&quot;</text>
<text text-anchor="start" x="977.91" y="-418" font-family="Times,serif" font-size="10.00">rejectionDescription = &quot;&quot;</text>
<text text-anchor="start" x="977.91" y="-406" font-family="Times,serif" font-size="10.00">timestamp = 2021&#45;12&#45;10T00:12:53.372310300</text>
</g>
<!-- b -->
<g id="node2" class="node">
<title>b</title>
<polygon fill="none" stroke="black" points="669,-338 669,-356 1479,-356 1479,-338 669,-338"/>
<text text-anchor="start" x="1058.31" y="-345" font-family="Times,serif" text-decoration="underline" font-size="10.00">b :Bank</text>
<polygon fill="none" stroke="black" points="669,-308 669,-338 1479,-338 1479,-308 669,-308"/>
<text text-anchor="start" x="672" y="-326" font-family="Times,serif" font-size="10.00">accountsMap = d74c9deb&#45;4388&#45;401d&#45;8a52&#45;cf73911512besendItToTheBank8a633aa5&#45;907c&#45;4e57&#45;a313&#45;22e0adb2672e7ec351d6&#45;652f&#45;4691&#45;8e72&#45;ea432d44a0c8af4b0241&#45;0dfe&#45;455d&#45;99c2&#45;824f54fe08c5</text>
<text text-anchor="start" x="672" y="-314" font-family="Times,serif" font-size="10.00">customerMap = 86863995&#45;d2ea&#45;4c87&#45;ab9d&#45;a9b75cef7c89e2f7bc4c&#45;ef2a&#45;466e&#45;b8a5&#45;d24f48b13afe1eaf6f4c&#45;4f92&#45;4e04&#45;bd87&#45;c82be03265dee599c5cf&#45;8548&#45;43dd&#45;99ba&#45;03d908e06031</text>
</g>
<!-- acf0bad8_188b_4426_9475_6ee4cca1eb13&#45;&gt;b -->
<g id="edge1" class="edge">
<title>acf0bad8_188b_4426_9475_6ee4cca1eb13&#45;&gt;b</title>
<path fill="none" stroke="black" d="M1074,-395.82C1074,-383.69 1074,-370.94 1074,-360.12"/>
<text text-anchor="middle" x="1064.28" y="-363.12" font-family="Times,serif" font-size="10.00">bank</text>
</g>
<!-- c -->
<g id="node3" class="node">
<title>c</title>
<polygon fill="none" stroke="black" points="993,-46 993,-64 1155,-64 1155,-46 993,-46"/>
<text text-anchor="start" x="1050.54" y="-53" font-family="Times,serif" text-decoration="underline" font-size="10.00">c :Currency</text>
<polygon fill="none" stroke="black" points="993,-28 993,-46 1155,-46 1155,-28 993,-28"/>
<text text-anchor="start" x="996" y="-34" font-family="Times,serif" font-size="10.00">declaringClass = class model.Currency</text>
</g>
<!-- acf0bad8_188b_4426_9475_6ee4cca1eb13&#45;&gt;c -->
<g id="edge2" class="edge">
<title>acf0bad8_188b_4426_9475_6ee4cca1eb13&#45;&gt;c</title>
<path fill="none" stroke="black" d="M1194.6,-431.1C1447.18,-406.17 1993.4,-327.95 1805,-128 1758.82,-78.99 1265.98,-105.46 1200,-92 1173.83,-86.66 1145.74,-77.04 1122.74,-68.06"/>
<text text-anchor="middle" x="1105.26" y="-71.06" font-family="Times,serif" font-size="10.00">currency</text>
</g>
<!-- d74c9deb_4388_401d_8a52_cf73911512be -->
<g id="node4" class="node">
<title>d74c9deb_4388_401d_8a52_cf73911512be</title>
<polygon fill="none" stroke="black" points="1524,-240 1524,-258 1788,-258 1788,-240 1524,-240"/>
<text text-anchor="start" x="1552" y="-247" font-family="Times,serif" text-decoration="underline" font-size="10.00">d74c9deb&#45;4388&#45;401d&#45;8a52&#45;cf73911512be :Account</text>
<polygon fill="none" stroke="black" points="1524,-138 1524,-240 1788,-240 1788,-138 1524,-138"/>
<text text-anchor="start" x="1527" y="-228" font-family="Times,serif" font-size="10.00">balance = 20.0</text>
<text text-anchor="start" x="1527" y="-216" font-family="Times,serif" font-size="10.00">count = 0</text>
<text text-anchor="start" x="1527" y="-204" font-family="Times,serif" font-size="10.00">customerId = null</text>
<text text-anchor="start" x="1527" y="-192" font-family="Times,serif" font-size="10.00">iban = &quot;EE717467920597505488&quot;</text>
<text text-anchor="start" x="1527" y="-180" font-family="Times,serif" font-size="10.00">id = &quot;d74c9deb&#45;4388&#45;401d&#45;8a52&#45;cf73911512be&quot;</text>
<text text-anchor="start" x="1527" y="-168" font-family="Times,serif" font-size="10.00">receivedTransaction = acf0bad8&#45;188b&#45;4426&#45;9475&#45;6ee4cca1eb13</text>
<text text-anchor="start" x="1527" y="-156" font-family="Times,serif" font-size="10.00">sentTransaction = </text>
<text text-anchor="start" x="1527" y="-144" font-family="Times,serif" font-size="10.00">status = &quot;ACTIVE&quot;</text>
</g>
<!-- acf0bad8_188b_4426_9475_6ee4cca1eb13&#45;&gt;d74c9deb_4388_401d_8a52_cf73911512be -->
<g id="edge3" class="edge">
<title>acf0bad8_188b_4426_9475_6ee4cca1eb13&#45;&gt;d74c9deb_4388_401d_8a52_cf73911512be</title>
<path fill="none" stroke="black" d="M1194.74,-431.95C1317.47,-420.78 1497.47,-398.41 1555,-360 1589.99,-336.64 1615.18,-296.61 1631.65,-262.31"/>
<text text-anchor="middle" x="1653.59" y="-265.31" font-family="Times,serif" font-size="10.00">destination</text>
<text text-anchor="middle" x="1279.44" y="-434.95" font-family="Times,serif" font-size="10.00">allTransactionsWithSignAndOrderedDesc</text>
</g>
<!-- af4b0241_0dfe_455d_99c2_824f54fe08c5 -->
<g id="node5" class="node">
<title>af4b0241_0dfe_455d_99c2_824f54fe08c5</title>
<polygon fill="none" stroke="black" points="8,-246 8,-264 322,-264 322,-246 8,-246"/>
<text text-anchor="start" x="63.51" y="-253" font-family="Times,serif" text-decoration="underline" font-size="10.00">af4b0241&#45;0dfe&#45;455d&#45;99c2&#45;824f54fe08c5 :Account</text>
<polygon fill="none" stroke="black" points="8,-132 8,-246 322,-246 322,-132 8,-132"/>
<text text-anchor="start" x="11" y="-234" font-family="Times,serif" font-size="10.00">allTransactionsWithSignAndOrderedDesc = [model.Transaction@7583fd1b]</text>
<text text-anchor="start" x="11" y="-222" font-family="Times,serif" font-size="10.00">balance = 1.0</text>
<text text-anchor="start" x="11" y="-210" font-family="Times,serif" font-size="10.00">count = 1</text>
<text text-anchor="start" x="11" y="-198" font-family="Times,serif" font-size="10.00">customerId = null</text>
<text text-anchor="start" x="11" y="-186" font-family="Times,serif" font-size="10.00">iban = &quot;EE189975821570618713&quot;</text>
<text text-anchor="start" x="11" y="-174" font-family="Times,serif" font-size="10.00">id = &quot;af4b0241&#45;0dfe&#45;455d&#45;99c2&#45;824f54fe08c5&quot;</text>
<text text-anchor="start" x="11" y="-162" font-family="Times,serif" font-size="10.00">receivedTransaction = </text>
<text text-anchor="start" x="11" y="-150" font-family="Times,serif" font-size="10.00">sentTransaction = acf0bad8&#45;188b&#45;4426&#45;9475&#45;6ee4cca1eb13</text>
<text text-anchor="start" x="11" y="-138" font-family="Times,serif" font-size="10.00">status = &quot;ACTIVE&quot;</text>
</g>
<!-- acf0bad8_188b_4426_9475_6ee4cca1eb13&#45;&gt;af4b0241_0dfe_455d_99c2_824f54fe08c5 -->
<g id="edge4" class="edge">
<title>acf0bad8_188b_4426_9475_6ee4cca1eb13&#45;&gt;af4b0241_0dfe_455d_99c2_824f54fe08c5</title>
<path fill="none" stroke="black" d="M953.47,-428.09C846.83,-414.84 700.8,-391.7 652,-360 626.56,-343.48 638.93,-319.74 613,-304 506.5,-239.35 455.49,-299.69 335,-268 333.46,-267.59 331.91,-267.18 330.37,-266.75"/>
<text text-anchor="middle" x="343.41" y="-269.75" font-family="Times,serif" font-size="10.00">source</text>
</g>
<!-- s -->
<g id="node6" class="node">
<title>s</title>
<polygon fill="none" stroke="black" points="396,-332 396,-350 597,-350 597,-332 396,-332"/>
<text text-anchor="start" x="479.69" y="-339" font-family="Times,serif" text-decoration="underline" font-size="10.00">s :Status</text>
<polygon fill="none" stroke="black" points="396,-314 396,-332 597,-332 597,-314 396,-314"/>
<text text-anchor="start" x="399" y="-320" font-family="Times,serif" font-size="10.00">declaringClass = class model.Transaction$Status</text>
</g>
<!-- acf0bad8_188b_4426_9475_6ee4cca1eb13&#45;&gt;s -->
<g id="edge5" class="edge">
<title>acf0bad8_188b_4426_9475_6ee4cca1eb13&#45;&gt;s</title>
<path fill="none" stroke="black" d="M953.05,-420.82C861.22,-405.17 731.93,-382.44 619,-360 609.56,-358.13 599.74,-356.1 589.94,-354.02"/>
<text text-anchor="middle" x="578.55" y="-357.02" font-family="Times,serif" font-size="10.00">status</text>
</g>
<!-- b&#45;&gt;d74c9deb_4388_401d_8a52_cf73911512be -->
<g id="edge10" class="edge">
<title>b&#45;&gt;d74c9deb_4388_401d_8a52_cf73911512be</title>
<path fill="none" stroke="black" d="M1336.75,-303.97C1391.94,-295.06 1449.36,-283.35 1502,-268 1508.19,-266.2 1514.45,-264.19 1520.73,-262.04"/>
<text text-anchor="middle" x="1503.23" y="-265.04" font-family="Times,serif" font-size="10.00">accounts</text>
<text text-anchor="middle" x="1327.03" y="-294.97" font-family="Times,serif" font-size="10.00">bank</text>
</g>
<!-- b&#45;&gt;af4b0241_0dfe_455d_99c2_824f54fe08c5 -->
<g id="edge9" class="edge">
<title>b&#45;&gt;af4b0241_0dfe_455d_99c2_824f54fe08c5</title>
<path fill="none" stroke="black" d="M698.24,-304C570.13,-293.24 443.71,-280.47 382,-268 365.05,-264.58 347.55,-260.31 330.19,-255.58"/>
<text text-anchor="middle" x="347.68" y="-246.58" font-family="Times,serif" font-size="10.00">accounts</text>
<text text-anchor="middle" x="688.52" y="-295" font-family="Times,serif" font-size="10.00">bank</text>
</g>
<!-- sendItToTheBank -->
<g id="node7" class="node">
<title>sendItToTheBank</title>
<polygon fill="none" stroke="black" points="1002,-240 1002,-258 1146,-258 1146,-240 1002,-240"/>
<text text-anchor="start" x="1018.32" y="-247" font-family="Times,serif" text-decoration="underline" font-size="10.00">sendItToTheBank :Account</text>
<polygon fill="none" stroke="black" points="1002,-138 1002,-240 1146,-240 1146,-138 1002,-138"/>
<text text-anchor="start" x="1005" y="-228" font-family="Times,serif" font-size="10.00">balance = 69420.0</text>
<text text-anchor="start" x="1005" y="-216" font-family="Times,serif" font-size="10.00">count = 0</text>
<text text-anchor="start" x="1005" y="-204" font-family="Times,serif" font-size="10.00">customerId = null</text>
<text text-anchor="start" x="1005" y="-192" font-family="Times,serif" font-size="10.00">iban = &quot;EE351114530700131112&quot;</text>
<text text-anchor="start" x="1005" y="-180" font-family="Times,serif" font-size="10.00">id = &quot;sendItToTheBank&quot;</text>
<text text-anchor="start" x="1005" y="-168" font-family="Times,serif" font-size="10.00">receivedTransaction = </text>
<text text-anchor="start" x="1005" y="-156" font-family="Times,serif" font-size="10.00">sentTransaction = </text>
<text text-anchor="start" x="1005" y="-144" font-family="Times,serif" font-size="10.00">status = &quot;ACTIVE&quot;</text>
</g>
<!-- b&#45;&gt;sendItToTheBank -->
<g id="edge6" class="edge">
<title>b&#45;&gt;sendItToTheBank</title>
<path fill="none" stroke="black" d="M1074,-303.97C1074,-291.83 1074,-276.94 1074,-262.24"/>
<text text-anchor="middle" x="1047.34" y="-265.24" font-family="Times,serif" font-size="10.00">bankAccount</text>
<text text-anchor="middle" x="1064.28" y="-294.97" font-family="Times,serif" font-size="10.00">bank</text>
</g>
<!-- 8a633aa5_907c_4e57_a313_22e0adb2672e -->
<g id="node8" class="node">
<title>8a633aa5_907c_4e57_a313_22e0adb2672e</title>
<polygon fill="none" stroke="black" points="1180,-240 1180,-258 1414,-258 1414,-240 1180,-240"/>
<text text-anchor="start" x="1193.29" y="-247" font-family="Times,serif" text-decoration="underline" font-size="10.00">8a633aa5&#45;907c&#45;4e57&#45;a313&#45;22e0adb2672e :Account</text>
<polygon fill="none" stroke="black" points="1180,-138 1180,-240 1414,-240 1414,-138 1180,-138"/>
<text text-anchor="start" x="1183" y="-228" font-family="Times,serif" font-size="10.00">balance = 0.0</text>
<text text-anchor="start" x="1183" y="-216" font-family="Times,serif" font-size="10.00">count = 0</text>
<text text-anchor="start" x="1183" y="-204" font-family="Times,serif" font-size="10.00">customerId = &quot;1eaf6f4c&#45;4f92&#45;4e04&#45;bd87&#45;c82be03265de&quot;</text>
<text text-anchor="start" x="1183" y="-192" font-family="Times,serif" font-size="10.00">iban = &quot;EE500467859057350272&quot;</text>
<text text-anchor="start" x="1183" y="-180" font-family="Times,serif" font-size="10.00">id = &quot;8a633aa5&#45;907c&#45;4e57&#45;a313&#45;22e0adb2672e&quot;</text>
<text text-anchor="start" x="1183" y="-168" font-family="Times,serif" font-size="10.00">receivedTransaction = </text>
<text text-anchor="start" x="1183" y="-156" font-family="Times,serif" font-size="10.00">sentTransaction = </text>
<text text-anchor="start" x="1183" y="-144" font-family="Times,serif" font-size="10.00">status = &quot;ACTIVE&quot;</text>
</g>
<!-- b&#45;&gt;8a633aa5_907c_4e57_a313_22e0adb2672e -->
<g id="edge7" class="edge">
<title>b&#45;&gt;8a633aa5_907c_4e57_a313_22e0adb2672e</title>
<path fill="none" stroke="black" d="M1119.67,-303.97C1140.18,-291.83 1165.33,-276.94 1190.17,-262.24"/>
<text text-anchor="middle" x="1172.68" y="-265.24" font-family="Times,serif" font-size="10.00">accounts</text>
<text text-anchor="middle" x="1109.95" y="-294.97" font-family="Times,serif" font-size="10.00">bank</text>
</g>
<!-- 7ec351d6_652f_4691_8e72_ea432d44a0c8 -->
<g id="node9" class="node">
<title>7ec351d6_652f_4691_8e72_ea432d44a0c8</title>
<polygon fill="none" stroke="black" points="471,-240 471,-258 702,-258 702,-240 471,-240"/>
<text text-anchor="start" x="483.06" y="-247" font-family="Times,serif" text-decoration="underline" font-size="10.00">7ec351d6&#45;652f&#45;4691&#45;8e72&#45;ea432d44a0c8 :Account</text>
<polygon fill="none" stroke="black" points="471,-138 471,-240 702,-240 702,-138 471,-138"/>
<text text-anchor="start" x="474" y="-228" font-family="Times,serif" font-size="10.00">balance = 100.0</text>
<text text-anchor="start" x="474" y="-216" font-family="Times,serif" font-size="10.00">count = 0</text>
<text text-anchor="start" x="474" y="-204" font-family="Times,serif" font-size="10.00">customerId = &quot;e2f7bc4c&#45;ef2a&#45;466e&#45;b8a5&#45;d24f48b13afe&quot;</text>
<text text-anchor="start" x="474" y="-192" font-family="Times,serif" font-size="10.00">iban = &quot;EE508166157234538669&quot;</text>
<text text-anchor="start" x="474" y="-180" font-family="Times,serif" font-size="10.00">id = &quot;7ec351d6&#45;652f&#45;4691&#45;8e72&#45;ea432d44a0c8&quot;</text>
<text text-anchor="start" x="474" y="-168" font-family="Times,serif" font-size="10.00">receivedTransaction = </text>
<text text-anchor="start" x="474" y="-156" font-family="Times,serif" font-size="10.00">sentTransaction = </text>
<text text-anchor="start" x="474" y="-144" font-family="Times,serif" font-size="10.00">status = &quot;ACTIVE&quot;</text>
</g>
<!-- b&#45;&gt;7ec351d6_652f_4691_8e72_ea432d44a0c8 -->
<g id="edge8" class="edge">
<title>b&#45;&gt;7ec351d6_652f_4691_8e72_ea432d44a0c8</title>
<path fill="none" stroke="black" d="M860.63,-303.94C813.31,-294.97 763.9,-283.23 719,-268 713.7,-266.2 708.36,-264.22 703.01,-262.1"/>
<text text-anchor="middle" x="685.52" y="-265.1" font-family="Times,serif" font-size="10.00">accounts</text>
<text text-anchor="middle" x="850.91" y="-294.94" font-family="Times,serif" font-size="10.00">bank</text>
</g>
<!-- 9a65c955_9767_4747_86b8_fea8e67fabbf -->
<g id="node10" class="node">
<title>9a65c955_9767_4747_86b8_fea8e67fabbf</title>
<polygon fill="none" stroke="black" points="736,-222 736,-240 968,-240 968,-222 736,-222"/>
<text text-anchor="start" x="738.84" y="-229" font-family="Times,serif" text-decoration="underline" font-size="10.00">9a65c955&#45;9767&#45;4747&#45;86b8&#45;fea8e67fabbf :Administrator</text>
<polygon fill="none" stroke="black" points="736,-156 736,-222 968,-222 968,-156 736,-156"/>
<text text-anchor="start" x="756.24" y="-210" font-family="Times,serif" font-size="10.00">email = &quot;admin@bank.ee&quot;</text>
<text text-anchor="start" x="756.24" y="-198" font-family="Times,serif" font-size="10.00">firstName = &quot;Admin&quot;</text>
<text text-anchor="start" x="756.24" y="-186" font-family="Times,serif" font-size="10.00">id = &quot;9a65c955&#45;9767&#45;4747&#45;86b8&#45;fea8e67fabbf&quot;</text>
<text text-anchor="start" x="756.24" y="-174" font-family="Times,serif" font-size="10.00">lastName = &quot;ALice&quot;</text>
<text text-anchor="start" x="756.24" y="-162" font-family="Times,serif" font-size="10.00">password = &quot;secure_p@ssw0|2d&quot;</text>
</g>
<!-- b&#45;&gt;9a65c955_9767_4747_86b8_fea8e67fabbf -->
<g id="edge11" class="edge">
<title>b&#45;&gt;9a65c955_9767_4747_86b8_fea8e67fabbf</title>
<path fill="none" stroke="black" d="M1028.54,-303.97C999.62,-286.77 961.44,-264.08 928,-244.19"/>
<text text-anchor="middle" x="899.39" y="-247.19" font-family="Times,serif" font-size="10.00">administrators</text>
<text text-anchor="middle" x="1018.82" y="-294.97" font-family="Times,serif" font-size="10.00">bank</text>
</g>
<!-- e2f7bc4c_ef2a_466e_b8a5_d24f48b13afe -->
<g id="node11" class="node">
<title>e2f7bc4c_ef2a_466e_b8a5_d24f48b13afe</title>
<polygon fill="none" stroke="black" points="405,-70 405,-88 616,-88 616,-70 405,-70"/>
<text text-anchor="start" x="407.63" y="-77" font-family="Times,serif" text-decoration="underline" font-size="10.00">e2f7bc4c&#45;ef2a&#45;466e&#45;b8a5&#45;d24f48b13afe :Customer</text>
<polygon fill="none" stroke="black" points="405,-4 405,-70 616,-70 616,-4 405,-4"/>
<text text-anchor="start" x="416.42" y="-58" font-family="Times,serif" font-size="10.00">email = &quot;john@doe.ee&quot;</text>
<text text-anchor="start" x="416.42" y="-46" font-family="Times,serif" font-size="10.00">firstName = &quot;John&quot;</text>
<text text-anchor="start" x="416.42" y="-34" font-family="Times,serif" font-size="10.00">id = &quot;e2f7bc4c&#45;ef2a&#45;466e&#45;b8a5&#45;d24f48b13afe&quot;</text>
<text text-anchor="start" x="416.42" y="-22" font-family="Times,serif" font-size="10.00">lastName = &quot;Doe&quot;</text>
<text text-anchor="start" x="416.42" y="-10" font-family="Times,serif" font-size="10.00">password = &quot;pass1234&quot;</text>
</g>
<!-- b&#45;&gt;e2f7bc4c_ef2a_466e_b8a5_d24f48b13afe -->
<g id="edge12" class="edge">
<title>b&#45;&gt;e2f7bc4c_ef2a_466e_b8a5_d24f48b13afe</title>
<path fill="none" stroke="black" d="M711.71,-304C581.17,-292.48 463.08,-279.16 453,-268 411.28,-221.84 434.22,-187.32 453,-128 456.94,-115.54 463.57,-103.34 470.94,-92.34"/>
<text text-anchor="middle" x="450.67" y="-95.34" font-family="Times,serif" font-size="10.00">customers</text>
<text text-anchor="middle" x="721.43" y="-295" font-family="Times,serif" font-size="10.00">bank</text>
</g>
<!-- 1eaf6f4c_4f92_4e04_bd87_c82be03265de -->
<g id="node12" class="node">
<title>1eaf6f4c_4f92_4e04_bd87_c82be03265de</title>
<polygon fill="none" stroke="black" points="1217,-70 1217,-88 1431,-88 1431,-70 1217,-70"/>
<text text-anchor="start" x="1219.73" y="-77" font-family="Times,serif" text-decoration="underline" font-size="10.00">1eaf6f4c&#45;4f92&#45;4e04&#45;bd87&#45;c82be03265de :Customer</text>
<polygon fill="none" stroke="black" points="1217,-4 1217,-70 1431,-70 1431,-4 1217,-4"/>
<text text-anchor="start" x="1228.52" y="-58" font-family="Times,serif" font-size="10.00">email = &quot;bobby@tt.ee&quot;</text>
<text text-anchor="start" x="1228.52" y="-46" font-family="Times,serif" font-size="10.00">firstName = &quot;Bob&quot;</text>
<text text-anchor="start" x="1228.52" y="-34" font-family="Times,serif" font-size="10.00">id = &quot;1eaf6f4c&#45;4f92&#45;4e04&#45;bd87&#45;c82be03265de&quot;</text>
<text text-anchor="start" x="1228.52" y="-22" font-family="Times,serif" font-size="10.00">lastName = &quot;Jackson&quot;</text>
<text text-anchor="start" x="1228.52" y="-10" font-family="Times,serif" font-size="10.00">password = &quot;secret&quot;</text>
</g>
<!-- b&#45;&gt;1eaf6f4c_4f92_4e04_bd87_c82be03265de -->
<g id="edge13" class="edge">
<title>b&#45;&gt;1eaf6f4c_4f92_4e04_bd87_c82be03265de</title>
<path fill="none" stroke="black" d="M1352.95,-303.98C1389.05,-295.17 1418,-283.49 1431,-268 1470.99,-220.33 1458.7,-183.72 1431,-128 1424.21,-114.34 1413.88,-102.36 1402.28,-92.11"/>
<text text-anchor="middle" x="1382.01" y="-95.11" font-family="Times,serif" font-size="10.00">customers</text>
<text text-anchor="middle" x="1362.67" y="-294.98" font-family="Times,serif" font-size="10.00">bank</text>
</g>
<!-- 86863995_d2ea_4c87_ab9d_a9b75cef7c89 -->
<g id="node13" class="node">
<title>86863995_d2ea_4c87_ab9d_a9b75cef7c89</title>
<polygon fill="none" stroke="black" points="144,-70 144,-88 361,-88 361,-70 144,-70"/>
<text text-anchor="start" x="146.84" y="-77" font-family="Times,serif" text-decoration="underline" font-size="10.00">86863995&#45;d2ea&#45;4c87&#45;ab9d&#45;a9b75cef7c89 :Customer</text>
<polygon fill="none" stroke="black" points="144,-4 144,-70 361,-70 361,-4 144,-4"/>
<text text-anchor="start" x="155.63" y="-58" font-family="Times,serif" font-size="10.00">email = &quot;bobbytest@tt.ee&quot;</text>
<text text-anchor="start" x="155.63" y="-46" font-family="Times,serif" font-size="10.00">firstName = &quot;Bob&quot;</text>
<text text-anchor="start" x="155.63" y="-34" font-family="Times,serif" font-size="10.00">id = &quot;86863995&#45;d2ea&#45;4c87&#45;ab9d&#45;a9b75cef7c89&quot;</text>
<text text-anchor="start" x="155.63" y="-22" font-family="Times,serif" font-size="10.00">lastName = &quot;Jackson&quot;</text>
<text text-anchor="start" x="155.63" y="-10" font-family="Times,serif" font-size="10.00">password = &quot;secret&quot;</text>
</g>
<!-- b&#45;&gt;86863995_d2ea_4c87_ab9d_a9b75cef7c89 -->
<g id="edge14" class="edge">
<title>b&#45;&gt;86863995_d2ea_4c87_ab9d_a9b75cef7c89</title>
<path fill="none" stroke="black" d="M660.67,-304.94C547.45,-294.95 449.22,-282.43 426,-268 363.77,-229.34 385.55,-184.57 339,-128 328.9,-115.73 317.01,-103.51 305.31,-92.43"/>
<text text-anchor="middle" x="285.04" y="-95.43" font-family="Times,serif" font-size="10.00">customers</text>
<text text-anchor="middle" x="650.95" y="-307.94" font-family="Times,serif" font-size="10.00">bank</text>
</g>
<!-- e599c5cf_8548_43dd_99ba_03d908e06031 -->
<g id="node14" class="node">
<title>e599c5cf_8548_43dd_99ba_03d908e06031</title>
<polygon fill="none" stroke="black" points="1520,-70 1520,-88 1739,-88 1739,-70 1520,-70"/>
<text text-anchor="start" x="1523" y="-77" font-family="Times,serif" text-decoration="underline" font-size="10.00">e599c5cf&#45;8548&#45;43dd&#45;99ba&#45;03d908e06031 :Customer</text>
<polygon fill="none" stroke="black" points="1520,-4 1520,-70 1739,-70 1739,-4 1520,-4"/>
<text text-anchor="start" x="1531.79" y="-58" font-family="Times,serif" font-size="10.00">email = &quot;johntest@doe.ee&quot;</text>
<text text-anchor="start" x="1531.79" y="-46" font-family="Times,serif" font-size="10.00">firstName = &quot;johntest&quot;</text>
<text text-anchor="start" x="1531.79" y="-34" font-family="Times,serif" font-size="10.00">id = &quot;e599c5cf&#45;8548&#45;43dd&#45;99ba&#45;03d908e06031&quot;</text>
<text text-anchor="start" x="1531.79" y="-22" font-family="Times,serif" font-size="10.00">lastName = &quot;Doe&quot;</text>
<text text-anchor="start" x="1531.79" y="-10" font-family="Times,serif" font-size="10.00">password = &quot;pass1234&quot;</text>
</g>
<!-- b&#45;&gt;e599c5cf_8548_43dd_99ba_03d908e06031 -->
<g id="edge15" class="edge">
<title>b&#45;&gt;e599c5cf_8548_43dd_99ba_03d908e06031</title>
<path fill="none" stroke="black" d="M1355.71,-303.96C1400.73,-295.08 1438.57,-283.38 1457,-268 1507.73,-225.67 1466.29,-180.04 1507,-128 1517.57,-114.48 1531.05,-102.46 1545.17,-92.09"/>
<text text-anchor="middle" x="1524.9" y="-95.09" font-family="Times,serif" font-size="10.00">customers</text>
<text text-anchor="middle" x="1345.99" y="-294.96" font-family="Times,serif" font-size="10.00">bank</text>
</g>
<!-- d74c9deb_4388_401d_8a52_cf73911512be&#45;&gt;c -->
<g id="edge16" class="edge">
<title>d74c9deb_4388_401d_8a52_cf73911512be&#45;&gt;c</title>
<path fill="none" stroke="black" d="M1515.81,-150.63C1487.9,-142.36 1458.67,-134.37 1431,-128 1329.74,-104.71 1300.71,-117.59 1200,-92 1175.24,-85.71 1148.49,-76.51 1126.04,-68.08"/>
<text text-anchor="middle" x="1143.52" y="-71.08" font-family="Times,serif" font-size="10.00">currency</text>
</g>
<!-- d74c9deb_4388_401d_8a52_cf73911512be&#45;&gt;e599c5cf_8548_43dd_99ba_03d908e06031 -->
<g id="edge17" class="edge">
<title>d74c9deb_4388_401d_8a52_cf73911512be&#45;&gt;e599c5cf_8548_43dd_99ba_03d908e06031</title>
<path fill="none" stroke="black" d="M1644.63,-133.82C1642.12,-119.89 1639.51,-105.4 1637.16,-92.34"/>
<text text-anchor="middle" x="1624.67" y="-95.34" font-family="Times,serif" font-size="10.00">owner</text>
<text text-anchor="middle" x="1629.08" y="-124.82" font-family="Times,serif" font-size="10.00">account</text>
</g>
<!-- af4b0241_0dfe_455d_99c2_824f54fe08c5&#45;&gt;c -->
<g id="edge18" class="edge">
<title>af4b0241_0dfe_455d_99c2_824f54fe08c5&#45;&gt;c</title>
<path fill="none" stroke="black" d="M330.31,-131.56C334.9,-130.3 339.47,-129.1 344,-128 374.74,-120.5 796.71,-75.93 984.71,-56.29"/>
<text text-anchor="middle" x="967.22" y="-47.29" font-family="Times,serif" font-size="10.00">currency</text>
</g>
<!-- af4b0241_0dfe_455d_99c2_824f54fe08c5&#45;&gt;86863995_d2ea_4c87_ab9d_a9b75cef7c89 -->
<g id="edge19" class="edge">
<title>af4b0241_0dfe_455d_99c2_824f54fe08c5&#45;&gt;86863995_d2ea_4c87_ab9d_a9b75cef7c89</title>
<path fill="none" stroke="black" d="M205.19,-127.71C212.22,-115.58 219.37,-103.25 225.9,-92"/>
<text text-anchor="middle" x="213.41" y="-95" font-family="Times,serif" font-size="10.00">owner</text>
<text text-anchor="middle" x="189.64" y="-118.71" font-family="Times,serif" font-size="10.00">account</text>
</g>
<!-- sendItToTheBank&#45;&gt;c -->
<g id="edge20" class="edge">
<title>sendItToTheBank&#45;&gt;c</title>
<path fill="none" stroke="black" d="M1074,-133.82C1074,-110.28 1074,-85.15 1074,-68.01"/>
<text text-anchor="middle" x="1056.51" y="-71.01" font-family="Times,serif" font-size="10.00">currency</text>
</g>
<!-- 8a633aa5_907c_4e57_a313_22e0adb2672e&#45;&gt;c -->
<g id="edge21" class="edge">
<title>8a633aa5_907c_4e57_a313_22e0adb2672e&#45;&gt;c</title>
<path fill="none" stroke="black" d="M1203.07,-133.82C1168.08,-110.28 1130.71,-85.15 1105.24,-68.01"/>
<text text-anchor="middle" x="1087.75" y="-71.01" font-family="Times,serif" font-size="10.00">currency</text>
</g>
<!-- 8a633aa5_907c_4e57_a313_22e0adb2672e&#45;&gt;1eaf6f4c_4f92_4e04_bd87_c82be03265de -->
<g id="edge22" class="edge">
<title>8a633aa5_907c_4e57_a313_22e0adb2672e&#45;&gt;1eaf6f4c_4f92_4e04_bd87_c82be03265de</title>
<path fill="none" stroke="black" d="M1308.37,-133.82C1310.88,-119.89 1313.49,-105.4 1315.84,-92.34"/>
<text text-anchor="middle" x="1303.35" y="-95.34" font-family="Times,serif" font-size="10.00">owner</text>
<text text-anchor="middle" x="1292.82" y="-124.82" font-family="Times,serif" font-size="10.00">account</text>
</g>
<!-- 7ec351d6_652f_4691_8e72_ea432d44a0c8&#45;&gt;c -->
<g id="edge23" class="edge">
<title>7ec351d6_652f_4691_8e72_ea432d44a0c8&#45;&gt;c</title>
<path fill="none" stroke="black" d="M703.87,-133.92C708.94,-131.82 713.99,-129.84 719,-128 806.84,-95.79 911.77,-73.75 984.66,-60.89"/>
<text text-anchor="middle" x="967.18" y="-63.89" font-family="Times,serif" font-size="10.00">currency</text>
</g>
<!-- 7ec351d6_652f_4691_8e72_ea432d44a0c8&#45;&gt;e2f7bc4c_ef2a_466e_b8a5_d24f48b13afe -->
<g id="edge24" class="edge">
<title>7ec351d6_652f_4691_8e72_ea432d44a0c8&#45;&gt;e2f7bc4c_ef2a_466e_b8a5_d24f48b13afe</title>
<path fill="none" stroke="black" d="M553.99,-133.82C546.93,-119.89 539.59,-105.4 532.97,-92.34"/>
<text text-anchor="middle" x="520.48" y="-95.34" font-family="Times,serif" font-size="10.00">owner</text>
<text text-anchor="middle" x="538.44" y="-124.82" font-family="Times,serif" font-size="10.00">account</text>
</g>
<!-- acf0bad8_188b_4426_9475_6ee4cca1eb131 -->
<g id="node15" class="node">
<title>acf0bad8_188b_4426_9475_6ee4cca1eb131</title>
<polygon fill="none" stroke="black" points="384,-466 384,-484 609,-484 609,-466 384,-466"/>
<text text-anchor="start" x="386.96" y="-473" font-family="Times,serif" text-decoration="underline" font-size="10.00">acf0bad8&#45;188b&#45;4426&#45;9475&#45;6ee4cca1eb13 :Transaction</text>
<polygon fill="none" stroke="black" points="384,-400 384,-466 609,-466 609,-400 384,-400"/>
<text text-anchor="start" x="399.91" y="-454" font-family="Times,serif" font-size="10.00">amount = &#45;20.0</text>
<text text-anchor="start" x="399.91" y="-442" font-family="Times,serif" font-size="10.00">description = &quot;Transaction test&quot;</text>
<text text-anchor="start" x="399.91" y="-430" font-family="Times,serif" font-size="10.00">id = &quot;acf0bad8&#45;188b&#45;4426&#45;9475&#45;6ee4cca1eb13&quot;</text>
<text text-anchor="start" x="399.91" y="-418" font-family="Times,serif" font-size="10.00">rejectionDescription = &quot;&quot;</text>
<text text-anchor="start" x="399.91" y="-406" font-family="Times,serif" font-size="10.00">timestamp = 2021&#45;12&#45;10T00:12:53.372310300</text>
</g>
<!-- acf0bad8_188b_4426_9475_6ee4cca1eb131&#45;&gt;b -->
<g id="edge25" class="edge">
<title>acf0bad8_188b_4426_9475_6ee4cca1eb131&#45;&gt;b</title>
<path fill="none" stroke="black" d="M616.82,-418.43C707.82,-401.42 832.96,-378.04 929.31,-360.04"/>
<text text-anchor="middle" x="919.59" y="-363.04" font-family="Times,serif" font-size="10.00">bank</text>
</g>
<!-- acf0bad8_188b_4426_9475_6ee4cca1eb131&#45;&gt;c -->
<g id="edge26" class="edge">
<title>acf0bad8_188b_4426_9475_6ee4cca1eb131&#45;&gt;c</title>
<path fill="none" stroke="black" d="M408.36,-395.92C396.14,-385.79 385.29,-373.85 378,-360 337.11,-282.34 423.07,-150.7 453,-128 473.95,-112.11 818.02,-73.96 984.78,-56.29"/>
<text text-anchor="middle" x="967.29" y="-59.29" font-family="Times,serif" font-size="10.00">currency</text>
</g>
<!-- acf0bad8_188b_4426_9475_6ee4cca1eb131&#45;&gt;d74c9deb_4388_401d_8a52_cf73911512be -->
<g id="edge27" class="edge">
<title>acf0bad8_188b_4426_9475_6ee4cca1eb131&#45;&gt;d74c9deb_4388_401d_8a52_cf73911512be</title>
<path fill="none" stroke="black" d="M616.64,-427.73C706.75,-418.09 832.99,-405.19 944,-396 1066.51,-385.86 1384.1,-410.89 1496,-360 1502.48,-357.05 1552.62,-306.14 1595.07,-262.34"/>
<text text-anchor="middle" x="1573.13" y="-265.34" font-family="Times,serif" font-size="10.00">destination</text>
</g>
<!-- acf0bad8_188b_4426_9475_6ee4cca1eb131&#45;&gt;af4b0241_0dfe_455d_99c2_824f54fe08c5 -->
<g id="edge28" class="edge">
<title>acf0bad8_188b_4426_9475_6ee4cca1eb131&#45;&gt;af4b0241_0dfe_455d_99c2_824f54fe08c5</title>
<path fill="none" stroke="black" d="M402.64,-395.86C382.74,-384.98 362.25,-372.78 344,-360 305.32,-332.9 265.91,-298.36 233.95,-268.22"/>
<text text-anchor="middle" x="220.9" y="-271.22" font-family="Times,serif" font-size="10.00">source</text>
</g>
<!-- acf0bad8_188b_4426_9475_6ee4cca1eb131&#45;&gt;s -->
<g id="edge29" class="edge">
<title>acf0bad8_188b_4426_9475_6ee4cca1eb131&#45;&gt;s</title>
<path fill="none" stroke="black" d="M496,-395.82C496,-381.37 496,-366.06 496,-354.16"/>
<text text-anchor="middle" x="484.61" y="-357.16" font-family="Times,serif" font-size="10.00">status</text>
</g>
</g>
</svg>
