<?xml version="1.0" encoding="UTF-8" standalone="no"?>
<!DOCTYPE svg PUBLIC "-//W3C//DTD SVG 1.1//EN"
 "http://www.w3.org/Graphics/SVG/1.1/DTD/svg11.dtd">
<!-- Generated by graphviz version 2.49.3 (20211023.0002)
 -->
<!-- Title: model Pages: 1 -->
<svg width="1325px" height="471px"
 viewBox="0.00 0.00 1324.69 471.00" xmlns="http://www.w3.org/2000/svg" xmlns:xlink="http://www.w3.org/1999/xlink">
<g id="graph0" class="graph" transform="scale(1.0 1.0) rotate(0) translate(4 467)">
<title>model</title>
<polygon fill="white" stroke="transparent" points="-4,4 -4,-467 1320.69,-467 1320.69,4 -4,4"/>
<!-- ca7374ac_c18c_4477_996a_bb1a48b1a815 -->
<g id="node1" class="node">
<title>ca7374ac_c18c_4477_996a_bb1a48b1a815</title>
<polygon fill="none" stroke="black" points="39.08,-442 39.08,-459 253.08,-459 253.08,-442 39.08,-442"/>
<text text-anchor="start" x="42.08" y="-449" font-family="Times,serif" text-decoration="underline" font-size="10.00">ca7374ac&#45;c18c&#45;4477&#45;996a&#45;bb1a48b1a815 :Account</text>
<polygon fill="none" stroke="black" points="39.08,-359 39.08,-442 253.08,-442 253.08,-359 39.08,-359"/>
<text text-anchor="start" x="48.58" y="-431" font-family="Times,serif" font-size="10.00">balance = 0.0</text>
<text text-anchor="start" x="48.58" y="-420" font-family="Times,serif" font-size="10.00">customerId = null</text>
<text text-anchor="start" x="48.58" y="-409" font-family="Times,serif" font-size="10.00">iban = &quot;EE199291489192025168&quot;</text>
<text text-anchor="start" x="48.58" y="-398" font-family="Times,serif" font-size="10.00">id = &quot;ca7374ac&#45;c18c&#45;4477&#45;996a&#45;bb1a48b1a815&quot;</text>
<text text-anchor="start" x="48.58" y="-387" font-family="Times,serif" font-size="10.00">receivedTransaction = </text>
<text text-anchor="start" x="48.58" y="-376" font-family="Times,serif" font-size="10.00">sentTransaction = </text>
<text text-anchor="start" x="48.58" y="-365" font-family="Times,serif" font-size="10.00">status = &quot;FROZEN&quot;</text>
</g>
<!-- b -->
<g id="node2" class="node">
<title>b</title>
<polygon fill="none" stroke="black" points="396.08,-297.5 396.08,-314.5 1042.08,-314.5 1042.08,-297.5 396.08,-297.5"/>
<text text-anchor="start" x="703.08" y="-304.5" font-family="Times,serif" text-decoration="underline" font-size="10.00">b :Bank</text>
<polygon fill="none" stroke="black" points="396.08,-269.5 396.08,-297.5 1042.08,-297.5 1042.08,-269.5 396.08,-269.5"/>
<text text-anchor="start" x="399.08" y="-286.5" font-family="Times,serif" font-size="10.00">accountsMap = ca7374ac&#45;c18c&#45;4477&#45;996a&#45;bb1a48b1a815sendItToTheBank8a633aa5&#45;907c&#45;4e57&#45;a313&#45;22e0adb2672e7ec351d6&#45;652f&#45;4691&#45;8e72&#45;ea432d44a0c8</text>
<text text-anchor="start" x="399.08" y="-275.5" font-family="Times,serif" font-size="10.00">customerMap = e2f7bc4c&#45;ef2a&#45;466e&#45;b8a5&#45;d24f48b13afe1eaf6f4c&#45;4f92&#45;4e04&#45;bd87&#45;c82be03265de3183fda5&#45;b711&#45;4a4f&#45;aa86&#45;33281b3d7fd5</text>
</g>
<!-- ca7374ac_c18c_4477_996a_bb1a48b1a815&#45;&gt;b -->
<g id="edge1" class="edge">
<title>ca7374ac_c18c_4477_996a_bb1a48b1a815&#45;&gt;b</title>
<path fill="none" stroke="black" d="M261.35,-384.97C356.86,-365.88 492.47,-338.78 591.28,-319.04"/>
<text text-anchor="middle" x="581.28" y="-322.04" font-family="Times,serif" font-size="10.00">bank</text>
<text text-anchor="middle" x="278.85" y="-387.97" font-family="Times,serif" font-size="10.00">accounts</text>
</g>
<!-- c -->
<g id="node3" class="node">
<title>c</title>
<polygon fill="none" stroke="black" points="291.08,-43 291.08,-60 454.08,-60 454.08,-43 291.08,-43"/>
<text text-anchor="start" x="349.08" y="-50" font-family="Times,serif" text-decoration="underline" font-size="10.00">c :Currency</text>
<polygon fill="none" stroke="black" points="291.08,-26 291.08,-43 454.08,-43 454.08,-26 291.08,-26"/>
<text text-anchor="start" x="294.08" y="-32" font-family="Times,serif" font-size="10.00">declaringClass = class model.Currency</text>
</g>
<!-- ca7374ac_c18c_4477_996a_bb1a48b1a815&#45;&gt;c -->
<g id="edge2" class="edge">
<title>ca7374ac_c18c_4477_996a_bb1a48b1a815&#45;&gt;c</title>
<path fill="none" stroke="black" d="M91.48,-354.75C35.54,-293.69 -35.8,-192.91 21.08,-122 53.26,-81.89 189.39,-61.1 282.35,-51.38"/>
<text text-anchor="middle" x="264.85" y="-54.38" font-family="Times,serif" font-size="10.00">currency</text>
</g>
<!-- 3183fda5_b711_4a4f_aa86_33281b3d7fd5 -->
<g id="node4" class="node">
<title>3183fda5_b711_4a4f_aa86_33281b3d7fd5</title>
<polygon fill="none" stroke="black" points="38.08,-198 38.08,-215 254.08,-215 254.08,-198 38.08,-198"/>
<text text-anchor="start" x="41.08" y="-205" font-family="Times,serif" text-decoration="underline" font-size="10.00">3183fda5&#45;b711&#45;4a4f&#45;aa86&#45;33281b3d7fd5 :Customer</text>
<polygon fill="none" stroke="black" points="38.08,-137 38.08,-198 254.08,-198 254.08,-137 38.08,-137"/>
<text text-anchor="start" x="49.58" y="-187" font-family="Times,serif" font-size="10.00">email = &quot;bobbytest@tt.ee&quot;</text>
<text text-anchor="start" x="49.58" y="-176" font-family="Times,serif" font-size="10.00">firstName = &quot;Bob&quot;</text>
<text text-anchor="start" x="49.58" y="-165" font-family="Times,serif" font-size="10.00">id = &quot;3183fda5&#45;b711&#45;4a4f&#45;aa86&#45;33281b3d7fd5&quot;</text>
<text text-anchor="start" x="49.58" y="-154" font-family="Times,serif" font-size="10.00">lastName = &quot;Jackson&quot;</text>
<text text-anchor="start" x="49.58" y="-143" font-family="Times,serif" font-size="10.00">password = &quot;secret&quot;</text>
</g>
<!-- ca7374ac_c18c_4477_996a_bb1a48b1a815&#45;&gt;3183fda5_b711_4a4f_aa86_33281b3d7fd5 -->
<g id="edge3" class="edge">
<title>ca7374ac_c18c_4477_996a_bb1a48b1a815&#45;&gt;3183fda5_b711_4a4f_aa86_33281b3d7fd5</title>
<path fill="none" stroke="black" d="M146.08,-354.71C146.08,-313.54 146.08,-257.34 146.08,-219.24"/>
<text text-anchor="middle" x="133.58" y="-222.24" font-family="Times,serif" font-size="10.00">owner</text>
<text text-anchor="middle" x="130.08" y="-346.71" font-family="Times,serif" font-size="10.00">account</text>
</g>
<!-- b&#45;&gt;3183fda5_b711_4a4f_aa86_33281b3d7fd5 -->
<g id="edge10" class="edge">
<title>b&#45;&gt;3183fda5_b711_4a4f_aa86_33281b3d7fd5</title>
<path fill="none" stroke="black" d="M447.56,-265.97C388.77,-257.19 327.38,-245.5 271.08,-230 260.06,-226.96 248.73,-223.18 237.6,-219.03"/>
<text text-anchor="middle" x="217.1" y="-222.03" font-family="Times,serif" font-size="10.00">customers</text>
<text text-anchor="middle" x="437.56" y="-257.97" font-family="Times,serif" font-size="10.00">bank</text>
</g>
<!-- sendItToTheBank -->
<g id="node5" class="node">
<title>sendItToTheBank</title>
<polygon fill="none" stroke="black" points="289.08,-209 289.08,-226 434.08,-226 434.08,-209 289.08,-209"/>
<text text-anchor="start" x="306.08" y="-216" font-family="Times,serif" text-decoration="underline" font-size="10.00">sendItToTheBank :Account</text>
<polygon fill="none" stroke="black" points="289.08,-126 289.08,-209 434.08,-209 434.08,-126 289.08,-126"/>
<text text-anchor="start" x="292.08" y="-198" font-family="Times,serif" font-size="10.00">balance = 69420.0</text>
<text text-anchor="start" x="292.08" y="-187" font-family="Times,serif" font-size="10.00">customerId = null</text>
<text text-anchor="start" x="292.08" y="-176" font-family="Times,serif" font-size="10.00">iban = &quot;EE066589217434201046&quot;</text>
<text text-anchor="start" x="292.08" y="-165" font-family="Times,serif" font-size="10.00">id = &quot;sendItToTheBank&quot;</text>
<text text-anchor="start" x="292.08" y="-154" font-family="Times,serif" font-size="10.00">receivedTransaction = </text>
<text text-anchor="start" x="292.08" y="-143" font-family="Times,serif" font-size="10.00">sentTransaction = </text>
<text text-anchor="start" x="292.08" y="-132" font-family="Times,serif" font-size="10.00">status = &quot;ACTIVE&quot;</text>
</g>
<!-- b&#45;&gt;sendItToTheBank -->
<g id="edge4" class="edge">
<title>b&#45;&gt;sendItToTheBank</title>
<path fill="none" stroke="black" d="M569.25,-265.94C529.74,-256.87 487.66,-245.05 450.08,-230 447.33,-228.9 444.56,-227.72 441.79,-226.47"/>
<text text-anchor="middle" x="468.79" y="-229.47" font-family="Times,serif" font-size="10.00">bankAccount</text>
<text text-anchor="middle" x="559.25" y="-257.94" font-family="Times,serif" font-size="10.00">bank</text>
</g>
<!-- 8a633aa5_907c_4e57_a313_22e0adb2672e -->
<g id="node6" class="node">
<title>8a633aa5_907c_4e57_a313_22e0adb2672e</title>
<polygon fill="none" stroke="black" points="468.08,-209 468.08,-226 703.08,-226 703.08,-209 468.08,-209"/>
<text text-anchor="start" x="481.58" y="-216" font-family="Times,serif" text-decoration="underline" font-size="10.00">8a633aa5&#45;907c&#45;4e57&#45;a313&#45;22e0adb2672e :Account</text>
<polygon fill="none" stroke="black" points="468.08,-126 468.08,-209 703.08,-209 703.08,-126 468.08,-126"/>
<text text-anchor="start" x="471.08" y="-198" font-family="Times,serif" font-size="10.00">balance = 0.0</text>
<text text-anchor="start" x="471.08" y="-187" font-family="Times,serif" font-size="10.00">customerId = &quot;1eaf6f4c&#45;4f92&#45;4e04&#45;bd87&#45;c82be03265de&quot;</text>
<text text-anchor="start" x="471.08" y="-176" font-family="Times,serif" font-size="10.00">iban = null</text>
<text text-anchor="start" x="471.08" y="-165" font-family="Times,serif" font-size="10.00">id = &quot;8a633aa5&#45;907c&#45;4e57&#45;a313&#45;22e0adb2672e&quot;</text>
<text text-anchor="start" x="471.08" y="-154" font-family="Times,serif" font-size="10.00">receivedTransaction = </text>
<text text-anchor="start" x="471.08" y="-143" font-family="Times,serif" font-size="10.00">sentTransaction = </text>
<text text-anchor="start" x="471.08" y="-132" font-family="Times,serif" font-size="10.00">status = &quot;ACTIVE&quot;</text>
</g>
<!-- b&#45;&gt;8a633aa5_907c_4e57_a313_22e0adb2672e -->
<g id="edge5" class="edge">
<title>b&#45;&gt;8a633aa5_907c_4e57_a313_22e0adb2672e</title>
<path fill="none" stroke="black" d="M689.01,-265.8C676.59,-255.19 661.7,-242.47 647.13,-230.02"/>
<text text-anchor="middle" x="629.63" y="-233.02" font-family="Times,serif" font-size="10.00">accounts</text>
<text text-anchor="middle" x="679.01" y="-257.8" font-family="Times,serif" font-size="10.00">bank</text>
</g>
<!-- 7ec351d6_652f_4691_8e72_ea432d44a0c8 -->
<g id="node7" class="node">
<title>7ec351d6_652f_4691_8e72_ea432d44a0c8</title>
<polygon fill="none" stroke="black" points="737.08,-209 737.08,-226 969.08,-226 969.08,-209 737.08,-209"/>
<text text-anchor="start" x="749.58" y="-216" font-family="Times,serif" text-decoration="underline" font-size="10.00">7ec351d6&#45;652f&#45;4691&#45;8e72&#45;ea432d44a0c8 :Account</text>
<polygon fill="none" stroke="black" points="737.08,-126 737.08,-209 969.08,-209 969.08,-126 737.08,-126"/>
<text text-anchor="start" x="740.08" y="-198" font-family="Times,serif" font-size="10.00">balance = 100.0</text>
<text text-anchor="start" x="740.08" y="-187" font-family="Times,serif" font-size="10.00">customerId = &quot;e2f7bc4c&#45;ef2a&#45;466e&#45;b8a5&#45;d24f48b13afe&quot;</text>
<text text-anchor="start" x="740.08" y="-176" font-family="Times,serif" font-size="10.00">iban = null</text>
<text text-anchor="start" x="740.08" y="-165" font-family="Times,serif" font-size="10.00">id = &quot;7ec351d6&#45;652f&#45;4691&#45;8e72&#45;ea432d44a0c8&quot;</text>
<text text-anchor="start" x="740.08" y="-154" font-family="Times,serif" font-size="10.00">receivedTransaction = </text>
<text text-anchor="start" x="740.08" y="-143" font-family="Times,serif" font-size="10.00">sentTransaction = </text>
<text text-anchor="start" x="740.08" y="-132" font-family="Times,serif" font-size="10.00">status = &quot;ACTIVE&quot;</text>
</g>
<!-- b&#45;&gt;7ec351d6_652f_4691_8e72_ea432d44a0c8 -->
<g id="edge6" class="edge">
<title>b&#45;&gt;7ec351d6_652f_4691_8e72_ea432d44a0c8</title>
<path fill="none" stroke="black" d="M749.15,-265.8C761.58,-255.19 776.46,-242.47 791.04,-230.02"/>
<text text-anchor="middle" x="773.54" y="-233.02" font-family="Times,serif" font-size="10.00">accounts</text>
<text text-anchor="middle" x="739.15" y="-257.8" font-family="Times,serif" font-size="10.00">bank</text>
</g>
<!-- 7b24be16_94aa_4bf9_9919_9731ce986c21 -->
<g id="node8" class="node">
<title>7b24be16_94aa_4bf9_9919_9731ce986c21</title>
<polygon fill="none" stroke="black" points="1041.08,-198 1041.08,-215 1277.08,-215 1277.08,-198 1041.08,-198"/>
<text text-anchor="start" x="1044.08" y="-205" font-family="Times,serif" text-decoration="underline" font-size="10.00">7b24be16&#45;94aa&#45;4bf9&#45;9919&#45;9731ce986c21 :Administrator</text>
<polygon fill="none" stroke="black" points="1041.08,-137 1041.08,-198 1277.08,-198 1277.08,-137 1041.08,-137"/>
<text text-anchor="start" x="1061.58" y="-187" font-family="Times,serif" font-size="10.00">email = &quot;admin@bank.ee&quot;</text>
<text text-anchor="start" x="1061.58" y="-176" font-family="Times,serif" font-size="10.00">firstName = &quot;Admin&quot;</text>
<text text-anchor="start" x="1061.58" y="-165" font-family="Times,serif" font-size="10.00">id = &quot;7b24be16&#45;94aa&#45;4bf9&#45;9919&#45;9731ce986c21&quot;</text>
<text text-anchor="start" x="1061.58" y="-154" font-family="Times,serif" font-size="10.00">lastName = &quot;ALice&quot;</text>
<text text-anchor="start" x="1061.58" y="-143" font-family="Times,serif" font-size="10.00">password = &quot;secure_p@ssw0|2d&quot;</text>
</g>
<!-- b&#45;&gt;7b24be16_94aa_4bf9_9919_9731ce986c21 -->
<g id="edge7" class="edge">
<title>b&#45;&gt;7b24be16_94aa_4bf9_9919_9731ce986c21</title>
<path fill="none" stroke="black" d="M867.47,-265.95C916.18,-256.28 970.31,-244.13 1019.08,-230 1030.31,-226.74 1041.92,-223 1053.43,-219.03"/>
<text text-anchor="middle" x="1024.43" y="-222.03" font-family="Times,serif" font-size="10.00">administrators</text>
<text text-anchor="middle" x="857.47" y="-257.95" font-family="Times,serif" font-size="10.00">bank</text>
</g>
<!-- e2f7bc4c_ef2a_466e_b8a5_d24f48b13afe -->
<g id="node9" class="node">
<title>e2f7bc4c_ef2a_466e_b8a5_d24f48b13afe</title>
<polygon fill="none" stroke="black" points="977.08,-65 977.08,-82 1189.08,-82 1189.08,-65 977.08,-65"/>
<text text-anchor="start" x="980.08" y="-72" font-family="Times,serif" text-decoration="underline" font-size="10.00">e2f7bc4c&#45;ef2a&#45;466e&#45;b8a5&#45;d24f48b13afe :Customer</text>
<polygon fill="none" stroke="black" points="977.08,-4 977.08,-65 1189.08,-65 1189.08,-4 977.08,-4"/>
<text text-anchor="start" x="988.58" y="-54" font-family="Times,serif" font-size="10.00">email = &quot;john@doe.ee&quot;</text>
<text text-anchor="start" x="988.58" y="-43" font-family="Times,serif" font-size="10.00">firstName = &quot;John&quot;</text>
<text text-anchor="start" x="988.58" y="-32" font-family="Times,serif" font-size="10.00">id = &quot;e2f7bc4c&#45;ef2a&#45;466e&#45;b8a5&#45;d24f48b13afe&quot;</text>
<text text-anchor="start" x="988.58" y="-21" font-family="Times,serif" font-size="10.00">lastName = &quot;Doe&quot;</text>
<text text-anchor="start" x="988.58" y="-10" font-family="Times,serif" font-size="10.00">password = &quot;pass1234&quot;</text>
</g>
<!-- b&#45;&gt;e2f7bc4c_ef2a_466e_b8a5_d24f48b13afe -->
<g id="edge8" class="edge">
<title>b&#45;&gt;e2f7bc4c_ef2a_466e_b8a5_d24f48b13afe</title>
<path fill="none" stroke="black" d="M1050.43,-274.21C1167.85,-264.65 1275.71,-250.44 1294.08,-230 1326.17,-194.3 1321.51,-161.39 1294.08,-122 1271.65,-89.79 1234.31,-70.85 1197.23,-59.72"/>
<text text-anchor="middle" x="1217.73" y="-62.72" font-family="Times,serif" font-size="10.00">customers</text>
<text text-anchor="middle" x="1060.43" y="-277.21" font-family="Times,serif" font-size="10.00">bank</text>
</g>
<!-- 1eaf6f4c_4f92_4e04_bd87_c82be03265de -->
<g id="node10" class="node">
<title>1eaf6f4c_4f92_4e04_bd87_c82be03265de</title>
<polygon fill="none" stroke="black" points="488.08,-65 488.08,-82 703.08,-82 703.08,-65 488.08,-65"/>
<text text-anchor="start" x="491.08" y="-72" font-family="Times,serif" text-decoration="underline" font-size="10.00">1eaf6f4c&#45;4f92&#45;4e04&#45;bd87&#45;c82be03265de :Customer</text>
<polygon fill="none" stroke="black" points="488.08,-4 488.08,-65 703.08,-65 703.08,-4 488.08,-4"/>
<text text-anchor="start" x="500.08" y="-54" font-family="Times,serif" font-size="10.00">email = &quot;bobby@tt.ee&quot;</text>
<text text-anchor="start" x="500.08" y="-43" font-family="Times,serif" font-size="10.00">firstName = &quot;Bob&quot;</text>
<text text-anchor="start" x="500.08" y="-32" font-family="Times,serif" font-size="10.00">id = &quot;1eaf6f4c&#45;4f92&#45;4e04&#45;bd87&#45;c82be03265de&quot;</text>
<text text-anchor="start" x="500.08" y="-21" font-family="Times,serif" font-size="10.00">lastName = &quot;Jackson&quot;</text>
<text text-anchor="start" x="500.08" y="-10" font-family="Times,serif" font-size="10.00">password = &quot;secret&quot;</text>
</g>
<!-- b&#45;&gt;1eaf6f4c_4f92_4e04_bd87_c82be03265de -->
<g id="edge9" class="edge">
<title>b&#45;&gt;1eaf6f4c_4f92_4e04_bd87_c82be03265de</title>
<path fill="none" stroke="black" d="M904.96,-265.95C942.37,-256.98 973.97,-245.21 986.08,-230 1015.97,-192.44 1016.52,-159.11 986.08,-122 951.73,-80.12 813.25,-60.3 710.8,-51.21"/>
<text text-anchor="middle" x="731.3" y="-54.21" font-family="Times,serif" font-size="10.00">customers</text>
<text text-anchor="middle" x="894.96" y="-257.95" font-family="Times,serif" font-size="10.00">bank</text>
</g>
<!-- sendItToTheBank&#45;&gt;c -->
<g id="edge11" class="edge">
<title>sendItToTheBank&#45;&gt;c</title>
<path fill="none" stroke="black" d="M365.56,-121.72C367.26,-101.46 369.09,-79.58 370.38,-64.22"/>
<text text-anchor="middle" x="352.88" y="-67.22" font-family="Times,serif" font-size="10.00">currency</text>
</g>
<!-- 8a633aa5_907c_4e57_a313_22e0adb2672e&#45;&gt;c -->
<g id="edge12" class="edge">
<title>8a633aa5_907c_4e57_a313_22e0adb2672e&#45;&gt;c</title>
<path fill="none" stroke="black" d="M498.75,-121.91C465.66,-101.55 429.86,-79.54 404.79,-64.12"/>
<text text-anchor="middle" x="422.29" y="-67.12" font-family="Times,serif" font-size="10.00">currency</text>
</g>
<!-- 8a633aa5_907c_4e57_a313_22e0adb2672e&#45;&gt;1eaf6f4c_4f92_4e04_bd87_c82be03265de -->
<g id="edge13" class="edge">
<title>8a633aa5_907c_4e57_a313_22e0adb2672e&#45;&gt;1eaf6f4c_4f92_4e04_bd87_c82be03265de</title>
<path fill="none" stroke="black" d="M589.15,-121.72C590.05,-109.96 590.99,-97.66 591.84,-86.4"/>
<text text-anchor="middle" x="579.34" y="-89.4" font-family="Times,serif" font-size="10.00">owner</text>
<text text-anchor="middle" x="573.15" y="-113.72" font-family="Times,serif" font-size="10.00">account</text>
</g>
<!-- 7ec351d6_652f_4691_8e72_ea432d44a0c8&#45;&gt;c -->
<g id="edge14" class="edge">
<title>7ec351d6_652f_4691_8e72_ea432d44a0c8&#45;&gt;c</title>
<path fill="none" stroke="black" d="M728.95,-124.76C725.64,-123.79 722.34,-122.87 719.08,-122 611.03,-93.24 577.72,-116.28 470.08,-86 450.48,-80.49 429.63,-71.96 412.22,-64.02"/>
<text text-anchor="middle" x="394.72" y="-67.02" font-family="Times,serif" font-size="10.00">currency</text>
</g>
<!-- 7ec351d6_652f_4691_8e72_ea432d44a0c8&#45;&gt;e2f7bc4c_ef2a_466e_b8a5_d24f48b13afe -->
<g id="edge15" class="edge">
<title>7ec351d6_652f_4691_8e72_ea432d44a0c8&#45;&gt;e2f7bc4c_ef2a_466e_b8a5_d24f48b13afe</title>
<path fill="none" stroke="black" d="M946.3,-121.91C967.22,-109.99 989.14,-97.51 1009.15,-86.11"/>
<text text-anchor="middle" x="996.65" y="-89.11" font-family="Times,serif" font-size="10.00">owner</text>
<text text-anchor="middle" x="930.3" y="-113.91" font-family="Times,serif" font-size="10.00">account</text>
</g>
</g>
</svg>
