<?xml version="1.0" encoding="UTF-8" standalone="no"?>
<!DOCTYPE svg PUBLIC "-//W3C//DTD SVG 1.1//EN"
 "http://www.w3.org/Graphics/SVG/1.1/DTD/svg11.dtd">
<!-- Generated by graphviz version 2.44.0 (20200408.0750)
 -->
<!-- Pages: 1 -->
<svg width="1085px" height="436px"
 viewBox="0.00 0.00 1084.83 436.00" xmlns="http://www.w3.org/2000/svg" xmlns:xlink="http://www.w3.org/1999/xlink">
<g id="graph0" class="graph" transform="scale(1.0 1.0) rotate(0) translate(4 432)">
<polygon fill="white" stroke="transparent" points="-4,4 -4,-432 1080.83,-432 1080.83,4 -4,4"/>
<!-- 86282174_4329_4ddd_87a7_2ff108ecfadf -->
<g id="node1" class="node">
<title>86282174_4329_4ddd_87a7_2ff108ecfadf</title>
<polygon fill="none" stroke="black" points="412.33,-406 412.33,-424 634.33,-424 634.33,-406 412.33,-406"/>
<text text-anchor="start" x="414.89" y="-413" font-family="Times,serif" text-decoration="underline" font-size="10.00">86282174&#45;4329&#45;4ddd&#45;87a7&#45;2ff108ecfadf :Transaction</text>
<polygon fill="none" stroke="black" points="412.33,-340 412.33,-406 634.33,-406 634.33,-340 412.33,-340"/>
<text text-anchor="start" x="427.85" y="-394" font-family="Times,serif" font-size="10.00">amount = 25.5</text>
<text text-anchor="start" x="427.85" y="-382" font-family="Times,serif" font-size="10.00">description = &quot;Ref: concert ticket&quot;</text>
<text text-anchor="start" x="427.85" y="-370" font-family="Times,serif" font-size="10.00">id = &quot;86282174&#45;4329&#45;4ddd&#45;87a7&#45;2ff108ecfadf&quot;</text>
<text text-anchor="start" x="427.85" y="-358" font-family="Times,serif" font-size="10.00">rejectionDescription = &quot;&quot;</text>
<text text-anchor="start" x="427.85" y="-346" font-family="Times,serif" font-size="10.00">timestamp = 2021&#45;11&#45;28T10:58:08.904302300</text>
</g>
<!-- b -->
<g id="node2" class="node">
<title>b</title>
<polygon fill="none" stroke="black" points="505.33,-272 505.33,-290 542.33,-290 542.33,-272 505.33,-272"/>
<text text-anchor="start" x="508.14" y="-279" font-family="Times,serif" text-decoration="underline" font-size="10.00">b :Bank</text>
<polygon fill="none" stroke="black" points="505.33,-266 505.33,-272 542.33,-272 542.33,-266 505.33,-266"/>
</g>
<!-- 86282174_4329_4ddd_87a7_2ff108ecfadf&#45;&gt;b -->
<g id="edge1" class="edge">
<title>86282174_4329_4ddd_87a7_2ff108ecfadf&#45;&gt;b</title>
<path fill="none" stroke="black" d="M523.33,-335.96C523.33,-321.88 523.33,-307.17 523.33,-296.23"/>
<text text-anchor="middle" x="513.61" y="-299.23" font-family="Times,serif" font-size="10.00">bank</text>
<text text-anchor="middle" x="499.45" y="-326.96" font-family="Times,serif" font-size="10.00">transactions</text>
</g>
<!-- c -->
<g id="node3" class="node">
<title>c</title>
<polygon fill="none" stroke="black" points="116.33,-46 116.33,-64 250.33,-64 250.33,-46 116.33,-46"/>
<text text-anchor="start" x="159.87" y="-53" font-family="Times,serif" text-decoration="underline" font-size="10.00">c :Currency</text>
<polygon fill="none" stroke="black" points="116.33,-28 116.33,-46 250.33,-46 250.33,-28 116.33,-28"/>
<text text-anchor="start" x="119.33" y="-34" font-family="Times,serif" font-size="10.00">declaringClass = class Currency</text>
</g>
<!-- 86282174_4329_4ddd_87a7_2ff108ecfadf&#45;&gt;c -->
<g id="edge2" class="edge">
<title>86282174_4329_4ddd_87a7_2ff108ecfadf&#45;&gt;c</title>
<path fill="none" stroke="black" d="M404.26,-359.76C269.71,-333.05 63.38,-282.97 17.33,-220 -6.81,-186.99 -4.34,-162.68 17.33,-128 37.38,-95.91 74.21,-76.19 108.1,-64.26"/>
<text text-anchor="middle" x="90.61" y="-67.26" font-family="Times,serif" font-size="10.00">currency</text>
</g>
<!-- 3f2f3fc2_0253_4b90_acf8_260878c5eca8 -->
<g id="node4" class="node">
<title>3f2f3fc2_0253_4b90_acf8_260878c5eca8</title>
<polygon fill="none" stroke="black" points="35.33,-180 35.33,-198 242.33,-198 242.33,-180 35.33,-180"/>
<text text-anchor="start" x="37.9" y="-187" font-family="Times,serif" text-decoration="underline" font-size="10.00">3f2f3fc2&#45;0253&#45;4b90&#45;acf8&#45;260878c5eca8 :Account</text>
<polygon fill="none" stroke="black" points="35.33,-150 35.33,-180 242.33,-180 242.33,-150 35.33,-150"/>
<text text-anchor="start" x="44.19" y="-168" font-family="Times,serif" font-size="10.00">balance = 25.5</text>
<text text-anchor="start" x="44.19" y="-156" font-family="Times,serif" font-size="10.00">id = &quot;3f2f3fc2&#45;0253&#45;4b90&#45;acf8&#45;260878c5eca8&quot;</text>
</g>
<!-- 86282174_4329_4ddd_87a7_2ff108ecfadf&#45;&gt;3f2f3fc2_0253_4b90_acf8_260878c5eca8 -->
<g id="edge3" class="edge">
<title>86282174_4329_4ddd_87a7_2ff108ecfadf&#45;&gt;3f2f3fc2_0253_4b90_acf8_260878c5eca8</title>
<path fill="none" stroke="black" d="M438.84,-335.79C362.47,-294.93 252.58,-236.13 189.01,-202.12"/>
<text text-anchor="middle" x="167.07" y="-205.12" font-family="Times,serif" font-size="10.00">destination</text>
</g>
<!-- 5fec96a7_af02_41e3_ac79_c75aebf97285 -->
<g id="node5" class="node">
<title>5fec96a7_af02_41e3_ac79_c75aebf97285</title>
<polygon fill="none" stroke="black" points="862.33,-180 862.33,-198 1069.33,-198 1069.33,-180 862.33,-180"/>
<text text-anchor="start" x="864.91" y="-187" font-family="Times,serif" text-decoration="underline" font-size="10.00">5fec96a7&#45;af02&#45;41e3&#45;ac79&#45;c75aebf97285 :Account</text>
<polygon fill="none" stroke="black" points="862.33,-150 862.33,-180 1069.33,-180 1069.33,-150 862.33,-150"/>
<text text-anchor="start" x="871.19" y="-168" font-family="Times,serif" font-size="10.00">balance = 74.5</text>
<text text-anchor="start" x="871.19" y="-156" font-family="Times,serif" font-size="10.00">id = &quot;5fec96a7&#45;af02&#45;41e3&#45;ac79&#45;c75aebf97285&quot;</text>
</g>
<!-- 86282174_4329_4ddd_87a7_2ff108ecfadf&#45;&gt;5fec96a7_af02_41e3_ac79_c75aebf97285 -->
<g id="edge4" class="edge">
<title>86282174_4329_4ddd_87a7_2ff108ecfadf&#45;&gt;5fec96a7_af02_41e3_ac79_c75aebf97285</title>
<path fill="none" stroke="black" d="M544.78,-335.98C560.73,-304.42 582.26,-266.13 597.33,-256 687.57,-195.32 733.85,-246.41 839.33,-220 858.37,-215.23 878.57,-208.71 897.09,-202.11"/>
<text text-anchor="middle" x="884.04" y="-205.11" font-family="Times,serif" font-size="10.00">source</text>
</g>
<!-- s -->
<g id="node6" class="node">
<title>s</title>
<polygon fill="none" stroke="black" points="614.33,-278 614.33,-296 788.33,-296 788.33,-278 614.33,-278"/>
<text text-anchor="start" x="684.52" y="-285" font-family="Times,serif" text-decoration="underline" font-size="10.00">s :Status</text>
<polygon fill="none" stroke="black" points="614.33,-260 614.33,-278 788.33,-278 788.33,-260 614.33,-260"/>
<text text-anchor="start" x="617.33" y="-266" font-family="Times,serif" font-size="10.00">declaringClass = class Transaction$Status</text>
</g>
<!-- 86282174_4329_4ddd_87a7_2ff108ecfadf&#45;&gt;s -->
<g id="edge5" class="edge">
<title>86282174_4329_4ddd_87a7_2ff108ecfadf&#45;&gt;s</title>
<path fill="none" stroke="black" d="M601.92,-335.96C623.71,-323.48 646.35,-310.5 664.51,-300.1"/>
<text text-anchor="middle" x="653.12" y="-303.1" font-family="Times,serif" font-size="10.00">status</text>
</g>
<!-- b&#45;&gt;3f2f3fc2_0253_4b90_acf8_260878c5eca8 -->
<g id="edge8" class="edge">
<title>b&#45;&gt;3f2f3fc2_0253_4b90_acf8_260878c5eca8</title>
<path fill="none" stroke="black" d="M496.3,-272.54C447.99,-264.27 343.9,-245.1 258.33,-220 240.93,-214.9 222.44,-208.48 205.33,-202.11"/>
<text text-anchor="middle" x="222.82" y="-205.11" font-family="Times,serif" font-size="10.00">accounts</text>
<text text-anchor="middle" x="486.58" y="-275.54" font-family="Times,serif" font-size="10.00">bank</text>
</g>
<!-- b&#45;&gt;5fec96a7_af02_41e3_ac79_c75aebf97285 -->
<g id="edge7" class="edge">
<title>b&#45;&gt;5fec96a7_af02_41e3_ac79_c75aebf97285</title>
<path fill="none" stroke="black" d="M550.57,-261.43C555.06,-259.34 559.75,-257.43 564.33,-256 682.02,-219.37 719.5,-248.89 839.33,-220 858.64,-215.34 879.1,-208.78 897.8,-202.1"/>
<text text-anchor="middle" x="915.29" y="-205.1" font-family="Times,serif" font-size="10.00">accounts</text>
<text text-anchor="middle" x="560.29" y="-252.43" font-family="Times,serif" font-size="10.00">bank</text>
</g>
<!-- 2775cd66_8674_48a7_825c_f95e9f6c4c74 -->
<g id="node7" class="node">
<title>2775cd66_8674_48a7_825c_f95e9f6c4c74</title>
<polygon fill="none" stroke="black" points="276.33,-180 276.33,-198 487.33,-198 487.33,-180 276.33,-180"/>
<text text-anchor="start" x="278.95" y="-187" font-family="Times,serif" text-decoration="underline" font-size="10.00">2775cd66&#45;8674&#45;48a7&#45;825c&#45;f95e9f6c4c74 :Account</text>
<polygon fill="none" stroke="black" points="276.33,-150 276.33,-180 487.33,-180 487.33,-150 276.33,-150"/>
<text text-anchor="start" x="285.24" y="-168" font-family="Times,serif" font-size="10.00">balance = 69420.0</text>
<text text-anchor="start" x="285.24" y="-156" font-family="Times,serif" font-size="10.00">id = &quot;2775cd66&#45;8674&#45;48a7&#45;825c&#45;f95e9f6c4c74&quot;</text>
</g>
<!-- b&#45;&gt;2775cd66_8674_48a7_825c_f95e9f6c4c74 -->
<g id="edge6" class="edge">
<title>b&#45;&gt;2775cd66_8674_48a7_825c_f95e9f6c4c74</title>
<path fill="none" stroke="black" d="M499.56,-259.93C477.61,-244.16 444.64,-220.48 419.09,-202.12"/>
<text text-anchor="middle" x="392.43" y="-205.12" font-family="Times,serif" font-size="10.00">bankAccount</text>
<text text-anchor="middle" x="489.84" y="-250.93" font-family="Times,serif" font-size="10.00">bank</text>
</g>
<!-- fe855b82_f7f6_4b0a_8ced_6297f04a2dea -->
<g id="node8" class="node">
<title>fe855b82_f7f6_4b0a_8ced_6297f04a2dea</title>
<polygon fill="none" stroke="black" points="559.33,-198 559.33,-216 789.33,-216 789.33,-198 559.33,-198"/>
<text text-anchor="start" x="562.29" y="-205" font-family="Times,serif" text-decoration="underline" font-size="10.00">fe855b82&#45;f7f6&#45;4b0a&#45;8ced&#45;6297f04a2dea :Administrator</text>
<polygon fill="none" stroke="black" points="559.33,-132 559.33,-198 789.33,-198 789.33,-132 559.33,-132"/>
<text text-anchor="start" x="579.69" y="-186" font-family="Times,serif" font-size="10.00">email = &quot;admin@bank.ee&quot;</text>
<text text-anchor="start" x="579.69" y="-174" font-family="Times,serif" font-size="10.00">firstName = &quot;Admin&quot;</text>
<text text-anchor="start" x="579.69" y="-162" font-family="Times,serif" font-size="10.00">id = &quot;fe855b82&#45;f7f6&#45;4b0a&#45;8ced&#45;6297f04a2dea&quot;</text>
<text text-anchor="start" x="579.69" y="-150" font-family="Times,serif" font-size="10.00">lastName = &quot;ALice&quot;</text>
<text text-anchor="start" x="579.69" y="-138" font-family="Times,serif" font-size="10.00">password = &quot;secure_p@ssw0|2d&quot;</text>
</g>
<!-- b&#45;&gt;fe855b82_f7f6_4b0a_8ced_6297f04a2dea -->
<g id="edge9" class="edge">
<title>b&#45;&gt;fe855b82_f7f6_4b0a_8ced_6297f04a2dea</title>
<path fill="none" stroke="black" d="M548.6,-259.93C564.81,-248.98 586.66,-234.22 607.6,-220.08"/>
<text text-anchor="middle" x="579" y="-223.08" font-family="Times,serif" font-size="10.00">administrators</text>
<text text-anchor="middle" x="538.88" y="-250.93" font-family="Times,serif" font-size="10.00">bank</text>
</g>
<!-- cfb7e118_1408_4f2f_90e1_adb3649588b9 -->
<g id="node9" class="node">
<title>cfb7e118_1408_4f2f_90e1_adb3649588b9</title>
<polygon fill="none" stroke="black" points="787.33,-70 787.33,-88 1003.33,-88 1003.33,-70 787.33,-70"/>
<text text-anchor="start" x="790.22" y="-77" font-family="Times,serif" text-decoration="underline" font-size="10.00">cfb7e118&#45;1408&#45;4f2f&#45;90e1&#45;adb3649588b9 :Customer</text>
<polygon fill="none" stroke="black" points="787.33,-4 787.33,-70 1003.33,-70 1003.33,-4 787.33,-4"/>
<text text-anchor="start" x="799.01" y="-58" font-family="Times,serif" font-size="10.00">email = &quot;john@doe.ee&quot;</text>
<text text-anchor="start" x="799.01" y="-46" font-family="Times,serif" font-size="10.00">firstName = &quot;John&quot;</text>
<text text-anchor="start" x="799.01" y="-34" font-family="Times,serif" font-size="10.00">id = &quot;cfb7e118&#45;1408&#45;4f2f&#45;90e1&#45;adb3649588b9&quot;</text>
<text text-anchor="start" x="799.01" y="-22" font-family="Times,serif" font-size="10.00">lastName = &quot;Doe&quot;</text>
<text text-anchor="start" x="799.01" y="-10" font-family="Times,serif" font-size="10.00">password = &quot;pass1234&quot;</text>
</g>
<!-- b&#45;&gt;cfb7e118_1408_4f2f_90e1_adb3649588b9 -->
<g id="edge10" class="edge">
<title>b&#45;&gt;cfb7e118_1408_4f2f_90e1_adb3649588b9</title>
<path fill="none" stroke="black" d="M550.59,-261.5C555.08,-259.4 559.76,-257.47 564.33,-256 667.87,-222.77 720.34,-286.56 806.33,-220 841.45,-192.81 824.94,-167.45 845.33,-128 851.47,-116.11 858.74,-103.63 865.79,-92.13"/>
<text text-anchor="middle" x="845.52" y="-95.13" font-family="Times,serif" font-size="10.00">customers</text>
<text text-anchor="middle" x="560.31" y="-264.5" font-family="Times,serif" font-size="10.00">bank</text>
</g>
<!-- e48ff9ed_b4ec_4025_96b4_51e003c0f8cc -->
<g id="node10" class="node">
<title>e48ff9ed_b4ec_4025_96b4_51e003c0f8cc</title>
<polygon fill="none" stroke="black" points="329.33,-70 329.33,-88 542.33,-88 542.33,-70 329.33,-70"/>
<text text-anchor="start" x="331.84" y="-77" font-family="Times,serif" text-decoration="underline" font-size="10.00">e48ff9ed&#45;b4ec&#45;4025&#45;96b4&#45;51e003c0f8cc :Customer</text>
<polygon fill="none" stroke="black" points="329.33,-4 329.33,-70 542.33,-70 542.33,-4 329.33,-4"/>
<text text-anchor="start" x="340.63" y="-58" font-family="Times,serif" font-size="10.00">email = &quot;bobby@tt.ee&quot;</text>
<text text-anchor="start" x="340.63" y="-46" font-family="Times,serif" font-size="10.00">firstName = &quot;Bob&quot;</text>
<text text-anchor="start" x="340.63" y="-34" font-family="Times,serif" font-size="10.00">id = &quot;e48ff9ed&#45;b4ec&#45;4025&#45;96b4&#45;51e003c0f8cc&quot;</text>
<text text-anchor="start" x="340.63" y="-22" font-family="Times,serif" font-size="10.00">lastName = &quot;Jackson&quot;</text>
<text text-anchor="start" x="340.63" y="-10" font-family="Times,serif" font-size="10.00">password = &quot;secret&quot;</text>
</g>
<!-- b&#45;&gt;e48ff9ed_b4ec_4025_96b4_51e003c0f8cc -->
<g id="edge11" class="edge">
<title>b&#45;&gt;e48ff9ed_b4ec_4025_96b4_51e003c0f8cc</title>
<path fill="none" stroke="black" d="M524.24,-259.62C525.08,-230.92 523.94,-172.36 504.33,-128 498.73,-115.33 490.49,-103.13 481.63,-92.21"/>
<text text-anchor="middle" x="461.36" y="-95.21" font-family="Times,serif" font-size="10.00">customers</text>
<text text-anchor="middle" x="514.52" y="-250.62" font-family="Times,serif" font-size="10.00">bank</text>
</g>
<!-- 3f2f3fc2_0253_4b90_acf8_260878c5eca8&#45;&gt;c -->
<g id="edge12" class="edge">
<title>3f2f3fc2_0253_4b90_acf8_260878c5eca8&#45;&gt;c</title>
<path fill="none" stroke="black" d="M147.98,-145.97C156.3,-122.69 168.13,-89.54 175.77,-68.15"/>
<text text-anchor="middle" x="158.29" y="-71.15" font-family="Times,serif" font-size="10.00">currency</text>
</g>
<!-- 3f2f3fc2_0253_4b90_acf8_260878c5eca8&#45;&gt;e48ff9ed_b4ec_4025_96b4_51e003c0f8cc -->
<g id="edge13" class="edge">
<title>3f2f3fc2_0253_4b90_acf8_260878c5eca8&#45;&gt;e48ff9ed_b4ec_4025_96b4_51e003c0f8cc</title>
<path fill="none" stroke="black" d="M202.04,-145.97C239.03,-130.28 286.57,-110.11 329.07,-92.08"/>
<text text-anchor="middle" x="316.58" y="-95.08" font-family="Times,serif" font-size="10.00">owner</text>
<text text-anchor="middle" x="186.5" y="-136.97" font-family="Times,serif" font-size="10.00">account</text>
</g>
<!-- 5fec96a7_af02_41e3_ac79_c75aebf97285&#45;&gt;c -->
<g id="edge14" class="edge">
<title>5fec96a7_af02_41e3_ac79_c75aebf97285&#45;&gt;c</title>
<path fill="none" stroke="black" d="M881.9,-145.95C857.75,-139.06 831.19,-132.38 806.33,-128 589.53,-89.83 527.89,-136.64 312.33,-92 285.85,-86.52 257.37,-76.99 233.93,-68.12"/>
<text text-anchor="middle" x="251.42" y="-71.12" font-family="Times,serif" font-size="10.00">currency</text>
</g>
<!-- 5fec96a7_af02_41e3_ac79_c75aebf97285&#45;&gt;cfb7e118_1408_4f2f_90e1_adb3649588b9 -->
<g id="edge15" class="edge">
<title>5fec96a7_af02_41e3_ac79_c75aebf97285&#45;&gt;cfb7e118_1408_4f2f_90e1_adb3649588b9</title>
<path fill="none" stroke="black" d="M950.31,-145.97C941.64,-130.35 930.49,-110.3 920.51,-92.33"/>
<text text-anchor="middle" x="908.02" y="-95.33" font-family="Times,serif" font-size="10.00">owner</text>
<text text-anchor="middle" x="934.76" y="-136.97" font-family="Times,serif" font-size="10.00">account</text>
</g>
<!-- 2775cd66_8674_48a7_825c_f95e9f6c4c74&#45;&gt;c -->
<g id="edge16" class="edge">
<title>2775cd66_8674_48a7_825c_f95e9f6c4c74&#45;&gt;c</title>
<path fill="none" stroke="black" d="M338.85,-145.97C302.26,-122.69 250.18,-89.54 216.57,-68.15"/>
<text text-anchor="middle" x="199.08" y="-71.15" font-family="Times,serif" font-size="10.00">currency</text>
</g>
</g>
</svg>
