<?xml version="1.0" encoding="UTF-8" standalone="no"?>
<!DOCTYPE svg PUBLIC "-//W3C//DTD SVG 1.1//EN"
 "http://www.w3.org/Graphics/SVG/1.1/DTD/svg11.dtd">
<!-- Generated by graphviz version 2.43.0 (0)
 -->
<!-- Title: model Pages: 1 -->
<svg width="1479px" height="449px"
 viewBox="0.00 0.00 1478.50 449.00" xmlns="http://www.w3.org/2000/svg" xmlns:xlink="http://www.w3.org/1999/xlink">
<g id="graph0" class="graph" transform="scale(1.0 1.0) rotate(0) translate(4 445)">
<title>model</title>
<polygon fill="white" stroke="transparent" points="-4,4 -4,-445 1474.5,-445 1474.5,4 -4,4"/>
<!-- 744dcf46_2866_4912_abc9_3a9345cc20a5 -->
<g id="node1" class="node">
<title>744dcf46_2866_4912_abc9_3a9345cc20a5</title>
<polygon fill="none" stroke="black" points="92,-420 92,-437 324,-437 324,-420 92,-420"/>
<text text-anchor="start" x="95" y="-427" font-family="Times,serif" text-decoration="underline" font-size="10.00">744dcf46&#45;2866&#45;4912&#45;abc9&#45;3a9345cc20a5 :Transaction</text>
<polygon fill="none" stroke="black" points="92,-359 92,-420 324,-420 324,-359 92,-359"/>
<text text-anchor="start" x="108.5" y="-409" font-family="Times,serif" font-size="10.00">amount = 25.0</text>
<text text-anchor="start" x="108.5" y="-398" font-family="Times,serif" font-size="10.00">description = &quot;Ref: concert ticket&quot;</text>
<text text-anchor="start" x="108.5" y="-387" font-family="Times,serif" font-size="10.00">id = &quot;744dcf46&#45;2866&#45;4912&#45;abc9&#45;3a9345cc20a5&quot;</text>
<text text-anchor="start" x="108.5" y="-376" font-family="Times,serif" font-size="10.00">rejectionDescription = &quot;&quot;</text>
<text text-anchor="start" x="108.5" y="-365" font-family="Times,serif" font-size="10.00">timestamp = 2021&#45;12&#45;04T18:20:19.842291193</text>
</g>
<!-- b -->
<g id="node2" class="node">
<title>b</title>
<polygon fill="none" stroke="black" points="263,-297.5 263,-314.5 1095,-314.5 1095,-297.5 263,-297.5"/>
<text text-anchor="start" x="662.5" y="-304.5" font-family="Times,serif" text-decoration="underline" font-size="10.00">b :Bank</text>
<polygon fill="none" stroke="black" points="263,-269.5 263,-297.5 1095,-297.5 1095,-269.5 263,-269.5"/>
<text text-anchor="start" x="266" y="-286.5" font-family="Times,serif" font-size="10.00">accountsMap = bec54aa1&#45;30ec&#45;4812&#45;bf15&#45;945a4aa79685sendItToTheBank8a633aa5&#45;907c&#45;4e57&#45;a313&#45;22e0adb2672e7ec351d6&#45;652f&#45;4691&#45;8e72&#45;ea432d44a0c8d2e8f039&#45;a859&#45;45a7&#45;ba3c&#45;9a3bb8bd2f60</text>
<text text-anchor="start" x="266" y="-275.5" font-family="Times,serif" font-size="10.00">customerMap = e2f7bc4c&#45;ef2a&#45;466e&#45;b8a5&#45;d24f48b13afe1eaf6f4c&#45;4f92&#45;4e04&#45;bd87&#45;c82be03265de66f8ef71&#45;7858&#45;445f&#45;9658&#45;68f54331d05f36ef53b8&#45;5bc0&#45;46ac&#45;9cfe&#45;752774821213</text>
</g>
<!-- 744dcf46_2866_4912_abc9_3a9345cc20a5&#45;&gt;b -->
<g id="edge1" class="edge">
<title>744dcf46_2866_4912_abc9_3a9345cc20a5&#45;&gt;b</title>
<path fill="none" stroke="black" d="M332.06,-369.74C403.47,-354.05 492.64,-334.45 562.7,-319.06"/>
<text text-anchor="middle" x="552.2" y="-322.06" font-family="Times,serif" font-size="10.00">bank</text>
<text text-anchor="middle" x="356.56" y="-372.74" font-family="Times,serif" font-size="10.00">transactions</text>
</g>
<!-- c -->
<g id="node3" class="node">
<title>c</title>
<polygon fill="none" stroke="black" points="8,-43 8,-60 172,-60 172,-43 8,-43"/>
<text text-anchor="start" x="66" y="-50" font-family="Times,serif" text-decoration="underline" font-size="10.00">c :Currency</text>
<polygon fill="none" stroke="black" points="8,-26 8,-43 172,-43 172,-26 8,-26"/>
<text text-anchor="start" x="11" y="-32" font-family="Times,serif" font-size="10.00">declaringClass = class model.Currency</text>
</g>
<!-- 744dcf46_2866_4912_abc9_3a9345cc20a5&#45;&gt;c -->
<g id="edge2" class="edge">
<title>744dcf46_2866_4912_abc9_3a9345cc20a5&#45;&gt;c</title>
<path fill="none" stroke="black" d="M159.66,-354.92C128.01,-323.99 89.42,-278.97 72,-230 51.56,-172.53 70.85,-99.16 82.54,-64.24"/>
<text text-anchor="middle" x="64.54" y="-67.24" font-family="Times,serif" font-size="10.00">currency</text>
</g>
<!-- bec54aa1_30ec_4812_bf15_945a4aa79685 -->
<g id="node4" class="node">
<title>bec54aa1_30ec_4812_bf15_945a4aa79685</title>
<polygon fill="none" stroke="black" points="341,-209 341,-226 559,-226 559,-209 341,-209"/>
<text text-anchor="start" x="344" y="-216" font-family="Times,serif" text-decoration="underline" font-size="10.00">bec54aa1&#45;30ec&#45;4812&#45;bf15&#45;945a4aa79685 :Account</text>
<polygon fill="none" stroke="black" points="341,-126 341,-209 559,-209 559,-126 341,-126"/>
<text text-anchor="start" x="351" y="-198" font-family="Times,serif" font-size="10.00">balance = 0.0</text>
<text text-anchor="start" x="351" y="-187" font-family="Times,serif" font-size="10.00">customerId = null</text>
<text text-anchor="start" x="351" y="-176" font-family="Times,serif" font-size="10.00">iban = &quot;EE056460071674838729&quot;</text>
<text text-anchor="start" x="351" y="-165" font-family="Times,serif" font-size="10.00">id = &quot;bec54aa1&#45;30ec&#45;4812&#45;bf15&#45;945a4aa79685&quot;</text>
<text text-anchor="start" x="351" y="-154" font-family="Times,serif" font-size="10.00">receivedTransaction = </text>
<text text-anchor="start" x="351" y="-143" font-family="Times,serif" font-size="10.00">sentTransaction = </text>
<text text-anchor="start" x="351" y="-132" font-family="Times,serif" font-size="10.00">status = &quot;ACTIVE&quot;</text>
</g>
<!-- 744dcf46_2866_4912_abc9_3a9345cc20a5&#45;&gt;bec54aa1_30ec_4812_bf15_945a4aa79685 -->
<g id="edge3" class="edge">
<title>744dcf46_2866_4912_abc9_3a9345cc20a5&#45;&gt;bec54aa1_30ec_4812_bf15_945a4aa79685</title>
<path fill="none" stroke="black" d="M211.03,-354.81C215.07,-326.7 224.43,-290.55 246,-266 247.81,-263.94 288.29,-246.13 332.72,-226.99"/>
<text text-anchor="middle" x="309.72" y="-229.99" font-family="Times,serif" font-size="10.00">destination</text>
</g>
<!-- d2e8f039_a859_45a7_ba3c_9a3bb8bd2f60 -->
<g id="node5" class="node">
<title>d2e8f039_a859_45a7_ba3c_9a3bb8bd2f60</title>
<polygon fill="none" stroke="black" points="89,-209 89,-226 307,-226 307,-209 89,-209"/>
<text text-anchor="start" x="92" y="-216" font-family="Times,serif" text-decoration="underline" font-size="10.00">d2e8f039&#45;a859&#45;45a7&#45;ba3c&#45;9a3bb8bd2f60 :Account</text>
<polygon fill="none" stroke="black" points="89,-126 89,-209 307,-209 307,-126 89,-126"/>
<text text-anchor="start" x="99" y="-198" font-family="Times,serif" font-size="10.00">balance = 100.0</text>
<text text-anchor="start" x="99" y="-187" font-family="Times,serif" font-size="10.00">customerId = null</text>
<text text-anchor="start" x="99" y="-176" font-family="Times,serif" font-size="10.00">iban = &quot;EE715689781609811511&quot;</text>
<text text-anchor="start" x="99" y="-165" font-family="Times,serif" font-size="10.00">id = &quot;d2e8f039&#45;a859&#45;45a7&#45;ba3c&#45;9a3bb8bd2f60&quot;</text>
<text text-anchor="start" x="99" y="-154" font-family="Times,serif" font-size="10.00">receivedTransaction = </text>
<text text-anchor="start" x="99" y="-143" font-family="Times,serif" font-size="10.00">sentTransaction = </text>
<text text-anchor="start" x="99" y="-132" font-family="Times,serif" font-size="10.00">status = &quot;ACTIVE&quot;</text>
</g>
<!-- 744dcf46_2866_4912_abc9_3a9345cc20a5&#45;&gt;d2e8f039_a859_45a7_ba3c_9a3bb8bd2f60 -->
<g id="edge4" class="edge">
<title>744dcf46_2866_4912_abc9_3a9345cc20a5&#45;&gt;d2e8f039_a859_45a7_ba3c_9a3bb8bd2f60</title>
<path fill="none" stroke="black" d="M206.08,-354.84C204.47,-319.41 202.16,-268.57 200.42,-230.31"/>
<text text-anchor="middle" x="186.92" y="-233.31" font-family="Times,serif" font-size="10.00">source</text>
</g>
<!-- b&#45;&gt;bec54aa1_30ec_4812_bf15_945a4aa79685 -->
<g id="edge9" class="edge">
<title>b&#45;&gt;bec54aa1_30ec_4812_bf15_945a4aa79685</title>
<path fill="none" stroke="black" d="M627.89,-265.95C606.67,-255.34 581.2,-242.6 556.26,-230.13"/>
<text text-anchor="middle" x="537.76" y="-233.13" font-family="Times,serif" font-size="10.00">accounts</text>
<text text-anchor="middle" x="617.39" y="-257.95" font-family="Times,serif" font-size="10.00">bank</text>
</g>
<!-- b&#45;&gt;d2e8f039_a859_45a7_ba3c_9a3bb8bd2f60 -->
<g id="edge8" class="edge">
<title>b&#45;&gt;d2e8f039_a859_45a7_ba3c_9a3bb8bd2f60</title>
<path fill="none" stroke="black" d="M484.65,-266C431.97,-256.88 375.33,-245.03 324,-230 321.04,-229.13 318.05,-228.22 315.06,-227.26"/>
<text text-anchor="middle" x="333.56" y="-219.26" font-family="Times,serif" font-size="10.00">accounts</text>
<text text-anchor="middle" x="474.15" y="-258" font-family="Times,serif" font-size="10.00">bank</text>
</g>
<!-- sendItToTheBank -->
<g id="node6" class="node">
<title>sendItToTheBank</title>
<polygon fill="none" stroke="black" points="975,-209 975,-226 1123,-226 1123,-209 975,-209"/>
<text text-anchor="start" x="992" y="-216" font-family="Times,serif" text-decoration="underline" font-size="10.00">sendItToTheBank :Account</text>
<polygon fill="none" stroke="black" points="975,-126 975,-209 1123,-209 1123,-126 975,-126"/>
<text text-anchor="start" x="978" y="-198" font-family="Times,serif" font-size="10.00">balance = 69420.0</text>
<text text-anchor="start" x="978" y="-187" font-family="Times,serif" font-size="10.00">customerId = null</text>
<text text-anchor="start" x="978" y="-176" font-family="Times,serif" font-size="10.00">iban = &quot;EE298606471168861912&quot;</text>
<text text-anchor="start" x="978" y="-165" font-family="Times,serif" font-size="10.00">id = &quot;sendItToTheBank&quot;</text>
<text text-anchor="start" x="978" y="-154" font-family="Times,serif" font-size="10.00">receivedTransaction = </text>
<text text-anchor="start" x="978" y="-143" font-family="Times,serif" font-size="10.00">sentTransaction = </text>
<text text-anchor="start" x="978" y="-132" font-family="Times,serif" font-size="10.00">status = &quot;ACTIVE&quot;</text>
</g>
<!-- b&#45;&gt;sendItToTheBank -->
<g id="edge5" class="edge">
<title>b&#45;&gt;sendItToTheBank</title>
<path fill="none" stroke="black" d="M835.4,-265.96C876.07,-256.91 919.3,-245.11 958,-230 960.98,-228.84 963.98,-227.58 966.98,-226.26"/>
<text text-anchor="middle" x="938.98" y="-229.26" font-family="Times,serif" font-size="10.00">bankAccount</text>
<text text-anchor="middle" x="824.9" y="-257.96" font-family="Times,serif" font-size="10.00">bank</text>
</g>
<!-- 8a633aa5_907c_4e57_a313_22e0adb2672e -->
<g id="node7" class="node">
<title>8a633aa5_907c_4e57_a313_22e0adb2672e</title>
<polygon fill="none" stroke="black" points="1157,-209 1157,-226 1395,-226 1395,-209 1157,-209"/>
<text text-anchor="start" x="1169" y="-216" font-family="Times,serif" text-decoration="underline" font-size="10.00">8a633aa5&#45;907c&#45;4e57&#45;a313&#45;22e0adb2672e :Account</text>
<polygon fill="none" stroke="black" points="1157,-126 1157,-209 1395,-209 1395,-126 1157,-126"/>
<text text-anchor="start" x="1160" y="-198" font-family="Times,serif" font-size="10.00">balance = 0.0</text>
<text text-anchor="start" x="1160" y="-187" font-family="Times,serif" font-size="10.00">customerId = &quot;1eaf6f4c&#45;4f92&#45;4e04&#45;bd87&#45;c82be03265de&quot;</text>
<text text-anchor="start" x="1160" y="-176" font-family="Times,serif" font-size="10.00">iban = null</text>
<text text-anchor="start" x="1160" y="-165" font-family="Times,serif" font-size="10.00">id = &quot;8a633aa5&#45;907c&#45;4e57&#45;a313&#45;22e0adb2672e&quot;</text>
<text text-anchor="start" x="1160" y="-154" font-family="Times,serif" font-size="10.00">receivedTransaction = </text>
<text text-anchor="start" x="1160" y="-143" font-family="Times,serif" font-size="10.00">sentTransaction = </text>
<text text-anchor="start" x="1160" y="-132" font-family="Times,serif" font-size="10.00">status = &quot;ACTIVE&quot;</text>
</g>
<!-- b&#45;&gt;8a633aa5_907c_4e57_a313_22e0adb2672e -->
<g id="edge6" class="edge">
<title>b&#45;&gt;8a633aa5_907c_4e57_a313_22e0adb2672e</title>
<path fill="none" stroke="black" d="M952.58,-265.96C1014.74,-257.14 1080.09,-245.43 1140,-230 1142.94,-229.24 1145.91,-228.44 1148.89,-227.59"/>
<text text-anchor="middle" x="1130.39" y="-230.59" font-family="Times,serif" font-size="10.00">accounts</text>
<text text-anchor="middle" x="942.08" y="-257.96" font-family="Times,serif" font-size="10.00">bank</text>
</g>
<!-- 7ec351d6_652f_4691_8e72_ea432d44a0c8 -->
<g id="node8" class="node">
<title>7ec351d6_652f_4691_8e72_ea432d44a0c8</title>
<polygon fill="none" stroke="black" points="707,-209 707,-226 941,-226 941,-209 707,-209"/>
<text text-anchor="start" x="717" y="-216" font-family="Times,serif" text-decoration="underline" font-size="10.00">7ec351d6&#45;652f&#45;4691&#45;8e72&#45;ea432d44a0c8 :Account</text>
<polygon fill="none" stroke="black" points="707,-126 707,-209 941,-209 941,-126 707,-126"/>
<text text-anchor="start" x="710" y="-198" font-family="Times,serif" font-size="10.00">balance = 100.0</text>
<text text-anchor="start" x="710" y="-187" font-family="Times,serif" font-size="10.00">customerId = &quot;e2f7bc4c&#45;ef2a&#45;466e&#45;b8a5&#45;d24f48b13afe&quot;</text>
<text text-anchor="start" x="710" y="-176" font-family="Times,serif" font-size="10.00">iban = null</text>
<text text-anchor="start" x="710" y="-165" font-family="Times,serif" font-size="10.00">id = &quot;7ec351d6&#45;652f&#45;4691&#45;8e72&#45;ea432d44a0c8&quot;</text>
<text text-anchor="start" x="710" y="-154" font-family="Times,serif" font-size="10.00">receivedTransaction = </text>
<text text-anchor="start" x="710" y="-143" font-family="Times,serif" font-size="10.00">sentTransaction = </text>
<text text-anchor="start" x="710" y="-132" font-family="Times,serif" font-size="10.00">status = &quot;ACTIVE&quot;</text>
</g>
<!-- b&#45;&gt;7ec351d6_652f_4691_8e72_ea432d44a0c8 -->
<g id="edge7" class="edge">
<title>b&#45;&gt;7ec351d6_652f_4691_8e72_ea432d44a0c8</title>
<path fill="none" stroke="black" d="M711.54,-265.8C724.98,-255.19 741.09,-242.47 756.86,-230.02"/>
<text text-anchor="middle" x="738.36" y="-233.02" font-family="Times,serif" font-size="10.00">accounts</text>
<text text-anchor="middle" x="701.04" y="-257.8" font-family="Times,serif" font-size="10.00">bank</text>
</g>
<!-- e2f7bc4c_ef2a_466e_b8a5_d24f48b13afe -->
<g id="node9" class="node">
<title>e2f7bc4c_ef2a_466e_b8a5_d24f48b13afe</title>
<polygon fill="none" stroke="black" points="717,-65 717,-82 932,-82 932,-65 717,-65"/>
<text text-anchor="start" x="720" y="-72" font-family="Times,serif" text-decoration="underline" font-size="10.00">e2f7bc4c&#45;ef2a&#45;466e&#45;b8a5&#45;d24f48b13afe :Customer</text>
<polygon fill="none" stroke="black" points="717,-4 717,-65 932,-65 932,-4 717,-4"/>
<text text-anchor="start" x="729" y="-54" font-family="Times,serif" font-size="10.00">email = &quot;john@doe.ee&quot;</text>
<text text-anchor="start" x="729" y="-43" font-family="Times,serif" font-size="10.00">firstName = &quot;John&quot;</text>
<text text-anchor="start" x="729" y="-32" font-family="Times,serif" font-size="10.00">id = &quot;e2f7bc4c&#45;ef2a&#45;466e&#45;b8a5&#45;d24f48b13afe&quot;</text>
<text text-anchor="start" x="729" y="-21" font-family="Times,serif" font-size="10.00">lastName = &quot;Doe&quot;</text>
<text text-anchor="start" x="729" y="-10" font-family="Times,serif" font-size="10.00">password = &quot;pass1234&quot;</text>
</g>
<!-- b&#45;&gt;e2f7bc4c_ef2a_466e_b8a5_d24f48b13afe -->
<g id="edge10" class="edge">
<title>b&#45;&gt;e2f7bc4c_ef2a_466e_b8a5_d24f48b13afe</title>
<path fill="none" stroke="black" d="M673.65,-265.72C667.79,-230.42 662.53,-166.38 690,-122 698.78,-107.81 711.17,-95.92 724.9,-86.04"/>
<text text-anchor="middle" x="704.4" y="-89.04" font-family="Times,serif" font-size="10.00">customers</text>
<text text-anchor="middle" x="663.15" y="-257.72" font-family="Times,serif" font-size="10.00">bank</text>
</g>
<!-- 1eaf6f4c_4f92_4e04_bd87_c82be03265de -->
<g id="node10" class="node">
<title>1eaf6f4c_4f92_4e04_bd87_c82be03265de</title>
<polygon fill="none" stroke="black" points="1244,-65 1244,-82 1463,-82 1463,-65 1244,-65"/>
<text text-anchor="start" x="1247" y="-72" font-family="Times,serif" text-decoration="underline" font-size="10.00">1eaf6f4c&#45;4f92&#45;4e04&#45;bd87&#45;c82be03265de :Customer</text>
<polygon fill="none" stroke="black" points="1244,-4 1244,-65 1463,-65 1463,-4 1244,-4"/>
<text text-anchor="start" x="1256" y="-54" font-family="Times,serif" font-size="10.00">email = &quot;bobby@tt.ee&quot;</text>
<text text-anchor="start" x="1256" y="-43" font-family="Times,serif" font-size="10.00">firstName = &quot;Bob&quot;</text>
<text text-anchor="start" x="1256" y="-32" font-family="Times,serif" font-size="10.00">id = &quot;1eaf6f4c&#45;4f92&#45;4e04&#45;bd87&#45;c82be03265de&quot;</text>
<text text-anchor="start" x="1256" y="-21" font-family="Times,serif" font-size="10.00">lastName = &quot;Jackson&quot;</text>
<text text-anchor="start" x="1256" y="-10" font-family="Times,serif" font-size="10.00">password = &quot;secret&quot;</text>
</g>
<!-- b&#45;&gt;1eaf6f4c_4f92_4e04_bd87_c82be03265de -->
<g id="edge11" class="edge">
<title>b&#45;&gt;1eaf6f4c_4f92_4e04_bd87_c82be03265de</title>
<path fill="none" stroke="black" d="M1103.2,-279.29C1252.06,-270.57 1388.44,-255.61 1412,-230 1444.49,-194.67 1427.27,-167.51 1412,-122 1407.73,-109.28 1400.48,-96.99 1392.49,-86.06"/>
<text text-anchor="middle" x="1371.99" y="-89.06" font-family="Times,serif" font-size="10.00">customers</text>
<text text-anchor="middle" x="1113.7" y="-282.29" font-family="Times,serif" font-size="10.00">bank</text>
</g>
<!-- 66f8ef71_7858_445f_9658_68f54331d05f -->
<g id="node11" class="node">
<title>66f8ef71_7858_445f_9658_68f54331d05f</title>
<polygon fill="none" stroke="black" points="207,-65 207,-82 426,-82 426,-65 207,-65"/>
<text text-anchor="start" x="210" y="-72" font-family="Times,serif" text-decoration="underline" font-size="10.00">66f8ef71&#45;7858&#45;445f&#45;9658&#45;68f54331d05f :Customer</text>
<polygon fill="none" stroke="black" points="207,-4 207,-65 426,-65 426,-4 207,-4"/>
<text text-anchor="start" x="219" y="-54" font-family="Times,serif" font-size="10.00">email = &quot;johntest@doe.ee&quot;</text>
<text text-anchor="start" x="219" y="-43" font-family="Times,serif" font-size="10.00">firstName = &quot;johntest&quot;</text>
<text text-anchor="start" x="219" y="-32" font-family="Times,serif" font-size="10.00">id = &quot;66f8ef71&#45;7858&#45;445f&#45;9658&#45;68f54331d05f&quot;</text>
<text text-anchor="start" x="219" y="-21" font-family="Times,serif" font-size="10.00">lastName = &quot;Doe&quot;</text>
<text text-anchor="start" x="219" y="-10" font-family="Times,serif" font-size="10.00">password = &quot;pass1234&quot;</text>
</g>
<!-- b&#45;&gt;66f8ef71_7858_445f_9658_68f54331d05f -->
<g id="edge12" class="edge">
<title>b&#45;&gt;66f8ef71_7858_445f_9658_68f54331d05f</title>
<path fill="none" stroke="black" d="M642.47,-265.96C630.37,-255.95 617.77,-243.59 609,-230 581.78,-187.83 612.06,-156.91 576,-122 532.01,-79.4 501.65,-103.62 443,-86 439.89,-85.06 436.73,-84.11 433.55,-83.13"/>
<text text-anchor="middle" x="454.05" y="-86.13" font-family="Times,serif" font-size="10.00">customers</text>
<text text-anchor="middle" x="642.47" y="-257.96" font-family="Times,serif" font-size="10.00">bank</text>
</g>
<!-- 36ef53b8_5bc0_46ac_9cfe_752774821213 -->
<g id="node12" class="node">
<title>36ef53b8_5bc0_46ac_9cfe_752774821213</title>
<polygon fill="none" stroke="black" points="460,-65 460,-82 682,-82 682,-65 460,-65"/>
<text text-anchor="start" x="463" y="-72" font-family="Times,serif" text-decoration="underline" font-size="10.00">36ef53b8&#45;5bc0&#45;46ac&#45;9cfe&#45;752774821213 :Customer</text>
<polygon fill="none" stroke="black" points="460,-4 460,-65 682,-65 682,-4 460,-4"/>
<text text-anchor="start" x="472" y="-54" font-family="Times,serif" font-size="10.00">email = &quot;bobbytest@tt.ee&quot;</text>
<text text-anchor="start" x="472" y="-43" font-family="Times,serif" font-size="10.00">firstName = &quot;Bob&quot;</text>
<text text-anchor="start" x="472" y="-32" font-family="Times,serif" font-size="10.00">id = &quot;36ef53b8&#45;5bc0&#45;46ac&#45;9cfe&#45;752774821213&quot;</text>
<text text-anchor="start" x="472" y="-21" font-family="Times,serif" font-size="10.00">lastName = &quot;Jackson&quot;</text>
<text text-anchor="start" x="472" y="-10" font-family="Times,serif" font-size="10.00">password = &quot;secret&quot;</text>
</g>
<!-- b&#45;&gt;36ef53b8_5bc0_46ac_9cfe_752774821213 -->
<g id="edge13" class="edge">
<title>b&#45;&gt;36ef53b8_5bc0_46ac_9cfe_752774821213</title>
<path fill="none" stroke="black" d="M668.93,-265.73C655.75,-232.33 631.65,-172.38 609,-122 603.75,-110.32 597.8,-97.8 592.19,-86.28"/>
<text text-anchor="middle" x="571.69" y="-89.28" font-family="Times,serif" font-size="10.00">customers</text>
<text text-anchor="middle" x="679.43" y="-257.73" font-family="Times,serif" font-size="10.00">bank</text>
</g>
<!-- bec54aa1_30ec_4812_bf15_945a4aa79685&#45;&gt;c -->
<g id="edge14" class="edge">
<title>bec54aa1_30ec_4812_bf15_945a4aa79685&#45;&gt;c</title>
<path fill="none" stroke="black" d="M332.83,-125.09C329.87,-124.03 326.92,-123 324,-122 265.24,-101.91 247.73,-106.18 189,-86 170.64,-79.69 150.85,-71.58 133.84,-64.16"/>
<text text-anchor="middle" x="151.84" y="-67.16" font-family="Times,serif" font-size="10.00">currency</text>
</g>
<!-- bec54aa1_30ec_4812_bf15_945a4aa79685&#45;&gt;36ef53b8_5bc0_46ac_9cfe_752774821213 -->
<g id="edge15" class="edge">
<title>bec54aa1_30ec_4812_bf15_945a4aa79685&#45;&gt;36ef53b8_5bc0_46ac_9cfe_752774821213</title>
<path fill="none" stroke="black" d="M499.22,-121.72C510.08,-109.96 521.44,-97.66 531.84,-86.4"/>
<text text-anchor="middle" x="518.84" y="-89.4" font-family="Times,serif" font-size="10.00">owner</text>
<text text-anchor="middle" x="482.72" y="-113.72" font-family="Times,serif" font-size="10.00">account</text>
</g>
<!-- d2e8f039_a859_45a7_ba3c_9a3bb8bd2f60&#45;&gt;c -->
<g id="edge16" class="edge">
<title>d2e8f039_a859_45a7_ba3c_9a3bb8bd2f60&#45;&gt;c</title>
<path fill="none" stroke="black" d="M154.07,-121.72C137.37,-101.46 119.34,-79.58 106.67,-64.22"/>
<text text-anchor="middle" x="124.67" y="-67.22" font-family="Times,serif" font-size="10.00">currency</text>
</g>
<!-- d2e8f039_a859_45a7_ba3c_9a3bb8bd2f60&#45;&gt;66f8ef71_7858_445f_9658_68f54331d05f -->
<g id="edge17" class="edge">
<title>d2e8f039_a859_45a7_ba3c_9a3bb8bd2f60&#45;&gt;66f8ef71_7858_445f_9658_68f54331d05f</title>
<path fill="none" stroke="black" d="M246,-121.72C256.59,-109.96 267.67,-97.66 277.81,-86.4"/>
<text text-anchor="middle" x="264.81" y="-89.4" font-family="Times,serif" font-size="10.00">owner</text>
<text text-anchor="middle" x="229.5" y="-113.72" font-family="Times,serif" font-size="10.00">account</text>
</g>
<!-- c1 -->
<g id="node13" class="node">
<title>c1</title>
<polygon fill="none" stroke="black" points="967,-43 967,-60 1131,-60 1131,-43 967,-43"/>
<text text-anchor="start" x="1022.5" y="-50" font-family="Times,serif" text-decoration="underline" font-size="10.00">c1 :Currency</text>
<polygon fill="none" stroke="black" points="967,-26 967,-43 1131,-43 1131,-26 967,-26"/>
<text text-anchor="start" x="970" y="-32" font-family="Times,serif" font-size="10.00">declaringClass = class model.Currency</text>
</g>
<!-- sendItToTheBank&#45;&gt;c1 -->
<g id="edge18" class="edge">
<title>sendItToTheBank&#45;&gt;c1</title>
<path fill="none" stroke="black" d="M1049,-121.72C1049,-101.46 1049,-79.58 1049,-64.22"/>
<text text-anchor="middle" x="1031" y="-67.22" font-family="Times,serif" font-size="10.00">currency</text>
</g>
<!-- 8a633aa5_907c_4e57_a313_22e0adb2672e&#45;&gt;1eaf6f4c_4f92_4e04_bd87_c82be03265de -->
<g id="edge20" class="edge">
<title>8a633aa5_907c_4e57_a313_22e0adb2672e&#45;&gt;1eaf6f4c_4f92_4e04_bd87_c82be03265de</title>
<path fill="none" stroke="black" d="M1307.32,-121.72C1314.23,-109.96 1321.46,-97.66 1328.08,-86.4"/>
<text text-anchor="middle" x="1315.08" y="-89.4" font-family="Times,serif" font-size="10.00">owner</text>
<text text-anchor="middle" x="1290.82" y="-113.72" font-family="Times,serif" font-size="10.00">account</text>
</g>
<!-- 8a633aa5_907c_4e57_a313_22e0adb2672e&#45;&gt;c1 -->
<g id="edge19" class="edge">
<title>8a633aa5_907c_4e57_a313_22e0adb2672e&#45;&gt;c1</title>
<path fill="none" stroke="black" d="M1184,-121.91C1148.73,-101.55 1110.58,-79.54 1083.86,-64.12"/>
<text text-anchor="middle" x="1101.86" y="-67.12" font-family="Times,serif" font-size="10.00">currency</text>
</g>
<!-- 7ec351d6_652f_4691_8e72_ea432d44a0c8&#45;&gt;e2f7bc4c_ef2a_466e_b8a5_d24f48b13afe -->
<g id="edge22" class="edge">
<title>7ec351d6_652f_4691_8e72_ea432d44a0c8&#45;&gt;e2f7bc4c_ef2a_466e_b8a5_d24f48b13afe</title>
<path fill="none" stroke="black" d="M824,-121.72C824,-109.96 824,-97.66 824,-86.4"/>
<text text-anchor="middle" x="811" y="-89.4" font-family="Times,serif" font-size="10.00">owner</text>
<text text-anchor="middle" x="807.5" y="-113.72" font-family="Times,serif" font-size="10.00">account</text>
</g>
<!-- 7ec351d6_652f_4691_8e72_ea432d44a0c8&#45;&gt;c1 -->
<g id="edge21" class="edge">
<title>7ec351d6_652f_4691_8e72_ea432d44a0c8&#45;&gt;c1</title>
<path fill="none" stroke="black" d="M915.19,-121.91C950.15,-101.55 987.96,-79.54 1014.44,-64.12"/>
<text text-anchor="middle" x="996.44" y="-67.12" font-family="Times,serif" font-size="10.00">currency</text>
</g>
</g>
</svg>
