<?xml version="1.0" encoding="UTF-8" standalone="no"?>
<!DOCTYPE svg PUBLIC "-//W3C//DTD SVG 1.1//EN"
 "http://www.w3.org/Graphics/SVG/1.1/DTD/svg11.dtd">
<!-- Generated by graphviz version 2.43.0 (0)
 -->
<!-- Title: model Pages: 1 -->
<svg width="2238px" height="327px"
 viewBox="0.00 0.00 2238.00 327.00" xmlns="http://www.w3.org/2000/svg" xmlns:xlink="http://www.w3.org/1999/xlink">
<g id="graph0" class="graph" transform="scale(1.0 1.0) rotate(0) translate(4 323)">
<title>model</title>
<polygon fill="white" stroke="transparent" points="-4,4 -4,-323 2234,-323 2234,4 -4,4"/>
<!-- b -->
<g id="node1" class="node">
<title>b</title>
<polygon fill="none" stroke="black" points="154,-297.5 154,-314.5 811,-314.5 811,-297.5 154,-297.5"/>
<text text-anchor="start" x="466" y="-304.5" font-family="Times,serif" text-decoration="underline" font-size="10.00">b :Bank</text>
<polygon fill="none" stroke="black" points="154,-269.5 154,-297.5 811,-297.5 811,-269.5 154,-269.5"/>
<text text-anchor="start" x="157" y="-286.5" font-family="Times,serif" font-size="10.00">accountsMap = sendItToTheBank8a633aa5&#45;907c&#45;4e57&#45;a313&#45;22e0adb2672e7ec351d6&#45;652f&#45;4691&#45;8e72&#45;ea432d44a0c882337f9a&#45;91fb&#45;4a7a&#45;9fca&#45;35879435fe98</text>
<text text-anchor="start" x="157" y="-275.5" font-family="Times,serif" font-size="10.00">customerMap = 70dace07&#45;1067&#45;47d8&#45;994b&#45;3822455ad8b0e2f7bc4c&#45;ef2a&#45;466e&#45;b8a5&#45;d24f48b13afe1eaf6f4c&#45;4f92&#45;4e04&#45;bd87&#45;c82be03265de</text>
</g>
<!-- sendItToTheBank -->
<g id="node3" class="node">
<title>sendItToTheBank</title>
<polygon fill="none" stroke="black" points="944,-209 944,-226 1093,-226 1093,-209 944,-209"/>
<text text-anchor="start" x="961.5" y="-216" font-family="Times,serif" text-decoration="underline" font-size="10.00">sendItToTheBank :Account</text>
<polygon fill="none" stroke="black" points="944,-126 944,-209 1093,-209 1093,-126 944,-126"/>
<text text-anchor="start" x="947" y="-198" font-family="Times,serif" font-size="10.00">balance = 69420.0</text>
<text text-anchor="start" x="947" y="-187" font-family="Times,serif" font-size="10.00">customerId = null</text>
<text text-anchor="start" x="947" y="-176" font-family="Times,serif" font-size="10.00">iban = &quot;EE665437524458688315&quot;</text>
<text text-anchor="start" x="947" y="-165" font-family="Times,serif" font-size="10.00">id = &quot;sendItToTheBank&quot;</text>
<text text-anchor="start" x="947" y="-154" font-family="Times,serif" font-size="10.00">receivedTransaction = </text>
<text text-anchor="start" x="947" y="-143" font-family="Times,serif" font-size="10.00">sentTransaction = </text>
<text text-anchor="start" x="947" y="-132" font-family="Times,serif" font-size="10.00">status = &quot;ACTIVE&quot;</text>
</g>
<!-- b&#45;&gt;sendItToTheBank -->
<g id="edge1" class="edge">
<title>b&#45;&gt;sendItToTheBank</title>
<path fill="none" stroke="black" d="M782.15,-265.97C830.98,-257.27 880.45,-245.61 926,-230 929.14,-228.92 932.29,-227.74 935.44,-226.46"/>
<text text-anchor="middle" x="907.44" y="-229.46" font-family="Times,serif" font-size="10.00">bankAccount</text>
<text text-anchor="middle" x="771.65" y="-257.97" font-family="Times,serif" font-size="10.00">bank</text>
</g>
<!-- 8a633aa5_907c_4e57_a313_22e0adb2672e -->
<g id="node4" class="node">
<title>8a633aa5_907c_4e57_a313_22e0adb2672e</title>
<polygon fill="none" stroke="black" points="671,-209 671,-226 909,-226 909,-209 671,-209"/>
<text text-anchor="start" x="683" y="-216" font-family="Times,serif" text-decoration="underline" font-size="10.00">8a633aa5&#45;907c&#45;4e57&#45;a313&#45;22e0adb2672e :Account</text>
<polygon fill="none" stroke="black" points="671,-126 671,-209 909,-209 909,-126 671,-126"/>
<text text-anchor="start" x="674" y="-198" font-family="Times,serif" font-size="10.00">balance = 0.0</text>
<text text-anchor="start" x="674" y="-187" font-family="Times,serif" font-size="10.00">customerId = &quot;1eaf6f4c&#45;4f92&#45;4e04&#45;bd87&#45;c82be03265de&quot;</text>
<text text-anchor="start" x="674" y="-176" font-family="Times,serif" font-size="10.00">iban = null</text>
<text text-anchor="start" x="674" y="-165" font-family="Times,serif" font-size="10.00">id = &quot;8a633aa5&#45;907c&#45;4e57&#45;a313&#45;22e0adb2672e&quot;</text>
<text text-anchor="start" x="674" y="-154" font-family="Times,serif" font-size="10.00">receivedTransaction = </text>
<text text-anchor="start" x="674" y="-143" font-family="Times,serif" font-size="10.00">sentTransaction = </text>
<text text-anchor="start" x="674" y="-132" font-family="Times,serif" font-size="10.00">status = &quot;ACTIVE&quot;</text>
</g>
<!-- b&#45;&gt;8a633aa5_907c_4e57_a313_22e0adb2672e -->
<g id="edge2" class="edge">
<title>b&#45;&gt;8a633aa5_907c_4e57_a313_22e0adb2672e</title>
<path fill="none" stroke="black" d="M551.92,-265.87C581.83,-254.87 617.15,-241.85 649,-230 653.53,-228.31 658.15,-226.59 662.81,-224.85"/>
<text text-anchor="middle" x="644.31" y="-227.85" font-family="Times,serif" font-size="10.00">accounts</text>
<text text-anchor="middle" x="541.42" y="-257.87" font-family="Times,serif" font-size="10.00">bank</text>
</g>
<!-- 7ec351d6_652f_4691_8e72_ea432d44a0c8 -->
<g id="node5" class="node">
<title>7ec351d6_652f_4691_8e72_ea432d44a0c8</title>
<polygon fill="none" stroke="black" points="365,-209 365,-226 599,-226 599,-209 365,-209"/>
<text text-anchor="start" x="375" y="-216" font-family="Times,serif" text-decoration="underline" font-size="10.00">7ec351d6&#45;652f&#45;4691&#45;8e72&#45;ea432d44a0c8 :Account</text>
<polygon fill="none" stroke="black" points="365,-126 365,-209 599,-209 599,-126 365,-126"/>
<text text-anchor="start" x="368" y="-198" font-family="Times,serif" font-size="10.00">balance = 100.0</text>
<text text-anchor="start" x="368" y="-187" font-family="Times,serif" font-size="10.00">customerId = &quot;e2f7bc4c&#45;ef2a&#45;466e&#45;b8a5&#45;d24f48b13afe&quot;</text>
<text text-anchor="start" x="368" y="-176" font-family="Times,serif" font-size="10.00">iban = null</text>
<text text-anchor="start" x="368" y="-165" font-family="Times,serif" font-size="10.00">id = &quot;7ec351d6&#45;652f&#45;4691&#45;8e72&#45;ea432d44a0c8&quot;</text>
<text text-anchor="start" x="368" y="-154" font-family="Times,serif" font-size="10.00">receivedTransaction = </text>
<text text-anchor="start" x="368" y="-143" font-family="Times,serif" font-size="10.00">sentTransaction = </text>
<text text-anchor="start" x="368" y="-132" font-family="Times,serif" font-size="10.00">status = &quot;ACTIVE&quot;</text>
</g>
<!-- b&#45;&gt;7ec351d6_652f_4691_8e72_ea432d44a0c8 -->
<g id="edge3" class="edge">
<title>b&#45;&gt;7ec351d6_652f_4691_8e72_ea432d44a0c8</title>
<path fill="none" stroke="black" d="M482,-265.8C482,-255.25 482,-242.63 482,-230.25"/>
<text text-anchor="middle" x="463.5" y="-233.25" font-family="Times,serif" font-size="10.00">accounts</text>
<text text-anchor="middle" x="471.5" y="-257.8" font-family="Times,serif" font-size="10.00">bank</text>
</g>
<!-- 82337f9a_91fb_4a7a_9fca_35879435fe98 -->
<g id="node6" class="node">
<title>82337f9a_91fb_4a7a_9fca_35879435fe98</title>
<polygon fill="none" stroke="black" points="79,-209 79,-226 293,-226 293,-209 79,-209"/>
<text text-anchor="start" x="82" y="-216" font-family="Times,serif" text-decoration="underline" font-size="10.00">82337f9a&#45;91fb&#45;4a7a&#45;9fca&#45;35879435fe98 :Account</text>
<polygon fill="none" stroke="black" points="79,-126 79,-209 293,-209 293,-126 79,-126"/>
<text text-anchor="start" x="89.5" y="-198" font-family="Times,serif" font-size="10.00">balance = 100.0</text>
<text text-anchor="start" x="89.5" y="-187" font-family="Times,serif" font-size="10.00">customerId = null</text>
<text text-anchor="start" x="89.5" y="-176" font-family="Times,serif" font-size="10.00">iban = &quot;EE686143052909727757&quot;</text>
<text text-anchor="start" x="89.5" y="-165" font-family="Times,serif" font-size="10.00">id = &quot;82337f9a&#45;91fb&#45;4a7a&#45;9fca&#45;35879435fe98&quot;</text>
<text text-anchor="start" x="89.5" y="-154" font-family="Times,serif" font-size="10.00">receivedTransaction = </text>
<text text-anchor="start" x="89.5" y="-143" font-family="Times,serif" font-size="10.00">sentTransaction = </text>
<text text-anchor="start" x="89.5" y="-132" font-family="Times,serif" font-size="10.00">status = &quot;ACTIVE&quot;</text>
</g>
<!-- b&#45;&gt;82337f9a_91fb_4a7a_9fca_35879435fe98 -->
<g id="edge4" class="edge">
<title>b&#45;&gt;82337f9a_91fb_4a7a_9fca_35879435fe98</title>
<path fill="none" stroke="black" d="M410.68,-265.89C381,-255.06 346.24,-242.16 315,-230 310.49,-228.24 305.89,-226.44 301.26,-224.6"/>
<text text-anchor="middle" x="319.76" y="-227.6" font-family="Times,serif" font-size="10.00">accounts</text>
<text text-anchor="middle" x="400.18" y="-257.89" font-family="Times,serif" font-size="10.00">bank</text>
</g>
<!-- e2f7bc4c_ef2a_466e_b8a5_d24f48b13afe -->
<g id="node7" class="node">
<title>e2f7bc4c_ef2a_466e_b8a5_d24f48b13afe</title>
<polygon fill="none" stroke="black" points="286,-65 286,-82 501,-82 501,-65 286,-65"/>
<text text-anchor="start" x="289" y="-72" font-family="Times,serif" text-decoration="underline" font-size="10.00">e2f7bc4c&#45;ef2a&#45;466e&#45;b8a5&#45;d24f48b13afe :Customer</text>
<polygon fill="none" stroke="black" points="286,-4 286,-65 501,-65 501,-4 286,-4"/>
<text text-anchor="start" x="298" y="-54" font-family="Times,serif" font-size="10.00">email = &quot;john@doe.ee&quot;</text>
<text text-anchor="start" x="298" y="-43" font-family="Times,serif" font-size="10.00">firstName = &quot;John&quot;</text>
<text text-anchor="start" x="298" y="-32" font-family="Times,serif" font-size="10.00">id = &quot;e2f7bc4c&#45;ef2a&#45;466e&#45;b8a5&#45;d24f48b13afe&quot;</text>
<text text-anchor="start" x="298" y="-21" font-family="Times,serif" font-size="10.00">lastName = &quot;Doe&quot;</text>
<text text-anchor="start" x="298" y="-10" font-family="Times,serif" font-size="10.00">password = &quot;pass1234&quot;</text>
</g>
<!-- b&#45;&gt;e2f7bc4c_ef2a_466e_b8a5_d24f48b13afe -->
<g id="edge5" class="edge">
<title>b&#45;&gt;e2f7bc4c_ef2a_466e_b8a5_d24f48b13afe</title>
<path fill="none" stroke="black" d="M389.26,-265.9C372.9,-257.17 357.95,-245.51 348,-230 322.09,-189.6 335.58,-168.37 348,-122 351.28,-109.77 356.98,-97.47 363.26,-86.37"/>
<text text-anchor="middle" x="342.76" y="-89.37" font-family="Times,serif" font-size="10.00">customers</text>
<text text-anchor="middle" x="378.76" y="-257.9" font-family="Times,serif" font-size="10.00">bank</text>
</g>
<!-- 1eaf6f4c_4f92_4e04_bd87_c82be03265de -->
<g id="node8" class="node">
<title>1eaf6f4c_4f92_4e04_bd87_c82be03265de</title>
<polygon fill="none" stroke="black" points="603,-65 603,-82 822,-82 822,-65 603,-65"/>
<text text-anchor="start" x="606" y="-72" font-family="Times,serif" text-decoration="underline" font-size="10.00">1eaf6f4c&#45;4f92&#45;4e04&#45;bd87&#45;c82be03265de :Customer</text>
<polygon fill="none" stroke="black" points="603,-4 603,-65 822,-65 822,-4 603,-4"/>
<text text-anchor="start" x="615" y="-54" font-family="Times,serif" font-size="10.00">email = &quot;bobby@tt.ee&quot;</text>
<text text-anchor="start" x="615" y="-43" font-family="Times,serif" font-size="10.00">firstName = &quot;Bob&quot;</text>
<text text-anchor="start" x="615" y="-32" font-family="Times,serif" font-size="10.00">id = &quot;1eaf6f4c&#45;4f92&#45;4e04&#45;bd87&#45;c82be03265de&quot;</text>
<text text-anchor="start" x="615" y="-21" font-family="Times,serif" font-size="10.00">lastName = &quot;Jackson&quot;</text>
<text text-anchor="start" x="615" y="-10" font-family="Times,serif" font-size="10.00">password = &quot;secret&quot;</text>
</g>
<!-- b&#45;&gt;1eaf6f4c_4f92_4e04_bd87_c82be03265de -->
<g id="edge6" class="edge">
<title>b&#45;&gt;1eaf6f4c_4f92_4e04_bd87_c82be03265de</title>
<path fill="none" stroke="black" d="M565.01,-265.88C583.71,-256.96 602.11,-245.22 616,-230 650.29,-192.4 630.1,-166.92 654,-122 660.5,-109.78 668.78,-97.39 677.05,-86.19"/>
<text text-anchor="middle" x="656.55" y="-89.19" font-family="Times,serif" font-size="10.00">customers</text>
<text text-anchor="middle" x="575.51" y="-257.88" font-family="Times,serif" font-size="10.00">bank</text>
</g>
<!-- 70dace07_1067_47d8_994b_3822455ad8b0 -->
<g id="node9" class="node">
<title>70dace07_1067_47d8_994b_3822455ad8b0</title>
<polygon fill="none" stroke="black" points="8,-65 8,-82 236,-82 236,-65 8,-65"/>
<text text-anchor="start" x="11" y="-72" font-family="Times,serif" text-decoration="underline" font-size="10.00">70dace07&#45;1067&#45;47d8&#45;994b&#45;3822455ad8b0 :Customer</text>
<polygon fill="none" stroke="black" points="8,-4 8,-65 236,-65 236,-4 8,-4"/>
<text text-anchor="start" x="20" y="-54" font-family="Times,serif" font-size="10.00">email = &quot;johntest@doe.ee&quot;</text>
<text text-anchor="start" x="20" y="-43" font-family="Times,serif" font-size="10.00">firstName = &quot;johntest&quot;</text>
<text text-anchor="start" x="20" y="-32" font-family="Times,serif" font-size="10.00">id = &quot;70dace07&#45;1067&#45;47d8&#45;994b&#45;3822455ad8b0&quot;</text>
<text text-anchor="start" x="20" y="-21" font-family="Times,serif" font-size="10.00">lastName = &quot;Doe&quot;</text>
<text text-anchor="start" x="20" y="-10" font-family="Times,serif" font-size="10.00">password = &quot;pass1234&quot;</text>
</g>
<!-- b&#45;&gt;70dace07_1067_47d8_994b_3822455ad8b0 -->
<g id="edge7" class="edge">
<title>b&#45;&gt;70dace07_1067_47d8_994b_3822455ad8b0</title>
<path fill="none" stroke="black" d="M145.34,-267.85C106.95,-258.89 76.4,-246.66 62,-230 30.61,-193.68 46.54,-167.44 62,-122 66.29,-109.38 73.54,-97.21 81.54,-86.39"/>
<text text-anchor="middle" x="61.04" y="-89.39" font-family="Times,serif" font-size="10.00">customers</text>
<text text-anchor="middle" x="134.84" y="-270.85" font-family="Times,serif" font-size="10.00">bank</text>
</g>
<!-- b1 -->
<g id="node2" class="node">
<title>b1</title>
<polygon fill="none" stroke="black" points="1406,-297.5 1406,-314.5 2068,-314.5 2068,-297.5 1406,-297.5"/>
<text text-anchor="start" x="1718" y="-304.5" font-family="Times,serif" text-decoration="underline" font-size="10.00">b1 :Bank</text>
<polygon fill="none" stroke="black" points="1406,-269.5 1406,-297.5 2068,-297.5 2068,-269.5 1406,-269.5"/>
<text text-anchor="start" x="1409" y="-286.5" font-family="Times,serif" font-size="10.00">accountsMap = sendItToTheBank8a633aa5&#45;907c&#45;4e57&#45;a313&#45;22e0adb2672e7ec351d6&#45;652f&#45;4691&#45;8e72&#45;ea432d44a0c834388b65&#45;d00f&#45;403b&#45;a21a&#45;1447e7c16a9f</text>
<text text-anchor="start" x="1409" y="-275.5" font-family="Times,serif" font-size="10.00">customerMap = e2f7bc4c&#45;ef2a&#45;466e&#45;b8a5&#45;d24f48b13afe1eaf6f4c&#45;4f92&#45;4e04&#45;bd87&#45;c82be03265def0278d1c&#45;1b32&#45;44e0&#45;85c6&#45;687701560c52</text>
</g>
<!-- sendItToTheBank2 -->
<g id="node10" class="node">
<title>sendItToTheBank2</title>
<polygon fill="none" stroke="black" points="1127,-209 1127,-226 1276,-226 1276,-209 1127,-209"/>
<text text-anchor="start" x="1144.5" y="-216" font-family="Times,serif" text-decoration="underline" font-size="10.00">sendItToTheBank :Account</text>
<polygon fill="none" stroke="black" points="1127,-126 1127,-209 1276,-209 1276,-126 1127,-126"/>
<text text-anchor="start" x="1130" y="-198" font-family="Times,serif" font-size="10.00">balance = 69420.0</text>
<text text-anchor="start" x="1130" y="-187" font-family="Times,serif" font-size="10.00">customerId = null</text>
<text text-anchor="start" x="1130" y="-176" font-family="Times,serif" font-size="10.00">iban = &quot;EE837503434148295536&quot;</text>
<text text-anchor="start" x="1130" y="-165" font-family="Times,serif" font-size="10.00">id = &quot;sendItToTheBank&quot;</text>
<text text-anchor="start" x="1130" y="-154" font-family="Times,serif" font-size="10.00">receivedTransaction = </text>
<text text-anchor="start" x="1130" y="-143" font-family="Times,serif" font-size="10.00">sentTransaction = </text>
<text text-anchor="start" x="1130" y="-132" font-family="Times,serif" font-size="10.00">status = &quot;ACTIVE&quot;</text>
</g>
<!-- b1&#45;&gt;sendItToTheBank2 -->
<g id="edge8" class="edge">
<title>b1&#45;&gt;sendItToTheBank2</title>
<path fill="none" stroke="black" d="M1436.85,-265.97C1388.02,-257.27 1338.55,-245.61 1293,-230 1289.86,-228.92 1286.71,-227.74 1283.56,-226.46"/>
<text text-anchor="middle" x="1311.56" y="-229.46" font-family="Times,serif" font-size="10.00">bankAccount</text>
<text text-anchor="middle" x="1426.35" y="-257.97" font-family="Times,serif" font-size="10.00">bank</text>
</g>
<!-- 8a633aa5_907c_4e57_a313_22e0adb2672e3 -->
<g id="node11" class="node">
<title>8a633aa5_907c_4e57_a313_22e0adb2672e3</title>
<polygon fill="none" stroke="black" points="1310,-209 1310,-226 1548,-226 1548,-209 1310,-209"/>
<text text-anchor="start" x="1322" y="-216" font-family="Times,serif" text-decoration="underline" font-size="10.00">8a633aa5&#45;907c&#45;4e57&#45;a313&#45;22e0adb2672e :Account</text>
<polygon fill="none" stroke="black" points="1310,-126 1310,-209 1548,-209 1548,-126 1310,-126"/>
<text text-anchor="start" x="1313" y="-198" font-family="Times,serif" font-size="10.00">balance = 0.0</text>
<text text-anchor="start" x="1313" y="-187" font-family="Times,serif" font-size="10.00">customerId = &quot;1eaf6f4c&#45;4f92&#45;4e04&#45;bd87&#45;c82be03265de&quot;</text>
<text text-anchor="start" x="1313" y="-176" font-family="Times,serif" font-size="10.00">iban = null</text>
<text text-anchor="start" x="1313" y="-165" font-family="Times,serif" font-size="10.00">id = &quot;8a633aa5&#45;907c&#45;4e57&#45;a313&#45;22e0adb2672e&quot;</text>
<text text-anchor="start" x="1313" y="-154" font-family="Times,serif" font-size="10.00">receivedTransaction = </text>
<text text-anchor="start" x="1313" y="-143" font-family="Times,serif" font-size="10.00">sentTransaction = </text>
<text text-anchor="start" x="1313" y="-132" font-family="Times,serif" font-size="10.00">status = &quot;ACTIVE&quot;</text>
</g>
<!-- b1&#45;&gt;8a633aa5_907c_4e57_a313_22e0adb2672e3 -->
<g id="edge9" class="edge">
<title>b1&#45;&gt;8a633aa5_907c_4e57_a313_22e0adb2672e3</title>
<path fill="none" stroke="black" d="M1667.08,-265.87C1637.17,-254.87 1601.85,-241.85 1570,-230 1565.47,-228.31 1560.85,-226.59 1556.19,-224.85"/>
<text text-anchor="middle" x="1574.69" y="-227.85" font-family="Times,serif" font-size="10.00">accounts</text>
<text text-anchor="middle" x="1656.58" y="-257.87" font-family="Times,serif" font-size="10.00">bank</text>
</g>
<!-- 7ec351d6_652f_4691_8e72_ea432d44a0c84 -->
<g id="node12" class="node">
<title>7ec351d6_652f_4691_8e72_ea432d44a0c84</title>
<polygon fill="none" stroke="black" points="1620,-209 1620,-226 1854,-226 1854,-209 1620,-209"/>
<text text-anchor="start" x="1630" y="-216" font-family="Times,serif" text-decoration="underline" font-size="10.00">7ec351d6&#45;652f&#45;4691&#45;8e72&#45;ea432d44a0c8 :Account</text>
<polygon fill="none" stroke="black" points="1620,-126 1620,-209 1854,-209 1854,-126 1620,-126"/>
<text text-anchor="start" x="1623" y="-198" font-family="Times,serif" font-size="10.00">balance = 100.0</text>
<text text-anchor="start" x="1623" y="-187" font-family="Times,serif" font-size="10.00">customerId = &quot;e2f7bc4c&#45;ef2a&#45;466e&#45;b8a5&#45;d24f48b13afe&quot;</text>
<text text-anchor="start" x="1623" y="-176" font-family="Times,serif" font-size="10.00">iban = null</text>
<text text-anchor="start" x="1623" y="-165" font-family="Times,serif" font-size="10.00">id = &quot;7ec351d6&#45;652f&#45;4691&#45;8e72&#45;ea432d44a0c8&quot;</text>
<text text-anchor="start" x="1623" y="-154" font-family="Times,serif" font-size="10.00">receivedTransaction = </text>
<text text-anchor="start" x="1623" y="-143" font-family="Times,serif" font-size="10.00">sentTransaction = </text>
<text text-anchor="start" x="1623" y="-132" font-family="Times,serif" font-size="10.00">status = &quot;ACTIVE&quot;</text>
</g>
<!-- b1&#45;&gt;7ec351d6_652f_4691_8e72_ea432d44a0c84 -->
<g id="edge10" class="edge">
<title>b1&#45;&gt;7ec351d6_652f_4691_8e72_ea432d44a0c84</title>
<path fill="none" stroke="black" d="M1737,-265.8C1737,-255.25 1737,-242.63 1737,-230.25"/>
<text text-anchor="middle" x="1718.5" y="-233.25" font-family="Times,serif" font-size="10.00">accounts</text>
<text text-anchor="middle" x="1726.5" y="-257.8" font-family="Times,serif" font-size="10.00">bank</text>
</g>
<!-- 34388b65_d00f_403b_a21a_1447e7c16a9f -->
<g id="node13" class="node">
<title>34388b65_d00f_403b_a21a_1447e7c16a9f</title>
<polygon fill="none" stroke="black" points="1927,-209 1927,-226 2146,-226 2146,-209 1927,-209"/>
<text text-anchor="start" x="1930" y="-216" font-family="Times,serif" text-decoration="underline" font-size="10.00">34388b65&#45;d00f&#45;403b&#45;a21a&#45;1447e7c16a9f :Account</text>
<polygon fill="none" stroke="black" points="1927,-126 1927,-209 2146,-209 2146,-126 1927,-126"/>
<text text-anchor="start" x="1937" y="-198" font-family="Times,serif" font-size="10.00">balance = 0.0</text>
<text text-anchor="start" x="1937" y="-187" font-family="Times,serif" font-size="10.00">customerId = null</text>
<text text-anchor="start" x="1937" y="-176" font-family="Times,serif" font-size="10.00">iban = &quot;EE919261283640466383&quot;</text>
<text text-anchor="start" x="1937" y="-165" font-family="Times,serif" font-size="10.00">id = &quot;34388b65&#45;d00f&#45;403b&#45;a21a&#45;1447e7c16a9f&quot;</text>
<text text-anchor="start" x="1937" y="-154" font-family="Times,serif" font-size="10.00">receivedTransaction = </text>
<text text-anchor="start" x="1937" y="-143" font-family="Times,serif" font-size="10.00">sentTransaction = </text>
<text text-anchor="start" x="1937" y="-132" font-family="Times,serif" font-size="10.00">status = &quot;ACTIVE&quot;</text>
</g>
<!-- b1&#45;&gt;34388b65_d00f_403b_a21a_1447e7c16a9f -->
<g id="edge11" class="edge">
<title>b1&#45;&gt;34388b65_d00f_403b_a21a_1447e7c16a9f</title>
<path fill="none" stroke="black" d="M1807.86,-265.92C1837.63,-255.04 1872.57,-242.09 1904,-230 1908.72,-228.18 1913.54,-226.32 1918.4,-224.42"/>
<text text-anchor="middle" x="1899.9" y="-227.42" font-family="Times,serif" font-size="10.00">accounts</text>
<text text-anchor="middle" x="1797.36" y="-257.92" font-family="Times,serif" font-size="10.00">bank</text>
</g>
<!-- e2f7bc4c_ef2a_466e_b8a5_d24f48b13afe5 -->
<g id="node14" class="node">
<title>e2f7bc4c_ef2a_466e_b8a5_d24f48b13afe5</title>
<polygon fill="none" stroke="black" points="1652,-65 1652,-82 1867,-82 1867,-65 1652,-65"/>
<text text-anchor="start" x="1655" y="-72" font-family="Times,serif" text-decoration="underline" font-size="10.00">e2f7bc4c&#45;ef2a&#45;466e&#45;b8a5&#45;d24f48b13afe :Customer</text>
<polygon fill="none" stroke="black" points="1652,-4 1652,-65 1867,-65 1867,-4 1652,-4"/>
<text text-anchor="start" x="1664" y="-54" font-family="Times,serif" font-size="10.00">email = &quot;john@doe.ee&quot;</text>
<text text-anchor="start" x="1664" y="-43" font-family="Times,serif" font-size="10.00">firstName = &quot;John&quot;</text>
<text text-anchor="start" x="1664" y="-32" font-family="Times,serif" font-size="10.00">id = &quot;e2f7bc4c&#45;ef2a&#45;466e&#45;b8a5&#45;d24f48b13afe&quot;</text>
<text text-anchor="start" x="1664" y="-21" font-family="Times,serif" font-size="10.00">lastName = &quot;Doe&quot;</text>
<text text-anchor="start" x="1664" y="-10" font-family="Times,serif" font-size="10.00">password = &quot;pass1234&quot;</text>
</g>
<!-- b1&#45;&gt;e2f7bc4c_ef2a_466e_b8a5_d24f48b13afe5 -->
<g id="edge12" class="edge">
<title>b1&#45;&gt;e2f7bc4c_ef2a_466e_b8a5_d24f48b13afe5</title>
<path fill="none" stroke="black" d="M1829.74,-265.9C1846.1,-257.17 1861.05,-245.51 1871,-230 1896.91,-189.6 1893.22,-164.55 1871,-122 1863.76,-108.14 1852.81,-96.24 1840.54,-86.21"/>
<text text-anchor="middle" x="1820.04" y="-89.21" font-family="Times,serif" font-size="10.00">customers</text>
<text text-anchor="middle" x="1819.24" y="-257.9" font-family="Times,serif" font-size="10.00">bank</text>
</g>
<!-- 1eaf6f4c_4f92_4e04_bd87_c82be03265de6 -->
<g id="node15" class="node">
<title>1eaf6f4c_4f92_4e04_bd87_c82be03265de6</title>
<polygon fill="none" stroke="black" points="1348,-65 1348,-82 1567,-82 1567,-65 1348,-65"/>
<text text-anchor="start" x="1351" y="-72" font-family="Times,serif" text-decoration="underline" font-size="10.00">1eaf6f4c&#45;4f92&#45;4e04&#45;bd87&#45;c82be03265de :Customer</text>
<polygon fill="none" stroke="black" points="1348,-4 1348,-65 1567,-65 1567,-4 1348,-4"/>
<text text-anchor="start" x="1360" y="-54" font-family="Times,serif" font-size="10.00">email = &quot;bobby@tt.ee&quot;</text>
<text text-anchor="start" x="1360" y="-43" font-family="Times,serif" font-size="10.00">firstName = &quot;Bob&quot;</text>
<text text-anchor="start" x="1360" y="-32" font-family="Times,serif" font-size="10.00">id = &quot;1eaf6f4c&#45;4f92&#45;4e04&#45;bd87&#45;c82be03265de&quot;</text>
<text text-anchor="start" x="1360" y="-21" font-family="Times,serif" font-size="10.00">lastName = &quot;Jackson&quot;</text>
<text text-anchor="start" x="1360" y="-10" font-family="Times,serif" font-size="10.00">password = &quot;secret&quot;</text>
</g>
<!-- b1&#45;&gt;1eaf6f4c_4f92_4e04_bd87_c82be03265de6 -->
<g id="edge13" class="edge">
<title>b1&#45;&gt;1eaf6f4c_4f92_4e04_bd87_c82be03265de6</title>
<path fill="none" stroke="black" d="M1653.99,-265.88C1635.29,-256.96 1616.89,-245.22 1603,-230 1568.71,-192.4 1595.46,-162.76 1565,-122 1554.96,-108.57 1541.95,-96.49 1528.45,-86.07"/>
<text text-anchor="middle" x="1507.95" y="-89.07" font-family="Times,serif" font-size="10.00">customers</text>
<text text-anchor="middle" x="1643.49" y="-257.88" font-family="Times,serif" font-size="10.00">bank</text>
</g>
<!-- f0278d1c_1b32_44e0_85c6_687701560c52 -->
<g id="node16" class="node">
<title>f0278d1c_1b32_44e0_85c6_687701560c52</title>
<polygon fill="none" stroke="black" points="1996,-65 1996,-82 2222,-82 2222,-65 1996,-65"/>
<text text-anchor="start" x="1999" y="-72" font-family="Times,serif" text-decoration="underline" font-size="10.00">f0278d1c&#45;1b32&#45;44e0&#45;85c6&#45;687701560c52 :Customer</text>
<polygon fill="none" stroke="black" points="1996,-4 1996,-65 2222,-65 2222,-4 1996,-4"/>
<text text-anchor="start" x="2008" y="-54" font-family="Times,serif" font-size="10.00">email = &quot;bobbytest@tt.ee&quot;</text>
<text text-anchor="start" x="2008" y="-43" font-family="Times,serif" font-size="10.00">firstName = &quot;Bob&quot;</text>
<text text-anchor="start" x="2008" y="-32" font-family="Times,serif" font-size="10.00">id = &quot;f0278d1c&#45;1b32&#45;44e0&#45;85c6&#45;687701560c52&quot;</text>
<text text-anchor="start" x="2008" y="-21" font-family="Times,serif" font-size="10.00">lastName = &quot;Jackson&quot;</text>
<text text-anchor="start" x="2008" y="-10" font-family="Times,serif" font-size="10.00">password = &quot;secret&quot;</text>
</g>
<!-- b1&#45;&gt;f0278d1c_1b32_44e0_85c6_687701560c52 -->
<g id="edge14" class="edge">
<title>b1&#45;&gt;f0278d1c_1b32_44e0_85c6_687701560c52</title>
<path fill="none" stroke="black" d="M2076.49,-268.69C2116.34,-259.64 2148.14,-247.16 2163,-230 2194.42,-193.71 2177.31,-167.82 2163,-122 2159.07,-109.42 2152.32,-97.09 2144.9,-86.08"/>
<text text-anchor="middle" x="2124.4" y="-89.08" font-family="Times,serif" font-size="10.00">customers</text>
<text text-anchor="middle" x="2086.99" y="-271.69" font-family="Times,serif" font-size="10.00">bank</text>
</g>
<!-- c -->
<g id="node17" class="node">
<title>c</title>
<polygon fill="none" stroke="black" points="1027,-43 1027,-60 1191,-60 1191,-43 1027,-43"/>
<text text-anchor="start" x="1085" y="-50" font-family="Times,serif" text-decoration="underline" font-size="10.00">c :Currency</text>
<polygon fill="none" stroke="black" points="1027,-26 1027,-43 1191,-43 1191,-26 1027,-26"/>
<text text-anchor="start" x="1030" y="-32" font-family="Times,serif" font-size="10.00">declaringClass = class model.Currency</text>
</g>
<!-- sendItToTheBank&#45;&gt;c -->
<g id="edge15" class="edge">
<title>sendItToTheBank&#45;&gt;c</title>
<path fill="none" stroke="black" d="M1055.01,-121.72C1069.09,-101.46 1084.28,-79.58 1094.96,-64.22"/>
<text text-anchor="middle" x="1076.96" y="-67.22" font-family="Times,serif" font-size="10.00">currency</text>
</g>
<!-- 8a633aa5_907c_4e57_a313_22e0adb2672e&#45;&gt;1eaf6f4c_4f92_4e04_bd87_c82be03265de -->
<g id="edge17" class="edge">
<title>8a633aa5_907c_4e57_a313_22e0adb2672e&#45;&gt;1eaf6f4c_4f92_4e04_bd87_c82be03265de</title>
<path fill="none" stroke="black" d="M758.27,-121.72C751.27,-109.96 743.95,-97.66 737.24,-86.4"/>
<text text-anchor="middle" x="724.24" y="-89.4" font-family="Times,serif" font-size="10.00">owner</text>
<text text-anchor="middle" x="741.77" y="-113.72" font-family="Times,serif" font-size="10.00">account</text>
</g>
<!-- 8a633aa5_907c_4e57_a313_22e0adb2672e&#45;&gt;c -->
<g id="edge16" class="edge">
<title>8a633aa5_907c_4e57_a313_22e0adb2672e&#45;&gt;c</title>
<path fill="none" stroke="black" d="M917.45,-122.66C967.61,-102.06 1022.17,-79.66 1060.19,-64.05"/>
<text text-anchor="middle" x="1042.19" y="-67.05" font-family="Times,serif" font-size="10.00">currency</text>
</g>
<!-- 7ec351d6_652f_4691_8e72_ea432d44a0c8&#45;&gt;e2f7bc4c_ef2a_466e_b8a5_d24f48b13afe -->
<g id="edge19" class="edge">
<title>7ec351d6_652f_4691_8e72_ea432d44a0c8&#45;&gt;e2f7bc4c_ef2a_466e_b8a5_d24f48b13afe</title>
<path fill="none" stroke="black" d="M445.8,-121.72C437.81,-109.96 429.45,-97.66 421.8,-86.4"/>
<text text-anchor="middle" x="408.8" y="-89.4" font-family="Times,serif" font-size="10.00">owner</text>
<text text-anchor="middle" x="429.3" y="-113.72" font-family="Times,serif" font-size="10.00">account</text>
</g>
<!-- 7ec351d6_652f_4691_8e72_ea432d44a0c8&#45;&gt;c -->
<g id="edge18" class="edge">
<title>7ec351d6_652f_4691_8e72_ea432d44a0c8&#45;&gt;c</title>
<path fill="none" stroke="black" d="M607.36,-134.32C622.98,-129.86 638.8,-125.63 654,-122 721.63,-105.86 906.58,-75.77 1018.76,-58.05"/>
<text text-anchor="middle" x="1000.76" y="-61.05" font-family="Times,serif" font-size="10.00">currency</text>
</g>
<!-- 82337f9a_91fb_4a7a_9fca_35879435fe98&#45;&gt;70dace07_1067_47d8_994b_3822455ad8b0 -->
<g id="edge21" class="edge">
<title>82337f9a_91fb_4a7a_9fca_35879435fe98&#45;&gt;70dace07_1067_47d8_994b_3822455ad8b0</title>
<path fill="none" stroke="black" d="M159.97,-121.72C154.22,-109.96 148.21,-97.66 142.71,-86.4"/>
<text text-anchor="middle" x="129.71" y="-89.4" font-family="Times,serif" font-size="10.00">owner</text>
<text text-anchor="middle" x="143.47" y="-113.72" font-family="Times,serif" font-size="10.00">account</text>
</g>
<!-- 82337f9a_91fb_4a7a_9fca_35879435fe98&#45;&gt;c -->
<g id="edge20" class="edge">
<title>82337f9a_91fb_4a7a_9fca_35879435fe98&#45;&gt;c</title>
<path fill="none" stroke="black" d="M301.02,-133.6C316.65,-129.09 332.61,-125.04 348,-122 562.24,-79.74 621.04,-110.74 838,-86 898.55,-79.1 966.3,-68.6 1018.91,-59.82"/>
<text text-anchor="middle" x="1000.91" y="-51.82" font-family="Times,serif" font-size="10.00">currency</text>
</g>
<!-- sendItToTheBank2&#45;&gt;c -->
<g id="edge22" class="edge">
<title>sendItToTheBank2&#45;&gt;c</title>
<path fill="none" stroke="black" d="M1163.58,-121.72C1149.35,-101.46 1133.99,-79.58 1123.2,-64.22"/>
<text text-anchor="middle" x="1141.2" y="-67.22" font-family="Times,serif" font-size="10.00">currency</text>
</g>
<!-- 8a633aa5_907c_4e57_a313_22e0adb2672e3&#45;&gt;1eaf6f4c_4f92_4e04_bd87_c82be03265de6 -->
<g id="edge24" class="edge">
<title>8a633aa5_907c_4e57_a313_22e0adb2672e3&#45;&gt;1eaf6f4c_4f92_4e04_bd87_c82be03265de6</title>
<path fill="none" stroke="black" d="M1440.39,-121.72C1442.9,-109.96 1445.53,-97.66 1447.94,-86.4"/>
<text text-anchor="middle" x="1434.94" y="-89.4" font-family="Times,serif" font-size="10.00">owner</text>
<text text-anchor="middle" x="1423.89" y="-113.72" font-family="Times,serif" font-size="10.00">account</text>
</g>
<!-- 8a633aa5_907c_4e57_a313_22e0adb2672e3&#45;&gt;c -->
<g id="edge23" class="edge">
<title>8a633aa5_907c_4e57_a313_22e0adb2672e3&#45;&gt;c</title>
<path fill="none" stroke="black" d="M1301.61,-122.85C1251.24,-102.23 1196.36,-79.76 1158.12,-64.11"/>
<text text-anchor="middle" x="1176.12" y="-67.11" font-family="Times,serif" font-size="10.00">currency</text>
</g>
<!-- 7ec351d6_652f_4691_8e72_ea432d44a0c84&#45;&gt;e2f7bc4c_ef2a_466e_b8a5_d24f48b13afe5 -->
<g id="edge26" class="edge">
<title>7ec351d6_652f_4691_8e72_ea432d44a0c84&#45;&gt;e2f7bc4c_ef2a_466e_b8a5_d24f48b13afe5</title>
<path fill="none" stroke="black" d="M1745.95,-121.72C1747.92,-109.96 1749.99,-97.66 1751.88,-86.4"/>
<text text-anchor="middle" x="1738.88" y="-89.4" font-family="Times,serif" font-size="10.00">owner</text>
<text text-anchor="middle" x="1729.45" y="-113.72" font-family="Times,serif" font-size="10.00">account</text>
</g>
<!-- 7ec351d6_652f_4691_8e72_ea432d44a0c84&#45;&gt;c -->
<g id="edge25" class="edge">
<title>7ec351d6_652f_4691_8e72_ea432d44a0c84&#45;&gt;c</title>
<path fill="none" stroke="black" d="M1611.7,-134.06C1596.07,-129.64 1580.23,-125.49 1565,-122 1462.01,-98.38 1434.14,-103.87 1330,-86 1286.89,-78.6 1239.2,-69.64 1199.19,-61.9"/>
<text text-anchor="middle" x="1217.19" y="-53.9" font-family="Times,serif" font-size="10.00">currency</text>
</g>
<!-- 34388b65_d00f_403b_a21a_1447e7c16a9f&#45;&gt;f0278d1c_1b32_44e0_85c6_687701560c52 -->
<g id="edge28" class="edge">
<title>34388b65_d00f_403b_a21a_1447e7c16a9f&#45;&gt;f0278d1c_1b32_44e0_85c6_687701560c52</title>
<path fill="none" stroke="black" d="M2065.69,-121.72C2072.24,-109.96 2079.1,-97.66 2085.37,-86.4"/>
<text text-anchor="middle" x="2072.37" y="-89.4" font-family="Times,serif" font-size="10.00">owner</text>
<text text-anchor="middle" x="2049.19" y="-113.72" font-family="Times,serif" font-size="10.00">account</text>
</g>
<!-- 34388b65_d00f_403b_a21a_1447e7c16a9f&#45;&gt;c -->
<g id="edge27" class="edge">
<title>34388b65_d00f_403b_a21a_1447e7c16a9f&#45;&gt;c</title>
<path fill="none" stroke="black" d="M1918.39,-133.39C1902.61,-128.94 1886.52,-124.96 1871,-122 1634.3,-76.82 1569.03,-116.55 1330,-86 1286.71,-80.47 1239.1,-71.76 1199.19,-63.71"/>
<text text-anchor="middle" x="1217.19" y="-66.71" font-family="Times,serif" font-size="10.00">currency</text>
</g>
</g>
</svg>
