<?xml version="1.0" encoding="UTF-8" standalone="no"?>
<!DOCTYPE svg PUBLIC "-//W3C//DTD SVG 1.1//EN"
 "http://www.w3.org/Graphics/SVG/1.1/DTD/svg11.dtd">
<!-- Generated by graphviz version 2.44.0 (20200408.0750)
 -->
<!-- Title: model Pages: 1 -->
<svg width="1453px" height="484px"
 viewBox="0.00 0.00 1453.00 484.00" xmlns="http://www.w3.org/2000/svg" xmlns:xlink="http://www.w3.org/1999/xlink">
<g id="graph0" class="graph" transform="scale(1.0 1.0) rotate(0) translate(4 480)">
<title>model</title>
<polygon fill="white" stroke="transparent" points="-4,4 -4,-480 1449,-480 1449,4 -4,4"/>
<!-- fcf9715a_a49a_4dda_be4f_c74fc1fa6f53 -->
<g id="node1" class="node">
<title>fcf9715a_a49a_4dda_be4f_c74fc1fa6f53</title>
<polygon fill="none" stroke="black" points="93,-454 93,-472 309,-472 309,-454 93,-454"/>
<text text-anchor="start" x="95.64" y="-461" font-family="Times,serif" text-decoration="underline" font-size="10.00">fcf9715a&#45;a49a&#45;4dda&#45;be4f&#45;c74fc1fa6f53 :Transaction</text>
<polygon fill="none" stroke="black" points="93,-388 93,-454 309,-454 309,-388 93,-388"/>
<text text-anchor="start" x="106.94" y="-442" font-family="Times,serif" font-size="10.00">amount = 25.0</text>
<text text-anchor="start" x="106.94" y="-430" font-family="Times,serif" font-size="10.00">description = &quot;Ref: concert ticket&quot;</text>
<text text-anchor="start" x="106.94" y="-418" font-family="Times,serif" font-size="10.00">id = &quot;fcf9715a&#45;a49a&#45;4dda&#45;be4f&#45;c74fc1fa6f53&quot;</text>
<text text-anchor="start" x="106.94" y="-406" font-family="Times,serif" font-size="10.00">rejectionDescription = &quot;&quot;</text>
<text text-anchor="start" x="106.94" y="-394" font-family="Times,serif" font-size="10.00">timestamp = 2021&#45;12&#45;10T00:12:54.349311800</text>
</g>
<!-- b -->
<g id="node2" class="node">
<title>b</title>
<polygon fill="none" stroke="black" points="256,-326 256,-344 1072,-344 1072,-326 256,-326"/>
<text text-anchor="start" x="648.31" y="-333" font-family="Times,serif" text-decoration="underline" font-size="10.00">b :Bank</text>
<polygon fill="none" stroke="black" points="256,-296 256,-326 1072,-326 1072,-296 256,-296"/>
<text text-anchor="start" x="259" y="-314" font-family="Times,serif" font-size="10.00">accountsMap = sendItToTheBank8a633aa5&#45;907c&#45;4e57&#45;a313&#45;22e0adb2672e7ec351d6&#45;652f&#45;4691&#45;8e72&#45;ea432d44a0c8d7db4429&#45;0d83&#45;4895&#45;8067&#45;71cb9ca1f8b54db7b6c2&#45;2df3&#45;4483&#45;a2bd&#45;07a1c50e9db1</text>
<text text-anchor="start" x="259" y="-302" font-family="Times,serif" font-size="10.00">customerMap = b0502d44&#45;7980&#45;45dc&#45;a4fa&#45;b65c7950b7efe2f7bc4c&#45;ef2a&#45;466e&#45;b8a5&#45;d24f48b13afe1eaf6f4c&#45;4f92&#45;4e04&#45;bd87&#45;c82be03265def3eee9c2&#45;d259&#45;4f4c&#45;be98&#45;d713812eca6b</text>
</g>
<!-- fcf9715a_a49a_4dda_be4f_c74fc1fa6f53&#45;&gt;b -->
<g id="edge1" class="edge">
<title>fcf9715a_a49a_4dda_be4f_c74fc1fa6f53&#45;&gt;b</title>
<path fill="none" stroke="black" d="M317.24,-401.89C387.82,-385.42 477.6,-364.48 548.12,-348.03"/>
<text text-anchor="middle" x="538.4" y="-351.03" font-family="Times,serif" font-size="10.00">bank</text>
<text text-anchor="middle" x="341.12" y="-404.89" font-family="Times,serif" font-size="10.00">transactions</text>
</g>
<!-- c -->
<g id="node3" class="node">
<title>c</title>
<polygon fill="none" stroke="black" points="8,-46 8,-64 170,-64 170,-46 8,-46"/>
<text text-anchor="start" x="65.54" y="-53" font-family="Times,serif" text-decoration="underline" font-size="10.00">c :Currency</text>
<polygon fill="none" stroke="black" points="8,-28 8,-46 170,-46 170,-28 8,-28"/>
<text text-anchor="start" x="11" y="-34" font-family="Times,serif" font-size="10.00">declaringClass = class model.Currency</text>
</g>
<!-- fcf9715a_a49a_4dda_be4f_c74fc1fa6f53&#45;&gt;c -->
<g id="edge2" class="edge">
<title>fcf9715a_a49a_4dda_be4f_c74fc1fa6f53&#45;&gt;c</title>
<path fill="none" stroke="black" d="M151.25,-383.67C119.86,-351.53 82.11,-305.46 65,-256 42.25,-190.25 66.65,-106.62 80.62,-68.13"/>
<text text-anchor="middle" x="63.14" y="-71.13" font-family="Times,serif" font-size="10.00">currency</text>
</g>
<!-- d7db4429_0d83_4895_8067_71cb9ca1f8b5 -->
<g id="node4" class="node">
<title>d7db4429_0d83_4895_8067_71cb9ca1f8b5</title>
<polygon fill="none" stroke="black" points="330,-234 330,-252 545,-252 545,-234 330,-234"/>
<text text-anchor="start" x="332.94" y="-241" font-family="Times,serif" text-decoration="underline" font-size="10.00">d7db4429&#45;0d83&#45;4895&#45;8067&#45;71cb9ca1f8b5 :Account</text>
<polygon fill="none" stroke="black" points="330,-132 330,-234 545,-234 545,-132 330,-132"/>
<text text-anchor="start" x="339.23" y="-222" font-family="Times,serif" font-size="10.00">balance = 0.0</text>
<text text-anchor="start" x="339.23" y="-210" font-family="Times,serif" font-size="10.00">count = 0</text>
<text text-anchor="start" x="339.23" y="-198" font-family="Times,serif" font-size="10.00">customerId = null</text>
<text text-anchor="start" x="339.23" y="-186" font-family="Times,serif" font-size="10.00">iban = &quot;EE711451765355559781&quot;</text>
<text text-anchor="start" x="339.23" y="-174" font-family="Times,serif" font-size="10.00">id = &quot;d7db4429&#45;0d83&#45;4895&#45;8067&#45;71cb9ca1f8b5&quot;</text>
<text text-anchor="start" x="339.23" y="-162" font-family="Times,serif" font-size="10.00">receivedTransaction = </text>
<text text-anchor="start" x="339.23" y="-150" font-family="Times,serif" font-size="10.00">sentTransaction = </text>
<text text-anchor="start" x="339.23" y="-138" font-family="Times,serif" font-size="10.00">status = &quot;ACTIVE&quot;</text>
</g>
<!-- fcf9715a_a49a_4dda_be4f_c74fc1fa6f53&#45;&gt;d7db4429_0d83_4895_8067_71cb9ca1f8b5 -->
<g id="edge3" class="edge">
<title>fcf9715a_a49a_4dda_be4f_c74fc1fa6f53&#45;&gt;d7db4429_0d83_4895_8067_71cb9ca1f8b5</title>
<path fill="none" stroke="black" d="M204.11,-383.96C208.2,-354.9 217.59,-317.86 239,-292 262.07,-264.14 279.63,-272.14 312,-256 315.04,-254.48 318.13,-252.94 321.24,-251.39"/>
<text text-anchor="middle" x="299.3" y="-254.39" font-family="Times,serif" font-size="10.00">destination</text>
</g>
<!-- 4db7b6c2_2df3_4483_a2bd_07a1c50e9db1 -->
<g id="node5" class="node">
<title>4db7b6c2_2df3_4483_a2bd_07a1c50e9db1</title>
<polygon fill="none" stroke="black" points="83,-234 83,-252 296,-252 296,-234 83,-234"/>
<text text-anchor="start" x="85.5" y="-241" font-family="Times,serif" text-decoration="underline" font-size="10.00">4db7b6c2&#45;2df3&#45;4483&#45;a2bd&#45;07a1c50e9db1 :Account</text>
<polygon fill="none" stroke="black" points="83,-132 83,-234 296,-234 296,-132 83,-132"/>
<text text-anchor="start" x="91.79" y="-222" font-family="Times,serif" font-size="10.00">balance = 100.0</text>
<text text-anchor="start" x="91.79" y="-210" font-family="Times,serif" font-size="10.00">count = 0</text>
<text text-anchor="start" x="91.79" y="-198" font-family="Times,serif" font-size="10.00">customerId = null</text>
<text text-anchor="start" x="91.79" y="-186" font-family="Times,serif" font-size="10.00">iban = &quot;EE217803712143488742&quot;</text>
<text text-anchor="start" x="91.79" y="-174" font-family="Times,serif" font-size="10.00">id = &quot;4db7b6c2&#45;2df3&#45;4483&#45;a2bd&#45;07a1c50e9db1&quot;</text>
<text text-anchor="start" x="91.79" y="-162" font-family="Times,serif" font-size="10.00">receivedTransaction = </text>
<text text-anchor="start" x="91.79" y="-150" font-family="Times,serif" font-size="10.00">sentTransaction = </text>
<text text-anchor="start" x="91.79" y="-138" font-family="Times,serif" font-size="10.00">status = &quot;ACTIVE&quot;</text>
</g>
<!-- fcf9715a_a49a_4dda_be4f_c74fc1fa6f53&#45;&gt;4db7b6c2_2df3_4483_a2bd_07a1c50e9db1 -->
<g id="edge4" class="edge">
<title>fcf9715a_a49a_4dda_be4f_c74fc1fa6f53&#45;&gt;4db7b6c2_2df3_4483_a2bd_07a1c50e9db1</title>
<path fill="none" stroke="black" d="M198.7,-383.78C196.86,-347.64 194.27,-296.56 192.22,-256.35"/>
<text text-anchor="middle" x="179.17" y="-259.35" font-family="Times,serif" font-size="10.00">source</text>
</g>
<!-- b&#45;&gt;d7db4429_0d83_4895_8067_71cb9ca1f8b5 -->
<g id="edge9" class="edge">
<title>b&#45;&gt;d7db4429_0d83_4895_8067_71cb9ca1f8b5</title>
<path fill="none" stroke="black" d="M615.3,-291.97C596.28,-281.41 573.61,-268.83 550.92,-256.23"/>
<text text-anchor="middle" x="533.43" y="-259.23" font-family="Times,serif" font-size="10.00">accounts</text>
<text text-anchor="middle" x="605.58" y="-282.97" font-family="Times,serif" font-size="10.00">bank</text>
</g>
<!-- b&#45;&gt;4db7b6c2_2df3_4483_a2bd_07a1c50e9db1 -->
<g id="edge8" class="edge">
<title>b&#45;&gt;4db7b6c2_2df3_4483_a2bd_07a1c50e9db1</title>
<path fill="none" stroke="black" d="M454.35,-291.99C406.87,-282.98 357.15,-271.22 312,-256 309.27,-255.08 306.53,-254.11 303.78,-253.09"/>
<text text-anchor="middle" x="321.27" y="-244.09" font-family="Times,serif" font-size="10.00">accounts</text>
<text text-anchor="middle" x="444.63" y="-282.99" font-family="Times,serif" font-size="10.00">bank</text>
</g>
<!-- sendItToTheBank -->
<g id="node6" class="node">
<title>sendItToTheBank</title>
<polygon fill="none" stroke="black" points="959,-234 959,-252 1103,-252 1103,-234 959,-234"/>
<text text-anchor="start" x="975.32" y="-241" font-family="Times,serif" text-decoration="underline" font-size="10.00">sendItToTheBank :Account</text>
<polygon fill="none" stroke="black" points="959,-132 959,-234 1103,-234 1103,-132 959,-132"/>
<text text-anchor="start" x="962" y="-222" font-family="Times,serif" font-size="10.00">balance = 69420.0</text>
<text text-anchor="start" x="962" y="-210" font-family="Times,serif" font-size="10.00">count = 0</text>
<text text-anchor="start" x="962" y="-198" font-family="Times,serif" font-size="10.00">customerId = null</text>
<text text-anchor="start" x="962" y="-186" font-family="Times,serif" font-size="10.00">iban = &quot;EE064495560946034850&quot;</text>
<text text-anchor="start" x="962" y="-174" font-family="Times,serif" font-size="10.00">id = &quot;sendItToTheBank&quot;</text>
<text text-anchor="start" x="962" y="-162" font-family="Times,serif" font-size="10.00">receivedTransaction = </text>
<text text-anchor="start" x="962" y="-150" font-family="Times,serif" font-size="10.00">sentTransaction = </text>
<text text-anchor="start" x="962" y="-138" font-family="Times,serif" font-size="10.00">status = &quot;ACTIVE&quot;</text>
</g>
<!-- b&#45;&gt;sendItToTheBank -->
<g id="edge5" class="edge">
<title>b&#45;&gt;sendItToTheBank</title>
<path fill="none" stroke="black" d="M832.46,-291.99C869.45,-283.01 907.76,-271.27 942,-256 944.94,-254.69 947.88,-253.28 950.81,-251.78"/>
<text text-anchor="middle" x="924.15" y="-254.78" font-family="Times,serif" font-size="10.00">bankAccount</text>
<text text-anchor="middle" x="822.74" y="-282.99" font-family="Times,serif" font-size="10.00">bank</text>
</g>
<!-- 8a633aa5_907c_4e57_a313_22e0adb2672e -->
<g id="node7" class="node">
<title>8a633aa5_907c_4e57_a313_22e0adb2672e</title>
<polygon fill="none" stroke="black" points="1137,-234 1137,-252 1371,-252 1371,-234 1137,-234"/>
<text text-anchor="start" x="1150.29" y="-241" font-family="Times,serif" text-decoration="underline" font-size="10.00">8a633aa5&#45;907c&#45;4e57&#45;a313&#45;22e0adb2672e :Account</text>
<polygon fill="none" stroke="black" points="1137,-132 1137,-234 1371,-234 1371,-132 1137,-132"/>
<text text-anchor="start" x="1140" y="-222" font-family="Times,serif" font-size="10.00">balance = 0.0</text>
<text text-anchor="start" x="1140" y="-210" font-family="Times,serif" font-size="10.00">count = 0</text>
<text text-anchor="start" x="1140" y="-198" font-family="Times,serif" font-size="10.00">customerId = &quot;1eaf6f4c&#45;4f92&#45;4e04&#45;bd87&#45;c82be03265de&quot;</text>
<text text-anchor="start" x="1140" y="-186" font-family="Times,serif" font-size="10.00">iban = &quot;EE500467859057350272&quot;</text>
<text text-anchor="start" x="1140" y="-174" font-family="Times,serif" font-size="10.00">id = &quot;8a633aa5&#45;907c&#45;4e57&#45;a313&#45;22e0adb2672e&quot;</text>
<text text-anchor="start" x="1140" y="-162" font-family="Times,serif" font-size="10.00">receivedTransaction = </text>
<text text-anchor="start" x="1140" y="-150" font-family="Times,serif" font-size="10.00">sentTransaction = </text>
<text text-anchor="start" x="1140" y="-138" font-family="Times,serif" font-size="10.00">status = &quot;ACTIVE&quot;</text>
</g>
<!-- b&#45;&gt;8a633aa5_907c_4e57_a313_22e0adb2672e -->
<g id="edge6" class="edge">
<title>b&#45;&gt;8a633aa5_907c_4e57_a313_22e0adb2672e</title>
<path fill="none" stroke="black" d="M956.28,-291.98C1011.3,-283.15 1067.9,-271.46 1120,-256 1122.96,-255.12 1125.93,-254.19 1128.92,-253.21"/>
<text text-anchor="middle" x="1111.42" y="-256.21" font-family="Times,serif" font-size="10.00">accounts</text>
<text text-anchor="middle" x="946.56" y="-282.98" font-family="Times,serif" font-size="10.00">bank</text>
</g>
<!-- 7ec351d6_652f_4691_8e72_ea432d44a0c8 -->
<g id="node8" class="node">
<title>7ec351d6_652f_4691_8e72_ea432d44a0c8</title>
<polygon fill="none" stroke="black" points="694,-234 694,-252 925,-252 925,-234 694,-234"/>
<text text-anchor="start" x="706.06" y="-241" font-family="Times,serif" text-decoration="underline" font-size="10.00">7ec351d6&#45;652f&#45;4691&#45;8e72&#45;ea432d44a0c8 :Account</text>
<polygon fill="none" stroke="black" points="694,-132 694,-234 925,-234 925,-132 694,-132"/>
<text text-anchor="start" x="697" y="-222" font-family="Times,serif" font-size="10.00">balance = 100.0</text>
<text text-anchor="start" x="697" y="-210" font-family="Times,serif" font-size="10.00">count = 0</text>
<text text-anchor="start" x="697" y="-198" font-family="Times,serif" font-size="10.00">customerId = &quot;e2f7bc4c&#45;ef2a&#45;466e&#45;b8a5&#45;d24f48b13afe&quot;</text>
<text text-anchor="start" x="697" y="-186" font-family="Times,serif" font-size="10.00">iban = &quot;EE508166157234538669&quot;</text>
<text text-anchor="start" x="697" y="-174" font-family="Times,serif" font-size="10.00">id = &quot;7ec351d6&#45;652f&#45;4691&#45;8e72&#45;ea432d44a0c8&quot;</text>
<text text-anchor="start" x="697" y="-162" font-family="Times,serif" font-size="10.00">receivedTransaction = </text>
<text text-anchor="start" x="697" y="-150" font-family="Times,serif" font-size="10.00">sentTransaction = </text>
<text text-anchor="start" x="697" y="-138" font-family="Times,serif" font-size="10.00">status = &quot;ACTIVE&quot;</text>
</g>
<!-- b&#45;&gt;7ec351d6_652f_4691_8e72_ea432d44a0c8 -->
<g id="edge7" class="edge">
<title>b&#45;&gt;7ec351d6_652f_4691_8e72_ea432d44a0c8</title>
<path fill="none" stroke="black" d="M695.11,-291.97C707.26,-281.41 721.74,-268.83 736.23,-256.23"/>
<text text-anchor="middle" x="718.74" y="-259.23" font-family="Times,serif" font-size="10.00">accounts</text>
<text text-anchor="middle" x="685.39" y="-282.97" font-family="Times,serif" font-size="10.00">bank</text>
</g>
<!-- e2f7bc4c_ef2a_466e_b8a5_d24f48b13afe -->
<g id="node9" class="node">
<title>e2f7bc4c_ef2a_466e_b8a5_d24f48b13afe</title>
<polygon fill="none" stroke="black" points="704,-70 704,-88 915,-88 915,-70 704,-70"/>
<text text-anchor="start" x="706.63" y="-77" font-family="Times,serif" text-decoration="underline" font-size="10.00">e2f7bc4c&#45;ef2a&#45;466e&#45;b8a5&#45;d24f48b13afe :Customer</text>
<polygon fill="none" stroke="black" points="704,-4 704,-70 915,-70 915,-4 704,-4"/>
<text text-anchor="start" x="715.42" y="-58" font-family="Times,serif" font-size="10.00">email = &quot;john@doe.ee&quot;</text>
<text text-anchor="start" x="715.42" y="-46" font-family="Times,serif" font-size="10.00">firstName = &quot;John&quot;</text>
<text text-anchor="start" x="715.42" y="-34" font-family="Times,serif" font-size="10.00">id = &quot;e2f7bc4c&#45;ef2a&#45;466e&#45;b8a5&#45;d24f48b13afe&quot;</text>
<text text-anchor="start" x="715.42" y="-22" font-family="Times,serif" font-size="10.00">lastName = &quot;Doe&quot;</text>
<text text-anchor="start" x="715.42" y="-10" font-family="Times,serif" font-size="10.00">password = &quot;pass1234&quot;</text>
</g>
<!-- b&#45;&gt;e2f7bc4c_ef2a_466e_b8a5_d24f48b13afe -->
<g id="edge10" class="edge">
<title>b&#45;&gt;e2f7bc4c_ef2a_466e_b8a5_d24f48b13afe</title>
<path fill="none" stroke="black" d="M658.32,-291.7C651.68,-252.42 645.17,-179.05 676,-128 684.46,-114 696.34,-102.09 709.57,-92.07"/>
<text text-anchor="middle" x="689.29" y="-95.07" font-family="Times,serif" font-size="10.00">customers</text>
<text text-anchor="middle" x="648.6" y="-282.7" font-family="Times,serif" font-size="10.00">bank</text>
</g>
<!-- 1eaf6f4c_4f92_4e04_bd87_c82be03265de -->
<g id="node10" class="node">
<title>1eaf6f4c_4f92_4e04_bd87_c82be03265de</title>
<polygon fill="none" stroke="black" points="1223,-70 1223,-88 1437,-88 1437,-70 1223,-70"/>
<text text-anchor="start" x="1225.73" y="-77" font-family="Times,serif" text-decoration="underline" font-size="10.00">1eaf6f4c&#45;4f92&#45;4e04&#45;bd87&#45;c82be03265de :Customer</text>
<polygon fill="none" stroke="black" points="1223,-4 1223,-70 1437,-70 1437,-4 1223,-4"/>
<text text-anchor="start" x="1234.52" y="-58" font-family="Times,serif" font-size="10.00">email = &quot;bobby@tt.ee&quot;</text>
<text text-anchor="start" x="1234.52" y="-46" font-family="Times,serif" font-size="10.00">firstName = &quot;Bob&quot;</text>
<text text-anchor="start" x="1234.52" y="-34" font-family="Times,serif" font-size="10.00">id = &quot;1eaf6f4c&#45;4f92&#45;4e04&#45;bd87&#45;c82be03265de&quot;</text>
<text text-anchor="start" x="1234.52" y="-22" font-family="Times,serif" font-size="10.00">lastName = &quot;Jackson&quot;</text>
<text text-anchor="start" x="1234.52" y="-10" font-family="Times,serif" font-size="10.00">password = &quot;secret&quot;</text>
</g>
<!-- b&#45;&gt;1eaf6f4c_4f92_4e04_bd87_c82be03265de -->
<g id="edge11" class="edge">
<title>b&#45;&gt;1eaf6f4c_4f92_4e04_bd87_c82be03265de</title>
<path fill="none" stroke="black" d="M1080.24,-305.78C1228.36,-296.72 1364.62,-281.5 1388,-256 1426.44,-214.07 1405.39,-182.16 1388,-128 1383.98,-115.48 1377.24,-103.26 1369.74,-92.26"/>
<text text-anchor="middle" x="1349.47" y="-95.26" font-family="Times,serif" font-size="10.00">customers</text>
<text text-anchor="middle" x="1089.96" y="-308.78" font-family="Times,serif" font-size="10.00">bank</text>
</g>
<!-- b0502d44_7980_45dc_a4fa_b65c7950b7ef -->
<g id="node11" class="node">
<title>b0502d44_7980_45dc_a4fa_b65c7950b7ef</title>
<polygon fill="none" stroke="black" points="204,-70 204,-88 421,-88 421,-70 204,-70"/>
<text text-anchor="start" x="206.83" y="-77" font-family="Times,serif" text-decoration="underline" font-size="10.00">b0502d44&#45;7980&#45;45dc&#45;a4fa&#45;b65c7950b7ef :Customer</text>
<polygon fill="none" stroke="black" points="204,-4 204,-70 421,-70 421,-4 204,-4"/>
<text text-anchor="start" x="215.63" y="-58" font-family="Times,serif" font-size="10.00">email = &quot;johntest@doe.ee&quot;</text>
<text text-anchor="start" x="215.63" y="-46" font-family="Times,serif" font-size="10.00">firstName = &quot;johntest&quot;</text>
<text text-anchor="start" x="215.63" y="-34" font-family="Times,serif" font-size="10.00">id = &quot;b0502d44&#45;7980&#45;45dc&#45;a4fa&#45;b65c7950b7ef&quot;</text>
<text text-anchor="start" x="215.63" y="-22" font-family="Times,serif" font-size="10.00">lastName = &quot;Doe&quot;</text>
<text text-anchor="start" x="215.63" y="-10" font-family="Times,serif" font-size="10.00">password = &quot;pass1234&quot;</text>
</g>
<!-- b&#45;&gt;b0502d44_7980_45dc_a4fa_b65c7950b7ef -->
<g id="edge12" class="edge">
<title>b&#45;&gt;b0502d44_7980_45dc_a4fa_b65c7950b7ef</title>
<path fill="none" stroke="black" d="M626.66,-291.85C615.04,-281.76 603.16,-269.45 595,-256 564.47,-205.67 602.14,-170.1 561,-128 520.89,-86.96 491.58,-109.73 437,-92 434.26,-91.11 431.49,-90.2 428.69,-89.27"/>
<text text-anchor="middle" x="448.96" y="-92.27" font-family="Times,serif" font-size="10.00">customers</text>
<text text-anchor="middle" x="626.66" y="-282.85" font-family="Times,serif" font-size="10.00">bank</text>
</g>
<!-- f3eee9c2_d259_4f4c_be98_d713812eca6b -->
<g id="node12" class="node">
<title>f3eee9c2_d259_4f4c_be98_d713812eca6b</title>
<polygon fill="none" stroke="black" points="455,-70 455,-88 670,-88 670,-70 455,-70"/>
<text text-anchor="start" x="457.96" y="-77" font-family="Times,serif" text-decoration="underline" font-size="10.00">f3eee9c2&#45;d259&#45;4f4c&#45;be98&#45;d713812eca6b :Customer</text>
<polygon fill="none" stroke="black" points="455,-4 455,-70 670,-70 670,-4 455,-4"/>
<text text-anchor="start" x="466.75" y="-58" font-family="Times,serif" font-size="10.00">email = &quot;bobbytest@tt.ee&quot;</text>
<text text-anchor="start" x="466.75" y="-46" font-family="Times,serif" font-size="10.00">firstName = &quot;Bob&quot;</text>
<text text-anchor="start" x="466.75" y="-34" font-family="Times,serif" font-size="10.00">id = &quot;f3eee9c2&#45;d259&#45;4f4c&#45;be98&#45;d713812eca6b&quot;</text>
<text text-anchor="start" x="466.75" y="-22" font-family="Times,serif" font-size="10.00">lastName = &quot;Jackson&quot;</text>
<text text-anchor="start" x="466.75" y="-10" font-family="Times,serif" font-size="10.00">password = &quot;secret&quot;</text>
</g>
<!-- b&#45;&gt;f3eee9c2_d259_4f4c_be98_d713812eca6b -->
<g id="edge13" class="edge">
<title>b&#45;&gt;f3eee9c2_d259_4f4c_be98_d713812eca6b</title>
<path fill="none" stroke="black" d="M654.63,-291.99C641.66,-254.87 617.32,-186.09 595,-128 590.53,-116.38 585.54,-103.89 580.82,-92.28"/>
<text text-anchor="middle" x="560.55" y="-95.28" font-family="Times,serif" font-size="10.00">customers</text>
<text text-anchor="middle" x="664.35" y="-282.99" font-family="Times,serif" font-size="10.00">bank</text>
</g>
<!-- d7db4429_0d83_4895_8067_71cb9ca1f8b5&#45;&gt;c -->
<g id="edge14" class="edge">
<title>d7db4429_0d83_4895_8067_71cb9ca1f8b5&#45;&gt;c</title>
<path fill="none" stroke="black" d="M321.23,-131.72C318.14,-130.44 315.06,-129.19 312,-128 257.75,-106.8 240.58,-112.32 186,-92 167.56,-85.14 147.76,-76.24 130.89,-68.17"/>
<text text-anchor="middle" x="113.4" y="-71.17" font-family="Times,serif" font-size="10.00">currency</text>
</g>
<!-- d7db4429_0d83_4895_8067_71cb9ca1f8b5&#45;&gt;f3eee9c2_d259_4f4c_be98_d713812eca6b -->
<g id="edge15" class="edge">
<title>d7db4429_0d83_4895_8067_71cb9ca1f8b5&#45;&gt;f3eee9c2_d259_4f4c_be98_d713812eca6b</title>
<path fill="none" stroke="black" d="M491.83,-127.84C502.19,-115.9 512.84,-103.63 522.61,-92.37"/>
<text text-anchor="middle" x="510.12" y="-95.37" font-family="Times,serif" font-size="10.00">owner</text>
<text text-anchor="middle" x="476.28" y="-118.84" font-family="Times,serif" font-size="10.00">account</text>
</g>
<!-- 4db7b6c2_2df3_4483_a2bd_07a1c50e9db1&#45;&gt;c -->
<g id="edge16" class="edge">
<title>4db7b6c2_2df3_4483_a2bd_07a1c50e9db1&#45;&gt;c</title>
<path fill="none" stroke="black" d="M145.14,-127.84C130.23,-106.38 114.59,-83.85 103.62,-68.05"/>
<text text-anchor="middle" x="86.13" y="-71.05" font-family="Times,serif" font-size="10.00">currency</text>
</g>
<!-- 4db7b6c2_2df3_4483_a2bd_07a1c50e9db1&#45;&gt;b0502d44_7980_45dc_a4fa_b65c7950b7ef -->
<g id="edge17" class="edge">
<title>4db7b6c2_2df3_4483_a2bd_07a1c50e9db1&#45;&gt;b0502d44_7980_45dc_a4fa_b65c7950b7ef</title>
<path fill="none" stroke="black" d="M242.95,-127.84C253.15,-115.9 263.63,-103.63 273.24,-92.37"/>
<text text-anchor="middle" x="260.75" y="-95.37" font-family="Times,serif" font-size="10.00">owner</text>
<text text-anchor="middle" x="227.4" y="-118.84" font-family="Times,serif" font-size="10.00">account</text>
</g>
<!-- c1 -->
<g id="node13" class="node">
<title>c1</title>
<polygon fill="none" stroke="black" points="950,-46 950,-64 1112,-64 1112,-46 950,-46"/>
<text text-anchor="start" x="1005.04" y="-53" font-family="Times,serif" text-decoration="underline" font-size="10.00">c1 :Currency</text>
<polygon fill="none" stroke="black" points="950,-28 950,-46 1112,-46 1112,-28 950,-28"/>
<text text-anchor="start" x="953" y="-34" font-family="Times,serif" font-size="10.00">declaringClass = class model.Currency</text>
</g>
<!-- sendItToTheBank&#45;&gt;c1 -->
<g id="edge18" class="edge">
<title>sendItToTheBank&#45;&gt;c1</title>
<path fill="none" stroke="black" d="M1031,-127.84C1031,-106.38 1031,-83.85 1031,-68.05"/>
<text text-anchor="middle" x="1013.51" y="-71.05" font-family="Times,serif" font-size="10.00">currency</text>
</g>
<!-- 8a633aa5_907c_4e57_a313_22e0adb2672e&#45;&gt;1eaf6f4c_4f92_4e04_bd87_c82be03265de -->
<g id="edge20" class="edge">
<title>8a633aa5_907c_4e57_a313_22e0adb2672e&#45;&gt;1eaf6f4c_4f92_4e04_bd87_c82be03265de</title>
<path fill="none" stroke="black" d="M1287.33,-127.84C1293.64,-115.9 1300.11,-103.63 1306.05,-92.37"/>
<text text-anchor="middle" x="1293.56" y="-95.37" font-family="Times,serif" font-size="10.00">owner</text>
<text text-anchor="middle" x="1271.79" y="-118.84" font-family="Times,serif" font-size="10.00">account</text>
</g>
<!-- 8a633aa5_907c_4e57_a313_22e0adb2672e&#45;&gt;c1 -->
<g id="edge19" class="edge">
<title>8a633aa5_907c_4e57_a313_22e0adb2672e&#45;&gt;c1</title>
<path fill="none" stroke="black" d="M1156.19,-127.84C1122.95,-106.38 1088.07,-83.85 1063.59,-68.05"/>
<text text-anchor="middle" x="1081.08" y="-71.05" font-family="Times,serif" font-size="10.00">currency</text>
</g>
<!-- 7ec351d6_652f_4691_8e72_ea432d44a0c8&#45;&gt;e2f7bc4c_ef2a_466e_b8a5_d24f48b13afe -->
<g id="edge22" class="edge">
<title>7ec351d6_652f_4691_8e72_ea432d44a0c8&#45;&gt;e2f7bc4c_ef2a_466e_b8a5_d24f48b13afe</title>
<path fill="none" stroke="black" d="M809,-127.84C809,-115.9 809,-103.63 809,-92.37"/>
<text text-anchor="middle" x="796.51" y="-95.37" font-family="Times,serif" font-size="10.00">owner</text>
<text text-anchor="middle" x="793.45" y="-118.84" font-family="Times,serif" font-size="10.00">account</text>
</g>
<!-- 7ec351d6_652f_4691_8e72_ea432d44a0c8&#45;&gt;c1 -->
<g id="edge21" class="edge">
<title>7ec351d6_652f_4691_8e72_ea432d44a0c8&#45;&gt;c1</title>
<path fill="none" stroke="black" d="M906.37,-127.84C939.46,-106.38 974.19,-83.85 998.55,-68.05"/>
<text text-anchor="middle" x="981.06" y="-71.05" font-family="Times,serif" font-size="10.00">currency</text>
</g>
</g>
</svg>
