<?xml version="1.0" encoding="UTF-8" standalone="no"?>
<!DOCTYPE svg PUBLIC "-//W3C//DTD SVG 1.1//EN"
 "http://www.w3.org/Graphics/SVG/1.1/DTD/svg11.dtd">
<!-- Generated by graphviz version 2.43.0 (0)
 -->
<!-- Title: model Pages: 1 -->
<svg width="706px" height="427px"
 viewBox="0.00 0.00 705.61 427.00" xmlns="http://www.w3.org/2000/svg" xmlns:xlink="http://www.w3.org/1999/xlink">
<g id="graph0" class="graph" transform="scale(1.0 1.0) rotate(0) translate(4 423)">
<title>model</title>
<polygon fill="white" stroke="transparent" points="-4,4 -4,-423 701.61,-423 701.61,4 -4,4"/>
<!-- bbdfdc07_3476_4155_b247_cda1a7eecbd5 -->
<g id="node1" class="node">
<title>bbdfdc07_3476_4155_b247_cda1a7eecbd5</title>
<polygon fill="none" stroke="black" points="439,-398 439,-415 659,-415 659,-398 439,-398"/>
<text text-anchor="start" x="442" y="-405" font-family="Times,serif" text-decoration="underline" font-size="10.00">bbdfdc07&#45;3476&#45;4155&#45;b247&#45;cda1a7eecbd5 :Account</text>
<polygon fill="none" stroke="black" points="439,-315 439,-398 659,-398 659,-315 439,-315"/>
<text text-anchor="start" x="449.5" y="-387" font-family="Times,serif" font-size="10.00">balance = 0.0</text>
<text text-anchor="start" x="449.5" y="-376" font-family="Times,serif" font-size="10.00">customerId = null</text>
<text text-anchor="start" x="449.5" y="-365" font-family="Times,serif" font-size="10.00">iban = null</text>
<text text-anchor="start" x="449.5" y="-354" font-family="Times,serif" font-size="10.00">id = &quot;bbdfdc07&#45;3476&#45;4155&#45;b247&#45;cda1a7eecbd5&quot;</text>
<text text-anchor="start" x="449.5" y="-343" font-family="Times,serif" font-size="10.00">receivedTransaction = </text>
<text text-anchor="start" x="449.5" y="-332" font-family="Times,serif" font-size="10.00">sentTransaction = </text>
<text text-anchor="start" x="449.5" y="-321" font-family="Times,serif" font-size="10.00">status = &quot;FROZEN&quot;</text>
</g>
<!-- b -->
<g id="node2" class="node">
<title>b</title>
<polygon fill="none" stroke="black" points="161,-253.5 161,-270.5 478,-270.5 478,-253.5 161,-253.5"/>
<text text-anchor="start" x="303" y="-260.5" font-family="Times,serif" text-decoration="underline" font-size="10.00">b :Bank</text>
<polygon fill="none" stroke="black" points="161,-225.5 161,-253.5 478,-253.5 478,-225.5 161,-225.5"/>
<text text-anchor="start" x="164" y="-242.5" font-family="Times,serif" font-size="10.00">accountsMap = sendItToTheBankbbdfdc07&#45;3476&#45;4155&#45;b247&#45;cda1a7eecbd5</text>
<text text-anchor="start" x="164" y="-231.5" font-family="Times,serif" font-size="10.00">customerMap = 10066db1&#45;7f08&#45;4cd3&#45;9ac8&#45;7fb6fb7e03bf</text>
</g>
<!-- bbdfdc07_3476_4155_b247_cda1a7eecbd5&#45;&gt;b -->
<g id="edge1" class="edge">
<title>bbdfdc07_3476_4155_b247_cda1a7eecbd5&#45;&gt;b</title>
<path fill="none" stroke="black" d="M442.42,-310.94C417.39,-298.48 391.82,-285.75 370.5,-275.14"/>
<text text-anchor="middle" x="360" y="-278.14" font-family="Times,serif" font-size="10.00">bank</text>
<text text-anchor="middle" x="423.92" y="-302.94" font-family="Times,serif" font-size="10.00">accounts</text>
</g>
<!-- c -->
<g id="node3" class="node">
<title>c</title>
<polygon fill="none" stroke="black" points="299,-21 299,-38 463,-38 463,-21 299,-21"/>
<text text-anchor="start" x="357" y="-28" font-family="Times,serif" text-decoration="underline" font-size="10.00">c :Currency</text>
<polygon fill="none" stroke="black" points="299,-4 299,-21 463,-21 463,-4 299,-4"/>
<text text-anchor="start" x="302" y="-10" font-family="Times,serif" font-size="10.00">declaringClass = class model.Currency</text>
</g>
<!-- bbdfdc07_3476_4155_b247_cda1a7eecbd5&#45;&gt;c -->
<g id="edge2" class="edge">
<title>bbdfdc07_3476_4155_b247_cda1a7eecbd5&#45;&gt;c</title>
<path fill="none" stroke="black" d="M604.34,-310.77C661.33,-249.5 734.21,-148.3 676,-78 650.32,-46.98 548.19,-33.01 471.24,-26.8"/>
<text text-anchor="middle" x="489.24" y="-29.8" font-family="Times,serif" font-size="10.00">currency</text>
</g>
<!-- 10066db1_7f08_4cd3_9ac8_7fb6fb7e03bf -->
<g id="node4" class="node">
<title>10066db1_7f08_4cd3_9ac8_7fb6fb7e03bf</title>
<polygon fill="none" stroke="black" points="440,-154 440,-171 659,-171 659,-154 440,-154"/>
<text text-anchor="start" x="443" y="-161" font-family="Times,serif" text-decoration="underline" font-size="10.00">10066db1&#45;7f08&#45;4cd3&#45;9ac8&#45;7fb6fb7e03bf :Customer</text>
<polygon fill="none" stroke="black" points="440,-93 440,-154 659,-154 659,-93 440,-93"/>
<text text-anchor="start" x="452" y="-143" font-family="Times,serif" font-size="10.00">email = &quot;bobby@tt.ee&quot;</text>
<text text-anchor="start" x="452" y="-132" font-family="Times,serif" font-size="10.00">firstName = &quot;Bob&quot;</text>
<text text-anchor="start" x="452" y="-121" font-family="Times,serif" font-size="10.00">id = &quot;10066db1&#45;7f08&#45;4cd3&#45;9ac8&#45;7fb6fb7e03bf&quot;</text>
<text text-anchor="start" x="452" y="-110" font-family="Times,serif" font-size="10.00">lastName = &quot;Jackson&quot;</text>
<text text-anchor="start" x="452" y="-99" font-family="Times,serif" font-size="10.00">password = &quot;secret&quot;</text>
</g>
<!-- bbdfdc07_3476_4155_b247_cda1a7eecbd5&#45;&gt;10066db1_7f08_4cd3_9ac8_7fb6fb7e03bf -->
<g id="edge3" class="edge">
<title>bbdfdc07_3476_4155_b247_cda1a7eecbd5&#45;&gt;10066db1_7f08_4cd3_9ac8_7fb6fb7e03bf</title>
<path fill="none" stroke="black" d="M549,-310.71C549,-269.54 549,-213.34 549,-175.24"/>
<text text-anchor="middle" x="536" y="-178.24" font-family="Times,serif" font-size="10.00">owner</text>
<text text-anchor="middle" x="532.5" y="-302.71" font-family="Times,serif" font-size="10.00">account</text>
</g>
<!-- b&#45;&gt;10066db1_7f08_4cd3_9ac8_7fb6fb7e03bf -->
<g id="edge6" class="edge">
<title>b&#45;&gt;10066db1_7f08_4cd3_9ac8_7fb6fb7e03bf</title>
<path fill="none" stroke="black" d="M370.33,-221.95C398,-208.17 432.85,-190.82 464.41,-175.11"/>
<text text-anchor="middle" x="443.91" y="-178.11" font-family="Times,serif" font-size="10.00">customers</text>
<text text-anchor="middle" x="359.83" y="-213.95" font-family="Times,serif" font-size="10.00">bank</text>
</g>
<!-- sendItToTheBank -->
<g id="node5" class="node">
<title>sendItToTheBank</title>
<polygon fill="none" stroke="black" points="8,-165 8,-182 128,-182 128,-165 8,-165"/>
<text text-anchor="start" x="11" y="-172" font-family="Times,serif" text-decoration="underline" font-size="10.00">sendItToTheBank :Account</text>
<polygon fill="none" stroke="black" points="8,-82 8,-165 128,-165 128,-82 8,-82"/>
<text text-anchor="start" x="18" y="-154" font-family="Times,serif" font-size="10.00">balance = 69420.0</text>
<text text-anchor="start" x="18" y="-143" font-family="Times,serif" font-size="10.00">customerId = null</text>
<text text-anchor="start" x="18" y="-132" font-family="Times,serif" font-size="10.00">iban = null</text>
<text text-anchor="start" x="18" y="-121" font-family="Times,serif" font-size="10.00">id = &quot;sendItToTheBank&quot;</text>
<text text-anchor="start" x="18" y="-110" font-family="Times,serif" font-size="10.00">receivedTransaction = </text>
<text text-anchor="start" x="18" y="-99" font-family="Times,serif" font-size="10.00">sentTransaction = </text>
<text text-anchor="start" x="18" y="-88" font-family="Times,serif" font-size="10.00">status = &quot;ACTIVE&quot;</text>
</g>
<!-- b&#45;&gt;sendItToTheBank -->
<g id="edge4" class="edge">
<title>b&#45;&gt;sendItToTheBank</title>
<path fill="none" stroke="black" d="M232.61,-221.98C204.05,-212.23 172.55,-200.04 145,-186 142.11,-184.53 139.2,-182.96 136.29,-181.32"/>
<text text-anchor="middle" x="164.29" y="-184.32" font-family="Times,serif" font-size="10.00">bankAccount</text>
<text text-anchor="middle" x="222.11" y="-213.98" font-family="Times,serif" font-size="10.00">bank</text>
</g>
<!-- 9da59374_909b_499d_b21f_704318a81bf4 -->
<g id="node6" class="node">
<title>9da59374_909b_499d_b21f_704318a81bf4</title>
<polygon fill="none" stroke="black" points="163,-154 163,-171 406,-171 406,-154 163,-154"/>
<text text-anchor="start" x="166" y="-161" font-family="Times,serif" text-decoration="underline" font-size="10.00">9da59374&#45;909b&#45;499d&#45;b21f&#45;704318a81bf4 :Administrator</text>
<polygon fill="none" stroke="black" points="163,-93 163,-154 406,-154 406,-93 163,-93"/>
<text text-anchor="start" x="184" y="-143" font-family="Times,serif" font-size="10.00">email = &quot;admin@bank.ee&quot;</text>
<text text-anchor="start" x="184" y="-132" font-family="Times,serif" font-size="10.00">firstName = &quot;Admin&quot;</text>
<text text-anchor="start" x="184" y="-121" font-family="Times,serif" font-size="10.00">id = &quot;9da59374&#45;909b&#45;499d&#45;b21f&#45;704318a81bf4&quot;</text>
<text text-anchor="start" x="184" y="-110" font-family="Times,serif" font-size="10.00">lastName = &quot;ALice&quot;</text>
<text text-anchor="start" x="184" y="-99" font-family="Times,serif" font-size="10.00">password = &quot;secure_p@ssw0|2d&quot;</text>
</g>
<!-- b&#45;&gt;9da59374_909b_499d_b21f_704318a81bf4 -->
<g id="edge5" class="edge">
<title>b&#45;&gt;9da59374_909b_499d_b21f_704318a81bf4</title>
<path fill="none" stroke="black" d="M311.15,-221.8C306.95,-208.09 301.69,-190.86 296.91,-175.24"/>
<text text-anchor="middle" x="267.91" y="-178.24" font-family="Times,serif" font-size="10.00">administrators</text>
<text text-anchor="middle" x="300.65" y="-213.8" font-family="Times,serif" font-size="10.00">bank</text>
</g>
<!-- sendItToTheBank&#45;&gt;c -->
<g id="edge7" class="edge">
<title>sendItToTheBank&#45;&gt;c</title>
<path fill="none" stroke="black" d="M136.1,-82.28C139.06,-80.75 142.03,-79.32 145,-78 191.09,-57.53 245.7,-43.96 290.77,-35.31"/>
<text text-anchor="middle" x="272.77" y="-38.31" font-family="Times,serif" font-size="10.00">currency</text>
</g>
</g>
</svg>
