<?xml version="1.0" encoding="UTF-8" standalone="no"?>
<!DOCTYPE svg PUBLIC "-//W3C//DTD SVG 1.1//EN"
 "http://www.w3.org/Graphics/SVG/1.1/DTD/svg11.dtd">
<!-- Generated by graphviz version 2.44.0 (20200408.0750)
 -->
<!-- Title: model Pages: 1 -->
<svg width="1329px" height="520px"
 viewBox="0.00 0.00 1328.63 520.00" xmlns="http://www.w3.org/2000/svg" xmlns:xlink="http://www.w3.org/1999/xlink">
<g id="graph0" class="graph" transform="scale(1.0 1.0) rotate(0) translate(4 516)">
<title>model</title>
<polygon fill="white" stroke="transparent" points="-4,4 -4,-516 1324.63,-516 1324.63,4 -4,4"/>
<!-- 409f7cd0_6e49_494e_af0a_df0dc0bdb809 -->
<g id="node1" class="node">
<title>409f7cd0_6e49_494e_af0a_df0dc0bdb809</title>
<polygon fill="none" stroke="black" points="44.13,-490 44.13,-508 254.13,-508 254.13,-490 44.13,-490"/>
<text text-anchor="start" x="47.08" y="-497" font-family="Times,serif" text-decoration="underline" font-size="10.00">409f7cd0&#45;6e49&#45;494e&#45;af0a&#45;df0dc0bdb809 :Account</text>
<polygon fill="none" stroke="black" points="44.13,-388 44.13,-490 254.13,-490 254.13,-388 44.13,-388"/>
<text text-anchor="start" x="53.37" y="-478" font-family="Times,serif" font-size="10.00">balance = 0.0</text>
<text text-anchor="start" x="53.37" y="-466" font-family="Times,serif" font-size="10.00">count = 0</text>
<text text-anchor="start" x="53.37" y="-454" font-family="Times,serif" font-size="10.00">customerId = null</text>
<text text-anchor="start" x="53.37" y="-442" font-family="Times,serif" font-size="10.00">iban = &quot;EE165693357232825547&quot;</text>
<text text-anchor="start" x="53.37" y="-430" font-family="Times,serif" font-size="10.00">id = &quot;409f7cd0&#45;6e49&#45;494e&#45;af0a&#45;df0dc0bdb809&quot;</text>
<text text-anchor="start" x="53.37" y="-418" font-family="Times,serif" font-size="10.00">receivedTransaction = </text>
<text text-anchor="start" x="53.37" y="-406" font-family="Times,serif" font-size="10.00">sentTransaction = </text>
<text text-anchor="start" x="53.37" y="-394" font-family="Times,serif" font-size="10.00">status = &quot;FROZEN&quot;</text>
</g>
<!-- b -->
<g id="node2" class="node">
<title>b</title>
<polygon fill="none" stroke="black" points="398.13,-326 398.13,-344 1041.13,-344 1041.13,-326 398.13,-326"/>
<text text-anchor="start" x="703.94" y="-333" font-family="Times,serif" text-decoration="underline" font-size="10.00">b :Bank</text>
<polygon fill="none" stroke="black" points="398.13,-296 398.13,-326 1041.13,-326 1041.13,-296 398.13,-296"/>
<text text-anchor="start" x="401.13" y="-314" font-family="Times,serif" font-size="10.00">accountsMap = sendItToTheBank8a633aa5&#45;907c&#45;4e57&#45;a313&#45;22e0adb2672e7ec351d6&#45;652f&#45;4691&#45;8e72&#45;ea432d44a0c8409f7cd0&#45;6e49&#45;494e&#45;af0a&#45;df0dc0bdb809</text>
<text text-anchor="start" x="401.13" y="-302" font-family="Times,serif" font-size="10.00">customerMap = e2f7bc4c&#45;ef2a&#45;466e&#45;b8a5&#45;d24f48b13afe1eaf6f4c&#45;4f92&#45;4e04&#45;bd87&#45;c82be03265de3a0dbf6f&#45;b4be&#45;4f82&#45;9326&#45;5020121c7840</text>
</g>
<!-- 409f7cd0_6e49_494e_af0a_df0dc0bdb809&#45;&gt;b -->
<g id="edge1" class="edge">
<title>409f7cd0_6e49_494e_af0a_df0dc0bdb809&#45;&gt;b</title>
<path fill="none" stroke="black" d="M262.43,-421.96C359.09,-400.59 497.78,-369.93 596.93,-348.01"/>
<text text-anchor="middle" x="587.21" y="-351.01" font-family="Times,serif" font-size="10.00">bank</text>
<text text-anchor="middle" x="279.92" y="-424.96" font-family="Times,serif" font-size="10.00">accounts</text>
</g>
<!-- c -->
<g id="node3" class="node">
<title>c</title>
<polygon fill="none" stroke="black" points="293.13,-46 293.13,-64 455.13,-64 455.13,-46 293.13,-46"/>
<text text-anchor="start" x="350.67" y="-53" font-family="Times,serif" text-decoration="underline" font-size="10.00">c :Currency</text>
<polygon fill="none" stroke="black" points="293.13,-28 293.13,-46 455.13,-46 455.13,-28 293.13,-28"/>
<text text-anchor="start" x="296.13" y="-34" font-family="Times,serif" font-size="10.00">declaringClass = class model.Currency</text>
</g>
<!-- 409f7cd0_6e49_494e_af0a_df0dc0bdb809&#45;&gt;c -->
<g id="edge2" class="edge">
<title>409f7cd0_6e49_494e_af0a_df0dc0bdb809&#45;&gt;c</title>
<path fill="none" stroke="black" d="M89.82,-383.85C32.64,-315.14 -36.95,-204.83 24.13,-128 56.15,-87.72 192.29,-65.72 285.03,-55.16"/>
<text text-anchor="middle" x="267.55" y="-58.16" font-family="Times,serif" font-size="10.00">currency</text>
</g>
<!-- 3a0dbf6f_b4be_4f82_9326_5020121c7840 -->
<g id="node4" class="node">
<title>3a0dbf6f_b4be_4f82_9326_5020121c7840</title>
<polygon fill="none" stroke="black" points="41.13,-216 41.13,-234 257.13,-234 257.13,-216 41.13,-216"/>
<text text-anchor="start" x="43.74" y="-223" font-family="Times,serif" text-decoration="underline" font-size="10.00">3a0dbf6f&#45;b4be&#45;4f82&#45;9326&#45;5020121c7840 :Customer</text>
<polygon fill="none" stroke="black" points="41.13,-150 41.13,-216 257.13,-216 257.13,-150 41.13,-150"/>
<text text-anchor="start" x="52.53" y="-204" font-family="Times,serif" font-size="10.00">email = &quot;bobbytest@tt.ee&quot;</text>
<text text-anchor="start" x="52.53" y="-192" font-family="Times,serif" font-size="10.00">firstName = &quot;Bob&quot;</text>
<text text-anchor="start" x="52.53" y="-180" font-family="Times,serif" font-size="10.00">id = &quot;3a0dbf6f&#45;b4be&#45;4f82&#45;9326&#45;5020121c7840&quot;</text>
<text text-anchor="start" x="52.53" y="-168" font-family="Times,serif" font-size="10.00">lastName = &quot;Jackson&quot;</text>
<text text-anchor="start" x="52.53" y="-156" font-family="Times,serif" font-size="10.00">password = &quot;secret&quot;</text>
</g>
<!-- 409f7cd0_6e49_494e_af0a_df0dc0bdb809&#45;&gt;3a0dbf6f_b4be_4f82_9326_5020121c7840 -->
<g id="edge3" class="edge">
<title>409f7cd0_6e49_494e_af0a_df0dc0bdb809&#45;&gt;3a0dbf6f_b4be_4f82_9326_5020121c7840</title>
<path fill="none" stroke="black" d="M149.13,-383.89C149.13,-338.63 149.13,-278.75 149.13,-238.21"/>
<text text-anchor="middle" x="136.64" y="-241.21" font-family="Times,serif" font-size="10.00">owner</text>
<text text-anchor="middle" x="133.58" y="-374.89" font-family="Times,serif" font-size="10.00">account</text>
</g>
<!-- b&#45;&gt;3a0dbf6f_b4be_4f82_9326_5020121c7840 -->
<g id="edge10" class="edge">
<title>b&#45;&gt;3a0dbf6f_b4be_4f82_9326_5020121c7840</title>
<path fill="none" stroke="black" d="M429.41,-291.96C377.06,-283.14 323.46,-271.46 274.13,-256 259.17,-251.31 243.82,-244.99 229.21,-238.15"/>
<text text-anchor="middle" x="208.94" y="-241.15" font-family="Times,serif" font-size="10.00">customers</text>
<text text-anchor="middle" x="419.69" y="-282.96" font-family="Times,serif" font-size="10.00">bank</text>
</g>
<!-- sendItToTheBank -->
<g id="node5" class="node">
<title>sendItToTheBank</title>
<polygon fill="none" stroke="black" points="291.13,-234 291.13,-252 435.13,-252 435.13,-234 291.13,-234"/>
<text text-anchor="start" x="307.45" y="-241" font-family="Times,serif" text-decoration="underline" font-size="10.00">sendItToTheBank :Account</text>
<polygon fill="none" stroke="black" points="291.13,-132 291.13,-234 435.13,-234 435.13,-132 291.13,-132"/>
<text text-anchor="start" x="294.13" y="-222" font-family="Times,serif" font-size="10.00">balance = 69420.0</text>
<text text-anchor="start" x="294.13" y="-210" font-family="Times,serif" font-size="10.00">count = 0</text>
<text text-anchor="start" x="294.13" y="-198" font-family="Times,serif" font-size="10.00">customerId = null</text>
<text text-anchor="start" x="294.13" y="-186" font-family="Times,serif" font-size="10.00">iban = &quot;EE260746835005335094&quot;</text>
<text text-anchor="start" x="294.13" y="-174" font-family="Times,serif" font-size="10.00">id = &quot;sendItToTheBank&quot;</text>
<text text-anchor="start" x="294.13" y="-162" font-family="Times,serif" font-size="10.00">receivedTransaction = </text>
<text text-anchor="start" x="294.13" y="-150" font-family="Times,serif" font-size="10.00">sentTransaction = </text>
<text text-anchor="start" x="294.13" y="-138" font-family="Times,serif" font-size="10.00">status = &quot;ACTIVE&quot;</text>
</g>
<!-- b&#45;&gt;sendItToTheBank -->
<g id="edge4" class="edge">
<title>b&#45;&gt;sendItToTheBank</title>
<path fill="none" stroke="black" d="M559.8,-291.97C523.52,-282.94 485.77,-271.18 452.13,-256 449.2,-254.68 446.26,-253.25 443.33,-251.74"/>
<text text-anchor="middle" x="469.99" y="-254.74" font-family="Times,serif" font-size="10.00">bankAccount</text>
<text text-anchor="middle" x="550.08" y="-282.97" font-family="Times,serif" font-size="10.00">bank</text>
</g>
<!-- 8a633aa5_907c_4e57_a313_22e0adb2672e -->
<g id="node6" class="node">
<title>8a633aa5_907c_4e57_a313_22e0adb2672e</title>
<polygon fill="none" stroke="black" points="469.13,-234 469.13,-252 703.13,-252 703.13,-234 469.13,-234"/>
<text text-anchor="start" x="482.42" y="-241" font-family="Times,serif" text-decoration="underline" font-size="10.00">8a633aa5&#45;907c&#45;4e57&#45;a313&#45;22e0adb2672e :Account</text>
<polygon fill="none" stroke="black" points="469.13,-132 469.13,-234 703.13,-234 703.13,-132 469.13,-132"/>
<text text-anchor="start" x="472.13" y="-222" font-family="Times,serif" font-size="10.00">balance = 0.0</text>
<text text-anchor="start" x="472.13" y="-210" font-family="Times,serif" font-size="10.00">count = 0</text>
<text text-anchor="start" x="472.13" y="-198" font-family="Times,serif" font-size="10.00">customerId = &quot;1eaf6f4c&#45;4f92&#45;4e04&#45;bd87&#45;c82be03265de&quot;</text>
<text text-anchor="start" x="472.13" y="-186" font-family="Times,serif" font-size="10.00">iban = &quot;EE500467859057350272&quot;</text>
<text text-anchor="start" x="472.13" y="-174" font-family="Times,serif" font-size="10.00">id = &quot;8a633aa5&#45;907c&#45;4e57&#45;a313&#45;22e0adb2672e&quot;</text>
<text text-anchor="start" x="472.13" y="-162" font-family="Times,serif" font-size="10.00">receivedTransaction = </text>
<text text-anchor="start" x="472.13" y="-150" font-family="Times,serif" font-size="10.00">sentTransaction = </text>
<text text-anchor="start" x="472.13" y="-138" font-family="Times,serif" font-size="10.00">status = &quot;ACTIVE&quot;</text>
</g>
<!-- b&#45;&gt;8a633aa5_907c_4e57_a313_22e0adb2672e -->
<g id="edge5" class="edge">
<title>b&#45;&gt;8a633aa5_907c_4e57_a313_22e0adb2672e</title>
<path fill="none" stroke="black" d="M690.6,-291.97C679.45,-281.41 666.17,-268.83 652.88,-256.23"/>
<text text-anchor="middle" x="635.38" y="-259.23" font-family="Times,serif" font-size="10.00">accounts</text>
<text text-anchor="middle" x="680.88" y="-282.97" font-family="Times,serif" font-size="10.00">bank</text>
</g>
<!-- 7ec351d6_652f_4691_8e72_ea432d44a0c8 -->
<g id="node7" class="node">
<title>7ec351d6_652f_4691_8e72_ea432d44a0c8</title>
<polygon fill="none" stroke="black" points="738.13,-234 738.13,-252 969.13,-252 969.13,-234 738.13,-234"/>
<text text-anchor="start" x="750.19" y="-241" font-family="Times,serif" text-decoration="underline" font-size="10.00">7ec351d6&#45;652f&#45;4691&#45;8e72&#45;ea432d44a0c8 :Account</text>
<polygon fill="none" stroke="black" points="738.13,-132 738.13,-234 969.13,-234 969.13,-132 738.13,-132"/>
<text text-anchor="start" x="741.13" y="-222" font-family="Times,serif" font-size="10.00">balance = 100.0</text>
<text text-anchor="start" x="741.13" y="-210" font-family="Times,serif" font-size="10.00">count = 0</text>
<text text-anchor="start" x="741.13" y="-198" font-family="Times,serif" font-size="10.00">customerId = &quot;e2f7bc4c&#45;ef2a&#45;466e&#45;b8a5&#45;d24f48b13afe&quot;</text>
<text text-anchor="start" x="741.13" y="-186" font-family="Times,serif" font-size="10.00">iban = &quot;EE508166157234538669&quot;</text>
<text text-anchor="start" x="741.13" y="-174" font-family="Times,serif" font-size="10.00">id = &quot;7ec351d6&#45;652f&#45;4691&#45;8e72&#45;ea432d44a0c8&quot;</text>
<text text-anchor="start" x="741.13" y="-162" font-family="Times,serif" font-size="10.00">receivedTransaction = </text>
<text text-anchor="start" x="741.13" y="-150" font-family="Times,serif" font-size="10.00">sentTransaction = </text>
<text text-anchor="start" x="741.13" y="-138" font-family="Times,serif" font-size="10.00">status = &quot;ACTIVE&quot;</text>
</g>
<!-- b&#45;&gt;7ec351d6_652f_4691_8e72_ea432d44a0c8 -->
<g id="edge6" class="edge">
<title>b&#45;&gt;7ec351d6_652f_4691_8e72_ea432d44a0c8</title>
<path fill="none" stroke="black" d="M747.88,-291.97C759.1,-281.41 772.49,-268.83 785.88,-256.23"/>
<text text-anchor="middle" x="768.39" y="-259.23" font-family="Times,serif" font-size="10.00">accounts</text>
<text text-anchor="middle" x="738.16" y="-282.97" font-family="Times,serif" font-size="10.00">bank</text>
</g>
<!-- 0ca6a073_7f14_47d3_b51c_e593bb7e4225 -->
<g id="node8" class="node">
<title>0ca6a073_7f14_47d3_b51c_e593bb7e4225</title>
<polygon fill="none" stroke="black" points="1042.13,-216 1042.13,-234 1277.13,-234 1277.13,-216 1042.13,-216"/>
<text text-anchor="start" x="1044.8" y="-223" font-family="Times,serif" text-decoration="underline" font-size="10.00">0ca6a073&#45;7f14&#45;47d3&#45;b51c&#45;e593bb7e4225 :Administrator</text>
<polygon fill="none" stroke="black" points="1042.13,-150 1042.13,-216 1277.13,-216 1277.13,-150 1042.13,-150"/>
<text text-anchor="start" x="1062.2" y="-204" font-family="Times,serif" font-size="10.00">email = &quot;admin@bank.ee&quot;</text>
<text text-anchor="start" x="1062.2" y="-192" font-family="Times,serif" font-size="10.00">firstName = &quot;Admin&quot;</text>
<text text-anchor="start" x="1062.2" y="-180" font-family="Times,serif" font-size="10.00">id = &quot;0ca6a073&#45;7f14&#45;47d3&#45;b51c&#45;e593bb7e4225&quot;</text>
<text text-anchor="start" x="1062.2" y="-168" font-family="Times,serif" font-size="10.00">lastName = &quot;ALice&quot;</text>
<text text-anchor="start" x="1062.2" y="-156" font-family="Times,serif" font-size="10.00">password = &quot;secure_p@ssw0|2d&quot;</text>
</g>
<!-- b&#45;&gt;0ca6a073_7f14_47d3_b51c_e593bb7e4225 -->
<g id="edge7" class="edge">
<title>b&#45;&gt;0ca6a073_7f14_47d3_b51c_e593bb7e4225</title>
<path fill="none" stroke="black" d="M879.62,-291.96C925.24,-282.48 974.6,-270.51 1019.13,-256 1034.72,-250.92 1050.89,-244.65 1066.48,-238.05"/>
<text text-anchor="middle" x="1037.87" y="-241.05" font-family="Times,serif" font-size="10.00">administrators</text>
<text text-anchor="middle" x="869.9" y="-282.96" font-family="Times,serif" font-size="10.00">bank</text>
</g>
<!-- e2f7bc4c_ef2a_466e_b8a5_d24f48b13afe -->
<g id="node9" class="node">
<title>e2f7bc4c_ef2a_466e_b8a5_d24f48b13afe</title>
<polygon fill="none" stroke="black" points="978.13,-70 978.13,-88 1189.13,-88 1189.13,-70 978.13,-70"/>
<text text-anchor="start" x="980.76" y="-77" font-family="Times,serif" text-decoration="underline" font-size="10.00">e2f7bc4c&#45;ef2a&#45;466e&#45;b8a5&#45;d24f48b13afe :Customer</text>
<polygon fill="none" stroke="black" points="978.13,-4 978.13,-70 1189.13,-70 1189.13,-4 978.13,-4"/>
<text text-anchor="start" x="989.55" y="-58" font-family="Times,serif" font-size="10.00">email = &quot;john@doe.ee&quot;</text>
<text text-anchor="start" x="989.55" y="-46" font-family="Times,serif" font-size="10.00">firstName = &quot;John&quot;</text>
<text text-anchor="start" x="989.55" y="-34" font-family="Times,serif" font-size="10.00">id = &quot;e2f7bc4c&#45;ef2a&#45;466e&#45;b8a5&#45;d24f48b13afe&quot;</text>
<text text-anchor="start" x="989.55" y="-22" font-family="Times,serif" font-size="10.00">lastName = &quot;Doe&quot;</text>
<text text-anchor="start" x="989.55" y="-10" font-family="Times,serif" font-size="10.00">password = &quot;pass1234&quot;</text>
</g>
<!-- b&#45;&gt;e2f7bc4c_ef2a_466e_b8a5_d24f48b13afe -->
<g id="edge8" class="edge">
<title>b&#45;&gt;e2f7bc4c_ef2a_466e_b8a5_d24f48b13afe</title>
<path fill="none" stroke="black" d="M1048.89,-300.96C1166.94,-291.09 1275.7,-276.56 1294.13,-256 1332.1,-213.64 1326.35,-174.88 1294.13,-128 1271.68,-95.34 1234.11,-75.84 1196.83,-64.2"/>
<text text-anchor="middle" x="1217.1" y="-67.2" font-family="Times,serif" font-size="10.00">customers</text>
<text text-anchor="middle" x="1058.61" y="-303.96" font-family="Times,serif" font-size="10.00">bank</text>
</g>
<!-- 1eaf6f4c_4f92_4e04_bd87_c82be03265de -->
<g id="node10" class="node">
<title>1eaf6f4c_4f92_4e04_bd87_c82be03265de</title>
<polygon fill="none" stroke="black" points="489.13,-70 489.13,-88 703.13,-88 703.13,-70 489.13,-70"/>
<text text-anchor="start" x="491.86" y="-77" font-family="Times,serif" text-decoration="underline" font-size="10.00">1eaf6f4c&#45;4f92&#45;4e04&#45;bd87&#45;c82be03265de :Customer</text>
<polygon fill="none" stroke="black" points="489.13,-4 489.13,-70 703.13,-70 703.13,-4 489.13,-4"/>
<text text-anchor="start" x="500.65" y="-58" font-family="Times,serif" font-size="10.00">email = &quot;bobby@tt.ee&quot;</text>
<text text-anchor="start" x="500.65" y="-46" font-family="Times,serif" font-size="10.00">firstName = &quot;Bob&quot;</text>
<text text-anchor="start" x="500.65" y="-34" font-family="Times,serif" font-size="10.00">id = &quot;1eaf6f4c&#45;4f92&#45;4e04&#45;bd87&#45;c82be03265de&quot;</text>
<text text-anchor="start" x="500.65" y="-22" font-family="Times,serif" font-size="10.00">lastName = &quot;Jackson&quot;</text>
<text text-anchor="start" x="500.65" y="-10" font-family="Times,serif" font-size="10.00">password = &quot;secret&quot;</text>
</g>
<!-- b&#45;&gt;1eaf6f4c_4f92_4e04_bd87_c82be03265de -->
<g id="edge9" class="edge">
<title>b&#45;&gt;1eaf6f4c_4f92_4e04_bd87_c82be03265de</title>
<path fill="none" stroke="black" d="M905.72,-291.98C942.39,-282.85 973.24,-271.03 985.13,-256 1020.42,-211.38 1021.02,-172.14 985.13,-128 951.07,-86.12 813.28,-65.17 711.31,-55.22"/>
<text text-anchor="middle" x="731.58" y="-58.22" font-family="Times,serif" font-size="10.00">customers</text>
<text text-anchor="middle" x="896" y="-282.98" font-family="Times,serif" font-size="10.00">bank</text>
</g>
<!-- sendItToTheBank&#45;&gt;c -->
<g id="edge11" class="edge">
<title>sendItToTheBank&#45;&gt;c</title>
<path fill="none" stroke="black" d="M367.95,-127.84C369.59,-106.38 371.31,-83.85 372.52,-68.05"/>
<text text-anchor="middle" x="355.03" y="-71.05" font-family="Times,serif" font-size="10.00">currency</text>
</g>
<!-- 8a633aa5_907c_4e57_a313_22e0adb2672e&#45;&gt;c -->
<g id="edge12" class="edge">
<title>8a633aa5_907c_4e57_a313_22e0adb2672e&#45;&gt;c</title>
<path fill="none" stroke="black" d="M493.14,-127.84C461.55,-106.38 428.39,-83.85 405.12,-68.05"/>
<text text-anchor="middle" x="422.6" y="-71.05" font-family="Times,serif" font-size="10.00">currency</text>
</g>
<!-- 8a633aa5_907c_4e57_a313_22e0adb2672e&#45;&gt;1eaf6f4c_4f92_4e04_bd87_c82be03265de -->
<g id="edge13" class="edge">
<title>8a633aa5_907c_4e57_a313_22e0adb2672e&#45;&gt;1eaf6f4c_4f92_4e04_bd87_c82be03265de</title>
<path fill="none" stroke="black" d="M590.52,-127.84C591.35,-115.9 592.2,-103.63 592.98,-92.37"/>
<text text-anchor="middle" x="580.49" y="-95.37" font-family="Times,serif" font-size="10.00">owner</text>
<text text-anchor="middle" x="574.97" y="-118.84" font-family="Times,serif" font-size="10.00">account</text>
</g>
<!-- 7ec351d6_652f_4691_8e72_ea432d44a0c8&#45;&gt;c -->
<g id="edge14" class="edge">
<title>7ec351d6_652f_4691_8e72_ea432d44a0c8&#45;&gt;c</title>
<path fill="none" stroke="black" d="M729.35,-130.94C726.26,-129.91 723.19,-128.92 720.13,-128 613.51,-95.8 578.94,-123.56 472.13,-92 452.02,-86.06 430.75,-76.7 413.18,-68.06"/>
<text text-anchor="middle" x="395.69" y="-71.06" font-family="Times,serif" font-size="10.00">currency</text>
</g>
<!-- 7ec351d6_652f_4691_8e72_ea432d44a0c8&#45;&gt;e2f7bc4c_ef2a_466e_b8a5_d24f48b13afe -->
<g id="edge15" class="edge">
<title>7ec351d6_652f_4691_8e72_ea432d44a0c8&#45;&gt;e2f7bc4c_ef2a_466e_b8a5_d24f48b13afe</title>
<path fill="none" stroke="black" d="M954.01,-127.84C973.2,-115.82 992.93,-103.48 1011,-92.16"/>
<text text-anchor="middle" x="998.51" y="-95.16" font-family="Times,serif" font-size="10.00">owner</text>
<text text-anchor="middle" x="938.46" y="-118.84" font-family="Times,serif" font-size="10.00">account</text>
</g>
</g>
</svg>
