<?xml version="1.0" encoding="UTF-8" standalone="no"?>
<!DOCTYPE svg PUBLIC "-//W3C//DTD SVG 1.1//EN"
 "http://www.w3.org/Graphics/SVG/1.1/DTD/svg11.dtd">
<!-- Generated by graphviz version 2.43.0 (0)
 -->
<!-- Title: model Pages: 1 -->
<svg width="1767px" height="460px"
 viewBox="0.00 0.00 1766.50 460.00" xmlns="http://www.w3.org/2000/svg" xmlns:xlink="http://www.w3.org/1999/xlink">
<g id="graph0" class="graph" transform="scale(1.0 1.0) rotate(0) translate(4 456)">
<title>model</title>
<polygon fill="white" stroke="transparent" points="-4,4 -4,-456 1762.5,-456 1762.5,4 -4,4"/>
<!-- a96401f4_1dc7_4355_8091_dd85265dcef5 -->
<g id="node1" class="node">
<title>a96401f4_1dc7_4355_8091_dd85265dcef5</title>
<polygon fill="none" stroke="black" points="1209,-431 1209,-448 1441,-448 1441,-431 1209,-431"/>
<text text-anchor="start" x="1212" y="-438" font-family="Times,serif" text-decoration="underline" font-size="10.00">a96401f4&#45;1dc7&#45;4355&#45;8091&#45;dd85265dcef5 :Transaction</text>
<polygon fill="none" stroke="black" points="1209,-370 1209,-431 1441,-431 1441,-370 1209,-370"/>
<text text-anchor="start" x="1216" y="-420" font-family="Times,serif" font-size="10.00">amount = 25.0</text>
<text text-anchor="start" x="1216" y="-409" font-family="Times,serif" font-size="10.00">description = &quot;Ref: concert ticket&quot;</text>
<text text-anchor="start" x="1216" y="-398" font-family="Times,serif" font-size="10.00">id = &quot;a96401f4&#45;1dc7&#45;4355&#45;8091&#45;dd85265dcef5&quot;</text>
<text text-anchor="start" x="1216" y="-387" font-family="Times,serif" font-size="10.00">rejectionDescription = &quot;Currency mismatch detected&quot;</text>
<text text-anchor="start" x="1216" y="-376" font-family="Times,serif" font-size="10.00">timestamp = 2021&#45;12&#45;09T22:33:43.340093412</text>
</g>
<!-- b -->
<g id="node2" class="node">
<title>b</title>
<polygon fill="none" stroke="black" points="412,-308.5 412,-325.5 1243,-325.5 1243,-308.5 412,-308.5"/>
<text text-anchor="start" x="811" y="-315.5" font-family="Times,serif" text-decoration="underline" font-size="10.00">b :Bank</text>
<polygon fill="none" stroke="black" points="412,-280.5 412,-308.5 1243,-308.5 1243,-280.5 412,-280.5"/>
<text text-anchor="start" x="415" y="-297.5" font-family="Times,serif" font-size="10.00">accountsMap = dcffd239&#45;c056&#45;47b4&#45;86b4&#45;5335f0c3956fsendItToTheBank8a633aa5&#45;907c&#45;4e57&#45;a313&#45;22e0adb2672e7ec351d6&#45;652f&#45;4691&#45;8e72&#45;ea432d44a0c8f58bb7b1&#45;b8a8&#45;4bc8&#45;8cd0&#45;1ea7582ebee1</text>
<text text-anchor="start" x="415" y="-286.5" font-family="Times,serif" font-size="10.00">customerMap = ef497a92&#45;c596&#45;4e55&#45;9d95&#45;9be422091ef45f20d903&#45;d210&#45;4273&#45;8027&#45;59aad144f4f2e2f7bc4c&#45;ef2a&#45;466e&#45;b8a5&#45;d24f48b13afe1eaf6f4c&#45;4f92&#45;4e04&#45;bd87&#45;c82be03265de</text>
</g>
<!-- a96401f4_1dc7_4355_8091_dd85265dcef5&#45;&gt;b -->
<g id="edge1" class="edge">
<title>a96401f4_1dc7_4355_8091_dd85265dcef5&#45;&gt;b</title>
<path fill="none" stroke="black" d="M1200.94,-382.22C1124.31,-366.29 1026.37,-345.94 949.95,-330.05"/>
<text text-anchor="middle" x="939.45" y="-333.05" font-family="Times,serif" font-size="10.00">bank</text>
<text text-anchor="middle" x="1176.44" y="-385.22" font-family="Times,serif" font-size="10.00">transactions</text>
</g>
<!-- c -->
<g id="node3" class="node">
<title>c</title>
<polygon fill="none" stroke="black" points="1025,-43 1025,-60 1189,-60 1189,-43 1025,-43"/>
<text text-anchor="start" x="1083" y="-50" font-family="Times,serif" text-decoration="underline" font-size="10.00">c :Currency</text>
<polygon fill="none" stroke="black" points="1025,-26 1025,-43 1189,-43 1189,-26 1025,-26"/>
<text text-anchor="start" x="1028" y="-32" font-family="Times,serif" font-size="10.00">declaringClass = class model.Currency</text>
</g>
<!-- a96401f4_1dc7_4355_8091_dd85265dcef5&#45;&gt;c -->
<g id="edge2" class="edge">
<title>a96401f4_1dc7_4355_8091_dd85265dcef5&#45;&gt;c</title>
<path fill="none" stroke="black" d="M1369.5,-365.86C1426.84,-306.46 1512.28,-197 1451,-122 1400.21,-59.84 1352.28,-103.79 1274,-86 1244.41,-79.27 1212.03,-71.28 1183.73,-64.08"/>
<text text-anchor="middle" x="1165.73" y="-67.08" font-family="Times,serif" font-size="10.00">currency</text>
</g>
<!-- dcffd239_c056_47b4_86b4_5335f0c3956f -->
<g id="node4" class="node">
<title>dcffd239_c056_47b4_86b4_5335f0c3956f</title>
<polygon fill="none" stroke="black" points="128,-219.5 128,-236.5 344,-236.5 344,-219.5 128,-219.5"/>
<text text-anchor="start" x="131" y="-226.5" font-family="Times,serif" text-decoration="underline" font-size="10.00">dcffd239&#45;c056&#45;47b4&#45;86b4&#45;5335f0c3956f :Account</text>
<polygon fill="none" stroke="black" points="128,-125.5 128,-219.5 344,-219.5 344,-125.5 128,-125.5"/>
<text text-anchor="start" x="138" y="-208.5" font-family="Times,serif" font-size="10.00">balance = 0.0</text>
<text text-anchor="start" x="138" y="-197.5" font-family="Times,serif" font-size="10.00">count = 0</text>
<text text-anchor="start" x="138" y="-186.5" font-family="Times,serif" font-size="10.00">customerId = null</text>
<text text-anchor="start" x="138" y="-175.5" font-family="Times,serif" font-size="10.00">iban = &quot;EE368478983542232975&quot;</text>
<text text-anchor="start" x="138" y="-164.5" font-family="Times,serif" font-size="10.00">id = &quot;dcffd239&#45;c056&#45;47b4&#45;86b4&#45;5335f0c3956f&quot;</text>
<text text-anchor="start" x="138" y="-153.5" font-family="Times,serif" font-size="10.00">receivedTransaction = </text>
<text text-anchor="start" x="138" y="-142.5" font-family="Times,serif" font-size="10.00">sentTransaction = </text>
<text text-anchor="start" x="138" y="-131.5" font-family="Times,serif" font-size="10.00">status = &quot;ACTIVE&quot;</text>
</g>
<!-- a96401f4_1dc7_4355_8091_dd85265dcef5&#45;&gt;dcffd239_c056_47b4_86b4_5335f0c3956f -->
<g id="edge3" class="edge">
<title>a96401f4_1dc7_4355_8091_dd85265dcef5&#45;&gt;dcffd239_c056_47b4_86b4_5335f0c3956f</title>
<path fill="none" stroke="black" d="M1200.65,-407.59C981.22,-405.22 535.14,-392.58 394,-330 349.92,-310.46 310.28,-273.37 281.73,-241.27"/>
<text text-anchor="middle" x="258.73" y="-244.27" font-family="Times,serif" font-size="10.00">destination</text>
</g>
<!-- f58bb7b1_b8a8_4bc8_8cd0_1ea7582ebee1 -->
<g id="node5" class="node">
<title>f58bb7b1_b8a8_4bc8_8cd0_1ea7582ebee1</title>
<polygon fill="none" stroke="black" points="1216,-219.5 1216,-236.5 1435,-236.5 1435,-219.5 1216,-219.5"/>
<text text-anchor="start" x="1219" y="-226.5" font-family="Times,serif" text-decoration="underline" font-size="10.00">f58bb7b1&#45;b8a8&#45;4bc8&#45;8cd0&#45;1ea7582ebee1 :Account</text>
<polygon fill="none" stroke="black" points="1216,-125.5 1216,-219.5 1435,-219.5 1435,-125.5 1216,-125.5"/>
<text text-anchor="start" x="1226" y="-208.5" font-family="Times,serif" font-size="10.00">balance = 100.0</text>
<text text-anchor="start" x="1226" y="-197.5" font-family="Times,serif" font-size="10.00">count = 0</text>
<text text-anchor="start" x="1226" y="-186.5" font-family="Times,serif" font-size="10.00">customerId = null</text>
<text text-anchor="start" x="1226" y="-175.5" font-family="Times,serif" font-size="10.00">iban = &quot;EE934087204274082574&quot;</text>
<text text-anchor="start" x="1226" y="-164.5" font-family="Times,serif" font-size="10.00">id = &quot;f58bb7b1&#45;b8a8&#45;4bc8&#45;8cd0&#45;1ea7582ebee1&quot;</text>
<text text-anchor="start" x="1226" y="-153.5" font-family="Times,serif" font-size="10.00">receivedTransaction = </text>
<text text-anchor="start" x="1226" y="-142.5" font-family="Times,serif" font-size="10.00">sentTransaction = </text>
<text text-anchor="start" x="1226" y="-131.5" font-family="Times,serif" font-size="10.00">status = &quot;ACTIVE&quot;</text>
</g>
<!-- a96401f4_1dc7_4355_8091_dd85265dcef5&#45;&gt;f58bb7b1_b8a8_4bc8_8cd0_1ea7582ebee1 -->
<g id="edge4" class="edge">
<title>a96401f4_1dc7_4355_8091_dd85265dcef5&#45;&gt;f58bb7b1_b8a8_4bc8_8cd0_1ea7582ebee1</title>
<path fill="none" stroke="black" d="M1325,-365.85C1325,-330.67 1325,-280.14 1325,-241.03"/>
<text text-anchor="middle" x="1311.5" y="-244.03" font-family="Times,serif" font-size="10.00">source</text>
</g>
<!-- s -->
<g id="node6" class="node">
<title>s</title>
<polygon fill="none" stroke="black" points="1546,-303.5 1546,-320.5 1751,-320.5 1751,-303.5 1546,-303.5"/>
<text text-anchor="start" x="1631.5" y="-310.5" font-family="Times,serif" text-decoration="underline" font-size="10.00">s :Status</text>
<polygon fill="none" stroke="black" points="1546,-286.5 1546,-303.5 1751,-303.5 1751,-286.5 1546,-286.5"/>
<text text-anchor="start" x="1549" y="-292.5" font-family="Times,serif" font-size="10.00">declaringClass = class model.Transaction$Status</text>
</g>
<!-- a96401f4_1dc7_4355_8091_dd85265dcef5&#45;&gt;s -->
<g id="edge5" class="edge">
<title>a96401f4_1dc7_4355_8091_dd85265dcef5&#45;&gt;s</title>
<path fill="none" stroke="black" d="M1449.42,-368.13C1495.98,-353.21 1546.89,-336.9 1585.5,-324.53"/>
<text text-anchor="middle" x="1573.5" y="-327.53" font-family="Times,serif" font-size="10.00">status</text>
</g>
<!-- b&#45;&gt;dcffd239_c056_47b4_86b4_5335f0c3956f -->
<g id="edge10" class="edge">
<title>b&#45;&gt;dcffd239_c056_47b4_86b4_5335f0c3956f</title>
<path fill="none" stroke="black" d="M537.55,-276.96C480.09,-268.24 420.65,-256.58 366,-241 361.48,-239.71 356.91,-238.29 352.33,-236.77"/>
<text text-anchor="middle" x="370.83" y="-239.77" font-family="Times,serif" font-size="10.00">accounts</text>
<text text-anchor="middle" x="527.05" y="-268.96" font-family="Times,serif" font-size="10.00">bank</text>
</g>
<!-- b&#45;&gt;f58bb7b1_b8a8_4bc8_8cd0_1ea7582ebee1 -->
<g id="edge9" class="edge">
<title>b&#45;&gt;f58bb7b1_b8a8_4bc8_8cd0_1ea7582ebee1</title>
<path fill="none" stroke="black" d="M1041.64,-276.92C1093.46,-268.02 1148.23,-256.29 1198,-241 1201.13,-240.04 1204.29,-239.01 1207.46,-237.94"/>
<text text-anchor="middle" x="1188.96" y="-240.94" font-family="Times,serif" font-size="10.00">accounts</text>
<text text-anchor="middle" x="1031.14" y="-268.92" font-family="Times,serif" font-size="10.00">bank</text>
</g>
<!-- sendItToTheBank -->
<g id="node7" class="node">
<title>sendItToTheBank</title>
<polygon fill="none" stroke="black" points="1033,-219.5 1033,-236.5 1182,-236.5 1182,-219.5 1033,-219.5"/>
<text text-anchor="start" x="1050.5" y="-226.5" font-family="Times,serif" text-decoration="underline" font-size="10.00">sendItToTheBank :Account</text>
<polygon fill="none" stroke="black" points="1033,-125.5 1033,-219.5 1182,-219.5 1182,-125.5 1033,-125.5"/>
<text text-anchor="start" x="1036" y="-208.5" font-family="Times,serif" font-size="10.00">balance = 69420.0</text>
<text text-anchor="start" x="1036" y="-197.5" font-family="Times,serif" font-size="10.00">count = 0</text>
<text text-anchor="start" x="1036" y="-186.5" font-family="Times,serif" font-size="10.00">customerId = null</text>
<text text-anchor="start" x="1036" y="-175.5" font-family="Times,serif" font-size="10.00">iban = &quot;EE240803053504367220&quot;</text>
<text text-anchor="start" x="1036" y="-164.5" font-family="Times,serif" font-size="10.00">id = &quot;sendItToTheBank&quot;</text>
<text text-anchor="start" x="1036" y="-153.5" font-family="Times,serif" font-size="10.00">receivedTransaction = </text>
<text text-anchor="start" x="1036" y="-142.5" font-family="Times,serif" font-size="10.00">sentTransaction = </text>
<text text-anchor="start" x="1036" y="-131.5" font-family="Times,serif" font-size="10.00">status = &quot;ACTIVE&quot;</text>
</g>
<!-- b&#45;&gt;sendItToTheBank -->
<g id="edge6" class="edge">
<title>b&#45;&gt;sendItToTheBank</title>
<path fill="none" stroke="black" d="M920.58,-276.96C951.3,-267.25 985.19,-255.08 1015,-241 1018.08,-239.54 1021.18,-238.01 1024.29,-236.4"/>
<text text-anchor="middle" x="996.29" y="-239.4" font-family="Times,serif" font-size="10.00">bankAccount</text>
<text text-anchor="middle" x="910.08" y="-268.96" font-family="Times,serif" font-size="10.00">bank</text>
</g>
<!-- 8a633aa5_907c_4e57_a313_22e0adb2672e -->
<g id="node8" class="node">
<title>8a633aa5_907c_4e57_a313_22e0adb2672e</title>
<polygon fill="none" stroke="black" points="454,-219.5 454,-236.5 692,-236.5 692,-219.5 454,-219.5"/>
<text text-anchor="start" x="466" y="-226.5" font-family="Times,serif" text-decoration="underline" font-size="10.00">8a633aa5&#45;907c&#45;4e57&#45;a313&#45;22e0adb2672e :Account</text>
<polygon fill="none" stroke="black" points="454,-125.5 454,-219.5 692,-219.5 692,-125.5 454,-125.5"/>
<text text-anchor="start" x="457" y="-208.5" font-family="Times,serif" font-size="10.00">balance = 0.0</text>
<text text-anchor="start" x="457" y="-197.5" font-family="Times,serif" font-size="10.00">count = 0</text>
<text text-anchor="start" x="457" y="-186.5" font-family="Times,serif" font-size="10.00">customerId = &quot;1eaf6f4c&#45;4f92&#45;4e04&#45;bd87&#45;c82be03265de&quot;</text>
<text text-anchor="start" x="457" y="-175.5" font-family="Times,serif" font-size="10.00">iban = &quot;EE500467859057350272&quot;</text>
<text text-anchor="start" x="457" y="-164.5" font-family="Times,serif" font-size="10.00">id = &quot;8a633aa5&#45;907c&#45;4e57&#45;a313&#45;22e0adb2672e&quot;</text>
<text text-anchor="start" x="457" y="-153.5" font-family="Times,serif" font-size="10.00">receivedTransaction = </text>
<text text-anchor="start" x="457" y="-142.5" font-family="Times,serif" font-size="10.00">sentTransaction = </text>
<text text-anchor="start" x="457" y="-131.5" font-family="Times,serif" font-size="10.00">status = &quot;ACTIVE&quot;</text>
</g>
<!-- b&#45;&gt;8a633aa5_907c_4e57_a313_22e0adb2672e -->
<g id="edge7" class="edge">
<title>b&#45;&gt;8a633aa5_907c_4e57_a313_22e0adb2672e</title>
<path fill="none" stroke="black" d="M772.82,-276.9C750.53,-266.37 723.72,-253.71 697.08,-241.12"/>
<text text-anchor="middle" x="678.58" y="-244.12" font-family="Times,serif" font-size="10.00">accounts</text>
<text text-anchor="middle" x="762.32" y="-268.9" font-family="Times,serif" font-size="10.00">bank</text>
</g>
<!-- 7ec351d6_652f_4691_8e72_ea432d44a0c8 -->
<g id="node9" class="node">
<title>7ec351d6_652f_4691_8e72_ea432d44a0c8</title>
<polygon fill="none" stroke="black" points="764,-219.5 764,-236.5 998,-236.5 998,-219.5 764,-219.5"/>
<text text-anchor="start" x="774" y="-226.5" font-family="Times,serif" text-decoration="underline" font-size="10.00">7ec351d6&#45;652f&#45;4691&#45;8e72&#45;ea432d44a0c8 :Account</text>
<polygon fill="none" stroke="black" points="764,-125.5 764,-219.5 998,-219.5 998,-125.5 764,-125.5"/>
<text text-anchor="start" x="767" y="-208.5" font-family="Times,serif" font-size="10.00">balance = 100.0</text>
<text text-anchor="start" x="767" y="-197.5" font-family="Times,serif" font-size="10.00">count = 0</text>
<text text-anchor="start" x="767" y="-186.5" font-family="Times,serif" font-size="10.00">customerId = &quot;e2f7bc4c&#45;ef2a&#45;466e&#45;b8a5&#45;d24f48b13afe&quot;</text>
<text text-anchor="start" x="767" y="-175.5" font-family="Times,serif" font-size="10.00">iban = &quot;EE508166157234538669&quot;</text>
<text text-anchor="start" x="767" y="-164.5" font-family="Times,serif" font-size="10.00">id = &quot;7ec351d6&#45;652f&#45;4691&#45;8e72&#45;ea432d44a0c8&quot;</text>
<text text-anchor="start" x="767" y="-153.5" font-family="Times,serif" font-size="10.00">receivedTransaction = </text>
<text text-anchor="start" x="767" y="-142.5" font-family="Times,serif" font-size="10.00">sentTransaction = </text>
<text text-anchor="start" x="767" y="-131.5" font-family="Times,serif" font-size="10.00">status = &quot;ACTIVE&quot;</text>
</g>
<!-- b&#45;&gt;7ec351d6_652f_4691_8e72_ea432d44a0c8 -->
<g id="edge8" class="edge">
<title>b&#45;&gt;7ec351d6_652f_4691_8e72_ea432d44a0c8</title>
<path fill="none" stroke="black" d="M838.58,-276.76C843.29,-266.29 848.95,-253.73 854.57,-241.24"/>
<text text-anchor="middle" x="836.07" y="-244.24" font-family="Times,serif" font-size="10.00">accounts</text>
<text text-anchor="middle" x="828.08" y="-268.76" font-family="Times,serif" font-size="10.00">bank</text>
</g>
<!-- e2f7bc4c_ef2a_466e_b8a5_d24f48b13afe -->
<g id="node10" class="node">
<title>e2f7bc4c_ef2a_466e_b8a5_d24f48b13afe</title>
<polygon fill="none" stroke="black" points="746,-65 746,-82 961,-82 961,-65 746,-65"/>
<text text-anchor="start" x="749" y="-72" font-family="Times,serif" text-decoration="underline" font-size="10.00">e2f7bc4c&#45;ef2a&#45;466e&#45;b8a5&#45;d24f48b13afe :Customer</text>
<polygon fill="none" stroke="black" points="746,-4 746,-65 961,-65 961,-4 746,-4"/>
<text text-anchor="start" x="758" y="-54" font-family="Times,serif" font-size="10.00">email = &quot;john@doe.ee&quot;</text>
<text text-anchor="start" x="758" y="-43" font-family="Times,serif" font-size="10.00">firstName = &quot;John&quot;</text>
<text text-anchor="start" x="758" y="-32" font-family="Times,serif" font-size="10.00">id = &quot;e2f7bc4c&#45;ef2a&#45;466e&#45;b8a5&#45;d24f48b13afe&quot;</text>
<text text-anchor="start" x="758" y="-21" font-family="Times,serif" font-size="10.00">lastName = &quot;Doe&quot;</text>
<text text-anchor="start" x="758" y="-10" font-family="Times,serif" font-size="10.00">password = &quot;pass1234&quot;</text>
</g>
<!-- b&#45;&gt;e2f7bc4c_ef2a_466e_b8a5_d24f48b13afe -->
<g id="edge11" class="edge">
<title>b&#45;&gt;e2f7bc4c_ef2a_466e_b8a5_d24f48b13afe</title>
<path fill="none" stroke="black" d="M779.34,-276.92C766.46,-267.47 754.12,-255.46 747,-241 723.63,-193.55 723.13,-169.2 747,-122 753.96,-108.24 764.62,-96.31 776.54,-86.21"/>
<text text-anchor="middle" x="756.04" y="-89.21" font-family="Times,serif" font-size="10.00">customers</text>
<text text-anchor="middle" x="789.84" y="-268.92" font-family="Times,serif" font-size="10.00">bank</text>
</g>
<!-- 1eaf6f4c_4f92_4e04_bd87_c82be03265de -->
<g id="node11" class="node">
<title>1eaf6f4c_4f92_4e04_bd87_c82be03265de</title>
<polygon fill="none" stroke="black" points="464,-65 464,-82 683,-82 683,-65 464,-65"/>
<text text-anchor="start" x="467" y="-72" font-family="Times,serif" text-decoration="underline" font-size="10.00">1eaf6f4c&#45;4f92&#45;4e04&#45;bd87&#45;c82be03265de :Customer</text>
<polygon fill="none" stroke="black" points="464,-4 464,-65 683,-65 683,-4 464,-4"/>
<text text-anchor="start" x="476" y="-54" font-family="Times,serif" font-size="10.00">email = &quot;bobby@tt.ee&quot;</text>
<text text-anchor="start" x="476" y="-43" font-family="Times,serif" font-size="10.00">firstName = &quot;Bob&quot;</text>
<text text-anchor="start" x="476" y="-32" font-family="Times,serif" font-size="10.00">id = &quot;1eaf6f4c&#45;4f92&#45;4e04&#45;bd87&#45;c82be03265de&quot;</text>
<text text-anchor="start" x="476" y="-21" font-family="Times,serif" font-size="10.00">lastName = &quot;Jackson&quot;</text>
<text text-anchor="start" x="476" y="-10" font-family="Times,serif" font-size="10.00">password = &quot;secret&quot;</text>
</g>
<!-- b&#45;&gt;1eaf6f4c_4f92_4e04_bd87_c82be03265de -->
<g id="edge12" class="edge">
<title>b&#45;&gt;1eaf6f4c_4f92_4e04_bd87_c82be03265de</title>
<path fill="none" stroke="black" d="M514.27,-276.93C478.64,-268.22 450.3,-256.57 437,-241 402.64,-200.79 410.49,-167.77 437,-122 445.25,-107.75 457.2,-95.88 470.64,-86.06"/>
<text text-anchor="middle" x="450.14" y="-89.06" font-family="Times,serif" font-size="10.00">customers</text>
<text text-anchor="middle" x="503.77" y="-268.93" font-family="Times,serif" font-size="10.00">bank</text>
</g>
<!-- ef497a92_c596_4e55_9d95_9be422091ef4 -->
<g id="node12" class="node">
<title>ef497a92_c596_4e55_9d95_9be422091ef4</title>
<polygon fill="none" stroke="black" points="1291,-65 1291,-82 1513,-82 1513,-65 1291,-65"/>
<text text-anchor="start" x="1294" y="-72" font-family="Times,serif" text-decoration="underline" font-size="10.00">ef497a92&#45;c596&#45;4e55&#45;9d95&#45;9be422091ef4 :Customer</text>
<polygon fill="none" stroke="black" points="1291,-4 1291,-65 1513,-65 1513,-4 1291,-4"/>
<text text-anchor="start" x="1303" y="-54" font-family="Times,serif" font-size="10.00">email = &quot;johntest@doe.ee&quot;</text>
<text text-anchor="start" x="1303" y="-43" font-family="Times,serif" font-size="10.00">firstName = &quot;johntest&quot;</text>
<text text-anchor="start" x="1303" y="-32" font-family="Times,serif" font-size="10.00">id = &quot;ef497a92&#45;c596&#45;4e55&#45;9d95&#45;9be422091ef4&quot;</text>
<text text-anchor="start" x="1303" y="-21" font-family="Times,serif" font-size="10.00">lastName = &quot;Doe&quot;</text>
<text text-anchor="start" x="1303" y="-10" font-family="Times,serif" font-size="10.00">password = &quot;pass1234&quot;</text>
</g>
<!-- b&#45;&gt;ef497a92_c596_4e55_9d95_9be422091ef4 -->
<g id="edge13" class="edge">
<title>b&#45;&gt;ef497a92_c596_4e55_9d95_9be422091ef4</title>
<path fill="none" stroke="black" d="M1250.62,-281.58C1351.17,-272.35 1434.41,-259.3 1451,-241 1489.58,-198.43 1459.16,-130.21 1431.98,-86.25"/>
<text text-anchor="middle" x="1411.48" y="-89.25" font-family="Times,serif" font-size="10.00">customers</text>
<text text-anchor="middle" x="1261.12" y="-284.58" font-family="Times,serif" font-size="10.00">bank</text>
</g>
<!-- 5f20d903_d210_4273_8027_59aad144f4f2 -->
<g id="node13" class="node">
<title>5f20d903_d210_4273_8027_59aad144f4f2</title>
<polygon fill="none" stroke="black" points="207,-65 207,-82 430,-82 430,-65 207,-65"/>
<text text-anchor="start" x="210" y="-72" font-family="Times,serif" text-decoration="underline" font-size="10.00">5f20d903&#45;d210&#45;4273&#45;8027&#45;59aad144f4f2 :Customer</text>
<polygon fill="none" stroke="black" points="207,-4 207,-65 430,-65 430,-4 207,-4"/>
<text text-anchor="start" x="219" y="-54" font-family="Times,serif" font-size="10.00">email = &quot;bobbytest@tt.ee&quot;</text>
<text text-anchor="start" x="219" y="-43" font-family="Times,serif" font-size="10.00">firstName = &quot;Bob&quot;</text>
<text text-anchor="start" x="219" y="-32" font-family="Times,serif" font-size="10.00">id = &quot;5f20d903&#45;d210&#45;4273&#45;8027&#45;59aad144f4f2&quot;</text>
<text text-anchor="start" x="219" y="-21" font-family="Times,serif" font-size="10.00">lastName = &quot;Jackson&quot;</text>
<text text-anchor="start" x="219" y="-10" font-family="Times,serif" font-size="10.00">password = &quot;secret&quot;</text>
</g>
<!-- b&#45;&gt;5f20d903_d210_4273_8027_59aad144f4f2 -->
<g id="edge14" class="edge">
<title>b&#45;&gt;5f20d903_d210_4273_8027_59aad144f4f2</title>
<path fill="none" stroke="black" d="M518.76,-276.99C471.15,-268.28 431.12,-256.61 411,-241 365.68,-205.83 385.99,-173.64 361,-122 355.27,-110.17 348.61,-97.6 342.26,-86.08"/>
<text text-anchor="middle" x="321.76" y="-89.08" font-family="Times,serif" font-size="10.00">customers</text>
<text text-anchor="middle" x="508.26" y="-268.99" font-family="Times,serif" font-size="10.00">bank</text>
</g>
<!-- dcffd239_c056_47b4_86b4_5335f0c3956f&#45;&gt;5f20d903_d210_4273_8027_59aad144f4f2 -->
<g id="edge16" class="edge">
<title>dcffd239_c056_47b4_86b4_5335f0c3956f&#45;&gt;5f20d903_d210_4273_8027_59aad144f4f2</title>
<path fill="none" stroke="black" d="M271.25,-121.82C278.46,-109.82 285.9,-97.43 292.68,-86.15"/>
<text text-anchor="middle" x="279.68" y="-89.15" font-family="Times,serif" font-size="10.00">owner</text>
<text text-anchor="middle" x="254.75" y="-113.82" font-family="Times,serif" font-size="10.00">account</text>
</g>
<!-- c1 -->
<g id="node14" class="node">
<title>c1</title>
<polygon fill="none" stroke="black" points="8,-43 8,-60 172,-60 172,-43 8,-43"/>
<text text-anchor="start" x="63.5" y="-50" font-family="Times,serif" text-decoration="underline" font-size="10.00">c1 :Currency</text>
<polygon fill="none" stroke="black" points="8,-26 8,-43 172,-43 172,-26 8,-26"/>
<text text-anchor="start" x="11" y="-32" font-family="Times,serif" font-size="10.00">declaringClass = class model.Currency</text>
</g>
<!-- dcffd239_c056_47b4_86b4_5335f0c3956f&#45;&gt;c1 -->
<g id="edge15" class="edge">
<title>dcffd239_c056_47b4_86b4_5335f0c3956f&#45;&gt;c1</title>
<path fill="none" stroke="black" d="M173.24,-121.82C151.13,-101.15 127.75,-79.29 111.42,-64.02"/>
<text text-anchor="middle" x="93.42" y="-67.02" font-family="Times,serif" font-size="10.00">currency</text>
</g>
<!-- f58bb7b1_b8a8_4bc8_8cd0_1ea7582ebee1&#45;&gt;c -->
<g id="edge17" class="edge">
<title>f58bb7b1_b8a8_4bc8_8cd0_1ea7582ebee1&#45;&gt;c</title>
<path fill="none" stroke="black" d="M1231.28,-121.82C1198.28,-101.15 1163.37,-79.29 1138.98,-64.02"/>
<text text-anchor="middle" x="1120.98" y="-67.02" font-family="Times,serif" font-size="10.00">currency</text>
</g>
<!-- f58bb7b1_b8a8_4bc8_8cd0_1ea7582ebee1&#45;&gt;ef497a92_c596_4e55_9d95_9be422091ef4 -->
<g id="edge18" class="edge">
<title>f58bb7b1_b8a8_4bc8_8cd0_1ea7582ebee1&#45;&gt;ef497a92_c596_4e55_9d95_9be422091ef4</title>
<path fill="none" stroke="black" d="M1358.1,-121.82C1364.87,-109.82 1371.86,-97.43 1378.22,-86.15"/>
<text text-anchor="middle" x="1365.22" y="-89.15" font-family="Times,serif" font-size="10.00">owner</text>
<text text-anchor="middle" x="1341.6" y="-113.82" font-family="Times,serif" font-size="10.00">account</text>
</g>
<!-- sendItToTheBank&#45;&gt;c -->
<g id="edge19" class="edge">
<title>sendItToTheBank&#45;&gt;c</title>
<path fill="none" stroke="black" d="M1107,-121.82C1107,-101.15 1107,-79.29 1107,-64.02"/>
<text text-anchor="middle" x="1089" y="-67.02" font-family="Times,serif" font-size="10.00">currency</text>
</g>
<!-- 8a633aa5_907c_4e57_a313_22e0adb2672e&#45;&gt;c -->
<g id="edge20" class="edge">
<title>8a633aa5_907c_4e57_a313_22e0adb2672e&#45;&gt;c</title>
<path fill="none" stroke="black" d="M700.09,-135.03C715.77,-130.23 731.68,-125.75 747,-122 847.51,-97.43 876.35,-109.98 977,-86 1001.8,-80.09 1028.7,-71.74 1051.56,-64.04"/>
<text text-anchor="middle" x="1033.56" y="-67.04" font-family="Times,serif" font-size="10.00">currency</text>
</g>
<!-- 8a633aa5_907c_4e57_a313_22e0adb2672e&#45;&gt;1eaf6f4c_4f92_4e04_bd87_c82be03265de -->
<g id="edge21" class="edge">
<title>8a633aa5_907c_4e57_a313_22e0adb2672e&#45;&gt;1eaf6f4c_4f92_4e04_bd87_c82be03265de</title>
<path fill="none" stroke="black" d="M573,-121.82C573,-109.82 573,-97.43 573,-86.15"/>
<text text-anchor="middle" x="560" y="-89.15" font-family="Times,serif" font-size="10.00">owner</text>
<text text-anchor="middle" x="556.5" y="-113.82" font-family="Times,serif" font-size="10.00">account</text>
</g>
<!-- 7ec351d6_652f_4691_8e72_ea432d44a0c8&#45;&gt;c -->
<g id="edge22" class="edge">
<title>7ec351d6_652f_4691_8e72_ea432d44a0c8&#45;&gt;c</title>
<path fill="none" stroke="black" d="M978.16,-121.82C1012.37,-101.15 1048.57,-79.29 1073.85,-64.02"/>
<text text-anchor="middle" x="1055.85" y="-67.02" font-family="Times,serif" font-size="10.00">currency</text>
</g>
<!-- 7ec351d6_652f_4691_8e72_ea432d44a0c8&#45;&gt;e2f7bc4c_ef2a_466e_b8a5_d24f48b13afe -->
<g id="edge23" class="edge">
<title>7ec351d6_652f_4691_8e72_ea432d44a0c8&#45;&gt;e2f7bc4c_ef2a_466e_b8a5_d24f48b13afe</title>
<path fill="none" stroke="black" d="M868.96,-121.82C866.5,-109.82 863.96,-97.43 861.65,-86.15"/>
<text text-anchor="middle" x="848.65" y="-89.15" font-family="Times,serif" font-size="10.00">owner</text>
<text text-anchor="middle" x="852.46" y="-113.82" font-family="Times,serif" font-size="10.00">account</text>
</g>
</g>
</svg>
