<?xml version="1.0" encoding="UTF-8" standalone="no"?>
<!DOCTYPE svg PUBLIC "-//W3C//DTD SVG 1.1//EN"
 "http://www.w3.org/Graphics/SVG/1.1/DTD/svg11.dtd">
<!-- Generated by graphviz version 2.49.3 (20211023.0002)
 -->
<!-- Title: model Pages: 1 -->
<svg width="1518px" height="449px"
 viewBox="0.00 0.00 1518.00 449.00" xmlns="http://www.w3.org/2000/svg" xmlns:xlink="http://www.w3.org/1999/xlink">
<g id="graph0" class="graph" transform="scale(1.0 1.0) rotate(0) translate(4 445)">
<title>model</title>
<polygon fill="white" stroke="transparent" points="-4,4 -4,-445 1514,-445 1514,4 -4,4"/>
<!-- c0ea1779_4c58_43fa_9fb2_d51d94795706 -->
<g id="node1" class="node">
<title>c0ea1779_4c58_43fa_9fb2_d51d94795706</title>
<polygon fill="none" stroke="black" points="709,-420 709,-437 935,-437 935,-420 709,-420"/>
<text text-anchor="start" x="712" y="-427" font-family="Times,serif" text-decoration="underline" font-size="10.00">c0ea1779&#45;4c58&#45;43fa&#45;9fb2&#45;d51d94795706 :Transaction</text>
<polygon fill="none" stroke="black" points="709,-359 709,-420 935,-420 935,-359 709,-359"/>
<text text-anchor="start" x="725" y="-409" font-family="Times,serif" font-size="10.00">amount = 25.0</text>
<text text-anchor="start" x="725" y="-398" font-family="Times,serif" font-size="10.00">description = &quot;Ref: concert ticket&quot;</text>
<text text-anchor="start" x="725" y="-387" font-family="Times,serif" font-size="10.00">id = &quot;c0ea1779&#45;4c58&#45;43fa&#45;9fb2&#45;d51d94795706&quot;</text>
<text text-anchor="start" x="725" y="-376" font-family="Times,serif" font-size="10.00">rejectionDescription = &quot;&quot;</text>
<text text-anchor="start" x="725" y="-365" font-family="Times,serif" font-size="10.00">timestamp = 2021&#45;12&#45;05T17:29:30.424200</text>
</g>
<!-- b -->
<g id="node2" class="node">
<title>b</title>
<polygon fill="none" stroke="black" points="417,-297.5 417,-314.5 1228,-314.5 1228,-297.5 417,-297.5"/>
<text text-anchor="start" x="806.5" y="-304.5" font-family="Times,serif" text-decoration="underline" font-size="10.00">b :Bank</text>
<polygon fill="none" stroke="black" points="417,-269.5 417,-297.5 1228,-297.5 1228,-269.5 417,-269.5"/>
<text text-anchor="start" x="420" y="-286.5" font-family="Times,serif" font-size="10.00">accountsMap = 6e125afd&#45;4471&#45;4a4e&#45;92f7&#45;a5ca1347ffd9265b9b6b&#45;aede&#45;46c2&#45;9727&#45;b8348133a851sendItToTheBank8a633aa5&#45;907c&#45;4e57&#45;a313&#45;22e0adb2672e7ec351d6&#45;652f&#45;4691&#45;8e72&#45;ea432d44a0c8</text>
<text text-anchor="start" x="420" y="-275.5" font-family="Times,serif" font-size="10.00">customerMap = e2f7bc4c&#45;ef2a&#45;466e&#45;b8a5&#45;d24f48b13afe1eaf6f4c&#45;4f92&#45;4e04&#45;bd87&#45;c82be03265de158ab5a6&#45;c222&#45;4922&#45;9c9b&#45;894c1ca5e800941fb604&#45;3c51&#45;41c2&#45;a915&#45;94b1c0a2343d</text>
</g>
<!-- c0ea1779_4c58_43fa_9fb2_d51d94795706&#45;&gt;b -->
<g id="edge1" class="edge">
<title>c0ea1779_4c58_43fa_9fb2_d51d94795706&#45;&gt;b</title>
<path fill="none" stroke="black" d="M822,-354.9C822,-342.81 822,-330 822,-319.22"/>
<text text-anchor="middle" x="812" y="-322.22" font-family="Times,serif" font-size="10.00">bank</text>
<text text-anchor="middle" x="798" y="-346.9" font-family="Times,serif" font-size="10.00">transactions</text>
</g>
<!-- c -->
<g id="node3" class="node">
<title>c</title>
<polygon fill="none" stroke="black" points="386,-43 386,-60 549,-60 549,-43 386,-43"/>
<text text-anchor="start" x="444" y="-50" font-family="Times,serif" text-decoration="underline" font-size="10.00">c :Currency</text>
<polygon fill="none" stroke="black" points="386,-26 386,-43 549,-43 549,-26 386,-26"/>
<text text-anchor="start" x="389" y="-32" font-family="Times,serif" font-size="10.00">declaringClass = class model.Currency</text>
</g>
<!-- c0ea1779_4c58_43fa_9fb2_d51d94795706&#45;&gt;c -->
<g id="edge2" class="edge">
<title>c0ea1779_4c58_43fa_9fb2_d51d94795706&#45;&gt;c</title>
<path fill="none" stroke="black" d="M700.81,-389.1C591.58,-379.49 441.74,-359.25 399,-319 334.86,-258.6 340.41,-202.14 377,-122 388.25,-97.36 411.55,-77.51 431.63,-64.01"/>
<text text-anchor="middle" x="449.13" y="-67.01" font-family="Times,serif" font-size="10.00">currency</text>
</g>
<!-- 265b9b6b_aede_46c2_9727_b8348133a851 -->
<g id="node4" class="node">
<title>265b9b6b_aede_46c2_9727_b8348133a851</title>
<polygon fill="none" stroke="black" points="1224,-209 1224,-226 1489,-226 1489,-209 1224,-209"/>
<text text-anchor="start" x="1251.5" y="-216" font-family="Times,serif" text-decoration="underline" font-size="10.00">265b9b6b&#45;aede&#45;46c2&#45;9727&#45;b8348133a851 :Account</text>
<polygon fill="none" stroke="black" points="1224,-126 1224,-209 1489,-209 1489,-126 1224,-126"/>
<text text-anchor="start" x="1227" y="-198" font-family="Times,serif" font-size="10.00">balance = 25.0</text>
<text text-anchor="start" x="1227" y="-187" font-family="Times,serif" font-size="10.00">customerId = null</text>
<text text-anchor="start" x="1227" y="-176" font-family="Times,serif" font-size="10.00">iban = &quot;EE214944230744452015&quot;</text>
<text text-anchor="start" x="1227" y="-165" font-family="Times,serif" font-size="10.00">id = &quot;265b9b6b&#45;aede&#45;46c2&#45;9727&#45;b8348133a851&quot;</text>
<text text-anchor="start" x="1227" y="-154" font-family="Times,serif" font-size="10.00">receivedTransaction = c0ea1779&#45;4c58&#45;43fa&#45;9fb2&#45;d51d94795706</text>
<text text-anchor="start" x="1227" y="-143" font-family="Times,serif" font-size="10.00">sentTransaction = </text>
<text text-anchor="start" x="1227" y="-132" font-family="Times,serif" font-size="10.00">status = &quot;ACTIVE&quot;</text>
</g>
<!-- c0ea1779_4c58_43fa_9fb2_d51d94795706&#45;&gt;265b9b6b_aede_46c2_9727_b8348133a851 -->
<g id="edge3" class="edge">
<title>c0ea1779_4c58_43fa_9fb2_d51d94795706&#45;&gt;265b9b6b_aede_46c2_9727_b8348133a851</title>
<path fill="none" stroke="black" d="M943.09,-384.62C1049.52,-371.96 1194.87,-349.78 1244,-319 1268.78,-303.48 1265.05,-289.09 1283,-266 1292.07,-254.32 1302,-241.96 1311.53,-230.28"/>
<text text-anchor="middle" x="1289.53" y="-233.28" font-family="Times,serif" font-size="10.00">destination</text>
<text text-anchor="middle" x="1000.09" y="-387.62" font-family="Times,serif" font-size="10.00">allTransactionsOrderedDesc</text>
</g>
<!-- 6e125afd_4471_4a4e_92f7_a5ca1347ffd9 -->
<g id="node5" class="node">
<title>6e125afd_4471_4a4e_92f7_a5ca1347ffd9</title>
<polygon fill="none" stroke="black" points="75,-209 75,-226 322,-226 322,-209 75,-209"/>
<text text-anchor="start" x="97.5" y="-216" font-family="Times,serif" text-decoration="underline" font-size="10.00">6e125afd&#45;4471&#45;4a4e&#45;92f7&#45;a5ca1347ffd9 :Account</text>
<polygon fill="none" stroke="black" points="75,-126 75,-209 322,-209 322,-126 75,-126"/>
<text text-anchor="start" x="78" y="-198" font-family="Times,serif" font-size="10.00">balance = 75.0</text>
<text text-anchor="start" x="78" y="-187" font-family="Times,serif" font-size="10.00">customerId = null</text>
<text text-anchor="start" x="78" y="-176" font-family="Times,serif" font-size="10.00">iban = &quot;EE077629186369045913&quot;</text>
<text text-anchor="start" x="78" y="-165" font-family="Times,serif" font-size="10.00">id = &quot;6e125afd&#45;4471&#45;4a4e&#45;92f7&#45;a5ca1347ffd9&quot;</text>
<text text-anchor="start" x="78" y="-154" font-family="Times,serif" font-size="10.00">receivedTransaction = </text>
<text text-anchor="start" x="78" y="-143" font-family="Times,serif" font-size="10.00">sentTransaction = c0ea1779&#45;4c58&#45;43fa&#45;9fb2&#45;d51d94795706</text>
<text text-anchor="start" x="78" y="-132" font-family="Times,serif" font-size="10.00">status = &quot;ACTIVE&quot;</text>
</g>
<!-- c0ea1779_4c58_43fa_9fb2_d51d94795706&#45;&gt;6e125afd_4471_4a4e_92f7_a5ca1347ffd9 -->
<g id="edge4" class="edge">
<title>c0ea1779_4c58_43fa_9fb2_d51d94795706&#45;&gt;6e125afd_4471_4a4e_92f7_a5ca1347ffd9</title>
<path fill="none" stroke="black" d="M700.87,-385.6C580.36,-372.77 404.87,-349.66 344,-319 302.47,-298.08 265.09,-261.19 238.54,-230.25"/>
<text text-anchor="middle" x="225.04" y="-233.25" font-family="Times,serif" font-size="10.00">source</text>
<text text-anchor="middle" x="643.87" y="-388.6" font-family="Times,serif" font-size="10.00">allTransactionsOrderedDesc</text>
</g>
<!-- s -->
<g id="node6" class="node">
<title>s</title>
<polygon fill="none" stroke="black" points="1300,-292.5 1300,-309.5 1502,-309.5 1502,-292.5 1300,-292.5"/>
<text text-anchor="start" x="1384" y="-299.5" font-family="Times,serif" text-decoration="underline" font-size="10.00">s :Status</text>
<polygon fill="none" stroke="black" points="1300,-275.5 1300,-292.5 1502,-292.5 1502,-275.5 1300,-275.5"/>
<text text-anchor="start" x="1303" y="-281.5" font-family="Times,serif" font-size="10.00">declaringClass = class model.Transaction$Status</text>
</g>
<!-- c0ea1779_4c58_43fa_9fb2_d51d94795706&#45;&gt;s -->
<g id="edge5" class="edge">
<title>c0ea1779_4c58_43fa_9fb2_d51d94795706&#45;&gt;s</title>
<path fill="none" stroke="black" d="M943.18,-377.46C1035.19,-362.33 1164.75,-340.42 1278,-319 1287.11,-317.28 1296.58,-315.42 1306.05,-313.53"/>
<text text-anchor="middle" x="1294.55" y="-316.53" font-family="Times,serif" font-size="10.00">status</text>
</g>
<!-- b&#45;&gt;265b9b6b_aede_46c2_9727_b8348133a851 -->
<g id="edge10" class="edge">
<title>b&#45;&gt;265b9b6b_aede_46c2_9727_b8348133a851</title>
<path fill="none" stroke="black" d="M1019.02,-265.98C1077.97,-256.62 1142.48,-244.64 1201,-230 1205.69,-228.83 1210.44,-227.58 1215.22,-226.26"/>
<text text-anchor="middle" x="1197.72" y="-229.26" font-family="Times,serif" font-size="10.00">accounts</text>
<text text-anchor="middle" x="1009.02" y="-257.98" font-family="Times,serif" font-size="10.00">bank</text>
</g>
<!-- b&#45;&gt;6e125afd_4471_4a4e_92f7_a5ca1347ffd9 -->
<g id="edge9" class="edge">
<title>b&#45;&gt;6e125afd_4471_4a4e_92f7_a5ca1347ffd9</title>
<path fill="none" stroke="black" d="M588.73,-265.99C520.14,-256.68 445.23,-244.73 377,-230 361.64,-226.68 345.67,-222.72 329.88,-218.48"/>
<text text-anchor="middle" x="347.38" y="-221.48" font-family="Times,serif" font-size="10.00">accounts</text>
<text text-anchor="middle" x="578.73" y="-257.99" font-family="Times,serif" font-size="10.00">bank</text>
</g>
<!-- sendItToTheBank -->
<g id="node7" class="node">
<title>sendItToTheBank</title>
<polygon fill="none" stroke="black" points="395,-209 395,-226 540,-226 540,-209 395,-209"/>
<text text-anchor="start" x="412" y="-216" font-family="Times,serif" text-decoration="underline" font-size="10.00">sendItToTheBank :Account</text>
<polygon fill="none" stroke="black" points="395,-126 395,-209 540,-209 540,-126 395,-126"/>
<text text-anchor="start" x="398" y="-198" font-family="Times,serif" font-size="10.00">balance = 69420.0</text>
<text text-anchor="start" x="398" y="-187" font-family="Times,serif" font-size="10.00">customerId = null</text>
<text text-anchor="start" x="398" y="-176" font-family="Times,serif" font-size="10.00">iban = &quot;EE291694910921989216&quot;</text>
<text text-anchor="start" x="398" y="-165" font-family="Times,serif" font-size="10.00">id = &quot;sendItToTheBank&quot;</text>
<text text-anchor="start" x="398" y="-154" font-family="Times,serif" font-size="10.00">receivedTransaction = </text>
<text text-anchor="start" x="398" y="-143" font-family="Times,serif" font-size="10.00">sentTransaction = </text>
<text text-anchor="start" x="398" y="-132" font-family="Times,serif" font-size="10.00">status = &quot;ACTIVE&quot;</text>
</g>
<!-- b&#45;&gt;sendItToTheBank -->
<g id="edge6" class="edge">
<title>b&#45;&gt;sendItToTheBank</title>
<path fill="none" stroke="black" d="M674.54,-265.95C635.27,-256.85 593.38,-245.02 556,-230 553.25,-228.89 550.48,-227.71 547.71,-226.46"/>
<text text-anchor="middle" x="574.71" y="-229.46" font-family="Times,serif" font-size="10.00">bankAccount</text>
<text text-anchor="middle" x="664.54" y="-257.95" font-family="Times,serif" font-size="10.00">bank</text>
</g>
<!-- 8a633aa5_907c_4e57_a313_22e0adb2672e -->
<g id="node8" class="node">
<title>8a633aa5_907c_4e57_a313_22e0adb2672e</title>
<polygon fill="none" stroke="black" points="574,-209 574,-226 809,-226 809,-209 574,-209"/>
<text text-anchor="start" x="587.5" y="-216" font-family="Times,serif" text-decoration="underline" font-size="10.00">8a633aa5&#45;907c&#45;4e57&#45;a313&#45;22e0adb2672e :Account</text>
<polygon fill="none" stroke="black" points="574,-126 574,-209 809,-209 809,-126 574,-126"/>
<text text-anchor="start" x="577" y="-198" font-family="Times,serif" font-size="10.00">balance = 0.0</text>
<text text-anchor="start" x="577" y="-187" font-family="Times,serif" font-size="10.00">customerId = &quot;1eaf6f4c&#45;4f92&#45;4e04&#45;bd87&#45;c82be03265de&quot;</text>
<text text-anchor="start" x="577" y="-176" font-family="Times,serif" font-size="10.00">iban = null</text>
<text text-anchor="start" x="577" y="-165" font-family="Times,serif" font-size="10.00">id = &quot;8a633aa5&#45;907c&#45;4e57&#45;a313&#45;22e0adb2672e&quot;</text>
<text text-anchor="start" x="577" y="-154" font-family="Times,serif" font-size="10.00">receivedTransaction = </text>
<text text-anchor="start" x="577" y="-143" font-family="Times,serif" font-size="10.00">sentTransaction = </text>
<text text-anchor="start" x="577" y="-132" font-family="Times,serif" font-size="10.00">status = &quot;ACTIVE&quot;</text>
</g>
<!-- b&#45;&gt;8a633aa5_907c_4e57_a313_22e0adb2672e -->
<g id="edge7" class="edge">
<title>b&#45;&gt;8a633aa5_907c_4e57_a313_22e0adb2672e</title>
<path fill="none" stroke="black" d="M792.6,-265.8C780.46,-255.19 765.9,-242.47 751.66,-230.02"/>
<text text-anchor="middle" x="734.16" y="-233.02" font-family="Times,serif" font-size="10.00">accounts</text>
<text text-anchor="middle" x="782.6" y="-257.8" font-family="Times,serif" font-size="10.00">bank</text>
</g>
<!-- 7ec351d6_652f_4691_8e72_ea432d44a0c8 -->
<g id="node9" class="node">
<title>7ec351d6_652f_4691_8e72_ea432d44a0c8</title>
<polygon fill="none" stroke="black" points="881,-209 881,-226 1113,-226 1113,-209 881,-209"/>
<text text-anchor="start" x="893.5" y="-216" font-family="Times,serif" text-decoration="underline" font-size="10.00">7ec351d6&#45;652f&#45;4691&#45;8e72&#45;ea432d44a0c8 :Account</text>
<polygon fill="none" stroke="black" points="881,-126 881,-209 1113,-209 1113,-126 881,-126"/>
<text text-anchor="start" x="884" y="-198" font-family="Times,serif" font-size="10.00">balance = 100.0</text>
<text text-anchor="start" x="884" y="-187" font-family="Times,serif" font-size="10.00">customerId = &quot;e2f7bc4c&#45;ef2a&#45;466e&#45;b8a5&#45;d24f48b13afe&quot;</text>
<text text-anchor="start" x="884" y="-176" font-family="Times,serif" font-size="10.00">iban = null</text>
<text text-anchor="start" x="884" y="-165" font-family="Times,serif" font-size="10.00">id = &quot;7ec351d6&#45;652f&#45;4691&#45;8e72&#45;ea432d44a0c8&quot;</text>
<text text-anchor="start" x="884" y="-154" font-family="Times,serif" font-size="10.00">receivedTransaction = </text>
<text text-anchor="start" x="884" y="-143" font-family="Times,serif" font-size="10.00">sentTransaction = </text>
<text text-anchor="start" x="884" y="-132" font-family="Times,serif" font-size="10.00">status = &quot;ACTIVE&quot;</text>
</g>
<!-- b&#45;&gt;7ec351d6_652f_4691_8e72_ea432d44a0c8 -->
<g id="edge8" class="edge">
<title>b&#45;&gt;7ec351d6_652f_4691_8e72_ea432d44a0c8</title>
<path fill="none" stroke="black" d="M861.27,-265.8C877.5,-255.19 896.94,-242.47 915.97,-230.02"/>
<text text-anchor="middle" x="898.47" y="-233.02" font-family="Times,serif" font-size="10.00">accounts</text>
<text text-anchor="middle" x="851.27" y="-257.8" font-family="Times,serif" font-size="10.00">bank</text>
</g>
<!-- e2f7bc4c_ef2a_466e_b8a5_d24f48b13afe -->
<g id="node10" class="node">
<title>e2f7bc4c_ef2a_466e_b8a5_d24f48b13afe</title>
<polygon fill="none" stroke="black" points="918,-65 918,-82 1130,-82 1130,-65 918,-65"/>
<text text-anchor="start" x="921" y="-72" font-family="Times,serif" text-decoration="underline" font-size="10.00">e2f7bc4c&#45;ef2a&#45;466e&#45;b8a5&#45;d24f48b13afe :Customer</text>
<polygon fill="none" stroke="black" points="918,-4 918,-65 1130,-65 1130,-4 918,-4"/>
<text text-anchor="start" x="929.5" y="-54" font-family="Times,serif" font-size="10.00">email = &quot;john@doe.ee&quot;</text>
<text text-anchor="start" x="929.5" y="-43" font-family="Times,serif" font-size="10.00">firstName = &quot;John&quot;</text>
<text text-anchor="start" x="929.5" y="-32" font-family="Times,serif" font-size="10.00">id = &quot;e2f7bc4c&#45;ef2a&#45;466e&#45;b8a5&#45;d24f48b13afe&quot;</text>
<text text-anchor="start" x="929.5" y="-21" font-family="Times,serif" font-size="10.00">lastName = &quot;Doe&quot;</text>
<text text-anchor="start" x="929.5" y="-10" font-family="Times,serif" font-size="10.00">password = &quot;pass1234&quot;</text>
</g>
<!-- b&#45;&gt;e2f7bc4c_ef2a_466e_b8a5_d24f48b13afe -->
<g id="edge11" class="edge">
<title>b&#45;&gt;e2f7bc4c_ef2a_466e_b8a5_d24f48b13afe</title>
<path fill="none" stroke="black" d="M1049.04,-265.92C1086.49,-257.16 1117.29,-245.49 1130,-230 1160.44,-192.88 1151.66,-164.83 1130,-122 1123.04,-108.24 1112.38,-96.31 1100.46,-86.21"/>
<text text-anchor="middle" x="1079.96" y="-89.21" font-family="Times,serif" font-size="10.00">customers</text>
<text text-anchor="middle" x="1039.04" y="-257.92" font-family="Times,serif" font-size="10.00">bank</text>
</g>
<!-- 1eaf6f4c_4f92_4e04_bd87_c82be03265de -->
<g id="node11" class="node">
<title>1eaf6f4c_4f92_4e04_bd87_c82be03265de</title>
<polygon fill="none" stroke="black" points="613,-65 613,-82 828,-82 828,-65 613,-65"/>
<text text-anchor="start" x="616" y="-72" font-family="Times,serif" text-decoration="underline" font-size="10.00">1eaf6f4c&#45;4f92&#45;4e04&#45;bd87&#45;c82be03265de :Customer</text>
<polygon fill="none" stroke="black" points="613,-4 613,-65 828,-65 828,-4 613,-4"/>
<text text-anchor="start" x="625" y="-54" font-family="Times,serif" font-size="10.00">email = &quot;bobby@tt.ee&quot;</text>
<text text-anchor="start" x="625" y="-43" font-family="Times,serif" font-size="10.00">firstName = &quot;Bob&quot;</text>
<text text-anchor="start" x="625" y="-32" font-family="Times,serif" font-size="10.00">id = &quot;1eaf6f4c&#45;4f92&#45;4e04&#45;bd87&#45;c82be03265de&quot;</text>
<text text-anchor="start" x="625" y="-21" font-family="Times,serif" font-size="10.00">lastName = &quot;Jackson&quot;</text>
<text text-anchor="start" x="625" y="-10" font-family="Times,serif" font-size="10.00">password = &quot;secret&quot;</text>
</g>
<!-- b&#45;&gt;1eaf6f4c_4f92_4e04_bd87_c82be03265de -->
<g id="edge12" class="edge">
<title>b&#45;&gt;1eaf6f4c_4f92_4e04_bd87_c82be03265de</title>
<path fill="none" stroke="black" d="M829.51,-265.75C838.13,-231.04 848.27,-168.28 825,-122 818.06,-108.2 807.4,-96.23 795.49,-86.09"/>
<text text-anchor="middle" x="774.99" y="-89.09" font-family="Times,serif" font-size="10.00">customers</text>
<text text-anchor="middle" x="819.51" y="-257.75" font-family="Times,serif" font-size="10.00">bank</text>
</g>
<!-- 941fb604_3c51_41c2_a915_94b1c0a2343d -->
<g id="node12" class="node">
<title>941fb604_3c51_41c2_a915_94b1c0a2343d</title>
<polygon fill="none" stroke="black" points="8,-65 8,-82 228,-82 228,-65 8,-65"/>
<text text-anchor="start" x="11" y="-72" font-family="Times,serif" text-decoration="underline" font-size="10.00">941fb604&#45;3c51&#45;41c2&#45;a915&#45;94b1c0a2343d :Customer</text>
<polygon fill="none" stroke="black" points="8,-4 8,-65 228,-65 228,-4 8,-4"/>
<text text-anchor="start" x="20" y="-54" font-family="Times,serif" font-size="10.00">email = &quot;johntest@doe.ee&quot;</text>
<text text-anchor="start" x="20" y="-43" font-family="Times,serif" font-size="10.00">firstName = &quot;johntest&quot;</text>
<text text-anchor="start" x="20" y="-32" font-family="Times,serif" font-size="10.00">id = &quot;941fb604&#45;3c51&#45;41c2&#45;a915&#45;94b1c0a2343d&quot;</text>
<text text-anchor="start" x="20" y="-21" font-family="Times,serif" font-size="10.00">lastName = &quot;Doe&quot;</text>
<text text-anchor="start" x="20" y="-10" font-family="Times,serif" font-size="10.00">password = &quot;pass1234&quot;</text>
</g>
<!-- b&#45;&gt;941fb604_3c51_41c2_a915_94b1c0a2343d -->
<g id="edge13" class="edge">
<title>b&#45;&gt;941fb604_3c51_41c2_a915_94b1c0a2343d</title>
<path fill="none" stroke="black" d="M408.3,-281.86C242.05,-273.62 83.15,-258.33 57,-230 24.45,-194.73 41.36,-167.38 57,-122 61.37,-109.32 68.74,-97.13 76.87,-86.3"/>
<text text-anchor="middle" x="56.37" y="-89.3" font-family="Times,serif" font-size="10.00">customers</text>
<text text-anchor="middle" x="398.3" y="-284.86" font-family="Times,serif" font-size="10.00">bank</text>
</g>
<!-- 158ab5a6_c222_4922_9c9b_894c1ca5e800 -->
<g id="node13" class="node">
<title>158ab5a6_c222_4922_9c9b_894c1ca5e800</title>
<polygon fill="none" stroke="black" points="1219,-65 1219,-82 1438,-82 1438,-65 1219,-65"/>
<text text-anchor="start" x="1222" y="-72" font-family="Times,serif" text-decoration="underline" font-size="10.00">158ab5a6&#45;c222&#45;4922&#45;9c9b&#45;894c1ca5e800 :Customer</text>
<polygon fill="none" stroke="black" points="1219,-4 1219,-65 1438,-65 1438,-4 1219,-4"/>
<text text-anchor="start" x="1230.5" y="-54" font-family="Times,serif" font-size="10.00">email = &quot;bobbytest@tt.ee&quot;</text>
<text text-anchor="start" x="1230.5" y="-43" font-family="Times,serif" font-size="10.00">firstName = &quot;Bob&quot;</text>
<text text-anchor="start" x="1230.5" y="-32" font-family="Times,serif" font-size="10.00">id = &quot;158ab5a6&#45;c222&#45;4922&#45;9c9b&#45;894c1ca5e800&quot;</text>
<text text-anchor="start" x="1230.5" y="-21" font-family="Times,serif" font-size="10.00">lastName = &quot;Jackson&quot;</text>
<text text-anchor="start" x="1230.5" y="-10" font-family="Times,serif" font-size="10.00">password = &quot;secret&quot;</text>
</g>
<!-- b&#45;&gt;158ab5a6_c222_4922_9c9b_894c1ca5e800 -->
<g id="edge14" class="edge">
<title>b&#45;&gt;158ab5a6_c222_4922_9c9b_894c1ca5e800</title>
<path fill="none" stroke="black" d="M1042.87,-265.93C1091.46,-256.85 1134.32,-245.04 1154,-230 1196.33,-197.65 1170.66,-161.86 1206,-122 1217.92,-108.55 1232.7,-96.53 1247.82,-86.19"/>
<text text-anchor="middle" x="1227.32" y="-89.19" font-family="Times,serif" font-size="10.00">customers</text>
<text text-anchor="middle" x="1052.87" y="-257.93" font-family="Times,serif" font-size="10.00">bank</text>
</g>
<!-- 265b9b6b_aede_46c2_9727_b8348133a851&#45;&gt;c -->
<g id="edge15" class="edge">
<title>265b9b6b_aede_46c2_9727_b8348133a851&#45;&gt;c</title>
<path fill="none" stroke="black" d="M1215.33,-138.28C1187.23,-132 1157.8,-126.17 1130,-122 894.32,-86.68 828.93,-131.5 595,-86 569.17,-80.98 541.33,-72.26 518.22,-64.06"/>
<text text-anchor="middle" x="500.72" y="-67.06" font-family="Times,serif" font-size="10.00">currency</text>
</g>
<!-- 265b9b6b_aede_46c2_9727_b8348133a851&#45;&gt;158ab5a6_c222_4922_9c9b_894c1ca5e800 -->
<g id="edge16" class="edge">
<title>265b9b6b_aede_46c2_9727_b8348133a851&#45;&gt;158ab5a6_c222_4922_9c9b_894c1ca5e800</title>
<path fill="none" stroke="black" d="M1344.61,-121.72C1342.1,-109.96 1339.47,-97.66 1337.06,-86.4"/>
<text text-anchor="middle" x="1324.56" y="-89.4" font-family="Times,serif" font-size="10.00">owner</text>
<text text-anchor="middle" x="1328.61" y="-113.72" font-family="Times,serif" font-size="10.00">account</text>
</g>
<!-- 6e125afd_4471_4a4e_92f7_a5ca1347ffd9&#45;&gt;c -->
<g id="edge17" class="edge">
<title>6e125afd_4471_4a4e_92f7_a5ca1347ffd9&#45;&gt;c</title>
<path fill="none" stroke="black" d="M307.02,-121.91C348.82,-101.55 394.03,-79.54 425.69,-64.12"/>
<text text-anchor="middle" x="408.19" y="-67.12" font-family="Times,serif" font-size="10.00">currency</text>
</g>
<!-- 6e125afd_4471_4a4e_92f7_a5ca1347ffd9&#45;&gt;941fb604_3c51_41c2_a915_94b1c0a2343d -->
<g id="edge18" class="edge">
<title>6e125afd_4471_4a4e_92f7_a5ca1347ffd9&#45;&gt;941fb604_3c51_41c2_a915_94b1c0a2343d</title>
<path fill="none" stroke="black" d="M165.46,-121.72C158.28,-109.96 150.77,-97.66 143.89,-86.4"/>
<text text-anchor="middle" x="131.39" y="-89.4" font-family="Times,serif" font-size="10.00">owner</text>
<text text-anchor="middle" x="149.46" y="-113.72" font-family="Times,serif" font-size="10.00">account</text>
</g>
<!-- sendItToTheBank&#45;&gt;c -->
<g id="edge19" class="edge">
<title>sendItToTheBank&#45;&gt;c</title>
<path fill="none" stroke="black" d="M467,-121.72C467,-101.46 467,-79.58 467,-64.22"/>
<text text-anchor="middle" x="484.5" y="-67.22" font-family="Times,serif" font-size="10.00">currency</text>
</g>
<!-- 8a633aa5_907c_4e57_a313_22e0adb2672e&#45;&gt;c -->
<g id="edge20" class="edge">
<title>8a633aa5_907c_4e57_a313_22e0adb2672e&#45;&gt;c</title>
<path fill="none" stroke="black" d="M600.21,-121.91C565.41,-101.55 527.77,-79.54 501.4,-64.12"/>
<text text-anchor="middle" x="518.9" y="-67.12" font-family="Times,serif" font-size="10.00">currency</text>
</g>
<!-- 8a633aa5_907c_4e57_a313_22e0adb2672e&#45;&gt;1eaf6f4c_4f92_4e04_bd87_c82be03265de -->
<g id="edge21" class="edge">
<title>8a633aa5_907c_4e57_a313_22e0adb2672e&#45;&gt;1eaf6f4c_4f92_4e04_bd87_c82be03265de</title>
<path fill="none" stroke="black" d="M702.8,-121.72C705.4,-109.96 708.12,-97.66 710.61,-86.4"/>
<text text-anchor="middle" x="698.11" y="-89.4" font-family="Times,serif" font-size="10.00">owner</text>
<text text-anchor="middle" x="686.8" y="-113.72" font-family="Times,serif" font-size="10.00">account</text>
</g>
<!-- 7ec351d6_652f_4691_8e72_ea432d44a0c8&#45;&gt;c -->
<g id="edge22" class="edge">
<title>7ec351d6_652f_4691_8e72_ea432d44a0c8&#45;&gt;c</title>
<path fill="none" stroke="black" d="M872.63,-134.37C856.69,-129.85 840.53,-125.59 825,-122 724.19,-98.71 695.59,-110.21 595,-86 570.56,-80.12 544.07,-71.77 521.57,-64.06"/>
<text text-anchor="middle" x="539.07" y="-67.06" font-family="Times,serif" font-size="10.00">currency</text>
</g>
<!-- 7ec351d6_652f_4691_8e72_ea432d44a0c8&#45;&gt;e2f7bc4c_ef2a_466e_b8a5_d24f48b13afe -->
<g id="edge23" class="edge">
<title>7ec351d6_652f_4691_8e72_ea432d44a0c8&#45;&gt;e2f7bc4c_ef2a_466e_b8a5_d24f48b13afe</title>
<path fill="none" stroke="black" d="M1007.98,-121.72C1010.41,-109.96 1012.94,-97.66 1015.26,-86.4"/>
<text text-anchor="middle" x="1002.76" y="-89.4" font-family="Times,serif" font-size="10.00">owner</text>
<text text-anchor="middle" x="991.98" y="-113.72" font-family="Times,serif" font-size="10.00">account</text>
</g>
</g>
</svg>
