<?xml version="1.0" encoding="UTF-8" standalone="no"?>
<!DOCTYPE svg PUBLIC "-//W3C//DTD SVG 1.1//EN"
 "http://www.w3.org/Graphics/SVG/1.1/DTD/svg11.dtd">
<!-- Generated by graphviz version 2.49.3 (20211023.0002)
 -->
<!-- Pages: 1 -->
<svg width="984px" height="410px"
 viewBox="0.00 0.00 983.50 410.00" xmlns="http://www.w3.org/2000/svg" xmlns:xlink="http://www.w3.org/1999/xlink">
<g id="graph0" class="graph" transform="scale(1.0 1.0) rotate(0) translate(4 406)">
<polygon fill="white" stroke="transparent" points="-4,4 -4,-406 979.5,-406 979.5,4 -4,4"/>
<!-- b -->
<g id="node1" class="node">
<title>b</title>
<polygon fill="none" stroke="black" points="505,-378 505,-395 543,-395 543,-378 505,-378"/>
<text text-anchor="start" x="508" y="-385" font-family="Times,serif" text-decoration="underline" font-size="10.00">b :Bank</text>
<polygon fill="none" stroke="black" points="505,-372 505,-378 543,-378 543,-372 505,-372"/>
</g>
<!-- 4114e54b_c14e_46b0_ab61_d36a49fa6ecd -->
<g id="node2" class="node">
<title>4114e54b_c14e_46b0_ab61_d36a49fa6ecd</title>
<polygon fill="none" stroke="black" points="8,-292 8,-309 220,-309 220,-292 8,-292"/>
<text text-anchor="start" x="11" y="-299" font-family="Times,serif" text-decoration="underline" font-size="10.00">4114e54b&#45;c14e&#45;46b0&#45;ab61&#45;d36a49fa6ecd :Account</text>
<polygon fill="none" stroke="black" points="8,-264 8,-292 220,-292 220,-264 8,-264"/>
<text text-anchor="start" x="17" y="-281" font-family="Times,serif" font-size="10.00">balance = 69420.0</text>
<text text-anchor="start" x="17" y="-270" font-family="Times,serif" font-size="10.00">id = &quot;4114e54b&#45;c14e&#45;46b0&#45;ab61&#45;d36a49fa6ecd&quot;</text>
</g>
<!-- b&#45;&gt;4114e54b_c14e_46b0_ab61_d36a49fa6ecd -->
<g id="edge1" class="edge">
<title>b&#45;&gt;4114e54b_c14e_46b0_ab61_d36a49fa6ecd</title>
<path fill="none" stroke="black" d="M496.91,-379.12C446.36,-371.62 334.4,-353.73 242,-330 223.76,-325.32 204.34,-319.43 186.28,-313.55"/>
<text text-anchor="middle" x="159.28" y="-316.55" font-family="Times,serif" font-size="10.00">bankAccount</text>
<text text-anchor="middle" x="486.91" y="-371.12" font-family="Times,serif" font-size="10.00">bank</text>
</g>
<!-- 65d705bf_6e86_44b4_8abc_aeabac2d9f44 -->
<g id="node3" class="node">
<title>65d705bf_6e86_44b4_8abc_aeabac2d9f44</title>
<polygon fill="none" stroke="black" points="685,-170 685,-187 896,-187 896,-170 685,-170"/>
<text text-anchor="start" x="688" y="-177" font-family="Times,serif" text-decoration="underline" font-size="10.00">65d705bf&#45;6e86&#45;44b4&#45;8abc&#45;aeabac2d9f44 :Account</text>
<polygon fill="none" stroke="black" points="685,-142 685,-170 896,-170 896,-142 685,-142"/>
<text text-anchor="start" x="694" y="-159" font-family="Times,serif" font-size="10.00">balance = 200.0</text>
<text text-anchor="start" x="694" y="-148" font-family="Times,serif" font-size="10.00">id = &quot;65d705bf&#45;6e86&#45;44b4&#45;8abc&#45;aeabac2d9f44&quot;</text>
</g>
<!-- b&#45;&gt;65d705bf_6e86_44b4_8abc_aeabac2d9f44 -->
<g id="edge2" class="edge">
<title>b&#45;&gt;65d705bf_6e86_44b4_8abc_aeabac2d9f44</title>
<path fill="none" stroke="black" d="M551.01,-381.4C610.37,-377.27 749.31,-364.1 779,-330 812.36,-291.69 804.64,-227.37 796.85,-191.73"/>
<text text-anchor="middle" x="779.35" y="-194.73" font-family="Times,serif" font-size="10.00">accounts</text>
<text text-anchor="middle" x="561.01" y="-373.4" font-family="Times,serif" font-size="10.00">bank</text>
</g>
<!-- aec56833_3b92_4f0a_813a_0e24955c4fc7 -->
<g id="node4" class="node">
<title>aec56833_3b92_4f0a_813a_0e24955c4fc7</title>
<polygon fill="none" stroke="black" points="293,-292 293,-309 504,-309 504,-292 293,-292"/>
<text text-anchor="start" x="296" y="-299" font-family="Times,serif" text-decoration="underline" font-size="10.00">aec56833&#45;3b92&#45;4f0a&#45;813a&#45;0e24955c4fc7 :Account</text>
<polygon fill="none" stroke="black" points="293,-264 293,-292 504,-292 504,-264 293,-264"/>
<text text-anchor="start" x="302" y="-281" font-family="Times,serif" font-size="10.00">balance = 300.0</text>
<text text-anchor="start" x="302" y="-270" font-family="Times,serif" font-size="10.00">id = &quot;aec56833&#45;3b92&#45;4f0a&#45;813a&#45;0e24955c4fc7&quot;</text>
</g>
<!-- b&#45;&gt;aec56833_3b92_4f0a_813a_0e24955c4fc7 -->
<g id="edge3" class="edge">
<title>b&#45;&gt;aec56833_3b92_4f0a_813a_0e24955c4fc7</title>
<path fill="none" stroke="black" d="M501.18,-365.8C481.89,-351.25 453.98,-330.21 432.05,-313.67"/>
<text text-anchor="middle" x="414.55" y="-316.67" font-family="Times,serif" font-size="10.00">accounts</text>
<text text-anchor="middle" x="491.18" y="-357.8" font-family="Times,serif" font-size="10.00">bank</text>
</g>
<!-- ffc8992f_2b99_48a6_aef4_64bc5f906184 -->
<g id="node5" class="node">
<title>ffc8992f_2b99_48a6_aef4_64bc5f906184</title>
<polygon fill="none" stroke="black" points="755,-65 755,-82 968,-82 968,-65 755,-65"/>
<text text-anchor="start" x="758" y="-72" font-family="Times,serif" text-decoration="underline" font-size="10.00">ffc8992f&#45;2b99&#45;48a6&#45;aef4&#45;64bc5f906184 :Customer</text>
<polygon fill="none" stroke="black" points="755,-4 755,-65 968,-65 968,-4 755,-4"/>
<text text-anchor="start" x="767" y="-54" font-family="Times,serif" font-size="10.00">email = &quot;john@doe.ee&quot;</text>
<text text-anchor="start" x="767" y="-43" font-family="Times,serif" font-size="10.00">firstName = &quot;John&quot;</text>
<text text-anchor="start" x="767" y="-32" font-family="Times,serif" font-size="10.00">id = &quot;ffc8992f&#45;2b99&#45;48a6&#45;aef4&#45;64bc5f906184&quot;</text>
<text text-anchor="start" x="767" y="-21" font-family="Times,serif" font-size="10.00">lastName = &quot;Doe&quot;</text>
<text text-anchor="start" x="767" y="-10" font-family="Times,serif" font-size="10.00">password = &quot;pass1234&quot;</text>
</g>
<!-- b&#45;&gt;ffc8992f_2b99_48a6_aef4_64bc5f906184 -->
<g id="edge4" class="edge">
<title>b&#45;&gt;ffc8992f_2b99_48a6_aef4_64bc5f906184</title>
<path fill="none" stroke="black" d="M551.13,-383.55C603.67,-383.44 721.46,-377.42 805,-330 867.98,-294.25 887.33,-275.71 913,-208 926.55,-172.26 924.08,-158.58 913,-122 909.23,-109.54 902.73,-97.25 895.59,-86.24"/>
<text text-anchor="middle" x="875.09" y="-89.24" font-family="Times,serif" font-size="10.00">customers</text>
<text text-anchor="middle" x="561.13" y="-386.55" font-family="Times,serif" font-size="10.00">bank</text>
</g>
<!-- a08862e3_7c53_451f_acaf_601d385f3786 -->
<g id="node6" class="node">
<title>a08862e3_7c53_451f_acaf_601d385f3786</title>
<polygon fill="none" stroke="black" points="150,-187 150,-204 366,-204 366,-187 150,-187"/>
<text text-anchor="start" x="153" y="-194" font-family="Times,serif" text-decoration="underline" font-size="10.00">a08862e3&#45;7c53&#45;451f&#45;acaf&#45;601d385f3786 :Customer</text>
<polygon fill="none" stroke="black" points="150,-126 150,-187 366,-187 366,-126 150,-126"/>
<text text-anchor="start" x="162" y="-176" font-family="Times,serif" font-size="10.00">email = &quot;bobby@tt.ee&quot;</text>
<text text-anchor="start" x="162" y="-165" font-family="Times,serif" font-size="10.00">firstName = &quot;Bob&quot;</text>
<text text-anchor="start" x="162" y="-154" font-family="Times,serif" font-size="10.00">id = &quot;a08862e3&#45;7c53&#45;451f&#45;acaf&#45;601d385f3786&quot;</text>
<text text-anchor="start" x="162" y="-143" font-family="Times,serif" font-size="10.00">lastName = &quot;Jackson&quot;</text>
<text text-anchor="start" x="162" y="-132" font-family="Times,serif" font-size="10.00">password = &quot;secret&quot;</text>
</g>
<!-- b&#45;&gt;a08862e3_7c53_451f_acaf_601d385f3786 -->
<g id="edge5" class="edge">
<title>b&#45;&gt;a08862e3_7c53_451f_acaf_601d385f3786</title>
<path fill="none" stroke="black" d="M496.84,-381.15C438.55,-376.59 304.4,-362.71 275,-330 245.63,-297.32 245.37,-244.87 249.87,-208.1"/>
<text text-anchor="middle" x="229.37" y="-211.1" font-family="Times,serif" font-size="10.00">customers</text>
<text text-anchor="middle" x="486.84" y="-384.15" font-family="Times,serif" font-size="10.00">bank</text>
</g>
<!-- bc2f9f10_cd7d_4684_a489_2eccaa7086e1 -->
<g id="node7" class="node">
<title>bc2f9f10_cd7d_4684_a489_2eccaa7086e1</title>
<polygon fill="none" stroke="black" points="538,-309 538,-326 762,-326 762,-309 538,-309"/>
<text text-anchor="start" x="541" y="-316" font-family="Times,serif" text-decoration="underline" font-size="10.00">bc2f9f10&#45;cd7d&#45;4684&#45;a489&#45;2eccaa7086e1 :Transaction</text>
<polygon fill="none" stroke="black" points="538,-248 538,-309 762,-309 762,-248 538,-248"/>
<text text-anchor="start" x="554" y="-298" font-family="Times,serif" font-size="10.00">amount = 50.0</text>
<text text-anchor="start" x="554" y="-287" font-family="Times,serif" font-size="10.00">description = &quot;Ref: concert ticket&quot;</text>
<text text-anchor="start" x="554" y="-276" font-family="Times,serif" font-size="10.00">id = &quot;bc2f9f10&#45;cd7d&#45;4684&#45;a489&#45;2eccaa7086e1&quot;</text>
<text text-anchor="start" x="554" y="-265" font-family="Times,serif" font-size="10.00">rejectionDescription = &quot;&quot;</text>
<text text-anchor="start" x="554" y="-254" font-family="Times,serif" font-size="10.00">timestamp = 2021&#45;11&#45;27T18:16:06.829140</text>
</g>
<!-- b&#45;&gt;bc2f9f10_cd7d_4684_a489_2eccaa7086e1 -->
<g id="edge6" class="edge">
<title>b&#45;&gt;bc2f9f10_cd7d_4684_a489_2eccaa7086e1</title>
<path fill="none" stroke="black" d="M546.82,-365.8C560.08,-355.8 577.42,-342.72 594.09,-330.16"/>
<text text-anchor="middle" x="570.09" y="-333.16" font-family="Times,serif" font-size="10.00">transactions</text>
<text text-anchor="middle" x="536.82" y="-357.8" font-family="Times,serif" font-size="10.00">bank</text>
</g>
<!-- c -->
<g id="node8" class="node">
<title>c</title>
<polygon fill="none" stroke="black" points="354,-43 354,-60 489,-60 489,-43 354,-43"/>
<text text-anchor="start" x="398" y="-50" font-family="Times,serif" text-decoration="underline" font-size="10.00">c :Currency</text>
<polygon fill="none" stroke="black" points="354,-26 354,-43 489,-43 489,-26 354,-26"/>
<text text-anchor="start" x="357" y="-32" font-family="Times,serif" font-size="10.00">declaringClass = class Currency</text>
</g>
<!-- 4114e54b_c14e_46b0_ab61_d36a49fa6ecd&#45;&gt;c -->
<g id="edge7" class="edge">
<title>4114e54b_c14e_46b0_ab61_d36a49fa6ecd&#45;&gt;c</title>
<path fill="none" stroke="black" d="M108.95,-260.37C103.53,-224.85 99.71,-160.66 133,-122 160.55,-90.01 269.77,-67.13 345.5,-54.74"/>
<text text-anchor="middle" x="328" y="-57.74" font-family="Times,serif" font-size="10.00">currency</text>
</g>
<!-- 65d705bf_6e86_44b4_8abc_aeabac2d9f44&#45;&gt;ffc8992f_2b99_48a6_aef4_64bc5f906184 -->
<g id="edge9" class="edge">
<title>65d705bf_6e86_44b4_8abc_aeabac2d9f44&#45;&gt;ffc8992f_2b99_48a6_aef4_64bc5f906184</title>
<path fill="none" stroke="black" d="M805.23,-138.26C814.2,-123.11 825.75,-103.57 836.02,-86.22"/>
<text text-anchor="middle" x="823.52" y="-89.22" font-family="Times,serif" font-size="10.00">owner</text>
<text text-anchor="middle" x="789.23" y="-130.26" font-family="Times,serif" font-size="10.00">account</text>
</g>
<!-- 65d705bf_6e86_44b4_8abc_aeabac2d9f44&#45;&gt;c -->
<g id="edge8" class="edge">
<title>65d705bf_6e86_44b4_8abc_aeabac2d9f44&#45;&gt;c</title>
<path fill="none" stroke="black" d="M715.94,-138.42C699.83,-132.93 682.86,-127.22 667,-122 605.61,-101.79 535.3,-79.59 485.61,-64.06"/>
<text text-anchor="middle" x="468.11" y="-67.06" font-family="Times,serif" font-size="10.00">currency</text>
</g>
<!-- aec56833_3b92_4f0a_813a_0e24955c4fc7&#45;&gt;a08862e3_7c53_451f_acaf_601d385f3786 -->
<g id="edge11" class="edge">
<title>aec56833_3b92_4f0a_813a_0e24955c4fc7&#45;&gt;a08862e3_7c53_451f_acaf_601d385f3786</title>
<path fill="none" stroke="black" d="M367.97,-260.26C350.29,-245.11 327.5,-225.57 307.26,-208.22"/>
<text text-anchor="middle" x="294.76" y="-211.22" font-family="Times,serif" font-size="10.00">owner</text>
<text text-anchor="middle" x="351.97" y="-252.26" font-family="Times,serif" font-size="10.00">account</text>
</g>
<!-- aec56833_3b92_4f0a_813a_0e24955c4fc7&#45;&gt;c -->
<g id="edge10" class="edge">
<title>aec56833_3b92_4f0a_813a_0e24955c4fc7&#45;&gt;c</title>
<path fill="none" stroke="black" d="M400.46,-260.1C405.07,-211.57 414.93,-107.91 419.08,-64.15"/>
<text text-anchor="middle" x="401.58" y="-67.15" font-family="Times,serif" font-size="10.00">currency</text>
</g>
<!-- bc2f9f10_cd7d_4684_a489_2eccaa7086e1&#45;&gt;65d705bf_6e86_44b4_8abc_aeabac2d9f44 -->
<g id="edge13" class="edge">
<title>bc2f9f10_cd7d_4684_a489_2eccaa7086e1&#45;&gt;65d705bf_6e86_44b4_8abc_aeabac2d9f44</title>
<path fill="none" stroke="black" d="M699.36,-243.69C719.67,-226.28 742.53,-206.69 760.21,-191.54"/>
<text text-anchor="middle" x="746.71" y="-194.54" font-family="Times,serif" font-size="10.00">source</text>
</g>
<!-- bc2f9f10_cd7d_4684_a489_2eccaa7086e1&#45;&gt;c -->
<g id="edge12" class="edge">
<title>bc2f9f10_cd7d_4684_a489_2eccaa7086e1&#45;&gt;c</title>
<path fill="none" stroke="black" d="M529.95,-247.02C498.26,-234.59 469.86,-220.75 459,-208 423.57,-166.39 419.62,-98.06 420.07,-64.25"/>
<text text-anchor="middle" x="437.57" y="-67.25" font-family="Times,serif" font-size="10.00">currency</text>
</g>
<!-- s -->
<g id="node9" class="node">
<title>s</title>
<polygon fill="none" stroke="black" points="476,-165 476,-182 650,-182 650,-165 476,-165"/>
<text text-anchor="start" x="546" y="-172" font-family="Times,serif" text-decoration="underline" font-size="10.00">s :Status</text>
<polygon fill="none" stroke="black" points="476,-148 476,-165 650,-165 650,-148 476,-148"/>
<text text-anchor="start" x="479" y="-154" font-family="Times,serif" font-size="10.00">declaringClass = class Transaction$Status</text>
</g>
<!-- bc2f9f10_cd7d_4684_a489_2eccaa7086e1&#45;&gt;s -->
<g id="edge14" class="edge">
<title>bc2f9f10_cd7d_4684_a489_2eccaa7086e1&#45;&gt;s</title>
<path fill="none" stroke="black" d="M619.33,-243.69C605.14,-224.12 588.95,-201.8 577.58,-186.12"/>
<text text-anchor="middle" x="566.08" y="-189.12" font-family="Times,serif" font-size="10.00">status</text>
</g>
</g>
</svg>
