<?xml version="1.0" encoding="UTF-8" standalone="no"?>
<!DOCTYPE svg PUBLIC "-//W3C//DTD SVG 1.1//EN"
 "http://www.w3.org/Graphics/SVG/1.1/DTD/svg11.dtd">
<!-- Generated by graphviz version 2.43.0 (0)
 -->
<!-- Title: model Pages: 1 -->
<svg width="1764px" height="449px"
 viewBox="0.00 0.00 1763.50 449.00" xmlns="http://www.w3.org/2000/svg" xmlns:xlink="http://www.w3.org/1999/xlink">
<g id="graph0" class="graph" transform="scale(1.0 1.0) rotate(0) translate(4 445)">
<title>model</title>
<polygon fill="white" stroke="transparent" points="-4,4 -4,-445 1759.5,-445 1759.5,4 -4,4"/>
<!-- e03b0459_e5e5_46d2_92b5_4d0f1207bc7e -->
<g id="node1" class="node">
<title>e03b0459_e5e5_46d2_92b5_4d0f1207bc7e</title>
<polygon fill="none" stroke="black" points="815.5,-420 815.5,-437 1049.5,-437 1049.5,-420 815.5,-420"/>
<text text-anchor="start" x="818.5" y="-427" font-family="Times,serif" text-decoration="underline" font-size="10.00">e03b0459&#45;e5e5&#45;46d2&#45;92b5&#45;4d0f1207bc7e :Transaction</text>
<polygon fill="none" stroke="black" points="815.5,-359 815.5,-420 1049.5,-420 1049.5,-359 815.5,-359"/>
<text text-anchor="start" x="832" y="-409" font-family="Times,serif" font-size="10.00">amount = 20.0</text>
<text text-anchor="start" x="832" y="-398" font-family="Times,serif" font-size="10.00">description = &quot;Transaction test&quot;</text>
<text text-anchor="start" x="832" y="-387" font-family="Times,serif" font-size="10.00">id = &quot;e03b0459&#45;e5e5&#45;46d2&#45;92b5&#45;4d0f1207bc7e&quot;</text>
<text text-anchor="start" x="832" y="-376" font-family="Times,serif" font-size="10.00">rejectionDescription = &quot;&quot;</text>
<text text-anchor="start" x="832" y="-365" font-family="Times,serif" font-size="10.00">timestamp = 2021&#45;12&#45;04T18:20:17.154144686</text>
</g>
<!-- b -->
<g id="node2" class="node">
<title>b</title>
<polygon fill="none" stroke="black" points="512.5,-297.5 512.5,-314.5 1353.5,-314.5 1353.5,-297.5 512.5,-297.5"/>
<text text-anchor="start" x="916.5" y="-304.5" font-family="Times,serif" text-decoration="underline" font-size="10.00">b :Bank</text>
<polygon fill="none" stroke="black" points="512.5,-269.5 512.5,-297.5 1353.5,-297.5 1353.5,-269.5 512.5,-269.5"/>
<text text-anchor="start" x="515.5" y="-286.5" font-family="Times,serif" font-size="10.00">accountsMap = 57996473&#45;9ab3&#45;4e0b&#45;8144&#45;4355e3b6b852sendItToTheBank8a633aa5&#45;907c&#45;4e57&#45;a313&#45;22e0adb2672e7ec351d6&#45;652f&#45;4691&#45;8e72&#45;ea432d44a0c8a0bbd6d0&#45;c24d&#45;477c&#45;8f03&#45;c1680bac6492</text>
<text text-anchor="start" x="515.5" y="-275.5" font-family="Times,serif" font-size="10.00">customerMap = e2f7bc4c&#45;ef2a&#45;466e&#45;b8a5&#45;d24f48b13afe9d1f0fd6&#45;fdf6&#45;431d&#45;9f02&#45;edad0491a52d1eaf6f4c&#45;4f92&#45;4e04&#45;bd87&#45;c82be03265defedf788c&#45;d20c&#45;459b&#45;b1ff&#45;4f9d86650f02</text>
</g>
<!-- e03b0459_e5e5_46d2_92b5_4d0f1207bc7e&#45;&gt;b -->
<g id="edge1" class="edge">
<title>e03b0459_e5e5_46d2_92b5_4d0f1207bc7e&#45;&gt;b</title>
<path fill="none" stroke="black" d="M932.5,-354.9C932.5,-342.81 932.5,-330 932.5,-319.22"/>
<text text-anchor="middle" x="922" y="-322.22" font-family="Times,serif" font-size="10.00">bank</text>
</g>
<!-- c -->
<g id="node3" class="node">
<title>c</title>
<polygon fill="none" stroke="black" points="353.5,-43 353.5,-60 517.5,-60 517.5,-43 353.5,-43"/>
<text text-anchor="start" x="411.5" y="-50" font-family="Times,serif" text-decoration="underline" font-size="10.00">c :Currency</text>
<polygon fill="none" stroke="black" points="353.5,-26 353.5,-43 517.5,-43 517.5,-26 353.5,-26"/>
<text text-anchor="start" x="356.5" y="-32" font-family="Times,serif" font-size="10.00">declaringClass = class model.Currency</text>
</g>
<!-- e03b0459_e5e5_46d2_92b5_4d0f1207bc7e&#45;&gt;c -->
<g id="edge2" class="edge">
<title>e03b0459_e5e5_46d2_92b5_4d0f1207bc7e&#45;&gt;c</title>
<path fill="none" stroke="black" d="M807.12,-393.03C586.06,-383 141.83,-348.27 52.5,-230 23.57,-191.7 21.93,-159.01 52.5,-122 79.45,-89.37 198.03,-94.43 239.5,-86 274.11,-78.96 312.09,-70.9 345.32,-63.74"/>
<text text-anchor="middle" x="327.32" y="-66.74" font-family="Times,serif" font-size="10.00">currency</text>
</g>
<!-- a0bbd6d0_c24d_477c_8f03_c1680bac6492 -->
<g id="node4" class="node">
<title>a0bbd6d0_c24d_477c_8f03_c1680bac6492</title>
<polygon fill="none" stroke="black" points="1473.5,-209 1473.5,-226 1747.5,-226 1747.5,-209 1473.5,-209"/>
<text text-anchor="start" x="1503.5" y="-216" font-family="Times,serif" text-decoration="underline" font-size="10.00">a0bbd6d0&#45;c24d&#45;477c&#45;8f03&#45;c1680bac6492 :Account</text>
<polygon fill="none" stroke="black" points="1473.5,-126 1473.5,-209 1747.5,-209 1747.5,-126 1473.5,-126"/>
<text text-anchor="start" x="1476.5" y="-198" font-family="Times,serif" font-size="10.00">balance = 20.0</text>
<text text-anchor="start" x="1476.5" y="-187" font-family="Times,serif" font-size="10.00">customerId = null</text>
<text text-anchor="start" x="1476.5" y="-176" font-family="Times,serif" font-size="10.00">iban = &quot;EE985248314441479166&quot;</text>
<text text-anchor="start" x="1476.5" y="-165" font-family="Times,serif" font-size="10.00">id = &quot;a0bbd6d0&#45;c24d&#45;477c&#45;8f03&#45;c1680bac6492&quot;</text>
<text text-anchor="start" x="1476.5" y="-154" font-family="Times,serif" font-size="10.00">receivedTransaction = e03b0459&#45;e5e5&#45;46d2&#45;92b5&#45;4d0f1207bc7e</text>
<text text-anchor="start" x="1476.5" y="-143" font-family="Times,serif" font-size="10.00">sentTransaction = </text>
<text text-anchor="start" x="1476.5" y="-132" font-family="Times,serif" font-size="10.00">status = &quot;ACTIVE&quot;</text>
</g>
<!-- e03b0459_e5e5_46d2_92b5_4d0f1207bc7e&#45;&gt;a0bbd6d0_c24d_477c_8f03_c1680bac6492 -->
<g id="edge3" class="edge">
<title>e03b0459_e5e5_46d2_92b5_4d0f1207bc7e&#45;&gt;a0bbd6d0_c24d_477c_8f03_c1680bac6492</title>
<path fill="none" stroke="black" d="M1057.61,-385.07C1167.83,-372.7 1318.54,-350.7 1369.5,-319 1394.33,-303.55 1385.68,-284.29 1408.5,-266 1425.62,-252.28 1445.18,-240.24 1465.24,-229.82"/>
<text text-anchor="middle" x="1442.24" y="-232.82" font-family="Times,serif" font-size="10.00">destination</text>
<text text-anchor="middle" x="1115.61" y="-388.07" font-family="Times,serif" font-size="10.00">allTransactionsOrderedDesc</text>
</g>
<!-- 57996473_9ab3_4e0b_8144_4355e3b6b852 -->
<g id="node5" class="node">
<title>57996473_9ab3_4e0b_8144_4355e3b6b852</title>
<polygon fill="none" stroke="black" points="69.5,-209 69.5,-226 325.5,-226 325.5,-209 69.5,-209"/>
<text text-anchor="start" x="88" y="-216" font-family="Times,serif" text-decoration="underline" font-size="10.00">57996473&#45;9ab3&#45;4e0b&#45;8144&#45;4355e3b6b852 :Account</text>
<polygon fill="none" stroke="black" points="69.5,-126 69.5,-209 325.5,-209 325.5,-126 69.5,-126"/>
<text text-anchor="start" x="72.5" y="-198" font-family="Times,serif" font-size="10.00">balance = 1.0</text>
<text text-anchor="start" x="72.5" y="-187" font-family="Times,serif" font-size="10.00">customerId = null</text>
<text text-anchor="start" x="72.5" y="-176" font-family="Times,serif" font-size="10.00">iban = &quot;EE370380066102701188&quot;</text>
<text text-anchor="start" x="72.5" y="-165" font-family="Times,serif" font-size="10.00">id = &quot;57996473&#45;9ab3&#45;4e0b&#45;8144&#45;4355e3b6b852&quot;</text>
<text text-anchor="start" x="72.5" y="-154" font-family="Times,serif" font-size="10.00">receivedTransaction = </text>
<text text-anchor="start" x="72.5" y="-143" font-family="Times,serif" font-size="10.00">sentTransaction = e03b0459&#45;e5e5&#45;46d2&#45;92b5&#45;4d0f1207bc7e</text>
<text text-anchor="start" x="72.5" y="-132" font-family="Times,serif" font-size="10.00">status = &quot;ACTIVE&quot;</text>
</g>
<!-- e03b0459_e5e5_46d2_92b5_4d0f1207bc7e&#45;&gt;57996473_9ab3_4e0b_8144_4355e3b6b852 -->
<g id="edge4" class="edge">
<title>e03b0459_e5e5_46d2_92b5_4d0f1207bc7e&#45;&gt;57996473_9ab3_4e0b_8144_4355e3b6b852</title>
<path fill="none" stroke="black" d="M807.14,-383.8C718.35,-372.25 597.26,-352.04 494.5,-319 424.04,-296.34 348.87,-260.27 291.78,-230.16"/>
<text text-anchor="middle" x="278.28" y="-233.16" font-family="Times,serif" font-size="10.00">source</text>
<text text-anchor="middle" x="749.14" y="-386.8" font-family="Times,serif" font-size="10.00">allTransactionsOrderedDesc</text>
</g>
<!-- s -->
<g id="node6" class="node">
<title>s</title>
<polygon fill="none" stroke="black" points="1425.5,-292.5 1425.5,-309.5 1630.5,-309.5 1630.5,-292.5 1425.5,-292.5"/>
<text text-anchor="start" x="1511" y="-299.5" font-family="Times,serif" text-decoration="underline" font-size="10.00">s :Status</text>
<polygon fill="none" stroke="black" points="1425.5,-275.5 1425.5,-292.5 1630.5,-292.5 1630.5,-275.5 1425.5,-275.5"/>
<text text-anchor="start" x="1428.5" y="-281.5" font-family="Times,serif" font-size="10.00">declaringClass = class model.Transaction$Status</text>
</g>
<!-- e03b0459_e5e5_46d2_92b5_4d0f1207bc7e&#45;&gt;s -->
<g id="edge5" class="edge">
<title>e03b0459_e5e5_46d2_92b5_4d0f1207bc7e&#45;&gt;s</title>
<path fill="none" stroke="black" d="M1057.9,-377.47C1152.7,-362.4 1285.99,-340.54 1402.5,-319 1411.76,-317.29 1421.38,-315.44 1431.01,-313.55"/>
<text text-anchor="middle" x="1419.01" y="-316.55" font-family="Times,serif" font-size="10.00">status</text>
</g>
<!-- b&#45;&gt;a0bbd6d0_c24d_477c_8f03_c1680bac6492 -->
<g id="edge10" class="edge">
<title>b&#45;&gt;a0bbd6d0_c24d_477c_8f03_c1680bac6492</title>
<path fill="none" stroke="black" d="M1236.48,-265.99C1307.51,-257.14 1382.54,-245.41 1451.5,-230 1456.04,-228.98 1460.64,-227.89 1465.27,-226.73"/>
<text text-anchor="middle" x="1446.77" y="-218.73" font-family="Times,serif" font-size="10.00">accounts</text>
<text text-anchor="middle" x="1246.98" y="-257.99" font-family="Times,serif" font-size="10.00">bank</text>
</g>
<!-- b&#45;&gt;57996473_9ab3_4e0b_8144_4355e3b6b852 -->
<g id="edge9" class="edge">
<title>b&#45;&gt;57996473_9ab3_4e0b_8144_4355e3b6b852</title>
<path fill="none" stroke="black" d="M553.7,-265.99C482.99,-257.29 410.1,-245.63 342.5,-230 339.63,-229.34 336.73,-228.63 333.83,-227.89"/>
<text text-anchor="middle" x="352.33" y="-230.89" font-family="Times,serif" font-size="10.00">accounts</text>
<text text-anchor="middle" x="543.2" y="-257.99" font-family="Times,serif" font-size="10.00">bank</text>
</g>
<!-- sendItToTheBank -->
<g id="node7" class="node">
<title>sendItToTheBank</title>
<polygon fill="none" stroke="black" points="360.5,-209 360.5,-226 509.5,-226 509.5,-209 360.5,-209"/>
<text text-anchor="start" x="378" y="-216" font-family="Times,serif" text-decoration="underline" font-size="10.00">sendItToTheBank :Account</text>
<polygon fill="none" stroke="black" points="360.5,-126 360.5,-209 509.5,-209 509.5,-126 360.5,-126"/>
<text text-anchor="start" x="363.5" y="-198" font-family="Times,serif" font-size="10.00">balance = 69420.0</text>
<text text-anchor="start" x="363.5" y="-187" font-family="Times,serif" font-size="10.00">customerId = null</text>
<text text-anchor="start" x="363.5" y="-176" font-family="Times,serif" font-size="10.00">iban = &quot;EE836752021045737521&quot;</text>
<text text-anchor="start" x="363.5" y="-165" font-family="Times,serif" font-size="10.00">id = &quot;sendItToTheBank&quot;</text>
<text text-anchor="start" x="363.5" y="-154" font-family="Times,serif" font-size="10.00">receivedTransaction = </text>
<text text-anchor="start" x="363.5" y="-143" font-family="Times,serif" font-size="10.00">sentTransaction = </text>
<text text-anchor="start" x="363.5" y="-132" font-family="Times,serif" font-size="10.00">status = &quot;ACTIVE&quot;</text>
</g>
<!-- b&#45;&gt;sendItToTheBank -->
<g id="edge6" class="edge">
<title>b&#45;&gt;sendItToTheBank</title>
<path fill="none" stroke="black" d="M667.75,-265.98C619.96,-257.28 571.17,-245.62 526.5,-230 523.37,-228.9 520.22,-227.7 517.08,-226.41"/>
<text text-anchor="middle" x="545.08" y="-229.41" font-family="Times,serif" font-size="10.00">bankAccount</text>
<text text-anchor="middle" x="657.25" y="-257.98" font-family="Times,serif" font-size="10.00">bank</text>
</g>
<!-- 8a633aa5_907c_4e57_a313_22e0adb2672e -->
<g id="node8" class="node">
<title>8a633aa5_907c_4e57_a313_22e0adb2672e</title>
<polygon fill="none" stroke="black" points="1125.5,-209 1125.5,-226 1363.5,-226 1363.5,-209 1125.5,-209"/>
<text text-anchor="start" x="1137.5" y="-216" font-family="Times,serif" text-decoration="underline" font-size="10.00">8a633aa5&#45;907c&#45;4e57&#45;a313&#45;22e0adb2672e :Account</text>
<polygon fill="none" stroke="black" points="1125.5,-126 1125.5,-209 1363.5,-209 1363.5,-126 1125.5,-126"/>
<text text-anchor="start" x="1128.5" y="-198" font-family="Times,serif" font-size="10.00">balance = 0.0</text>
<text text-anchor="start" x="1128.5" y="-187" font-family="Times,serif" font-size="10.00">customerId = &quot;1eaf6f4c&#45;4f92&#45;4e04&#45;bd87&#45;c82be03265de&quot;</text>
<text text-anchor="start" x="1128.5" y="-176" font-family="Times,serif" font-size="10.00">iban = null</text>
<text text-anchor="start" x="1128.5" y="-165" font-family="Times,serif" font-size="10.00">id = &quot;8a633aa5&#45;907c&#45;4e57&#45;a313&#45;22e0adb2672e&quot;</text>
<text text-anchor="start" x="1128.5" y="-154" font-family="Times,serif" font-size="10.00">receivedTransaction = </text>
<text text-anchor="start" x="1128.5" y="-143" font-family="Times,serif" font-size="10.00">sentTransaction = </text>
<text text-anchor="start" x="1128.5" y="-132" font-family="Times,serif" font-size="10.00">status = &quot;ACTIVE&quot;</text>
</g>
<!-- b&#45;&gt;8a633aa5_907c_4e57_a313_22e0adb2672e -->
<g id="edge7" class="edge">
<title>b&#45;&gt;8a633aa5_907c_4e57_a313_22e0adb2672e</title>
<path fill="none" stroke="black" d="M1004.13,-265.99C1034.78,-255.02 1070.93,-241.98 1103.5,-230 1108.04,-228.33 1112.66,-226.62 1117.33,-224.9"/>
<text text-anchor="middle" x="1098.83" y="-227.9" font-family="Times,serif" font-size="10.00">accounts</text>
<text text-anchor="middle" x="993.63" y="-257.99" font-family="Times,serif" font-size="10.00">bank</text>
</g>
<!-- 7ec351d6_652f_4691_8e72_ea432d44a0c8 -->
<g id="node9" class="node">
<title>7ec351d6_652f_4691_8e72_ea432d44a0c8</title>
<polygon fill="none" stroke="black" points="543.5,-209 543.5,-226 777.5,-226 777.5,-209 543.5,-209"/>
<text text-anchor="start" x="553.5" y="-216" font-family="Times,serif" text-decoration="underline" font-size="10.00">7ec351d6&#45;652f&#45;4691&#45;8e72&#45;ea432d44a0c8 :Account</text>
<polygon fill="none" stroke="black" points="543.5,-126 543.5,-209 777.5,-209 777.5,-126 543.5,-126"/>
<text text-anchor="start" x="546.5" y="-198" font-family="Times,serif" font-size="10.00">balance = 100.0</text>
<text text-anchor="start" x="546.5" y="-187" font-family="Times,serif" font-size="10.00">customerId = &quot;e2f7bc4c&#45;ef2a&#45;466e&#45;b8a5&#45;d24f48b13afe&quot;</text>
<text text-anchor="start" x="546.5" y="-176" font-family="Times,serif" font-size="10.00">iban = null</text>
<text text-anchor="start" x="546.5" y="-165" font-family="Times,serif" font-size="10.00">id = &quot;7ec351d6&#45;652f&#45;4691&#45;8e72&#45;ea432d44a0c8&quot;</text>
<text text-anchor="start" x="546.5" y="-154" font-family="Times,serif" font-size="10.00">receivedTransaction = </text>
<text text-anchor="start" x="546.5" y="-143" font-family="Times,serif" font-size="10.00">sentTransaction = </text>
<text text-anchor="start" x="546.5" y="-132" font-family="Times,serif" font-size="10.00">status = &quot;ACTIVE&quot;</text>
</g>
<!-- b&#45;&gt;7ec351d6_652f_4691_8e72_ea432d44a0c8 -->
<g id="edge8" class="edge">
<title>b&#45;&gt;7ec351d6_652f_4691_8e72_ea432d44a0c8</title>
<path fill="none" stroke="black" d="M871.8,-265.95C846.28,-255.2 815.59,-242.29 785.61,-229.67"/>
<text text-anchor="middle" x="804.11" y="-232.67" font-family="Times,serif" font-size="10.00">accounts</text>
<text text-anchor="middle" x="861.3" y="-257.95" font-family="Times,serif" font-size="10.00">bank</text>
</g>
<!-- 964013d9_557e_4aee_8efd_e315504179e0 -->
<g id="node10" class="node">
<title>964013d9_557e_4aee_8efd_e315504179e0</title>
<polygon fill="none" stroke="black" points="812.5,-198 812.5,-215 1053.5,-215 1053.5,-198 812.5,-198"/>
<text text-anchor="start" x="815.5" y="-205" font-family="Times,serif" text-decoration="underline" font-size="10.00">964013d9&#45;557e&#45;4aee&#45;8efd&#45;e315504179e0 :Administrator</text>
<polygon fill="none" stroke="black" points="812.5,-137 812.5,-198 1053.5,-198 1053.5,-137 812.5,-137"/>
<text text-anchor="start" x="833.5" y="-187" font-family="Times,serif" font-size="10.00">email = &quot;admin@bank.ee&quot;</text>
<text text-anchor="start" x="833.5" y="-176" font-family="Times,serif" font-size="10.00">firstName = &quot;Admin&quot;</text>
<text text-anchor="start" x="833.5" y="-165" font-family="Times,serif" font-size="10.00">id = &quot;964013d9&#45;557e&#45;4aee&#45;8efd&#45;e315504179e0&quot;</text>
<text text-anchor="start" x="833.5" y="-154" font-family="Times,serif" font-size="10.00">lastName = &quot;ALice&quot;</text>
<text text-anchor="start" x="833.5" y="-143" font-family="Times,serif" font-size="10.00">password = &quot;secure_p@ssw0|2d&quot;</text>
</g>
<!-- b&#45;&gt;964013d9_557e_4aee_8efd_e315504179e0 -->
<g id="edge11" class="edge">
<title>b&#45;&gt;964013d9_557e_4aee_8efd_e315504179e0</title>
<path fill="none" stroke="black" d="M932.5,-265.8C932.5,-252.09 932.5,-234.86 932.5,-219.24"/>
<text text-anchor="middle" x="903.5" y="-222.24" font-family="Times,serif" font-size="10.00">administrators</text>
<text text-anchor="middle" x="922" y="-257.8" font-family="Times,serif" font-size="10.00">bank</text>
</g>
<!-- e2f7bc4c_ef2a_466e_b8a5_d24f48b13afe -->
<g id="node11" class="node">
<title>e2f7bc4c_ef2a_466e_b8a5_d24f48b13afe</title>
<polygon fill="none" stroke="black" points="733.5,-65 733.5,-82 948.5,-82 948.5,-65 733.5,-65"/>
<text text-anchor="start" x="736.5" y="-72" font-family="Times,serif" text-decoration="underline" font-size="10.00">e2f7bc4c&#45;ef2a&#45;466e&#45;b8a5&#45;d24f48b13afe :Customer</text>
<polygon fill="none" stroke="black" points="733.5,-4 733.5,-65 948.5,-65 948.5,-4 733.5,-4"/>
<text text-anchor="start" x="745.5" y="-54" font-family="Times,serif" font-size="10.00">email = &quot;john@doe.ee&quot;</text>
<text text-anchor="start" x="745.5" y="-43" font-family="Times,serif" font-size="10.00">firstName = &quot;John&quot;</text>
<text text-anchor="start" x="745.5" y="-32" font-family="Times,serif" font-size="10.00">id = &quot;e2f7bc4c&#45;ef2a&#45;466e&#45;b8a5&#45;d24f48b13afe&quot;</text>
<text text-anchor="start" x="745.5" y="-21" font-family="Times,serif" font-size="10.00">lastName = &quot;Doe&quot;</text>
<text text-anchor="start" x="745.5" y="-10" font-family="Times,serif" font-size="10.00">password = &quot;pass1234&quot;</text>
</g>
<!-- b&#45;&gt;e2f7bc4c_ef2a_466e_b8a5_d24f48b13afe -->
<g id="edge12" class="edge">
<title>b&#45;&gt;e2f7bc4c_ef2a_466e_b8a5_d24f48b13afe</title>
<path fill="none" stroke="black" d="M1027.97,-265.91C1044.43,-257.19 1059.44,-245.54 1069.5,-230 1095.58,-189.7 1097.44,-161.03 1069.5,-122 1043.28,-85.37 998.84,-65.74 956.04,-55.3"/>
<text text-anchor="middle" x="976.54" y="-58.3" font-family="Times,serif" font-size="10.00">customers</text>
<text text-anchor="middle" x="1017.47" y="-257.91" font-family="Times,serif" font-size="10.00">bank</text>
</g>
<!-- 1eaf6f4c_4f92_4e04_bd87_c82be03265de -->
<g id="node12" class="node">
<title>1eaf6f4c_4f92_4e04_bd87_c82be03265de</title>
<polygon fill="none" stroke="black" points="1163.5,-65 1163.5,-82 1382.5,-82 1382.5,-65 1163.5,-65"/>
<text text-anchor="start" x="1166.5" y="-72" font-family="Times,serif" text-decoration="underline" font-size="10.00">1eaf6f4c&#45;4f92&#45;4e04&#45;bd87&#45;c82be03265de :Customer</text>
<polygon fill="none" stroke="black" points="1163.5,-4 1163.5,-65 1382.5,-65 1382.5,-4 1163.5,-4"/>
<text text-anchor="start" x="1175.5" y="-54" font-family="Times,serif" font-size="10.00">email = &quot;bobby@tt.ee&quot;</text>
<text text-anchor="start" x="1175.5" y="-43" font-family="Times,serif" font-size="10.00">firstName = &quot;Bob&quot;</text>
<text text-anchor="start" x="1175.5" y="-32" font-family="Times,serif" font-size="10.00">id = &quot;1eaf6f4c&#45;4f92&#45;4e04&#45;bd87&#45;c82be03265de&quot;</text>
<text text-anchor="start" x="1175.5" y="-21" font-family="Times,serif" font-size="10.00">lastName = &quot;Jackson&quot;</text>
<text text-anchor="start" x="1175.5" y="-10" font-family="Times,serif" font-size="10.00">password = &quot;secret&quot;</text>
</g>
<!-- b&#45;&gt;1eaf6f4c_4f92_4e04_bd87_c82be03265de -->
<g id="edge13" class="edge">
<title>b&#45;&gt;1eaf6f4c_4f92_4e04_bd87_c82be03265de</title>
<path fill="none" stroke="black" d="M1225.15,-265.99C1302.54,-256.3 1368.16,-244.14 1380.5,-230 1412.05,-193.82 1402.35,-164.74 1380.5,-122 1373.45,-108.2 1362.69,-96.28 1350.64,-86.21"/>
<text text-anchor="middle" x="1330.14" y="-89.21" font-family="Times,serif" font-size="10.00">customers</text>
<text text-anchor="middle" x="1214.65" y="-257.99" font-family="Times,serif" font-size="10.00">bank</text>
</g>
<!-- fedf788c_d20c_459b_b1ff_4f9d86650f02 -->
<g id="node13" class="node">
<title>fedf788c_d20c_459b_b1ff_4f9d86650f02</title>
<polygon fill="none" stroke="black" points="8.5,-65 8.5,-82 223.5,-82 223.5,-65 8.5,-65"/>
<text text-anchor="start" x="11.5" y="-72" font-family="Times,serif" text-decoration="underline" font-size="10.00">fedf788c&#45;d20c&#45;459b&#45;b1ff&#45;4f9d86650f02 :Customer</text>
<polygon fill="none" stroke="black" points="8.5,-4 8.5,-65 223.5,-65 223.5,-4 8.5,-4"/>
<text text-anchor="start" x="20.5" y="-54" font-family="Times,serif" font-size="10.00">email = &quot;bobbytest@tt.ee&quot;</text>
<text text-anchor="start" x="20.5" y="-43" font-family="Times,serif" font-size="10.00">firstName = &quot;Bob&quot;</text>
<text text-anchor="start" x="20.5" y="-32" font-family="Times,serif" font-size="10.00">id = &quot;fedf788c&#45;d20c&#45;459b&#45;b1ff&#45;4f9d86650f02&quot;</text>
<text text-anchor="start" x="20.5" y="-21" font-family="Times,serif" font-size="10.00">lastName = &quot;Jackson&quot;</text>
<text text-anchor="start" x="20.5" y="-10" font-family="Times,serif" font-size="10.00">password = &quot;secret&quot;</text>
</g>
<!-- b&#45;&gt;fedf788c_d20c_459b_b1ff_4f9d86650f02 -->
<g id="edge14" class="edge">
<title>b&#45;&gt;fedf788c_d20c_459b_b1ff_4f9d86650f02</title>
<path fill="none" stroke="black" d="M503.92,-287.21C296.56,-280.55 85.21,-265.07 52.5,-230 19.76,-194.9 36.51,-167.26 52.5,-122 57.02,-109.2 64.64,-96.96 73.04,-86.12"/>
<text text-anchor="middle" x="52.54" y="-89.12" font-family="Times,serif" font-size="10.00">customers</text>
<text text-anchor="middle" x="493.42" y="-290.21" font-family="Times,serif" font-size="10.00">bank</text>
</g>
<!-- 9d1f0fd6_fdf6_431d_9f02_edad0491a52d -->
<g id="node14" class="node">
<title>9d1f0fd6_fdf6_431d_9f02_edad0491a52d</title>
<polygon fill="none" stroke="black" points="1473.5,-65 1473.5,-82 1690.5,-82 1690.5,-65 1473.5,-65"/>
<text text-anchor="start" x="1476.5" y="-72" font-family="Times,serif" text-decoration="underline" font-size="10.00">9d1f0fd6&#45;fdf6&#45;431d&#45;9f02&#45;edad0491a52d :Customer</text>
<polygon fill="none" stroke="black" points="1473.5,-4 1473.5,-65 1690.5,-65 1690.5,-4 1473.5,-4"/>
<text text-anchor="start" x="1485.5" y="-54" font-family="Times,serif" font-size="10.00">email = &quot;johntest@doe.ee&quot;</text>
<text text-anchor="start" x="1485.5" y="-43" font-family="Times,serif" font-size="10.00">firstName = &quot;johntest&quot;</text>
<text text-anchor="start" x="1485.5" y="-32" font-family="Times,serif" font-size="10.00">id = &quot;9d1f0fd6&#45;fdf6&#45;431d&#45;9f02&#45;edad0491a52d&quot;</text>
<text text-anchor="start" x="1485.5" y="-21" font-family="Times,serif" font-size="10.00">lastName = &quot;Doe&quot;</text>
<text text-anchor="start" x="1485.5" y="-10" font-family="Times,serif" font-size="10.00">password = &quot;pass1234&quot;</text>
</g>
<!-- b&#45;&gt;9d1f0fd6_fdf6_431d_9f02_edad0491a52d -->
<g id="edge15" class="edge">
<title>b&#45;&gt;9d1f0fd6_fdf6_431d_9f02_edad0491a52d</title>
<path fill="none" stroke="black" d="M1295.16,-265.99C1343.65,-257.29 1384.04,-245.63 1405.5,-230 1448.41,-198.75 1421.22,-161.66 1456.5,-122 1468.57,-108.43 1483.56,-96.39 1498.92,-86.07"/>
<text text-anchor="middle" x="1478.42" y="-89.07" font-family="Times,serif" font-size="10.00">customers</text>
<text text-anchor="middle" x="1284.66" y="-257.99" font-family="Times,serif" font-size="10.00">bank</text>
</g>
<!-- a0bbd6d0_c24d_477c_8f03_c1680bac6492&#45;&gt;c -->
<g id="edge16" class="edge">
<title>a0bbd6d0_c24d_477c_8f03_c1680bac6492&#45;&gt;c</title>
<path fill="none" stroke="black" d="M1465.2,-137.54C1437.25,-131.46 1408.09,-125.9 1380.5,-122 1087.42,-80.61 1009.97,-115.99 715.5,-86 651.81,-79.51 580.44,-68.76 525.7,-59.75"/>
<text text-anchor="middle" x="543.7" y="-62.75" font-family="Times,serif" font-size="10.00">currency</text>
</g>
<!-- a0bbd6d0_c24d_477c_8f03_c1680bac6492&#45;&gt;9d1f0fd6_fdf6_431d_9f02_edad0491a52d -->
<g id="edge17" class="edge">
<title>a0bbd6d0_c24d_477c_8f03_c1680bac6492&#45;&gt;9d1f0fd6_fdf6_431d_9f02_edad0491a52d</title>
<path fill="none" stroke="black" d="M1598.7,-121.72C1596.1,-109.96 1593.38,-97.66 1590.89,-86.4"/>
<text text-anchor="middle" x="1577.89" y="-89.4" font-family="Times,serif" font-size="10.00">owner</text>
<text text-anchor="middle" x="1582.2" y="-113.72" font-family="Times,serif" font-size="10.00">account</text>
</g>
<!-- 57996473_9ab3_4e0b_8144_4355e3b6b852&#45;&gt;c -->
<g id="edge18" class="edge">
<title>57996473_9ab3_4e0b_8144_4355e3b6b852&#45;&gt;c</title>
<path fill="none" stroke="black" d="M293.96,-121.91C330.94,-101.55 370.94,-79.54 398.95,-64.12"/>
<text text-anchor="middle" x="380.95" y="-67.12" font-family="Times,serif" font-size="10.00">currency</text>
</g>
<!-- 57996473_9ab3_4e0b_8144_4355e3b6b852&#45;&gt;fedf788c_d20c_459b_b1ff_4f9d86650f02 -->
<g id="edge19" class="edge">
<title>57996473_9ab3_4e0b_8144_4355e3b6b852&#45;&gt;fedf788c_d20c_459b_b1ff_4f9d86650f02</title>
<path fill="none" stroke="black" d="M164.15,-121.72C156.79,-109.96 149.09,-97.66 142.04,-86.4"/>
<text text-anchor="middle" x="129.04" y="-89.4" font-family="Times,serif" font-size="10.00">owner</text>
<text text-anchor="middle" x="147.65" y="-113.72" font-family="Times,serif" font-size="10.00">account</text>
</g>
<!-- sendItToTheBank&#45;&gt;c -->
<g id="edge20" class="edge">
<title>sendItToTheBank&#45;&gt;c</title>
<path fill="none" stroke="black" d="M434.91,-121.72C435.06,-101.46 435.23,-79.58 435.35,-64.22"/>
<text text-anchor="middle" x="417.35" y="-67.22" font-family="Times,serif" font-size="10.00">currency</text>
</g>
<!-- 8a633aa5_907c_4e57_a313_22e0adb2672e&#45;&gt;c -->
<g id="edge21" class="edge">
<title>8a633aa5_907c_4e57_a313_22e0adb2672e&#45;&gt;c</title>
<path fill="none" stroke="black" d="M1117.15,-133.33C1101.22,-129.04 1085.06,-125.12 1069.5,-122 914.44,-90.94 872.41,-105.74 715.5,-86 651.85,-77.99 580.34,-67.24 525.51,-58.61"/>
<text text-anchor="middle" x="543.51" y="-50.61" font-family="Times,serif" font-size="10.00">currency</text>
</g>
<!-- 8a633aa5_907c_4e57_a313_22e0adb2672e&#45;&gt;1eaf6f4c_4f92_4e04_bd87_c82be03265de -->
<g id="edge22" class="edge">
<title>8a633aa5_907c_4e57_a313_22e0adb2672e&#45;&gt;1eaf6f4c_4f92_4e04_bd87_c82be03265de</title>
<path fill="none" stroke="black" d="M1255.89,-121.72C1258.4,-109.96 1261.03,-97.66 1263.44,-86.4"/>
<text text-anchor="middle" x="1250.44" y="-89.4" font-family="Times,serif" font-size="10.00">owner</text>
<text text-anchor="middle" x="1239.39" y="-113.72" font-family="Times,serif" font-size="10.00">account</text>
</g>
<!-- 7ec351d6_652f_4691_8e72_ea432d44a0c8&#45;&gt;c -->
<g id="edge23" class="edge">
<title>7ec351d6_652f_4691_8e72_ea432d44a0c8&#45;&gt;c</title>
<path fill="none" stroke="black" d="M569.31,-121.91C534.35,-101.55 496.54,-79.54 470.06,-64.12"/>
<text text-anchor="middle" x="488.06" y="-67.12" font-family="Times,serif" font-size="10.00">currency</text>
</g>
<!-- 7ec351d6_652f_4691_8e72_ea432d44a0c8&#45;&gt;e2f7bc4c_ef2a_466e_b8a5_d24f48b13afe -->
<g id="edge24" class="edge">
<title>7ec351d6_652f_4691_8e72_ea432d44a0c8&#45;&gt;e2f7bc4c_ef2a_466e_b8a5_d24f48b13afe</title>
<path fill="none" stroke="black" d="M733.45,-121.91C749.83,-109.99 766.98,-97.51 782.64,-86.11"/>
<text text-anchor="middle" x="769.64" y="-89.11" font-family="Times,serif" font-size="10.00">owner</text>
<text text-anchor="middle" x="716.95" y="-113.91" font-family="Times,serif" font-size="10.00">account</text>
</g>
</g>
</svg>
