<?xml version="1.0" encoding="UTF-8" standalone="no"?>
<!DOCTYPE svg PUBLIC "-//W3C//DTD SVG 1.1//EN"
 "http://www.w3.org/Graphics/SVG/1.1/DTD/svg11.dtd">
<!-- Generated by graphviz version 2.44.0 (20200408.0750)
 -->
<!-- Title: model Pages: 1 -->
<svg width="1611px" height="496px"
 viewBox="0.00 0.00 1610.66 496.00" xmlns="http://www.w3.org/2000/svg" xmlns:xlink="http://www.w3.org/1999/xlink">
<g id="graph0" class="graph" transform="scale(1.0 1.0) rotate(0) translate(4 492)">
<title>model</title>
<polygon fill="white" stroke="transparent" points="-4,4 -4,-492 1606.66,-492 1606.66,4 -4,4"/>
<!-- 16d10d4b_b29e_422b_b880_9142b0c0d7c7 -->
<g id="node1" class="node">
<title>16d10d4b_b29e_422b_b880_9142b0c0d7c7</title>
<polygon fill="none" stroke="black" points="1334.5,-466 1334.5,-484 1564.5,-484 1564.5,-466 1334.5,-466"/>
<text text-anchor="start" x="1337.44" y="-473" font-family="Times,serif" text-decoration="underline" font-size="10.00">16d10d4b&#45;b29e&#45;422b&#45;b880&#45;9142b0c0d7c7 :Transaction</text>
<polygon fill="none" stroke="black" points="1334.5,-400 1334.5,-466 1564.5,-466 1564.5,-400 1334.5,-400"/>
<text text-anchor="start" x="1350.4" y="-454" font-family="Times,serif" font-size="10.00">amount = 25.0</text>
<text text-anchor="start" x="1350.4" y="-442" font-family="Times,serif" font-size="10.00">description = &quot;Ref: concert ticket&quot;</text>
<text text-anchor="start" x="1350.4" y="-430" font-family="Times,serif" font-size="10.00">id = &quot;16d10d4b&#45;b29e&#45;422b&#45;b880&#45;9142b0c0d7c7&quot;</text>
<text text-anchor="start" x="1350.4" y="-418" font-family="Times,serif" font-size="10.00">rejectionDescription = &quot;&quot;</text>
<text text-anchor="start" x="1350.4" y="-406" font-family="Times,serif" font-size="10.00">timestamp = 2021&#45;12&#45;10T00:12:55.070311300</text>
</g>
<!-- b -->
<g id="node2" class="node">
<title>b</title>
<polygon fill="none" stroke="black" points="465.5,-338 465.5,-356 1276.5,-356 1276.5,-338 465.5,-338"/>
<text text-anchor="start" x="855.31" y="-345" font-family="Times,serif" text-decoration="underline" font-size="10.00">b :Bank</text>
<polygon fill="none" stroke="black" points="465.5,-308 465.5,-338 1276.5,-338 1276.5,-308 465.5,-308"/>
<text text-anchor="start" x="468.5" y="-326" font-family="Times,serif" font-size="10.00">accountsMap = sendItToTheBank8a633aa5&#45;907c&#45;4e57&#45;a313&#45;22e0adb2672eb6e10c0b&#45;d23b&#45;4745&#45;a351&#45;b6d55e3a96197ec351d6&#45;652f&#45;4691&#45;8e72&#45;ea432d44a0c8e0efcfd8&#45;c885&#45;471e&#45;ac93&#45;292c7fa98bc5</text>
<text text-anchor="start" x="468.5" y="-314" font-family="Times,serif" font-size="10.00">customerMap = e2f7bc4c&#45;ef2a&#45;466e&#45;b8a5&#45;d24f48b13afe1eaf6f4c&#45;4f92&#45;4e04&#45;bd87&#45;c82be03265de4379e99a&#45;b3b0&#45;4a8c&#45;8051&#45;9ba470d7a3d901df7824&#45;e703&#45;411b&#45;b927&#45;f08d6fc93684</text>
</g>
<!-- 16d10d4b_b29e_422b_b880_9142b0c0d7c7&#45;&gt;b -->
<g id="edge1" class="edge">
<title>16d10d4b_b29e_422b_b880_9142b0c0d7c7&#45;&gt;b</title>
<path fill="none" stroke="black" d="M1326.35,-418.03C1235.38,-401.06 1111.22,-377.9 1015.45,-360.04"/>
<text text-anchor="middle" x="1005.73" y="-363.04" font-family="Times,serif" font-size="10.00">bank</text>
<text text-anchor="middle" x="1302.47" y="-409.03" font-family="Times,serif" font-size="10.00">transactions</text>
</g>
<!-- c -->
<g id="node3" class="node">
<title>c</title>
<polygon fill="none" stroke="black" points="684.5,-46 684.5,-64 846.5,-64 846.5,-46 684.5,-46"/>
<text text-anchor="start" x="742.04" y="-53" font-family="Times,serif" text-decoration="underline" font-size="10.00">c :Currency</text>
<polygon fill="none" stroke="black" points="684.5,-28 684.5,-46 846.5,-46 846.5,-28 684.5,-28"/>
<text text-anchor="start" x="687.5" y="-34" font-family="Times,serif" font-size="10.00">declaringClass = class model.Currency</text>
</g>
<!-- 16d10d4b_b29e_422b_b880_9142b0c0d7c7&#45;&gt;c -->
<g id="edge2" class="edge">
<title>16d10d4b_b29e_422b_b880_9142b0c0d7c7&#45;&gt;c</title>
<path fill="none" stroke="black" d="M1552.93,-395.97C1565.95,-386 1577.49,-374.1 1585.5,-360 1619.8,-299.65 1599.53,-173.04 1546.5,-128 1491.54,-81.32 969.3,-105.68 898.5,-92 870.98,-86.68 841.34,-77.06 817.05,-68.08"/>
<text text-anchor="middle" x="799.56" y="-71.08" font-family="Times,serif" font-size="10.00">currency</text>
</g>
<!-- b6e10c0b_d23b_4745_a351_b6d55e3a9619 -->
<g id="node4" class="node">
<title>b6e10c0b_d23b_4745_a351_b6d55e3a9619</title>
<polygon fill="none" stroke="black" points="8.5,-240 8.5,-258 277.5,-258 277.5,-240 8.5,-240"/>
<text text-anchor="start" x="38.17" y="-247" font-family="Times,serif" text-decoration="underline" font-size="10.00">b6e10c0b&#45;d23b&#45;4745&#45;a351&#45;b6d55e3a9619 :Account</text>
<polygon fill="none" stroke="black" points="8.5,-138 8.5,-240 277.5,-240 277.5,-138 8.5,-138"/>
<text text-anchor="start" x="11.5" y="-228" font-family="Times,serif" font-size="10.00">balance = 25.0</text>
<text text-anchor="start" x="11.5" y="-216" font-family="Times,serif" font-size="10.00">count = 0</text>
<text text-anchor="start" x="11.5" y="-204" font-family="Times,serif" font-size="10.00">customerId = null</text>
<text text-anchor="start" x="11.5" y="-192" font-family="Times,serif" font-size="10.00">iban = &quot;EE946182066742413249&quot;</text>
<text text-anchor="start" x="11.5" y="-180" font-family="Times,serif" font-size="10.00">id = &quot;b6e10c0b&#45;d23b&#45;4745&#45;a351&#45;b6d55e3a9619&quot;</text>
<text text-anchor="start" x="11.5" y="-168" font-family="Times,serif" font-size="10.00">receivedTransaction = 16d10d4b&#45;b29e&#45;422b&#45;b880&#45;9142b0c0d7c7</text>
<text text-anchor="start" x="11.5" y="-156" font-family="Times,serif" font-size="10.00">sentTransaction = </text>
<text text-anchor="start" x="11.5" y="-144" font-family="Times,serif" font-size="10.00">status = &quot;ACTIVE&quot;</text>
</g>
<!-- 16d10d4b_b29e_422b_b880_9142b0c0d7c7&#45;&gt;b6e10c0b_d23b_4745_a351_b6d55e3a9619 -->
<g id="edge3" class="edge">
<title>16d10d4b_b29e_422b_b880_9142b0c0d7c7&#45;&gt;b6e10c0b_d23b_4745_a351_b6d55e3a9619</title>
<path fill="none" stroke="black" d="M1326.28,-427.41C1236.57,-417.8 1112.1,-405.07 1002.5,-396 756.16,-375.62 685.38,-427.18 447.5,-360 372.45,-338.8 294.81,-297.5 236.65,-262.04"/>
<text text-anchor="middle" x="258.59" y="-265.04" font-family="Times,serif" font-size="10.00">destination</text>
<text text-anchor="middle" x="1241.59" y="-430.41" font-family="Times,serif" font-size="10.00">allTransactionsWithSignAndOrderedDesc</text>
</g>
<!-- e0efcfd8_c885_471e_ac93_292c7fa98bc5 -->
<g id="node5" class="node">
<title>e0efcfd8_c885_471e_ac93_292c7fa98bc5</title>
<polygon fill="none" stroke="black" points="1213.5,-246 1213.5,-264 1529.5,-264 1529.5,-246 1213.5,-246"/>
<text text-anchor="start" x="1270.58" y="-253" font-family="Times,serif" text-decoration="underline" font-size="10.00">e0efcfd8&#45;c885&#45;471e&#45;ac93&#45;292c7fa98bc5 :Account</text>
<polygon fill="none" stroke="black" points="1213.5,-132 1213.5,-246 1529.5,-246 1529.5,-132 1213.5,-132"/>
<text text-anchor="start" x="1216.5" y="-234" font-family="Times,serif" font-size="10.00">allTransactionsWithSignAndOrderedDesc = [model.Transaction@68d815b8]</text>
<text text-anchor="start" x="1216.5" y="-222" font-family="Times,serif" font-size="10.00">balance = 75.0</text>
<text text-anchor="start" x="1216.5" y="-210" font-family="Times,serif" font-size="10.00">count = 1</text>
<text text-anchor="start" x="1216.5" y="-198" font-family="Times,serif" font-size="10.00">customerId = null</text>
<text text-anchor="start" x="1216.5" y="-186" font-family="Times,serif" font-size="10.00">iban = &quot;EE170114242080503139&quot;</text>
<text text-anchor="start" x="1216.5" y="-174" font-family="Times,serif" font-size="10.00">id = &quot;e0efcfd8&#45;c885&#45;471e&#45;ac93&#45;292c7fa98bc5&quot;</text>
<text text-anchor="start" x="1216.5" y="-162" font-family="Times,serif" font-size="10.00">receivedTransaction = </text>
<text text-anchor="start" x="1216.5" y="-150" font-family="Times,serif" font-size="10.00">sentTransaction = 16d10d4b&#45;b29e&#45;422b&#45;b880&#45;9142b0c0d7c7</text>
<text text-anchor="start" x="1216.5" y="-138" font-family="Times,serif" font-size="10.00">status = &quot;ACTIVE&quot;</text>
</g>
<!-- 16d10d4b_b29e_422b_b880_9142b0c0d7c7&#45;&gt;e0efcfd8_c885_471e_ac93_292c7fa98bc5 -->
<g id="edge4" class="edge">
<title>16d10d4b_b29e_422b_b880_9142b0c0d7c7&#45;&gt;e0efcfd8_c885_471e_ac93_292c7fa98bc5</title>
<path fill="none" stroke="black" d="M1537.14,-395.92C1549.36,-385.79 1560.21,-373.85 1567.5,-360 1579.09,-337.98 1580.29,-325.35 1567.5,-304 1559.37,-290.42 1548.82,-278.5 1536.82,-268.05"/>
<text text-anchor="middle" x="1523.78" y="-271.05" font-family="Times,serif" font-size="10.00">source</text>
</g>
<!-- s -->
<g id="node6" class="node">
<title>s</title>
<polygon fill="none" stroke="black" points="1349.5,-332 1349.5,-350 1550.5,-350 1550.5,-332 1349.5,-332"/>
<text text-anchor="start" x="1433.19" y="-339" font-family="Times,serif" text-decoration="underline" font-size="10.00">s :Status</text>
<polygon fill="none" stroke="black" points="1349.5,-314 1349.5,-332 1550.5,-332 1550.5,-314 1349.5,-314"/>
<text text-anchor="start" x="1352.5" y="-320" font-family="Times,serif" font-size="10.00">declaringClass = class model.Transaction$Status</text>
</g>
<!-- 16d10d4b_b29e_422b_b880_9142b0c0d7c7&#45;&gt;s -->
<g id="edge5" class="edge">
<title>16d10d4b_b29e_422b_b880_9142b0c0d7c7&#45;&gt;s</title>
<path fill="none" stroke="black" d="M1449.5,-395.82C1449.5,-381.37 1449.5,-366.06 1449.5,-354.16"/>
<text text-anchor="middle" x="1438.11" y="-357.16" font-family="Times,serif" font-size="10.00">status</text>
</g>
<!-- b&#45;&gt;b6e10c0b_d23b_4745_a351_b6d55e3a9619 -->
<g id="edge10" class="edge">
<title>b&#45;&gt;b6e10c0b_d23b_4745_a351_b6d55e3a9619</title>
<path fill="none" stroke="black" d="M480.15,-303.96C419.11,-295.14 357.18,-283.47 299.5,-268 292.89,-266.23 286.19,-264.21 279.49,-262.02"/>
<text text-anchor="middle" x="296.98" y="-265.02" font-family="Times,serif" font-size="10.00">accounts</text>
<text text-anchor="middle" x="470.43" y="-294.96" font-family="Times,serif" font-size="10.00">bank</text>
</g>
<!-- b&#45;&gt;e0efcfd8_c885_471e_ac93_292c7fa98bc5 -->
<g id="edge9" class="edge">
<title>b&#45;&gt;e0efcfd8_c885_471e_ac93_292c7fa98bc5</title>
<path fill="none" stroke="black" d="M1037.17,-303.94C1087.21,-294.3 1141.97,-282.24 1191.5,-268 1196,-266.71 1200.55,-265.35 1205.13,-263.93"/>
<text text-anchor="middle" x="1187.64" y="-266.93" font-family="Times,serif" font-size="10.00">accounts</text>
<text text-anchor="middle" x="1027.45" y="-294.94" font-family="Times,serif" font-size="10.00">bank</text>
</g>
<!-- sendItToTheBank -->
<g id="node7" class="node">
<title>sendItToTheBank</title>
<polygon fill="none" stroke="black" points="693.5,-240 693.5,-258 837.5,-258 837.5,-240 693.5,-240"/>
<text text-anchor="start" x="709.82" y="-247" font-family="Times,serif" text-decoration="underline" font-size="10.00">sendItToTheBank :Account</text>
<polygon fill="none" stroke="black" points="693.5,-138 693.5,-240 837.5,-240 837.5,-138 693.5,-138"/>
<text text-anchor="start" x="696.5" y="-228" font-family="Times,serif" font-size="10.00">balance = 69420.0</text>
<text text-anchor="start" x="696.5" y="-216" font-family="Times,serif" font-size="10.00">count = 0</text>
<text text-anchor="start" x="696.5" y="-204" font-family="Times,serif" font-size="10.00">customerId = null</text>
<text text-anchor="start" x="696.5" y="-192" font-family="Times,serif" font-size="10.00">iban = &quot;EE478536479638349375&quot;</text>
<text text-anchor="start" x="696.5" y="-180" font-family="Times,serif" font-size="10.00">id = &quot;sendItToTheBank&quot;</text>
<text text-anchor="start" x="696.5" y="-168" font-family="Times,serif" font-size="10.00">receivedTransaction = </text>
<text text-anchor="start" x="696.5" y="-156" font-family="Times,serif" font-size="10.00">sentTransaction = </text>
<text text-anchor="start" x="696.5" y="-144" font-family="Times,serif" font-size="10.00">status = &quot;ACTIVE&quot;</text>
</g>
<!-- b&#45;&gt;sendItToTheBank -->
<g id="edge6" class="edge">
<title>b&#45;&gt;sendItToTheBank</title>
<path fill="none" stroke="black" d="M849,-303.97C839.34,-291.83 827.5,-276.94 815.8,-262.24"/>
<text text-anchor="middle" x="789.14" y="-265.24" font-family="Times,serif" font-size="10.00">bankAccount</text>
<text text-anchor="middle" x="839.28" y="-294.97" font-family="Times,serif" font-size="10.00">bank</text>
</g>
<!-- 8a633aa5_907c_4e57_a313_22e0adb2672e -->
<g id="node8" class="node">
<title>8a633aa5_907c_4e57_a313_22e0adb2672e</title>
<polygon fill="none" stroke="black" points="387.5,-240 387.5,-258 621.5,-258 621.5,-240 387.5,-240"/>
<text text-anchor="start" x="400.79" y="-247" font-family="Times,serif" text-decoration="underline" font-size="10.00">8a633aa5&#45;907c&#45;4e57&#45;a313&#45;22e0adb2672e :Account</text>
<polygon fill="none" stroke="black" points="387.5,-138 387.5,-240 621.5,-240 621.5,-138 387.5,-138"/>
<text text-anchor="start" x="390.5" y="-228" font-family="Times,serif" font-size="10.00">balance = 0.0</text>
<text text-anchor="start" x="390.5" y="-216" font-family="Times,serif" font-size="10.00">count = 0</text>
<text text-anchor="start" x="390.5" y="-204" font-family="Times,serif" font-size="10.00">customerId = &quot;1eaf6f4c&#45;4f92&#45;4e04&#45;bd87&#45;c82be03265de&quot;</text>
<text text-anchor="start" x="390.5" y="-192" font-family="Times,serif" font-size="10.00">iban = &quot;EE500467859057350272&quot;</text>
<text text-anchor="start" x="390.5" y="-180" font-family="Times,serif" font-size="10.00">id = &quot;8a633aa5&#45;907c&#45;4e57&#45;a313&#45;22e0adb2672e&quot;</text>
<text text-anchor="start" x="390.5" y="-168" font-family="Times,serif" font-size="10.00">receivedTransaction = </text>
<text text-anchor="start" x="390.5" y="-156" font-family="Times,serif" font-size="10.00">sentTransaction = </text>
<text text-anchor="start" x="390.5" y="-144" font-family="Times,serif" font-size="10.00">status = &quot;ACTIVE&quot;</text>
</g>
<!-- b&#45;&gt;8a633aa5_907c_4e57_a313_22e0adb2672e -->
<g id="edge7" class="edge">
<title>b&#45;&gt;8a633aa5_907c_4e57_a313_22e0adb2672e</title>
<path fill="none" stroke="black" d="M782.67,-303.86C749.26,-293.18 710.96,-280.49 676.5,-268 661.22,-262.46 645.28,-256.43 629.53,-250.3"/>
<text text-anchor="middle" x="647.02" y="-253.3" font-family="Times,serif" font-size="10.00">accounts</text>
<text text-anchor="middle" x="772.95" y="-294.86" font-family="Times,serif" font-size="10.00">bank</text>
</g>
<!-- 7ec351d6_652f_4691_8e72_ea432d44a0c8 -->
<g id="node9" class="node">
<title>7ec351d6_652f_4691_8e72_ea432d44a0c8</title>
<polygon fill="none" stroke="black" points="872.5,-240 872.5,-258 1103.5,-258 1103.5,-240 872.5,-240"/>
<text text-anchor="start" x="884.56" y="-247" font-family="Times,serif" text-decoration="underline" font-size="10.00">7ec351d6&#45;652f&#45;4691&#45;8e72&#45;ea432d44a0c8 :Account</text>
<polygon fill="none" stroke="black" points="872.5,-138 872.5,-240 1103.5,-240 1103.5,-138 872.5,-138"/>
<text text-anchor="start" x="875.5" y="-228" font-family="Times,serif" font-size="10.00">balance = 100.0</text>
<text text-anchor="start" x="875.5" y="-216" font-family="Times,serif" font-size="10.00">count = 0</text>
<text text-anchor="start" x="875.5" y="-204" font-family="Times,serif" font-size="10.00">customerId = &quot;e2f7bc4c&#45;ef2a&#45;466e&#45;b8a5&#45;d24f48b13afe&quot;</text>
<text text-anchor="start" x="875.5" y="-192" font-family="Times,serif" font-size="10.00">iban = &quot;EE508166157234538669&quot;</text>
<text text-anchor="start" x="875.5" y="-180" font-family="Times,serif" font-size="10.00">id = &quot;7ec351d6&#45;652f&#45;4691&#45;8e72&#45;ea432d44a0c8&quot;</text>
<text text-anchor="start" x="875.5" y="-168" font-family="Times,serif" font-size="10.00">receivedTransaction = </text>
<text text-anchor="start" x="875.5" y="-156" font-family="Times,serif" font-size="10.00">sentTransaction = </text>
<text text-anchor="start" x="875.5" y="-144" font-family="Times,serif" font-size="10.00">status = &quot;ACTIVE&quot;</text>
</g>
<!-- b&#45;&gt;7ec351d6_652f_4691_8e72_ea432d44a0c8 -->
<g id="edge8" class="edge">
<title>b&#45;&gt;7ec351d6_652f_4691_8e72_ea432d44a0c8</title>
<path fill="none" stroke="black" d="M894.46,-303.97C905.22,-291.83 918.42,-276.94 931.45,-262.24"/>
<text text-anchor="middle" x="913.96" y="-265.24" font-family="Times,serif" font-size="10.00">accounts</text>
<text text-anchor="middle" x="884.74" y="-294.97" font-family="Times,serif" font-size="10.00">bank</text>
</g>
<!-- e2f7bc4c_ef2a_466e_b8a5_d24f48b13afe -->
<g id="node10" class="node">
<title>e2f7bc4c_ef2a_466e_b8a5_d24f48b13afe</title>
<polygon fill="none" stroke="black" points="915.5,-70 915.5,-88 1126.5,-88 1126.5,-70 915.5,-70"/>
<text text-anchor="start" x="918.13" y="-77" font-family="Times,serif" text-decoration="underline" font-size="10.00">e2f7bc4c&#45;ef2a&#45;466e&#45;b8a5&#45;d24f48b13afe :Customer</text>
<polygon fill="none" stroke="black" points="915.5,-4 915.5,-70 1126.5,-70 1126.5,-4 915.5,-4"/>
<text text-anchor="start" x="926.92" y="-58" font-family="Times,serif" font-size="10.00">email = &quot;john@doe.ee&quot;</text>
<text text-anchor="start" x="926.92" y="-46" font-family="Times,serif" font-size="10.00">firstName = &quot;John&quot;</text>
<text text-anchor="start" x="926.92" y="-34" font-family="Times,serif" font-size="10.00">id = &quot;e2f7bc4c&#45;ef2a&#45;466e&#45;b8a5&#45;d24f48b13afe&quot;</text>
<text text-anchor="start" x="926.92" y="-22" font-family="Times,serif" font-size="10.00">lastName = &quot;Doe&quot;</text>
<text text-anchor="start" x="926.92" y="-10" font-family="Times,serif" font-size="10.00">password = &quot;pass1234&quot;</text>
</g>
<!-- b&#45;&gt;e2f7bc4c_ef2a_466e_b8a5_d24f48b13afe -->
<g id="edge11" class="edge">
<title>b&#45;&gt;e2f7bc4c_ef2a_466e_b8a5_d24f48b13afe</title>
<path fill="none" stroke="black" d="M1041.77,-303.98C1078.06,-294.71 1108.94,-282.83 1120.5,-268 1158.75,-218.92 1147.28,-184.16 1120.5,-128 1114.06,-114.49 1104.14,-102.5 1093,-92.17"/>
<text text-anchor="middle" x="1072.73" y="-95.17" font-family="Times,serif" font-size="10.00">customers</text>
<text text-anchor="middle" x="1051.49" y="-294.98" font-family="Times,serif" font-size="10.00">bank</text>
</g>
<!-- 1eaf6f4c_4f92_4e04_bd87_c82be03265de -->
<g id="node11" class="node">
<title>1eaf6f4c_4f92_4e04_bd87_c82be03265de</title>
<polygon fill="none" stroke="black" points="369.5,-70 369.5,-88 583.5,-88 583.5,-70 369.5,-70"/>
<text text-anchor="start" x="372.23" y="-77" font-family="Times,serif" text-decoration="underline" font-size="10.00">1eaf6f4c&#45;4f92&#45;4e04&#45;bd87&#45;c82be03265de :Customer</text>
<polygon fill="none" stroke="black" points="369.5,-4 369.5,-70 583.5,-70 583.5,-4 369.5,-4"/>
<text text-anchor="start" x="381.02" y="-58" font-family="Times,serif" font-size="10.00">email = &quot;bobby@tt.ee&quot;</text>
<text text-anchor="start" x="381.02" y="-46" font-family="Times,serif" font-size="10.00">firstName = &quot;Bob&quot;</text>
<text text-anchor="start" x="381.02" y="-34" font-family="Times,serif" font-size="10.00">id = &quot;1eaf6f4c&#45;4f92&#45;4e04&#45;bd87&#45;c82be03265de&quot;</text>
<text text-anchor="start" x="381.02" y="-22" font-family="Times,serif" font-size="10.00">lastName = &quot;Jackson&quot;</text>
<text text-anchor="start" x="381.02" y="-10" font-family="Times,serif" font-size="10.00">password = &quot;secret&quot;</text>
</g>
<!-- b&#45;&gt;1eaf6f4c_4f92_4e04_bd87_c82be03265de -->
<g id="edge12" class="edge">
<title>b&#45;&gt;1eaf6f4c_4f92_4e04_bd87_c82be03265de</title>
<path fill="none" stroke="black" d="M524.56,-303.99C446.83,-294.49 383.29,-282.5 370.5,-268 329.34,-221.33 342.92,-183.78 370.5,-128 377.22,-114.4 387.45,-102.46 398.94,-92.21"/>
<text text-anchor="middle" x="378.66" y="-95.21" font-family="Times,serif" font-size="10.00">customers</text>
<text text-anchor="middle" x="514.85" y="-294.99" font-family="Times,serif" font-size="10.00">bank</text>
</g>
<!-- 4379e99a_b3b0_4a8c_8051_9ba470d7a3d9 -->
<g id="node12" class="node">
<title>4379e99a_b3b0_4a8c_8051_9ba470d7a3d9</title>
<polygon fill="none" stroke="black" points="1227.5,-70 1227.5,-88 1447.5,-88 1447.5,-70 1227.5,-70"/>
<text text-anchor="start" x="1230.44" y="-77" font-family="Times,serif" text-decoration="underline" font-size="10.00">4379e99a&#45;b3b0&#45;4a8c&#45;8051&#45;9ba470d7a3d9 :Customer</text>
<polygon fill="none" stroke="black" points="1227.5,-4 1227.5,-70 1447.5,-70 1447.5,-4 1227.5,-4"/>
<text text-anchor="start" x="1239.24" y="-58" font-family="Times,serif" font-size="10.00">email = &quot;johntest@doe.ee&quot;</text>
<text text-anchor="start" x="1239.24" y="-46" font-family="Times,serif" font-size="10.00">firstName = &quot;johntest&quot;</text>
<text text-anchor="start" x="1239.24" y="-34" font-family="Times,serif" font-size="10.00">id = &quot;4379e99a&#45;b3b0&#45;4a8c&#45;8051&#45;9ba470d7a3d9&quot;</text>
<text text-anchor="start" x="1239.24" y="-22" font-family="Times,serif" font-size="10.00">lastName = &quot;Doe&quot;</text>
<text text-anchor="start" x="1239.24" y="-10" font-family="Times,serif" font-size="10.00">password = &quot;pass1234&quot;</text>
</g>
<!-- b&#45;&gt;4379e99a_b3b0_4a8c_8051_9ba470d7a3d9 -->
<g id="edge13" class="edge">
<title>b&#45;&gt;4379e99a_b3b0_4a8c_8051_9ba470d7a3d9</title>
<path fill="none" stroke="black" d="M1049.46,-303.93C1092.23,-294.43 1130.24,-282.44 1146.5,-268 1195.91,-224.13 1154.13,-178.7 1196.5,-128 1208,-114.25 1222.46,-102.33 1237.72,-92.19"/>
<text text-anchor="middle" x="1217.45" y="-95.19" font-family="Times,serif" font-size="10.00">customers</text>
<text text-anchor="middle" x="1059.18" y="-294.93" font-family="Times,serif" font-size="10.00">bank</text>
</g>
<!-- 01df7824_e703_411b_b927_f08d6fc93684 -->
<g id="node13" class="node">
<title>01df7824_e703_411b_b927_f08d6fc93684</title>
<polygon fill="none" stroke="black" points="62.5,-70 62.5,-88 279.5,-88 279.5,-70 62.5,-70"/>
<text text-anchor="start" x="65.33" y="-77" font-family="Times,serif" text-decoration="underline" font-size="10.00">01df7824&#45;e703&#45;411b&#45;b927&#45;f08d6fc93684 :Customer</text>
<polygon fill="none" stroke="black" points="62.5,-4 62.5,-70 279.5,-70 279.5,-4 62.5,-4"/>
<text text-anchor="start" x="74.12" y="-58" font-family="Times,serif" font-size="10.00">email = &quot;bobbytest@tt.ee&quot;</text>
<text text-anchor="start" x="74.12" y="-46" font-family="Times,serif" font-size="10.00">firstName = &quot;Bob&quot;</text>
<text text-anchor="start" x="74.12" y="-34" font-family="Times,serif" font-size="10.00">id = &quot;01df7824&#45;e703&#45;411b&#45;b927&#45;f08d6fc93684&quot;</text>
<text text-anchor="start" x="74.12" y="-22" font-family="Times,serif" font-size="10.00">lastName = &quot;Jackson&quot;</text>
<text text-anchor="start" x="74.12" y="-10" font-family="Times,serif" font-size="10.00">password = &quot;secret&quot;</text>
</g>
<!-- b&#45;&gt;01df7824_e703_411b_b927_f08d6fc93684 -->
<g id="edge14" class="edge">
<title>b&#45;&gt;01df7824_e703_411b_b927_f08d6fc93684</title>
<path fill="none" stroke="black" d="M456.79,-308.46C405.2,-299.11 362.74,-286.08 340.5,-268 289.57,-226.6 333.54,-180 293.5,-128 283.05,-114.43 269.64,-102.41 255.54,-92.06"/>
<text text-anchor="middle" x="235.27" y="-95.06" font-family="Times,serif" font-size="10.00">customers</text>
<text text-anchor="middle" x="447.07" y="-311.46" font-family="Times,serif" font-size="10.00">bank</text>
</g>
<!-- b6e10c0b_d23b_4745_a351_b6d55e3a9619&#45;&gt;c -->
<g id="edge15" class="edge">
<title>b6e10c0b_d23b_4745_a351_b6d55e3a9619&#45;&gt;c</title>
<path fill="none" stroke="black" d="M285.21,-150.51C313.29,-142.3 342.68,-134.35 370.5,-128 471.37,-104.96 499.32,-113.65 600.5,-92 631.86,-85.29 666.12,-76.23 695.26,-68"/>
<text text-anchor="middle" x="677.78" y="-71" font-family="Times,serif" font-size="10.00">currency</text>
</g>
<!-- b6e10c0b_d23b_4745_a351_b6d55e3a9619&#45;&gt;01df7824_e703_411b_b927_f08d6fc93684 -->
<g id="edge16" class="edge">
<title>b6e10c0b_d23b_4745_a351_b6d55e3a9619&#45;&gt;01df7824_e703_411b_b927_f08d6fc93684</title>
<path fill="none" stroke="black" d="M154.29,-133.82C156.89,-119.89 159.6,-105.4 162.04,-92.34"/>
<text text-anchor="middle" x="149.54" y="-95.34" font-family="Times,serif" font-size="10.00">owner</text>
<text text-anchor="middle" x="138.75" y="-124.82" font-family="Times,serif" font-size="10.00">account</text>
</g>
<!-- e0efcfd8_c885_471e_ac93_292c7fa98bc5&#45;&gt;c -->
<g id="edge17" class="edge">
<title>e0efcfd8_c885_471e_ac93_292c7fa98bc5&#45;&gt;c</title>
<path fill="none" stroke="black" d="M1205.38,-148.64C1177.18,-141.2 1148.1,-134.01 1120.5,-128 1022.84,-106.72 995.51,-116.1 898.5,-92 872.6,-85.56 844.52,-76.4 820.87,-68.02"/>
<text text-anchor="middle" x="838.35" y="-71.02" font-family="Times,serif" font-size="10.00">currency</text>
</g>
<!-- e0efcfd8_c885_471e_ac93_292c7fa98bc5&#45;&gt;4379e99a_b3b0_4a8c_8051_9ba470d7a3d9 -->
<g id="edge18" class="edge">
<title>e0efcfd8_c885_471e_ac93_292c7fa98bc5&#45;&gt;4379e99a_b3b0_4a8c_8051_9ba470d7a3d9</title>
<path fill="none" stroke="black" d="M1355.79,-127.71C1353.04,-115.58 1350.25,-103.25 1347.7,-92"/>
<text text-anchor="middle" x="1335.21" y="-95" font-family="Times,serif" font-size="10.00">owner</text>
<text text-anchor="middle" x="1340.25" y="-118.71" font-family="Times,serif" font-size="10.00">account</text>
</g>
<!-- sendItToTheBank&#45;&gt;c -->
<g id="edge19" class="edge">
<title>sendItToTheBank&#45;&gt;c</title>
<path fill="none" stroke="black" d="M765.5,-133.82C765.5,-110.28 765.5,-85.15 765.5,-68.01"/>
<text text-anchor="middle" x="748.01" y="-71.01" font-family="Times,serif" font-size="10.00">currency</text>
</g>
<!-- 8a633aa5_907c_4e57_a313_22e0adb2672e&#45;&gt;c -->
<g id="edge20" class="edge">
<title>8a633aa5_907c_4e57_a313_22e0adb2672e&#45;&gt;c</title>
<path fill="none" stroke="black" d="M614.43,-133.82C655.39,-110.28 699.12,-85.15 728.94,-68.01"/>
<text text-anchor="middle" x="711.45" y="-71.01" font-family="Times,serif" font-size="10.00">currency</text>
</g>
<!-- 8a633aa5_907c_4e57_a313_22e0adb2672e&#45;&gt;1eaf6f4c_4f92_4e04_bd87_c82be03265de -->
<g id="edge21" class="edge">
<title>8a633aa5_907c_4e57_a313_22e0adb2672e&#45;&gt;1eaf6f4c_4f92_4e04_bd87_c82be03265de</title>
<path fill="none" stroke="black" d="M492.71,-133.82C490.11,-119.89 487.4,-105.4 484.96,-92.34"/>
<text text-anchor="middle" x="472.47" y="-95.34" font-family="Times,serif" font-size="10.00">owner</text>
<text text-anchor="middle" x="477.16" y="-124.82" font-family="Times,serif" font-size="10.00">account</text>
</g>
<!-- 7ec351d6_652f_4691_8e72_ea432d44a0c8&#45;&gt;c -->
<g id="edge22" class="edge">
<title>7ec351d6_652f_4691_8e72_ea432d44a0c8&#45;&gt;c</title>
<path fill="none" stroke="black" d="M894,-133.82C859.16,-110.28 821.96,-85.15 796.6,-68.01"/>
<text text-anchor="middle" x="779.11" y="-71.01" font-family="Times,serif" font-size="10.00">currency</text>
</g>
<!-- 7ec351d6_652f_4691_8e72_ea432d44a0c8&#45;&gt;e2f7bc4c_ef2a_466e_b8a5_d24f48b13afe -->
<g id="edge23" class="edge">
<title>7ec351d6_652f_4691_8e72_ea432d44a0c8&#45;&gt;e2f7bc4c_ef2a_466e_b8a5_d24f48b13afe</title>
<path fill="none" stroke="black" d="M1001.4,-133.82C1004.46,-119.89 1007.65,-105.4 1010.53,-92.34"/>
<text text-anchor="middle" x="998.03" y="-95.34" font-family="Times,serif" font-size="10.00">owner</text>
<text text-anchor="middle" x="985.85" y="-124.82" font-family="Times,serif" font-size="10.00">account</text>
</g>
<!-- 16d10d4b_b29e_422b_b880_9142b0c0d7c71 -->
<g id="node14" class="node">
<title>16d10d4b_b29e_422b_b880_9142b0c0d7c71</title>
<polygon fill="none" stroke="black" points="755.5,-466 755.5,-484 985.5,-484 985.5,-466 755.5,-466"/>
<text text-anchor="start" x="758.44" y="-473" font-family="Times,serif" text-decoration="underline" font-size="10.00">16d10d4b&#45;b29e&#45;422b&#45;b880&#45;9142b0c0d7c7 :Transaction</text>
<polygon fill="none" stroke="black" points="755.5,-400 755.5,-466 985.5,-466 985.5,-400 755.5,-400"/>
<text text-anchor="start" x="771.4" y="-454" font-family="Times,serif" font-size="10.00">amount = &#45;25.0</text>
<text text-anchor="start" x="771.4" y="-442" font-family="Times,serif" font-size="10.00">description = &quot;Ref: concert ticket&quot;</text>
<text text-anchor="start" x="771.4" y="-430" font-family="Times,serif" font-size="10.00">id = &quot;16d10d4b&#45;b29e&#45;422b&#45;b880&#45;9142b0c0d7c7&quot;</text>
<text text-anchor="start" x="771.4" y="-418" font-family="Times,serif" font-size="10.00">rejectionDescription = &quot;&quot;</text>
<text text-anchor="start" x="771.4" y="-406" font-family="Times,serif" font-size="10.00">timestamp = 2021&#45;12&#45;10T00:12:55.070311300</text>
</g>
<!-- 16d10d4b_b29e_422b_b880_9142b0c0d7c71&#45;&gt;b -->
<g id="edge24" class="edge">
<title>16d10d4b_b29e_422b_b880_9142b0c0d7c71&#45;&gt;b</title>
<path fill="none" stroke="black" d="M870.5,-395.82C870.5,-383.69 870.5,-370.94 870.5,-360.12"/>
<text text-anchor="middle" x="860.78" y="-363.12" font-family="Times,serif" font-size="10.00">bank</text>
</g>
<!-- 16d10d4b_b29e_422b_b880_9142b0c0d7c71&#45;&gt;c -->
<g id="edge25" class="edge">
<title>16d10d4b_b29e_422b_b880_9142b0c0d7c71&#45;&gt;c</title>
<path fill="none" stroke="black" d="M747.48,-434.41C636.48,-425.58 485.02,-405.38 447.5,-360 344.3,-235.16 559.44,-341.07 638.5,-268 685.85,-224.24 642.87,-183.01 676.5,-128 691.21,-103.94 715.16,-82.73 734.51,-68.05"/>
<text text-anchor="middle" x="717.02" y="-71.05" font-family="Times,serif" font-size="10.00">currency</text>
</g>
<!-- 16d10d4b_b29e_422b_b880_9142b0c0d7c71&#45;&gt;b6e10c0b_d23b_4745_a351_b6d55e3a9619 -->
<g id="edge26" class="edge">
<title>16d10d4b_b29e_422b_b880_9142b0c0d7c71&#45;&gt;b6e10c0b_d23b_4745_a351_b6d55e3a9619</title>
<path fill="none" stroke="black" d="M747.24,-429.86C613.52,-416.45 409.59,-391.69 338.5,-360 287.02,-337.05 238.02,-296.8 201.89,-262.29"/>
<text text-anchor="middle" x="179.95" y="-265.29" font-family="Times,serif" font-size="10.00">destination</text>
</g>
<!-- 16d10d4b_b29e_422b_b880_9142b0c0d7c71&#45;&gt;e0efcfd8_c885_471e_ac93_292c7fa98bc5 -->
<g id="edge27" class="edge">
<title>16d10d4b_b29e_422b_b880_9142b0c0d7c71&#45;&gt;e0efcfd8_c885_471e_ac93_292c7fa98bc5</title>
<path fill="none" stroke="black" d="M993.56,-429.71C1101.21,-417.67 1247.38,-395.39 1293.5,-360 1309.58,-347.66 1329.53,-306.07 1345.24,-268.25"/>
<text text-anchor="middle" x="1332.19" y="-271.25" font-family="Times,serif" font-size="10.00">source</text>
</g>
<!-- 16d10d4b_b29e_422b_b880_9142b0c0d7c71&#45;&gt;s -->
<g id="edge28" class="edge">
<title>16d10d4b_b29e_422b_b880_9142b0c0d7c71&#45;&gt;s</title>
<path fill="none" stroke="black" d="M993.65,-420.51C1085.55,-404.88 1214.11,-382.31 1326.5,-360 1335.94,-358.13 1345.76,-356.1 1355.56,-354.03"/>
<text text-anchor="middle" x="1344.18" y="-357.03" font-family="Times,serif" font-size="10.00">status</text>
</g>
</g>
</svg>
