<?xml version="1.0" encoding="UTF-8" standalone="no"?>
<!DOCTYPE svg PUBLIC "-//W3C//DTD SVG 1.1//EN"
 "http://www.w3.org/Graphics/SVG/1.1/DTD/svg11.dtd">
<!-- Generated by graphviz version 2.43.0 (0)
 -->
<!-- Title: model Pages: 1 -->
<svg width="1542px" height="449px"
 viewBox="0.00 0.00 1541.50 449.00" xmlns="http://www.w3.org/2000/svg" xmlns:xlink="http://www.w3.org/1999/xlink">
<g id="graph0" class="graph" transform="scale(1.0 1.0) rotate(0) translate(4 445)">
<title>model</title>
<polygon fill="white" stroke="transparent" points="-4,4 -4,-445 1537.5,-445 1537.5,4 -4,4"/>
<!-- eb80ce8a_ffb2_439e_ab45_2ba3e4b1b006 -->
<g id="node1" class="node">
<title>eb80ce8a_ffb2_439e_ab45_2ba3e4b1b006</title>
<polygon fill="none" stroke="black" points="719,-420 719,-437 948,-437 948,-420 719,-420"/>
<text text-anchor="start" x="722" y="-427" font-family="Times,serif" text-decoration="underline" font-size="10.00">eb80ce8a&#45;ffb2&#45;439e&#45;ab45&#45;2ba3e4b1b006 :Transaction</text>
<polygon fill="none" stroke="black" points="719,-359 719,-420 948,-420 948,-359 719,-359"/>
<text text-anchor="start" x="735.5" y="-409" font-family="Times,serif" font-size="10.00">amount = 25.0</text>
<text text-anchor="start" x="735.5" y="-398" font-family="Times,serif" font-size="10.00">description = &quot;Ref: concert ticket&quot;</text>
<text text-anchor="start" x="735.5" y="-387" font-family="Times,serif" font-size="10.00">id = &quot;eb80ce8a&#45;ffb2&#45;439e&#45;ab45&#45;2ba3e4b1b006&quot;</text>
<text text-anchor="start" x="735.5" y="-376" font-family="Times,serif" font-size="10.00">rejectionDescription = &quot;&quot;</text>
<text text-anchor="start" x="735.5" y="-365" font-family="Times,serif" font-size="10.00">timestamp = 2021&#45;12&#45;04T18:16:15.015523744</text>
</g>
<!-- b -->
<g id="node2" class="node">
<title>b</title>
<polygon fill="none" stroke="black" points="418,-297.5 418,-314.5 1249,-314.5 1249,-297.5 418,-297.5"/>
<text text-anchor="start" x="817" y="-304.5" font-family="Times,serif" text-decoration="underline" font-size="10.00">b :Bank</text>
<polygon fill="none" stroke="black" points="418,-269.5 418,-297.5 1249,-297.5 1249,-269.5 418,-269.5"/>
<text text-anchor="start" x="421" y="-286.5" font-family="Times,serif" font-size="10.00">accountsMap = 00cbaf11&#45;317a&#45;4c54&#45;80d6&#45;bdb5b5fa2428sendItToTheBank8a633aa5&#45;907c&#45;4e57&#45;a313&#45;22e0adb2672e7ec351d6&#45;652f&#45;4691&#45;8e72&#45;ea432d44a0c8a12eb5c6&#45;ace7&#45;45e2&#45;8ca3&#45;1218f4d8a889</text>
<text text-anchor="start" x="421" y="-275.5" font-family="Times,serif" font-size="10.00">customerMap = 2564bc1c&#45;7fa3&#45;4cf5&#45;9589&#45;354ed4e36f07e2f7bc4c&#45;ef2a&#45;466e&#45;b8a5&#45;d24f48b13afe1eaf6f4c&#45;4f92&#45;4e04&#45;bd87&#45;c82be03265de78d10b6f&#45;8cea&#45;4f7d&#45;a1a0&#45;053932e4a0d3</text>
</g>
<!-- eb80ce8a_ffb2_439e_ab45_2ba3e4b1b006&#45;&gt;b -->
<g id="edge1" class="edge">
<title>eb80ce8a_ffb2_439e_ab45_2ba3e4b1b006&#45;&gt;b</title>
<path fill="none" stroke="black" d="M833,-354.9C833,-342.81 833,-330 833,-319.22"/>
<text text-anchor="middle" x="822.5" y="-322.22" font-family="Times,serif" font-size="10.00">bank</text>
<text text-anchor="middle" x="808.5" y="-346.9" font-family="Times,serif" font-size="10.00">transactions</text>
</g>
<!-- c -->
<g id="node3" class="node">
<title>c</title>
<polygon fill="none" stroke="black" points="391,-43 391,-60 555,-60 555,-43 391,-43"/>
<text text-anchor="start" x="449" y="-50" font-family="Times,serif" text-decoration="underline" font-size="10.00">c :Currency</text>
<polygon fill="none" stroke="black" points="391,-26 391,-43 555,-43 555,-26 391,-26"/>
<text text-anchor="start" x="394" y="-32" font-family="Times,serif" font-size="10.00">declaringClass = class model.Currency</text>
</g>
<!-- eb80ce8a_ffb2_439e_ab45_2ba3e4b1b006&#45;&gt;c -->
<g id="edge2" class="edge">
<title>eb80ce8a_ffb2_439e_ab45_2ba3e4b1b006&#45;&gt;c</title>
<path fill="none" stroke="black" d="M710.38,-389.81C598.3,-380.67 443.57,-360.75 400,-319 336.45,-258.12 342.8,-201.76 380,-122 391.58,-97.17 415.38,-77.45 436.01,-64.04"/>
<text text-anchor="middle" x="454.01" y="-67.04" font-family="Times,serif" font-size="10.00">currency</text>
</g>
<!-- a12eb5c6_ace7_45e2_8ca3_1218f4d8a889 -->
<g id="node4" class="node">
<title>a12eb5c6_ace7_45e2_8ca3_1218f4d8a889</title>
<polygon fill="none" stroke="black" points="1236,-209 1236,-226 1505,-226 1505,-209 1236,-209"/>
<text text-anchor="start" x="1265" y="-216" font-family="Times,serif" text-decoration="underline" font-size="10.00">a12eb5c6&#45;ace7&#45;45e2&#45;8ca3&#45;1218f4d8a889 :Account</text>
<polygon fill="none" stroke="black" points="1236,-126 1236,-209 1505,-209 1505,-126 1236,-126"/>
<text text-anchor="start" x="1239" y="-198" font-family="Times,serif" font-size="10.00">balance = 25.0</text>
<text text-anchor="start" x="1239" y="-187" font-family="Times,serif" font-size="10.00">customerId = null</text>
<text text-anchor="start" x="1239" y="-176" font-family="Times,serif" font-size="10.00">iban = &quot;EE617197654534300799&quot;</text>
<text text-anchor="start" x="1239" y="-165" font-family="Times,serif" font-size="10.00">id = &quot;a12eb5c6&#45;ace7&#45;45e2&#45;8ca3&#45;1218f4d8a889&quot;</text>
<text text-anchor="start" x="1239" y="-154" font-family="Times,serif" font-size="10.00">receivedTransaction = eb80ce8a&#45;ffb2&#45;439e&#45;ab45&#45;2ba3e4b1b006</text>
<text text-anchor="start" x="1239" y="-143" font-family="Times,serif" font-size="10.00">sentTransaction = </text>
<text text-anchor="start" x="1239" y="-132" font-family="Times,serif" font-size="10.00">status = &quot;ACTIVE&quot;</text>
</g>
<!-- eb80ce8a_ffb2_439e_ab45_2ba3e4b1b006&#45;&gt;a12eb5c6_ace7_45e2_8ca3_1218f4d8a889 -->
<g id="edge3" class="edge">
<title>eb80ce8a_ffb2_439e_ab45_2ba3e4b1b006&#45;&gt;a12eb5c6_ace7_45e2_8ca3_1218f4d8a889</title>
<path fill="none" stroke="black" d="M955.64,-385.05C1064.69,-372.61 1214.48,-350.5 1265,-319 1289.82,-303.53 1286.62,-289.52 1304,-266 1312.57,-254.4 1321.79,-241.95 1330.53,-230.16"/>
<text text-anchor="middle" x="1307.53" y="-233.16" font-family="Times,serif" font-size="10.00">destination</text>
<text text-anchor="middle" x="1013.64" y="-388.05" font-family="Times,serif" font-size="10.00">allTransactionsOrderedDesc</text>
</g>
<!-- 00cbaf11_317a_4c54_80d6_bdb5b5fa2428 -->
<g id="node5" class="node">
<title>00cbaf11_317a_4c54_80d6_bdb5b5fa2428</title>
<polygon fill="none" stroke="black" points="74,-209 74,-226 325,-226 325,-209 74,-209"/>
<text text-anchor="start" x="94" y="-216" font-family="Times,serif" text-decoration="underline" font-size="10.00">00cbaf11&#45;317a&#45;4c54&#45;80d6&#45;bdb5b5fa2428 :Account</text>
<polygon fill="none" stroke="black" points="74,-126 74,-209 325,-209 325,-126 74,-126"/>
<text text-anchor="start" x="77" y="-198" font-family="Times,serif" font-size="10.00">balance = 75.0</text>
<text text-anchor="start" x="77" y="-187" font-family="Times,serif" font-size="10.00">customerId = null</text>
<text text-anchor="start" x="77" y="-176" font-family="Times,serif" font-size="10.00">iban = &quot;EE766714280893117503&quot;</text>
<text text-anchor="start" x="77" y="-165" font-family="Times,serif" font-size="10.00">id = &quot;00cbaf11&#45;317a&#45;4c54&#45;80d6&#45;bdb5b5fa2428&quot;</text>
<text text-anchor="start" x="77" y="-154" font-family="Times,serif" font-size="10.00">receivedTransaction = </text>
<text text-anchor="start" x="77" y="-143" font-family="Times,serif" font-size="10.00">sentTransaction = eb80ce8a&#45;ffb2&#45;439e&#45;ab45&#45;2ba3e4b1b006</text>
<text text-anchor="start" x="77" y="-132" font-family="Times,serif" font-size="10.00">status = &quot;ACTIVE&quot;</text>
</g>
<!-- eb80ce8a_ffb2_439e_ab45_2ba3e4b1b006&#45;&gt;00cbaf11_317a_4c54_80d6_bdb5b5fa2428 -->
<g id="edge4" class="edge">
<title>eb80ce8a_ffb2_439e_ab45_2ba3e4b1b006&#45;&gt;00cbaf11_317a_4c54_80d6_bdb5b5fa2428</title>
<path fill="none" stroke="black" d="M710.46,-385.74C587.95,-373 409.11,-349.92 347,-319 305.08,-298.13 267.18,-261.23 240.22,-230.28"/>
<text text-anchor="middle" x="226.72" y="-233.28" font-family="Times,serif" font-size="10.00">source</text>
<text text-anchor="middle" x="652.46" y="-388.74" font-family="Times,serif" font-size="10.00">allTransactionsOrderedDesc</text>
</g>
<!-- s -->
<g id="node6" class="node">
<title>s</title>
<polygon fill="none" stroke="black" points="1321,-292.5 1321,-309.5 1526,-309.5 1526,-292.5 1321,-292.5"/>
<text text-anchor="start" x="1406.5" y="-299.5" font-family="Times,serif" text-decoration="underline" font-size="10.00">s :Status</text>
<polygon fill="none" stroke="black" points="1321,-275.5 1321,-292.5 1526,-292.5 1526,-275.5 1321,-275.5"/>
<text text-anchor="start" x="1324" y="-281.5" font-family="Times,serif" font-size="10.00">declaringClass = class model.Transaction$Status</text>
</g>
<!-- eb80ce8a_ffb2_439e_ab45_2ba3e4b1b006&#45;&gt;s -->
<g id="edge5" class="edge">
<title>eb80ce8a_ffb2_439e_ab45_2ba3e4b1b006&#45;&gt;s</title>
<path fill="none" stroke="black" d="M955.59,-377.64C1049.47,-362.52 1182.11,-340.53 1298,-319 1307.25,-317.28 1316.88,-315.43 1326.5,-313.54"/>
<text text-anchor="middle" x="1314.5" y="-316.54" font-family="Times,serif" font-size="10.00">status</text>
</g>
<!-- b&#45;&gt;a12eb5c6_ace7_45e2_8ca3_1218f4d8a889 -->
<g id="edge10" class="edge">
<title>b&#45;&gt;a12eb5c6_ace7_45e2_8ca3_1218f4d8a889</title>
<path fill="none" stroke="black" d="M1030.01,-265.95C1089.25,-256.57 1154.13,-244.59 1213,-230 1217.75,-228.82 1222.56,-227.57 1227.4,-226.25"/>
<text text-anchor="middle" x="1208.9" y="-229.25" font-family="Times,serif" font-size="10.00">accounts</text>
<text text-anchor="middle" x="1019.51" y="-257.95" font-family="Times,serif" font-size="10.00">bank</text>
</g>
<!-- b&#45;&gt;00cbaf11_317a_4c54_80d6_bdb5b5fa2428 -->
<g id="edge9" class="edge">
<title>b&#45;&gt;00cbaf11_317a_4c54_80d6_bdb5b5fa2428</title>
<path fill="none" stroke="black" d="M594.97,-266C525.31,-256.7 449.28,-244.76 380,-230 364.63,-226.73 348.66,-222.82 332.85,-218.62"/>
<text text-anchor="middle" x="351.35" y="-221.62" font-family="Times,serif" font-size="10.00">accounts</text>
<text text-anchor="middle" x="584.47" y="-258" font-family="Times,serif" font-size="10.00">bank</text>
</g>
<!-- sendItToTheBank -->
<g id="node7" class="node">
<title>sendItToTheBank</title>
<polygon fill="none" stroke="black" points="398,-209 398,-226 547,-226 547,-209 398,-209"/>
<text text-anchor="start" x="415.5" y="-216" font-family="Times,serif" text-decoration="underline" font-size="10.00">sendItToTheBank :Account</text>
<polygon fill="none" stroke="black" points="398,-126 398,-209 547,-209 547,-126 398,-126"/>
<text text-anchor="start" x="401" y="-198" font-family="Times,serif" font-size="10.00">balance = 69420.0</text>
<text text-anchor="start" x="401" y="-187" font-family="Times,serif" font-size="10.00">customerId = null</text>
<text text-anchor="start" x="401" y="-176" font-family="Times,serif" font-size="10.00">iban = &quot;EE136950601765708054&quot;</text>
<text text-anchor="start" x="401" y="-165" font-family="Times,serif" font-size="10.00">id = &quot;sendItToTheBank&quot;</text>
<text text-anchor="start" x="401" y="-154" font-family="Times,serif" font-size="10.00">receivedTransaction = </text>
<text text-anchor="start" x="401" y="-143" font-family="Times,serif" font-size="10.00">sentTransaction = </text>
<text text-anchor="start" x="401" y="-132" font-family="Times,serif" font-size="10.00">status = &quot;ACTIVE&quot;</text>
</g>
<!-- b&#45;&gt;sendItToTheBank -->
<g id="edge6" class="edge">
<title>b&#45;&gt;sendItToTheBank</title>
<path fill="none" stroke="black" d="M685.07,-265.98C645.05,-256.85 602.24,-245 564,-230 560.91,-228.79 557.8,-227.49 554.69,-226.11"/>
<text text-anchor="middle" x="582.69" y="-229.11" font-family="Times,serif" font-size="10.00">bankAccount</text>
<text text-anchor="middle" x="674.57" y="-257.98" font-family="Times,serif" font-size="10.00">bank</text>
</g>
<!-- 8a633aa5_907c_4e57_a313_22e0adb2672e -->
<g id="node8" class="node">
<title>8a633aa5_907c_4e57_a313_22e0adb2672e</title>
<polygon fill="none" stroke="black" points="581,-209 581,-226 819,-226 819,-209 581,-209"/>
<text text-anchor="start" x="593" y="-216" font-family="Times,serif" text-decoration="underline" font-size="10.00">8a633aa5&#45;907c&#45;4e57&#45;a313&#45;22e0adb2672e :Account</text>
<polygon fill="none" stroke="black" points="581,-126 581,-209 819,-209 819,-126 581,-126"/>
<text text-anchor="start" x="584" y="-198" font-family="Times,serif" font-size="10.00">balance = 0.0</text>
<text text-anchor="start" x="584" y="-187" font-family="Times,serif" font-size="10.00">customerId = &quot;1eaf6f4c&#45;4f92&#45;4e04&#45;bd87&#45;c82be03265de&quot;</text>
<text text-anchor="start" x="584" y="-176" font-family="Times,serif" font-size="10.00">iban = null</text>
<text text-anchor="start" x="584" y="-165" font-family="Times,serif" font-size="10.00">id = &quot;8a633aa5&#45;907c&#45;4e57&#45;a313&#45;22e0adb2672e&quot;</text>
<text text-anchor="start" x="584" y="-154" font-family="Times,serif" font-size="10.00">receivedTransaction = </text>
<text text-anchor="start" x="584" y="-143" font-family="Times,serif" font-size="10.00">sentTransaction = </text>
<text text-anchor="start" x="584" y="-132" font-family="Times,serif" font-size="10.00">status = &quot;ACTIVE&quot;</text>
</g>
<!-- b&#45;&gt;8a633aa5_907c_4e57_a313_22e0adb2672e -->
<g id="edge7" class="edge">
<title>b&#45;&gt;8a633aa5_907c_4e57_a313_22e0adb2672e</title>
<path fill="none" stroke="black" d="M803.15,-265.8C790.82,-255.19 776.05,-242.47 761.58,-230.02"/>
<text text-anchor="middle" x="743.08" y="-233.02" font-family="Times,serif" font-size="10.00">accounts</text>
<text text-anchor="middle" x="792.65" y="-257.8" font-family="Times,serif" font-size="10.00">bank</text>
</g>
<!-- 7ec351d6_652f_4691_8e72_ea432d44a0c8 -->
<g id="node9" class="node">
<title>7ec351d6_652f_4691_8e72_ea432d44a0c8</title>
<polygon fill="none" stroke="black" points="891,-209 891,-226 1125,-226 1125,-209 891,-209"/>
<text text-anchor="start" x="901" y="-216" font-family="Times,serif" text-decoration="underline" font-size="10.00">7ec351d6&#45;652f&#45;4691&#45;8e72&#45;ea432d44a0c8 :Account</text>
<polygon fill="none" stroke="black" points="891,-126 891,-209 1125,-209 1125,-126 891,-126"/>
<text text-anchor="start" x="894" y="-198" font-family="Times,serif" font-size="10.00">balance = 100.0</text>
<text text-anchor="start" x="894" y="-187" font-family="Times,serif" font-size="10.00">customerId = &quot;e2f7bc4c&#45;ef2a&#45;466e&#45;b8a5&#45;d24f48b13afe&quot;</text>
<text text-anchor="start" x="894" y="-176" font-family="Times,serif" font-size="10.00">iban = null</text>
<text text-anchor="start" x="894" y="-165" font-family="Times,serif" font-size="10.00">id = &quot;7ec351d6&#45;652f&#45;4691&#45;8e72&#45;ea432d44a0c8&quot;</text>
<text text-anchor="start" x="894" y="-154" font-family="Times,serif" font-size="10.00">receivedTransaction = </text>
<text text-anchor="start" x="894" y="-143" font-family="Times,serif" font-size="10.00">sentTransaction = </text>
<text text-anchor="start" x="894" y="-132" font-family="Times,serif" font-size="10.00">status = &quot;ACTIVE&quot;</text>
</g>
<!-- b&#45;&gt;7ec351d6_652f_4691_8e72_ea432d44a0c8 -->
<g id="edge8" class="edge">
<title>b&#45;&gt;7ec351d6_652f_4691_8e72_ea432d44a0c8</title>
<path fill="none" stroke="black" d="M872.27,-265.8C888.5,-255.19 907.94,-242.47 926.97,-230.02"/>
<text text-anchor="middle" x="908.47" y="-233.02" font-family="Times,serif" font-size="10.00">accounts</text>
<text text-anchor="middle" x="861.77" y="-257.8" font-family="Times,serif" font-size="10.00">bank</text>
</g>
<!-- e2f7bc4c_ef2a_466e_b8a5_d24f48b13afe -->
<g id="node10" class="node">
<title>e2f7bc4c_ef2a_466e_b8a5_d24f48b13afe</title>
<polygon fill="none" stroke="black" points="928,-65 928,-82 1143,-82 1143,-65 928,-65"/>
<text text-anchor="start" x="931" y="-72" font-family="Times,serif" text-decoration="underline" font-size="10.00">e2f7bc4c&#45;ef2a&#45;466e&#45;b8a5&#45;d24f48b13afe :Customer</text>
<polygon fill="none" stroke="black" points="928,-4 928,-65 1143,-65 1143,-4 928,-4"/>
<text text-anchor="start" x="940" y="-54" font-family="Times,serif" font-size="10.00">email = &quot;john@doe.ee&quot;</text>
<text text-anchor="start" x="940" y="-43" font-family="Times,serif" font-size="10.00">firstName = &quot;John&quot;</text>
<text text-anchor="start" x="940" y="-32" font-family="Times,serif" font-size="10.00">id = &quot;e2f7bc4c&#45;ef2a&#45;466e&#45;b8a5&#45;d24f48b13afe&quot;</text>
<text text-anchor="start" x="940" y="-21" font-family="Times,serif" font-size="10.00">lastName = &quot;Doe&quot;</text>
<text text-anchor="start" x="940" y="-10" font-family="Times,serif" font-size="10.00">password = &quot;pass1234&quot;</text>
</g>
<!-- b&#45;&gt;e2f7bc4c_ef2a_466e_b8a5_d24f48b13afe -->
<g id="edge11" class="edge">
<title>b&#45;&gt;e2f7bc4c_ef2a_466e_b8a5_d24f48b13afe</title>
<path fill="none" stroke="black" d="M1060.77,-265.99C1098.35,-257.23 1129.25,-245.54 1142,-230 1172.45,-192.89 1163.76,-164.79 1142,-122 1134.97,-108.17 1124.2,-96.21 1112.17,-86.09"/>
<text text-anchor="middle" x="1091.67" y="-89.09" font-family="Times,serif" font-size="10.00">customers</text>
<text text-anchor="middle" x="1071.27" y="-257.99" font-family="Times,serif" font-size="10.00">bank</text>
</g>
<!-- 1eaf6f4c_4f92_4e04_bd87_c82be03265de -->
<g id="node11" class="node">
<title>1eaf6f4c_4f92_4e04_bd87_c82be03265de</title>
<polygon fill="none" stroke="black" points="619,-65 619,-82 838,-82 838,-65 619,-65"/>
<text text-anchor="start" x="622" y="-72" font-family="Times,serif" text-decoration="underline" font-size="10.00">1eaf6f4c&#45;4f92&#45;4e04&#45;bd87&#45;c82be03265de :Customer</text>
<polygon fill="none" stroke="black" points="619,-4 619,-65 838,-65 838,-4 619,-4"/>
<text text-anchor="start" x="631" y="-54" font-family="Times,serif" font-size="10.00">email = &quot;bobby@tt.ee&quot;</text>
<text text-anchor="start" x="631" y="-43" font-family="Times,serif" font-size="10.00">firstName = &quot;Bob&quot;</text>
<text text-anchor="start" x="631" y="-32" font-family="Times,serif" font-size="10.00">id = &quot;1eaf6f4c&#45;4f92&#45;4e04&#45;bd87&#45;c82be03265de&quot;</text>
<text text-anchor="start" x="631" y="-21" font-family="Times,serif" font-size="10.00">lastName = &quot;Jackson&quot;</text>
<text text-anchor="start" x="631" y="-10" font-family="Times,serif" font-size="10.00">password = &quot;secret&quot;</text>
</g>
<!-- b&#45;&gt;1eaf6f4c_4f92_4e04_bd87_c82be03265de -->
<g id="edge12" class="edge">
<title>b&#45;&gt;1eaf6f4c_4f92_4e04_bd87_c82be03265de</title>
<path fill="none" stroke="black" d="M840.53,-265.99C849.26,-231.3 859.65,-168.25 836,-122 828.95,-108.2 818.19,-96.28 806.14,-86.21"/>
<text text-anchor="middle" x="785.64" y="-89.21" font-family="Times,serif" font-size="10.00">customers</text>
<text text-anchor="middle" x="830.03" y="-257.99" font-family="Times,serif" font-size="10.00">bank</text>
</g>
<!-- 2564bc1c_7fa3_4cf5_9589_354ed4e36f07 -->
<g id="node12" class="node">
<title>2564bc1c_7fa3_4cf5_9589_354ed4e36f07</title>
<polygon fill="none" stroke="black" points="8,-65 8,-82 228,-82 228,-65 8,-65"/>
<text text-anchor="start" x="11" y="-72" font-family="Times,serif" text-decoration="underline" font-size="10.00">2564bc1c&#45;7fa3&#45;4cf5&#45;9589&#45;354ed4e36f07 :Customer</text>
<polygon fill="none" stroke="black" points="8,-4 8,-65 228,-65 228,-4 8,-4"/>
<text text-anchor="start" x="20" y="-54" font-family="Times,serif" font-size="10.00">email = &quot;johntest@doe.ee&quot;</text>
<text text-anchor="start" x="20" y="-43" font-family="Times,serif" font-size="10.00">firstName = &quot;johntest&quot;</text>
<text text-anchor="start" x="20" y="-32" font-family="Times,serif" font-size="10.00">id = &quot;2564bc1c&#45;7fa3&#45;4cf5&#45;9589&#45;354ed4e36f07&quot;</text>
<text text-anchor="start" x="20" y="-21" font-family="Times,serif" font-size="10.00">lastName = &quot;Doe&quot;</text>
<text text-anchor="start" x="20" y="-10" font-family="Times,serif" font-size="10.00">password = &quot;pass1234&quot;</text>
</g>
<!-- b&#45;&gt;2564bc1c_7fa3_4cf5_9589_354ed4e36f07 -->
<g id="edge13" class="edge">
<title>b&#45;&gt;2564bc1c_7fa3_4cf5_9589_354ed4e36f07</title>
<path fill="none" stroke="black" d="M409.27,-282.07C241.71,-273.87 82.39,-258.56 56,-230 23.43,-194.75 40.18,-167.32 56,-122 60.45,-109.26 67.94,-97.04 76.21,-86.21"/>
<text text-anchor="middle" x="55.71" y="-89.21" font-family="Times,serif" font-size="10.00">customers</text>
<text text-anchor="middle" x="398.77" y="-285.07" font-family="Times,serif" font-size="10.00">bank</text>
</g>
<!-- 78d10b6f_8cea_4f7d_a1a0_053932e4a0d3 -->
<g id="node13" class="node">
<title>78d10b6f_8cea_4f7d_a1a0_053932e4a0d3</title>
<polygon fill="none" stroke="black" points="1232,-65 1232,-82 1453,-82 1453,-65 1232,-65"/>
<text text-anchor="start" x="1235" y="-72" font-family="Times,serif" text-decoration="underline" font-size="10.00">78d10b6f&#45;8cea&#45;4f7d&#45;a1a0&#45;053932e4a0d3 :Customer</text>
<polygon fill="none" stroke="black" points="1232,-4 1232,-65 1453,-65 1453,-4 1232,-4"/>
<text text-anchor="start" x="1244" y="-54" font-family="Times,serif" font-size="10.00">email = &quot;bobbytest@tt.ee&quot;</text>
<text text-anchor="start" x="1244" y="-43" font-family="Times,serif" font-size="10.00">firstName = &quot;Bob&quot;</text>
<text text-anchor="start" x="1244" y="-32" font-family="Times,serif" font-size="10.00">id = &quot;78d10b6f&#45;8cea&#45;4f7d&#45;a1a0&#45;053932e4a0d3&quot;</text>
<text text-anchor="start" x="1244" y="-21" font-family="Times,serif" font-size="10.00">lastName = &quot;Jackson&quot;</text>
<text text-anchor="start" x="1244" y="-10" font-family="Times,serif" font-size="10.00">password = &quot;secret&quot;</text>
</g>
<!-- b&#45;&gt;78d10b6f_8cea_4f7d_a1a0_053932e4a0d3 -->
<g id="edge14" class="edge">
<title>b&#45;&gt;78d10b6f_8cea_4f7d_a1a0_053932e4a0d3</title>
<path fill="none" stroke="black" d="M1054.53,-265.98C1103.27,-256.9 1146.26,-245.08 1166,-230 1208.33,-197.66 1182.51,-161.73 1218,-122 1230.11,-108.44 1245.13,-96.37 1260.49,-86.01"/>
<text text-anchor="middle" x="1239.99" y="-89.01" font-family="Times,serif" font-size="10.00">customers</text>
<text text-anchor="middle" x="1044.03" y="-257.98" font-family="Times,serif" font-size="10.00">bank</text>
</g>
<!-- a12eb5c6_ace7_45e2_8ca3_1218f4d8a889&#45;&gt;c -->
<g id="edge15" class="edge">
<title>a12eb5c6_ace7_45e2_8ca3_1218f4d8a889&#45;&gt;c</title>
<path fill="none" stroke="black" d="M1227.47,-138.14C1199.3,-131.91 1169.84,-126.13 1142,-122 903.64,-86.6 837.56,-131.92 601,-86 575.17,-80.99 547.32,-72.27 524.22,-64.07"/>
<text text-anchor="middle" x="506.22" y="-67.07" font-family="Times,serif" font-size="10.00">currency</text>
</g>
<!-- a12eb5c6_ace7_45e2_8ca3_1218f4d8a889&#45;&gt;78d10b6f_8cea_4f7d_a1a0_053932e4a0d3 -->
<g id="edge16" class="edge">
<title>a12eb5c6_ace7_45e2_8ca3_1218f4d8a889&#45;&gt;78d10b6f_8cea_4f7d_a1a0_053932e4a0d3</title>
<path fill="none" stroke="black" d="M1358.61,-121.72C1356.1,-109.96 1353.47,-97.66 1351.06,-86.4"/>
<text text-anchor="middle" x="1338.06" y="-89.4" font-family="Times,serif" font-size="10.00">owner</text>
<text text-anchor="middle" x="1342.11" y="-113.72" font-family="Times,serif" font-size="10.00">account</text>
</g>
<!-- 00cbaf11_317a_4c54_80d6_bdb5b5fa2428&#45;&gt;c -->
<g id="edge17" class="edge">
<title>00cbaf11_317a_4c54_80d6_bdb5b5fa2428&#45;&gt;c</title>
<path fill="none" stroke="black" d="M310.05,-121.91C352.63,-101.55 398.67,-79.54 430.92,-64.12"/>
<text text-anchor="middle" x="412.92" y="-67.12" font-family="Times,serif" font-size="10.00">currency</text>
</g>
<!-- 00cbaf11_317a_4c54_80d6_bdb5b5fa2428&#45;&gt;2564bc1c_7fa3_4cf5_9589_354ed4e36f07 -->
<g id="edge18" class="edge">
<title>00cbaf11_317a_4c54_80d6_bdb5b5fa2428&#45;&gt;2564bc1c_7fa3_4cf5_9589_354ed4e36f07</title>
<path fill="none" stroke="black" d="M166.05,-121.72C158.78,-109.96 151.18,-97.66 144.21,-86.4"/>
<text text-anchor="middle" x="131.21" y="-89.4" font-family="Times,serif" font-size="10.00">owner</text>
<text text-anchor="middle" x="149.55" y="-113.72" font-family="Times,serif" font-size="10.00">account</text>
</g>
<!-- sendItToTheBank&#45;&gt;c -->
<g id="edge19" class="edge">
<title>sendItToTheBank&#45;&gt;c</title>
<path fill="none" stroke="black" d="M472.41,-121.72C472.56,-101.46 472.73,-79.58 472.85,-64.22"/>
<text text-anchor="middle" x="490.85" y="-67.22" font-family="Times,serif" font-size="10.00">currency</text>
</g>
<!-- 8a633aa5_907c_4e57_a313_22e0adb2672e&#45;&gt;c -->
<g id="edge20" class="edge">
<title>8a633aa5_907c_4e57_a313_22e0adb2672e&#45;&gt;c</title>
<path fill="none" stroke="black" d="M608,-121.91C572.73,-101.55 534.58,-79.54 507.86,-64.12"/>
<text text-anchor="middle" x="525.86" y="-67.12" font-family="Times,serif" font-size="10.00">currency</text>
</g>
<!-- 8a633aa5_907c_4e57_a313_22e0adb2672e&#45;&gt;1eaf6f4c_4f92_4e04_bd87_c82be03265de -->
<g id="edge21" class="edge">
<title>8a633aa5_907c_4e57_a313_22e0adb2672e&#45;&gt;1eaf6f4c_4f92_4e04_bd87_c82be03265de</title>
<path fill="none" stroke="black" d="M711.39,-121.72C713.9,-109.96 716.53,-97.66 718.94,-86.4"/>
<text text-anchor="middle" x="705.94" y="-89.4" font-family="Times,serif" font-size="10.00">owner</text>
<text text-anchor="middle" x="694.89" y="-113.72" font-family="Times,serif" font-size="10.00">account</text>
</g>
<!-- 7ec351d6_652f_4691_8e72_ea432d44a0c8&#45;&gt;c -->
<g id="edge22" class="edge">
<title>7ec351d6_652f_4691_8e72_ea432d44a0c8&#45;&gt;c</title>
<path fill="none" stroke="black" d="M882.7,-134.06C867.07,-129.64 851.23,-125.49 836,-122 733.01,-98.38 703.77,-110.55 601,-86 576.55,-80.16 550.06,-71.82 527.56,-64.1"/>
<text text-anchor="middle" x="545.56" y="-67.1" font-family="Times,serif" font-size="10.00">currency</text>
</g>
<!-- 7ec351d6_652f_4691_8e72_ea432d44a0c8&#45;&gt;e2f7bc4c_ef2a_466e_b8a5_d24f48b13afe -->
<g id="edge23" class="edge">
<title>7ec351d6_652f_4691_8e72_ea432d44a0c8&#45;&gt;e2f7bc4c_ef2a_466e_b8a5_d24f48b13afe</title>
<path fill="none" stroke="black" d="M1018.98,-121.72C1021.41,-109.96 1023.94,-97.66 1026.26,-86.4"/>
<text text-anchor="middle" x="1013.26" y="-89.4" font-family="Times,serif" font-size="10.00">owner</text>
<text text-anchor="middle" x="1002.48" y="-113.72" font-family="Times,serif" font-size="10.00">account</text>
</g>
</g>
</svg>
