<?xml version="1.0" encoding="UTF-8" standalone="no"?>
<!DOCTYPE svg PUBLIC "-//W3C//DTD SVG 1.1//EN"
 "http://www.w3.org/Graphics/SVG/1.1/DTD/svg11.dtd">
<!-- Generated by graphviz version 2.43.0 (0)
 -->
<!-- Title: model Pages: 1 -->
<svg width="1638px" height="449px"
 viewBox="0.00 0.00 1637.50 449.00" xmlns="http://www.w3.org/2000/svg" xmlns:xlink="http://www.w3.org/1999/xlink">
<g id="graph0" class="graph" transform="scale(1.0 1.0) rotate(0) translate(4 445)">
<title>model</title>
<polygon fill="white" stroke="transparent" points="-4,4 -4,-445 1633.5,-445 1633.5,4 -4,4"/>
<!-- 2f4e376c_3efa_4f25_9e4d_a43fc43f6bda -->
<g id="node1" class="node">
<title>2f4e376c_3efa_4f25_9e4d_a43fc43f6bda</title>
<polygon fill="none" stroke="black" points="109,-420 109,-437 332,-437 332,-420 109,-420"/>
<text text-anchor="start" x="112" y="-427" font-family="Times,serif" text-decoration="underline" font-size="10.00">2f4e376c&#45;3efa&#45;4f25&#45;9e4d&#45;a43fc43f6bda :Transaction</text>
<polygon fill="none" stroke="black" points="109,-359 109,-420 332,-420 332,-359 109,-359"/>
<text text-anchor="start" x="124" y="-409" font-family="Times,serif" font-size="10.00">amount = 25.0</text>
<text text-anchor="start" x="124" y="-398" font-family="Times,serif" font-size="10.00">description = &quot;Ref: concert ticket&quot;</text>
<text text-anchor="start" x="124" y="-387" font-family="Times,serif" font-size="10.00">id = &quot;2f4e376c&#45;3efa&#45;4f25&#45;9e4d&#45;a43fc43f6bda&quot;</text>
<text text-anchor="start" x="124" y="-376" font-family="Times,serif" font-size="10.00">rejectionDescription = &quot;&quot;</text>
<text text-anchor="start" x="124" y="-365" font-family="Times,serif" font-size="10.00">timestamp = 2021&#45;12&#45;04T18:01:05.104368110</text>
</g>
<!-- b -->
<g id="node2" class="node">
<title>b</title>
<polygon fill="none" stroke="black" points="275,-297.5 275,-314.5 1109,-314.5 1109,-297.5 275,-297.5"/>
<text text-anchor="start" x="675.5" y="-304.5" font-family="Times,serif" text-decoration="underline" font-size="10.00">b :Bank</text>
<polygon fill="none" stroke="black" points="275,-269.5 275,-297.5 1109,-297.5 1109,-269.5 275,-269.5"/>
<text text-anchor="start" x="278" y="-286.5" font-family="Times,serif" font-size="10.00">accountsMap = 5fd9a658&#45;3e26&#45;472b&#45;a832&#45;5310a533332esendItToTheBank8a633aa5&#45;907c&#45;4e57&#45;a313&#45;22e0adb2672ec5db6edf&#45;4cc3&#45;4bcd&#45;a2e8&#45;ce2bb2c42a517ec351d6&#45;652f&#45;4691&#45;8e72&#45;ea432d44a0c8</text>
<text text-anchor="start" x="278" y="-275.5" font-family="Times,serif" font-size="10.00">customerMap = e529f9d7&#45;814a&#45;4403&#45;a3c8&#45;ad66c3dc67a9e2f7bc4c&#45;ef2a&#45;466e&#45;b8a5&#45;d24f48b13afe5524d813&#45;ea4a&#45;4563&#45;adcf&#45;35adb2c85de51eaf6f4c&#45;4f92&#45;4e04&#45;bd87&#45;c82be03265de</text>
</g>
<!-- 2f4e376c_3efa_4f25_9e4d_a43fc43f6bda&#45;&gt;b -->
<g id="edge1" class="edge">
<title>2f4e376c_3efa_4f25_9e4d_a43fc43f6bda&#45;&gt;b</title>
<path fill="none" stroke="black" d="M339.72,-370.75C412.09,-354.88 503.92,-334.74 575.67,-319.01"/>
<text text-anchor="middle" x="565.17" y="-322.01" font-family="Times,serif" font-size="10.00">bank</text>
<text text-anchor="middle" x="364.22" y="-373.75" font-family="Times,serif" font-size="10.00">transactions</text>
</g>
<!-- c -->
<g id="node3" class="node">
<title>c</title>
<polygon fill="none" stroke="black" points="8,-43 8,-60 172,-60 172,-43 8,-43"/>
<text text-anchor="start" x="66" y="-50" font-family="Times,serif" text-decoration="underline" font-size="10.00">c :Currency</text>
<polygon fill="none" stroke="black" points="8,-26 8,-43 172,-43 172,-26 8,-26"/>
<text text-anchor="start" x="11" y="-32" font-family="Times,serif" font-size="10.00">declaringClass = class model.Currency</text>
</g>
<!-- 2f4e376c_3efa_4f25_9e4d_a43fc43f6bda&#45;&gt;c -->
<g id="edge2" class="edge">
<title>2f4e376c_3efa_4f25_9e4d_a43fc43f6bda&#45;&gt;c</title>
<path fill="none" stroke="black" d="M166.72,-354.72C132.77,-324.18 91.75,-279.69 73,-230 51.42,-172.81 70.84,-99 82.58,-64.05"/>
<text text-anchor="middle" x="64.58" y="-67.05" font-family="Times,serif" font-size="10.00">currency</text>
</g>
<!-- c5db6edf_4cc3_4bcd_a2e8_ce2bb2c42a51 -->
<g id="node4" class="node">
<title>c5db6edf_4cc3_4bcd_a2e8_ce2bb2c42a51</title>
<polygon fill="none" stroke="black" points="346,-209 346,-226 563,-226 563,-209 346,-209"/>
<text text-anchor="start" x="349" y="-216" font-family="Times,serif" text-decoration="underline" font-size="10.00">c5db6edf&#45;4cc3&#45;4bcd&#45;a2e8&#45;ce2bb2c42a51 :Account</text>
<polygon fill="none" stroke="black" points="346,-126 346,-209 563,-209 563,-126 346,-126"/>
<text text-anchor="start" x="356.5" y="-198" font-family="Times,serif" font-size="10.00">balance = 0.0</text>
<text text-anchor="start" x="356.5" y="-187" font-family="Times,serif" font-size="10.00">customerId = null</text>
<text text-anchor="start" x="356.5" y="-176" font-family="Times,serif" font-size="10.00">iban = &quot;EE825824120568699134&quot;</text>
<text text-anchor="start" x="356.5" y="-165" font-family="Times,serif" font-size="10.00">id = &quot;c5db6edf&#45;4cc3&#45;4bcd&#45;a2e8&#45;ce2bb2c42a51&quot;</text>
<text text-anchor="start" x="356.5" y="-154" font-family="Times,serif" font-size="10.00">receivedTransaction = </text>
<text text-anchor="start" x="356.5" y="-143" font-family="Times,serif" font-size="10.00">sentTransaction = </text>
<text text-anchor="start" x="356.5" y="-132" font-family="Times,serif" font-size="10.00">status = &quot;ACTIVE&quot;</text>
</g>
<!-- 2f4e376c_3efa_4f25_9e4d_a43fc43f6bda&#45;&gt;c5db6edf_4cc3_4bcd_a2e8_ce2bb2c42a51 -->
<g id="edge3" class="edge">
<title>2f4e376c_3efa_4f25_9e4d_a43fc43f6bda&#45;&gt;c5db6edf_4cc3_4bcd_a2e8_ce2bb2c42a51</title>
<path fill="none" stroke="black" d="M223.15,-354.91C227.24,-326.85 236.61,-290.71 258,-266 261.32,-262.16 297.19,-245.52 337.36,-227.65"/>
<text text-anchor="middle" x="314.36" y="-230.65" font-family="Times,serif" font-size="10.00">destination</text>
</g>
<!-- 5fd9a658_3e26_472b_a832_5310a533332e -->
<g id="node5" class="node">
<title>5fd9a658_3e26_472b_a832_5310a533332e</title>
<polygon fill="none" stroke="black" points="91,-209 91,-226 312,-226 312,-209 91,-209"/>
<text text-anchor="start" x="94" y="-216" font-family="Times,serif" text-decoration="underline" font-size="10.00">5fd9a658&#45;3e26&#45;472b&#45;a832&#45;5310a533332e :Account</text>
<polygon fill="none" stroke="black" points="91,-126 91,-209 312,-209 312,-126 91,-126"/>
<text text-anchor="start" x="101" y="-198" font-family="Times,serif" font-size="10.00">balance = 100.0</text>
<text text-anchor="start" x="101" y="-187" font-family="Times,serif" font-size="10.00">customerId = null</text>
<text text-anchor="start" x="101" y="-176" font-family="Times,serif" font-size="10.00">iban = &quot;EE816796173513949674&quot;</text>
<text text-anchor="start" x="101" y="-165" font-family="Times,serif" font-size="10.00">id = &quot;5fd9a658&#45;3e26&#45;472b&#45;a832&#45;5310a533332e&quot;</text>
<text text-anchor="start" x="101" y="-154" font-family="Times,serif" font-size="10.00">receivedTransaction = </text>
<text text-anchor="start" x="101" y="-143" font-family="Times,serif" font-size="10.00">sentTransaction = </text>
<text text-anchor="start" x="101" y="-132" font-family="Times,serif" font-size="10.00">status = &quot;ACTIVE&quot;</text>
</g>
<!-- 2f4e376c_3efa_4f25_9e4d_a43fc43f6bda&#45;&gt;5fd9a658_3e26_472b_a832_5310a533332e -->
<g id="edge4" class="edge">
<title>2f4e376c_3efa_4f25_9e4d_a43fc43f6bda&#45;&gt;5fd9a658_3e26_472b_a832_5310a533332e</title>
<path fill="none" stroke="black" d="M216.36,-354.84C213.3,-319.41 208.91,-268.57 205.6,-230.31"/>
<text text-anchor="middle" x="192.1" y="-233.31" font-family="Times,serif" font-size="10.00">source</text>
</g>
<!-- b&#45;&gt;c5db6edf_4cc3_4bcd_a2e8_ce2bb2c42a51 -->
<g id="edge10" class="edge">
<title>b&#45;&gt;c5db6edf_4cc3_4bcd_a2e8_ce2bb2c42a51</title>
<path fill="none" stroke="black" d="M638.88,-265.95C616.83,-255.34 590.36,-242.6 564.44,-230.13"/>
<text text-anchor="middle" x="545.94" y="-233.13" font-family="Times,serif" font-size="10.00">accounts</text>
<text text-anchor="middle" x="628.38" y="-257.95" font-family="Times,serif" font-size="10.00">bank</text>
</g>
<!-- b&#45;&gt;5fd9a658_3e26_472b_a832_5310a533332e -->
<g id="edge9" class="edge">
<title>b&#45;&gt;5fd9a658_3e26_472b_a832_5310a533332e</title>
<path fill="none" stroke="black" d="M490.84,-265.92C437.37,-256.85 380.03,-245.04 328,-230 325.25,-229.2 322.47,-228.37 319.68,-227.49"/>
<text text-anchor="middle" x="338.18" y="-219.49" font-family="Times,serif" font-size="10.00">accounts</text>
<text text-anchor="middle" x="480.34" y="-257.92" font-family="Times,serif" font-size="10.00">bank</text>
</g>
<!-- sendItToTheBank -->
<g id="node6" class="node">
<title>sendItToTheBank</title>
<polygon fill="none" stroke="black" points="984,-209 984,-226 1133,-226 1133,-209 984,-209"/>
<text text-anchor="start" x="1001.5" y="-216" font-family="Times,serif" text-decoration="underline" font-size="10.00">sendItToTheBank :Account</text>
<polygon fill="none" stroke="black" points="984,-126 984,-209 1133,-209 1133,-126 984,-126"/>
<text text-anchor="start" x="987" y="-198" font-family="Times,serif" font-size="10.00">balance = 69420.0</text>
<text text-anchor="start" x="987" y="-187" font-family="Times,serif" font-size="10.00">customerId = null</text>
<text text-anchor="start" x="987" y="-176" font-family="Times,serif" font-size="10.00">iban = &quot;EE440422622850933887&quot;</text>
<text text-anchor="start" x="987" y="-165" font-family="Times,serif" font-size="10.00">id = &quot;sendItToTheBank&quot;</text>
<text text-anchor="start" x="987" y="-154" font-family="Times,serif" font-size="10.00">receivedTransaction = </text>
<text text-anchor="start" x="987" y="-143" font-family="Times,serif" font-size="10.00">sentTransaction = </text>
<text text-anchor="start" x="987" y="-132" font-family="Times,serif" font-size="10.00">status = &quot;ACTIVE&quot;</text>
</g>
<!-- b&#45;&gt;sendItToTheBank -->
<g id="edge5" class="edge">
<title>b&#45;&gt;sendItToTheBank</title>
<path fill="none" stroke="black" d="M843.76,-265.99C884.21,-256.89 927.39,-245.05 966,-230 969.09,-228.79 972.2,-227.5 975.32,-226.13"/>
<text text-anchor="middle" x="947.32" y="-229.13" font-family="Times,serif" font-size="10.00">bankAccount</text>
<text text-anchor="middle" x="833.26" y="-257.99" font-family="Times,serif" font-size="10.00">bank</text>
</g>
<!-- sendItToTheBank1 -->
<g id="node7" class="node">
<title>sendItToTheBank1</title>
<polygon fill="none" stroke="black" points="1167,-209 1167,-226 1287,-226 1287,-209 1167,-209"/>
<text text-anchor="start" x="1170" y="-216" font-family="Times,serif" text-decoration="underline" font-size="10.00">sendItToTheBank :Account</text>
<polygon fill="none" stroke="black" points="1167,-126 1167,-209 1287,-209 1287,-126 1167,-126"/>
<text text-anchor="start" x="1177" y="-198" font-family="Times,serif" font-size="10.00">balance = 74420.0</text>
<text text-anchor="start" x="1177" y="-187" font-family="Times,serif" font-size="10.00">customerId = &quot;&quot;</text>
<text text-anchor="start" x="1177" y="-176" font-family="Times,serif" font-size="10.00">iban = null</text>
<text text-anchor="start" x="1177" y="-165" font-family="Times,serif" font-size="10.00">id = &quot;sendItToTheBank&quot;</text>
<text text-anchor="start" x="1177" y="-154" font-family="Times,serif" font-size="10.00">receivedTransaction = </text>
<text text-anchor="start" x="1177" y="-143" font-family="Times,serif" font-size="10.00">sentTransaction = </text>
<text text-anchor="start" x="1177" y="-132" font-family="Times,serif" font-size="10.00">status = &quot;ACTIVE&quot;</text>
</g>
<!-- b&#45;&gt;sendItToTheBank1 -->
<g id="edge6" class="edge">
<title>b&#45;&gt;sendItToTheBank1</title>
<path fill="none" stroke="black" d="M1020.85,-265.96C1064.74,-257.16 1108.53,-245.48 1149,-230 1152.21,-228.77 1155.42,-227.39 1158.61,-225.88"/>
<text text-anchor="middle" x="1140.11" y="-228.88" font-family="Times,serif" font-size="10.00">accounts</text>
<text text-anchor="middle" x="1010.35" y="-257.96" font-family="Times,serif" font-size="10.00">bank</text>
</g>
<!-- 8a633aa5_907c_4e57_a313_22e0adb2672e -->
<g id="node8" class="node">
<title>8a633aa5_907c_4e57_a313_22e0adb2672e</title>
<polygon fill="none" stroke="black" points="711,-209 711,-226 949,-226 949,-209 711,-209"/>
<text text-anchor="start" x="723" y="-216" font-family="Times,serif" text-decoration="underline" font-size="10.00">8a633aa5&#45;907c&#45;4e57&#45;a313&#45;22e0adb2672e :Account</text>
<polygon fill="none" stroke="black" points="711,-126 711,-209 949,-209 949,-126 711,-126"/>
<text text-anchor="start" x="714" y="-198" font-family="Times,serif" font-size="10.00">balance = 0.0</text>
<text text-anchor="start" x="714" y="-187" font-family="Times,serif" font-size="10.00">customerId = &quot;1eaf6f4c&#45;4f92&#45;4e04&#45;bd87&#45;c82be03265de&quot;</text>
<text text-anchor="start" x="714" y="-176" font-family="Times,serif" font-size="10.00">iban = null</text>
<text text-anchor="start" x="714" y="-165" font-family="Times,serif" font-size="10.00">id = &quot;8a633aa5&#45;907c&#45;4e57&#45;a313&#45;22e0adb2672e&quot;</text>
<text text-anchor="start" x="714" y="-154" font-family="Times,serif" font-size="10.00">receivedTransaction = </text>
<text text-anchor="start" x="714" y="-143" font-family="Times,serif" font-size="10.00">sentTransaction = </text>
<text text-anchor="start" x="714" y="-132" font-family="Times,serif" font-size="10.00">status = &quot;ACTIVE&quot;</text>
</g>
<!-- b&#45;&gt;8a633aa5_907c_4e57_a313_22e0adb2672e -->
<g id="edge7" class="edge">
<title>b&#45;&gt;8a633aa5_907c_4e57_a313_22e0adb2672e</title>
<path fill="none" stroke="black" d="M722.97,-265.8C735.76,-255.19 751.1,-242.47 766.1,-230.02"/>
<text text-anchor="middle" x="747.6" y="-233.02" font-family="Times,serif" font-size="10.00">accounts</text>
<text text-anchor="middle" x="712.47" y="-257.8" font-family="Times,serif" font-size="10.00">bank</text>
</g>
<!-- 7ec351d6_652f_4691_8e72_ea432d44a0c8 -->
<g id="node9" class="node">
<title>7ec351d6_652f_4691_8e72_ea432d44a0c8</title>
<polygon fill="none" stroke="black" points="1321,-209 1321,-226 1555,-226 1555,-209 1321,-209"/>
<text text-anchor="start" x="1331" y="-216" font-family="Times,serif" text-decoration="underline" font-size="10.00">7ec351d6&#45;652f&#45;4691&#45;8e72&#45;ea432d44a0c8 :Account</text>
<polygon fill="none" stroke="black" points="1321,-126 1321,-209 1555,-209 1555,-126 1321,-126"/>
<text text-anchor="start" x="1324" y="-198" font-family="Times,serif" font-size="10.00">balance = 100.0</text>
<text text-anchor="start" x="1324" y="-187" font-family="Times,serif" font-size="10.00">customerId = &quot;e2f7bc4c&#45;ef2a&#45;466e&#45;b8a5&#45;d24f48b13afe&quot;</text>
<text text-anchor="start" x="1324" y="-176" font-family="Times,serif" font-size="10.00">iban = null</text>
<text text-anchor="start" x="1324" y="-165" font-family="Times,serif" font-size="10.00">id = &quot;7ec351d6&#45;652f&#45;4691&#45;8e72&#45;ea432d44a0c8&quot;</text>
<text text-anchor="start" x="1324" y="-154" font-family="Times,serif" font-size="10.00">receivedTransaction = </text>
<text text-anchor="start" x="1324" y="-143" font-family="Times,serif" font-size="10.00">sentTransaction = </text>
<text text-anchor="start" x="1324" y="-132" font-family="Times,serif" font-size="10.00">status = &quot;ACTIVE&quot;</text>
</g>
<!-- b&#45;&gt;7ec351d6_652f_4691_8e72_ea432d44a0c8 -->
<g id="edge8" class="edge">
<title>b&#45;&gt;7ec351d6_652f_4691_8e72_ea432d44a0c8</title>
<path fill="none" stroke="black" d="M1103.27,-265.96C1170.88,-257.26 1239.8,-245.6 1304,-230 1306.92,-229.29 1309.86,-228.53 1312.81,-227.73"/>
<text text-anchor="middle" x="1294.31" y="-230.73" font-family="Times,serif" font-size="10.00">accounts</text>
<text text-anchor="middle" x="1092.77" y="-257.96" font-family="Times,serif" font-size="10.00">bank</text>
</g>
<!-- e2f7bc4c_ef2a_466e_b8a5_d24f48b13afe -->
<g id="node10" class="node">
<title>e2f7bc4c_ef2a_466e_b8a5_d24f48b13afe</title>
<polygon fill="none" stroke="black" points="1407,-65 1407,-82 1622,-82 1622,-65 1407,-65"/>
<text text-anchor="start" x="1410" y="-72" font-family="Times,serif" text-decoration="underline" font-size="10.00">e2f7bc4c&#45;ef2a&#45;466e&#45;b8a5&#45;d24f48b13afe :Customer</text>
<polygon fill="none" stroke="black" points="1407,-4 1407,-65 1622,-65 1622,-4 1407,-4"/>
<text text-anchor="start" x="1419" y="-54" font-family="Times,serif" font-size="10.00">email = &quot;john@doe.ee&quot;</text>
<text text-anchor="start" x="1419" y="-43" font-family="Times,serif" font-size="10.00">firstName = &quot;John&quot;</text>
<text text-anchor="start" x="1419" y="-32" font-family="Times,serif" font-size="10.00">id = &quot;e2f7bc4c&#45;ef2a&#45;466e&#45;b8a5&#45;d24f48b13afe&quot;</text>
<text text-anchor="start" x="1419" y="-21" font-family="Times,serif" font-size="10.00">lastName = &quot;Doe&quot;</text>
<text text-anchor="start" x="1419" y="-10" font-family="Times,serif" font-size="10.00">password = &quot;pass1234&quot;</text>
</g>
<!-- b&#45;&gt;e2f7bc4c_ef2a_466e_b8a5_d24f48b13afe -->
<g id="edge11" class="edge">
<title>b&#45;&gt;e2f7bc4c_ef2a_466e_b8a5_d24f48b13afe</title>
<path fill="none" stroke="black" d="M1117.17,-287.31C1325.62,-280.72 1539.11,-265.26 1572,-230 1604.74,-194.9 1587.09,-167.57 1572,-122 1567.81,-109.34 1560.68,-97.07 1552.83,-86.15"/>
<text text-anchor="middle" x="1532.33" y="-89.15" font-family="Times,serif" font-size="10.00">customers</text>
<text text-anchor="middle" x="1127.67" y="-290.31" font-family="Times,serif" font-size="10.00">bank</text>
</g>
<!-- 1eaf6f4c_4f92_4e04_bd87_c82be03265de -->
<g id="node11" class="node">
<title>1eaf6f4c_4f92_4e04_bd87_c82be03265de</title>
<polygon fill="none" stroke="black" points="721,-65 721,-82 940,-82 940,-65 721,-65"/>
<text text-anchor="start" x="724" y="-72" font-family="Times,serif" text-decoration="underline" font-size="10.00">1eaf6f4c&#45;4f92&#45;4e04&#45;bd87&#45;c82be03265de :Customer</text>
<polygon fill="none" stroke="black" points="721,-4 721,-65 940,-65 940,-4 721,-4"/>
<text text-anchor="start" x="733" y="-54" font-family="Times,serif" font-size="10.00">email = &quot;bobby@tt.ee&quot;</text>
<text text-anchor="start" x="733" y="-43" font-family="Times,serif" font-size="10.00">firstName = &quot;Bob&quot;</text>
<text text-anchor="start" x="733" y="-32" font-family="Times,serif" font-size="10.00">id = &quot;1eaf6f4c&#45;4f92&#45;4e04&#45;bd87&#45;c82be03265de&quot;</text>
<text text-anchor="start" x="733" y="-21" font-family="Times,serif" font-size="10.00">lastName = &quot;Jackson&quot;</text>
<text text-anchor="start" x="733" y="-10" font-family="Times,serif" font-size="10.00">password = &quot;secret&quot;</text>
</g>
<!-- b&#45;&gt;1eaf6f4c_4f92_4e04_bd87_c82be03265de -->
<g id="edge12" class="edge">
<title>b&#45;&gt;1eaf6f4c_4f92_4e04_bd87_c82be03265de</title>
<path fill="none" stroke="black" d="M684.92,-265.87C676.77,-230.75 667.63,-166.92 694,-122 702.34,-107.8 714.33,-95.95 727.79,-86.15"/>
<text text-anchor="middle" x="707.29" y="-89.15" font-family="Times,serif" font-size="10.00">customers</text>
<text text-anchor="middle" x="674.42" y="-257.87" font-family="Times,serif" font-size="10.00">bank</text>
</g>
<!-- e529f9d7_814a_4403_a3c8_ad66c3dc67a9 -->
<g id="node12" class="node">
<title>e529f9d7_814a_4403_a3c8_ad66c3dc67a9</title>
<polygon fill="none" stroke="black" points="207,-65 207,-82 430,-82 430,-65 207,-65"/>
<text text-anchor="start" x="210" y="-72" font-family="Times,serif" text-decoration="underline" font-size="10.00">e529f9d7&#45;814a&#45;4403&#45;a3c8&#45;ad66c3dc67a9 :Customer</text>
<polygon fill="none" stroke="black" points="207,-4 207,-65 430,-65 430,-4 207,-4"/>
<text text-anchor="start" x="219" y="-54" font-family="Times,serif" font-size="10.00">email = &quot;johntest@doe.ee&quot;</text>
<text text-anchor="start" x="219" y="-43" font-family="Times,serif" font-size="10.00">firstName = &quot;johntest&quot;</text>
<text text-anchor="start" x="219" y="-32" font-family="Times,serif" font-size="10.00">id = &quot;e529f9d7&#45;814a&#45;4403&#45;a3c8&#45;ad66c3dc67a9&quot;</text>
<text text-anchor="start" x="219" y="-21" font-family="Times,serif" font-size="10.00">lastName = &quot;Doe&quot;</text>
<text text-anchor="start" x="219" y="-10" font-family="Times,serif" font-size="10.00">password = &quot;pass1234&quot;</text>
</g>
<!-- b&#45;&gt;e529f9d7_814a_4403_a3c8_ad66c3dc67a9 -->
<g id="edge13" class="edge">
<title>b&#45;&gt;e529f9d7_814a_4403_a3c8_ad66c3dc67a9</title>
<path fill="none" stroke="black" d="M649.56,-265.82C636.29,-256.03 622.62,-243.85 613,-230 584.29,-188.67 615.3,-156.85 579,-122 534.83,-79.59 504.67,-103.55 446,-86 443.2,-85.16 440.37,-84.31 437.51,-83.44"/>
<text text-anchor="middle" x="458.01" y="-86.44" font-family="Times,serif" font-size="10.00">customers</text>
<text text-anchor="middle" x="649.56" y="-257.82" font-family="Times,serif" font-size="10.00">bank</text>
</g>
<!-- 5524d813_ea4a_4563_adcf_35adb2c85de5 -->
<g id="node13" class="node">
<title>5524d813_ea4a_4563_adcf_35adb2c85de5</title>
<polygon fill="none" stroke="black" points="464,-65 464,-82 687,-82 687,-65 464,-65"/>
<text text-anchor="start" x="467" y="-72" font-family="Times,serif" text-decoration="underline" font-size="10.00">5524d813&#45;ea4a&#45;4563&#45;adcf&#45;35adb2c85de5 :Customer</text>
<polygon fill="none" stroke="black" points="464,-4 464,-65 687,-65 687,-4 464,-4"/>
<text text-anchor="start" x="476" y="-54" font-family="Times,serif" font-size="10.00">email = &quot;bobbytest@tt.ee&quot;</text>
<text text-anchor="start" x="476" y="-43" font-family="Times,serif" font-size="10.00">firstName = &quot;Bob&quot;</text>
<text text-anchor="start" x="476" y="-32" font-family="Times,serif" font-size="10.00">id = &quot;5524d813&#45;ea4a&#45;4563&#45;adcf&#45;35adb2c85de5&quot;</text>
<text text-anchor="start" x="476" y="-21" font-family="Times,serif" font-size="10.00">lastName = &quot;Jackson&quot;</text>
<text text-anchor="start" x="476" y="-10" font-family="Times,serif" font-size="10.00">password = &quot;secret&quot;</text>
</g>
<!-- b&#45;&gt;5524d813_ea4a_4563_adcf_35adb2c85de5 -->
<g id="edge14" class="edge">
<title>b&#45;&gt;5524d813_ea4a_4563_adcf_35adb2c85de5</title>
<path fill="none" stroke="black" d="M678.75,-265.9C673.15,-254.91 666.63,-241.89 661,-230 638.51,-182.53 635.17,-169.62 613,-122 607.6,-110.39 601.59,-97.89 595.98,-86.38"/>
<text text-anchor="middle" x="575.48" y="-89.38" font-family="Times,serif" font-size="10.00">customers</text>
<text text-anchor="middle" x="689.25" y="-257.9" font-family="Times,serif" font-size="10.00">bank</text>
</g>
<!-- c5db6edf_4cc3_4bcd_a2e8_ce2bb2c42a51&#45;&gt;c -->
<g id="edge15" class="edge">
<title>c5db6edf_4cc3_4bcd_a2e8_ce2bb2c42a51&#45;&gt;c</title>
<path fill="none" stroke="black" d="M337.18,-125.19C334.1,-124.09 331.04,-123.03 328,-122 267.54,-101.57 249.43,-106.52 189,-86 170.44,-79.7 150.45,-71.5 133.32,-64.02"/>
<text text-anchor="middle" x="151.32" y="-67.02" font-family="Times,serif" font-size="10.00">currency</text>
</g>
<!-- c5db6edf_4cc3_4bcd_a2e8_ce2bb2c42a51&#45;&gt;5524d813_ea4a_4563_adcf_35adb2c85de5 -->
<g id="edge16" class="edge">
<title>c5db6edf_4cc3_4bcd_a2e8_ce2bb2c42a51&#45;&gt;5524d813_ea4a_4563_adcf_35adb2c85de5</title>
<path fill="none" stroke="black" d="M503.22,-121.72C514.08,-109.96 525.44,-97.66 535.84,-86.4"/>
<text text-anchor="middle" x="522.84" y="-89.4" font-family="Times,serif" font-size="10.00">owner</text>
<text text-anchor="middle" x="486.72" y="-113.72" font-family="Times,serif" font-size="10.00">account</text>
</g>
<!-- 5fd9a658_3e26_472b_a832_5310a533332e&#45;&gt;c -->
<g id="edge17" class="edge">
<title>5fd9a658_3e26_472b_a832_5310a533332e&#45;&gt;c</title>
<path fill="none" stroke="black" d="M155.85,-121.72C138.69,-101.46 120.15,-79.58 107.13,-64.22"/>
<text text-anchor="middle" x="125.13" y="-67.22" font-family="Times,serif" font-size="10.00">currency</text>
</g>
<!-- 5fd9a658_3e26_472b_a832_5310a533332e&#45;&gt;e529f9d7_814a_4403_a3c8_ad66c3dc67a9 -->
<g id="edge18" class="edge">
<title>5fd9a658_3e26_472b_a832_5310a533332e&#45;&gt;e529f9d7_814a_4403_a3c8_ad66c3dc67a9</title>
<path fill="none" stroke="black" d="M248.59,-121.72C259.09,-109.96 270.08,-97.66 280.13,-86.4"/>
<text text-anchor="middle" x="267.13" y="-89.4" font-family="Times,serif" font-size="10.00">owner</text>
<text text-anchor="middle" x="232.09" y="-113.72" font-family="Times,serif" font-size="10.00">account</text>
</g>
<!-- c2 -->
<g id="node14" class="node">
<title>c2</title>
<polygon fill="none" stroke="black" points="1054,-43 1054,-60 1218,-60 1218,-43 1054,-43"/>
<text text-anchor="start" x="1109.5" y="-50" font-family="Times,serif" text-decoration="underline" font-size="10.00">c2 :Currency</text>
<polygon fill="none" stroke="black" points="1054,-26 1054,-43 1218,-43 1218,-26 1054,-26"/>
<text text-anchor="start" x="1057" y="-32" font-family="Times,serif" font-size="10.00">declaringClass = class model.Currency</text>
</g>
<!-- sendItToTheBank&#45;&gt;c2 -->
<g id="edge19" class="edge">
<title>sendItToTheBank&#45;&gt;c2</title>
<path fill="none" stroke="black" d="M1089.73,-121.72C1101.79,-101.46 1114.81,-79.58 1123.96,-64.22"/>
<text text-anchor="middle" x="1105.96" y="-67.22" font-family="Times,serif" font-size="10.00">currency</text>
</g>
<!-- sendItToTheBank1&#45;&gt;c2 -->
<g id="edge20" class="edge">
<title>sendItToTheBank1&#45;&gt;c2</title>
<path fill="none" stroke="black" d="M1189.99,-121.72C1175.91,-101.46 1160.72,-79.58 1150.04,-64.22"/>
<text text-anchor="middle" x="1168.04" y="-67.22" font-family="Times,serif" font-size="10.00">currency</text>
</g>
<!-- 8a633aa5_907c_4e57_a313_22e0adb2672e&#45;&gt;1eaf6f4c_4f92_4e04_bd87_c82be03265de -->
<g id="edge22" class="edge">
<title>8a633aa5_907c_4e57_a313_22e0adb2672e&#45;&gt;1eaf6f4c_4f92_4e04_bd87_c82be03265de</title>
<path fill="none" stroke="black" d="M830,-121.72C830,-109.96 830,-97.66 830,-86.4"/>
<text text-anchor="middle" x="817" y="-89.4" font-family="Times,serif" font-size="10.00">owner</text>
<text text-anchor="middle" x="813.5" y="-113.72" font-family="Times,serif" font-size="10.00">account</text>
</g>
<!-- 8a633aa5_907c_4e57_a313_22e0adb2672e&#45;&gt;c2 -->
<g id="edge21" class="edge">
<title>8a633aa5_907c_4e57_a313_22e0adb2672e&#45;&gt;c2</title>
<path fill="none" stroke="black" d="M954.02,-121.91C1001.57,-101.55 1052.99,-79.54 1089,-64.12"/>
<text text-anchor="middle" x="1071" y="-67.12" font-family="Times,serif" font-size="10.00">currency</text>
</g>
<!-- 7ec351d6_652f_4691_8e72_ea432d44a0c8&#45;&gt;e2f7bc4c_ef2a_466e_b8a5_d24f48b13afe -->
<g id="edge24" class="edge">
<title>7ec351d6_652f_4691_8e72_ea432d44a0c8&#45;&gt;e2f7bc4c_ef2a_466e_b8a5_d24f48b13afe</title>
<path fill="none" stroke="black" d="M1468.91,-121.72C1475.73,-109.96 1482.87,-97.66 1489.4,-86.4"/>
<text text-anchor="middle" x="1476.4" y="-89.4" font-family="Times,serif" font-size="10.00">owner</text>
<text text-anchor="middle" x="1452.41" y="-113.72" font-family="Times,serif" font-size="10.00">account</text>
</g>
<!-- 7ec351d6_652f_4691_8e72_ea432d44a0c8&#45;&gt;c2 -->
<g id="edge23" class="edge">
<title>7ec351d6_652f_4691_8e72_ea432d44a0c8&#45;&gt;c2</title>
<path fill="none" stroke="black" d="M1315.6,-121.91C1268.67,-101.55 1217.92,-79.54 1182.38,-64.12"/>
<text text-anchor="middle" x="1200.38" y="-67.12" font-family="Times,serif" font-size="10.00">currency</text>
</g>
</g>
</svg>
