<?xml version="1.0" encoding="UTF-8" standalone="no"?>
<!DOCTYPE svg PUBLIC "-//W3C//DTD SVG 1.1//EN"
 "http://www.w3.org/Graphics/SVG/1.1/DTD/svg11.dtd">
<!-- Generated by graphviz version 2.44.0 (20200408.0750)
 -->
<!-- Title: model Pages: 1 -->
<svg width="2196px" height="356px"
 viewBox="0.00 0.00 2196.00 356.00" xmlns="http://www.w3.org/2000/svg" xmlns:xlink="http://www.w3.org/1999/xlink">
<g id="graph0" class="graph" transform="scale(1.0 1.0) rotate(0) translate(4 352)">
<title>model</title>
<polygon fill="white" stroke="transparent" points="-4,4 -4,-352 2192,-352 2192,4 -4,4"/>
<!-- b -->
<g id="node1" class="node">
<title>b</title>
<polygon fill="none" stroke="black" points="150,-326 150,-344 795,-344 795,-326 150,-326"/>
<text text-anchor="start" x="456.81" y="-333" font-family="Times,serif" text-decoration="underline" font-size="10.00">b :Bank</text>
<polygon fill="none" stroke="black" points="150,-296 150,-326 795,-326 795,-296 150,-296"/>
<text text-anchor="start" x="153" y="-314" font-family="Times,serif" font-size="10.00">accountsMap = sendItToTheBank8a633aa5&#45;907c&#45;4e57&#45;a313&#45;22e0adb2672e7ec351d6&#45;652f&#45;4691&#45;8e72&#45;ea432d44a0c857e2abfa&#45;1431&#45;4dd0&#45;841a&#45;3c640c9631a5</text>
<text text-anchor="start" x="153" y="-302" font-family="Times,serif" font-size="10.00">customerMap = e2f7bc4c&#45;ef2a&#45;466e&#45;b8a5&#45;d24f48b13afe1eaf6f4c&#45;4f92&#45;4e04&#45;bd87&#45;c82be03265dea7b11d86&#45;eb0c&#45;487d&#45;9291&#45;df5ae37afe90</text>
</g>
<!-- sendItToTheBank -->
<g id="node3" class="node">
<title>sendItToTheBank</title>
<polygon fill="none" stroke="black" points="928,-234 928,-252 1072,-252 1072,-234 928,-234"/>
<text text-anchor="start" x="944.32" y="-241" font-family="Times,serif" text-decoration="underline" font-size="10.00">sendItToTheBank :Account</text>
<polygon fill="none" stroke="black" points="928,-132 928,-234 1072,-234 1072,-132 928,-132"/>
<text text-anchor="start" x="931" y="-222" font-family="Times,serif" font-size="10.00">balance = 69420.0</text>
<text text-anchor="start" x="931" y="-210" font-family="Times,serif" font-size="10.00">count = 0</text>
<text text-anchor="start" x="931" y="-198" font-family="Times,serif" font-size="10.00">customerId = null</text>
<text text-anchor="start" x="931" y="-186" font-family="Times,serif" font-size="10.00">iban = &quot;EE289017397501990493&quot;</text>
<text text-anchor="start" x="931" y="-174" font-family="Times,serif" font-size="10.00">id = &quot;sendItToTheBank&quot;</text>
<text text-anchor="start" x="931" y="-162" font-family="Times,serif" font-size="10.00">receivedTransaction = </text>
<text text-anchor="start" x="931" y="-150" font-family="Times,serif" font-size="10.00">sentTransaction = </text>
<text text-anchor="start" x="931" y="-138" font-family="Times,serif" font-size="10.00">status = &quot;ACTIVE&quot;</text>
</g>
<!-- b&#45;&gt;sendItToTheBank -->
<g id="edge1" class="edge">
<title>b&#45;&gt;sendItToTheBank</title>
<path fill="none" stroke="black" d="M788.5,-291.98C830.51,-283.1 872.38,-271.39 911,-256 913.99,-254.81 916.97,-253.5 919.94,-252.09"/>
<text text-anchor="middle" x="893.28" y="-255.09" font-family="Times,serif" font-size="10.00">bankAccount</text>
<text text-anchor="middle" x="778.78" y="-282.98" font-family="Times,serif" font-size="10.00">bank</text>
</g>
<!-- 8a633aa5_907c_4e57_a313_22e0adb2672e -->
<g id="node4" class="node">
<title>8a633aa5_907c_4e57_a313_22e0adb2672e</title>
<polygon fill="none" stroke="black" points="660,-234 660,-252 894,-252 894,-234 660,-234"/>
<text text-anchor="start" x="673.29" y="-241" font-family="Times,serif" text-decoration="underline" font-size="10.00">8a633aa5&#45;907c&#45;4e57&#45;a313&#45;22e0adb2672e :Account</text>
<polygon fill="none" stroke="black" points="660,-132 660,-234 894,-234 894,-132 660,-132"/>
<text text-anchor="start" x="663" y="-222" font-family="Times,serif" font-size="10.00">balance = 0.0</text>
<text text-anchor="start" x="663" y="-210" font-family="Times,serif" font-size="10.00">count = 0</text>
<text text-anchor="start" x="663" y="-198" font-family="Times,serif" font-size="10.00">customerId = &quot;1eaf6f4c&#45;4f92&#45;4e04&#45;bd87&#45;c82be03265de&quot;</text>
<text text-anchor="start" x="663" y="-186" font-family="Times,serif" font-size="10.00">iban = &quot;EE500467859057350272&quot;</text>
<text text-anchor="start" x="663" y="-174" font-family="Times,serif" font-size="10.00">id = &quot;8a633aa5&#45;907c&#45;4e57&#45;a313&#45;22e0adb2672e&quot;</text>
<text text-anchor="start" x="663" y="-162" font-family="Times,serif" font-size="10.00">receivedTransaction = </text>
<text text-anchor="start" x="663" y="-150" font-family="Times,serif" font-size="10.00">sentTransaction = </text>
<text text-anchor="start" x="663" y="-138" font-family="Times,serif" font-size="10.00">status = &quot;ACTIVE&quot;</text>
</g>
<!-- b&#45;&gt;8a633aa5_907c_4e57_a313_22e0adb2672e -->
<g id="edge2" class="edge">
<title>b&#45;&gt;8a633aa5_907c_4e57_a313_22e0adb2672e</title>
<path fill="none" stroke="black" d="M546.35,-291.92C575.14,-281.14 608.26,-268.37 638,-256 642.53,-254.12 647.12,-252.18 651.76,-250.2"/>
<text text-anchor="middle" x="634.27" y="-253.2" font-family="Times,serif" font-size="10.00">accounts</text>
<text text-anchor="middle" x="536.63" y="-282.92" font-family="Times,serif" font-size="10.00">bank</text>
</g>
<!-- 7ec351d6_652f_4691_8e72_ea432d44a0c8 -->
<g id="node5" class="node">
<title>7ec351d6_652f_4691_8e72_ea432d44a0c8</title>
<polygon fill="none" stroke="black" points="357,-234 357,-252 588,-252 588,-234 357,-234"/>
<text text-anchor="start" x="369.06" y="-241" font-family="Times,serif" text-decoration="underline" font-size="10.00">7ec351d6&#45;652f&#45;4691&#45;8e72&#45;ea432d44a0c8 :Account</text>
<polygon fill="none" stroke="black" points="357,-132 357,-234 588,-234 588,-132 357,-132"/>
<text text-anchor="start" x="360" y="-222" font-family="Times,serif" font-size="10.00">balance = 100.0</text>
<text text-anchor="start" x="360" y="-210" font-family="Times,serif" font-size="10.00">count = 0</text>
<text text-anchor="start" x="360" y="-198" font-family="Times,serif" font-size="10.00">customerId = &quot;e2f7bc4c&#45;ef2a&#45;466e&#45;b8a5&#45;d24f48b13afe&quot;</text>
<text text-anchor="start" x="360" y="-186" font-family="Times,serif" font-size="10.00">iban = &quot;EE508166157234538669&quot;</text>
<text text-anchor="start" x="360" y="-174" font-family="Times,serif" font-size="10.00">id = &quot;7ec351d6&#45;652f&#45;4691&#45;8e72&#45;ea432d44a0c8&quot;</text>
<text text-anchor="start" x="360" y="-162" font-family="Times,serif" font-size="10.00">receivedTransaction = </text>
<text text-anchor="start" x="360" y="-150" font-family="Times,serif" font-size="10.00">sentTransaction = </text>
<text text-anchor="start" x="360" y="-138" font-family="Times,serif" font-size="10.00">status = &quot;ACTIVE&quot;</text>
</g>
<!-- b&#45;&gt;7ec351d6_652f_4691_8e72_ea432d44a0c8 -->
<g id="edge3" class="edge">
<title>b&#45;&gt;7ec351d6_652f_4691_8e72_ea432d44a0c8</title>
<path fill="none" stroke="black" d="M472,-291.97C472,-281.41 472,-268.83 472,-256.23"/>
<text text-anchor="middle" x="454.51" y="-259.23" font-family="Times,serif" font-size="10.00">accounts</text>
<text text-anchor="middle" x="462.28" y="-282.97" font-family="Times,serif" font-size="10.00">bank</text>
</g>
<!-- 57e2abfa_1431_4dd0_841a_3c640c9631a5 -->
<g id="node6" class="node">
<title>57e2abfa_1431_4dd0_841a_3c640c9631a5</title>
<polygon fill="none" stroke="black" points="72,-234 72,-252 284,-252 284,-234 72,-234"/>
<text text-anchor="start" x="74.56" y="-241" font-family="Times,serif" text-decoration="underline" font-size="10.00">57e2abfa&#45;1431&#45;4dd0&#45;841a&#45;3c640c9631a5 :Account</text>
<polygon fill="none" stroke="black" points="72,-132 72,-234 284,-234 284,-132 72,-132"/>
<text text-anchor="start" x="80.85" y="-222" font-family="Times,serif" font-size="10.00">balance = 100.0</text>
<text text-anchor="start" x="80.85" y="-210" font-family="Times,serif" font-size="10.00">count = 0</text>
<text text-anchor="start" x="80.85" y="-198" font-family="Times,serif" font-size="10.00">customerId = null</text>
<text text-anchor="start" x="80.85" y="-186" font-family="Times,serif" font-size="10.00">iban = &quot;EE891670790048309954&quot;</text>
<text text-anchor="start" x="80.85" y="-174" font-family="Times,serif" font-size="10.00">id = &quot;57e2abfa&#45;1431&#45;4dd0&#45;841a&#45;3c640c9631a5&quot;</text>
<text text-anchor="start" x="80.85" y="-162" font-family="Times,serif" font-size="10.00">receivedTransaction = </text>
<text text-anchor="start" x="80.85" y="-150" font-family="Times,serif" font-size="10.00">sentTransaction = </text>
<text text-anchor="start" x="80.85" y="-138" font-family="Times,serif" font-size="10.00">status = &quot;ACTIVE&quot;</text>
</g>
<!-- b&#45;&gt;57e2abfa_1431_4dd0_841a_3c640c9631a5 -->
<g id="edge4" class="edge">
<title>b&#45;&gt;57e2abfa_1431_4dd0_841a_3c640c9631a5</title>
<path fill="none" stroke="black" d="M396.19,-291.95C367.68,-281.33 335.12,-268.66 306,-256 301.46,-254.03 296.84,-251.97 292.2,-249.87"/>
<text text-anchor="middle" x="309.69" y="-252.87" font-family="Times,serif" font-size="10.00">accounts</text>
<text text-anchor="middle" x="405.91" y="-282.95" font-family="Times,serif" font-size="10.00">bank</text>
</g>
<!-- e2f7bc4c_ef2a_466e_b8a5_d24f48b13afe -->
<g id="node7" class="node">
<title>e2f7bc4c_ef2a_466e_b8a5_d24f48b13afe</title>
<polygon fill="none" stroke="black" points="277,-70 277,-88 488,-88 488,-70 277,-70"/>
<text text-anchor="start" x="279.63" y="-77" font-family="Times,serif" text-decoration="underline" font-size="10.00">e2f7bc4c&#45;ef2a&#45;466e&#45;b8a5&#45;d24f48b13afe :Customer</text>
<polygon fill="none" stroke="black" points="277,-4 277,-70 488,-70 488,-4 277,-4"/>
<text text-anchor="start" x="288.42" y="-58" font-family="Times,serif" font-size="10.00">email = &quot;john@doe.ee&quot;</text>
<text text-anchor="start" x="288.42" y="-46" font-family="Times,serif" font-size="10.00">firstName = &quot;John&quot;</text>
<text text-anchor="start" x="288.42" y="-34" font-family="Times,serif" font-size="10.00">id = &quot;e2f7bc4c&#45;ef2a&#45;466e&#45;b8a5&#45;d24f48b13afe&quot;</text>
<text text-anchor="start" x="288.42" y="-22" font-family="Times,serif" font-size="10.00">lastName = &quot;Doe&quot;</text>
<text text-anchor="start" x="288.42" y="-10" font-family="Times,serif" font-size="10.00">password = &quot;pass1234&quot;</text>
</g>
<!-- b&#45;&gt;e2f7bc4c_ef2a_466e_b8a5_d24f48b13afe -->
<g id="edge5" class="edge">
<title>b&#45;&gt;e2f7bc4c_ef2a_466e_b8a5_d24f48b13afe</title>
<path fill="none" stroke="black" d="M379.21,-291.87C363.25,-283 348.7,-271.33 339,-256 307.4,-206.07 331.87,-137.23 354.81,-92.42"/>
<text text-anchor="middle" x="334.54" y="-95.42" font-family="Times,serif" font-size="10.00">customers</text>
<text text-anchor="middle" x="369.49" y="-282.87" font-family="Times,serif" font-size="10.00">bank</text>
</g>
<!-- 1eaf6f4c_4f92_4e04_bd87_c82be03265de -->
<g id="node8" class="node">
<title>1eaf6f4c_4f92_4e04_bd87_c82be03265de</title>
<polygon fill="none" stroke="black" points="593,-70 593,-88 807,-88 807,-70 593,-70"/>
<text text-anchor="start" x="595.73" y="-77" font-family="Times,serif" text-decoration="underline" font-size="10.00">1eaf6f4c&#45;4f92&#45;4e04&#45;bd87&#45;c82be03265de :Customer</text>
<polygon fill="none" stroke="black" points="593,-4 593,-70 807,-70 807,-4 593,-4"/>
<text text-anchor="start" x="604.52" y="-58" font-family="Times,serif" font-size="10.00">email = &quot;bobby@tt.ee&quot;</text>
<text text-anchor="start" x="604.52" y="-46" font-family="Times,serif" font-size="10.00">firstName = &quot;Bob&quot;</text>
<text text-anchor="start" x="604.52" y="-34" font-family="Times,serif" font-size="10.00">id = &quot;1eaf6f4c&#45;4f92&#45;4e04&#45;bd87&#45;c82be03265de&quot;</text>
<text text-anchor="start" x="604.52" y="-22" font-family="Times,serif" font-size="10.00">lastName = &quot;Jackson&quot;</text>
<text text-anchor="start" x="604.52" y="-10" font-family="Times,serif" font-size="10.00">password = &quot;secret&quot;</text>
</g>
<!-- b&#45;&gt;1eaf6f4c_4f92_4e04_bd87_c82be03265de -->
<g id="edge6" class="edge">
<title>b&#45;&gt;1eaf6f4c_4f92_4e04_bd87_c82be03265de</title>
<path fill="none" stroke="black" d="M555.62,-291.93C573.56,-282.88 591,-271.11 604,-256 642.79,-210.92 616.89,-181.43 643,-128 648.96,-115.79 656.67,-103.41 664.49,-92.12"/>
<text text-anchor="middle" x="644.22" y="-95.12" font-family="Times,serif" font-size="10.00">customers</text>
<text text-anchor="middle" x="565.34" y="-282.93" font-family="Times,serif" font-size="10.00">bank</text>
</g>
<!-- a7b11d86_eb0c_487d_9291_df5ae37afe90 -->
<g id="node9" class="node">
<title>a7b11d86_eb0c_487d_9291_df5ae37afe90</title>
<polygon fill="none" stroke="black" points="8,-70 8,-88 224,-88 224,-70 8,-70"/>
<text text-anchor="start" x="10.9" y="-77" font-family="Times,serif" text-decoration="underline" font-size="10.00">a7b11d86&#45;eb0c&#45;487d&#45;9291&#45;df5ae37afe90 :Customer</text>
<polygon fill="none" stroke="black" points="8,-4 8,-70 224,-70 224,-4 8,-4"/>
<text text-anchor="start" x="19.69" y="-58" font-family="Times,serif" font-size="10.00">email = &quot;johntest@doe.ee&quot;</text>
<text text-anchor="start" x="19.69" y="-46" font-family="Times,serif" font-size="10.00">firstName = &quot;johntest&quot;</text>
<text text-anchor="start" x="19.69" y="-34" font-family="Times,serif" font-size="10.00">id = &quot;a7b11d86&#45;eb0c&#45;487d&#45;9291&#45;df5ae37afe90&quot;</text>
<text text-anchor="start" x="19.69" y="-22" font-family="Times,serif" font-size="10.00">lastName = &quot;Doe&quot;</text>
<text text-anchor="start" x="19.69" y="-10" font-family="Times,serif" font-size="10.00">password = &quot;pass1234&quot;</text>
</g>
<!-- b&#45;&gt;a7b11d86_eb0c_487d_9291_df5ae37afe90 -->
<g id="edge7" class="edge">
<title>b&#45;&gt;a7b11d86_eb0c_487d_9291_df5ae37afe90</title>
<path fill="none" stroke="black" d="M141.06,-294.72C101.38,-285.57 69.68,-273.07 55,-256 17.9,-212.87 36.96,-181.95 55,-128 59.24,-115.31 66.34,-103.02 74.23,-92"/>
<text text-anchor="middle" x="53.96" y="-95" font-family="Times,serif" font-size="10.00">customers</text>
<text text-anchor="middle" x="131.34" y="-297.72" font-family="Times,serif" font-size="10.00">bank</text>
</g>
<!-- b1 -->
<g id="node2" class="node">
<title>b1</title>
<polygon fill="none" stroke="black" points="1383,-326 1383,-344 2030,-344 2030,-326 1383,-326"/>
<text text-anchor="start" x="1688.31" y="-333" font-family="Times,serif" text-decoration="underline" font-size="10.00">b1 :Bank</text>
<polygon fill="none" stroke="black" points="1383,-296 1383,-326 2030,-326 2030,-296 1383,-296"/>
<text text-anchor="start" x="1386" y="-314" font-family="Times,serif" font-size="10.00">accountsMap = 8d9d8301&#45;782a&#45;444c&#45;8f62&#45;18ae179074d6sendItToTheBank8a633aa5&#45;907c&#45;4e57&#45;a313&#45;22e0adb2672e7ec351d6&#45;652f&#45;4691&#45;8e72&#45;ea432d44a0c8</text>
<text text-anchor="start" x="1386" y="-302" font-family="Times,serif" font-size="10.00">customerMap = ccd9b559&#45;c2c1&#45;43d9&#45;98a8&#45;c2c609ac06fbe2f7bc4c&#45;ef2a&#45;466e&#45;b8a5&#45;d24f48b13afe1eaf6f4c&#45;4f92&#45;4e04&#45;bd87&#45;c82be03265de</text>
</g>
<!-- sendItToTheBank2 -->
<g id="node10" class="node">
<title>sendItToTheBank2</title>
<polygon fill="none" stroke="black" points="1106,-234 1106,-252 1250,-252 1250,-234 1106,-234"/>
<text text-anchor="start" x="1122.32" y="-241" font-family="Times,serif" text-decoration="underline" font-size="10.00">sendItToTheBank :Account</text>
<polygon fill="none" stroke="black" points="1106,-132 1106,-234 1250,-234 1250,-132 1106,-132"/>
<text text-anchor="start" x="1109" y="-222" font-family="Times,serif" font-size="10.00">balance = 69420.0</text>
<text text-anchor="start" x="1109" y="-210" font-family="Times,serif" font-size="10.00">count = 0</text>
<text text-anchor="start" x="1109" y="-198" font-family="Times,serif" font-size="10.00">customerId = null</text>
<text text-anchor="start" x="1109" y="-186" font-family="Times,serif" font-size="10.00">iban = &quot;EE812224850436271143&quot;</text>
<text text-anchor="start" x="1109" y="-174" font-family="Times,serif" font-size="10.00">id = &quot;sendItToTheBank&quot;</text>
<text text-anchor="start" x="1109" y="-162" font-family="Times,serif" font-size="10.00">receivedTransaction = </text>
<text text-anchor="start" x="1109" y="-150" font-family="Times,serif" font-size="10.00">sentTransaction = </text>
<text text-anchor="start" x="1109" y="-138" font-family="Times,serif" font-size="10.00">status = &quot;ACTIVE&quot;</text>
</g>
<!-- b1&#45;&gt;sendItToTheBank2 -->
<g id="edge8" class="edge">
<title>b1&#45;&gt;sendItToTheBank2</title>
<path fill="none" stroke="black" d="M1389.5,-291.98C1347.49,-283.1 1305.62,-271.39 1267,-256 1264.01,-254.81 1261.03,-253.5 1258.06,-252.09"/>
<text text-anchor="middle" x="1284.72" y="-255.09" font-family="Times,serif" font-size="10.00">bankAccount</text>
<text text-anchor="middle" x="1379.78" y="-282.98" font-family="Times,serif" font-size="10.00">bank</text>
</g>
<!-- 8a633aa5_907c_4e57_a313_22e0adb2672e3 -->
<g id="node11" class="node">
<title>8a633aa5_907c_4e57_a313_22e0adb2672e3</title>
<polygon fill="none" stroke="black" points="1284,-234 1284,-252 1518,-252 1518,-234 1284,-234"/>
<text text-anchor="start" x="1297.29" y="-241" font-family="Times,serif" text-decoration="underline" font-size="10.00">8a633aa5&#45;907c&#45;4e57&#45;a313&#45;22e0adb2672e :Account</text>
<polygon fill="none" stroke="black" points="1284,-132 1284,-234 1518,-234 1518,-132 1284,-132"/>
<text text-anchor="start" x="1287" y="-222" font-family="Times,serif" font-size="10.00">balance = 0.0</text>
<text text-anchor="start" x="1287" y="-210" font-family="Times,serif" font-size="10.00">count = 0</text>
<text text-anchor="start" x="1287" y="-198" font-family="Times,serif" font-size="10.00">customerId = &quot;1eaf6f4c&#45;4f92&#45;4e04&#45;bd87&#45;c82be03265de&quot;</text>
<text text-anchor="start" x="1287" y="-186" font-family="Times,serif" font-size="10.00">iban = &quot;EE500467859057350272&quot;</text>
<text text-anchor="start" x="1287" y="-174" font-family="Times,serif" font-size="10.00">id = &quot;8a633aa5&#45;907c&#45;4e57&#45;a313&#45;22e0adb2672e&quot;</text>
<text text-anchor="start" x="1287" y="-162" font-family="Times,serif" font-size="10.00">receivedTransaction = </text>
<text text-anchor="start" x="1287" y="-150" font-family="Times,serif" font-size="10.00">sentTransaction = </text>
<text text-anchor="start" x="1287" y="-138" font-family="Times,serif" font-size="10.00">status = &quot;ACTIVE&quot;</text>
</g>
<!-- b1&#45;&gt;8a633aa5_907c_4e57_a313_22e0adb2672e3 -->
<g id="edge9" class="edge">
<title>b1&#45;&gt;8a633aa5_907c_4e57_a313_22e0adb2672e3</title>
<path fill="none" stroke="black" d="M1631.65,-291.92C1602.86,-281.14 1569.74,-268.37 1540,-256 1535.47,-254.12 1530.88,-252.18 1526.24,-250.2"/>
<text text-anchor="middle" x="1543.73" y="-253.2" font-family="Times,serif" font-size="10.00">accounts</text>
<text text-anchor="middle" x="1621.93" y="-282.92" font-family="Times,serif" font-size="10.00">bank</text>
</g>
<!-- 7ec351d6_652f_4691_8e72_ea432d44a0c84 -->
<g id="node12" class="node">
<title>7ec351d6_652f_4691_8e72_ea432d44a0c84</title>
<polygon fill="none" stroke="black" points="1591,-234 1591,-252 1822,-252 1822,-234 1591,-234"/>
<text text-anchor="start" x="1603.06" y="-241" font-family="Times,serif" text-decoration="underline" font-size="10.00">7ec351d6&#45;652f&#45;4691&#45;8e72&#45;ea432d44a0c8 :Account</text>
<polygon fill="none" stroke="black" points="1591,-132 1591,-234 1822,-234 1822,-132 1591,-132"/>
<text text-anchor="start" x="1594" y="-222" font-family="Times,serif" font-size="10.00">balance = 100.0</text>
<text text-anchor="start" x="1594" y="-210" font-family="Times,serif" font-size="10.00">count = 0</text>
<text text-anchor="start" x="1594" y="-198" font-family="Times,serif" font-size="10.00">customerId = &quot;e2f7bc4c&#45;ef2a&#45;466e&#45;b8a5&#45;d24f48b13afe&quot;</text>
<text text-anchor="start" x="1594" y="-186" font-family="Times,serif" font-size="10.00">iban = &quot;EE508166157234538669&quot;</text>
<text text-anchor="start" x="1594" y="-174" font-family="Times,serif" font-size="10.00">id = &quot;7ec351d6&#45;652f&#45;4691&#45;8e72&#45;ea432d44a0c8&quot;</text>
<text text-anchor="start" x="1594" y="-162" font-family="Times,serif" font-size="10.00">receivedTransaction = </text>
<text text-anchor="start" x="1594" y="-150" font-family="Times,serif" font-size="10.00">sentTransaction = </text>
<text text-anchor="start" x="1594" y="-138" font-family="Times,serif" font-size="10.00">status = &quot;ACTIVE&quot;</text>
</g>
<!-- b1&#45;&gt;7ec351d6_652f_4691_8e72_ea432d44a0c84 -->
<g id="edge10" class="edge">
<title>b1&#45;&gt;7ec351d6_652f_4691_8e72_ea432d44a0c84</title>
<path fill="none" stroke="black" d="M1706,-291.97C1706,-281.41 1706,-268.83 1706,-256.23"/>
<text text-anchor="middle" x="1688.51" y="-259.23" font-family="Times,serif" font-size="10.00">accounts</text>
<text text-anchor="middle" x="1696.28" y="-282.97" font-family="Times,serif" font-size="10.00">bank</text>
</g>
<!-- 8d9d8301_782a_444c_8f62_18ae179074d6 -->
<g id="node13" class="node">
<title>8d9d8301_782a_444c_8f62_18ae179074d6</title>
<polygon fill="none" stroke="black" points="1894,-234 1894,-252 2108,-252 2108,-234 1894,-234"/>
<text text-anchor="start" x="1896.72" y="-241" font-family="Times,serif" text-decoration="underline" font-size="10.00">8d9d8301&#45;782a&#45;444c&#45;8f62&#45;18ae179074d6 :Account</text>
<polygon fill="none" stroke="black" points="1894,-132 1894,-234 2108,-234 2108,-132 1894,-132"/>
<text text-anchor="start" x="1903.01" y="-222" font-family="Times,serif" font-size="10.00">balance = 0.0</text>
<text text-anchor="start" x="1903.01" y="-210" font-family="Times,serif" font-size="10.00">count = 0</text>
<text text-anchor="start" x="1903.01" y="-198" font-family="Times,serif" font-size="10.00">customerId = null</text>
<text text-anchor="start" x="1903.01" y="-186" font-family="Times,serif" font-size="10.00">iban = &quot;EE816790573583272944&quot;</text>
<text text-anchor="start" x="1903.01" y="-174" font-family="Times,serif" font-size="10.00">id = &quot;8d9d8301&#45;782a&#45;444c&#45;8f62&#45;18ae179074d6&quot;</text>
<text text-anchor="start" x="1903.01" y="-162" font-family="Times,serif" font-size="10.00">receivedTransaction = </text>
<text text-anchor="start" x="1903.01" y="-150" font-family="Times,serif" font-size="10.00">sentTransaction = </text>
<text text-anchor="start" x="1903.01" y="-138" font-family="Times,serif" font-size="10.00">status = &quot;ACTIVE&quot;</text>
</g>
<!-- b1&#45;&gt;8d9d8301_782a_444c_8f62_18ae179074d6 -->
<g id="edge11" class="edge">
<title>b1&#45;&gt;8d9d8301_782a_444c_8f62_18ae179074d6</title>
<path fill="none" stroke="black" d="M1781.78,-291.9C1810.3,-281.27 1842.86,-268.61 1872,-256 1876.57,-254.02 1881.22,-251.96 1885.9,-249.86"/>
<text text-anchor="middle" x="1868.41" y="-252.86" font-family="Times,serif" font-size="10.00">accounts</text>
<text text-anchor="middle" x="1772.06" y="-282.9" font-family="Times,serif" font-size="10.00">bank</text>
</g>
<!-- e2f7bc4c_ef2a_466e_b8a5_d24f48b13afe5 -->
<g id="node14" class="node">
<title>e2f7bc4c_ef2a_466e_b8a5_d24f48b13afe5</title>
<polygon fill="none" stroke="black" points="1624,-70 1624,-88 1835,-88 1835,-70 1624,-70"/>
<text text-anchor="start" x="1626.63" y="-77" font-family="Times,serif" text-decoration="underline" font-size="10.00">e2f7bc4c&#45;ef2a&#45;466e&#45;b8a5&#45;d24f48b13afe :Customer</text>
<polygon fill="none" stroke="black" points="1624,-4 1624,-70 1835,-70 1835,-4 1624,-4"/>
<text text-anchor="start" x="1635.42" y="-58" font-family="Times,serif" font-size="10.00">email = &quot;john@doe.ee&quot;</text>
<text text-anchor="start" x="1635.42" y="-46" font-family="Times,serif" font-size="10.00">firstName = &quot;John&quot;</text>
<text text-anchor="start" x="1635.42" y="-34" font-family="Times,serif" font-size="10.00">id = &quot;e2f7bc4c&#45;ef2a&#45;466e&#45;b8a5&#45;d24f48b13afe&quot;</text>
<text text-anchor="start" x="1635.42" y="-22" font-family="Times,serif" font-size="10.00">lastName = &quot;Doe&quot;</text>
<text text-anchor="start" x="1635.42" y="-10" font-family="Times,serif" font-size="10.00">password = &quot;pass1234&quot;</text>
</g>
<!-- b1&#45;&gt;e2f7bc4c_ef2a_466e_b8a5_d24f48b13afe5 -->
<g id="edge12" class="edge">
<title>b1&#45;&gt;e2f7bc4c_ef2a_466e_b8a5_d24f48b13afe5</title>
<path fill="none" stroke="black" d="M1798.79,-291.87C1814.75,-283 1829.3,-271.33 1839,-256 1869.42,-207.93 1864.66,-178.77 1839,-128 1832.05,-114.24 1821.53,-102.25 1809.71,-92.01"/>
<text text-anchor="middle" x="1789.44" y="-95.01" font-family="Times,serif" font-size="10.00">customers</text>
<text text-anchor="middle" x="1808.51" y="-282.87" font-family="Times,serif" font-size="10.00">bank</text>
</g>
<!-- 1eaf6f4c_4f92_4e04_bd87_c82be03265de6 -->
<g id="node15" class="node">
<title>1eaf6f4c_4f92_4e04_bd87_c82be03265de6</title>
<polygon fill="none" stroke="black" points="1323,-70 1323,-88 1537,-88 1537,-70 1323,-70"/>
<text text-anchor="start" x="1325.73" y="-77" font-family="Times,serif" text-decoration="underline" font-size="10.00">1eaf6f4c&#45;4f92&#45;4e04&#45;bd87&#45;c82be03265de :Customer</text>
<polygon fill="none" stroke="black" points="1323,-4 1323,-70 1537,-70 1537,-4 1323,-4"/>
<text text-anchor="start" x="1334.52" y="-58" font-family="Times,serif" font-size="10.00">email = &quot;bobby@tt.ee&quot;</text>
<text text-anchor="start" x="1334.52" y="-46" font-family="Times,serif" font-size="10.00">firstName = &quot;Bob&quot;</text>
<text text-anchor="start" x="1334.52" y="-34" font-family="Times,serif" font-size="10.00">id = &quot;1eaf6f4c&#45;4f92&#45;4e04&#45;bd87&#45;c82be03265de&quot;</text>
<text text-anchor="start" x="1334.52" y="-22" font-family="Times,serif" font-size="10.00">lastName = &quot;Jackson&quot;</text>
<text text-anchor="start" x="1334.52" y="-10" font-family="Times,serif" font-size="10.00">password = &quot;secret&quot;</text>
</g>
<!-- b1&#45;&gt;1eaf6f4c_4f92_4e04_bd87_c82be03265de6 -->
<g id="edge13" class="edge">
<title>b1&#45;&gt;1eaf6f4c_4f92_4e04_bd87_c82be03265de6</title>
<path fill="none" stroke="black" d="M1622.38,-291.93C1604.44,-282.88 1587,-271.11 1574,-256 1535.21,-210.92 1568.81,-176.92 1535,-128 1525.84,-114.74 1513.83,-102.68 1501.23,-92.15"/>
<text text-anchor="middle" x="1480.96" y="-95.15" font-family="Times,serif" font-size="10.00">customers</text>
<text text-anchor="middle" x="1632.1" y="-282.93" font-family="Times,serif" font-size="10.00">bank</text>
</g>
<!-- ccd9b559_c2c1_43d9_98a8_c2c609ac06fb -->
<g id="node16" class="node">
<title>ccd9b559_c2c1_43d9_98a8_c2c609ac06fb</title>
<polygon fill="none" stroke="black" points="1964,-70 1964,-88 2180,-88 2180,-70 1964,-70"/>
<text text-anchor="start" x="1966.62" y="-77" font-family="Times,serif" text-decoration="underline" font-size="10.00">ccd9b559&#45;c2c1&#45;43d9&#45;98a8&#45;c2c609ac06fb :Customer</text>
<polygon fill="none" stroke="black" points="1964,-4 1964,-70 2180,-70 2180,-4 1964,-4"/>
<text text-anchor="start" x="1975.41" y="-58" font-family="Times,serif" font-size="10.00">email = &quot;bobbytest@tt.ee&quot;</text>
<text text-anchor="start" x="1975.41" y="-46" font-family="Times,serif" font-size="10.00">firstName = &quot;Bob&quot;</text>
<text text-anchor="start" x="1975.41" y="-34" font-family="Times,serif" font-size="10.00">id = &quot;ccd9b559&#45;c2c1&#45;43d9&#45;98a8&#45;c2c609ac06fb&quot;</text>
<text text-anchor="start" x="1975.41" y="-22" font-family="Times,serif" font-size="10.00">lastName = &quot;Jackson&quot;</text>
<text text-anchor="start" x="1975.41" y="-10" font-family="Times,serif" font-size="10.00">password = &quot;secret&quot;</text>
</g>
<!-- b1&#45;&gt;ccd9b559_c2c1_43d9_98a8_c2c609ac06fb -->
<g id="edge14" class="edge">
<title>b1&#45;&gt;ccd9b559_c2c1_43d9_98a8_c2c609ac06fb</title>
<path fill="none" stroke="black" d="M2037.54,-295.07C2077.87,-285.89 2110.12,-273.28 2125,-256 2162.12,-212.89 2141.25,-182.52 2125,-128 2121.3,-115.6 2115.04,-103.33 2108.08,-92.24"/>
<text text-anchor="middle" x="2087.81" y="-95.24" font-family="Times,serif" font-size="10.00">customers</text>
<text text-anchor="middle" x="2047.26" y="-298.07" font-family="Times,serif" font-size="10.00">bank</text>
</g>
<!-- c -->
<g id="node17" class="node">
<title>c</title>
<polygon fill="none" stroke="black" points="1008,-46 1008,-64 1170,-64 1170,-46 1008,-46"/>
<text text-anchor="start" x="1065.54" y="-53" font-family="Times,serif" text-decoration="underline" font-size="10.00">c :Currency</text>
<polygon fill="none" stroke="black" points="1008,-28 1008,-46 1170,-46 1170,-28 1008,-28"/>
<text text-anchor="start" x="1011" y="-34" font-family="Times,serif" font-size="10.00">declaringClass = class model.Currency</text>
</g>
<!-- sendItToTheBank&#45;&gt;c -->
<g id="edge15" class="edge">
<title>sendItToTheBank&#45;&gt;c</title>
<path fill="none" stroke="black" d="M1039.04,-127.84C1052.3,-106.38 1066.22,-83.85 1075.99,-68.05"/>
<text text-anchor="middle" x="1093.48" y="-71.05" font-family="Times,serif" font-size="10.00">currency</text>
</g>
<!-- 8a633aa5_907c_4e57_a313_22e0adb2672e&#45;&gt;1eaf6f4c_4f92_4e04_bd87_c82be03265de -->
<g id="edge17" class="edge">
<title>8a633aa5_907c_4e57_a313_22e0adb2672e&#45;&gt;1eaf6f4c_4f92_4e04_bd87_c82be03265de</title>
<path fill="none" stroke="black" d="M743.23,-127.84C736.84,-115.9 730.28,-103.63 724.26,-92.37"/>
<text text-anchor="middle" x="711.77" y="-95.37" font-family="Times,serif" font-size="10.00">owner</text>
<text text-anchor="middle" x="727.68" y="-118.84" font-family="Times,serif" font-size="10.00">account</text>
</g>
<!-- 8a633aa5_907c_4e57_a313_22e0adb2672e&#45;&gt;c -->
<g id="edge16" class="edge">
<title>8a633aa5_907c_4e57_a313_22e0adb2672e&#45;&gt;c</title>
<path fill="none" stroke="black" d="M902.16,-132.1C905.13,-130.72 908.08,-129.35 911,-128 955.37,-107.47 1006.15,-84.41 1042.08,-68.16"/>
<text text-anchor="middle" x="1024.59" y="-71.16" font-family="Times,serif" font-size="10.00">currency</text>
</g>
<!-- 7ec351d6_652f_4691_8e72_ea432d44a0c8&#45;&gt;e2f7bc4c_ef2a_466e_b8a5_d24f48b13afe -->
<g id="edge19" class="edge">
<title>7ec351d6_652f_4691_8e72_ea432d44a0c8&#45;&gt;e2f7bc4c_ef2a_466e_b8a5_d24f48b13afe</title>
<path fill="none" stroke="black" d="M432.52,-127.84C425.06,-115.9 417.39,-103.63 410.36,-92.37"/>
<text text-anchor="middle" x="397.86" y="-95.37" font-family="Times,serif" font-size="10.00">owner</text>
<text text-anchor="middle" x="416.98" y="-118.84" font-family="Times,serif" font-size="10.00">account</text>
</g>
<!-- 7ec351d6_652f_4691_8e72_ea432d44a0c8&#45;&gt;c -->
<g id="edge18" class="edge">
<title>7ec351d6_652f_4691_8e72_ea432d44a0c8&#45;&gt;c</title>
<path fill="none" stroke="black" d="M595.86,-142.52C611.6,-137.2 627.59,-132.21 643,-128 676.83,-118.77 879.78,-83.12 999.93,-62.32"/>
<text text-anchor="middle" x="982.45" y="-53.32" font-family="Times,serif" font-size="10.00">currency</text>
</g>
<!-- 57e2abfa_1431_4dd0_841a_3c640c9631a5&#45;&gt;a7b11d86_eb0c_487d_9291_df5ae37afe90 -->
<g id="edge21" class="edge">
<title>57e2abfa_1431_4dd0_841a_3c640c9631a5&#45;&gt;a7b11d86_eb0c_487d_9291_df5ae37afe90</title>
<path fill="none" stroke="black" d="M150.81,-127.84C145.67,-115.9 140.38,-103.63 135.54,-92.37"/>
<text text-anchor="middle" x="123.04" y="-95.37" font-family="Times,serif" font-size="10.00">owner</text>
<text text-anchor="middle" x="135.26" y="-118.84" font-family="Times,serif" font-size="10.00">account</text>
</g>
<!-- 57e2abfa_1431_4dd0_841a_3c640c9631a5&#45;&gt;c -->
<g id="edge20" class="edge">
<title>57e2abfa_1431_4dd0_841a_3c640c9631a5&#45;&gt;c</title>
<path fill="none" stroke="black" d="M292.33,-141.48C307.8,-136.2 323.63,-131.49 339,-128 549.77,-80.08 609.44,-118.12 824,-92 882.83,-84.84 948.51,-73.71 999.76,-64.31"/>
<text text-anchor="middle" x="982.28" y="-67.31" font-family="Times,serif" font-size="10.00">currency</text>
</g>
<!-- sendItToTheBank2&#45;&gt;c -->
<g id="edge22" class="edge">
<title>sendItToTheBank2&#45;&gt;c</title>
<path fill="none" stroke="black" d="M1138.96,-127.84C1125.7,-106.38 1111.78,-83.85 1102.01,-68.05"/>
<text text-anchor="middle" x="1119.5" y="-71.05" font-family="Times,serif" font-size="10.00">currency</text>
</g>
<!-- 8a633aa5_907c_4e57_a313_22e0adb2672e3&#45;&gt;1eaf6f4c_4f92_4e04_bd87_c82be03265de6 -->
<g id="edge24" class="edge">
<title>8a633aa5_907c_4e57_a313_22e0adb2672e3&#45;&gt;1eaf6f4c_4f92_4e04_bd87_c82be03265de6</title>
<path fill="none" stroke="black" d="M1413.72,-127.84C1416.12,-115.9 1418.6,-103.63 1420.86,-92.37"/>
<text text-anchor="middle" x="1408.37" y="-95.37" font-family="Times,serif" font-size="10.00">owner</text>
<text text-anchor="middle" x="1398.17" y="-118.84" font-family="Times,serif" font-size="10.00">account</text>
</g>
<!-- 8a633aa5_907c_4e57_a313_22e0adb2672e3&#45;&gt;c -->
<g id="edge23" class="edge">
<title>8a633aa5_907c_4e57_a313_22e0adb2672e3&#45;&gt;c</title>
<path fill="none" stroke="black" d="M1275.84,-132.1C1272.87,-130.72 1269.92,-129.35 1267,-128 1222.63,-107.47 1171.85,-84.41 1135.92,-68.16"/>
<text text-anchor="middle" x="1153.41" y="-71.16" font-family="Times,serif" font-size="10.00">currency</text>
</g>
<!-- 7ec351d6_652f_4691_8e72_ea432d44a0c84&#45;&gt;e2f7bc4c_ef2a_466e_b8a5_d24f48b13afe5 -->
<g id="edge26" class="edge">
<title>7ec351d6_652f_4691_8e72_ea432d44a0c84&#45;&gt;e2f7bc4c_ef2a_466e_b8a5_d24f48b13afe5</title>
<path fill="none" stroke="black" d="M1716.09,-127.84C1718,-115.9 1719.95,-103.63 1721.75,-92.37"/>
<text text-anchor="middle" x="1709.26" y="-95.37" font-family="Times,serif" font-size="10.00">owner</text>
<text text-anchor="middle" x="1700.54" y="-118.84" font-family="Times,serif" font-size="10.00">account</text>
</g>
<!-- 7ec351d6_652f_4691_8e72_ea432d44a0c84&#45;&gt;c -->
<g id="edge25" class="edge">
<title>7ec351d6_652f_4691_8e72_ea432d44a0c84&#45;&gt;c</title>
<path fill="none" stroke="black" d="M1582.23,-142.16C1566.48,-136.91 1550.46,-132.02 1535,-128 1435.29,-102.07 1407.36,-110.47 1306,-92 1263.79,-84.31 1217.19,-74.78 1178.02,-66.48"/>
<text text-anchor="middle" x="1195.51" y="-69.48" font-family="Times,serif" font-size="10.00">currency</text>
</g>
<!-- 8d9d8301_782a_444c_8f62_18ae179074d6&#45;&gt;ccd9b559_c2c1_43d9_98a8_c2c609ac06fb -->
<g id="edge28" class="edge">
<title>8d9d8301_782a_444c_8f62_18ae179074d6&#45;&gt;ccd9b559_c2c1_43d9_98a8_c2c609ac06fb</title>
<path fill="none" stroke="black" d="M2032.14,-127.84C2038.03,-115.9 2044.08,-103.63 2049.63,-92.37"/>
<text text-anchor="middle" x="2037.14" y="-95.37" font-family="Times,serif" font-size="10.00">owner</text>
<text text-anchor="middle" x="2016.59" y="-118.84" font-family="Times,serif" font-size="10.00">account</text>
</g>
<!-- 8d9d8301_782a_444c_8f62_18ae179074d6&#45;&gt;c -->
<g id="edge27" class="edge">
<title>8d9d8301_782a_444c_8f62_18ae179074d6&#45;&gt;c</title>
<path fill="none" stroke="black" d="M1885.96,-141.39C1870.4,-136.13 1854.46,-131.44 1839,-128 1607.25,-76.38 1541.24,-124.18 1306,-92 1263.11,-86.13 1216.01,-76.73 1176.69,-68.04"/>
<text text-anchor="middle" x="1194.17" y="-59.04" font-family="Times,serif" font-size="10.00">currency</text>
</g>
</g>
</svg>
