<?xml version="1.0" encoding="UTF-8" standalone="no"?>
<!DOCTYPE svg PUBLIC "-//W3C//DTD SVG 1.1//EN"
 "http://www.w3.org/Graphics/SVG/1.1/DTD/svg11.dtd">
<!-- Generated by graphviz version 2.43.0 (0)
 -->
<!-- Title: model Pages: 1 -->
<svg width="1123px" height="416px"
 viewBox="0.00 0.00 1122.90 416.00" xmlns="http://www.w3.org/2000/svg" xmlns:xlink="http://www.w3.org/1999/xlink">
<g id="graph0" class="graph" transform="scale(1.0 1.0) rotate(0) translate(4 412)">
<title>model</title>
<polygon fill="white" stroke="transparent" points="-4,4 -4,-412 1118.9,-412 1118.9,4 -4,4"/>
<!-- b2f0affe_2d1a_4150_bcb1_d69da989bf3c -->
<g id="node1" class="node">
<title>b2f0affe_2d1a_4150_bcb1_d69da989bf3c</title>
<polygon fill="none" stroke="black" points="420.4,-387 420.4,-404 646.4,-404 646.4,-387 420.4,-387"/>
<text text-anchor="start" x="423.4" y="-394" font-family="Times,serif" text-decoration="underline" font-size="10.00">b2f0affe&#45;2d1a&#45;4150&#45;bcb1&#45;d69da989bf3c :Transaction</text>
<polygon fill="none" stroke="black" points="420.4,-326 420.4,-387 646.4,-387 646.4,-326 420.4,-326"/>
<text text-anchor="start" x="436.9" y="-376" font-family="Times,serif" font-size="10.00">amount = 20.0</text>
<text text-anchor="start" x="436.9" y="-365" font-family="Times,serif" font-size="10.00">description = &quot;Transaction test&quot;</text>
<text text-anchor="start" x="436.9" y="-354" font-family="Times,serif" font-size="10.00">id = &quot;b2f0affe&#45;2d1a&#45;4150&#45;bcb1&#45;d69da989bf3c&quot;</text>
<text text-anchor="start" x="436.9" y="-343" font-family="Times,serif" font-size="10.00">rejectionDescription = &quot;&quot;</text>
<text text-anchor="start" x="436.9" y="-332" font-family="Times,serif" font-size="10.00">timestamp = 2021&#45;11&#45;29T13:42:34.666938910</text>
</g>
<!-- b -->
<g id="node2" class="node">
<title>b</title>
<polygon fill="none" stroke="black" points="514.4,-259 514.4,-276 553.4,-276 553.4,-259 514.4,-259"/>
<text text-anchor="start" x="517.4" y="-266" font-family="Times,serif" text-decoration="underline" font-size="10.00">b :Bank</text>
<polygon fill="none" stroke="black" points="514.4,-253 514.4,-259 553.4,-259 553.4,-253 514.4,-253"/>
</g>
<!-- b2f0affe_2d1a_4150_bcb1_d69da989bf3c&#45;&gt;b -->
<g id="edge1" class="edge">
<title>b2f0affe_2d1a_4150_bcb1_d69da989bf3c&#45;&gt;b</title>
<path fill="none" stroke="black" d="M533.4,-321.87C533.4,-308.38 533.4,-294.19 533.4,-283.48"/>
<text text-anchor="middle" x="522.9" y="-286.48" font-family="Times,serif" font-size="10.00">bank</text>
</g>
<!-- c -->
<g id="node3" class="node">
<title>c</title>
<polygon fill="none" stroke="black" points="102.4,-43 102.4,-60 266.4,-60 266.4,-43 102.4,-43"/>
<text text-anchor="start" x="160.4" y="-50" font-family="Times,serif" text-decoration="underline" font-size="10.00">c :Currency</text>
<polygon fill="none" stroke="black" points="102.4,-26 102.4,-43 266.4,-43 266.4,-26 102.4,-26"/>
<text text-anchor="start" x="105.4" y="-32" font-family="Times,serif" font-size="10.00">declaringClass = class model.Currency</text>
</g>
<!-- b2f0affe_2d1a_4150_bcb1_d69da989bf3c&#45;&gt;c -->
<g id="edge2" class="edge">
<title>b2f0affe_2d1a_4150_bcb1_d69da989bf3c&#45;&gt;c</title>
<path fill="none" stroke="black" d="M412.13,-344.4C274.75,-319.42 63.74,-271.74 16.4,-208 -6.39,-177.32 -4.17,-154.22 16.4,-122 34.39,-93.81 65.49,-75.65 96.08,-64.03"/>
<text text-anchor="middle" x="78.08" y="-67.03" font-family="Times,serif" font-size="10.00">currency</text>
</g>
<!-- 291a218c_84ea_4984_9283_ae7d375e074b -->
<g id="node4" class="node">
<title>291a218c_84ea_4984_9283_ae7d375e074b</title>
<polygon fill="none" stroke="black" points="33.4,-176 33.4,-193 255.4,-193 255.4,-176 33.4,-176"/>
<text text-anchor="start" x="36.4" y="-183" font-family="Times,serif" text-decoration="underline" font-size="10.00">291a218c&#45;84ea&#45;4984&#45;9283&#45;ae7d375e074b :Account</text>
<polygon fill="none" stroke="black" points="33.4,-137 33.4,-176 255.4,-176 255.4,-137 33.4,-137"/>
<text text-anchor="start" x="43.4" y="-165" font-family="Times,serif" font-size="10.00">balance = 20.0</text>
<text text-anchor="start" x="43.4" y="-154" font-family="Times,serif" font-size="10.00">id = &quot;291a218c&#45;84ea&#45;4984&#45;9283&#45;ae7d375e074b&quot;</text>
<text text-anchor="start" x="43.4" y="-143" font-family="Times,serif" font-size="10.00">status = &quot;ACTIVE&quot;</text>
</g>
<!-- b2f0affe_2d1a_4150_bcb1_d69da989bf3c&#45;&gt;291a218c_84ea_4984_9283_ae7d375e074b -->
<g id="edge3" class="edge">
<title>b2f0affe_2d1a_4150_bcb1_d69da989bf3c&#45;&gt;291a218c_84ea_4984_9283_ae7d375e074b</title>
<path fill="none" stroke="black" d="M450.42,-321.77C377.01,-284.4 271.59,-230.74 205.6,-197.15"/>
<text text-anchor="middle" x="182.6" y="-200.15" font-family="Times,serif" font-size="10.00">destination</text>
</g>
<!-- 30a65426_68b4_4e59_bd80_c68f4c591a69 -->
<g id="node5" class="node">
<title>30a65426_68b4_4e59_bd80_c68f4c591a69</title>
<polygon fill="none" stroke="black" points="886.4,-176 886.4,-193 1107.4,-193 1107.4,-176 886.4,-176"/>
<text text-anchor="start" x="889.4" y="-183" font-family="Times,serif" text-decoration="underline" font-size="10.00">30a65426&#45;68b4&#45;4e59&#45;bd80&#45;c68f4c591a69 :Account</text>
<polygon fill="none" stroke="black" points="886.4,-137 886.4,-176 1107.4,-176 1107.4,-137 886.4,-137"/>
<text text-anchor="start" x="896.4" y="-165" font-family="Times,serif" font-size="10.00">balance = 1.0</text>
<text text-anchor="start" x="896.4" y="-154" font-family="Times,serif" font-size="10.00">id = &quot;30a65426&#45;68b4&#45;4e59&#45;bd80&#45;c68f4c591a69&quot;</text>
<text text-anchor="start" x="896.4" y="-143" font-family="Times,serif" font-size="10.00">status = &quot;ACTIVE&quot;</text>
</g>
<!-- b2f0affe_2d1a_4150_bcb1_d69da989bf3c&#45;&gt;30a65426_68b4_4e59_bd80_c68f4c591a69 -->
<g id="edge4" class="edge">
<title>b2f0affe_2d1a_4150_bcb1_d69da989bf3c&#45;&gt;30a65426_68b4_4e59_bd80_c68f4c591a69</title>
<path fill="none" stroke="black" d="M555.06,-321.98C571.68,-291.42 594.28,-253.77 609.4,-244 705.17,-182.14 752.21,-233.25 863.4,-208 876.97,-204.92 891.16,-201.1 905,-197.03"/>
<text text-anchor="middle" x="891.5" y="-200.03" font-family="Times,serif" font-size="10.00">source</text>
</g>
<!-- s -->
<g id="node6" class="node">
<title>s</title>
<polygon fill="none" stroke="black" points="626.4,-265 626.4,-282 831.4,-282 831.4,-265 626.4,-265"/>
<text text-anchor="start" x="711.9" y="-272" font-family="Times,serif" text-decoration="underline" font-size="10.00">s :Status</text>
<polygon fill="none" stroke="black" points="626.4,-248 626.4,-265 831.4,-265 831.4,-248 626.4,-248"/>
<text text-anchor="start" x="629.4" y="-254" font-family="Times,serif" font-size="10.00">declaringClass = class model.Transaction$Status</text>
</g>
<!-- b2f0affe_2d1a_4150_bcb1_d69da989bf3c&#45;&gt;s -->
<g id="edge5" class="edge">
<title>b2f0affe_2d1a_4150_bcb1_d69da989bf3c&#45;&gt;s</title>
<path fill="none" stroke="black" d="M617.23,-321.87C642,-309.42 667.98,-296.37 688.58,-286.01"/>
<text text-anchor="middle" x="676.58" y="-289.01" font-family="Times,serif" font-size="10.00">status</text>
</g>
<!-- b&#45;&gt;291a218c_84ea_4984_9283_ae7d375e074b -->
<g id="edge8" class="edge">
<title>b&#45;&gt;291a218c_84ea_4984_9283_ae7d375e074b</title>
<path fill="none" stroke="black" d="M505.74,-259.06C457.84,-250.29 356.5,-230.75 272.4,-208 260.21,-204.7 247.46,-200.93 234.94,-197.02"/>
<text text-anchor="middle" x="253.44" y="-200.02" font-family="Times,serif" font-size="10.00">accounts</text>
<text text-anchor="middle" x="495.24" y="-262.06" font-family="Times,serif" font-size="10.00">bank</text>
</g>
<!-- b&#45;&gt;30a65426_68b4_4e59_bd80_c68f4c591a69 -->
<g id="edge7" class="edge">
<title>b&#45;&gt;30a65426_68b4_4e59_bd80_c68f4c591a69</title>
<path fill="none" stroke="black" d="M560.92,-249.37C565.65,-247.3 570.59,-245.4 575.4,-244 699.21,-207.81 737.37,-235.54 863.4,-208 877.24,-204.98 891.7,-201.14 905.77,-197.02"/>
<text text-anchor="middle" x="924.27" y="-200.02" font-family="Times,serif" font-size="10.00">accounts</text>
<text text-anchor="middle" x="571.42" y="-241.37" font-family="Times,serif" font-size="10.00">bank</text>
</g>
<!-- 7409fb0b_affc_4e5a_ad25_f1f17de7e2f6 -->
<g id="node7" class="node">
<title>7409fb0b_affc_4e5a_ad25_f1f17de7e2f6</title>
<polygon fill="none" stroke="black" points="289.4,-176 289.4,-193 497.4,-193 497.4,-176 289.4,-176"/>
<text text-anchor="start" x="292.4" y="-183" font-family="Times,serif" text-decoration="underline" font-size="10.00">7409fb0b&#45;affc&#45;4e5a&#45;ad25&#45;f1f17de7e2f6 :Account</text>
<polygon fill="none" stroke="black" points="289.4,-137 289.4,-176 497.4,-176 497.4,-137 289.4,-137"/>
<text text-anchor="start" x="299.4" y="-165" font-family="Times,serif" font-size="10.00">balance = 69420.0</text>
<text text-anchor="start" x="299.4" y="-154" font-family="Times,serif" font-size="10.00">id = &quot;7409fb0b&#45;affc&#45;4e5a&#45;ad25&#45;f1f17de7e2f6&quot;</text>
<text text-anchor="start" x="299.4" y="-143" font-family="Times,serif" font-size="10.00">status = &quot;ACTIVE&quot;</text>
</g>
<!-- b&#45;&gt;7409fb0b_affc_4e5a_ad25_f1f17de7e2f6 -->
<g id="edge6" class="edge">
<title>b&#45;&gt;7409fb0b_affc_4e5a_ad25_f1f17de7e2f6</title>
<path fill="none" stroke="black" d="M509.01,-246.93C489.43,-233.22 461.4,-213.6 437.85,-197.12"/>
<text text-anchor="middle" x="409.85" y="-200.12" font-family="Times,serif" font-size="10.00">bankAccount</text>
<text text-anchor="middle" x="498.51" y="-238.93" font-family="Times,serif" font-size="10.00">bank</text>
</g>
<!-- 9a58b9f3_2429_457a_8a87_0149093177b2 -->
<g id="node8" class="node">
<title>9a58b9f3_2429_457a_8a87_0149093177b2</title>
<polygon fill="none" stroke="black" points="569.4,-187 569.4,-204 813.4,-204 813.4,-187 569.4,-187"/>
<text text-anchor="start" x="572.4" y="-194" font-family="Times,serif" text-decoration="underline" font-size="10.00">9a58b9f3&#45;2429&#45;457a&#45;8a87&#45;0149093177b2 :Administrator</text>
<polygon fill="none" stroke="black" points="569.4,-126 569.4,-187 813.4,-187 813.4,-126 569.4,-126"/>
<text text-anchor="start" x="590.4" y="-176" font-family="Times,serif" font-size="10.00">email = &quot;admin@bank.ee&quot;</text>
<text text-anchor="start" x="590.4" y="-165" font-family="Times,serif" font-size="10.00">firstName = &quot;Admin&quot;</text>
<text text-anchor="start" x="590.4" y="-154" font-family="Times,serif" font-size="10.00">id = &quot;9a58b9f3&#45;2429&#45;457a&#45;8a87&#45;0149093177b2&quot;</text>
<text text-anchor="start" x="590.4" y="-143" font-family="Times,serif" font-size="10.00">lastName = &quot;ALice&quot;</text>
<text text-anchor="start" x="590.4" y="-132" font-family="Times,serif" font-size="10.00">password = &quot;secure_p@ssw0|2d&quot;</text>
</g>
<!-- b&#45;&gt;9a58b9f3_2429_457a_8a87_0149093177b2 -->
<g id="edge9" class="edge">
<title>b&#45;&gt;9a58b9f3_2429_457a_8a87_0149093177b2</title>
<path fill="none" stroke="black" d="M560.92,-246.93C578.25,-236.18 601.43,-221.8 623.45,-208.15"/>
<text text-anchor="middle" x="594.45" y="-211.15" font-family="Times,serif" font-size="10.00">administrators</text>
<text text-anchor="middle" x="550.42" y="-238.93" font-family="Times,serif" font-size="10.00">bank</text>
</g>
<!-- 51a34042_7976_4720_919e_0b657ab32989 -->
<g id="node9" class="node">
<title>51a34042_7976_4720_919e_0b657ab32989</title>
<polygon fill="none" stroke="black" points="808.4,-65 808.4,-82 1037.4,-82 1037.4,-65 808.4,-65"/>
<text text-anchor="start" x="811.4" y="-72" font-family="Times,serif" text-decoration="underline" font-size="10.00">51a34042&#45;7976&#45;4720&#45;919e&#45;0b657ab32989 :Customer</text>
<polygon fill="none" stroke="black" points="808.4,-4 808.4,-65 1037.4,-65 1037.4,-4 808.4,-4"/>
<text text-anchor="start" x="820.4" y="-54" font-family="Times,serif" font-size="10.00">email = &quot;bobby@tt.ee&quot;</text>
<text text-anchor="start" x="820.4" y="-43" font-family="Times,serif" font-size="10.00">firstName = &quot;Bob&quot;</text>
<text text-anchor="start" x="820.4" y="-32" font-family="Times,serif" font-size="10.00">id = &quot;51a34042&#45;7976&#45;4720&#45;919e&#45;0b657ab32989&quot;</text>
<text text-anchor="start" x="820.4" y="-21" font-family="Times,serif" font-size="10.00">lastName = &quot;Jackson&quot;</text>
<text text-anchor="start" x="820.4" y="-10" font-family="Times,serif" font-size="10.00">password = &quot;secret&quot;</text>
</g>
<!-- b&#45;&gt;51a34042_7976_4720_919e_0b657ab32989 -->
<g id="edge10" class="edge">
<title>b&#45;&gt;51a34042_7976_4720_919e_0b657ab32989</title>
<path fill="none" stroke="black" d="M560.94,-249.44C565.67,-247.36 570.6,-245.44 575.4,-244 685,-211.01 738.77,-276.6 830.4,-208 863.99,-182.85 848.86,-158.6 869.4,-122 876.13,-110.01 884.15,-97.49 891.88,-86.07"/>
<text text-anchor="middle" x="871.38" y="-89.07" font-family="Times,serif" font-size="10.00">customers</text>
<text text-anchor="middle" x="571.44" y="-252.44" font-family="Times,serif" font-size="10.00">bank</text>
</g>
<!-- 39a369b1_c055_4635_bb76_a75d89c27055 -->
<g id="node10" class="node">
<title>39a369b1_c055_4635_bb76_a75d89c27055</title>
<polygon fill="none" stroke="black" points="340.4,-65 340.4,-82 568.4,-82 568.4,-65 340.4,-65"/>
<text text-anchor="start" x="343.4" y="-72" font-family="Times,serif" text-decoration="underline" font-size="10.00">39a369b1&#45;c055&#45;4635&#45;bb76&#45;a75d89c27055 :Customer</text>
<polygon fill="none" stroke="black" points="340.4,-4 340.4,-65 568.4,-65 568.4,-4 340.4,-4"/>
<text text-anchor="start" x="352.4" y="-54" font-family="Times,serif" font-size="10.00">email = &quot;john@doe.ee&quot;</text>
<text text-anchor="start" x="352.4" y="-43" font-family="Times,serif" font-size="10.00">firstName = &quot;John&quot;</text>
<text text-anchor="start" x="352.4" y="-32" font-family="Times,serif" font-size="10.00">id = &quot;39a369b1&#45;c055&#45;4635&#45;bb76&#45;a75d89c27055&quot;</text>
<text text-anchor="start" x="352.4" y="-21" font-family="Times,serif" font-size="10.00">lastName = &quot;Doe&quot;</text>
<text text-anchor="start" x="352.4" y="-10" font-family="Times,serif" font-size="10.00">password = &quot;pass1234&quot;</text>
</g>
<!-- b&#45;&gt;39a369b1_c055_4635_bb76_a75d89c27055 -->
<g id="edge11" class="edge">
<title>b&#45;&gt;39a369b1_c055_4635_bb76_a75d89c27055</title>
<path fill="none" stroke="black" d="M533.91,-246.65C534.1,-219.12 531.98,-164.25 514.4,-122 509.15,-109.38 501.32,-97.03 493.04,-86.02"/>
<text text-anchor="middle" x="472.54" y="-89.02" font-family="Times,serif" font-size="10.00">customers</text>
<text text-anchor="middle" x="523.41" y="-238.65" font-family="Times,serif" font-size="10.00">bank</text>
</g>
<!-- 291a218c_84ea_4984_9283_ae7d375e074b&#45;&gt;c -->
<g id="edge12" class="edge">
<title>291a218c_84ea_4984_9283_ae7d375e074b&#45;&gt;c</title>
<path fill="none" stroke="black" d="M154.8,-132.78C162.02,-111.12 171.43,-82.89 177.68,-64.14"/>
<text text-anchor="middle" x="159.68" y="-67.14" font-family="Times,serif" font-size="10.00">currency</text>
</g>
<!-- 291a218c_84ea_4984_9283_ae7d375e074b&#45;&gt;39a369b1_c055_4635_bb76_a75d89c27055 -->
<g id="edge13" class="edge">
<title>291a218c_84ea_4984_9283_ae7d375e074b&#45;&gt;39a369b1_c055_4635_bb76_a75d89c27055</title>
<path fill="none" stroke="black" d="M224.63,-132.94C261.59,-118.64 306,-101.44 345.89,-86"/>
<text text-anchor="middle" x="332.89" y="-89" font-family="Times,serif" font-size="10.00">owner</text>
<text text-anchor="middle" x="208.13" y="-124.94" font-family="Times,serif" font-size="10.00">account</text>
</g>
<!-- 30a65426_68b4_4e59_bd80_c68f4c591a69&#45;&gt;c -->
<g id="edge14" class="edge">
<title>30a65426_68b4_4e59_bd80_c68f4c591a69&#45;&gt;c</title>
<path fill="none" stroke="black" d="M884.9,-132.92C866.79,-128.7 848.15,-124.85 830.4,-122 607.36,-86.16 545.56,-126.92 323.4,-86 295.63,-80.89 265.55,-72.21 240.5,-64.06"/>
<text text-anchor="middle" x="222.5" y="-67.06" font-family="Times,serif" font-size="10.00">currency</text>
</g>
<!-- 30a65426_68b4_4e59_bd80_c68f4c591a69&#45;&gt;51a34042_7976_4720_919e_0b657ab32989 -->
<g id="edge15" class="edge">
<title>30a65426_68b4_4e59_bd80_c68f4c591a69&#45;&gt;51a34042_7976_4720_919e_0b657ab32989</title>
<path fill="none" stroke="black" d="M977.15,-132.78C968.41,-118.62 957.95,-101.65 948.51,-86.35"/>
<text text-anchor="middle" x="935.51" y="-89.35" font-family="Times,serif" font-size="10.00">owner</text>
<text text-anchor="middle" x="960.65" y="-124.78" font-family="Times,serif" font-size="10.00">account</text>
</g>
<!-- 7409fb0b_affc_4e5a_ad25_f1f17de7e2f6&#45;&gt;c -->
<g id="edge16" class="edge">
<title>7409fb0b_affc_4e5a_ad25_f1f17de7e2f6&#45;&gt;c</title>
<path fill="none" stroke="black" d="M339.3,-132.94C301.45,-111.2 251.98,-82.81 219.25,-64.01"/>
<text text-anchor="middle" x="201.25" y="-67.01" font-family="Times,serif" font-size="10.00">currency</text>
</g>
</g>
</svg>
