<?xml version="1.0" encoding="UTF-8" standalone="no"?>
<!DOCTYPE svg PUBLIC "-//W3C//DTD SVG 1.1//EN"
 "http://www.w3.org/Graphics/SVG/1.1/DTD/svg11.dtd">
<!-- Generated by graphviz version 2.44.0 (20200408.0750)
 -->
<!-- Title: model Pages: 1 -->
<svg width="1848px" height="496px"
 viewBox="0.00 0.00 1847.64 496.00" xmlns="http://www.w3.org/2000/svg" xmlns:xlink="http://www.w3.org/1999/xlink">
<g id="graph0" class="graph" transform="scale(1.0 1.0) rotate(0) translate(4 492)">
<title>model</title>
<polygon fill="white" stroke="transparent" points="-4,4 -4,-492 1843.64,-492 1843.64,4 -4,4"/>
<!-- 36e1ccac_ad7f_435e_b4fc_4e6271e6cc22 -->
<g id="node1" class="node">
<title>36e1ccac_ad7f_435e_b4fc_4e6271e6cc22</title>
<polygon fill="none" stroke="black" points="967,-466 967,-484 1188,-484 1188,-466 967,-466"/>
<text text-anchor="start" x="969.64" y="-473" font-family="Times,serif" text-decoration="underline" font-size="10.00">36e1ccac&#45;ad7f&#45;435e&#45;b4fc&#45;4e6271e6cc22 :Transaction</text>
<polygon fill="none" stroke="black" points="967,-400 967,-466 1188,-466 1188,-400 967,-400"/>
<text text-anchor="start" x="982.59" y="-454" font-family="Times,serif" font-size="10.00">amount = 25.5</text>
<text text-anchor="start" x="982.59" y="-442" font-family="Times,serif" font-size="10.00">description = &quot;Ref: concert ticket&quot;</text>
<text text-anchor="start" x="982.59" y="-430" font-family="Times,serif" font-size="10.00">id = &quot;36e1ccac&#45;ad7f&#45;435e&#45;b4fc&#45;4e6271e6cc22&quot;</text>
<text text-anchor="start" x="982.59" y="-418" font-family="Times,serif" font-size="10.00">rejectionDescription = &quot;&quot;</text>
<text text-anchor="start" x="982.59" y="-406" font-family="Times,serif" font-size="10.00">timestamp = 2021&#45;12&#45;10T00:12:55.401305700</text>
</g>
<!-- b -->
<g id="node2" class="node">
<title>b</title>
<polygon fill="none" stroke="black" points="670,-338 670,-356 1484,-356 1484,-338 670,-338"/>
<text text-anchor="start" x="1061.31" y="-345" font-family="Times,serif" text-decoration="underline" font-size="10.00">b :Bank</text>
<polygon fill="none" stroke="black" points="670,-308 670,-338 1484,-338 1484,-308 670,-308"/>
<text text-anchor="start" x="673" y="-326" font-family="Times,serif" font-size="10.00">accountsMap = sendItToTheBank8a633aa5&#45;907c&#45;4e57&#45;a313&#45;22e0adb2672e22043cd9&#45;4e9d&#45;4e33&#45;866f&#45;0be8dc9388232032f5a7&#45;0fe9&#45;4218&#45;926b&#45;0424003aa0777ec351d6&#45;652f&#45;4691&#45;8e72&#45;ea432d44a0c8</text>
<text text-anchor="start" x="673" y="-314" font-family="Times,serif" font-size="10.00">customerMap = 4441e0b5&#45;35db&#45;4ec4&#45;816d&#45;184d8c24eebae2f7bc4c&#45;ef2a&#45;466e&#45;b8a5&#45;d24f48b13afe1eaf6f4c&#45;4f92&#45;4e04&#45;bd87&#45;c82be03265deba51ecd7&#45;65ad&#45;40df&#45;bb32&#45;9b459bdb01ef</text>
</g>
<!-- 36e1ccac_ad7f_435e_b4fc_4e6271e6cc22&#45;&gt;b -->
<g id="edge1" class="edge">
<title>36e1ccac_ad7f_435e_b4fc_4e6271e6cc22&#45;&gt;b</title>
<path fill="none" stroke="black" d="M1077,-395.82C1077,-383.69 1077,-370.94 1077,-360.12"/>
<text text-anchor="middle" x="1067.28" y="-363.12" font-family="Times,serif" font-size="10.00">bank</text>
<text text-anchor="middle" x="1053.12" y="-386.82" font-family="Times,serif" font-size="10.00">transactions</text>
</g>
<!-- c -->
<g id="node3" class="node">
<title>c</title>
<polygon fill="none" stroke="black" points="993,-46 993,-64 1155,-64 1155,-46 993,-46"/>
<text text-anchor="start" x="1050.54" y="-53" font-family="Times,serif" text-decoration="underline" font-size="10.00">c :Currency</text>
<polygon fill="none" stroke="black" points="993,-28 993,-46 1155,-46 1155,-28 993,-28"/>
<text text-anchor="start" x="996" y="-34" font-family="Times,serif" font-size="10.00">declaringClass = class model.Currency</text>
</g>
<!-- 36e1ccac_ad7f_435e_b4fc_4e6271e6cc22&#45;&gt;c -->
<g id="edge2" class="edge">
<title>36e1ccac_ad7f_435e_b4fc_4e6271e6cc22&#45;&gt;c</title>
<path fill="none" stroke="black" d="M1195.54,-430.96C1445.36,-405.67 1988.08,-326.62 1801,-128 1755.13,-79.3 1265.54,-105.38 1200,-92 1173.83,-86.66 1145.74,-77.03 1122.75,-68.05"/>
<text text-anchor="middle" x="1105.26" y="-71.05" font-family="Times,serif" font-size="10.00">currency</text>
</g>
<!-- 2032f5a7_0fe9_4218_926b_0424003aa077 -->
<g id="node4" class="node">
<title>2032f5a7_0fe9_4218_926b_0424003aa077</title>
<polygon fill="none" stroke="black" points="1524,-240 1524,-258 1784,-258 1784,-240 1524,-240"/>
<text text-anchor="start" x="1550.56" y="-247" font-family="Times,serif" text-decoration="underline" font-size="10.00">2032f5a7&#45;0fe9&#45;4218&#45;926b&#45;0424003aa077 :Account</text>
<polygon fill="none" stroke="black" points="1524,-138 1524,-240 1784,-240 1784,-138 1524,-138"/>
<text text-anchor="start" x="1527" y="-228" font-family="Times,serif" font-size="10.00">balance = 25.5</text>
<text text-anchor="start" x="1527" y="-216" font-family="Times,serif" font-size="10.00">count = 0</text>
<text text-anchor="start" x="1527" y="-204" font-family="Times,serif" font-size="10.00">customerId = null</text>
<text text-anchor="start" x="1527" y="-192" font-family="Times,serif" font-size="10.00">iban = &quot;EE737651051390445057&quot;</text>
<text text-anchor="start" x="1527" y="-180" font-family="Times,serif" font-size="10.00">id = &quot;2032f5a7&#45;0fe9&#45;4218&#45;926b&#45;0424003aa077&quot;</text>
<text text-anchor="start" x="1527" y="-168" font-family="Times,serif" font-size="10.00">receivedTransaction = 36e1ccac&#45;ad7f&#45;435e&#45;b4fc&#45;4e6271e6cc22</text>
<text text-anchor="start" x="1527" y="-156" font-family="Times,serif" font-size="10.00">sentTransaction = </text>
<text text-anchor="start" x="1527" y="-144" font-family="Times,serif" font-size="10.00">status = &quot;ACTIVE&quot;</text>
</g>
<!-- 36e1ccac_ad7f_435e_b4fc_4e6271e6cc22&#45;&gt;2032f5a7_0fe9_4218_926b_0424003aa077 -->
<g id="edge3" class="edge">
<title>36e1ccac_ad7f_435e_b4fc_4e6271e6cc22&#45;&gt;2032f5a7_0fe9_4218_926b_0424003aa077</title>
<path fill="none" stroke="black" d="M1195.67,-432.4C1318.57,-421.52 1500.56,-399.3 1558,-360 1592.25,-336.57 1616.19,-296.54 1631.6,-262.26"/>
<text text-anchor="middle" x="1653.55" y="-265.26" font-family="Times,serif" font-size="10.00">destination</text>
<text text-anchor="middle" x="1280.36" y="-435.4" font-family="Times,serif" font-size="10.00">allTransactionsWithSignAndOrderedDesc</text>
</g>
<!-- 22043cd9_4e9d_4e33_866f_0be8dc938823 -->
<g id="node5" class="node">
<title>22043cd9_4e9d_4e33_866f_0be8dc938823</title>
<polygon fill="none" stroke="black" points="8,-246 8,-264 324,-264 324,-246 8,-246"/>
<text text-anchor="start" x="62" y="-253" font-family="Times,serif" text-decoration="underline" font-size="10.00">22043cd9&#45;4e9d&#45;4e33&#45;866f&#45;0be8dc938823 :Account</text>
<polygon fill="none" stroke="black" points="8,-132 8,-246 324,-246 324,-132 8,-132"/>
<text text-anchor="start" x="11" y="-234" font-family="Times,serif" font-size="10.00">allTransactionsWithSignAndOrderedDesc = [model.Transaction@423c6166]</text>
<text text-anchor="start" x="11" y="-222" font-family="Times,serif" font-size="10.00">balance = 74.5</text>
<text text-anchor="start" x="11" y="-210" font-family="Times,serif" font-size="10.00">count = 1</text>
<text text-anchor="start" x="11" y="-198" font-family="Times,serif" font-size="10.00">customerId = null</text>
<text text-anchor="start" x="11" y="-186" font-family="Times,serif" font-size="10.00">iban = &quot;EE545851120262985134&quot;</text>
<text text-anchor="start" x="11" y="-174" font-family="Times,serif" font-size="10.00">id = &quot;22043cd9&#45;4e9d&#45;4e33&#45;866f&#45;0be8dc938823&quot;</text>
<text text-anchor="start" x="11" y="-162" font-family="Times,serif" font-size="10.00">receivedTransaction = </text>
<text text-anchor="start" x="11" y="-150" font-family="Times,serif" font-size="10.00">sentTransaction = 36e1ccac&#45;ad7f&#45;435e&#45;b4fc&#45;4e6271e6cc22</text>
<text text-anchor="start" x="11" y="-138" font-family="Times,serif" font-size="10.00">status = &quot;ACTIVE&quot;</text>
</g>
<!-- 36e1ccac_ad7f_435e_b4fc_4e6271e6cc22&#45;&gt;22043cd9_4e9d_4e33_866f_0be8dc938823 -->
<g id="edge4" class="edge">
<title>36e1ccac_ad7f_435e_b4fc_4e6271e6cc22&#45;&gt;22043cd9_4e9d_4e33_866f_0be8dc938823</title>
<path fill="none" stroke="black" d="M958.47,-428.46C851.11,-415.31 702.43,-392.08 653,-360 627.56,-343.49 639.92,-319.75 614,-304 507.89,-239.55 457.09,-299.48 337,-268 335.45,-267.59 333.9,-267.18 332.34,-266.75"/>
<text text-anchor="middle" x="345.39" y="-269.75" font-family="Times,serif" font-size="10.00">source</text>
</g>
<!-- s -->
<g id="node6" class="node">
<title>s</title>
<polygon fill="none" stroke="black" points="397,-332 397,-350 598,-350 598,-332 397,-332"/>
<text text-anchor="start" x="480.69" y="-339" font-family="Times,serif" text-decoration="underline" font-size="10.00">s :Status</text>
<polygon fill="none" stroke="black" points="397,-314 397,-332 598,-332 598,-314 397,-314"/>
<text text-anchor="start" x="400" y="-320" font-family="Times,serif" font-size="10.00">declaringClass = class model.Transaction$Status</text>
</g>
<!-- 36e1ccac_ad7f_435e_b4fc_4e6271e6cc22&#45;&gt;s -->
<g id="edge5" class="edge">
<title>36e1ccac_ad7f_435e_b4fc_4e6271e6cc22&#45;&gt;s</title>
<path fill="none" stroke="black" d="M958.39,-421.34C866,-405.69 734.61,-382.73 620,-360 610.56,-358.13 600.74,-356.1 590.94,-354.03"/>
<text text-anchor="middle" x="579.55" y="-357.03" font-family="Times,serif" font-size="10.00">status</text>
</g>
<!-- b&#45;&gt;2032f5a7_0fe9_4218_926b_0424003aa077 -->
<g id="edge10" class="edge">
<title>b&#45;&gt;2032f5a7_0fe9_4218_926b_0424003aa077</title>
<path fill="none" stroke="black" d="M1338.53,-303.96C1393.16,-295.05 1449.95,-283.34 1502,-268 1508.12,-266.2 1514.3,-264.19 1520.5,-262.04"/>
<text text-anchor="middle" x="1503.01" y="-265.04" font-family="Times,serif" font-size="10.00">accounts</text>
<text text-anchor="middle" x="1328.81" y="-294.96" font-family="Times,serif" font-size="10.00">bank</text>
</g>
<!-- b&#45;&gt;22043cd9_4e9d_4e33_866f_0be8dc938823 -->
<g id="edge9" class="edge">
<title>b&#45;&gt;22043cd9_4e9d_4e33_866f_0be8dc938823</title>
<path fill="none" stroke="black" d="M700.71,-303.97C572.41,-293.21 445.81,-280.44 384,-268 367.07,-264.59 349.6,-260.35 332.26,-255.66"/>
<text text-anchor="middle" x="349.75" y="-246.66" font-family="Times,serif" font-size="10.00">accounts</text>
<text text-anchor="middle" x="690.99" y="-294.97" font-family="Times,serif" font-size="10.00">bank</text>
</g>
<!-- sendItToTheBank -->
<g id="node7" class="node">
<title>sendItToTheBank</title>
<polygon fill="none" stroke="black" points="1002,-240 1002,-258 1146,-258 1146,-240 1002,-240"/>
<text text-anchor="start" x="1018.32" y="-247" font-family="Times,serif" text-decoration="underline" font-size="10.00">sendItToTheBank :Account</text>
<polygon fill="none" stroke="black" points="1002,-138 1002,-240 1146,-240 1146,-138 1002,-138"/>
<text text-anchor="start" x="1005" y="-228" font-family="Times,serif" font-size="10.00">balance = 69420.0</text>
<text text-anchor="start" x="1005" y="-216" font-family="Times,serif" font-size="10.00">count = 0</text>
<text text-anchor="start" x="1005" y="-204" font-family="Times,serif" font-size="10.00">customerId = null</text>
<text text-anchor="start" x="1005" y="-192" font-family="Times,serif" font-size="10.00">iban = &quot;EE449388776122397381&quot;</text>
<text text-anchor="start" x="1005" y="-180" font-family="Times,serif" font-size="10.00">id = &quot;sendItToTheBank&quot;</text>
<text text-anchor="start" x="1005" y="-168" font-family="Times,serif" font-size="10.00">receivedTransaction = </text>
<text text-anchor="start" x="1005" y="-156" font-family="Times,serif" font-size="10.00">sentTransaction = </text>
<text text-anchor="start" x="1005" y="-144" font-family="Times,serif" font-size="10.00">status = &quot;ACTIVE&quot;</text>
</g>
<!-- b&#45;&gt;sendItToTheBank -->
<g id="edge6" class="edge">
<title>b&#45;&gt;sendItToTheBank</title>
<path fill="none" stroke="black" d="M1076.39,-303.97C1076.11,-291.83 1075.77,-276.94 1075.44,-262.24"/>
<text text-anchor="middle" x="1048.78" y="-265.24" font-family="Times,serif" font-size="10.00">bankAccount</text>
<text text-anchor="middle" x="1066.67" y="-294.97" font-family="Times,serif" font-size="10.00">bank</text>
</g>
<!-- 8a633aa5_907c_4e57_a313_22e0adb2672e -->
<g id="node8" class="node">
<title>8a633aa5_907c_4e57_a313_22e0adb2672e</title>
<polygon fill="none" stroke="black" points="1180,-240 1180,-258 1414,-258 1414,-240 1180,-240"/>
<text text-anchor="start" x="1193.29" y="-247" font-family="Times,serif" text-decoration="underline" font-size="10.00">8a633aa5&#45;907c&#45;4e57&#45;a313&#45;22e0adb2672e :Account</text>
<polygon fill="none" stroke="black" points="1180,-138 1180,-240 1414,-240 1414,-138 1180,-138"/>
<text text-anchor="start" x="1183" y="-228" font-family="Times,serif" font-size="10.00">balance = 0.0</text>
<text text-anchor="start" x="1183" y="-216" font-family="Times,serif" font-size="10.00">count = 0</text>
<text text-anchor="start" x="1183" y="-204" font-family="Times,serif" font-size="10.00">customerId = &quot;1eaf6f4c&#45;4f92&#45;4e04&#45;bd87&#45;c82be03265de&quot;</text>
<text text-anchor="start" x="1183" y="-192" font-family="Times,serif" font-size="10.00">iban = &quot;EE500467859057350272&quot;</text>
<text text-anchor="start" x="1183" y="-180" font-family="Times,serif" font-size="10.00">id = &quot;8a633aa5&#45;907c&#45;4e57&#45;a313&#45;22e0adb2672e&quot;</text>
<text text-anchor="start" x="1183" y="-168" font-family="Times,serif" font-size="10.00">receivedTransaction = </text>
<text text-anchor="start" x="1183" y="-156" font-family="Times,serif" font-size="10.00">sentTransaction = </text>
<text text-anchor="start" x="1183" y="-144" font-family="Times,serif" font-size="10.00">status = &quot;ACTIVE&quot;</text>
</g>
<!-- b&#45;&gt;8a633aa5_907c_4e57_a313_22e0adb2672e -->
<g id="edge7" class="edge">
<title>b&#45;&gt;8a633aa5_907c_4e57_a313_22e0adb2672e</title>
<path fill="none" stroke="black" d="M1122.05,-303.97C1142.29,-291.83 1167.1,-276.94 1191.6,-262.24"/>
<text text-anchor="middle" x="1174.11" y="-265.24" font-family="Times,serif" font-size="10.00">accounts</text>
<text text-anchor="middle" x="1112.33" y="-294.97" font-family="Times,serif" font-size="10.00">bank</text>
</g>
<!-- 7ec351d6_652f_4691_8e72_ea432d44a0c8 -->
<g id="node9" class="node">
<title>7ec351d6_652f_4691_8e72_ea432d44a0c8</title>
<polygon fill="none" stroke="black" points="473,-240 473,-258 704,-258 704,-240 473,-240"/>
<text text-anchor="start" x="485.06" y="-247" font-family="Times,serif" text-decoration="underline" font-size="10.00">7ec351d6&#45;652f&#45;4691&#45;8e72&#45;ea432d44a0c8 :Account</text>
<polygon fill="none" stroke="black" points="473,-138 473,-240 704,-240 704,-138 473,-138"/>
<text text-anchor="start" x="476" y="-228" font-family="Times,serif" font-size="10.00">balance = 100.0</text>
<text text-anchor="start" x="476" y="-216" font-family="Times,serif" font-size="10.00">count = 0</text>
<text text-anchor="start" x="476" y="-204" font-family="Times,serif" font-size="10.00">customerId = &quot;e2f7bc4c&#45;ef2a&#45;466e&#45;b8a5&#45;d24f48b13afe&quot;</text>
<text text-anchor="start" x="476" y="-192" font-family="Times,serif" font-size="10.00">iban = &quot;EE508166157234538669&quot;</text>
<text text-anchor="start" x="476" y="-180" font-family="Times,serif" font-size="10.00">id = &quot;7ec351d6&#45;652f&#45;4691&#45;8e72&#45;ea432d44a0c8&quot;</text>
<text text-anchor="start" x="476" y="-168" font-family="Times,serif" font-size="10.00">receivedTransaction = </text>
<text text-anchor="start" x="476" y="-156" font-family="Times,serif" font-size="10.00">sentTransaction = </text>
<text text-anchor="start" x="476" y="-144" font-family="Times,serif" font-size="10.00">status = &quot;ACTIVE&quot;</text>
</g>
<!-- b&#45;&gt;7ec351d6_652f_4691_8e72_ea432d44a0c8 -->
<g id="edge8" class="edge">
<title>b&#45;&gt;7ec351d6_652f_4691_8e72_ea432d44a0c8</title>
<path fill="none" stroke="black" d="M863.03,-303.99C815.58,-295.01 766.03,-283.27 721,-268 715.7,-266.2 710.36,-264.22 705.01,-262.1"/>
<text text-anchor="middle" x="687.52" y="-265.1" font-family="Times,serif" font-size="10.00">accounts</text>
<text text-anchor="middle" x="853.31" y="-294.99" font-family="Times,serif" font-size="10.00">bank</text>
</g>
<!-- a69ec0b4_fe28_4547_afeb_29f48ee9e624 -->
<g id="node10" class="node">
<title>a69ec0b4_fe28_4547_afeb_29f48ee9e624</title>
<polygon fill="none" stroke="black" points="738,-222 738,-240 968,-240 968,-222 738,-222"/>
<text text-anchor="start" x="740.68" y="-229" font-family="Times,serif" text-decoration="underline" font-size="10.00">a69ec0b4&#45;fe28&#45;4547&#45;afeb&#45;29f48ee9e624 :Administrator</text>
<polygon fill="none" stroke="black" points="738,-156 738,-222 968,-222 968,-156 738,-156"/>
<text text-anchor="start" x="758.09" y="-210" font-family="Times,serif" font-size="10.00">email = &quot;admin@bank.ee&quot;</text>
<text text-anchor="start" x="758.09" y="-198" font-family="Times,serif" font-size="10.00">firstName = &quot;Admin&quot;</text>
<text text-anchor="start" x="758.09" y="-186" font-family="Times,serif" font-size="10.00">id = &quot;a69ec0b4&#45;fe28&#45;4547&#45;afeb&#45;29f48ee9e624&quot;</text>
<text text-anchor="start" x="758.09" y="-174" font-family="Times,serif" font-size="10.00">lastName = &quot;ALice&quot;</text>
<text text-anchor="start" x="758.09" y="-162" font-family="Times,serif" font-size="10.00">password = &quot;secure_p@ssw0|2d&quot;</text>
</g>
<!-- b&#45;&gt;a69ec0b4_fe28_4547_afeb_29f48ee9e624 -->
<g id="edge11" class="edge">
<title>b&#45;&gt;a69ec0b4_fe28_4547_afeb_29f48ee9e624</title>
<path fill="none" stroke="black" d="M1031.13,-303.97C1001.95,-286.77 963.43,-264.08 929.68,-244.19"/>
<text text-anchor="middle" x="901.08" y="-247.19" font-family="Times,serif" font-size="10.00">administrators</text>
<text text-anchor="middle" x="1021.41" y="-294.97" font-family="Times,serif" font-size="10.00">bank</text>
</g>
<!-- e2f7bc4c_ef2a_466e_b8a5_d24f48b13afe -->
<g id="node11" class="node">
<title>e2f7bc4c_ef2a_466e_b8a5_d24f48b13afe</title>
<polygon fill="none" stroke="black" points="407,-70 407,-88 618,-88 618,-70 407,-70"/>
<text text-anchor="start" x="409.63" y="-77" font-family="Times,serif" text-decoration="underline" font-size="10.00">e2f7bc4c&#45;ef2a&#45;466e&#45;b8a5&#45;d24f48b13afe :Customer</text>
<polygon fill="none" stroke="black" points="407,-4 407,-70 618,-70 618,-4 407,-4"/>
<text text-anchor="start" x="418.42" y="-58" font-family="Times,serif" font-size="10.00">email = &quot;john@doe.ee&quot;</text>
<text text-anchor="start" x="418.42" y="-46" font-family="Times,serif" font-size="10.00">firstName = &quot;John&quot;</text>
<text text-anchor="start" x="418.42" y="-34" font-family="Times,serif" font-size="10.00">id = &quot;e2f7bc4c&#45;ef2a&#45;466e&#45;b8a5&#45;d24f48b13afe&quot;</text>
<text text-anchor="start" x="418.42" y="-22" font-family="Times,serif" font-size="10.00">lastName = &quot;Doe&quot;</text>
<text text-anchor="start" x="418.42" y="-10" font-family="Times,serif" font-size="10.00">password = &quot;pass1234&quot;</text>
</g>
<!-- b&#45;&gt;e2f7bc4c_ef2a_466e_b8a5_d24f48b13afe -->
<g id="edge12" class="edge">
<title>b&#45;&gt;e2f7bc4c_ef2a_466e_b8a5_d24f48b13afe</title>
<path fill="none" stroke="black" d="M713.68,-303.98C583.11,-292.47 465.09,-279.16 455,-268 413.28,-221.84 436.22,-187.32 455,-128 458.94,-115.54 465.57,-103.34 472.94,-92.34"/>
<text text-anchor="middle" x="452.67" y="-95.34" font-family="Times,serif" font-size="10.00">customers</text>
<text text-anchor="middle" x="723.4" y="-294.98" font-family="Times,serif" font-size="10.00">bank</text>
</g>
<!-- 1eaf6f4c_4f92_4e04_bd87_c82be03265de -->
<g id="node12" class="node">
<title>1eaf6f4c_4f92_4e04_bd87_c82be03265de</title>
<polygon fill="none" stroke="black" points="1217,-70 1217,-88 1431,-88 1431,-70 1217,-70"/>
<text text-anchor="start" x="1219.73" y="-77" font-family="Times,serif" text-decoration="underline" font-size="10.00">1eaf6f4c&#45;4f92&#45;4e04&#45;bd87&#45;c82be03265de :Customer</text>
<polygon fill="none" stroke="black" points="1217,-4 1217,-70 1431,-70 1431,-4 1217,-4"/>
<text text-anchor="start" x="1228.52" y="-58" font-family="Times,serif" font-size="10.00">email = &quot;bobby@tt.ee&quot;</text>
<text text-anchor="start" x="1228.52" y="-46" font-family="Times,serif" font-size="10.00">firstName = &quot;Bob&quot;</text>
<text text-anchor="start" x="1228.52" y="-34" font-family="Times,serif" font-size="10.00">id = &quot;1eaf6f4c&#45;4f92&#45;4e04&#45;bd87&#45;c82be03265de&quot;</text>
<text text-anchor="start" x="1228.52" y="-22" font-family="Times,serif" font-size="10.00">lastName = &quot;Jackson&quot;</text>
<text text-anchor="start" x="1228.52" y="-10" font-family="Times,serif" font-size="10.00">password = &quot;secret&quot;</text>
</g>
<!-- b&#45;&gt;1eaf6f4c_4f92_4e04_bd87_c82be03265de -->
<g id="edge13" class="edge">
<title>b&#45;&gt;1eaf6f4c_4f92_4e04_bd87_c82be03265de</title>
<path fill="none" stroke="black" d="M1352.79,-303.99C1388.96,-295.18 1418.02,-283.49 1431,-268 1470.96,-220.3 1458.7,-183.72 1431,-128 1424.21,-114.34 1413.88,-102.36 1402.28,-92.11"/>
<text text-anchor="middle" x="1382.01" y="-95.11" font-family="Times,serif" font-size="10.00">customers</text>
<text text-anchor="middle" x="1362.51" y="-294.99" font-family="Times,serif" font-size="10.00">bank</text>
</g>
<!-- 4441e0b5_35db_4ec4_816d_184d8c24eeba -->
<g id="node13" class="node">
<title>4441e0b5_35db_4ec4_816d_184d8c24eeba</title>
<polygon fill="none" stroke="black" points="144,-70 144,-88 363,-88 363,-70 144,-70"/>
<text text-anchor="start" x="146.72" y="-77" font-family="Times,serif" text-decoration="underline" font-size="10.00">4441e0b5&#45;35db&#45;4ec4&#45;816d&#45;184d8c24eeba :Customer</text>
<polygon fill="none" stroke="black" points="144,-4 144,-70 363,-70 363,-4 144,-4"/>
<text text-anchor="start" x="155.52" y="-58" font-family="Times,serif" font-size="10.00">email = &quot;johntest@doe.ee&quot;</text>
<text text-anchor="start" x="155.52" y="-46" font-family="Times,serif" font-size="10.00">firstName = &quot;johntest&quot;</text>
<text text-anchor="start" x="155.52" y="-34" font-family="Times,serif" font-size="10.00">id = &quot;4441e0b5&#45;35db&#45;4ec4&#45;816d&#45;184d8c24eeba&quot;</text>
<text text-anchor="start" x="155.52" y="-22" font-family="Times,serif" font-size="10.00">lastName = &quot;Doe&quot;</text>
<text text-anchor="start" x="155.52" y="-10" font-family="Times,serif" font-size="10.00">password = &quot;pass1234&quot;</text>
</g>
<!-- b&#45;&gt;4441e0b5_35db_4ec4_816d_184d8c24eeba -->
<g id="edge14" class="edge">
<title>b&#45;&gt;4441e0b5_35db_4ec4_816d_184d8c24eeba</title>
<path fill="none" stroke="black" d="M661.71,-304.85C548.87,-294.87 451.17,-282.39 428,-268 365.77,-229.35 387.71,-184.43 341,-128 330.81,-115.68 318.78,-103.45 306.95,-92.36"/>
<text text-anchor="middle" x="286.68" y="-95.36" font-family="Times,serif" font-size="10.00">customers</text>
<text text-anchor="middle" x="651.99" y="-307.85" font-family="Times,serif" font-size="10.00">bank</text>
</g>
<!-- ba51ecd7_65ad_40df_bb32_9b459bdb01ef -->
<g id="node14" class="node">
<title>ba51ecd7_65ad_40df_bb32_9b459bdb01ef</title>
<polygon fill="none" stroke="black" points="1519,-70 1519,-88 1736,-88 1736,-70 1519,-70"/>
<text text-anchor="start" x="1521.83" y="-77" font-family="Times,serif" text-decoration="underline" font-size="10.00">ba51ecd7&#45;65ad&#45;40df&#45;bb32&#45;9b459bdb01ef :Customer</text>
<polygon fill="none" stroke="black" points="1519,-4 1519,-70 1736,-70 1736,-4 1519,-4"/>
<text text-anchor="start" x="1530.63" y="-58" font-family="Times,serif" font-size="10.00">email = &quot;bobbytest@tt.ee&quot;</text>
<text text-anchor="start" x="1530.63" y="-46" font-family="Times,serif" font-size="10.00">firstName = &quot;Bob&quot;</text>
<text text-anchor="start" x="1530.63" y="-34" font-family="Times,serif" font-size="10.00">id = &quot;ba51ecd7&#45;65ad&#45;40df&#45;bb32&#45;9b459bdb01ef&quot;</text>
<text text-anchor="start" x="1530.63" y="-22" font-family="Times,serif" font-size="10.00">lastName = &quot;Jackson&quot;</text>
<text text-anchor="start" x="1530.63" y="-10" font-family="Times,serif" font-size="10.00">password = &quot;secret&quot;</text>
</g>
<!-- b&#45;&gt;ba51ecd7_65ad_40df_bb32_9b459bdb01ef -->
<g id="edge15" class="edge">
<title>b&#45;&gt;ba51ecd7_65ad_40df_bb32_9b459bdb01ef</title>
<path fill="none" stroke="black" d="M1355.57,-303.98C1400.65,-295.09 1438.59,-283.38 1457,-268 1507.7,-225.64 1466.49,-180.19 1507,-128 1517.48,-114.5 1530.86,-102.45 1544.86,-92.05"/>
<text text-anchor="middle" x="1524.59" y="-95.05" font-family="Times,serif" font-size="10.00">customers</text>
<text text-anchor="middle" x="1345.85" y="-294.98" font-family="Times,serif" font-size="10.00">bank</text>
</g>
<!-- 2032f5a7_0fe9_4218_926b_0424003aa077&#45;&gt;c -->
<g id="edge16" class="edge">
<title>2032f5a7_0fe9_4218_926b_0424003aa077&#45;&gt;c</title>
<path fill="none" stroke="black" d="M1515.97,-150.87C1488.04,-142.51 1458.74,-134.42 1431,-128 1329.77,-104.58 1300.71,-117.59 1200,-92 1175.24,-85.71 1148.49,-76.51 1126.04,-68.08"/>
<text text-anchor="middle" x="1143.52" y="-71.08" font-family="Times,serif" font-size="10.00">currency</text>
</g>
<!-- 2032f5a7_0fe9_4218_926b_0424003aa077&#45;&gt;ba51ecd7_65ad_40df_bb32_9b459bdb01ef -->
<g id="edge17" class="edge">
<title>2032f5a7_0fe9_4218_926b_0424003aa077&#45;&gt;ba51ecd7_65ad_40df_bb32_9b459bdb01ef</title>
<path fill="none" stroke="black" d="M1642.63,-133.82C1640.12,-119.89 1637.51,-105.4 1635.16,-92.34"/>
<text text-anchor="middle" x="1622.67" y="-95.34" font-family="Times,serif" font-size="10.00">owner</text>
<text text-anchor="middle" x="1627.08" y="-124.82" font-family="Times,serif" font-size="10.00">account</text>
</g>
<!-- 22043cd9_4e9d_4e33_866f_0be8dc938823&#45;&gt;c -->
<g id="edge18" class="edge">
<title>22043cd9_4e9d_4e33_866f_0be8dc938823&#45;&gt;c</title>
<path fill="none" stroke="black" d="M332.24,-131.56C336.85,-130.3 341.45,-129.11 346,-128 376.66,-120.55 797.47,-75.95 984.96,-56.3"/>
<text text-anchor="middle" x="967.47" y="-47.3" font-family="Times,serif" font-size="10.00">currency</text>
</g>
<!-- 22043cd9_4e9d_4e33_866f_0be8dc938823&#45;&gt;4441e0b5_35db_4ec4_816d_184d8c24eeba -->
<g id="edge19" class="edge">
<title>22043cd9_4e9d_4e33_866f_0be8dc938823&#45;&gt;4441e0b5_35db_4ec4_816d_184d8c24eeba</title>
<path fill="none" stroke="black" d="M206.19,-127.71C213.22,-115.58 220.37,-103.25 226.9,-92"/>
<text text-anchor="middle" x="214.41" y="-95" font-family="Times,serif" font-size="10.00">owner</text>
<text text-anchor="middle" x="190.64" y="-118.71" font-family="Times,serif" font-size="10.00">account</text>
</g>
<!-- sendItToTheBank&#45;&gt;c -->
<g id="edge20" class="edge">
<title>sendItToTheBank&#45;&gt;c</title>
<path fill="none" stroke="black" d="M1074,-133.82C1074,-110.28 1074,-85.15 1074,-68.01"/>
<text text-anchor="middle" x="1056.51" y="-71.01" font-family="Times,serif" font-size="10.00">currency</text>
</g>
<!-- 8a633aa5_907c_4e57_a313_22e0adb2672e&#45;&gt;c -->
<g id="edge21" class="edge">
<title>8a633aa5_907c_4e57_a313_22e0adb2672e&#45;&gt;c</title>
<path fill="none" stroke="black" d="M1203.07,-133.82C1168.08,-110.28 1130.71,-85.15 1105.24,-68.01"/>
<text text-anchor="middle" x="1087.75" y="-71.01" font-family="Times,serif" font-size="10.00">currency</text>
</g>
<!-- 8a633aa5_907c_4e57_a313_22e0adb2672e&#45;&gt;1eaf6f4c_4f92_4e04_bd87_c82be03265de -->
<g id="edge22" class="edge">
<title>8a633aa5_907c_4e57_a313_22e0adb2672e&#45;&gt;1eaf6f4c_4f92_4e04_bd87_c82be03265de</title>
<path fill="none" stroke="black" d="M1308.37,-133.82C1310.88,-119.89 1313.49,-105.4 1315.84,-92.34"/>
<text text-anchor="middle" x="1303.35" y="-95.34" font-family="Times,serif" font-size="10.00">owner</text>
<text text-anchor="middle" x="1292.82" y="-124.82" font-family="Times,serif" font-size="10.00">account</text>
</g>
<!-- 7ec351d6_652f_4691_8e72_ea432d44a0c8&#45;&gt;c -->
<g id="edge23" class="edge">
<title>7ec351d6_652f_4691_8e72_ea432d44a0c8&#45;&gt;c</title>
<path fill="none" stroke="black" d="M705.87,-133.93C710.94,-131.83 715.99,-129.84 721,-128 808.2,-95.96 912.33,-73.93 984.8,-61.02"/>
<text text-anchor="middle" x="967.32" y="-64.02" font-family="Times,serif" font-size="10.00">currency</text>
</g>
<!-- 7ec351d6_652f_4691_8e72_ea432d44a0c8&#45;&gt;e2f7bc4c_ef2a_466e_b8a5_d24f48b13afe -->
<g id="edge24" class="edge">
<title>7ec351d6_652f_4691_8e72_ea432d44a0c8&#45;&gt;e2f7bc4c_ef2a_466e_b8a5_d24f48b13afe</title>
<path fill="none" stroke="black" d="M555.99,-133.82C548.93,-119.89 541.59,-105.4 534.97,-92.34"/>
<text text-anchor="middle" x="522.48" y="-95.34" font-family="Times,serif" font-size="10.00">owner</text>
<text text-anchor="middle" x="540.44" y="-124.82" font-family="Times,serif" font-size="10.00">account</text>
</g>
<!-- 36e1ccac_ad7f_435e_b4fc_4e6271e6cc221 -->
<g id="node15" class="node">
<title>36e1ccac_ad7f_435e_b4fc_4e6271e6cc221</title>
<polygon fill="none" stroke="black" points="387,-466 387,-484 608,-484 608,-466 387,-466"/>
<text text-anchor="start" x="389.64" y="-473" font-family="Times,serif" text-decoration="underline" font-size="10.00">36e1ccac&#45;ad7f&#45;435e&#45;b4fc&#45;4e6271e6cc22 :Transaction</text>
<polygon fill="none" stroke="black" points="387,-400 387,-466 608,-466 608,-400 387,-400"/>
<text text-anchor="start" x="402.59" y="-454" font-family="Times,serif" font-size="10.00">amount = &#45;25.5</text>
<text text-anchor="start" x="402.59" y="-442" font-family="Times,serif" font-size="10.00">description = &quot;Ref: concert ticket&quot;</text>
<text text-anchor="start" x="402.59" y="-430" font-family="Times,serif" font-size="10.00">id = &quot;36e1ccac&#45;ad7f&#45;435e&#45;b4fc&#45;4e6271e6cc22&quot;</text>
<text text-anchor="start" x="402.59" y="-418" font-family="Times,serif" font-size="10.00">rejectionDescription = &quot;&quot;</text>
<text text-anchor="start" x="402.59" y="-406" font-family="Times,serif" font-size="10.00">timestamp = 2021&#45;12&#45;10T00:12:55.401305700</text>
</g>
<!-- 36e1ccac_ad7f_435e_b4fc_4e6271e6cc221&#45;&gt;b -->
<g id="edge25" class="edge">
<title>36e1ccac_ad7f_435e_b4fc_4e6271e6cc221&#45;&gt;b</title>
<path fill="none" stroke="black" d="M615.77,-418.88C707.33,-401.84 834.35,-378.18 931.92,-360.01"/>
<text text-anchor="middle" x="922.2" y="-363.01" font-family="Times,serif" font-size="10.00">bank</text>
</g>
<!-- 36e1ccac_ad7f_435e_b4fc_4e6271e6cc221&#45;&gt;c -->
<g id="edge26" class="edge">
<title>36e1ccac_ad7f_435e_b4fc_4e6271e6cc221&#45;&gt;c</title>
<path fill="none" stroke="black" d="M409.36,-395.92C397.14,-385.79 386.29,-373.85 379,-360 337.87,-281.88 425.4,-150.35 455,-128 475.91,-112.22 818.42,-74.06 984.75,-56.34"/>
<text text-anchor="middle" x="967.26" y="-59.34" font-family="Times,serif" font-size="10.00">currency</text>
</g>
<!-- 36e1ccac_ad7f_435e_b4fc_4e6271e6cc221&#45;&gt;2032f5a7_0fe9_4218_926b_0424003aa077 -->
<g id="edge27" class="edge">
<title>36e1ccac_ad7f_435e_b4fc_4e6271e6cc221&#45;&gt;2032f5a7_0fe9_4218_926b_0424003aa077</title>
<path fill="none" stroke="black" d="M615.86,-428.05C706.96,-418.39 835.82,-405.32 949,-396 1071.51,-385.91 1389.68,-412.14 1501,-360 1507.31,-357.05 1555.24,-306.13 1595.8,-262.34"/>
<text text-anchor="middle" x="1573.86" y="-265.34" font-family="Times,serif" font-size="10.00">destination</text>
</g>
<!-- 36e1ccac_ad7f_435e_b4fc_4e6271e6cc221&#45;&gt;22043cd9_4e9d_4e33_866f_0be8dc938823 -->
<g id="edge28" class="edge">
<title>36e1ccac_ad7f_435e_b4fc_4e6271e6cc221&#45;&gt;22043cd9_4e9d_4e33_866f_0be8dc938823</title>
<path fill="none" stroke="black" d="M404.69,-395.98C384.8,-385.05 364.27,-372.8 346,-360 307.2,-332.82 267.58,-298.26 235.42,-268.14"/>
<text text-anchor="middle" x="222.38" y="-271.14" font-family="Times,serif" font-size="10.00">source</text>
</g>
<!-- 36e1ccac_ad7f_435e_b4fc_4e6271e6cc221&#45;&gt;s -->
<g id="edge29" class="edge">
<title>36e1ccac_ad7f_435e_b4fc_4e6271e6cc221&#45;&gt;s</title>
<path fill="none" stroke="black" d="M497,-395.82C497,-381.37 497,-366.06 497,-354.16"/>
<text text-anchor="middle" x="485.61" y="-357.16" font-family="Times,serif" font-size="10.00">status</text>
</g>
</g>
</svg>
