<?xml version="1.0" encoding="UTF-8" standalone="no"?>
<!DOCTYPE svg PUBLIC "-//W3C//DTD SVG 1.1//EN"
 "http://www.w3.org/Graphics/SVG/1.1/DTD/svg11.dtd">
<!-- Generated by graphviz version 2.44.0 (20200408.0750)
 -->
<!-- Pages: 1 -->
<svg width="1106px" height="392px"
 viewBox="0.00 0.00 1105.50 392.00" xmlns="http://www.w3.org/2000/svg" xmlns:xlink="http://www.w3.org/1999/xlink">
<g id="graph0" class="graph" transform="scale(1.0 1.0) rotate(0) translate(4 388)">
<polygon fill="white" stroke="transparent" points="-4,4 -4,-388 1101.5,-388 1101.5,4 -4,4"/>
<!-- b -->
<g id="node1" class="node">
<title>b</title>
<polygon fill="none" stroke="black" points="739.5,-360 739.5,-378 776.5,-378 776.5,-360 739.5,-360"/>
<text text-anchor="start" x="742.31" y="-367" font-family="Times,serif" text-decoration="underline" font-size="10.00">b :Bank</text>
<polygon fill="none" stroke="black" points="739.5,-354 739.5,-360 776.5,-360 776.5,-354 739.5,-354"/>
</g>
<!-- dbbd5256_5187_4520_948f_30260b057255 -->
<g id="node2" class="node">
<title>dbbd5256_5187_4520_948f_30260b057255</title>
<polygon fill="none" stroke="black" points="555.5,-162 555.5,-180 771.5,-180 771.5,-162 555.5,-162"/>
<text text-anchor="start" x="558.1" y="-169" font-family="Times,serif" text-decoration="underline" font-size="10.00">dbbd5256&#45;5187&#45;4520&#45;948f&#45;30260b057255 :Account</text>
<polygon fill="none" stroke="black" points="555.5,-132 555.5,-162 771.5,-162 771.5,-132 555.5,-132"/>
<text text-anchor="start" x="564.39" y="-150" font-family="Times,serif" font-size="10.00">balance = 69420.0</text>
<text text-anchor="start" x="564.39" y="-138" font-family="Times,serif" font-size="10.00">id = &quot;dbbd5256&#45;5187&#45;4520&#45;948f&#45;30260b057255&quot;</text>
</g>
<!-- b&#45;&gt;dbbd5256_5187_4520_948f_30260b057255 -->
<g id="edge1" class="edge">
<title>b&#45;&gt;dbbd5256_5187_4520_948f_30260b057255</title>
<path fill="none" stroke="black" d="M759.1,-347.69C760.94,-319.19 761.19,-261.41 738.5,-220 730.9,-206.13 718.93,-194.02 706.76,-184.23"/>
<text text-anchor="middle" x="680.1" y="-187.23" font-family="Times,serif" font-size="10.00">bankAccount</text>
<text text-anchor="middle" x="749.39" y="-338.69" font-family="Times,serif" font-size="10.00">bank</text>
</g>
<!-- b9e9152f_8187_4f1a_b3e9_dd69f176e246 -->
<g id="node3" class="node">
<title>b9e9152f_8187_4f1a_b3e9_dd69f176e246</title>
<polygon fill="none" stroke="black" points="64.5,-162 64.5,-180 275.5,-180 275.5,-162 64.5,-162"/>
<text text-anchor="start" x="67.39" y="-169" font-family="Times,serif" text-decoration="underline" font-size="10.00">b9e9152f&#45;8187&#45;4f1a&#45;b3e9&#45;dd69f176e246 :Account</text>
<polygon fill="none" stroke="black" points="64.5,-132 64.5,-162 275.5,-162 275.5,-132 64.5,-132"/>
<text text-anchor="start" x="73.68" y="-150" font-family="Times,serif" font-size="10.00">balance = 200.0</text>
<text text-anchor="start" x="73.68" y="-138" font-family="Times,serif" font-size="10.00">id = &quot;b9e9152f&#45;8187&#45;4f1a&#45;b3e9&#45;dd69f176e246&quot;</text>
</g>
<!-- b&#45;&gt;b9e9152f_8187_4f1a_b3e9_dd69f176e246 -->
<g id="edge2" class="edge">
<title>b&#45;&gt;b9e9152f_8187_4f1a_b3e9_dd69f176e246</title>
<path fill="none" stroke="black" d="M730.34,-364.43C622.41,-361.91 227.78,-350.15 188.5,-312 154.56,-279.04 158.06,-218.99 163.73,-184.1"/>
<text text-anchor="middle" x="146.24" y="-187.1" font-family="Times,serif" font-size="10.00">accounts</text>
<text text-anchor="middle" x="720.62" y="-367.43" font-family="Times,serif" font-size="10.00">bank</text>
</g>
<!-- d001dcc5_d16e_40e1_8d8b_6b368306cfe3 -->
<g id="node4" class="node">
<title>d001dcc5_d16e_40e1_8d8b_6b368306cfe3</title>
<polygon fill="none" stroke="black" points="806.5,-162 806.5,-180 1019.5,-180 1019.5,-162 806.5,-162"/>
<text text-anchor="start" x="809.28" y="-169" font-family="Times,serif" text-decoration="underline" font-size="10.00">d001dcc5&#45;d16e&#45;40e1&#45;8d8b&#45;6b368306cfe3 :Account</text>
<polygon fill="none" stroke="black" points="806.5,-132 806.5,-162 1019.5,-162 1019.5,-132 806.5,-132"/>
<text text-anchor="start" x="815.57" y="-150" font-family="Times,serif" font-size="10.00">balance = 300.0</text>
<text text-anchor="start" x="815.57" y="-138" font-family="Times,serif" font-size="10.00">id = &quot;d001dcc5&#45;d16e&#45;40e1&#45;8d8b&#45;6b368306cfe3&quot;</text>
</g>
<!-- b&#45;&gt;d001dcc5_d16e_40e1_8d8b_6b368306cfe3 -->
<g id="edge3" class="edge">
<title>b&#45;&gt;d001dcc5_d16e_40e1_8d8b_6b368306cfe3</title>
<path fill="none" stroke="black" d="M760.7,-347.6C766.79,-318.45 782.42,-259.11 814.5,-220 826.17,-205.77 841.93,-193.7 857.39,-184.04"/>
<text text-anchor="middle" x="839.9" y="-187.04" font-family="Times,serif" font-size="10.00">accounts</text>
<text text-anchor="middle" x="770.42" y="-338.6" font-family="Times,serif" font-size="10.00">bank</text>
</g>
<!-- c334aeeb_ee87_458c_9870_26d2bc4864d0 -->
<g id="node5" class="node">
<title>c334aeeb_ee87_458c_9870_26d2bc4864d0</title>
<polygon fill="none" stroke="black" points="485.5,-290 485.5,-308 721.5,-308 721.5,-290 485.5,-290"/>
<text text-anchor="start" x="488.4" y="-297" font-family="Times,serif" text-decoration="underline" font-size="10.00">c334aeeb&#45;ee87&#45;458c&#45;9870&#45;26d2bc4864d0 :Administrator</text>
<polygon fill="none" stroke="black" points="485.5,-224 485.5,-290 721.5,-290 721.5,-224 485.5,-224"/>
<text text-anchor="start" x="505.8" y="-278" font-family="Times,serif" font-size="10.00">email = &quot;admin@bank.ee&quot;</text>
<text text-anchor="start" x="505.8" y="-266" font-family="Times,serif" font-size="10.00">firstName = &quot;Admin&quot;</text>
<text text-anchor="start" x="505.8" y="-254" font-family="Times,serif" font-size="10.00">id = &quot;c334aeeb&#45;ee87&#45;458c&#45;9870&#45;26d2bc4864d0&quot;</text>
<text text-anchor="start" x="505.8" y="-242" font-family="Times,serif" font-size="10.00">lastName = &quot;Alice&quot;</text>
<text text-anchor="start" x="505.8" y="-230" font-family="Times,serif" font-size="10.00">password = &quot;secure_p@ssw0|2d&quot;</text>
</g>
<!-- b&#45;&gt;c334aeeb_ee87_458c_9870_26d2bc4864d0 -->
<g id="edge4" class="edge">
<title>b&#45;&gt;c334aeeb_ee87_458c_9870_26d2bc4864d0</title>
<path fill="none" stroke="black" d="M730.68,-347.93C714.99,-337.95 694.39,-324.84 674.34,-312.08"/>
<text text-anchor="middle" x="645.74" y="-315.08" font-family="Times,serif" font-size="10.00">administrators</text>
<text text-anchor="middle" x="720.96" y="-338.93" font-family="Times,serif" font-size="10.00">bank</text>
</g>
<!-- 9d07f54b_30d1_44e4_aad6_18f8e97814e2 -->
<g id="node6" class="node">
<title>9d07f54b_30d1_44e4_aad6_18f8e97814e2</title>
<polygon fill="none" stroke="black" points="8.5,-70 8.5,-88 225.5,-88 225.5,-70 8.5,-70"/>
<text text-anchor="start" x="11.33" y="-77" font-family="Times,serif" text-decoration="underline" font-size="10.00">9d07f54b&#45;30d1&#45;44e4&#45;aad6&#45;18f8e97814e2 :Customer</text>
<polygon fill="none" stroke="black" points="8.5,-4 8.5,-70 225.5,-70 225.5,-4 8.5,-4"/>
<text text-anchor="start" x="20.13" y="-58" font-family="Times,serif" font-size="10.00">email = &quot;john@doe.ee&quot;</text>
<text text-anchor="start" x="20.13" y="-46" font-family="Times,serif" font-size="10.00">firstName = &quot;John&quot;</text>
<text text-anchor="start" x="20.13" y="-34" font-family="Times,serif" font-size="10.00">id = &quot;9d07f54b&#45;30d1&#45;44e4&#45;aad6&#45;18f8e97814e2&quot;</text>
<text text-anchor="start" x="20.13" y="-22" font-family="Times,serif" font-size="10.00">lastName = &quot;Doe&quot;</text>
<text text-anchor="start" x="20.13" y="-10" font-family="Times,serif" font-size="10.00">password = &quot;pass1234&quot;</text>
</g>
<!-- b&#45;&gt;9d07f54b_30d1_44e4_aad6_18f8e97814e2 -->
<g id="edge5" class="edge">
<title>b&#45;&gt;9d07f54b_30d1_44e4_aad6_18f8e97814e2</title>
<path fill="none" stroke="black" d="M730.21,-365.28C626.66,-365.94 258.65,-364.46 156.5,-312 89.77,-277.73 72.57,-254.33 46.5,-184 37.85,-160.66 37.82,-151.33 46.5,-128 51.3,-115.11 59.17,-102.9 67.94,-92.06"/>
<text text-anchor="middle" x="47.67" y="-95.06" font-family="Times,serif" font-size="10.00">customers</text>
<text text-anchor="middle" x="720.5" y="-356.28" font-family="Times,serif" font-size="10.00">bank</text>
</g>
<!-- fa255500_7e58_4ef7_b020_ffc0234ec4a0 -->
<g id="node7" class="node">
<title>fa255500_7e58_4ef7_b020_ffc0234ec4a0</title>
<polygon fill="none" stroke="black" points="877.5,-70 877.5,-88 1089.5,-88 1089.5,-70 877.5,-70"/>
<text text-anchor="start" x="880.07" y="-77" font-family="Times,serif" text-decoration="underline" font-size="10.00">fa255500&#45;7e58&#45;4ef7&#45;b020&#45;ffc0234ec4a0 :Customer</text>
<polygon fill="none" stroke="black" points="877.5,-4 877.5,-70 1089.5,-70 1089.5,-4 877.5,-4"/>
<text text-anchor="start" x="888.86" y="-58" font-family="Times,serif" font-size="10.00">email = &quot;bobby@tt.ee&quot;</text>
<text text-anchor="start" x="888.86" y="-46" font-family="Times,serif" font-size="10.00">firstName = &quot;Bob&quot;</text>
<text text-anchor="start" x="888.86" y="-34" font-family="Times,serif" font-size="10.00">id = &quot;fa255500&#45;7e58&#45;4ef7&#45;b020&#45;ffc0234ec4a0&quot;</text>
<text text-anchor="start" x="888.86" y="-22" font-family="Times,serif" font-size="10.00">lastName = &quot;Jackson&quot;</text>
<text text-anchor="start" x="888.86" y="-10" font-family="Times,serif" font-size="10.00">password = &quot;secret&quot;</text>
</g>
<!-- b&#45;&gt;fa255500_7e58_4ef7_b020_ffc0234ec4a0 -->
<g id="edge6" class="edge">
<title>b&#45;&gt;fa255500_7e58_4ef7_b020_ffc0234ec4a0</title>
<path fill="none" stroke="black" d="M784.59,-364.48C826.75,-362.35 908.79,-352.81 962.5,-312 1032.68,-258.67 1061.68,-212.47 1036.5,-128 1032.8,-115.6 1026.54,-103.33 1019.58,-92.24"/>
<text text-anchor="middle" x="999.31" y="-95.24" font-family="Times,serif" font-size="10.00">customers</text>
<text text-anchor="middle" x="794.31" y="-367.48" font-family="Times,serif" font-size="10.00">bank</text>
</g>
<!-- t -->
<g id="node8" class="node">
<title>t</title>
<polygon fill="none" stroke="black" points="832.5,-260 832.5,-278 868.5,-278 868.5,-260 832.5,-260"/>
<text text-anchor="start" x="835.09" y="-267" font-family="Times,serif" text-decoration="underline" font-size="10.00">t :Trace</text>
<polygon fill="none" stroke="black" points="832.5,-254 832.5,-260 868.5,-260 868.5,-254 832.5,-254"/>
</g>
<!-- b&#45;&gt;t -->
<g id="edge7" class="edge">
<title>b&#45;&gt;t</title>
<path fill="none" stroke="black" d="M774.52,-347.97C784.76,-337.65 797.99,-324.18 809.5,-312 818.07,-302.94 827.45,-292.67 835.07,-284.23"/>
<text text-anchor="middle" x="823.42" y="-287.23" font-family="Times,serif" font-size="10.00">traces</text>
</g>
<!-- t1 -->
<g id="node9" class="node">
<title>t1</title>
<polygon fill="none" stroke="black" points="904.5,-260 904.5,-278 945.5,-278 945.5,-260 904.5,-260"/>
<text text-anchor="start" x="907.09" y="-267" font-family="Times,serif" text-decoration="underline" font-size="10.00">t1 :Trace</text>
<polygon fill="none" stroke="black" points="904.5,-254 904.5,-260 945.5,-260 945.5,-254 904.5,-254"/>
</g>
<!-- b&#45;&gt;t1 -->
<g id="edge8" class="edge">
<title>b&#45;&gt;t1</title>
<path fill="none" stroke="black" d="M784.59,-358C812.09,-350 854.99,-334.96 886.5,-312 896.91,-304.41 906.28,-293.39 913.11,-284.16"/>
<text text-anchor="middle" x="901.45" y="-287.16" font-family="Times,serif" font-size="10.00">traces</text>
</g>
<!-- 71da1f25_881a_4549_a457_dae85f4599bd -->
<g id="node10" class="node">
<title>71da1f25_881a_4549_a457_dae85f4599bd</title>
<polygon fill="none" stroke="black" points="206.5,-290 206.5,-308 451.5,-308 451.5,-290 206.5,-290"/>
<text text-anchor="start" x="219.18" y="-297" font-family="Times,serif" text-decoration="underline" font-size="10.00">71da1f25&#45;881a&#45;4549&#45;a457&#45;dae85f4599bd :Transaction</text>
<polygon fill="none" stroke="black" points="206.5,-224 206.5,-290 451.5,-290 451.5,-224 206.5,-224"/>
<text text-anchor="start" x="209.5" y="-278" font-family="Times,serif" font-size="10.00">amount = 50.0</text>
<text text-anchor="start" x="209.5" y="-266" font-family="Times,serif" font-size="10.00">description = &quot;Ref: concert ticket&quot;</text>
<text text-anchor="start" x="209.5" y="-254" font-family="Times,serif" font-size="10.00">id = &quot;71da1f25&#45;881a&#45;4549&#45;a457&#45;dae85f4599bd&quot;</text>
<text text-anchor="start" x="209.5" y="-242" font-family="Times,serif" font-size="10.00">rejectionDescription = &quot;Made a mistake in the sent amount&quot;</text>
<text text-anchor="start" x="209.5" y="-230" font-family="Times,serif" font-size="10.00">timestamp = 2021&#45;11&#45;28T10:58:08.785297500</text>
</g>
<!-- b&#45;&gt;71da1f25_881a_4549_a457_dae85f4599bd -->
<g id="edge9" class="edge">
<title>b&#45;&gt;71da1f25_881a_4549_a457_dae85f4599bd</title>
<path fill="none" stroke="black" d="M730.15,-361.19C678.56,-353.75 563.49,-335.87 468.5,-312 465.4,-311.22 462.28,-310.41 459.13,-309.58"/>
<text text-anchor="middle" x="483.01" y="-312.58" font-family="Times,serif" font-size="10.00">transactions</text>
<text text-anchor="middle" x="720.43" y="-352.19" font-family="Times,serif" font-size="10.00">bank</text>
</g>
<!-- c -->
<g id="node11" class="node">
<title>c</title>
<polygon fill="none" stroke="black" points="296.5,-46 296.5,-64 430.5,-64 430.5,-46 296.5,-46"/>
<text text-anchor="start" x="340.04" y="-53" font-family="Times,serif" text-decoration="underline" font-size="10.00">c :Currency</text>
<polygon fill="none" stroke="black" points="296.5,-28 296.5,-46 430.5,-46 430.5,-28 296.5,-28"/>
<text text-anchor="start" x="299.5" y="-34" font-family="Times,serif" font-size="10.00">declaringClass = class Currency</text>
</g>
<!-- dbbd5256_5187_4520_948f_30260b057255&#45;&gt;c -->
<g id="edge10" class="edge">
<title>dbbd5256_5187_4520_948f_30260b057255&#45;&gt;c</title>
<path fill="none" stroke="black" d="M588.18,-127.89C536.81,-109.39 469.74,-85.25 422.3,-68.17"/>
<text text-anchor="middle" x="404.81" y="-71.17" font-family="Times,serif" font-size="10.00">currency</text>
</g>
<!-- b9e9152f_8187_4f1a_b3e9_dd69f176e246&#45;&gt;9d07f54b_30d1_44e4_aad6_18f8e97814e2 -->
<g id="edge12" class="edge">
<title>b9e9152f_8187_4f1a_b3e9_dd69f176e246&#45;&gt;9d07f54b_30d1_44e4_aad6_18f8e97814e2</title>
<path fill="none" stroke="black" d="M156.13,-127.75C150.85,-117 144.65,-104.36 138.74,-92.31"/>
<text text-anchor="middle" x="126.24" y="-95.31" font-family="Times,serif" font-size="10.00">owner</text>
<text text-anchor="middle" x="140.58" y="-118.75" font-family="Times,serif" font-size="10.00">account</text>
</g>
<!-- b9e9152f_8187_4f1a_b3e9_dd69f176e246&#45;&gt;c -->
<g id="edge11" class="edge">
<title>b9e9152f_8187_4f1a_b3e9_dd69f176e246&#45;&gt;c</title>
<path fill="none" stroke="black" d="M218.45,-127.75C251.68,-109.25 294.97,-85.15 325.58,-68.11"/>
<text text-anchor="middle" x="308.09" y="-71.11" font-family="Times,serif" font-size="10.00">currency</text>
</g>
<!-- d001dcc5_d16e_40e1_8d8b_6b368306cfe3&#45;&gt;fa255500_7e58_4ef7_b020_ffc0234ec4a0 -->
<g id="edge14" class="edge">
<title>d001dcc5_d16e_40e1_8d8b_6b368306cfe3&#45;&gt;fa255500_7e58_4ef7_b020_ffc0234ec4a0</title>
<path fill="none" stroke="black" d="M930.42,-127.75C937.48,-117 945.79,-104.36 953.71,-92.31"/>
<text text-anchor="middle" x="941.22" y="-95.31" font-family="Times,serif" font-size="10.00">owner</text>
<text text-anchor="middle" x="914.87" y="-118.75" font-family="Times,serif" font-size="10.00">account</text>
</g>
<!-- d001dcc5_d16e_40e1_8d8b_6b368306cfe3&#45;&gt;c -->
<g id="edge13" class="edge">
<title>d001dcc5_d16e_40e1_8d8b_6b368306cfe3&#45;&gt;c</title>
<path fill="none" stroke="black" d="M797.67,-129.89C794.58,-129.25 791.52,-128.62 788.5,-128 666.33,-103.06 523.9,-76.41 438.85,-60.75"/>
<text text-anchor="middle" x="456.34" y="-63.75" font-family="Times,serif" font-size="10.00">currency</text>
</g>
<!-- 71da1f25_881a_4549_a457_dae85f4599bd&#45;&gt;b9e9152f_8187_4f1a_b3e9_dd69f176e246 -->
<g id="edge17" class="edge">
<title>71da1f25_881a_4549_a457_dae85f4599bd&#45;&gt;b9e9152f_8187_4f1a_b3e9_dd69f176e246</title>
<path fill="none" stroke="black" d="M261.99,-219.82C244.12,-207.69 225.35,-194.94 209.42,-184.12"/>
<text text-anchor="middle" x="196.38" y="-187.12" font-family="Times,serif" font-size="10.00">source</text>
</g>
<!-- 71da1f25_881a_4549_a457_dae85f4599bd&#45;&gt;d001dcc5_d16e_40e1_8d8b_6b368306cfe3 -->
<g id="edge16" class="edge">
<title>71da1f25_881a_4549_a457_dae85f4599bd&#45;&gt;d001dcc5_d16e_40e1_8d8b_6b368306cfe3</title>
<path fill="none" stroke="black" d="M459.06,-222.13C462.23,-221.38 465.38,-220.67 468.5,-220 608.43,-189.95 647.28,-207.26 788.5,-184 791.54,-183.5 794.62,-182.97 797.73,-182.42"/>
<text text-anchor="middle" x="775.79" y="-185.42" font-family="Times,serif" font-size="10.00">destination</text>
</g>
<!-- 71da1f25_881a_4549_a457_dae85f4599bd&#45;&gt;c -->
<g id="edge15" class="edge">
<title>71da1f25_881a_4549_a457_dae85f4599bd&#45;&gt;c</title>
<path fill="none" stroke="black" d="M324.98,-219.82C323.92,-192.89 324.36,-158.19 330.5,-128 334.8,-106.87 344.48,-84.26 352.25,-68.31"/>
<text text-anchor="middle" x="369.74" y="-71.31" font-family="Times,serif" font-size="10.00">currency</text>
</g>
<!-- s -->
<g id="node12" class="node">
<title>s</title>
<polygon fill="none" stroke="black" points="347.5,-156 347.5,-174 521.5,-174 521.5,-156 347.5,-156"/>
<text text-anchor="start" x="417.69" y="-163" font-family="Times,serif" text-decoration="underline" font-size="10.00">s :Status</text>
<polygon fill="none" stroke="black" points="347.5,-138 347.5,-156 521.5,-156 521.5,-138 347.5,-138"/>
<text text-anchor="start" x="350.5" y="-144" font-family="Times,serif" font-size="10.00">declaringClass = class Transaction$Status</text>
</g>
<!-- 71da1f25_881a_4549_a457_dae85f4599bd&#45;&gt;s -->
<g id="edge18" class="edge">
<title>71da1f25_881a_4549_a457_dae85f4599bd&#45;&gt;s</title>
<path fill="none" stroke="black" d="M372.84,-219.82C387.02,-205.37 402.06,-190.06 413.73,-178.16"/>
<text text-anchor="middle" x="402.34" y="-181.16" font-family="Times,serif" font-size="10.00">status</text>
</g>
</g>
</svg>
