<?xml version="1.0" encoding="UTF-8" standalone="no"?>
<!DOCTYPE svg PUBLIC "-//W3C//DTD SVG 1.1//EN"
 "http://www.w3.org/Graphics/SVG/1.1/DTD/svg11.dtd">
<!-- Generated by graphviz version 2.49.3 (20211023.0002)
 -->
<!-- Title: model Pages: 1 -->
<svg width="1160px" height="449px"
 viewBox="0.00 0.00 1159.58 449.00" xmlns="http://www.w3.org/2000/svg" xmlns:xlink="http://www.w3.org/1999/xlink">
<g id="graph0" class="graph" transform="scale(1.0 1.0) rotate(0) translate(4 445)">
<title>model</title>
<polygon fill="white" stroke="transparent" points="-4,4 -4,-445 1155.58,-445 1155.58,4 -4,4"/>
<!-- ad89c255_ebe6_40ab_a6e0_6db7b52cf222 -->
<g id="node1" class="node">
<title>ad89c255_ebe6_40ab_a6e0_6db7b52cf222</title>
<polygon fill="none" stroke="black" points="91.58,-420 91.58,-437 364.58,-437 364.58,-420 91.58,-420"/>
<text text-anchor="start" x="118.08" y="-427" font-family="Times,serif" text-decoration="underline" font-size="10.00">ad89c255&#45;ebe6&#45;40ab&#45;a6e0&#45;6db7b52cf222 :Transaction</text>
<polygon fill="none" stroke="black" points="91.58,-359 91.58,-420 364.58,-420 364.58,-359 91.58,-359"/>
<text text-anchor="start" x="94.58" y="-409" font-family="Times,serif" font-size="10.00">amount = 50.0</text>
<text text-anchor="start" x="94.58" y="-398" font-family="Times,serif" font-size="10.00">description = &quot;Expensive fee&quot;</text>
<text text-anchor="start" x="94.58" y="-387" font-family="Times,serif" font-size="10.00">id = &quot;ad89c255&#45;ebe6&#45;40ab&#45;a6e0&#45;6db7b52cf222&quot;</text>
<text text-anchor="start" x="94.58" y="-376" font-family="Times,serif" font-size="10.00">rejectionDescription = &quot;Not enough money on the source account&quot;</text>
<text text-anchor="start" x="94.58" y="-365" font-family="Times,serif" font-size="10.00">timestamp = 2021&#45;12&#45;05T17:29:26.397918</text>
</g>
<!-- b -->
<g id="node2" class="node">
<title>b</title>
<polygon fill="none" stroke="black" points="264.58,-297.5 264.58,-314.5 907.58,-314.5 907.58,-297.5 264.58,-297.5"/>
<text text-anchor="start" x="570.08" y="-304.5" font-family="Times,serif" text-decoration="underline" font-size="10.00">b :Bank</text>
<polygon fill="none" stroke="black" points="264.58,-269.5 264.58,-297.5 907.58,-297.5 907.58,-269.5 264.58,-269.5"/>
<text text-anchor="start" x="267.58" y="-286.5" font-family="Times,serif" font-size="10.00">accountsMap = c7473287&#45;d29c&#45;4fe6&#45;a28e&#45;673d7eef26c5sendItToTheBank8a633aa5&#45;907c&#45;4e57&#45;a313&#45;22e0adb2672e7ec351d6&#45;652f&#45;4691&#45;8e72&#45;ea432d44a0c8</text>
<text text-anchor="start" x="267.58" y="-275.5" font-family="Times,serif" font-size="10.00">customerMap = e2f7bc4c&#45;ef2a&#45;466e&#45;b8a5&#45;d24f48b13afe1eaf6f4c&#45;4f92&#45;4e04&#45;bd87&#45;c82be03265deec779c98&#45;b18a&#45;4dde&#45;970d&#45;7d4d0c53366e</text>
</g>
<!-- ad89c255_ebe6_40ab_a6e0_6db7b52cf222&#45;&gt;b -->
<g id="edge1" class="edge">
<title>ad89c255_ebe6_40ab_a6e0_6db7b52cf222&#45;&gt;b</title>
<path fill="none" stroke="black" d="M372.16,-355.2C414.47,-342.97 459.44,-329.97 497.13,-319.07"/>
<text text-anchor="middle" x="487.13" y="-322.07" font-family="Times,serif" font-size="10.00">bank</text>
<text text-anchor="middle" x="348.16" y="-347.2" font-family="Times,serif" font-size="10.00">transactions</text>
</g>
<!-- c -->
<g id="node3" class="node">
<title>c</title>
<polygon fill="none" stroke="black" points="154.58,-43 154.58,-60 317.58,-60 317.58,-43 154.58,-43"/>
<text text-anchor="start" x="212.58" y="-50" font-family="Times,serif" text-decoration="underline" font-size="10.00">c :Currency</text>
<polygon fill="none" stroke="black" points="154.58,-26 154.58,-43 317.58,-43 317.58,-26 154.58,-26"/>
<text text-anchor="start" x="157.58" y="-32" font-family="Times,serif" font-size="10.00">declaringClass = class model.Currency</text>
</g>
<!-- ad89c255_ebe6_40ab_a6e0_6db7b52cf222&#45;&gt;c -->
<g id="edge2" class="edge">
<title>ad89c255_ebe6_40ab_a6e0_6db7b52cf222&#45;&gt;c</title>
<path fill="none" stroke="black" d="M144.28,-354.84C98.03,-326.46 44.7,-284.31 18.58,-230 -2.22,-186.74 -9.03,-161.26 18.58,-122 47.37,-81.07 99.78,-61.51 145.88,-52.21"/>
<text text-anchor="middle" x="128.38" y="-55.21" font-family="Times,serif" font-size="10.00">currency</text>
</g>
<!-- sendItToTheBank -->
<g id="node4" class="node">
<title>sendItToTheBank</title>
<polygon fill="none" stroke="black" points="35.58,-209 35.58,-226 179.58,-226 179.58,-209 35.58,-209"/>
<text text-anchor="start" x="52.08" y="-216" font-family="Times,serif" text-decoration="underline" font-size="10.00">sendItToTheBank :Account</text>
<polygon fill="none" stroke="black" points="35.58,-126 35.58,-209 179.58,-209 179.58,-126 35.58,-126"/>
<text text-anchor="start" x="38.58" y="-198" font-family="Times,serif" font-size="10.00">balance = 69420.0</text>
<text text-anchor="start" x="38.58" y="-187" font-family="Times,serif" font-size="10.00">customerId = null</text>
<text text-anchor="start" x="38.58" y="-176" font-family="Times,serif" font-size="10.00">iban = &quot;EE340622518380811671&quot;</text>
<text text-anchor="start" x="38.58" y="-165" font-family="Times,serif" font-size="10.00">id = &quot;sendItToTheBank&quot;</text>
<text text-anchor="start" x="38.58" y="-154" font-family="Times,serif" font-size="10.00">receivedTransaction = </text>
<text text-anchor="start" x="38.58" y="-143" font-family="Times,serif" font-size="10.00">sentTransaction = </text>
<text text-anchor="start" x="38.58" y="-132" font-family="Times,serif" font-size="10.00">status = &quot;ACTIVE&quot;</text>
</g>
<!-- ad89c255_ebe6_40ab_a6e0_6db7b52cf222&#45;&gt;sendItToTheBank -->
<g id="edge3" class="edge">
<title>ad89c255_ebe6_40ab_a6e0_6db7b52cf222&#45;&gt;sendItToTheBank</title>
<path fill="none" stroke="black" d="M204.59,-354.84C185.26,-319.41 157.53,-268.57 136.66,-230.31"/>
<text text-anchor="middle" x="114.66" y="-233.31" font-family="Times,serif" font-size="10.00">destination</text>
</g>
<!-- c7473287_d29c_4fe6_a28e_673d7eef26c5 -->
<g id="node5" class="node">
<title>c7473287_d29c_4fe6_a28e_673d7eef26c5</title>
<polygon fill="none" stroke="black" points="214.58,-209 214.58,-226 425.58,-226 425.58,-209 214.58,-209"/>
<text text-anchor="start" x="217.58" y="-216" font-family="Times,serif" text-decoration="underline" font-size="10.00">c7473287&#45;d29c&#45;4fe6&#45;a28e&#45;673d7eef26c5 :Account</text>
<polygon fill="none" stroke="black" points="214.58,-126 214.58,-209 425.58,-209 425.58,-126 214.58,-126"/>
<text text-anchor="start" x="223.58" y="-198" font-family="Times,serif" font-size="10.00">balance = 10.0</text>
<text text-anchor="start" x="223.58" y="-187" font-family="Times,serif" font-size="10.00">customerId = null</text>
<text text-anchor="start" x="223.58" y="-176" font-family="Times,serif" font-size="10.00">iban = &quot;EE603375588959080039&quot;</text>
<text text-anchor="start" x="223.58" y="-165" font-family="Times,serif" font-size="10.00">id = &quot;c7473287&#45;d29c&#45;4fe6&#45;a28e&#45;673d7eef26c5&quot;</text>
<text text-anchor="start" x="223.58" y="-154" font-family="Times,serif" font-size="10.00">receivedTransaction = </text>
<text text-anchor="start" x="223.58" y="-143" font-family="Times,serif" font-size="10.00">sentTransaction = </text>
<text text-anchor="start" x="223.58" y="-132" font-family="Times,serif" font-size="10.00">status = &quot;ACTIVE&quot;</text>
</g>
<!-- ad89c255_ebe6_40ab_a6e0_6db7b52cf222&#45;&gt;c7473287_d29c_4fe6_a28e_673d7eef26c5 -->
<g id="edge4" class="edge">
<title>ad89c255_ebe6_40ab_a6e0_6db7b52cf222&#45;&gt;c7473287_d29c_4fe6_a28e_673d7eef26c5</title>
<path fill="none" stroke="black" d="M227.98,-354.7C229.6,-328.23 234.24,-293.96 246.58,-266 252.07,-253.57 259.79,-241.46 268.17,-230.38"/>
<text text-anchor="middle" x="254.67" y="-233.38" font-family="Times,serif" font-size="10.00">source</text>
</g>
<!-- s -->
<g id="node6" class="node">
<title>s</title>
<polygon fill="none" stroke="black" points="941.58,-292.5 941.58,-309.5 1143.58,-309.5 1143.58,-292.5 941.58,-292.5"/>
<text text-anchor="start" x="1025.58" y="-299.5" font-family="Times,serif" text-decoration="underline" font-size="10.00">s :Status</text>
<polygon fill="none" stroke="black" points="941.58,-275.5 941.58,-292.5 1143.58,-292.5 1143.58,-275.5 941.58,-275.5"/>
<text text-anchor="start" x="944.58" y="-281.5" font-family="Times,serif" font-size="10.00">declaringClass = class model.Transaction$Status</text>
</g>
<!-- ad89c255_ebe6_40ab_a6e0_6db7b52cf222&#45;&gt;s -->
<g id="edge5" class="edge">
<title>ad89c255_ebe6_40ab_a6e0_6db7b52cf222&#45;&gt;s</title>
<path fill="none" stroke="black" d="M372.34,-385.11C513.72,-372.49 734.72,-350.06 924.58,-319 934.3,-317.41 944.43,-315.54 954.49,-313.56"/>
<text text-anchor="middle" x="942.99" y="-316.56" font-family="Times,serif" font-size="10.00">status</text>
</g>
<!-- b&#45;&gt;sendItToTheBank -->
<g id="edge6" class="edge">
<title>b&#45;&gt;sendItToTheBank</title>
<path fill="none" stroke="black" d="M333.27,-265.95C287.01,-257.26 239.74,-245.61 196.58,-230 193.62,-228.93 190.65,-227.76 187.68,-226.5"/>
<text text-anchor="middle" x="214.68" y="-229.5" font-family="Times,serif" font-size="10.00">bankAccount</text>
<text text-anchor="middle" x="323.27" y="-257.95" font-family="Times,serif" font-size="10.00">bank</text>
</g>
<!-- b&#45;&gt;c7473287_d29c_4fe6_a28e_673d7eef26c5 -->
<g id="edge9" class="edge">
<title>b&#45;&gt;c7473287_d29c_4fe6_a28e_673d7eef26c5</title>
<path fill="none" stroke="black" d="M526.22,-265.95C498.81,-254.15 465.31,-239.73 433.33,-225.96"/>
<text text-anchor="middle" x="450.83" y="-228.96" font-family="Times,serif" font-size="10.00">accounts</text>
<text text-anchor="middle" x="536.22" y="-257.95" font-family="Times,serif" font-size="10.00">bank</text>
</g>
<!-- 8a633aa5_907c_4e57_a313_22e0adb2672e -->
<g id="node7" class="node">
<title>8a633aa5_907c_4e57_a313_22e0adb2672e</title>
<polygon fill="none" stroke="black" points="802.58,-209 802.58,-226 1037.58,-226 1037.58,-209 802.58,-209"/>
<text text-anchor="start" x="816.08" y="-216" font-family="Times,serif" text-decoration="underline" font-size="10.00">8a633aa5&#45;907c&#45;4e57&#45;a313&#45;22e0adb2672e :Account</text>
<polygon fill="none" stroke="black" points="802.58,-126 802.58,-209 1037.58,-209 1037.58,-126 802.58,-126"/>
<text text-anchor="start" x="805.58" y="-198" font-family="Times,serif" font-size="10.00">balance = 0.0</text>
<text text-anchor="start" x="805.58" y="-187" font-family="Times,serif" font-size="10.00">customerId = &quot;1eaf6f4c&#45;4f92&#45;4e04&#45;bd87&#45;c82be03265de&quot;</text>
<text text-anchor="start" x="805.58" y="-176" font-family="Times,serif" font-size="10.00">iban = null</text>
<text text-anchor="start" x="805.58" y="-165" font-family="Times,serif" font-size="10.00">id = &quot;8a633aa5&#45;907c&#45;4e57&#45;a313&#45;22e0adb2672e&quot;</text>
<text text-anchor="start" x="805.58" y="-154" font-family="Times,serif" font-size="10.00">receivedTransaction = </text>
<text text-anchor="start" x="805.58" y="-143" font-family="Times,serif" font-size="10.00">sentTransaction = </text>
<text text-anchor="start" x="805.58" y="-132" font-family="Times,serif" font-size="10.00">status = &quot;ACTIVE&quot;</text>
</g>
<!-- b&#45;&gt;8a633aa5_907c_4e57_a313_22e0adb2672e -->
<g id="edge7" class="edge">
<title>b&#45;&gt;8a633aa5_907c_4e57_a313_22e0adb2672e</title>
<path fill="none" stroke="black" d="M669.95,-265.86C704.12,-255.19 743.87,-242.41 779.58,-230 784.25,-228.38 788.99,-226.71 793.77,-225"/>
<text text-anchor="middle" x="776.27" y="-228" font-family="Times,serif" font-size="10.00">accounts</text>
<text text-anchor="middle" x="659.95" y="-257.86" font-family="Times,serif" font-size="10.00">bank</text>
</g>
<!-- 7ec351d6_652f_4691_8e72_ea432d44a0c8 -->
<g id="node8" class="node">
<title>7ec351d6_652f_4691_8e72_ea432d44a0c8</title>
<polygon fill="none" stroke="black" points="497.58,-209 497.58,-226 729.58,-226 729.58,-209 497.58,-209"/>
<text text-anchor="start" x="510.08" y="-216" font-family="Times,serif" text-decoration="underline" font-size="10.00">7ec351d6&#45;652f&#45;4691&#45;8e72&#45;ea432d44a0c8 :Account</text>
<polygon fill="none" stroke="black" points="497.58,-126 497.58,-209 729.58,-209 729.58,-126 497.58,-126"/>
<text text-anchor="start" x="500.58" y="-198" font-family="Times,serif" font-size="10.00">balance = 100.0</text>
<text text-anchor="start" x="500.58" y="-187" font-family="Times,serif" font-size="10.00">customerId = &quot;e2f7bc4c&#45;ef2a&#45;466e&#45;b8a5&#45;d24f48b13afe&quot;</text>
<text text-anchor="start" x="500.58" y="-176" font-family="Times,serif" font-size="10.00">iban = null</text>
<text text-anchor="start" x="500.58" y="-165" font-family="Times,serif" font-size="10.00">id = &quot;7ec351d6&#45;652f&#45;4691&#45;8e72&#45;ea432d44a0c8&quot;</text>
<text text-anchor="start" x="500.58" y="-154" font-family="Times,serif" font-size="10.00">receivedTransaction = </text>
<text text-anchor="start" x="500.58" y="-143" font-family="Times,serif" font-size="10.00">sentTransaction = </text>
<text text-anchor="start" x="500.58" y="-132" font-family="Times,serif" font-size="10.00">status = &quot;ACTIVE&quot;</text>
</g>
<!-- b&#45;&gt;7ec351d6_652f_4691_8e72_ea432d44a0c8 -->
<g id="edge8" class="edge">
<title>b&#45;&gt;7ec351d6_652f_4691_8e72_ea432d44a0c8</title>
<path fill="none" stroke="black" d="M591.87,-265.8C594.44,-255.25 597.53,-242.63 600.56,-230.25"/>
<text text-anchor="middle" x="583.06" y="-233.25" font-family="Times,serif" font-size="10.00">accounts</text>
<text text-anchor="middle" x="581.87" y="-257.8" font-family="Times,serif" font-size="10.00">bank</text>
</g>
<!-- e2f7bc4c_ef2a_466e_b8a5_d24f48b13afe -->
<g id="node9" class="node">
<title>e2f7bc4c_ef2a_466e_b8a5_d24f48b13afe</title>
<polygon fill="none" stroke="black" points="632.58,-65 632.58,-82 844.58,-82 844.58,-65 632.58,-65"/>
<text text-anchor="start" x="635.58" y="-72" font-family="Times,serif" text-decoration="underline" font-size="10.00">e2f7bc4c&#45;ef2a&#45;466e&#45;b8a5&#45;d24f48b13afe :Customer</text>
<polygon fill="none" stroke="black" points="632.58,-4 632.58,-65 844.58,-65 844.58,-4 632.58,-4"/>
<text text-anchor="start" x="644.08" y="-54" font-family="Times,serif" font-size="10.00">email = &quot;john@doe.ee&quot;</text>
<text text-anchor="start" x="644.08" y="-43" font-family="Times,serif" font-size="10.00">firstName = &quot;John&quot;</text>
<text text-anchor="start" x="644.08" y="-32" font-family="Times,serif" font-size="10.00">id = &quot;e2f7bc4c&#45;ef2a&#45;466e&#45;b8a5&#45;d24f48b13afe&quot;</text>
<text text-anchor="start" x="644.08" y="-21" font-family="Times,serif" font-size="10.00">lastName = &quot;Doe&quot;</text>
<text text-anchor="start" x="644.08" y="-10" font-family="Times,serif" font-size="10.00">password = &quot;pass1234&quot;</text>
</g>
<!-- b&#45;&gt;e2f7bc4c_ef2a_466e_b8a5_d24f48b13afe -->
<g id="edge10" class="edge">
<title>b&#45;&gt;e2f7bc4c_ef2a_466e_b8a5_d24f48b13afe</title>
<path fill="none" stroke="black" d="M703.9,-265.81C720.71,-257.14 735.89,-245.53 746.58,-230 775.63,-187.8 765.64,-126.56 753.82,-86.03"/>
<text text-anchor="middle" x="733.32" y="-89.03" font-family="Times,serif" font-size="10.00">customers</text>
<text text-anchor="middle" x="693.9" y="-257.81" font-family="Times,serif" font-size="10.00">bank</text>
</g>
<!-- 1eaf6f4c_4f92_4e04_bd87_c82be03265de -->
<g id="node10" class="node">
<title>1eaf6f4c_4f92_4e04_bd87_c82be03265de</title>
<polygon fill="none" stroke="black" points="922.58,-65 922.58,-82 1137.58,-82 1137.58,-65 922.58,-65"/>
<text text-anchor="start" x="925.58" y="-72" font-family="Times,serif" text-decoration="underline" font-size="10.00">1eaf6f4c&#45;4f92&#45;4e04&#45;bd87&#45;c82be03265de :Customer</text>
<polygon fill="none" stroke="black" points="922.58,-4 922.58,-65 1137.58,-65 1137.58,-4 922.58,-4"/>
<text text-anchor="start" x="934.58" y="-54" font-family="Times,serif" font-size="10.00">email = &quot;bobby@tt.ee&quot;</text>
<text text-anchor="start" x="934.58" y="-43" font-family="Times,serif" font-size="10.00">firstName = &quot;Bob&quot;</text>
<text text-anchor="start" x="934.58" y="-32" font-family="Times,serif" font-size="10.00">id = &quot;1eaf6f4c&#45;4f92&#45;4e04&#45;bd87&#45;c82be03265de&quot;</text>
<text text-anchor="start" x="934.58" y="-21" font-family="Times,serif" font-size="10.00">lastName = &quot;Jackson&quot;</text>
<text text-anchor="start" x="934.58" y="-10" font-family="Times,serif" font-size="10.00">password = &quot;secret&quot;</text>
</g>
<!-- b&#45;&gt;1eaf6f4c_4f92_4e04_bd87_c82be03265de -->
<g id="edge11" class="edge">
<title>b&#45;&gt;1eaf6f4c_4f92_4e04_bd87_c82be03265de</title>
<path fill="none" stroke="black" d="M897.92,-265.98C976.3,-256.46 1041.95,-244.39 1054.58,-230 1088.96,-190.81 1070.6,-127.95 1052,-86.32"/>
<text text-anchor="middle" x="1031.5" y="-89.32" font-family="Times,serif" font-size="10.00">customers</text>
<text text-anchor="middle" x="887.92" y="-257.98" font-family="Times,serif" font-size="10.00">bank</text>
</g>
<!-- ec779c98_b18a_4dde_970d_7d4d0c53366e -->
<g id="node11" class="node">
<title>ec779c98_b18a_4dde_970d_7d4d0c53366e</title>
<polygon fill="none" stroke="black" points="351.58,-65 351.58,-82 571.58,-82 571.58,-65 351.58,-65"/>
<text text-anchor="start" x="354.58" y="-72" font-family="Times,serif" text-decoration="underline" font-size="10.00">ec779c98&#45;b18a&#45;4dde&#45;970d&#45;7d4d0c53366e :Customer</text>
<polygon fill="none" stroke="black" points="351.58,-4 351.58,-65 571.58,-65 571.58,-4 351.58,-4"/>
<text text-anchor="start" x="363.58" y="-54" font-family="Times,serif" font-size="10.00">email = &quot;johntest@doe.ee&quot;</text>
<text text-anchor="start" x="363.58" y="-43" font-family="Times,serif" font-size="10.00">firstName = &quot;johntest&quot;</text>
<text text-anchor="start" x="363.58" y="-32" font-family="Times,serif" font-size="10.00">id = &quot;ec779c98&#45;b18a&#45;4dde&#45;970d&#45;7d4d0c53366e&quot;</text>
<text text-anchor="start" x="363.58" y="-21" font-family="Times,serif" font-size="10.00">lastName = &quot;Doe&quot;</text>
<text text-anchor="start" x="363.58" y="-10" font-family="Times,serif" font-size="10.00">password = &quot;pass1234&quot;</text>
</g>
<!-- b&#45;&gt;ec779c98_b18a_4dde_970d_7d4d0c53366e -->
<g id="edge12" class="edge">
<title>b&#45;&gt;ec779c98_b18a_4dde_970d_7d4d0c53366e</title>
<path fill="none" stroke="black" d="M520.35,-265.9C504.96,-256.82 490.24,-245.02 480.58,-230 452.93,-187 452.11,-126.5 455.58,-86.32"/>
<text text-anchor="middle" x="476.08" y="-89.32" font-family="Times,serif" font-size="10.00">customers</text>
<text text-anchor="middle" x="510.35" y="-257.9" font-family="Times,serif" font-size="10.00">bank</text>
</g>
<!-- sendItToTheBank&#45;&gt;c -->
<g id="edge13" class="edge">
<title>sendItToTheBank&#45;&gt;c</title>
<path fill="none" stroke="black" d="M159.64,-121.72C179.44,-101.46 200.81,-79.58 215.83,-64.22"/>
<text text-anchor="middle" x="198.33" y="-67.22" font-family="Times,serif" font-size="10.00">currency</text>
</g>
<!-- c7473287_d29c_4fe6_a28e_673d7eef26c5&#45;&gt;c -->
<g id="edge14" class="edge">
<title>c7473287_d29c_4fe6_a28e_673d7eef26c5&#45;&gt;c</title>
<path fill="none" stroke="black" d="M285.42,-121.72C272.42,-101.46 258.4,-79.58 248.55,-64.22"/>
<text text-anchor="middle" x="266.05" y="-67.22" font-family="Times,serif" font-size="10.00">currency</text>
</g>
<!-- c7473287_d29c_4fe6_a28e_673d7eef26c5&#45;&gt;ec779c98_b18a_4dde_970d_7d4d0c53366e -->
<g id="edge15" class="edge">
<title>c7473287_d29c_4fe6_a28e_673d7eef26c5&#45;&gt;ec779c98_b18a_4dde_970d_7d4d0c53366e</title>
<path fill="none" stroke="black" d="M377.34,-121.72C390.08,-109.96 403.42,-97.66 415.63,-86.4"/>
<text text-anchor="middle" x="403.13" y="-89.4" font-family="Times,serif" font-size="10.00">owner</text>
<text text-anchor="middle" x="361.34" y="-113.72" font-family="Times,serif" font-size="10.00">account</text>
</g>
<!-- 8a633aa5_907c_4e57_a313_22e0adb2672e&#45;&gt;c -->
<g id="edge16" class="edge">
<title>8a633aa5_907c_4e57_a313_22e0adb2672e&#45;&gt;c</title>
<path fill="none" stroke="black" d="M793.75,-133.1C777.99,-128.85 762,-125 746.58,-122 566.16,-86.89 512.94,-130.44 334.58,-86 314.29,-80.94 292.81,-72.27 275.05,-64.12"/>
<text text-anchor="middle" x="292.55" y="-67.12" font-family="Times,serif" font-size="10.00">currency</text>
</g>
<!-- 8a633aa5_907c_4e57_a313_22e0adb2672e&#45;&gt;1eaf6f4c_4f92_4e04_bd87_c82be03265de -->
<g id="edge17" class="edge">
<title>8a633aa5_907c_4e57_a313_22e0adb2672e&#45;&gt;1eaf6f4c_4f92_4e04_bd87_c82be03265de</title>
<path fill="none" stroke="black" d="M964.32,-121.72C974.2,-109.96 984.53,-97.66 993.98,-86.4"/>
<text text-anchor="middle" x="981.48" y="-89.4" font-family="Times,serif" font-size="10.00">owner</text>
<text text-anchor="middle" x="948.32" y="-113.72" font-family="Times,serif" font-size="10.00">account</text>
</g>
<!-- 7ec351d6_652f_4691_8e72_ea432d44a0c8&#45;&gt;c -->
<g id="edge18" class="edge">
<title>7ec351d6_652f_4691_8e72_ea432d44a0c8&#45;&gt;c</title>
<path fill="none" stroke="black" d="M489.28,-136.58C429.19,-117.75 363.84,-96.85 334.58,-86 316.73,-79.38 297.38,-71.37 280.57,-64.12"/>
<text text-anchor="middle" x="263.07" y="-56.12" font-family="Times,serif" font-size="10.00">currency</text>
</g>
<!-- 7ec351d6_652f_4691_8e72_ea432d44a0c8&#45;&gt;e2f7bc4c_ef2a_466e_b8a5_d24f48b13afe -->
<g id="edge19" class="edge">
<title>7ec351d6_652f_4691_8e72_ea432d44a0c8&#45;&gt;e2f7bc4c_ef2a_466e_b8a5_d24f48b13afe</title>
<path fill="none" stroke="black" d="M664.42,-121.72C675.64,-109.96 687.38,-97.66 698.13,-86.4"/>
<text text-anchor="middle" x="685.63" y="-89.4" font-family="Times,serif" font-size="10.00">owner</text>
<text text-anchor="middle" x="648.42" y="-113.72" font-family="Times,serif" font-size="10.00">account</text>
</g>
</g>
</svg>
