<?xml version="1.0" encoding="UTF-8" standalone="no"?>
<!DOCTYPE svg PUBLIC "-//W3C//DTD SVG 1.1//EN"
 "http://www.w3.org/Graphics/SVG/1.1/DTD/svg11.dtd">
<!-- Generated by graphviz version 2.43.0 (0)
 -->
<!-- Title: model Pages: 1 -->
<svg width="1108px" height="449px"
 viewBox="0.00 0.00 1107.86 449.00" xmlns="http://www.w3.org/2000/svg" xmlns:xlink="http://www.w3.org/1999/xlink">
<g id="graph0" class="graph" transform="scale(1.0 1.0) rotate(0) translate(4 445)">
<title>model</title>
<polygon fill="white" stroke="transparent" points="-4,4 -4,-445 1103.86,-445 1103.86,4 -4,4"/>
<!-- aa658198_e59d_4487_8a4a_20d83cdbae6f -->
<g id="node1" class="node">
<title>aa658198_e59d_4487_8a4a_20d83cdbae6f</title>
<polygon fill="none" stroke="black" points="382.36,-420 382.36,-437 614.36,-437 614.36,-420 382.36,-420"/>
<text text-anchor="start" x="385.36" y="-427" font-family="Times,serif" text-decoration="underline" font-size="10.00">aa658198&#45;e59d&#45;4487&#45;8a4a&#45;20d83cdbae6f :Transaction</text>
<polygon fill="none" stroke="black" points="382.36,-359 382.36,-420 614.36,-420 614.36,-359 382.36,-359"/>
<text text-anchor="start" x="398.86" y="-409" font-family="Times,serif" font-size="10.00">amount = 20.0</text>
<text text-anchor="start" x="398.86" y="-398" font-family="Times,serif" font-size="10.00">description = &quot;Transaction test&quot;</text>
<text text-anchor="start" x="398.86" y="-387" font-family="Times,serif" font-size="10.00">id = &quot;aa658198&#45;e59d&#45;4487&#45;8a4a&#45;20d83cdbae6f&quot;</text>
<text text-anchor="start" x="398.86" y="-376" font-family="Times,serif" font-size="10.00">rejectionDescription = &quot;&quot;</text>
<text text-anchor="start" x="398.86" y="-365" font-family="Times,serif" font-size="10.00">timestamp = 2021&#45;12&#45;04T17:10:23.141277822</text>
</g>
<!-- b -->
<g id="node2" class="node">
<title>b</title>
<polygon fill="none" stroke="black" points="253.36,-297.5 253.36,-314.5 743.36,-314.5 743.36,-297.5 253.36,-297.5"/>
<text text-anchor="start" x="481.86" y="-304.5" font-family="Times,serif" text-decoration="underline" font-size="10.00">b :Bank</text>
<polygon fill="none" stroke="black" points="253.36,-269.5 253.36,-297.5 743.36,-297.5 743.36,-269.5 253.36,-269.5"/>
<text text-anchor="start" x="256.36" y="-286.5" font-family="Times,serif" font-size="10.00">accountsMap = 5588f91b&#45;051e&#45;4871&#45;824b&#45;8218d36141c8sendItToTheBankf2b69ac8&#45;6f2e&#45;40b8&#45;8935&#45;cc14eac66648</text>
<text text-anchor="start" x="256.36" y="-275.5" font-family="Times,serif" font-size="10.00">customerMap = c253ae96&#45;7015&#45;4132&#45;9d0f&#45;9d8c7a63c39aaa478318&#45;440c&#45;449c&#45;848c&#45;5323e5a0e8da</text>
</g>
<!-- aa658198_e59d_4487_8a4a_20d83cdbae6f&#45;&gt;b -->
<g id="edge1" class="edge">
<title>aa658198_e59d_4487_8a4a_20d83cdbae6f&#45;&gt;b</title>
<path fill="none" stroke="black" d="M498.36,-354.9C498.36,-342.81 498.36,-330 498.36,-319.22"/>
<text text-anchor="middle" x="487.86" y="-322.22" font-family="Times,serif" font-size="10.00">bank</text>
</g>
<!-- c -->
<g id="node3" class="node">
<title>c</title>
<polygon fill="none" stroke="black" points="115.36,-43 115.36,-60 279.36,-60 279.36,-43 115.36,-43"/>
<text text-anchor="start" x="173.36" y="-50" font-family="Times,serif" text-decoration="underline" font-size="10.00">c :Currency</text>
<polygon fill="none" stroke="black" points="115.36,-26 115.36,-43 279.36,-43 279.36,-26 115.36,-26"/>
<text text-anchor="start" x="118.36" y="-32" font-family="Times,serif" font-size="10.00">declaringClass = class model.Currency</text>
</g>
<!-- aa658198_e59d_4487_8a4a_20d83cdbae6f&#45;&gt;c -->
<g id="edge2" class="edge">
<title>aa658198_e59d_4487_8a4a_20d83cdbae6f&#45;&gt;c</title>
<path fill="none" stroke="black" d="M374.27,-372.14C245.45,-343.35 57.49,-291.85 19.36,-230 -5.83,-189.14 -6.9,-162.18 19.36,-122 39.2,-91.64 73.77,-73.02 107.19,-61.64"/>
<text text-anchor="middle" x="89.19" y="-64.64" font-family="Times,serif" font-size="10.00">currency</text>
</g>
<!-- 5588f91b_051e_4871_824b_8218d36141c8 -->
<g id="node4" class="node">
<title>5588f91b_051e_4871_824b_8218d36141c8</title>
<polygon fill="none" stroke="black" points="37.36,-209 37.36,-226 308.36,-226 308.36,-209 37.36,-209"/>
<text text-anchor="start" x="64.36" y="-216" font-family="Times,serif" text-decoration="underline" font-size="10.00">5588f91b&#45;051e&#45;4871&#45;824b&#45;8218d36141c8 :Account</text>
<polygon fill="none" stroke="black" points="37.36,-126 37.36,-209 308.36,-209 308.36,-126 37.36,-126"/>
<text text-anchor="start" x="40.36" y="-198" font-family="Times,serif" font-size="10.00">balance = 20.0</text>
<text text-anchor="start" x="40.36" y="-187" font-family="Times,serif" font-size="10.00">customerId = null</text>
<text text-anchor="start" x="40.36" y="-176" font-family="Times,serif" font-size="10.00">iban = null</text>
<text text-anchor="start" x="40.36" y="-165" font-family="Times,serif" font-size="10.00">id = &quot;5588f91b&#45;051e&#45;4871&#45;824b&#45;8218d36141c8&quot;</text>
<text text-anchor="start" x="40.36" y="-154" font-family="Times,serif" font-size="10.00">receivedTransaction = aa658198&#45;e59d&#45;4487&#45;8a4a&#45;20d83cdbae6f</text>
<text text-anchor="start" x="40.36" y="-143" font-family="Times,serif" font-size="10.00">sentTransaction = </text>
<text text-anchor="start" x="40.36" y="-132" font-family="Times,serif" font-size="10.00">status = &quot;ACTIVE&quot;</text>
</g>
<!-- aa658198_e59d_4487_8a4a_20d83cdbae6f&#45;&gt;5588f91b_051e_4871_824b_8218d36141c8 -->
<g id="edge3" class="edge">
<title>aa658198_e59d_4487_8a4a_20d83cdbae6f&#45;&gt;5588f91b_051e_4871_824b_8218d36141c8</title>
<path fill="none" stroke="black" d="M374.27,-382.45C326.64,-371.53 274.59,-352.42 236.36,-319 210.1,-296.04 194.05,-260.16 184.6,-230.22"/>
<text text-anchor="middle" x="161.6" y="-233.22" font-family="Times,serif" font-size="10.00">destination</text>
<text text-anchor="middle" x="316.27" y="-385.45" font-family="Times,serif" font-size="10.00">allTransactionsOrderedDesc</text>
</g>
<!-- f2b69ac8_6f2e_40b8_8935_cc14eac66648 -->
<g id="node5" class="node">
<title>f2b69ac8_6f2e_40b8_8935_cc14eac66648</title>
<polygon fill="none" stroke="black" points="839.36,-209 839.36,-226 1092.36,-226 1092.36,-209 839.36,-209"/>
<text text-anchor="start" x="860.36" y="-216" font-family="Times,serif" text-decoration="underline" font-size="10.00">f2b69ac8&#45;6f2e&#45;40b8&#45;8935&#45;cc14eac66648 :Account</text>
<polygon fill="none" stroke="black" points="839.36,-126 839.36,-209 1092.36,-209 1092.36,-126 839.36,-126"/>
<text text-anchor="start" x="842.36" y="-198" font-family="Times,serif" font-size="10.00">balance = 1.0</text>
<text text-anchor="start" x="842.36" y="-187" font-family="Times,serif" font-size="10.00">customerId = null</text>
<text text-anchor="start" x="842.36" y="-176" font-family="Times,serif" font-size="10.00">iban = null</text>
<text text-anchor="start" x="842.36" y="-165" font-family="Times,serif" font-size="10.00">id = &quot;f2b69ac8&#45;6f2e&#45;40b8&#45;8935&#45;cc14eac66648&quot;</text>
<text text-anchor="start" x="842.36" y="-154" font-family="Times,serif" font-size="10.00">receivedTransaction = </text>
<text text-anchor="start" x="842.36" y="-143" font-family="Times,serif" font-size="10.00">sentTransaction = aa658198&#45;e59d&#45;4487&#45;8a4a&#45;20d83cdbae6f</text>
<text text-anchor="start" x="842.36" y="-132" font-family="Times,serif" font-size="10.00">status = &quot;ACTIVE&quot;</text>
</g>
<!-- aa658198_e59d_4487_8a4a_20d83cdbae6f&#45;&gt;f2b69ac8_6f2e_40b8_8935_cc14eac66648 -->
<g id="edge4" class="edge">
<title>aa658198_e59d_4487_8a4a_20d83cdbae6f&#45;&gt;f2b69ac8_6f2e_40b8_8935_cc14eac66648</title>
<path fill="none" stroke="black" d="M622.41,-377.35C668.69,-365.76 719.79,-347.53 760.36,-319 784.28,-302.18 777.26,-285.16 799.36,-266 814.56,-252.83 832.03,-240.85 849.81,-230.24"/>
<text text-anchor="middle" x="836.31" y="-233.24" font-family="Times,serif" font-size="10.00">source</text>
<text text-anchor="middle" x="680.41" y="-380.35" font-family="Times,serif" font-size="10.00">allTransactionsOrderedDesc</text>
</g>
<!-- s -->
<g id="node6" class="node">
<title>s</title>
<polygon fill="none" stroke="black" points="816.36,-292.5 816.36,-309.5 1021.36,-309.5 1021.36,-292.5 816.36,-292.5"/>
<text text-anchor="start" x="901.86" y="-299.5" font-family="Times,serif" text-decoration="underline" font-size="10.00">s :Status</text>
<polygon fill="none" stroke="black" points="816.36,-275.5 816.36,-292.5 1021.36,-292.5 1021.36,-275.5 816.36,-275.5"/>
<text text-anchor="start" x="819.36" y="-281.5" font-family="Times,serif" font-size="10.00">declaringClass = class model.Transaction$Status</text>
</g>
<!-- aa658198_e59d_4487_8a4a_20d83cdbae6f&#45;&gt;s -->
<g id="edge5" class="edge">
<title>aa658198_e59d_4487_8a4a_20d83cdbae6f&#45;&gt;s</title>
<path fill="none" stroke="black" d="M622.39,-366.44C691.7,-349.36 776.12,-328.55 837.03,-313.54"/>
<text text-anchor="middle" x="825.03" y="-316.54" font-family="Times,serif" font-size="10.00">status</text>
</g>
<!-- b&#45;&gt;5588f91b_051e_4871_824b_8218d36141c8 -->
<g id="edge8" class="edge">
<title>b&#45;&gt;5588f91b_051e_4871_824b_8218d36141c8</title>
<path fill="none" stroke="black" d="M425.61,-265.95C393.24,-254.58 353.93,-240.77 316.04,-227.46"/>
<text text-anchor="middle" x="334.54" y="-230.46" font-family="Times,serif" font-size="10.00">accounts</text>
<text text-anchor="middle" x="415.11" y="-257.95" font-family="Times,serif" font-size="10.00">bank</text>
</g>
<!-- b&#45;&gt;f2b69ac8_6f2e_40b8_8935_cc14eac66648 -->
<g id="edge7" class="edge">
<title>b&#45;&gt;f2b69ac8_6f2e_40b8_8935_cc14eac66648</title>
<path fill="none" stroke="black" d="M655.53,-265.96C707.15,-256.28 764.55,-244.14 816.36,-230 821.13,-228.7 825.96,-227.32 830.83,-225.88"/>
<text text-anchor="middle" x="812.33" y="-217.88" font-family="Times,serif" font-size="10.00">accounts</text>
<text text-anchor="middle" x="645.03" y="-257.96" font-family="Times,serif" font-size="10.00">bank</text>
</g>
<!-- sendItToTheBank -->
<g id="node7" class="node">
<title>sendItToTheBank</title>
<polygon fill="none" stroke="black" points="342.36,-209 342.36,-226 462.36,-226 462.36,-209 342.36,-209"/>
<text text-anchor="start" x="345.36" y="-216" font-family="Times,serif" text-decoration="underline" font-size="10.00">sendItToTheBank :Account</text>
<polygon fill="none" stroke="black" points="342.36,-126 342.36,-209 462.36,-209 462.36,-126 342.36,-126"/>
<text text-anchor="start" x="352.36" y="-198" font-family="Times,serif" font-size="10.00">balance = 69420.0</text>
<text text-anchor="start" x="352.36" y="-187" font-family="Times,serif" font-size="10.00">customerId = null</text>
<text text-anchor="start" x="352.36" y="-176" font-family="Times,serif" font-size="10.00">iban = null</text>
<text text-anchor="start" x="352.36" y="-165" font-family="Times,serif" font-size="10.00">id = &quot;sendItToTheBank&quot;</text>
<text text-anchor="start" x="352.36" y="-154" font-family="Times,serif" font-size="10.00">receivedTransaction = </text>
<text text-anchor="start" x="352.36" y="-143" font-family="Times,serif" font-size="10.00">sentTransaction = </text>
<text text-anchor="start" x="352.36" y="-132" font-family="Times,serif" font-size="10.00">status = &quot;ACTIVE&quot;</text>
</g>
<!-- b&#45;&gt;sendItToTheBank -->
<g id="edge6" class="edge">
<title>b&#45;&gt;sendItToTheBank</title>
<path fill="none" stroke="black" d="M476.82,-265.8C467.97,-255.25 457.38,-242.63 447.01,-230.25"/>
<text text-anchor="middle" x="419.01" y="-233.25" font-family="Times,serif" font-size="10.00">bankAccount</text>
<text text-anchor="middle" x="466.32" y="-257.8" font-family="Times,serif" font-size="10.00">bank</text>
</g>
<!-- ce62f65c_0f7c_4e21_b12f_11f426dee6bf -->
<g id="node8" class="node">
<title>ce62f65c_0f7c_4e21_b12f_11f426dee6bf</title>
<polygon fill="none" stroke="black" points="535.36,-198 535.36,-215 766.36,-215 766.36,-198 535.36,-198"/>
<text text-anchor="start" x="538.36" y="-205" font-family="Times,serif" text-decoration="underline" font-size="10.00">ce62f65c&#45;0f7c&#45;4e21&#45;b12f&#45;11f426dee6bf :Administrator</text>
<polygon fill="none" stroke="black" points="535.36,-137 535.36,-198 766.36,-198 766.36,-137 535.36,-137"/>
<text text-anchor="start" x="556.36" y="-187" font-family="Times,serif" font-size="10.00">email = &quot;admin@bank.ee&quot;</text>
<text text-anchor="start" x="556.36" y="-176" font-family="Times,serif" font-size="10.00">firstName = &quot;Admin&quot;</text>
<text text-anchor="start" x="556.36" y="-165" font-family="Times,serif" font-size="10.00">id = &quot;ce62f65c&#45;0f7c&#45;4e21&#45;b12f&#45;11f426dee6bf&quot;</text>
<text text-anchor="start" x="556.36" y="-154" font-family="Times,serif" font-size="10.00">lastName = &quot;ALice&quot;</text>
<text text-anchor="start" x="556.36" y="-143" font-family="Times,serif" font-size="10.00">password = &quot;secure_p@ssw0|2d&quot;</text>
</g>
<!-- b&#45;&gt;ce62f65c_0f7c_4e21_b12f_11f426dee6bf -->
<g id="edge9" class="edge">
<title>b&#45;&gt;ce62f65c_0f7c_4e21_b12f_11f426dee6bf</title>
<path fill="none" stroke="black" d="M532.47,-265.8C550.77,-252.02 573.77,-234.7 594.59,-219.01"/>
<text text-anchor="middle" x="565.59" y="-222.01" font-family="Times,serif" font-size="10.00">administrators</text>
<text text-anchor="middle" x="521.97" y="-257.8" font-family="Times,serif" font-size="10.00">bank</text>
</g>
<!-- c253ae96_7015_4132_9d0f_9d8c7a63c39a -->
<g id="node9" class="node">
<title>c253ae96_7015_4132_9d0f_9d8c7a63c39a</title>
<polygon fill="none" stroke="black" points="772.36,-65 772.36,-82 995.36,-82 995.36,-65 772.36,-65"/>
<text text-anchor="start" x="775.36" y="-72" font-family="Times,serif" text-decoration="underline" font-size="10.00">c253ae96&#45;7015&#45;4132&#45;9d0f&#45;9d8c7a63c39a :Customer</text>
<polygon fill="none" stroke="black" points="772.36,-4 772.36,-65 995.36,-65 995.36,-4 772.36,-4"/>
<text text-anchor="start" x="784.36" y="-54" font-family="Times,serif" font-size="10.00">email = &quot;bobby@tt.ee&quot;</text>
<text text-anchor="start" x="784.36" y="-43" font-family="Times,serif" font-size="10.00">firstName = &quot;Bob&quot;</text>
<text text-anchor="start" x="784.36" y="-32" font-family="Times,serif" font-size="10.00">id = &quot;c253ae96&#45;7015&#45;4132&#45;9d0f&#45;9d8c7a63c39a&quot;</text>
<text text-anchor="start" x="784.36" y="-21" font-family="Times,serif" font-size="10.00">lastName = &quot;Jackson&quot;</text>
<text text-anchor="start" x="784.36" y="-10" font-family="Times,serif" font-size="10.00">password = &quot;secret&quot;</text>
</g>
<!-- b&#45;&gt;c253ae96_7015_4132_9d0f_9d8c7a63c39a -->
<g id="edge10" class="edge">
<title>b&#45;&gt;c253ae96_7015_4132_9d0f_9d8c7a63c39a</title>
<path fill="none" stroke="black" d="M682.7,-265.98C727.01,-256.71 766.45,-244.78 783.36,-230 821.78,-196.41 797.66,-166.66 822.36,-122 829.18,-109.66 837.89,-97.23 846.58,-86.02"/>
<text text-anchor="middle" x="826.08" y="-89.02" font-family="Times,serif" font-size="10.00">customers</text>
<text text-anchor="middle" x="672.2" y="-257.98" font-family="Times,serif" font-size="10.00">bank</text>
</g>
<!-- aa478318_440c_449c_848c_5323e5a0e8da -->
<g id="node10" class="node">
<title>aa478318_440c_449c_848c_5323e5a0e8da</title>
<polygon fill="none" stroke="black" points="337.36,-65 337.36,-82 561.36,-82 561.36,-65 337.36,-65"/>
<text text-anchor="start" x="340.36" y="-72" font-family="Times,serif" text-decoration="underline" font-size="10.00">aa478318&#45;440c&#45;449c&#45;848c&#45;5323e5a0e8da :Customer</text>
<polygon fill="none" stroke="black" points="337.36,-4 337.36,-65 561.36,-65 561.36,-4 337.36,-4"/>
<text text-anchor="start" x="349.36" y="-54" font-family="Times,serif" font-size="10.00">email = &quot;john@doe.ee&quot;</text>
<text text-anchor="start" x="349.36" y="-43" font-family="Times,serif" font-size="10.00">firstName = &quot;John&quot;</text>
<text text-anchor="start" x="349.36" y="-32" font-family="Times,serif" font-size="10.00">id = &quot;aa478318&#45;440c&#45;449c&#45;848c&#45;5323e5a0e8da&quot;</text>
<text text-anchor="start" x="349.36" y="-21" font-family="Times,serif" font-size="10.00">lastName = &quot;Doe&quot;</text>
<text text-anchor="start" x="349.36" y="-10" font-family="Times,serif" font-size="10.00">password = &quot;pass1234&quot;</text>
</g>
<!-- b&#45;&gt;aa478318_440c_449c_848c_5323e5a0e8da -->
<g id="edge11" class="edge">
<title>b&#45;&gt;aa478318_440c_449c_848c_5323e5a0e8da</title>
<path fill="none" stroke="black" d="M497.52,-265.88C495.96,-232.37 491.58,-172.05 479.36,-122 476.47,-110.16 472.25,-97.69 467.88,-86.28"/>
<text text-anchor="middle" x="447.38" y="-89.28" font-family="Times,serif" font-size="10.00">customers</text>
<text text-anchor="middle" x="497.52" y="-257.88" font-family="Times,serif" font-size="10.00">bank</text>
</g>
<!-- 5588f91b_051e_4871_824b_8218d36141c8&#45;&gt;c -->
<g id="edge12" class="edge">
<title>5588f91b_051e_4871_824b_8218d36141c8&#45;&gt;c</title>
<path fill="none" stroke="black" d="M182.53,-121.72C186.4,-101.46 190.57,-79.58 193.5,-64.22"/>
<text text-anchor="middle" x="175.5" y="-67.22" font-family="Times,serif" font-size="10.00">currency</text>
</g>
<!-- 5588f91b_051e_4871_824b_8218d36141c8&#45;&gt;aa478318_440c_449c_848c_5323e5a0e8da -->
<g id="edge13" class="edge">
<title>5588f91b_051e_4871_824b_8218d36141c8&#45;&gt;aa478318_440c_449c_848c_5323e5a0e8da</title>
<path fill="none" stroke="black" d="M284.63,-121.91C309.82,-109.99 336.22,-97.51 360.32,-86.11"/>
<text text-anchor="middle" x="347.32" y="-89.11" font-family="Times,serif" font-size="10.00">owner</text>
<text text-anchor="middle" x="268.13" y="-113.91" font-family="Times,serif" font-size="10.00">account</text>
</g>
<!-- f2b69ac8_6f2e_40b8_8935_cc14eac66648&#45;&gt;c -->
<g id="edge14" class="edge">
<title>f2b69ac8_6f2e_40b8_8935_cc14eac66648&#45;&gt;c</title>
<path fill="none" stroke="black" d="M830.44,-132.38C814.68,-128.4 798.74,-124.81 783.36,-122 580.31,-84.95 522.51,-127.68 320.36,-86 295.61,-80.9 268.97,-72.22 246.84,-64.07"/>
<text text-anchor="middle" x="264.84" y="-67.07" font-family="Times,serif" font-size="10.00">currency</text>
</g>
<!-- f2b69ac8_6f2e_40b8_8935_cc14eac66648&#45;&gt;c253ae96_7015_4132_9d0f_9d8c7a63c39a -->
<g id="edge15" class="edge">
<title>f2b69ac8_6f2e_40b8_8935_cc14eac66648&#45;&gt;c253ae96_7015_4132_9d0f_9d8c7a63c39a</title>
<path fill="none" stroke="black" d="M932.01,-121.72C924.65,-109.96 916.95,-97.66 909.9,-86.4"/>
<text text-anchor="middle" x="896.9" y="-89.4" font-family="Times,serif" font-size="10.00">owner</text>
<text text-anchor="middle" x="915.51" y="-113.72" font-family="Times,serif" font-size="10.00">account</text>
</g>
<!-- sendItToTheBank&#45;&gt;c -->
<g id="edge16" class="edge">
<title>sendItToTheBank&#45;&gt;c</title>
<path fill="none" stroke="black" d="M334,-128.29C330.75,-126.15 327.52,-124.04 324.36,-122 293.07,-101.77 256.8,-79.62 231.05,-64.11"/>
<text text-anchor="middle" x="213.05" y="-67.11" font-family="Times,serif" font-size="10.00">currency</text>
</g>
</g>
</svg>
