<?xml version="1.0" encoding="UTF-8" standalone="no"?>
<!DOCTYPE svg PUBLIC "-//W3C//DTD SVG 1.1//EN"
 "http://www.w3.org/Graphics/SVG/1.1/DTD/svg11.dtd">
<!-- Generated by graphviz version 2.43.0 (0)
 -->
<!-- Title: model Pages: 1 -->
<svg width="1345px" height="471px"
 viewBox="0.00 0.00 1344.62 471.00" xmlns="http://www.w3.org/2000/svg" xmlns:xlink="http://www.w3.org/1999/xlink">
<g id="graph0" class="graph" transform="scale(1.0 1.0) rotate(0) translate(4 467)">
<title>model</title>
<polygon fill="white" stroke="transparent" points="-4,4 -4,-467 1340.62,-467 1340.62,4 -4,4"/>
<!-- 97ab8e78_9368_47e6_af9f_c42fa990cf83 -->
<g id="node1" class="node">
<title>97ab8e78_9368_47e6_af9f_c42fa990cf83</title>
<polygon fill="none" stroke="black" points="43.97,-442 43.97,-459 256.97,-459 256.97,-442 43.97,-442"/>
<text text-anchor="start" x="46.97" y="-449" font-family="Times,serif" text-decoration="underline" font-size="10.00">97ab8e78&#45;9368&#45;47e6&#45;af9f&#45;c42fa990cf83 :Account</text>
<polygon fill="none" stroke="black" points="43.97,-359 43.97,-442 256.97,-442 256.97,-359 43.97,-359"/>
<text text-anchor="start" x="53.97" y="-431" font-family="Times,serif" font-size="10.00">balance = 0.0</text>
<text text-anchor="start" x="53.97" y="-420" font-family="Times,serif" font-size="10.00">customerId = null</text>
<text text-anchor="start" x="53.97" y="-409" font-family="Times,serif" font-size="10.00">iban = &quot;EE679891696349678226&quot;</text>
<text text-anchor="start" x="53.97" y="-398" font-family="Times,serif" font-size="10.00">id = &quot;97ab8e78&#45;9368&#45;47e6&#45;af9f&#45;c42fa990cf83&quot;</text>
<text text-anchor="start" x="53.97" y="-387" font-family="Times,serif" font-size="10.00">receivedTransaction = </text>
<text text-anchor="start" x="53.97" y="-376" font-family="Times,serif" font-size="10.00">sentTransaction = </text>
<text text-anchor="start" x="53.97" y="-365" font-family="Times,serif" font-size="10.00">status = &quot;FROZEN&quot;</text>
</g>
<!-- b -->
<g id="node2" class="node">
<title>b</title>
<polygon fill="none" stroke="black" points="404.97,-297.5 404.97,-314.5 1060.97,-314.5 1060.97,-297.5 404.97,-297.5"/>
<text text-anchor="start" x="716.47" y="-304.5" font-family="Times,serif" text-decoration="underline" font-size="10.00">b :Bank</text>
<polygon fill="none" stroke="black" points="404.97,-269.5 404.97,-297.5 1060.97,-297.5 1060.97,-269.5 404.97,-269.5"/>
<text text-anchor="start" x="407.97" y="-286.5" font-family="Times,serif" font-size="10.00">accountsMap = 97ab8e78&#45;9368&#45;47e6&#45;af9f&#45;c42fa990cf83sendItToTheBank8a633aa5&#45;907c&#45;4e57&#45;a313&#45;22e0adb2672e7ec351d6&#45;652f&#45;4691&#45;8e72&#45;ea432d44a0c8</text>
<text text-anchor="start" x="407.97" y="-275.5" font-family="Times,serif" font-size="10.00">customerMap = 3b663992&#45;bafe&#45;4639&#45;85db&#45;d1403315f5f2e2f7bc4c&#45;ef2a&#45;466e&#45;b8a5&#45;d24f48b13afe1eaf6f4c&#45;4f92&#45;4e04&#45;bd87&#45;c82be03265de</text>
</g>
<!-- 97ab8e78_9368_47e6_af9f_c42fa990cf83&#45;&gt;b -->
<g id="edge1" class="edge">
<title>97ab8e78_9368_47e6_af9f_c42fa990cf83&#45;&gt;b</title>
<path fill="none" stroke="black" d="M264.81,-385.45C362.09,-366.34 501.51,-338.96 602.89,-319.05"/>
<text text-anchor="middle" x="592.39" y="-322.05" font-family="Times,serif" font-size="10.00">bank</text>
<text text-anchor="middle" x="283.31" y="-388.45" font-family="Times,serif" font-size="10.00">accounts</text>
</g>
<!-- c -->
<g id="node3" class="node">
<title>c</title>
<polygon fill="none" stroke="black" points="297.97,-43 297.97,-60 461.97,-60 461.97,-43 297.97,-43"/>
<text text-anchor="start" x="355.97" y="-50" font-family="Times,serif" text-decoration="underline" font-size="10.00">c :Currency</text>
<polygon fill="none" stroke="black" points="297.97,-26 297.97,-43 461.97,-43 461.97,-26 297.97,-26"/>
<text text-anchor="start" x="300.97" y="-32" font-family="Times,serif" font-size="10.00">declaringClass = class model.Currency</text>
</g>
<!-- 97ab8e78_9368_47e6_af9f_c42fa990cf83&#45;&gt;c -->
<g id="edge2" class="edge">
<title>97ab8e78_9368_47e6_af9f_c42fa990cf83&#45;&gt;c</title>
<path fill="none" stroke="black" d="M94.11,-354.83C36.83,-293.85 -36.37,-193.14 20.97,-122 54.14,-80.85 194.86,-60.29 289.95,-50.9"/>
<text text-anchor="middle" x="271.95" y="-53.9" font-family="Times,serif" font-size="10.00">currency</text>
</g>
<!-- 3b663992_bafe_4639_85db_d1403315f5f2 -->
<g id="node4" class="node">
<title>3b663992_bafe_4639_85db_d1403315f5f2</title>
<polygon fill="none" stroke="black" points="38.97,-198 38.97,-215 261.97,-215 261.97,-198 38.97,-198"/>
<text text-anchor="start" x="41.97" y="-205" font-family="Times,serif" text-decoration="underline" font-size="10.00">3b663992&#45;bafe&#45;4639&#45;85db&#45;d1403315f5f2 :Customer</text>
<polygon fill="none" stroke="black" points="38.97,-137 38.97,-198 261.97,-198 261.97,-137 38.97,-137"/>
<text text-anchor="start" x="50.97" y="-187" font-family="Times,serif" font-size="10.00">email = &quot;bobbytest@tt.ee&quot;</text>
<text text-anchor="start" x="50.97" y="-176" font-family="Times,serif" font-size="10.00">firstName = &quot;Bob&quot;</text>
<text text-anchor="start" x="50.97" y="-165" font-family="Times,serif" font-size="10.00">id = &quot;3b663992&#45;bafe&#45;4639&#45;85db&#45;d1403315f5f2&quot;</text>
<text text-anchor="start" x="50.97" y="-154" font-family="Times,serif" font-size="10.00">lastName = &quot;Jackson&quot;</text>
<text text-anchor="start" x="50.97" y="-143" font-family="Times,serif" font-size="10.00">password = &quot;secret&quot;</text>
</g>
<!-- 97ab8e78_9368_47e6_af9f_c42fa990cf83&#45;&gt;3b663992_bafe_4639_85db_d1403315f5f2 -->
<g id="edge3" class="edge">
<title>97ab8e78_9368_47e6_af9f_c42fa990cf83&#45;&gt;3b663992_bafe_4639_85db_d1403315f5f2</title>
<path fill="none" stroke="black" d="M149.97,-354.71C149.97,-313.54 149.97,-257.34 149.97,-219.24"/>
<text text-anchor="middle" x="136.97" y="-222.24" font-family="Times,serif" font-size="10.00">owner</text>
<text text-anchor="middle" x="133.47" y="-346.71" font-family="Times,serif" font-size="10.00">account</text>
</g>
<!-- b&#45;&gt;3b663992_bafe_4639_85db_d1403315f5f2 -->
<g id="edge10" class="edge">
<title>b&#45;&gt;3b663992_bafe_4639_85db_d1403315f5f2</title>
<path fill="none" stroke="black" d="M457.91,-265.96C398.02,-257.18 335.4,-245.49 277.97,-230 266.71,-226.96 255.12,-223.17 243.73,-219.03"/>
<text text-anchor="middle" x="223.23" y="-222.03" font-family="Times,serif" font-size="10.00">customers</text>
<text text-anchor="middle" x="447.41" y="-257.96" font-family="Times,serif" font-size="10.00">bank</text>
</g>
<!-- sendItToTheBank -->
<g id="node5" class="node">
<title>sendItToTheBank</title>
<polygon fill="none" stroke="black" points="295.97,-209 295.97,-226 444.97,-226 444.97,-209 295.97,-209"/>
<text text-anchor="start" x="313.47" y="-216" font-family="Times,serif" text-decoration="underline" font-size="10.00">sendItToTheBank :Account</text>
<polygon fill="none" stroke="black" points="295.97,-126 295.97,-209 444.97,-209 444.97,-126 295.97,-126"/>
<text text-anchor="start" x="298.97" y="-198" font-family="Times,serif" font-size="10.00">balance = 69420.0</text>
<text text-anchor="start" x="298.97" y="-187" font-family="Times,serif" font-size="10.00">customerId = null</text>
<text text-anchor="start" x="298.97" y="-176" font-family="Times,serif" font-size="10.00">iban = &quot;EE537264912412167761&quot;</text>
<text text-anchor="start" x="298.97" y="-165" font-family="Times,serif" font-size="10.00">id = &quot;sendItToTheBank&quot;</text>
<text text-anchor="start" x="298.97" y="-154" font-family="Times,serif" font-size="10.00">receivedTransaction = </text>
<text text-anchor="start" x="298.97" y="-143" font-family="Times,serif" font-size="10.00">sentTransaction = </text>
<text text-anchor="start" x="298.97" y="-132" font-family="Times,serif" font-size="10.00">status = &quot;ACTIVE&quot;</text>
</g>
<!-- b&#45;&gt;sendItToTheBank -->
<g id="edge4" class="edge">
<title>b&#45;&gt;sendItToTheBank</title>
<path fill="none" stroke="black" d="M583.59,-266C543.37,-256.88 500.39,-245.03 461.97,-230 458.88,-228.79 455.77,-227.49 452.66,-226.12"/>
<text text-anchor="middle" x="480.66" y="-229.12" font-family="Times,serif" font-size="10.00">bankAccount</text>
<text text-anchor="middle" x="573.09" y="-258" font-family="Times,serif" font-size="10.00">bank</text>
</g>
<!-- 8a633aa5_907c_4e57_a313_22e0adb2672e -->
<g id="node6" class="node">
<title>8a633aa5_907c_4e57_a313_22e0adb2672e</title>
<polygon fill="none" stroke="black" points="478.97,-209 478.97,-226 716.97,-226 716.97,-209 478.97,-209"/>
<text text-anchor="start" x="490.97" y="-216" font-family="Times,serif" text-decoration="underline" font-size="10.00">8a633aa5&#45;907c&#45;4e57&#45;a313&#45;22e0adb2672e :Account</text>
<polygon fill="none" stroke="black" points="478.97,-126 478.97,-209 716.97,-209 716.97,-126 478.97,-126"/>
<text text-anchor="start" x="481.97" y="-198" font-family="Times,serif" font-size="10.00">balance = 0.0</text>
<text text-anchor="start" x="481.97" y="-187" font-family="Times,serif" font-size="10.00">customerId = &quot;1eaf6f4c&#45;4f92&#45;4e04&#45;bd87&#45;c82be03265de&quot;</text>
<text text-anchor="start" x="481.97" y="-176" font-family="Times,serif" font-size="10.00">iban = null</text>
<text text-anchor="start" x="481.97" y="-165" font-family="Times,serif" font-size="10.00">id = &quot;8a633aa5&#45;907c&#45;4e57&#45;a313&#45;22e0adb2672e&quot;</text>
<text text-anchor="start" x="481.97" y="-154" font-family="Times,serif" font-size="10.00">receivedTransaction = </text>
<text text-anchor="start" x="481.97" y="-143" font-family="Times,serif" font-size="10.00">sentTransaction = </text>
<text text-anchor="start" x="481.97" y="-132" font-family="Times,serif" font-size="10.00">status = &quot;ACTIVE&quot;</text>
</g>
<!-- b&#45;&gt;8a633aa5_907c_4e57_a313_22e0adb2672e -->
<g id="edge5" class="edge">
<title>b&#45;&gt;8a633aa5_907c_4e57_a313_22e0adb2672e</title>
<path fill="none" stroke="black" d="M702.68,-265.8C690.16,-255.19 675.16,-242.47 660.48,-230.02"/>
<text text-anchor="middle" x="641.98" y="-233.02" font-family="Times,serif" font-size="10.00">accounts</text>
<text text-anchor="middle" x="692.18" y="-257.8" font-family="Times,serif" font-size="10.00">bank</text>
</g>
<!-- 7ec351d6_652f_4691_8e72_ea432d44a0c8 -->
<g id="node7" class="node">
<title>7ec351d6_652f_4691_8e72_ea432d44a0c8</title>
<polygon fill="none" stroke="black" points="750.97,-209 750.97,-226 984.97,-226 984.97,-209 750.97,-209"/>
<text text-anchor="start" x="760.97" y="-216" font-family="Times,serif" text-decoration="underline" font-size="10.00">7ec351d6&#45;652f&#45;4691&#45;8e72&#45;ea432d44a0c8 :Account</text>
<polygon fill="none" stroke="black" points="750.97,-126 750.97,-209 984.97,-209 984.97,-126 750.97,-126"/>
<text text-anchor="start" x="753.97" y="-198" font-family="Times,serif" font-size="10.00">balance = 100.0</text>
<text text-anchor="start" x="753.97" y="-187" font-family="Times,serif" font-size="10.00">customerId = &quot;e2f7bc4c&#45;ef2a&#45;466e&#45;b8a5&#45;d24f48b13afe&quot;</text>
<text text-anchor="start" x="753.97" y="-176" font-family="Times,serif" font-size="10.00">iban = null</text>
<text text-anchor="start" x="753.97" y="-165" font-family="Times,serif" font-size="10.00">id = &quot;7ec351d6&#45;652f&#45;4691&#45;8e72&#45;ea432d44a0c8&quot;</text>
<text text-anchor="start" x="753.97" y="-154" font-family="Times,serif" font-size="10.00">receivedTransaction = </text>
<text text-anchor="start" x="753.97" y="-143" font-family="Times,serif" font-size="10.00">sentTransaction = </text>
<text text-anchor="start" x="753.97" y="-132" font-family="Times,serif" font-size="10.00">status = &quot;ACTIVE&quot;</text>
</g>
<!-- b&#45;&gt;7ec351d6_652f_4691_8e72_ea432d44a0c8 -->
<g id="edge6" class="edge">
<title>b&#45;&gt;7ec351d6_652f_4691_8e72_ea432d44a0c8</title>
<path fill="none" stroke="black" d="M763.27,-265.8C775.79,-255.19 790.78,-242.47 805.46,-230.02"/>
<text text-anchor="middle" x="786.96" y="-233.02" font-family="Times,serif" font-size="10.00">accounts</text>
<text text-anchor="middle" x="752.77" y="-257.8" font-family="Times,serif" font-size="10.00">bank</text>
</g>
<!-- ac3c77ed_65f2_4c8f_9ddb_5d6d3811b129 -->
<g id="node8" class="node">
<title>ac3c77ed_65f2_4c8f_9ddb_5d6d3811b129</title>
<polygon fill="none" stroke="black" points="1057.97,-198 1057.97,-215 1296.97,-215 1296.97,-198 1057.97,-198"/>
<text text-anchor="start" x="1060.97" y="-205" font-family="Times,serif" text-decoration="underline" font-size="10.00">ac3c77ed&#45;65f2&#45;4c8f&#45;9ddb&#45;5d6d3811b129 :Administrator</text>
<polygon fill="none" stroke="black" points="1057.97,-137 1057.97,-198 1296.97,-198 1296.97,-137 1057.97,-137"/>
<text text-anchor="start" x="1078.97" y="-187" font-family="Times,serif" font-size="10.00">email = &quot;admin@bank.ee&quot;</text>
<text text-anchor="start" x="1078.97" y="-176" font-family="Times,serif" font-size="10.00">firstName = &quot;Admin&quot;</text>
<text text-anchor="start" x="1078.97" y="-165" font-family="Times,serif" font-size="10.00">id = &quot;ac3c77ed&#45;65f2&#45;4c8f&#45;9ddb&#45;5d6d3811b129&quot;</text>
<text text-anchor="start" x="1078.97" y="-154" font-family="Times,serif" font-size="10.00">lastName = &quot;ALice&quot;</text>
<text text-anchor="start" x="1078.97" y="-143" font-family="Times,serif" font-size="10.00">password = &quot;secure_p@ssw0|2d&quot;</text>
</g>
<!-- b&#45;&gt;ac3c77ed_65f2_4c8f_9ddb_5d6d3811b129 -->
<g id="edge7" class="edge">
<title>b&#45;&gt;ac3c77ed_65f2_4c8f_9ddb_5d6d3811b129</title>
<path fill="none" stroke="black" d="M881.94,-265.96C931.07,-256.27 985.72,-244.11 1034.97,-230 1046.36,-226.74 1058.12,-222.99 1069.79,-219.02"/>
<text text-anchor="middle" x="1040.79" y="-222.02" font-family="Times,serif" font-size="10.00">administrators</text>
<text text-anchor="middle" x="871.44" y="-257.96" font-family="Times,serif" font-size="10.00">bank</text>
</g>
<!-- e2f7bc4c_ef2a_466e_b8a5_d24f48b13afe -->
<g id="node9" class="node">
<title>e2f7bc4c_ef2a_466e_b8a5_d24f48b13afe</title>
<polygon fill="none" stroke="black" points="992.97,-65 992.97,-82 1207.97,-82 1207.97,-65 992.97,-65"/>
<text text-anchor="start" x="995.97" y="-72" font-family="Times,serif" text-decoration="underline" font-size="10.00">e2f7bc4c&#45;ef2a&#45;466e&#45;b8a5&#45;d24f48b13afe :Customer</text>
<polygon fill="none" stroke="black" points="992.97,-4 992.97,-65 1207.97,-65 1207.97,-4 992.97,-4"/>
<text text-anchor="start" x="1004.97" y="-54" font-family="Times,serif" font-size="10.00">email = &quot;john@doe.ee&quot;</text>
<text text-anchor="start" x="1004.97" y="-43" font-family="Times,serif" font-size="10.00">firstName = &quot;John&quot;</text>
<text text-anchor="start" x="1004.97" y="-32" font-family="Times,serif" font-size="10.00">id = &quot;e2f7bc4c&#45;ef2a&#45;466e&#45;b8a5&#45;d24f48b13afe&quot;</text>
<text text-anchor="start" x="1004.97" y="-21" font-family="Times,serif" font-size="10.00">lastName = &quot;Doe&quot;</text>
<text text-anchor="start" x="1004.97" y="-10" font-family="Times,serif" font-size="10.00">password = &quot;pass1234&quot;</text>
</g>
<!-- b&#45;&gt;e2f7bc4c_ef2a_466e_b8a5_d24f48b13afe -->
<g id="edge8" class="edge">
<title>b&#45;&gt;e2f7bc4c_ef2a_466e_b8a5_d24f48b13afe</title>
<path fill="none" stroke="black" d="M1068.99,-274.31C1187.16,-264.78 1295.46,-250.57 1313.97,-230 1346.08,-194.32 1341.5,-161.33 1313.97,-122 1291.19,-89.44 1253.31,-70.42 1215.7,-59.34"/>
<text text-anchor="middle" x="1236.2" y="-62.34" font-family="Times,serif" font-size="10.00">customers</text>
<text text-anchor="middle" x="1079.49" y="-277.31" font-family="Times,serif" font-size="10.00">bank</text>
</g>
<!-- 1eaf6f4c_4f92_4e04_bd87_c82be03265de -->
<g id="node10" class="node">
<title>1eaf6f4c_4f92_4e04_bd87_c82be03265de</title>
<polygon fill="none" stroke="black" points="497.97,-65 497.97,-82 716.97,-82 716.97,-65 497.97,-65"/>
<text text-anchor="start" x="500.97" y="-72" font-family="Times,serif" text-decoration="underline" font-size="10.00">1eaf6f4c&#45;4f92&#45;4e04&#45;bd87&#45;c82be03265de :Customer</text>
<polygon fill="none" stroke="black" points="497.97,-4 497.97,-65 716.97,-65 716.97,-4 497.97,-4"/>
<text text-anchor="start" x="509.97" y="-54" font-family="Times,serif" font-size="10.00">email = &quot;bobby@tt.ee&quot;</text>
<text text-anchor="start" x="509.97" y="-43" font-family="Times,serif" font-size="10.00">firstName = &quot;Bob&quot;</text>
<text text-anchor="start" x="509.97" y="-32" font-family="Times,serif" font-size="10.00">id = &quot;1eaf6f4c&#45;4f92&#45;4e04&#45;bd87&#45;c82be03265de&quot;</text>
<text text-anchor="start" x="509.97" y="-21" font-family="Times,serif" font-size="10.00">lastName = &quot;Jackson&quot;</text>
<text text-anchor="start" x="509.97" y="-10" font-family="Times,serif" font-size="10.00">password = &quot;secret&quot;</text>
</g>
<!-- b&#45;&gt;1eaf6f4c_4f92_4e04_bd87_c82be03265de -->
<g id="edge9" class="edge">
<title>b&#45;&gt;1eaf6f4c_4f92_4e04_bd87_c82be03265de</title>
<path fill="none" stroke="black" d="M920.92,-265.93C958.31,-256.97 989.84,-245.22 1001.97,-230 1031.89,-192.47 1032.45,-159.08 1001.97,-122 967.35,-79.88 828.25,-60.13 724.85,-51.13"/>
<text text-anchor="middle" x="745.35" y="-54.13" font-family="Times,serif" font-size="10.00">customers</text>
<text text-anchor="middle" x="910.42" y="-257.93" font-family="Times,serif" font-size="10.00">bank</text>
</g>
<!-- sendItToTheBank&#45;&gt;c -->
<g id="edge11" class="edge">
<title>sendItToTheBank&#45;&gt;c</title>
<path fill="none" stroke="black" d="M374.04,-121.72C375.59,-101.46 377.26,-79.58 378.43,-64.22"/>
<text text-anchor="middle" x="360.43" y="-67.22" font-family="Times,serif" font-size="10.00">currency</text>
</g>
<!-- 8a633aa5_907c_4e57_a313_22e0adb2672e&#45;&gt;c -->
<g id="edge12" class="edge">
<title>8a633aa5_907c_4e57_a313_22e0adb2672e&#45;&gt;c</title>
<path fill="none" stroke="black" d="M509.62,-121.91C475.74,-101.55 439.11,-79.54 413.45,-64.12"/>
<text text-anchor="middle" x="431.45" y="-67.12" font-family="Times,serif" font-size="10.00">currency</text>
</g>
<!-- 8a633aa5_907c_4e57_a313_22e0adb2672e&#45;&gt;1eaf6f4c_4f92_4e04_bd87_c82be03265de -->
<g id="edge13" class="edge">
<title>8a633aa5_907c_4e57_a313_22e0adb2672e&#45;&gt;1eaf6f4c_4f92_4e04_bd87_c82be03265de</title>
<path fill="none" stroke="black" d="M601.63,-121.72C602.44,-109.96 603.29,-97.66 604.06,-86.4"/>
<text text-anchor="middle" x="591.06" y="-89.4" font-family="Times,serif" font-size="10.00">owner</text>
<text text-anchor="middle" x="585.13" y="-113.72" font-family="Times,serif" font-size="10.00">account</text>
</g>
<!-- 7ec351d6_652f_4691_8e72_ea432d44a0c8&#45;&gt;c -->
<g id="edge14" class="edge">
<title>7ec351d6_652f_4691_8e72_ea432d44a0c8&#45;&gt;c</title>
<path fill="none" stroke="black" d="M742.74,-124.43C739.8,-123.58 736.87,-122.77 733.97,-122 623.75,-92.83 589.88,-116.33 479.97,-86 460.01,-80.49 438.73,-71.96 420.97,-64.02"/>
<text text-anchor="middle" x="402.97" y="-67.02" font-family="Times,serif" font-size="10.00">currency</text>
</g>
<!-- 7ec351d6_652f_4691_8e72_ea432d44a0c8&#45;&gt;e2f7bc4c_ef2a_466e_b8a5_d24f48b13afe -->
<g id="edge15" class="edge">
<title>7ec351d6_652f_4691_8e72_ea432d44a0c8&#45;&gt;e2f7bc4c_ef2a_466e_b8a5_d24f48b13afe</title>
<path fill="none" stroke="black" d="M962,-121.91C983.1,-109.99 1005.21,-97.51 1025.39,-86.11"/>
<text text-anchor="middle" x="1012.39" y="-89.11" font-family="Times,serif" font-size="10.00">owner</text>
<text text-anchor="middle" x="945.5" y="-113.91" font-family="Times,serif" font-size="10.00">account</text>
</g>
</g>
</svg>
