<?xml version="1.0" encoding="UTF-8" standalone="no"?>
<!DOCTYPE svg PUBLIC "-//W3C//DTD SVG 1.1//EN"
 "http://www.w3.org/Graphics/SVG/1.1/DTD/svg11.dtd">
<!-- Generated by graphviz version 2.44.0 (20200408.0750)
 -->
<!-- Pages: 1 -->
<svg width="582px" height="400px"
 viewBox="0.00 0.00 582.11 400.00" xmlns="http://www.w3.org/2000/svg" xmlns:xlink="http://www.w3.org/1999/xlink">
<g id="graph0" class="graph" transform="scale(1.0 1.0) rotate(0) translate(4 396)">
<polygon fill="white" stroke="transparent" points="-4,4 -4,-396 578.11,-396 578.11,4 -4,4"/>
<!-- 3bc9585c_5105_453b_99fb_d34707d3253c -->
<g id="node1" class="node">
<title>3bc9585c_5105_453b_99fb_d34707d3253c</title>
<polygon fill="none" stroke="black" points="170.11,-370 170.11,-388 398.11,-388 398.11,-370 170.11,-370"/>
<text text-anchor="start" x="172.88" y="-377" font-family="Times,serif" text-decoration="underline" font-size="10.00">3bc9585c&#45;5105&#45;453b&#45;99fb&#45;d34707d3253c :Transaction</text>
<polygon fill="none" stroke="black" points="170.11,-304 170.11,-370 398.11,-370 398.11,-304 170.11,-304"/>
<text text-anchor="start" x="185.84" y="-358" font-family="Times,serif" font-size="10.00">amount = 250.0</text>
<text text-anchor="start" x="185.84" y="-346" font-family="Times,serif" font-size="10.00">description = &quot;Salary&quot;</text>
<text text-anchor="start" x="185.84" y="-334" font-family="Times,serif" font-size="10.00">id = &quot;3bc9585c&#45;5105&#45;453b&#45;99fb&#45;d34707d3253c&quot;</text>
<text text-anchor="start" x="185.84" y="-322" font-family="Times,serif" font-size="10.00">rejectionDescription = &quot;&quot;</text>
<text text-anchor="start" x="185.84" y="-310" font-family="Times,serif" font-size="10.00">timestamp = 2021&#45;11&#45;28T10:58:08.965303400</text>
</g>
<!-- b -->
<g id="node2" class="node">
<title>b</title>
<polygon fill="none" stroke="black" points="321.11,-236 321.11,-254 358.11,-254 358.11,-236 321.11,-236"/>
<text text-anchor="start" x="323.91" y="-243" font-family="Times,serif" text-decoration="underline" font-size="10.00">b :Bank</text>
<polygon fill="none" stroke="black" points="321.11,-230 321.11,-236 358.11,-236 358.11,-230 321.11,-230"/>
</g>
<!-- 3bc9585c_5105_453b_99fb_d34707d3253c&#45;&gt;b -->
<g id="edge1" class="edge">
<title>3bc9585c_5105_453b_99fb_d34707d3253c&#45;&gt;b</title>
<path fill="none" stroke="black" d="M308.39,-299.96C315.99,-285.88 323.92,-271.17 329.81,-260.23"/>
<text text-anchor="middle" x="320.09" y="-263.23" font-family="Times,serif" font-size="10.00">bank</text>
<text text-anchor="middle" x="284.51" y="-290.96" font-family="Times,serif" font-size="10.00">transactions</text>
</g>
<!-- c -->
<g id="node3" class="node">
<title>c</title>
<polygon fill="none" stroke="black" points="65.11,-46 65.11,-64 199.11,-64 199.11,-46 65.11,-46"/>
<text text-anchor="start" x="108.64" y="-53" font-family="Times,serif" text-decoration="underline" font-size="10.00">c :Currency</text>
<polygon fill="none" stroke="black" points="65.11,-28 65.11,-46 199.11,-46 199.11,-28 65.11,-28"/>
<text text-anchor="start" x="68.11" y="-34" font-family="Times,serif" font-size="10.00">declaringClass = class Currency</text>
</g>
<!-- 3bc9585c_5105_453b_99fb_d34707d3253c&#45;&gt;c -->
<g id="edge2" class="edge">
<title>3bc9585c_5105_453b_99fb_d34707d3253c&#45;&gt;c</title>
<path fill="none" stroke="black" d="M162.05,-305.88C104.87,-280.73 42.19,-241.71 9.11,-184 -3.27,-162.41 -2.7,-149.91 9.11,-128 23.78,-100.76 52.06,-81.18 77.81,-68.1"/>
<text text-anchor="middle" x="60.32" y="-71.1" font-family="Times,serif" font-size="10.00">currency</text>
</g>
<!-- b1d16140_11ed_4ed4_912f_eb38cba469d0 -->
<g id="node4" class="node">
<title>b1d16140_11ed_4ed4_912f_eb38cba469d0</title>
<polygon fill="none" stroke="black" points="272.11,-162 272.11,-180 485.11,-180 485.11,-162 272.11,-162"/>
<text text-anchor="start" x="274.61" y="-169" font-family="Times,serif" text-decoration="underline" font-size="10.00">b1d16140&#45;11ed&#45;4ed4&#45;912f&#45;eb38cba469d0 :Account</text>
<polygon fill="none" stroke="black" points="272.11,-132 272.11,-162 485.11,-162 485.11,-132 272.11,-132"/>
<text text-anchor="start" x="280.9" y="-150" font-family="Times,serif" font-size="10.00">balance = 260.0</text>
<text text-anchor="start" x="280.9" y="-138" font-family="Times,serif" font-size="10.00">id = &quot;b1d16140&#45;11ed&#45;4ed4&#45;912f&#45;eb38cba469d0&quot;</text>
</g>
<!-- 3bc9585c_5105_453b_99fb_d34707d3253c&#45;&gt;b1d16140_11ed_4ed4_912f_eb38cba469d0 -->
<g id="edge3" class="edge">
<title>3bc9585c_5105_453b_99fb_d34707d3253c&#45;&gt;b1d16140_11ed_4ed4_912f_eb38cba469d0</title>
<path fill="none" stroke="black" d="M283.34,-299.99C284.72,-275.02 289.51,-244.21 303.11,-220 310.93,-206.06 323.12,-193.86 335.41,-184.01"/>
<text text-anchor="middle" x="313.47" y="-187.01" font-family="Times,serif" font-size="10.00">destination</text>
</g>
<!-- 9542fa6d_9594_4b4f_90c7_825d2f696c83 -->
<g id="node5" class="node">
<title>9542fa6d_9594_4b4f_90c7_825d2f696c83</title>
<polygon fill="none" stroke="black" points="27.11,-162 27.11,-180 238.11,-180 238.11,-162 27.11,-162"/>
<text text-anchor="start" x="29.72" y="-169" font-family="Times,serif" text-decoration="underline" font-size="10.00">9542fa6d&#45;9594&#45;4b4f&#45;90c7&#45;825d2f696c83 :Account</text>
<polygon fill="none" stroke="black" points="27.11,-132 27.11,-162 238.11,-162 238.11,-132 27.11,-132"/>
<text text-anchor="start" x="36.01" y="-150" font-family="Times,serif" font-size="10.00">balance = 69170.0</text>
<text text-anchor="start" x="36.01" y="-138" font-family="Times,serif" font-size="10.00">id = &quot;9542fa6d&#45;9594&#45;4b4f&#45;90c7&#45;825d2f696c83&quot;</text>
</g>
<!-- 3bc9585c_5105_453b_99fb_d34707d3253c&#45;&gt;9542fa6d_9594_4b4f_90c7_825d2f696c83 -->
<g id="edge4" class="edge">
<title>3bc9585c_5105_453b_99fb_d34707d3253c&#45;&gt;9542fa6d_9594_4b4f_90c7_825d2f696c83</title>
<path fill="none" stroke="black" d="M247.7,-299.97C218.54,-263.9 178.59,-214.5 154.11,-184.21"/>
<text text-anchor="middle" x="141.06" y="-187.21" font-family="Times,serif" font-size="10.00">source</text>
</g>
<!-- s -->
<g id="node6" class="node">
<title>s</title>
<polygon fill="none" stroke="black" points="392.11,-242 392.11,-260 566.11,-260 566.11,-242 392.11,-242"/>
<text text-anchor="start" x="462.3" y="-249" font-family="Times,serif" text-decoration="underline" font-size="10.00">s :Status</text>
<polygon fill="none" stroke="black" points="392.11,-224 392.11,-242 566.11,-242 566.11,-224 392.11,-224"/>
<text text-anchor="start" x="395.11" y="-230" font-family="Times,serif" font-size="10.00">declaringClass = class Transaction$Status</text>
</g>
<!-- 3bc9585c_5105_453b_99fb_d34707d3253c&#45;&gt;s -->
<g id="edge5" class="edge">
<title>3bc9585c_5105_453b_99fb_d34707d3253c&#45;&gt;s</title>
<path fill="none" stroke="black" d="M370.2,-299.96C394.08,-287.48 418.88,-274.5 438.77,-264.1"/>
<text text-anchor="middle" x="427.38" y="-267.1" font-family="Times,serif" font-size="10.00">status</text>
</g>
<!-- b&#45;&gt;b1d16140_11ed_4ed4_912f_eb38cba469d0 -->
<g id="edge7" class="edge">
<title>b&#45;&gt;b1d16140_11ed_4ed4_912f_eb38cba469d0</title>
<path fill="none" stroke="black" d="M347.19,-223.6C352.45,-212.25 359.43,-197.22 365.43,-184.31"/>
<text text-anchor="middle" x="382.92" y="-187.31" font-family="Times,serif" font-size="10.00">accounts</text>
<text text-anchor="middle" x="337.47" y="-214.6" font-family="Times,serif" font-size="10.00">bank</text>
</g>
<!-- b&#45;&gt;9542fa6d_9594_4b4f_90c7_825d2f696c83 -->
<g id="edge6" class="edge">
<title>b&#45;&gt;9542fa6d_9594_4b4f_90c7_825d2f696c83</title>
<path fill="none" stroke="black" d="M312.04,-230.02C283.44,-218.41 237.24,-199.66 198.82,-184.07"/>
<text text-anchor="middle" x="225.47" y="-187.07" font-family="Times,serif" font-size="10.00">bankAccount</text>
<text text-anchor="middle" x="302.32" y="-233.02" font-family="Times,serif" font-size="10.00">bank</text>
</g>
<!-- 51fb26dc_c181_49c6_b18e_d8517e8216d6 -->
<g id="node7" class="node">
<title>51fb26dc_c181_49c6_b18e_d8517e8216d6</title>
<polygon fill="none" stroke="black" points="340.11,-70 340.11,-88 559.11,-88 559.11,-70 340.11,-70"/>
<text text-anchor="start" x="343.1" y="-77" font-family="Times,serif" text-decoration="underline" font-size="10.00">51fb26dc&#45;c181&#45;49c6&#45;b18e&#45;d8517e8216d6 :Customer</text>
<polygon fill="none" stroke="black" points="340.11,-4 340.11,-70 559.11,-70 559.11,-4 340.11,-4"/>
<text text-anchor="start" x="351.9" y="-58" font-family="Times,serif" font-size="10.00">email = &quot;john@doe.ee&quot;</text>
<text text-anchor="start" x="351.9" y="-46" font-family="Times,serif" font-size="10.00">firstName = &quot;John&quot;</text>
<text text-anchor="start" x="351.9" y="-34" font-family="Times,serif" font-size="10.00">id = &quot;51fb26dc&#45;c181&#45;49c6&#45;b18e&#45;d8517e8216d6&quot;</text>
<text text-anchor="start" x="351.9" y="-22" font-family="Times,serif" font-size="10.00">lastName = &quot;Doe&quot;</text>
<text text-anchor="start" x="351.9" y="-10" font-family="Times,serif" font-size="10.00">password = &quot;pass1234&quot;</text>
</g>
<!-- b&#45;&gt;51fb26dc_c181_49c6_b18e_d8517e8216d6 -->
<g id="edge8" class="edge">
<title>b&#45;&gt;51fb26dc_c181_49c6_b18e_d8517e8216d6</title>
<path fill="none" stroke="black" d="M366.25,-224.21C369.19,-222.68 372.18,-221.25 375.11,-220 429.09,-197.04 466.73,-230.8 502.11,-184 522.71,-156.74 507.23,-120.48 487.78,-92.11"/>
<text text-anchor="middle" x="467.51" y="-95.11" font-family="Times,serif" font-size="10.00">customers</text>
<text text-anchor="middle" x="371.11" y="-215.21" font-family="Times,serif" font-size="10.00">bank</text>
</g>
<!-- b1d16140_11ed_4ed4_912f_eb38cba469d0&#45;&gt;c -->
<g id="edge9" class="edge">
<title>b1d16140_11ed_4ed4_912f_eb38cba469d0&#45;&gt;c</title>
<path fill="none" stroke="black" d="M316.35,-127.89C274.22,-109.39 219.22,-85.25 180.32,-68.17"/>
<text text-anchor="middle" x="162.83" y="-71.17" font-family="Times,serif" font-size="10.00">currency</text>
</g>
<!-- b1d16140_11ed_4ed4_912f_eb38cba469d0&#45;&gt;51fb26dc_c181_49c6_b18e_d8517e8216d6 -->
<g id="edge10" class="edge">
<title>b1d16140_11ed_4ed4_912f_eb38cba469d0&#45;&gt;51fb26dc_c181_49c6_b18e_d8517e8216d6</title>
<path fill="none" stroke="black" d="M396.02,-127.75C403.09,-117 411.4,-104.36 419.32,-92.31"/>
<text text-anchor="middle" x="406.82" y="-95.31" font-family="Times,serif" font-size="10.00">owner</text>
<text text-anchor="middle" x="380.47" y="-118.75" font-family="Times,serif" font-size="10.00">account</text>
</g>
<!-- 9542fa6d_9594_4b4f_90c7_825d2f696c83&#45;&gt;c -->
<g id="edge11" class="edge">
<title>9542fa6d_9594_4b4f_90c7_825d2f696c83&#45;&gt;c</title>
<path fill="none" stroke="black" d="M132.11,-127.75C132.11,-109.25 132.11,-85.15 132.11,-68.11"/>
<text text-anchor="middle" x="114.62" y="-71.11" font-family="Times,serif" font-size="10.00">currency</text>
</g>
</g>
</svg>
