<?xml version="1.0" encoding="UTF-8" standalone="no"?>
<!DOCTYPE svg PUBLIC "-//W3C//DTD SVG 1.1//EN"
 "http://www.w3.org/Graphics/SVG/1.1/DTD/svg11.dtd">
<!-- Generated by graphviz version 2.43.0 (0)
 -->
<!-- Title: model Pages: 1 -->
<svg width="1339px" height="449px"
 viewBox="0.00 0.00 1338.50 449.00" xmlns="http://www.w3.org/2000/svg" xmlns:xlink="http://www.w3.org/1999/xlink">
<g id="graph0" class="graph" transform="scale(1.0 1.0) rotate(0) translate(4 445)">
<title>model</title>
<polygon fill="white" stroke="transparent" points="-4,4 -4,-445 1334.5,-445 1334.5,4 -4,4"/>
<!-- 6130f416_347a_4e4d_be57_2964f09a9f63 -->
<g id="node1" class="node">
<title>6130f416_347a_4e4d_be57_2964f09a9f63</title>
<polygon fill="none" stroke="black" points="274,-420 274,-437 504,-437 504,-420 274,-420"/>
<text text-anchor="start" x="277" y="-427" font-family="Times,serif" text-decoration="underline" font-size="10.00">6130f416&#45;347a&#45;4e4d&#45;be57&#45;2964f09a9f63 :Transaction</text>
<polygon fill="none" stroke="black" points="274,-359 274,-420 504,-420 504,-359 274,-359"/>
<text text-anchor="start" x="290.5" y="-409" font-family="Times,serif" font-size="10.00">amount = 250.0</text>
<text text-anchor="start" x="290.5" y="-398" font-family="Times,serif" font-size="10.00">description = &quot;Salary&quot;</text>
<text text-anchor="start" x="290.5" y="-387" font-family="Times,serif" font-size="10.00">id = &quot;6130f416&#45;347a&#45;4e4d&#45;be57&#45;2964f09a9f63&quot;</text>
<text text-anchor="start" x="290.5" y="-376" font-family="Times,serif" font-size="10.00">rejectionDescription = &quot;&quot;</text>
<text text-anchor="start" x="290.5" y="-365" font-family="Times,serif" font-size="10.00">timestamp = 2021&#45;12&#45;04T18:20:20.223015057</text>
</g>
<!-- b -->
<g id="node2" class="node">
<title>b</title>
<polygon fill="none" stroke="black" points="425,-297.5 425,-314.5 1083,-314.5 1083,-297.5 425,-297.5"/>
<text text-anchor="start" x="737.5" y="-304.5" font-family="Times,serif" text-decoration="underline" font-size="10.00">b :Bank</text>
<polygon fill="none" stroke="black" points="425,-269.5 425,-297.5 1083,-297.5 1083,-269.5 425,-269.5"/>
<text text-anchor="start" x="428" y="-286.5" font-family="Times,serif" font-size="10.00">accountsMap = sendItToTheBank8a633aa5&#45;907c&#45;4e57&#45;a313&#45;22e0adb2672ea886ea2f&#45;4675&#45;4f7d&#45;8475&#45;ecef4675563c7ec351d6&#45;652f&#45;4691&#45;8e72&#45;ea432d44a0c8</text>
<text text-anchor="start" x="428" y="-275.5" font-family="Times,serif" font-size="10.00">customerMap = e2f7bc4c&#45;ef2a&#45;466e&#45;b8a5&#45;d24f48b13afe1eaf6f4c&#45;4f92&#45;4e04&#45;bd87&#45;c82be03265de34b9f4a7&#45;ce39&#45;4fd0&#45;82b6&#45;4bb1c4b8144a</text>
</g>
<!-- 6130f416_347a_4e4d_be57_2964f09a9f63&#45;&gt;b -->
<g id="edge1" class="edge">
<title>6130f416_347a_4e4d_be57_2964f09a9f63&#45;&gt;b</title>
<path fill="none" stroke="black" d="M512.06,-362.1C561.84,-347.99 618.23,-332 664.05,-319.01"/>
<text text-anchor="middle" x="653.55" y="-322.01" font-family="Times,serif" font-size="10.00">bank</text>
<text text-anchor="middle" x="536.56" y="-365.1" font-family="Times,serif" font-size="10.00">transactions</text>
</g>
<!-- c -->
<g id="node3" class="node">
<title>c</title>
<polygon fill="none" stroke="black" points="394,-43 394,-60 558,-60 558,-43 394,-43"/>
<text text-anchor="start" x="452" y="-50" font-family="Times,serif" text-decoration="underline" font-size="10.00">c :Currency</text>
<polygon fill="none" stroke="black" points="394,-26 394,-43 558,-43 558,-26 394,-26"/>
<text text-anchor="start" x="397" y="-32" font-family="Times,serif" font-size="10.00">declaringClass = class model.Currency</text>
</g>
<!-- 6130f416_347a_4e4d_be57_2964f09a9f63&#45;&gt;c -->
<g id="edge2" class="edge">
<title>6130f416_347a_4e4d_be57_2964f09a9f63&#45;&gt;c</title>
<path fill="none" stroke="black" d="M363.19,-354.82C332.11,-298.07 289.23,-195.74 333,-122 349.31,-94.52 379.09,-76.1 407.26,-64.1"/>
<text text-anchor="middle" x="389.26" y="-67.1" font-family="Times,serif" font-size="10.00">currency</text>
</g>
<!-- a886ea2f_4675_4f7d_8475_ecef4675563c -->
<g id="node4" class="node">
<title>a886ea2f_4675_4f7d_8475_ecef4675563c</title>
<polygon fill="none" stroke="black" points="8,-209 8,-226 278,-226 278,-209 8,-209"/>
<text text-anchor="start" x="38.5" y="-216" font-family="Times,serif" text-decoration="underline" font-size="10.00">a886ea2f&#45;4675&#45;4f7d&#45;8475&#45;ecef4675563c :Account</text>
<polygon fill="none" stroke="black" points="8,-126 8,-209 278,-209 278,-126 8,-126"/>
<text text-anchor="start" x="11" y="-198" font-family="Times,serif" font-size="10.00">balance = 260.0</text>
<text text-anchor="start" x="11" y="-187" font-family="Times,serif" font-size="10.00">customerId = null</text>
<text text-anchor="start" x="11" y="-176" font-family="Times,serif" font-size="10.00">iban = &quot;EE322075333245339846&quot;</text>
<text text-anchor="start" x="11" y="-165" font-family="Times,serif" font-size="10.00">id = &quot;a886ea2f&#45;4675&#45;4f7d&#45;8475&#45;ecef4675563c&quot;</text>
<text text-anchor="start" x="11" y="-154" font-family="Times,serif" font-size="10.00">receivedTransaction = 6130f416&#45;347a&#45;4e4d&#45;be57&#45;2964f09a9f63</text>
<text text-anchor="start" x="11" y="-143" font-family="Times,serif" font-size="10.00">sentTransaction = </text>
<text text-anchor="start" x="11" y="-132" font-family="Times,serif" font-size="10.00">status = &quot;ACTIVE&quot;</text>
</g>
<!-- 6130f416_347a_4e4d_be57_2964f09a9f63&#45;&gt;a886ea2f_4675_4f7d_8475_ecef4675563c -->
<g id="edge3" class="edge">
<title>6130f416_347a_4e4d_be57_2964f09a9f63&#45;&gt;a886ea2f_4675_4f7d_8475_ecef4675563c</title>
<path fill="none" stroke="black" d="M340.38,-354.63C327.24,-343.11 313.04,-330.61 300,-319 267.2,-289.8 230.81,-256.91 201.33,-230.15"/>
<text text-anchor="middle" x="178.33" y="-233.15" font-family="Times,serif" font-size="10.00">destination</text>
<text text-anchor="middle" x="282.38" y="-346.63" font-family="Times,serif" font-size="10.00">allTransactionsOrderedDesc</text>
</g>
<!-- sendItToTheBank -->
<g id="node5" class="node">
<title>sendItToTheBank</title>
<polygon fill="none" stroke="black" points="350,-209 350,-226 602,-226 602,-209 350,-209"/>
<text text-anchor="start" x="419" y="-216" font-family="Times,serif" text-decoration="underline" font-size="10.00">sendItToTheBank :Account</text>
<polygon fill="none" stroke="black" points="350,-126 350,-209 602,-209 602,-126 350,-126"/>
<text text-anchor="start" x="353" y="-198" font-family="Times,serif" font-size="10.00">balance = 69170.0</text>
<text text-anchor="start" x="353" y="-187" font-family="Times,serif" font-size="10.00">customerId = null</text>
<text text-anchor="start" x="353" y="-176" font-family="Times,serif" font-size="10.00">iban = &quot;EE422158205200838111&quot;</text>
<text text-anchor="start" x="353" y="-165" font-family="Times,serif" font-size="10.00">id = &quot;sendItToTheBank&quot;</text>
<text text-anchor="start" x="353" y="-154" font-family="Times,serif" font-size="10.00">receivedTransaction = </text>
<text text-anchor="start" x="353" y="-143" font-family="Times,serif" font-size="10.00">sentTransaction = 6130f416&#45;347a&#45;4e4d&#45;be57&#45;2964f09a9f63</text>
<text text-anchor="start" x="353" y="-132" font-family="Times,serif" font-size="10.00">status = &quot;ACTIVE&quot;</text>
</g>
<!-- 6130f416_347a_4e4d_be57_2964f09a9f63&#45;&gt;sendItToTheBank -->
<g id="edge4" class="edge">
<title>6130f416_347a_4e4d_be57_2964f09a9f63&#45;&gt;sendItToTheBank</title>
<path fill="none" stroke="black" d="M389.74,-354.85C391.48,-328.43 396.15,-294.17 408,-266 413.2,-253.63 420.54,-241.47 428.49,-230.29"/>
<text text-anchor="middle" x="414.99" y="-233.29" font-family="Times,serif" font-size="10.00">source</text>
<text text-anchor="middle" x="447.74" y="-346.85" font-family="Times,serif" font-size="10.00">allTransactionsOrderedDesc</text>
</g>
<!-- s -->
<g id="node6" class="node">
<title>s</title>
<polygon fill="none" stroke="black" points="1118,-292.5 1118,-309.5 1323,-309.5 1323,-292.5 1118,-292.5"/>
<text text-anchor="start" x="1203.5" y="-299.5" font-family="Times,serif" text-decoration="underline" font-size="10.00">s :Status</text>
<polygon fill="none" stroke="black" points="1118,-275.5 1118,-292.5 1323,-292.5 1323,-275.5 1118,-275.5"/>
<text text-anchor="start" x="1121" y="-281.5" font-family="Times,serif" font-size="10.00">declaringClass = class model.Transaction$Status</text>
</g>
<!-- 6130f416_347a_4e4d_be57_2964f09a9f63&#45;&gt;s -->
<g id="edge5" class="edge">
<title>6130f416_347a_4e4d_be57_2964f09a9f63&#45;&gt;s</title>
<path fill="none" stroke="black" d="M512.17,-387.26C654.35,-375.14 894.94,-351.95 1100,-319 1109.88,-317.41 1120.18,-315.55 1130.41,-313.56"/>
<text text-anchor="middle" x="1118.41" y="-316.56" font-family="Times,serif" font-size="10.00">status</text>
</g>
<!-- b&#45;&gt;a886ea2f_4675_4f7d_8475_ecef4675563c -->
<g id="edge9" class="edge">
<title>b&#45;&gt;a886ea2f_4675_4f7d_8475_ecef4675563c</title>
<path fill="none" stroke="black" d="M542.67,-265.98C475.34,-256.42 400.75,-244.34 333,-230 317.76,-226.77 301.93,-223.02 286.21,-219.03"/>
<text text-anchor="middle" x="304.71" y="-222.03" font-family="Times,serif" font-size="10.00">accounts</text>
<text text-anchor="middle" x="532.17" y="-257.98" font-family="Times,serif" font-size="10.00">bank</text>
</g>
<!-- b&#45;&gt;sendItToTheBank -->
<g id="edge6" class="edge">
<title>b&#45;&gt;sendItToTheBank</title>
<path fill="none" stroke="black" d="M691.96,-265.95C666.11,-255.3 635.09,-242.52 604.72,-230.01"/>
<text text-anchor="middle" x="576.72" y="-233.01" font-family="Times,serif" font-size="10.00">bankAccount</text>
<text text-anchor="middle" x="681.46" y="-257.95" font-family="Times,serif" font-size="10.00">bank</text>
</g>
<!-- 8a633aa5_907c_4e57_a313_22e0adb2672e -->
<g id="node7" class="node">
<title>8a633aa5_907c_4e57_a313_22e0adb2672e</title>
<polygon fill="none" stroke="black" points="942,-209 942,-226 1180,-226 1180,-209 942,-209"/>
<text text-anchor="start" x="954" y="-216" font-family="Times,serif" text-decoration="underline" font-size="10.00">8a633aa5&#45;907c&#45;4e57&#45;a313&#45;22e0adb2672e :Account</text>
<polygon fill="none" stroke="black" points="942,-126 942,-209 1180,-209 1180,-126 942,-126"/>
<text text-anchor="start" x="945" y="-198" font-family="Times,serif" font-size="10.00">balance = 0.0</text>
<text text-anchor="start" x="945" y="-187" font-family="Times,serif" font-size="10.00">customerId = &quot;1eaf6f4c&#45;4f92&#45;4e04&#45;bd87&#45;c82be03265de&quot;</text>
<text text-anchor="start" x="945" y="-176" font-family="Times,serif" font-size="10.00">iban = null</text>
<text text-anchor="start" x="945" y="-165" font-family="Times,serif" font-size="10.00">id = &quot;8a633aa5&#45;907c&#45;4e57&#45;a313&#45;22e0adb2672e&quot;</text>
<text text-anchor="start" x="945" y="-154" font-family="Times,serif" font-size="10.00">receivedTransaction = </text>
<text text-anchor="start" x="945" y="-143" font-family="Times,serif" font-size="10.00">sentTransaction = </text>
<text text-anchor="start" x="945" y="-132" font-family="Times,serif" font-size="10.00">status = &quot;ACTIVE&quot;</text>
</g>
<!-- b&#45;&gt;8a633aa5_907c_4e57_a313_22e0adb2672e -->
<g id="edge7" class="edge">
<title>b&#45;&gt;8a633aa5_907c_4e57_a313_22e0adb2672e</title>
<path fill="none" stroke="black" d="M826.54,-265.89C857.02,-255 892.8,-242.06 925,-230 927.97,-228.89 930.97,-227.76 933.99,-226.62"/>
<text text-anchor="middle" x="915.49" y="-229.62" font-family="Times,serif" font-size="10.00">accounts</text>
<text text-anchor="middle" x="816.04" y="-257.89" font-family="Times,serif" font-size="10.00">bank</text>
</g>
<!-- 7ec351d6_652f_4691_8e72_ea432d44a0c8 -->
<g id="node8" class="node">
<title>7ec351d6_652f_4691_8e72_ea432d44a0c8</title>
<polygon fill="none" stroke="black" points="674,-209 674,-226 908,-226 908,-209 674,-209"/>
<text text-anchor="start" x="684" y="-216" font-family="Times,serif" text-decoration="underline" font-size="10.00">7ec351d6&#45;652f&#45;4691&#45;8e72&#45;ea432d44a0c8 :Account</text>
<polygon fill="none" stroke="black" points="674,-126 674,-209 908,-209 908,-126 674,-126"/>
<text text-anchor="start" x="677" y="-198" font-family="Times,serif" font-size="10.00">balance = 100.0</text>
<text text-anchor="start" x="677" y="-187" font-family="Times,serif" font-size="10.00">customerId = &quot;e2f7bc4c&#45;ef2a&#45;466e&#45;b8a5&#45;d24f48b13afe&quot;</text>
<text text-anchor="start" x="677" y="-176" font-family="Times,serif" font-size="10.00">iban = null</text>
<text text-anchor="start" x="677" y="-165" font-family="Times,serif" font-size="10.00">id = &quot;7ec351d6&#45;652f&#45;4691&#45;8e72&#45;ea432d44a0c8&quot;</text>
<text text-anchor="start" x="677" y="-154" font-family="Times,serif" font-size="10.00">receivedTransaction = </text>
<text text-anchor="start" x="677" y="-143" font-family="Times,serif" font-size="10.00">sentTransaction = </text>
<text text-anchor="start" x="677" y="-132" font-family="Times,serif" font-size="10.00">status = &quot;ACTIVE&quot;</text>
</g>
<!-- b&#45;&gt;7ec351d6_652f_4691_8e72_ea432d44a0c8 -->
<g id="edge8" class="edge">
<title>b&#45;&gt;7ec351d6_652f_4691_8e72_ea432d44a0c8</title>
<path fill="none" stroke="black" d="M762.3,-265.8C765.71,-255.25 769.79,-242.63 773.79,-230.25"/>
<text text-anchor="middle" x="755.29" y="-233.25" font-family="Times,serif" font-size="10.00">accounts</text>
<text text-anchor="middle" x="751.8" y="-257.8" font-family="Times,serif" font-size="10.00">bank</text>
</g>
<!-- e2f7bc4c_ef2a_466e_b8a5_d24f48b13afe -->
<g id="node9" class="node">
<title>e2f7bc4c_ef2a_466e_b8a5_d24f48b13afe</title>
<polygon fill="none" stroke="black" points="741,-65 741,-82 956,-82 956,-65 741,-65"/>
<text text-anchor="start" x="744" y="-72" font-family="Times,serif" text-decoration="underline" font-size="10.00">e2f7bc4c&#45;ef2a&#45;466e&#45;b8a5&#45;d24f48b13afe :Customer</text>
<polygon fill="none" stroke="black" points="741,-4 741,-65 956,-65 956,-4 741,-4"/>
<text text-anchor="start" x="753" y="-54" font-family="Times,serif" font-size="10.00">email = &quot;john@doe.ee&quot;</text>
<text text-anchor="start" x="753" y="-43" font-family="Times,serif" font-size="10.00">firstName = &quot;John&quot;</text>
<text text-anchor="start" x="753" y="-32" font-family="Times,serif" font-size="10.00">id = &quot;e2f7bc4c&#45;ef2a&#45;466e&#45;b8a5&#45;d24f48b13afe&quot;</text>
<text text-anchor="start" x="753" y="-21" font-family="Times,serif" font-size="10.00">lastName = &quot;Doe&quot;</text>
<text text-anchor="start" x="753" y="-10" font-family="Times,serif" font-size="10.00">password = &quot;pass1234&quot;</text>
</g>
<!-- b&#45;&gt;e2f7bc4c_ef2a_466e_b8a5_d24f48b13afe -->
<g id="edge10" class="edge">
<title>b&#45;&gt;e2f7bc4c_ef2a_466e_b8a5_d24f48b13afe</title>
<path fill="none" stroke="black" d="M1042.19,-265.97C1119.24,-256.25 1184.75,-244.07 1197,-230 1228.52,-193.8 1227.13,-159.37 1197,-122 1149.61,-63.23 1104.68,-102.44 1031,-86 1009.21,-81.14 985.97,-75.87 963.63,-70.76"/>
<text text-anchor="middle" x="984.13" y="-73.76" font-family="Times,serif" font-size="10.00">customers</text>
<text text-anchor="middle" x="1031.69" y="-257.97" font-family="Times,serif" font-size="10.00">bank</text>
</g>
<!-- 1eaf6f4c_4f92_4e04_bd87_c82be03265de -->
<g id="node10" class="node">
<title>1eaf6f4c_4f92_4e04_bd87_c82be03265de</title>
<polygon fill="none" stroke="black" points="1048,-65 1048,-82 1267,-82 1267,-65 1048,-65"/>
<text text-anchor="start" x="1051" y="-72" font-family="Times,serif" text-decoration="underline" font-size="10.00">1eaf6f4c&#45;4f92&#45;4e04&#45;bd87&#45;c82be03265de :Customer</text>
<polygon fill="none" stroke="black" points="1048,-4 1048,-65 1267,-65 1267,-4 1048,-4"/>
<text text-anchor="start" x="1060" y="-54" font-family="Times,serif" font-size="10.00">email = &quot;bobby@tt.ee&quot;</text>
<text text-anchor="start" x="1060" y="-43" font-family="Times,serif" font-size="10.00">firstName = &quot;Bob&quot;</text>
<text text-anchor="start" x="1060" y="-32" font-family="Times,serif" font-size="10.00">id = &quot;1eaf6f4c&#45;4f92&#45;4e04&#45;bd87&#45;c82be03265de&quot;</text>
<text text-anchor="start" x="1060" y="-21" font-family="Times,serif" font-size="10.00">lastName = &quot;Jackson&quot;</text>
<text text-anchor="start" x="1060" y="-10" font-family="Times,serif" font-size="10.00">password = &quot;secret&quot;</text>
</g>
<!-- b&#45;&gt;1eaf6f4c_4f92_4e04_bd87_c82be03265de -->
<g id="edge11" class="edge">
<title>b&#45;&gt;1eaf6f4c_4f92_4e04_bd87_c82be03265de</title>
<path fill="none" stroke="black" d="M1065.36,-265.99C1143.71,-256.45 1209.39,-244.38 1222,-230 1253.65,-193.92 1238.34,-167.13 1222,-122 1217.38,-109.24 1209.66,-97.1 1201.12,-86.36"/>
<text text-anchor="middle" x="1180.62" y="-89.36" font-family="Times,serif" font-size="10.00">customers</text>
<text text-anchor="middle" x="1054.86" y="-257.99" font-family="Times,serif" font-size="10.00">bank</text>
</g>
<!-- 34b9f4a7_ce39_4fd0_82b6_4bb1c4b8144a -->
<g id="node11" class="node">
<title>34b9f4a7_ce39_4fd0_82b6_4bb1c4b8144a</title>
<polygon fill="none" stroke="black" points="85,-65 85,-82 308,-82 308,-65 85,-65"/>
<text text-anchor="start" x="88" y="-72" font-family="Times,serif" text-decoration="underline" font-size="10.00">34b9f4a7&#45;ce39&#45;4fd0&#45;82b6&#45;4bb1c4b8144a :Customer</text>
<polygon fill="none" stroke="black" points="85,-4 85,-65 308,-65 308,-4 85,-4"/>
<text text-anchor="start" x="97" y="-54" font-family="Times,serif" font-size="10.00">email = &quot;johntest@doe.ee&quot;</text>
<text text-anchor="start" x="97" y="-43" font-family="Times,serif" font-size="10.00">firstName = &quot;johntest&quot;</text>
<text text-anchor="start" x="97" y="-32" font-family="Times,serif" font-size="10.00">id = &quot;34b9f4a7&#45;ce39&#45;4fd0&#45;82b6&#45;4bb1c4b8144a&quot;</text>
<text text-anchor="start" x="97" y="-21" font-family="Times,serif" font-size="10.00">lastName = &quot;Doe&quot;</text>
<text text-anchor="start" x="97" y="-10" font-family="Times,serif" font-size="10.00">password = &quot;pass1234&quot;</text>
</g>
<!-- b&#45;&gt;34b9f4a7_ce39_4fd0_82b6_4bb1c4b8144a -->
<g id="edge12" class="edge">
<title>b&#45;&gt;34b9f4a7_ce39_4fd0_82b6_4bb1c4b8144a</title>
<path fill="none" stroke="black" d="M699.89,-265.95C684.33,-256.47 668.48,-244.43 657,-230 625.32,-190.18 658.24,-154.39 619,-122 577.07,-87.39 430.41,-96.15 377,-86 357.19,-82.24 336.27,-77.81 315.95,-73.26"/>
<text text-anchor="middle" x="336.45" y="-76.26" font-family="Times,serif" font-size="10.00">customers</text>
<text text-anchor="middle" x="710.39" y="-257.95" font-family="Times,serif" font-size="10.00">bank</text>
</g>
<!-- a886ea2f_4675_4f7d_8475_ecef4675563c&#45;&gt;c -->
<g id="edge13" class="edge">
<title>a886ea2f_4675_4f7d_8475_ecef4675563c&#45;&gt;c</title>
<path fill="none" stroke="black" d="M277.96,-121.91C329.71,-101.55 385.67,-79.54 424.86,-64.12"/>
<text text-anchor="middle" x="442.86" y="-67.12" font-family="Times,serif" font-size="10.00">currency</text>
</g>
<!-- a886ea2f_4675_4f7d_8475_ecef4675563c&#45;&gt;34b9f4a7_ce39_4fd0_82b6_4bb1c4b8144a -->
<g id="edge14" class="edge">
<title>a886ea2f_4675_4f7d_8475_ecef4675563c&#45;&gt;34b9f4a7_ce39_4fd0_82b6_4bb1c4b8144a</title>
<path fill="none" stroke="black" d="M164.56,-121.72C169.31,-109.96 174.29,-97.66 178.85,-86.4"/>
<text text-anchor="middle" x="165.85" y="-89.4" font-family="Times,serif" font-size="10.00">owner</text>
<text text-anchor="middle" x="148.06" y="-113.72" font-family="Times,serif" font-size="10.00">account</text>
</g>
<!-- sendItToTheBank&#45;&gt;c -->
<g id="edge15" class="edge">
<title>sendItToTheBank&#45;&gt;c</title>
<path fill="none" stroke="black" d="M476,-121.72C476,-101.46 476,-79.58 476,-64.22"/>
<text text-anchor="middle" x="494" y="-67.22" font-family="Times,serif" font-size="10.00">currency</text>
</g>
<!-- 8a633aa5_907c_4e57_a313_22e0adb2672e&#45;&gt;c -->
<g id="edge16" class="edge">
<title>8a633aa5_907c_4e57_a313_22e0adb2672e&#45;&gt;c</title>
<path fill="none" stroke="black" d="M933.85,-124.56C930.88,-123.67 927.93,-122.82 925,-122 907.83,-117.21 692.24,-80.5 566.16,-59.19"/>
<text text-anchor="middle" x="584.16" y="-62.19" font-family="Times,serif" font-size="10.00">currency</text>
</g>
<!-- 8a633aa5_907c_4e57_a313_22e0adb2672e&#45;&gt;1eaf6f4c_4f92_4e04_bd87_c82be03265de -->
<g id="edge17" class="edge">
<title>8a633aa5_907c_4e57_a313_22e0adb2672e&#45;&gt;1eaf6f4c_4f92_4e04_bd87_c82be03265de</title>
<path fill="none" stroke="black" d="M1100.05,-121.72C1108.66,-109.96 1117.68,-97.66 1125.93,-86.4"/>
<text text-anchor="middle" x="1112.93" y="-89.4" font-family="Times,serif" font-size="10.00">owner</text>
<text text-anchor="middle" x="1083.55" y="-113.72" font-family="Times,serif" font-size="10.00">account</text>
</g>
<!-- 7ec351d6_652f_4691_8e72_ea432d44a0c8&#45;&gt;c -->
<g id="edge18" class="edge">
<title>7ec351d6_652f_4691_8e72_ea432d44a0c8&#45;&gt;c</title>
<path fill="none" stroke="black" d="M665.6,-122.85C616.02,-102.23 562,-79.76 524.35,-64.11"/>
<text text-anchor="middle" x="542.35" y="-67.11" font-family="Times,serif" font-size="10.00">currency</text>
</g>
<!-- 7ec351d6_652f_4691_8e72_ea432d44a0c8&#45;&gt;e2f7bc4c_ef2a_466e_b8a5_d24f48b13afe -->
<g id="edge19" class="edge">
<title>7ec351d6_652f_4691_8e72_ea432d44a0c8&#45;&gt;e2f7bc4c_ef2a_466e_b8a5_d24f48b13afe</title>
<path fill="none" stroke="black" d="M814.18,-121.72C819.3,-109.96 824.65,-97.66 829.55,-86.4"/>
<text text-anchor="middle" x="816.55" y="-89.4" font-family="Times,serif" font-size="10.00">owner</text>
<text text-anchor="middle" x="797.68" y="-113.72" font-family="Times,serif" font-size="10.00">account</text>
</g>
</g>
</svg>
