<?xml version="1.0" encoding="UTF-8" standalone="no"?>
<!DOCTYPE svg PUBLIC "-//W3C//DTD SVG 1.1//EN"
 "http://www.w3.org/Graphics/SVG/1.1/DTD/svg11.dtd">
<!-- Generated by graphviz version 2.44.0 (20200408.0750)
 -->
<!-- Title: model Pages: 1 -->
<svg width="1633px" height="788px"
 viewBox="0.00 0.00 1633.22 788.00" xmlns="http://www.w3.org/2000/svg" xmlns:xlink="http://www.w3.org/1999/xlink">
<g id="graph0" class="graph" transform="scale(1.0 1.0) rotate(0) translate(4 784)">
<title>model</title>
<polygon fill="white" stroke="transparent" points="-4,4 -4,-784 1629.22,-784 1629.22,4 -4,4"/>
<!-- b -->
<g id="node1" class="node">
<title>b</title>
<polygon fill="none" stroke="black" points="363.7,-630 363.7,-648 1168.7,-648 1168.7,-630 363.7,-630"/>
<text text-anchor="start" x="750.51" y="-637" font-family="Times,serif" text-decoration="underline" font-size="10.00">b :Bank</text>
<polygon fill="none" stroke="black" points="363.7,-600 363.7,-630 1168.7,-630 1168.7,-600 363.7,-600"/>
<text text-anchor="start" x="366.7" y="-618" font-family="Times,serif" font-size="10.00">accountsMap = 8fea9ce1&#45;8a83&#45;4ec9&#45;9f91&#45;2a1a773da52bsendItToTheBank8a633aa5&#45;907c&#45;4e57&#45;a313&#45;22e0adb2672e7ec351d6&#45;652f&#45;4691&#45;8e72&#45;ea432d44a0c87dda5ebf&#45;ca58&#45;4eec&#45;8351&#45;3fb4e83f2c50</text>
<text text-anchor="start" x="366.7" y="-606" font-family="Times,serif" font-size="10.00">customerMap = d9c4d547&#45;81e1&#45;4f0f&#45;9318&#45;70b83ba7629ee2f7bc4c&#45;ef2a&#45;466e&#45;b8a5&#45;d24f48b13afe514e6e70&#45;1ee8&#45;46fd&#45;bfd9&#45;a650ea353f371eaf6f4c&#45;4f92&#45;4e04&#45;bd87&#45;c82be03265de</text>
</g>
<!-- sendItToTheBank -->
<g id="node2" class="node">
<title>sendItToTheBank</title>
<polygon fill="none" stroke="black" points="53.7,-240 53.7,-258 197.7,-258 197.7,-240 53.7,-240"/>
<text text-anchor="start" x="70.03" y="-247" font-family="Times,serif" text-decoration="underline" font-size="10.00">sendItToTheBank :Account</text>
<polygon fill="none" stroke="black" points="53.7,-138 53.7,-240 197.7,-240 197.7,-138 53.7,-138"/>
<text text-anchor="start" x="56.7" y="-228" font-family="Times,serif" font-size="10.00">balance = 69420.0</text>
<text text-anchor="start" x="56.7" y="-216" font-family="Times,serif" font-size="10.00">count = 0</text>
<text text-anchor="start" x="56.7" y="-204" font-family="Times,serif" font-size="10.00">customerId = null</text>
<text text-anchor="start" x="56.7" y="-192" font-family="Times,serif" font-size="10.00">iban = &quot;EE575594973267429182&quot;</text>
<text text-anchor="start" x="56.7" y="-180" font-family="Times,serif" font-size="10.00">id = &quot;sendItToTheBank&quot;</text>
<text text-anchor="start" x="56.7" y="-168" font-family="Times,serif" font-size="10.00">receivedTransaction = </text>
<text text-anchor="start" x="56.7" y="-156" font-family="Times,serif" font-size="10.00">sentTransaction = </text>
<text text-anchor="start" x="56.7" y="-144" font-family="Times,serif" font-size="10.00">status = &quot;ACTIVE&quot;</text>
</g>
<!-- b&#45;&gt;sendItToTheBank -->
<g id="edge1" class="edge">
<title>b&#45;&gt;sendItToTheBank</title>
<path fill="none" stroke="black" d="M354.96,-601.6C249.41,-592.03 160.32,-578.59 142.7,-560 67.72,-480.87 86.69,-342.86 106.62,-262.34"/>
<text text-anchor="middle" x="79.96" y="-265.34" font-family="Times,serif" font-size="10.00">bankAccount</text>
<text text-anchor="middle" x="345.24" y="-604.6" font-family="Times,serif" font-size="10.00">bank</text>
</g>
<!-- 8a633aa5_907c_4e57_a313_22e0adb2672e -->
<g id="node3" class="node">
<title>8a633aa5_907c_4e57_a313_22e0adb2672e</title>
<polygon fill="none" stroke="black" points="648.7,-538 648.7,-556 882.7,-556 882.7,-538 648.7,-538"/>
<text text-anchor="start" x="661.99" y="-545" font-family="Times,serif" text-decoration="underline" font-size="10.00">8a633aa5&#45;907c&#45;4e57&#45;a313&#45;22e0adb2672e :Account</text>
<polygon fill="none" stroke="black" points="648.7,-436 648.7,-538 882.7,-538 882.7,-436 648.7,-436"/>
<text text-anchor="start" x="651.7" y="-526" font-family="Times,serif" font-size="10.00">balance = 0.0</text>
<text text-anchor="start" x="651.7" y="-514" font-family="Times,serif" font-size="10.00">count = 0</text>
<text text-anchor="start" x="651.7" y="-502" font-family="Times,serif" font-size="10.00">customerId = &quot;1eaf6f4c&#45;4f92&#45;4e04&#45;bd87&#45;c82be03265de&quot;</text>
<text text-anchor="start" x="651.7" y="-490" font-family="Times,serif" font-size="10.00">iban = &quot;EE500467859057350272&quot;</text>
<text text-anchor="start" x="651.7" y="-478" font-family="Times,serif" font-size="10.00">id = &quot;8a633aa5&#45;907c&#45;4e57&#45;a313&#45;22e0adb2672e&quot;</text>
<text text-anchor="start" x="651.7" y="-466" font-family="Times,serif" font-size="10.00">receivedTransaction = </text>
<text text-anchor="start" x="651.7" y="-454" font-family="Times,serif" font-size="10.00">sentTransaction = </text>
<text text-anchor="start" x="651.7" y="-442" font-family="Times,serif" font-size="10.00">status = &quot;ACTIVE&quot;</text>
</g>
<!-- b&#45;&gt;8a633aa5_907c_4e57_a313_22e0adb2672e -->
<g id="edge2" class="edge">
<title>b&#45;&gt;8a633aa5_907c_4e57_a313_22e0adb2672e</title>
<path fill="none" stroke="black" d="M765.7,-595.97C765.7,-585.41 765.7,-572.83 765.7,-560.23"/>
<text text-anchor="middle" x="748.21" y="-563.23" font-family="Times,serif" font-size="10.00">accounts</text>
<text text-anchor="middle" x="755.98" y="-586.97" font-family="Times,serif" font-size="10.00">bank</text>
</g>
<!-- 7ec351d6_652f_4691_8e72_ea432d44a0c8 -->
<g id="node4" class="node">
<title>7ec351d6_652f_4691_8e72_ea432d44a0c8</title>
<polygon fill="none" stroke="black" points="307.7,-538 307.7,-556 538.7,-556 538.7,-538 307.7,-538"/>
<text text-anchor="start" x="319.77" y="-545" font-family="Times,serif" text-decoration="underline" font-size="10.00">7ec351d6&#45;652f&#45;4691&#45;8e72&#45;ea432d44a0c8 :Account</text>
<polygon fill="none" stroke="black" points="307.7,-436 307.7,-538 538.7,-538 538.7,-436 307.7,-436"/>
<text text-anchor="start" x="310.7" y="-526" font-family="Times,serif" font-size="10.00">balance = 100.0</text>
<text text-anchor="start" x="310.7" y="-514" font-family="Times,serif" font-size="10.00">count = 0</text>
<text text-anchor="start" x="310.7" y="-502" font-family="Times,serif" font-size="10.00">customerId = &quot;e2f7bc4c&#45;ef2a&#45;466e&#45;b8a5&#45;d24f48b13afe&quot;</text>
<text text-anchor="start" x="310.7" y="-490" font-family="Times,serif" font-size="10.00">iban = &quot;EE508166157234538669&quot;</text>
<text text-anchor="start" x="310.7" y="-478" font-family="Times,serif" font-size="10.00">id = &quot;7ec351d6&#45;652f&#45;4691&#45;8e72&#45;ea432d44a0c8&quot;</text>
<text text-anchor="start" x="310.7" y="-466" font-family="Times,serif" font-size="10.00">receivedTransaction = </text>
<text text-anchor="start" x="310.7" y="-454" font-family="Times,serif" font-size="10.00">sentTransaction = </text>
<text text-anchor="start" x="310.7" y="-442" font-family="Times,serif" font-size="10.00">status = &quot;ACTIVE&quot;</text>
</g>
<!-- b&#45;&gt;7ec351d6_652f_4691_8e72_ea432d44a0c8 -->
<g id="edge3" class="edge">
<title>b&#45;&gt;7ec351d6_652f_4691_8e72_ea432d44a0c8</title>
<path fill="none" stroke="black" d="M668.62,-595.99C634.21,-585.67 595.42,-573.19 560.7,-560 556.03,-558.22 551.28,-556.36 546.51,-554.44"/>
<text text-anchor="middle" x="564" y="-557.44" font-family="Times,serif" font-size="10.00">accounts</text>
<text text-anchor="middle" x="658.9" y="-586.99" font-family="Times,serif" font-size="10.00">bank</text>
</g>
<!-- 7dda5ebf_ca58_4eec_8351_3fb4e83f2c50 -->
<g id="node5" class="node">
<title>7dda5ebf_ca58_4eec_8351_3fb4e83f2c50</title>
<polygon fill="none" stroke="black" points="1075.7,-246 1075.7,-264 1391.7,-264 1391.7,-246 1075.7,-246"/>
<text text-anchor="start" x="1132.5" y="-253" font-family="Times,serif" text-decoration="underline" font-size="10.00">7dda5ebf&#45;ca58&#45;4eec&#45;8351&#45;3fb4e83f2c50 :Account</text>
<polygon fill="none" stroke="black" points="1075.7,-132 1075.7,-246 1391.7,-246 1391.7,-132 1075.7,-132"/>
<text text-anchor="start" x="1078.7" y="-234" font-family="Times,serif" font-size="10.00">allTransactionsWithSignAndOrderedDesc = [model.Transaction@6144b343]</text>
<text text-anchor="start" x="1078.7" y="-222" font-family="Times,serif" font-size="10.00">balance = 200.0</text>
<text text-anchor="start" x="1078.7" y="-210" font-family="Times,serif" font-size="10.00">count = 1</text>
<text text-anchor="start" x="1078.7" y="-198" font-family="Times,serif" font-size="10.00">customerId = null</text>
<text text-anchor="start" x="1078.7" y="-186" font-family="Times,serif" font-size="10.00">iban = &quot;EE475772331822032030&quot;</text>
<text text-anchor="start" x="1078.7" y="-174" font-family="Times,serif" font-size="10.00">id = &quot;7dda5ebf&#45;ca58&#45;4eec&#45;8351&#45;3fb4e83f2c50&quot;</text>
<text text-anchor="start" x="1078.7" y="-162" font-family="Times,serif" font-size="10.00">receivedTransaction = </text>
<text text-anchor="start" x="1078.7" y="-150" font-family="Times,serif" font-size="10.00">sentTransaction = d7d3cc37&#45;b197&#45;4873&#45;b10f&#45;17f5a2b601cb</text>
<text text-anchor="start" x="1078.7" y="-138" font-family="Times,serif" font-size="10.00">status = &quot;ACTIVE&quot;</text>
</g>
<!-- b&#45;&gt;7dda5ebf_ca58_4eec_8351_3fb4e83f2c50 -->
<g id="edge4" class="edge">
<title>b&#45;&gt;7dda5ebf_ca58_4eec_8351_3fb4e83f2c50</title>
<path fill="none" stroke="black" d="M876.83,-595.94C896.4,-587.09 915.15,-575.41 929.7,-560 970.73,-516.58 929.66,-475.4 970.7,-432 1001.44,-399.5 1029.09,-423.07 1064.7,-396 1105.18,-365.23 1099.9,-342.85 1132.7,-304 1142.74,-292.11 1153.78,-279.88 1164.77,-268.15"/>
<text text-anchor="middle" x="1147.28" y="-271.15" font-family="Times,serif" font-size="10.00">accounts</text>
<text text-anchor="middle" x="867.11" y="-586.94" font-family="Times,serif" font-size="10.00">bank</text>
</g>
<!-- 8fea9ce1_8a83_4ec9_9f91_2a1a773da52b -->
<g id="node6" class="node">
<title>8fea9ce1_8a83_4ec9_9f91_2a1a773da52b</title>
<polygon fill="none" stroke="black" points="1297.7,-538 1297.7,-556 1562.7,-556 1562.7,-538 1297.7,-538"/>
<text text-anchor="start" x="1328.44" y="-545" font-family="Times,serif" text-decoration="underline" font-size="10.00">8fea9ce1&#45;8a83&#45;4ec9&#45;9f91&#45;2a1a773da52b :Account</text>
<polygon fill="none" stroke="black" points="1297.7,-436 1297.7,-538 1562.7,-538 1562.7,-436 1297.7,-436"/>
<text text-anchor="start" x="1300.7" y="-526" font-family="Times,serif" font-size="10.00">balance = 300.0</text>
<text text-anchor="start" x="1300.7" y="-514" font-family="Times,serif" font-size="10.00">count = 0</text>
<text text-anchor="start" x="1300.7" y="-502" font-family="Times,serif" font-size="10.00">customerId = null</text>
<text text-anchor="start" x="1300.7" y="-490" font-family="Times,serif" font-size="10.00">iban = &quot;EE418246734301454331&quot;</text>
<text text-anchor="start" x="1300.7" y="-478" font-family="Times,serif" font-size="10.00">id = &quot;8fea9ce1&#45;8a83&#45;4ec9&#45;9f91&#45;2a1a773da52b&quot;</text>
<text text-anchor="start" x="1300.7" y="-466" font-family="Times,serif" font-size="10.00">receivedTransaction = d7d3cc37&#45;b197&#45;4873&#45;b10f&#45;17f5a2b601cb</text>
<text text-anchor="start" x="1300.7" y="-454" font-family="Times,serif" font-size="10.00">sentTransaction = </text>
<text text-anchor="start" x="1300.7" y="-442" font-family="Times,serif" font-size="10.00">status = &quot;ACTIVE&quot;</text>
</g>
<!-- b&#45;&gt;8fea9ce1_8a83_4ec9_9f91_2a1a773da52b -->
<g id="edge5" class="edge">
<title>b&#45;&gt;8fea9ce1_8a83_4ec9_9f91_2a1a773da52b</title>
<path fill="none" stroke="black" d="M1097.32,-595.99C1158.54,-587.16 1221.49,-575.47 1279.7,-560 1282.84,-559.17 1286,-558.28 1289.17,-557.35"/>
<text text-anchor="middle" x="1271.68" y="-560.35" font-family="Times,serif" font-size="10.00">accounts</text>
<text text-anchor="middle" x="1087.6" y="-586.99" font-family="Times,serif" font-size="10.00">bank</text>
</g>
<!-- 3c3716e0_10f4_442e_bad8_4c7e93c1fbc7 -->
<g id="node7" class="node">
<title>3c3716e0_10f4_442e_bad8_4c7e93c1fbc7</title>
<polygon fill="none" stroke="black" points="1030.7,-520 1030.7,-538 1262.7,-538 1262.7,-520 1030.7,-520"/>
<text text-anchor="start" x="1033.27" y="-527" font-family="Times,serif" text-decoration="underline" font-size="10.00">3c3716e0&#45;10f4&#45;442e&#45;bad8&#45;4c7e93c1fbc7 :Administrator</text>
<polygon fill="none" stroke="black" points="1030.7,-454 1030.7,-520 1262.7,-520 1262.7,-454 1030.7,-454"/>
<text text-anchor="start" x="1050.67" y="-508" font-family="Times,serif" font-size="10.00">email = &quot;admin@bank.ee&quot;</text>
<text text-anchor="start" x="1050.67" y="-496" font-family="Times,serif" font-size="10.00">firstName = &quot;Admin&quot;</text>
<text text-anchor="start" x="1050.67" y="-484" font-family="Times,serif" font-size="10.00">id = &quot;3c3716e0&#45;10f4&#45;442e&#45;bad8&#45;4c7e93c1fbc7&quot;</text>
<text text-anchor="start" x="1050.67" y="-472" font-family="Times,serif" font-size="10.00">lastName = &quot;Alice&quot;</text>
<text text-anchor="start" x="1050.67" y="-460" font-family="Times,serif" font-size="10.00">password = &quot;secure_p@ssw0|2d&quot;</text>
</g>
<!-- b&#45;&gt;3c3716e0_10f4_442e_bad8_4c7e93c1fbc7 -->
<g id="edge6" class="edge">
<title>b&#45;&gt;3c3716e0_10f4_442e_bad8_4c7e93c1fbc7</title>
<path fill="none" stroke="black" d="M887.16,-595.94C926.39,-586.03 969.79,-573.81 1008.7,-560 1023.47,-554.76 1038.83,-548.55 1053.71,-542.11"/>
<text text-anchor="middle" x="1025.1" y="-545.11" font-family="Times,serif" font-size="10.00">administrators</text>
<text text-anchor="middle" x="896.88" y="-586.94" font-family="Times,serif" font-size="10.00">bank</text>
</g>
<!-- e2f7bc4c_ef2a_466e_b8a5_d24f48b13afe -->
<g id="node8" class="node">
<title>e2f7bc4c_ef2a_466e_b8a5_d24f48b13afe</title>
<polygon fill="none" stroke="black" points="270.7,-374 270.7,-392 481.7,-392 481.7,-374 270.7,-374"/>
<text text-anchor="start" x="273.33" y="-381" font-family="Times,serif" text-decoration="underline" font-size="10.00">e2f7bc4c&#45;ef2a&#45;466e&#45;b8a5&#45;d24f48b13afe :Customer</text>
<polygon fill="none" stroke="black" points="270.7,-308 270.7,-374 481.7,-374 481.7,-308 270.7,-308"/>
<text text-anchor="start" x="282.12" y="-362" font-family="Times,serif" font-size="10.00">email = &quot;john@doe.ee&quot;</text>
<text text-anchor="start" x="282.12" y="-350" font-family="Times,serif" font-size="10.00">firstName = &quot;John&quot;</text>
<text text-anchor="start" x="282.12" y="-338" font-family="Times,serif" font-size="10.00">id = &quot;e2f7bc4c&#45;ef2a&#45;466e&#45;b8a5&#45;d24f48b13afe&quot;</text>
<text text-anchor="start" x="282.12" y="-326" font-family="Times,serif" font-size="10.00">lastName = &quot;Doe&quot;</text>
<text text-anchor="start" x="282.12" y="-314" font-family="Times,serif" font-size="10.00">password = &quot;pass1234&quot;</text>
</g>
<!-- b&#45;&gt;e2f7bc4c_ef2a_466e_b8a5_d24f48b13afe -->
<g id="edge7" class="edge">
<title>b&#45;&gt;e2f7bc4c_ef2a_466e_b8a5_d24f48b13afe</title>
<path fill="none" stroke="black" d="M655.85,-595.91C635.94,-587.05 616.74,-575.37 601.7,-560 559.43,-516.79 596.75,-476.38 555.7,-432 545,-420.43 518.74,-406.71 489.49,-393.89"/>
<text text-anchor="middle" x="509.76" y="-396.89" font-family="Times,serif" font-size="10.00">customers</text>
<text text-anchor="middle" x="646.13" y="-586.91" font-family="Times,serif" font-size="10.00">bank</text>
</g>
<!-- 1eaf6f4c_4f92_4e04_bd87_c82be03265de -->
<g id="node9" class="node">
<title>1eaf6f4c_4f92_4e04_bd87_c82be03265de</title>
<polygon fill="none" stroke="black" points="515.7,-374 515.7,-392 729.7,-392 729.7,-374 515.7,-374"/>
<text text-anchor="start" x="518.43" y="-381" font-family="Times,serif" text-decoration="underline" font-size="10.00">1eaf6f4c&#45;4f92&#45;4e04&#45;bd87&#45;c82be03265de :Customer</text>
<polygon fill="none" stroke="black" points="515.7,-308 515.7,-374 729.7,-374 729.7,-308 515.7,-308"/>
<text text-anchor="start" x="527.23" y="-362" font-family="Times,serif" font-size="10.00">email = &quot;bobby@tt.ee&quot;</text>
<text text-anchor="start" x="527.23" y="-350" font-family="Times,serif" font-size="10.00">firstName = &quot;Bob&quot;</text>
<text text-anchor="start" x="527.23" y="-338" font-family="Times,serif" font-size="10.00">id = &quot;1eaf6f4c&#45;4f92&#45;4e04&#45;bd87&#45;c82be03265de&quot;</text>
<text text-anchor="start" x="527.23" y="-326" font-family="Times,serif" font-size="10.00">lastName = &quot;Jackson&quot;</text>
<text text-anchor="start" x="527.23" y="-314" font-family="Times,serif" font-size="10.00">password = &quot;secret&quot;</text>
</g>
<!-- b&#45;&gt;1eaf6f4c_4f92_4e04_bd87_c82be03265de -->
<g id="edge8" class="edge">
<title>b&#45;&gt;1eaf6f4c_4f92_4e04_bd87_c82be03265de</title>
<path fill="none" stroke="black" d="M673.09,-595.84C656.83,-586.97 641.89,-575.3 631.7,-560 599.41,-511.47 604.07,-441.64 612.04,-396.3"/>
<text text-anchor="middle" x="591.77" y="-399.3" font-family="Times,serif" font-size="10.00">customers</text>
<text text-anchor="middle" x="682.81" y="-586.84" font-family="Times,serif" font-size="10.00">bank</text>
</g>
<!-- d9c4d547_81e1_4f0f_9318_70b83ba7629e -->
<g id="node10" class="node">
<title>d9c4d547_81e1_4f0f_9318_70b83ba7629e</title>
<polygon fill="none" stroke="black" points="1307.7,-70 1307.7,-88 1524.7,-88 1524.7,-70 1307.7,-70"/>
<text text-anchor="start" x="1310.26" y="-77" font-family="Times,serif" text-decoration="underline" font-size="10.00">d9c4d547&#45;81e1&#45;4f0f&#45;9318&#45;70b83ba7629e :Customer</text>
<polygon fill="none" stroke="black" points="1307.7,-4 1307.7,-70 1524.7,-70 1524.7,-4 1307.7,-4"/>
<text text-anchor="start" x="1319.05" y="-58" font-family="Times,serif" font-size="10.00">email = &quot;johntest@doe.ee&quot;</text>
<text text-anchor="start" x="1319.05" y="-46" font-family="Times,serif" font-size="10.00">firstName = &quot;johntest&quot;</text>
<text text-anchor="start" x="1319.05" y="-34" font-family="Times,serif" font-size="10.00">id = &quot;d9c4d547&#45;81e1&#45;4f0f&#45;9318&#45;70b83ba7629e&quot;</text>
<text text-anchor="start" x="1319.05" y="-22" font-family="Times,serif" font-size="10.00">lastName = &quot;Doe&quot;</text>
<text text-anchor="start" x="1319.05" y="-10" font-family="Times,serif" font-size="10.00">password = &quot;pass1234&quot;</text>
</g>
<!-- b&#45;&gt;d9c4d547_81e1_4f0f_9318_70b83ba7629e -->
<g id="edge9" class="edge">
<title>b&#45;&gt;d9c4d547_81e1_4f0f_9318_70b83ba7629e</title>
<path fill="none" stroke="black" d="M1176.3,-615.4C1363.52,-607.57 1550.29,-591.78 1579.7,-560 1705.94,-423.62 1537.31,-189.79 1455.58,-92.03"/>
<text text-anchor="middle" x="1435.31" y="-95.03" font-family="Times,serif" font-size="10.00">customers</text>
<text text-anchor="middle" x="1186.02" y="-618.4" font-family="Times,serif" font-size="10.00">bank</text>
</g>
<!-- 514e6e70_1ee8_46fd_bfd9_a650ea353f37 -->
<g id="node11" class="node">
<title>514e6e70_1ee8_46fd_bfd9_a650ea353f37</title>
<polygon fill="none" stroke="black" points="1149.7,-374 1149.7,-392 1363.7,-392 1363.7,-374 1149.7,-374"/>
<text text-anchor="start" x="1152.43" y="-381" font-family="Times,serif" text-decoration="underline" font-size="10.00">514e6e70&#45;1ee8&#45;46fd&#45;bfd9&#45;a650ea353f37 :Customer</text>
<polygon fill="none" stroke="black" points="1149.7,-308 1149.7,-374 1363.7,-374 1363.7,-308 1149.7,-308"/>
<text text-anchor="start" x="1161.23" y="-362" font-family="Times,serif" font-size="10.00">email = &quot;bobbytest@tt.ee&quot;</text>
<text text-anchor="start" x="1161.23" y="-350" font-family="Times,serif" font-size="10.00">firstName = &quot;Bob&quot;</text>
<text text-anchor="start" x="1161.23" y="-338" font-family="Times,serif" font-size="10.00">id = &quot;514e6e70&#45;1ee8&#45;46fd&#45;bfd9&#45;a650ea353f37&quot;</text>
<text text-anchor="start" x="1161.23" y="-326" font-family="Times,serif" font-size="10.00">lastName = &quot;Jackson&quot;</text>
<text text-anchor="start" x="1161.23" y="-314" font-family="Times,serif" font-size="10.00">password = &quot;secret&quot;</text>
</g>
<!-- b&#45;&gt;514e6e70_1ee8_46fd_bfd9_a650ea353f37 -->
<g id="edge10" class="edge">
<title>b&#45;&gt;514e6e70_1ee8_46fd_bfd9_a650ea353f37</title>
<path fill="none" stroke="black" d="M914.58,-595.95C935.27,-587.14 954.84,-575.46 970.7,-560 1013.69,-518.12 971.22,-474.39 1013.7,-432 1023.7,-422.03 1083.58,-402.02 1141.39,-384.38"/>
<text text-anchor="middle" x="1121.12" y="-387.38" font-family="Times,serif" font-size="10.00">customers</text>
<text text-anchor="middle" x="924.3" y="-586.95" font-family="Times,serif" font-size="10.00">bank</text>
</g>
<!-- t -->
<g id="node12" class="node">
<title>t</title>
<polygon fill="none" stroke="black" points="160.7,-490 160.7,-508 196.7,-508 196.7,-490 160.7,-490"/>
<text text-anchor="start" x="163.3" y="-497" font-family="Times,serif" text-decoration="underline" font-size="10.00">t :Trace</text>
<polygon fill="none" stroke="black" points="160.7,-484 160.7,-490 196.7,-490 196.7,-484 160.7,-484"/>
</g>
<!-- b&#45;&gt;t -->
<g id="edge11" class="edge">
<title>b&#45;&gt;t</title>
<path fill="none" stroke="black" d="M355.15,-599.71C294.36,-590.53 242.99,-577.76 215.7,-560 199.44,-549.41 189.4,-528.98 183.95,-514.25"/>
<text text-anchor="middle" x="172.3" y="-517.25" font-family="Times,serif" font-size="10.00">traces</text>
</g>
<!-- t1 -->
<g id="node13" class="node">
<title>t1</title>
<polygon fill="none" stroke="black" points="232.7,-490 232.7,-508 273.7,-508 273.7,-490 232.7,-490"/>
<text text-anchor="start" x="235.3" y="-497" font-family="Times,serif" text-decoration="underline" font-size="10.00">t1 :Trace</text>
<polygon fill="none" stroke="black" points="232.7,-484 232.7,-490 273.7,-490 273.7,-484 232.7,-484"/>
</g>
<!-- b&#45;&gt;t1 -->
<g id="edge12" class="edge">
<title>b&#45;&gt;t1</title>
<path fill="none" stroke="black" d="M411.14,-595.95C358.64,-587.12 314.28,-575.44 290.7,-560 274.36,-549.29 263.98,-528.88 258.27,-514.19"/>
<text text-anchor="middle" x="246.61" y="-517.19" font-family="Times,serif" font-size="10.00">traces</text>
</g>
<!-- d7d3cc37_b197_4873_b10f_17f5a2b601cb -->
<g id="node14" class="node">
<title>d7d3cc37_b197_4873_b10f_17f5a2b601cb</title>
<polygon fill="none" stroke="black" points="802.7,-374 802.7,-392 1047.7,-392 1047.7,-374 802.7,-374"/>
<text text-anchor="start" x="815.1" y="-381" font-family="Times,serif" text-decoration="underline" font-size="10.00">d7d3cc37&#45;b197&#45;4873&#45;b10f&#45;17f5a2b601cb :Transaction</text>
<polygon fill="none" stroke="black" points="802.7,-308 802.7,-374 1047.7,-374 1047.7,-308 802.7,-308"/>
<text text-anchor="start" x="805.7" y="-362" font-family="Times,serif" font-size="10.00">amount = 50.0</text>
<text text-anchor="start" x="805.7" y="-350" font-family="Times,serif" font-size="10.00">description = &quot;Ref: concert ticket&quot;</text>
<text text-anchor="start" x="805.7" y="-338" font-family="Times,serif" font-size="10.00">id = &quot;d7d3cc37&#45;b197&#45;4873&#45;b10f&#45;17f5a2b601cb&quot;</text>
<text text-anchor="start" x="805.7" y="-326" font-family="Times,serif" font-size="10.00">rejectionDescription = &quot;Made a mistake in the sent amount&quot;</text>
<text text-anchor="start" x="805.7" y="-314" font-family="Times,serif" font-size="10.00">timestamp = 2021&#45;12&#45;10T00:12:54.828311500</text>
</g>
<!-- b&#45;&gt;d7d3cc37_b197_4873_b10f_17f5a2b601cb -->
<g id="edge13" class="edge">
<title>b&#45;&gt;d7d3cc37_b197_4873_b10f_17f5a2b601cb</title>
<path fill="none" stroke="black" d="M856.05,-595.96C872.89,-587.04 888.65,-575.32 899.7,-560 934.14,-512.29 935.15,-441.93 931.16,-396.27"/>
<text text-anchor="middle" x="907.27" y="-399.27" font-family="Times,serif" font-size="10.00">transactions</text>
<text text-anchor="middle" x="846.33" y="-586.96" font-family="Times,serif" font-size="10.00">bank</text>
</g>
<!-- c -->
<g id="node15" class="node">
<title>c</title>
<polygon fill="none" stroke="black" points="684.7,-46 684.7,-64 846.7,-64 846.7,-46 684.7,-46"/>
<text text-anchor="start" x="742.24" y="-53" font-family="Times,serif" text-decoration="underline" font-size="10.00">c :Currency</text>
<polygon fill="none" stroke="black" points="684.7,-28 684.7,-46 846.7,-46 846.7,-28 684.7,-28"/>
<text text-anchor="start" x="687.7" y="-34" font-family="Times,serif" font-size="10.00">declaringClass = class model.Currency</text>
</g>
<!-- sendItToTheBank&#45;&gt;c -->
<g id="edge14" class="edge">
<title>sendItToTheBank&#45;&gt;c</title>
<path fill="none" stroke="black" d="M205.76,-134.55C210.36,-132.13 215.02,-129.93 219.7,-128 371.92,-65.39 565.65,-50.33 676.68,-47.2"/>
<text text-anchor="middle" x="659.19" y="-38.2" font-family="Times,serif" font-size="10.00">currency</text>
</g>
<!-- 8a633aa5_907c_4e57_a313_22e0adb2672e&#45;&gt;1eaf6f4c_4f92_4e04_bd87_c82be03265de -->
<g id="edge16" class="edge">
<title>8a633aa5_907c_4e57_a313_22e0adb2672e&#45;&gt;1eaf6f4c_4f92_4e04_bd87_c82be03265de</title>
<path fill="none" stroke="black" d="M702.98,-431.84C691.12,-419.9 678.94,-407.63 667.76,-396.37"/>
<text text-anchor="middle" x="655.27" y="-399.37" font-family="Times,serif" font-size="10.00">owner</text>
<text text-anchor="middle" x="687.43" y="-422.84" font-family="Times,serif" font-size="10.00">account</text>
</g>
<!-- 8a633aa5_907c_4e57_a313_22e0adb2672e&#45;&gt;c -->
<g id="edge15" class="edge">
<title>8a633aa5_907c_4e57_a313_22e0adb2672e&#45;&gt;c</title>
<path fill="none" stroke="black" d="M765.7,-431.76C765.7,-329.5 765.7,-132.74 765.7,-68.13"/>
<text text-anchor="middle" x="748.22" y="-71.13" font-family="Times,serif" font-size="10.00">currency</text>
</g>
<!-- 7ec351d6_652f_4691_8e72_ea432d44a0c8&#45;&gt;e2f7bc4c_ef2a_466e_b8a5_d24f48b13afe -->
<g id="edge18" class="edge">
<title>7ec351d6_652f_4691_8e72_ea432d44a0c8&#45;&gt;e2f7bc4c_ef2a_466e_b8a5_d24f48b13afe</title>
<path fill="none" stroke="black" d="M402.09,-431.84C398.19,-419.9 394.19,-407.63 390.51,-396.37"/>
<text text-anchor="middle" x="378.02" y="-399.37" font-family="Times,serif" font-size="10.00">owner</text>
<text text-anchor="middle" x="386.54" y="-422.84" font-family="Times,serif" font-size="10.00">account</text>
</g>
<!-- 7ec351d6_652f_4691_8e72_ea432d44a0c8&#45;&gt;c -->
<g id="edge17" class="edge">
<title>7ec351d6_652f_4691_8e72_ea432d44a0c8&#45;&gt;c</title>
<path fill="none" stroke="black" d="M299.07,-433.62C277.63,-420.49 260.13,-407.21 253.7,-396 233.37,-360.52 232.23,-338.8 253.7,-304 346.33,-153.86 556.4,-88.4 676.69,-62.35"/>
<text text-anchor="middle" x="659.21" y="-65.35" font-family="Times,serif" font-size="10.00">currency</text>
</g>
<!-- 7dda5ebf_ca58_4eec_8351_3fb4e83f2c50&#45;&gt;d9c4d547_81e1_4f0f_9318_70b83ba7629e -->
<g id="edge20" class="edge">
<title>7dda5ebf_ca58_4eec_8351_3fb4e83f2c50&#45;&gt;d9c4d547_81e1_4f0f_9318_70b83ba7629e</title>
<path fill="none" stroke="black" d="M1317.51,-127.93C1332.25,-115.78 1347.25,-103.42 1360.93,-92.14"/>
<text text-anchor="middle" x="1348.44" y="-95.14" font-family="Times,serif" font-size="10.00">owner</text>
<text text-anchor="middle" x="1301.96" y="-118.93" font-family="Times,serif" font-size="10.00">account</text>
</g>
<!-- 7dda5ebf_ca58_4eec_8351_3fb4e83f2c50&#45;&gt;c -->
<g id="edge19" class="edge">
<title>7dda5ebf_ca58_4eec_8351_3fb4e83f2c50&#45;&gt;c</title>
<path fill="none" stroke="black" d="M1067.67,-132.72C1062.97,-131.1 1058.31,-129.53 1053.7,-128 985.17,-105.28 906.16,-83.35 848.24,-68.06"/>
<text text-anchor="middle" x="830.76" y="-71.06" font-family="Times,serif" font-size="10.00">currency</text>
</g>
<!-- 8fea9ce1_8a83_4ec9_9f91_2a1a773da52b&#45;&gt;514e6e70_1ee8_46fd_bfd9_a650ea353f37 -->
<g id="edge23" class="edge">
<title>8fea9ce1_8a83_4ec9_9f91_2a1a773da52b&#45;&gt;514e6e70_1ee8_46fd_bfd9_a650ea353f37</title>
<path fill="none" stroke="black" d="M1353.82,-431.84C1339.39,-419.82 1324.55,-407.48 1310.96,-396.16"/>
<text text-anchor="middle" x="1298.46" y="-399.16" font-family="Times,serif" font-size="10.00">owner</text>
<text text-anchor="middle" x="1338.27" y="-422.84" font-family="Times,serif" font-size="10.00">account</text>
</g>
<!-- 8fea9ce1_8a83_4ec9_9f91_2a1a773da52b&#45;&gt;d7d3cc37_b197_4873_b10f_17f5a2b601cb -->
<g id="edge21" class="edge">
<title>8fea9ce1_8a83_4ec9_9f91_2a1a773da52b&#45;&gt;d7d3cc37_b197_4873_b10f_17f5a2b601cb</title>
<path fill="none" stroke="black" d="M1289.05,-435.09C1285.91,-434.03 1282.8,-432.99 1279.7,-432 1257.92,-425 1147.28,-400.02 1055.22,-379.63"/>
<text text-anchor="middle" x="1139.91" y="-370.63" font-family="Times,serif" font-size="10.00">allTransactionsWithSignAndOrderedDesc</text>
<text text-anchor="middle" x="1267.11" y="-438.09" font-family="Times,serif" font-size="10.00">destination</text>
</g>
<!-- 8fea9ce1_8a83_4ec9_9f91_2a1a773da52b&#45;&gt;c -->
<g id="edge22" class="edge">
<title>8fea9ce1_8a83_4ec9_9f91_2a1a773da52b&#45;&gt;c</title>
<path fill="none" stroke="black" d="M1447.79,-431.84C1466.86,-350.34 1484.72,-209.38 1408.7,-128 1371.53,-88.2 1022.75,-62.27 855,-51.99"/>
<text text-anchor="middle" x="872.49" y="-54.99" font-family="Times,serif" font-size="10.00">currency</text>
</g>
<!-- d7d3cc37_b197_4873_b10f_17f5a2b601cb&#45;&gt;7dda5ebf_ca58_4eec_8351_3fb4e83f2c50 -->
<g id="edge25" class="edge">
<title>d7d3cc37_b197_4873_b10f_17f5a2b601cb&#45;&gt;7dda5ebf_ca58_4eec_8351_3fb4e83f2c50</title>
<path fill="none" stroke="black" d="M1017.41,-304C1040.7,-292.69 1066.23,-280.3 1091.33,-268.11"/>
<text text-anchor="middle" x="1078.28" y="-271.11" font-family="Times,serif" font-size="10.00">source</text>
</g>
<!-- d7d3cc37_b197_4873_b10f_17f5a2b601cb&#45;&gt;c -->
<g id="edge24" class="edge">
<title>d7d3cc37_b197_4873_b10f_17f5a2b601cb&#45;&gt;c</title>
<path fill="none" stroke="black" d="M993.87,-303.87C1004.75,-293.47 1014.45,-281.45 1020.7,-268 1046.92,-211.57 1057.44,-178.22 1020.7,-128 982.99,-76.45 912.23,-56.91 854.79,-49.86"/>
<text text-anchor="middle" x="872.28" y="-40.86" font-family="Times,serif" font-size="10.00">currency</text>
</g>
<!-- s -->
<g id="node17" class="node">
<title>s</title>
<polygon fill="none" stroke="black" points="802.7,-198 802.7,-216 1003.7,-216 1003.7,-198 802.7,-198"/>
<text text-anchor="start" x="886.4" y="-205" font-family="Times,serif" text-decoration="underline" font-size="10.00">s :Status</text>
<polygon fill="none" stroke="black" points="802.7,-180 802.7,-198 1003.7,-198 1003.7,-180 802.7,-180"/>
<text text-anchor="start" x="805.7" y="-186" font-family="Times,serif" font-size="10.00">declaringClass = class model.Transaction$Status</text>
</g>
<!-- d7d3cc37_b197_4873_b10f_17f5a2b601cb&#45;&gt;s -->
<g id="edge26" class="edge">
<title>d7d3cc37_b197_4873_b10f_17f5a2b601cb&#45;&gt;s</title>
<path fill="none" stroke="black" d="M918.1,-304C914.03,-276.21 908.99,-241.84 905.81,-220.17"/>
<text text-anchor="middle" x="894.42" y="-223.17" font-family="Times,serif" font-size="10.00">status</text>
</g>
<!-- d7d3cc37_b197_4873_b10f_17f5a2b601cb2 -->
<g id="node16" class="node">
<title>d7d3cc37_b197_4873_b10f_17f5a2b601cb2</title>
<polygon fill="none" stroke="black" points="643.7,-758 643.7,-776 888.7,-776 888.7,-758 643.7,-758"/>
<text text-anchor="start" x="656.1" y="-765" font-family="Times,serif" text-decoration="underline" font-size="10.00">d7d3cc37&#45;b197&#45;4873&#45;b10f&#45;17f5a2b601cb :Transaction</text>
<polygon fill="none" stroke="black" points="643.7,-692 643.7,-758 888.7,-758 888.7,-692 643.7,-692"/>
<text text-anchor="start" x="646.7" y="-746" font-family="Times,serif" font-size="10.00">amount = &#45;50.0</text>
<text text-anchor="start" x="646.7" y="-734" font-family="Times,serif" font-size="10.00">description = &quot;Ref: concert ticket&quot;</text>
<text text-anchor="start" x="646.7" y="-722" font-family="Times,serif" font-size="10.00">id = &quot;d7d3cc37&#45;b197&#45;4873&#45;b10f&#45;17f5a2b601cb&quot;</text>
<text text-anchor="start" x="646.7" y="-710" font-family="Times,serif" font-size="10.00">rejectionDescription = &quot;Made a mistake in the sent amount&quot;</text>
<text text-anchor="start" x="646.7" y="-698" font-family="Times,serif" font-size="10.00">timestamp = 2021&#45;12&#45;10T00:12:54.828311500</text>
</g>
<!-- d7d3cc37_b197_4873_b10f_17f5a2b601cb2&#45;&gt;b -->
<g id="edge27" class="edge">
<title>d7d3cc37_b197_4873_b10f_17f5a2b601cb2&#45;&gt;b</title>
<path fill="none" stroke="black" d="M765.7,-687.82C765.7,-675.69 765.7,-662.94 765.7,-652.12"/>
<text text-anchor="middle" x="755.98" y="-655.12" font-family="Times,serif" font-size="10.00">bank</text>
</g>
<!-- d7d3cc37_b197_4873_b10f_17f5a2b601cb2&#45;&gt;7dda5ebf_ca58_4eec_8351_3fb4e83f2c50 -->
<g id="edge30" class="edge">
<title>d7d3cc37_b197_4873_b10f_17f5a2b601cb2&#45;&gt;7dda5ebf_ca58_4eec_8351_3fb4e83f2c50</title>
<path fill="none" stroke="black" d="M896.38,-725.32C1105.08,-709.94 1498.48,-667.14 1579.7,-560 1662.96,-450.18 1509.91,-337.74 1381.61,-268.16"/>
<text text-anchor="middle" x="1368.56" y="-271.16" font-family="Times,serif" font-size="10.00">source</text>
</g>
<!-- d7d3cc37_b197_4873_b10f_17f5a2b601cb2&#45;&gt;8fea9ce1_8a83_4ec9_9f91_2a1a773da52b -->
<g id="edge29" class="edge">
<title>d7d3cc37_b197_4873_b10f_17f5a2b601cb2&#45;&gt;8fea9ce1_8a83_4ec9_9f91_2a1a773da52b</title>
<path fill="none" stroke="black" d="M896.52,-720.57C981.25,-709.44 1092.71,-688.95 1185.7,-652 1243.3,-629.11 1302.11,-592.23 1347.56,-560.19"/>
<text text-anchor="middle" x="1325.62" y="-563.19" font-family="Times,serif" font-size="10.00">destination</text>
</g>
<!-- d7d3cc37_b197_4873_b10f_17f5a2b601cb2&#45;&gt;c -->
<g id="edge28" class="edge">
<title>d7d3cc37_b197_4873_b10f_17f5a2b601cb2&#45;&gt;c</title>
<path fill="none" stroke="black" d="M635.08,-724.33C487.51,-712.91 257.72,-689.72 179.7,-652 89.99,-608.63 17.7,-596.65 17.7,-497 17.7,-497 17.7,-497 17.7,-349 17.7,-250.42 -32.13,-198.57 36.7,-128 80.66,-82.93 491.7,-59.16 676.48,-50.67"/>
<text text-anchor="middle" x="658.99" y="-53.67" font-family="Times,serif" font-size="10.00">currency</text>
</g>
<!-- d7d3cc37_b197_4873_b10f_17f5a2b601cb2&#45;&gt;s -->
<g id="edge31" class="edge">
<title>d7d3cc37_b197_4873_b10f_17f5a2b601cb2&#45;&gt;s</title>
<path fill="none" stroke="black" d="M635.14,-716.93C468.72,-693.27 196.11,-642.68 142.7,-560 111.83,-512.21 122.81,-485.3 142.7,-432 169.03,-361.45 187.93,-340.65 253.7,-304 344.43,-253.44 634.18,-221.7 794.11,-207.57"/>
<text text-anchor="middle" x="782.72" y="-210.57" font-family="Times,serif" font-size="10.00">status</text>
</g>
</g>
</svg>
