<?xml version="1.0" encoding="UTF-8" standalone="no"?>
<!DOCTYPE svg PUBLIC "-//W3C//DTD SVG 1.1//EN"
 "http://www.w3.org/Graphics/SVG/1.1/DTD/svg11.dtd">
<!-- Generated by graphviz version 2.43.0 (0)
 -->
<!-- Title: model Pages: 1 -->
<svg width="1939px" height="449px"
 viewBox="0.00 0.00 1939.00 449.00" xmlns="http://www.w3.org/2000/svg" xmlns:xlink="http://www.w3.org/1999/xlink">
<g id="graph0" class="graph" transform="scale(1.0 1.0) rotate(0) translate(4 445)">
<title>model</title>
<polygon fill="white" stroke="transparent" points="-4,4 -4,-445 1935,-445 1935,4 -4,4"/>
<!-- ff6a4670_adaf_4a4a_86d4_7fb739659a02 -->
<g id="node1" class="node">
<title>ff6a4670_adaf_4a4a_86d4_7fb739659a02</title>
<polygon fill="none" stroke="black" points="869,-420 869,-437 1095,-437 1095,-420 869,-420"/>
<text text-anchor="start" x="872" y="-427" font-family="Times,serif" text-decoration="underline" font-size="10.00">ff6a4670&#45;adaf&#45;4a4a&#45;86d4&#45;7fb739659a02 :Transaction</text>
<polygon fill="none" stroke="black" points="869,-359 869,-420 1095,-420 1095,-359 869,-359"/>
<text text-anchor="start" x="885" y="-409" font-family="Times,serif" font-size="10.00">amount = 25.5</text>
<text text-anchor="start" x="885" y="-398" font-family="Times,serif" font-size="10.00">description = &quot;Ref: concert ticket&quot;</text>
<text text-anchor="start" x="885" y="-387" font-family="Times,serif" font-size="10.00">id = &quot;ff6a4670&#45;adaf&#45;4a4a&#45;86d4&#45;7fb739659a02&quot;</text>
<text text-anchor="start" x="885" y="-376" font-family="Times,serif" font-size="10.00">rejectionDescription = &quot;&quot;</text>
<text text-anchor="start" x="885" y="-365" font-family="Times,serif" font-size="10.00">timestamp = 2021&#45;12&#45;04T18:01:05.386124261</text>
</g>
<!-- b -->
<g id="node2" class="node">
<title>b</title>
<polygon fill="none" stroke="black" points="566,-297.5 566,-314.5 1398,-314.5 1398,-297.5 566,-297.5"/>
<text text-anchor="start" x="965.5" y="-304.5" font-family="Times,serif" text-decoration="underline" font-size="10.00">b :Bank</text>
<polygon fill="none" stroke="black" points="566,-269.5 566,-297.5 1398,-297.5 1398,-269.5 566,-269.5"/>
<text text-anchor="start" x="569" y="-286.5" font-family="Times,serif" font-size="10.00">accountsMap = sendItToTheBank8a633aa5&#45;907c&#45;4e57&#45;a313&#45;22e0adb2672e7e8817a3&#45;7b81&#45;495c&#45;ba67&#45;13dfe9c5678d7ec351d6&#45;652f&#45;4691&#45;8e72&#45;ea432d44a0c807df6944&#45;136c&#45;4be3&#45;9eb0&#45;2fec622facb8</text>
<text text-anchor="start" x="569" y="-275.5" font-family="Times,serif" font-size="10.00">customerMap = ad459fe5&#45;70c4&#45;4d1e&#45;967c&#45;6b3841599a30e2f7bc4c&#45;ef2a&#45;466e&#45;b8a5&#45;d24f48b13afe1eaf6f4c&#45;4f92&#45;4e04&#45;bd87&#45;c82be03265dedc4dc45b&#45;cbc5&#45;4b16&#45;9464&#45;b5bcaaebdacd</text>
</g>
<!-- ff6a4670_adaf_4a4a_86d4_7fb739659a02&#45;&gt;b -->
<g id="edge1" class="edge">
<title>ff6a4670_adaf_4a4a_86d4_7fb739659a02&#45;&gt;b</title>
<path fill="none" stroke="black" d="M982,-354.9C982,-342.81 982,-330 982,-319.22"/>
<text text-anchor="middle" x="971.5" y="-322.22" font-family="Times,serif" font-size="10.00">bank</text>
<text text-anchor="middle" x="957.5" y="-346.9" font-family="Times,serif" font-size="10.00">transactions</text>
</g>
<!-- c -->
<g id="node3" class="node">
<title>c</title>
<polygon fill="none" stroke="black" points="788,-43 788,-60 952,-60 952,-43 788,-43"/>
<text text-anchor="start" x="846" y="-50" font-family="Times,serif" text-decoration="underline" font-size="10.00">c :Currency</text>
<polygon fill="none" stroke="black" points="788,-26 788,-43 952,-43 952,-26 788,-26"/>
<text text-anchor="start" x="791" y="-32" font-family="Times,serif" font-size="10.00">declaringClass = class model.Currency</text>
</g>
<!-- ff6a4670_adaf_4a4a_86d4_7fb739659a02&#45;&gt;c -->
<g id="edge2" class="edge">
<title>ff6a4670_adaf_4a4a_86d4_7fb739659a02&#45;&gt;c</title>
<path fill="none" stroke="black" d="M860.74,-384.05C693.02,-363.16 404.53,-315.48 349,-230 322.85,-189.75 317.67,-158.37 349,-122 403.54,-58.68 645.72,-46.02 779.84,-43.95"/>
<text text-anchor="middle" x="761.84" y="-35.95" font-family="Times,serif" font-size="10.00">currency</text>
</g>
<!-- 7e8817a3_7b81_495c_ba67_13dfe9c5678d -->
<g id="node4" class="node">
<title>7e8817a3_7b81_495c_ba67_13dfe9c5678d</title>
<polygon fill="none" stroke="black" points="1594,-209 1594,-226 1860,-226 1860,-209 1594,-209"/>
<text text-anchor="start" x="1620" y="-216" font-family="Times,serif" text-decoration="underline" font-size="10.00">7e8817a3&#45;7b81&#45;495c&#45;ba67&#45;13dfe9c5678d :Account</text>
<polygon fill="none" stroke="black" points="1594,-126 1594,-209 1860,-209 1860,-126 1594,-126"/>
<text text-anchor="start" x="1597" y="-198" font-family="Times,serif" font-size="10.00">balance = 25.5</text>
<text text-anchor="start" x="1597" y="-187" font-family="Times,serif" font-size="10.00">customerId = null</text>
<text text-anchor="start" x="1597" y="-176" font-family="Times,serif" font-size="10.00">iban = &quot;EE312351190866168562&quot;</text>
<text text-anchor="start" x="1597" y="-165" font-family="Times,serif" font-size="10.00">id = &quot;7e8817a3&#45;7b81&#45;495c&#45;ba67&#45;13dfe9c5678d&quot;</text>
<text text-anchor="start" x="1597" y="-154" font-family="Times,serif" font-size="10.00">receivedTransaction = ff6a4670&#45;adaf&#45;4a4a&#45;86d4&#45;7fb739659a02</text>
<text text-anchor="start" x="1597" y="-143" font-family="Times,serif" font-size="10.00">sentTransaction = </text>
<text text-anchor="start" x="1597" y="-132" font-family="Times,serif" font-size="10.00">status = &quot;ACTIVE&quot;</text>
</g>
<!-- ff6a4670_adaf_4a4a_86d4_7fb739659a02&#45;&gt;7e8817a3_7b81_495c_ba67_13dfe9c5678d -->
<g id="edge3" class="edge">
<title>ff6a4670_adaf_4a4a_86d4_7fb739659a02&#45;&gt;7e8817a3_7b81_495c_ba67_13dfe9c5678d</title>
<path fill="none" stroke="black" d="M1103.09,-385.29C1212.54,-372.9 1364.07,-350.74 1415,-319 1439.82,-303.53 1430.3,-283.13 1454,-266 1455.57,-264.87 1519.92,-243.87 1585.75,-222.55"/>
<text text-anchor="middle" x="1562.75" y="-225.55" font-family="Times,serif" font-size="10.00">destination</text>
<text text-anchor="middle" x="1161.09" y="-388.29" font-family="Times,serif" font-size="10.00">allTransactionsOrderedDesc</text>
</g>
<!-- 07df6944_136c_4be3_9eb0_2fec622facb8 -->
<g id="node5" class="node">
<title>07df6944_136c_4be3_9eb0_2fec622facb8</title>
<polygon fill="none" stroke="black" points="8,-209 8,-226 256,-226 256,-209 8,-209"/>
<text text-anchor="start" x="27.5" y="-216" font-family="Times,serif" text-decoration="underline" font-size="10.00">07df6944&#45;136c&#45;4be3&#45;9eb0&#45;2fec622facb8 :Account</text>
<polygon fill="none" stroke="black" points="8,-126 8,-209 256,-209 256,-126 8,-126"/>
<text text-anchor="start" x="11" y="-198" font-family="Times,serif" font-size="10.00">balance = 74.5</text>
<text text-anchor="start" x="11" y="-187" font-family="Times,serif" font-size="10.00">customerId = null</text>
<text text-anchor="start" x="11" y="-176" font-family="Times,serif" font-size="10.00">iban = &quot;EE813412573107202884&quot;</text>
<text text-anchor="start" x="11" y="-165" font-family="Times,serif" font-size="10.00">id = &quot;07df6944&#45;136c&#45;4be3&#45;9eb0&#45;2fec622facb8&quot;</text>
<text text-anchor="start" x="11" y="-154" font-family="Times,serif" font-size="10.00">receivedTransaction = </text>
<text text-anchor="start" x="11" y="-143" font-family="Times,serif" font-size="10.00">sentTransaction = ff6a4670&#45;adaf&#45;4a4a&#45;86d4&#45;7fb739659a02</text>
<text text-anchor="start" x="11" y="-132" font-family="Times,serif" font-size="10.00">status = &quot;ACTIVE&quot;</text>
</g>
<!-- ff6a4670_adaf_4a4a_86d4_7fb739659a02&#45;&gt;07df6944_136c_4be3_9eb0_2fec622facb8 -->
<g id="edge4" class="edge">
<title>ff6a4670_adaf_4a4a_86d4_7fb739659a02&#45;&gt;07df6944_136c_4be3_9eb0_2fec622facb8</title>
<path fill="none" stroke="black" d="M860.92,-390.58C696.45,-380.53 411.95,-358.1 316,-319 266.49,-298.83 218.94,-261.49 184.58,-230.17"/>
<text text-anchor="middle" x="171.08" y="-233.17" font-family="Times,serif" font-size="10.00">source</text>
<text text-anchor="middle" x="802.92" y="-393.58" font-family="Times,serif" font-size="10.00">allTransactionsOrderedDesc</text>
</g>
<!-- s -->
<g id="node6" class="node">
<title>s</title>
<polygon fill="none" stroke="black" points="1471,-292.5 1471,-309.5 1676,-309.5 1676,-292.5 1471,-292.5"/>
<text text-anchor="start" x="1556.5" y="-299.5" font-family="Times,serif" text-decoration="underline" font-size="10.00">s :Status</text>
<polygon fill="none" stroke="black" points="1471,-275.5 1471,-292.5 1676,-292.5 1676,-275.5 1471,-275.5"/>
<text text-anchor="start" x="1474" y="-281.5" font-family="Times,serif" font-size="10.00">declaringClass = class model.Transaction$Status</text>
</g>
<!-- ff6a4670_adaf_4a4a_86d4_7fb739659a02&#45;&gt;s -->
<g id="edge5" class="edge">
<title>ff6a4670_adaf_4a4a_86d4_7fb739659a02&#45;&gt;s</title>
<path fill="none" stroke="black" d="M1103.39,-377.89C1197.55,-362.77 1331.26,-340.67 1448,-319 1457.25,-317.28 1466.88,-315.43 1476.5,-313.54"/>
<text text-anchor="middle" x="1464.5" y="-316.54" font-family="Times,serif" font-size="10.00">status</text>
</g>
<!-- b&#45;&gt;7e8817a3_7b81_495c_ba67_13dfe9c5678d -->
<g id="edge11" class="edge">
<title>b&#45;&gt;7e8817a3_7b81_495c_ba67_13dfe9c5678d</title>
<path fill="none" stroke="black" d="M1351.11,-265.96C1424.77,-257.24 1501.22,-245.58 1572,-230 1576.58,-228.99 1581.22,-227.89 1585.88,-226.72"/>
<text text-anchor="middle" x="1604.38" y="-229.72" font-family="Times,serif" font-size="10.00">accounts</text>
<text text-anchor="middle" x="1340.61" y="-257.96" font-family="Times,serif" font-size="10.00">bank</text>
</g>
<!-- b&#45;&gt;07df6944_136c_4be3_9eb0_2fec622facb8 -->
<g id="edge10" class="edge">
<title>b&#45;&gt;07df6944_136c_4be3_9eb0_2fec622facb8</title>
<path fill="none" stroke="black" d="M557.68,-272.45C464.82,-263.29 367.54,-249.81 278,-230 273.39,-228.98 268.73,-227.85 264.05,-226.64"/>
<text text-anchor="middle" x="282.55" y="-229.64" font-family="Times,serif" font-size="10.00">accounts</text>
<text text-anchor="middle" x="547.18" y="-275.45" font-family="Times,serif" font-size="10.00">bank</text>
</g>
<!-- sendItToTheBank -->
<g id="node7" class="node">
<title>sendItToTheBank</title>
<polygon fill="none" stroke="black" points="796,-209 796,-226 944,-226 944,-209 796,-209"/>
<text text-anchor="start" x="813" y="-216" font-family="Times,serif" text-decoration="underline" font-size="10.00">sendItToTheBank :Account</text>
<polygon fill="none" stroke="black" points="796,-126 796,-209 944,-209 944,-126 796,-126"/>
<text text-anchor="start" x="799" y="-198" font-family="Times,serif" font-size="10.00">balance = 69420.0</text>
<text text-anchor="start" x="799" y="-187" font-family="Times,serif" font-size="10.00">customerId = null</text>
<text text-anchor="start" x="799" y="-176" font-family="Times,serif" font-size="10.00">iban = &quot;EE411537187949189386&quot;</text>
<text text-anchor="start" x="799" y="-165" font-family="Times,serif" font-size="10.00">id = &quot;sendItToTheBank&quot;</text>
<text text-anchor="start" x="799" y="-154" font-family="Times,serif" font-size="10.00">receivedTransaction = </text>
<text text-anchor="start" x="799" y="-143" font-family="Times,serif" font-size="10.00">sentTransaction = </text>
<text text-anchor="start" x="799" y="-132" font-family="Times,serif" font-size="10.00">status = &quot;ACTIVE&quot;</text>
</g>
<!-- b&#45;&gt;sendItToTheBank -->
<g id="edge6" class="edge">
<title>b&#45;&gt;sendItToTheBank</title>
<path fill="none" stroke="black" d="M956.87,-265.8C946.55,-255.25 934.19,-242.63 922.09,-230.25"/>
<text text-anchor="middle" x="894.09" y="-233.25" font-family="Times,serif" font-size="10.00">bankAccount</text>
<text text-anchor="middle" x="946.37" y="-257.8" font-family="Times,serif" font-size="10.00">bank</text>
</g>
<!-- sendItToTheBank1 -->
<g id="node8" class="node">
<title>sendItToTheBank1</title>
<polygon fill="none" stroke="black" points="642,-209 642,-226 762,-226 762,-209 642,-209"/>
<text text-anchor="start" x="645" y="-216" font-family="Times,serif" text-decoration="underline" font-size="10.00">sendItToTheBank :Account</text>
<polygon fill="none" stroke="black" points="642,-126 642,-209 762,-209 762,-126 642,-126"/>
<text text-anchor="start" x="652" y="-198" font-family="Times,serif" font-size="10.00">balance = 74420.0</text>
<text text-anchor="start" x="652" y="-187" font-family="Times,serif" font-size="10.00">customerId = &quot;&quot;</text>
<text text-anchor="start" x="652" y="-176" font-family="Times,serif" font-size="10.00">iban = null</text>
<text text-anchor="start" x="652" y="-165" font-family="Times,serif" font-size="10.00">id = &quot;sendItToTheBank&quot;</text>
<text text-anchor="start" x="652" y="-154" font-family="Times,serif" font-size="10.00">receivedTransaction = </text>
<text text-anchor="start" x="652" y="-143" font-family="Times,serif" font-size="10.00">sentTransaction = </text>
<text text-anchor="start" x="652" y="-132" font-family="Times,serif" font-size="10.00">status = &quot;ACTIVE&quot;</text>
</g>
<!-- b&#45;&gt;sendItToTheBank1 -->
<g id="edge7" class="edge">
<title>b&#45;&gt;sendItToTheBank1</title>
<path fill="none" stroke="black" d="M875.61,-265.97C843.76,-256.57 809.28,-244.57 779,-230 776.08,-228.59 773.14,-227.08 770.21,-225.49"/>
<text text-anchor="middle" x="788.71" y="-228.49" font-family="Times,serif" font-size="10.00">accounts</text>
<text text-anchor="middle" x="865.11" y="-257.97" font-family="Times,serif" font-size="10.00">bank</text>
</g>
<!-- 8a633aa5_907c_4e57_a313_22e0adb2672e -->
<g id="node9" class="node">
<title>8a633aa5_907c_4e57_a313_22e0adb2672e</title>
<polygon fill="none" stroke="black" points="1284,-209 1284,-226 1522,-226 1522,-209 1284,-209"/>
<text text-anchor="start" x="1296" y="-216" font-family="Times,serif" text-decoration="underline" font-size="10.00">8a633aa5&#45;907c&#45;4e57&#45;a313&#45;22e0adb2672e :Account</text>
<polygon fill="none" stroke="black" points="1284,-126 1284,-209 1522,-209 1522,-126 1284,-126"/>
<text text-anchor="start" x="1287" y="-198" font-family="Times,serif" font-size="10.00">balance = 0.0</text>
<text text-anchor="start" x="1287" y="-187" font-family="Times,serif" font-size="10.00">customerId = &quot;1eaf6f4c&#45;4f92&#45;4e04&#45;bd87&#45;c82be03265de&quot;</text>
<text text-anchor="start" x="1287" y="-176" font-family="Times,serif" font-size="10.00">iban = null</text>
<text text-anchor="start" x="1287" y="-165" font-family="Times,serif" font-size="10.00">id = &quot;8a633aa5&#45;907c&#45;4e57&#45;a313&#45;22e0adb2672e&quot;</text>
<text text-anchor="start" x="1287" y="-154" font-family="Times,serif" font-size="10.00">receivedTransaction = </text>
<text text-anchor="start" x="1287" y="-143" font-family="Times,serif" font-size="10.00">sentTransaction = </text>
<text text-anchor="start" x="1287" y="-132" font-family="Times,serif" font-size="10.00">status = &quot;ACTIVE&quot;</text>
</g>
<!-- b&#45;&gt;8a633aa5_907c_4e57_a313_22e0adb2672e -->
<g id="edge8" class="edge">
<title>b&#45;&gt;8a633aa5_907c_4e57_a313_22e0adb2672e</title>
<path fill="none" stroke="black" d="M1116.87,-265.96C1163.24,-256.11 1215.23,-243.85 1262,-230 1266.51,-228.66 1271.09,-227.25 1275.7,-225.79"/>
<text text-anchor="middle" x="1257.2" y="-228.79" font-family="Times,serif" font-size="10.00">accounts</text>
<text text-anchor="middle" x="1106.37" y="-257.96" font-family="Times,serif" font-size="10.00">bank</text>
</g>
<!-- 7ec351d6_652f_4691_8e72_ea432d44a0c8 -->
<g id="node10" class="node">
<title>7ec351d6_652f_4691_8e72_ea432d44a0c8</title>
<polygon fill="none" stroke="black" points="978,-209 978,-226 1212,-226 1212,-209 978,-209"/>
<text text-anchor="start" x="988" y="-216" font-family="Times,serif" text-decoration="underline" font-size="10.00">7ec351d6&#45;652f&#45;4691&#45;8e72&#45;ea432d44a0c8 :Account</text>
<polygon fill="none" stroke="black" points="978,-126 978,-209 1212,-209 1212,-126 978,-126"/>
<text text-anchor="start" x="981" y="-198" font-family="Times,serif" font-size="10.00">balance = 100.0</text>
<text text-anchor="start" x="981" y="-187" font-family="Times,serif" font-size="10.00">customerId = &quot;e2f7bc4c&#45;ef2a&#45;466e&#45;b8a5&#45;d24f48b13afe&quot;</text>
<text text-anchor="start" x="981" y="-176" font-family="Times,serif" font-size="10.00">iban = null</text>
<text text-anchor="start" x="981" y="-165" font-family="Times,serif" font-size="10.00">id = &quot;7ec351d6&#45;652f&#45;4691&#45;8e72&#45;ea432d44a0c8&quot;</text>
<text text-anchor="start" x="981" y="-154" font-family="Times,serif" font-size="10.00">receivedTransaction = </text>
<text text-anchor="start" x="981" y="-143" font-family="Times,serif" font-size="10.00">sentTransaction = </text>
<text text-anchor="start" x="981" y="-132" font-family="Times,serif" font-size="10.00">status = &quot;ACTIVE&quot;</text>
</g>
<!-- b&#45;&gt;7ec351d6_652f_4691_8e72_ea432d44a0c8 -->
<g id="edge9" class="edge">
<title>b&#45;&gt;7ec351d6_652f_4691_8e72_ea432d44a0c8</title>
<path fill="none" stroke="black" d="M1007.36,-265.8C1017.77,-255.25 1030.23,-242.63 1042.45,-230.25"/>
<text text-anchor="middle" x="1023.95" y="-233.25" font-family="Times,serif" font-size="10.00">accounts</text>
<text text-anchor="middle" x="996.86" y="-257.8" font-family="Times,serif" font-size="10.00">bank</text>
</g>
<!-- 58432fd7_0394_498d_9379_c419fe707a11 -->
<g id="node11" class="node">
<title>58432fd7_0394_498d_9379_c419fe707a11</title>
<polygon fill="none" stroke="black" points="367,-198 367,-215 608,-215 608,-198 367,-198"/>
<text text-anchor="start" x="370" y="-205" font-family="Times,serif" text-decoration="underline" font-size="10.00">58432fd7&#45;0394&#45;498d&#45;9379&#45;c419fe707a11 :Administrator</text>
<polygon fill="none" stroke="black" points="367,-137 367,-198 608,-198 608,-137 367,-137"/>
<text text-anchor="start" x="388" y="-187" font-family="Times,serif" font-size="10.00">email = &quot;admin@bank.ee&quot;</text>
<text text-anchor="start" x="388" y="-176" font-family="Times,serif" font-size="10.00">firstName = &quot;Admin&quot;</text>
<text text-anchor="start" x="388" y="-165" font-family="Times,serif" font-size="10.00">id = &quot;58432fd7&#45;0394&#45;498d&#45;9379&#45;c419fe707a11&quot;</text>
<text text-anchor="start" x="388" y="-154" font-family="Times,serif" font-size="10.00">lastName = &quot;ALice&quot;</text>
<text text-anchor="start" x="388" y="-143" font-family="Times,serif" font-size="10.00">password = &quot;secure_p@ssw0|2d&quot;</text>
</g>
<!-- b&#45;&gt;58432fd7_0394_498d_9379_c419fe707a11 -->
<g id="edge12" class="edge">
<title>b&#45;&gt;58432fd7_0394_498d_9379_c419fe707a11</title>
<path fill="none" stroke="black" d="M792.42,-265.94C737.89,-256.68 678.66,-244.77 625,-230 613.49,-226.83 601.61,-223.07 589.88,-219.03"/>
<text text-anchor="middle" x="560.88" y="-222.03" font-family="Times,serif" font-size="10.00">administrators</text>
<text text-anchor="middle" x="781.92" y="-257.94" font-family="Times,serif" font-size="10.00">bank</text>
</g>
<!-- e2f7bc4c_ef2a_466e_b8a5_d24f48b13afe -->
<g id="node12" class="node">
<title>e2f7bc4c_ef2a_466e_b8a5_d24f48b13afe</title>
<polygon fill="none" stroke="black" points="1054,-65 1054,-82 1269,-82 1269,-65 1054,-65"/>
<text text-anchor="start" x="1057" y="-72" font-family="Times,serif" text-decoration="underline" font-size="10.00">e2f7bc4c&#45;ef2a&#45;466e&#45;b8a5&#45;d24f48b13afe :Customer</text>
<polygon fill="none" stroke="black" points="1054,-4 1054,-65 1269,-65 1269,-4 1054,-4"/>
<text text-anchor="start" x="1066" y="-54" font-family="Times,serif" font-size="10.00">email = &quot;john@doe.ee&quot;</text>
<text text-anchor="start" x="1066" y="-43" font-family="Times,serif" font-size="10.00">firstName = &quot;John&quot;</text>
<text text-anchor="start" x="1066" y="-32" font-family="Times,serif" font-size="10.00">id = &quot;e2f7bc4c&#45;ef2a&#45;466e&#45;b8a5&#45;d24f48b13afe&quot;</text>
<text text-anchor="start" x="1066" y="-21" font-family="Times,serif" font-size="10.00">lastName = &quot;Doe&quot;</text>
<text text-anchor="start" x="1066" y="-10" font-family="Times,serif" font-size="10.00">password = &quot;pass1234&quot;</text>
</g>
<!-- b&#45;&gt;e2f7bc4c_ef2a_466e_b8a5_d24f48b13afe -->
<g id="edge13" class="edge">
<title>b&#45;&gt;e2f7bc4c_ef2a_466e_b8a5_d24f48b13afe</title>
<path fill="none" stroke="black" d="M1148.62,-265.97C1185.58,-256.83 1217.3,-244.97 1229,-230 1258.56,-192.18 1245.84,-166.95 1229,-122 1224.15,-109.05 1216.06,-96.83 1207.13,-86.08"/>
<text text-anchor="middle" x="1186.63" y="-89.08" font-family="Times,serif" font-size="10.00">customers</text>
<text text-anchor="middle" x="1138.12" y="-257.97" font-family="Times,serif" font-size="10.00">bank</text>
</g>
<!-- 1eaf6f4c_4f92_4e04_bd87_c82be03265de -->
<g id="node13" class="node">
<title>1eaf6f4c_4f92_4e04_bd87_c82be03265de</title>
<polygon fill="none" stroke="black" points="1370,-65 1370,-82 1589,-82 1589,-65 1370,-65"/>
<text text-anchor="start" x="1373" y="-72" font-family="Times,serif" text-decoration="underline" font-size="10.00">1eaf6f4c&#45;4f92&#45;4e04&#45;bd87&#45;c82be03265de :Customer</text>
<polygon fill="none" stroke="black" points="1370,-4 1370,-65 1589,-65 1589,-4 1370,-4"/>
<text text-anchor="start" x="1382" y="-54" font-family="Times,serif" font-size="10.00">email = &quot;bobby@tt.ee&quot;</text>
<text text-anchor="start" x="1382" y="-43" font-family="Times,serif" font-size="10.00">firstName = &quot;Bob&quot;</text>
<text text-anchor="start" x="1382" y="-32" font-family="Times,serif" font-size="10.00">id = &quot;1eaf6f4c&#45;4f92&#45;4e04&#45;bd87&#45;c82be03265de&quot;</text>
<text text-anchor="start" x="1382" y="-21" font-family="Times,serif" font-size="10.00">lastName = &quot;Jackson&quot;</text>
<text text-anchor="start" x="1382" y="-10" font-family="Times,serif" font-size="10.00">password = &quot;secret&quot;</text>
</g>
<!-- b&#45;&gt;1eaf6f4c_4f92_4e04_bd87_c82be03265de -->
<g id="edge14" class="edge">
<title>b&#45;&gt;1eaf6f4c_4f92_4e04_bd87_c82be03265de</title>
<path fill="none" stroke="black" d="M1381.43,-265.97C1461.48,-256.93 1525.45,-245.13 1539,-230 1571.02,-194.24 1554.46,-167.44 1539,-122 1534.71,-109.38 1527.46,-97.21 1519.46,-86.39"/>
<text text-anchor="middle" x="1498.96" y="-89.39" font-family="Times,serif" font-size="10.00">customers</text>
<text text-anchor="middle" x="1370.93" y="-257.97" font-family="Times,serif" font-size="10.00">bank</text>
</g>
<!-- dc4dc45b_cbc5_4b16_9464_b5bcaaebdacd -->
<g id="node14" class="node">
<title>dc4dc45b_cbc5_4b16_9464_b5bcaaebdacd</title>
<polygon fill="none" stroke="black" points="101,-65 101,-82 324,-82 324,-65 101,-65"/>
<text text-anchor="start" x="104" y="-72" font-family="Times,serif" text-decoration="underline" font-size="10.00">dc4dc45b&#45;cbc5&#45;4b16&#45;9464&#45;b5bcaaebdacd :Customer</text>
<polygon fill="none" stroke="black" points="101,-4 101,-65 324,-65 324,-4 101,-4"/>
<text text-anchor="start" x="113" y="-54" font-family="Times,serif" font-size="10.00">email = &quot;johntest@doe.ee&quot;</text>
<text text-anchor="start" x="113" y="-43" font-family="Times,serif" font-size="10.00">firstName = &quot;johntest&quot;</text>
<text text-anchor="start" x="113" y="-32" font-family="Times,serif" font-size="10.00">id = &quot;dc4dc45b&#45;cbc5&#45;4b16&#45;9464&#45;b5bcaaebdacd&quot;</text>
<text text-anchor="start" x="113" y="-21" font-family="Times,serif" font-size="10.00">lastName = &quot;Doe&quot;</text>
<text text-anchor="start" x="113" y="-10" font-family="Times,serif" font-size="10.00">password = &quot;pass1234&quot;</text>
</g>
<!-- b&#45;&gt;dc4dc45b_cbc5_4b16_9464_b5bcaaebdacd -->
<g id="edge15" class="edge">
<title>b&#45;&gt;dc4dc45b_cbc5_4b16_9464_b5bcaaebdacd</title>
<path fill="none" stroke="black" d="M557.68,-276.58C467.85,-267.4 388.3,-252.88 349,-230 298.28,-200.47 307.98,-169.13 273,-122 264.29,-110.27 254.64,-97.73 245.63,-86.21"/>
<text text-anchor="middle" x="225.13" y="-89.21" font-family="Times,serif" font-size="10.00">customers</text>
<text text-anchor="middle" x="547.18" y="-268.58" font-family="Times,serif" font-size="10.00">bank</text>
</g>
<!-- ad459fe5_70c4_4d1e_967c_6b3841599a30 -->
<g id="node15" class="node">
<title>ad459fe5_70c4_4d1e_967c_6b3841599a30</title>
<polygon fill="none" stroke="black" points="1699,-65 1699,-82 1923,-82 1923,-65 1699,-65"/>
<text text-anchor="start" x="1702" y="-72" font-family="Times,serif" text-decoration="underline" font-size="10.00">ad459fe5&#45;70c4&#45;4d1e&#45;967c&#45;6b3841599a30 :Customer</text>
<polygon fill="none" stroke="black" points="1699,-4 1699,-65 1923,-65 1923,-4 1699,-4"/>
<text text-anchor="start" x="1711" y="-54" font-family="Times,serif" font-size="10.00">email = &quot;bobbytest@tt.ee&quot;</text>
<text text-anchor="start" x="1711" y="-43" font-family="Times,serif" font-size="10.00">firstName = &quot;Bob&quot;</text>
<text text-anchor="start" x="1711" y="-32" font-family="Times,serif" font-size="10.00">id = &quot;ad459fe5&#45;70c4&#45;4d1e&#45;967c&#45;6b3841599a30&quot;</text>
<text text-anchor="start" x="1711" y="-21" font-family="Times,serif" font-size="10.00">lastName = &quot;Jackson&quot;</text>
<text text-anchor="start" x="1711" y="-10" font-family="Times,serif" font-size="10.00">password = &quot;secret&quot;</text>
</g>
<!-- b&#45;&gt;ad459fe5_70c4_4d1e_967c_6b3841599a30 -->
<g id="edge16" class="edge">
<title>b&#45;&gt;ad459fe5_70c4_4d1e_967c_6b3841599a30</title>
<path fill="none" stroke="black" d="M1406.25,-268.57C1633.25,-255.27 1868.28,-239.34 1877,-230 1909.76,-194.91 1893.51,-167.07 1877,-122 1872.3,-109.17 1864.46,-97.01 1855.79,-86.26"/>
<text text-anchor="middle" x="1835.29" y="-89.26" font-family="Times,serif" font-size="10.00">customers</text>
<text text-anchor="middle" x="1416.75" y="-271.57" font-family="Times,serif" font-size="10.00">bank</text>
</g>
<!-- 7e8817a3_7b81_495c_ba67_13dfe9c5678d&#45;&gt;c -->
<g id="edge17" class="edge">
<title>7e8817a3_7b81_495c_ba67_13dfe9c5678d&#45;&gt;c</title>
<path fill="none" stroke="black" d="M1585.79,-131.88C1570.11,-128.08 1554.28,-124.67 1539,-122 1318.22,-83.39 1257.28,-121.63 1036,-86 1003.28,-80.73 967.57,-72.08 937.68,-64"/>
<text text-anchor="middle" x="919.68" y="-67" font-family="Times,serif" font-size="10.00">currency</text>
</g>
<!-- 7e8817a3_7b81_495c_ba67_13dfe9c5678d&#45;&gt;ad459fe5_70c4_4d1e_967c_6b3841599a30 -->
<g id="edge18" class="edge">
<title>7e8817a3_7b81_495c_ba67_13dfe9c5678d&#45;&gt;ad459fe5_70c4_4d1e_967c_6b3841599a30</title>
<path fill="none" stroke="black" d="M1761.17,-121.72C1768.71,-109.96 1776.6,-97.66 1783.81,-86.4"/>
<text text-anchor="middle" x="1770.81" y="-89.4" font-family="Times,serif" font-size="10.00">owner</text>
<text text-anchor="middle" x="1744.67" y="-113.72" font-family="Times,serif" font-size="10.00">account</text>
</g>
<!-- 07df6944_136c_4be3_9eb0_2fec622facb8&#45;&gt;c -->
<g id="edge19" class="edge">
<title>07df6944_136c_4be3_9eb0_2fec622facb8&#45;&gt;c</title>
<path fill="none" stroke="black" d="M264.1,-134.54C281.46,-129.93 299.09,-125.61 316,-122 477.72,-87.5 669.36,-64.39 779.6,-52.78"/>
<text text-anchor="middle" x="761.6" y="-55.78" font-family="Times,serif" font-size="10.00">currency</text>
</g>
<!-- 07df6944_136c_4be3_9eb0_2fec622facb8&#45;&gt;dc4dc45b_cbc5_4b16_9464_b5bcaaebdacd -->
<g id="edge20" class="edge">
<title>07df6944_136c_4be3_9eb0_2fec622facb8&#45;&gt;dc4dc45b_cbc5_4b16_9464_b5bcaaebdacd</title>
<path fill="none" stroke="black" d="M164.54,-121.72C171.72,-109.96 179.23,-97.66 186.11,-86.4"/>
<text text-anchor="middle" x="173.11" y="-89.4" font-family="Times,serif" font-size="10.00">owner</text>
<text text-anchor="middle" x="148.04" y="-113.72" font-family="Times,serif" font-size="10.00">account</text>
</g>
<!-- sendItToTheBank&#45;&gt;c -->
<g id="edge21" class="edge">
<title>sendItToTheBank&#45;&gt;c</title>
<path fill="none" stroke="black" d="M870,-121.72C870,-101.46 870,-79.58 870,-64.22"/>
<text text-anchor="middle" x="852" y="-67.22" font-family="Times,serif" font-size="10.00">currency</text>
</g>
<!-- sendItToTheBank1&#45;&gt;c -->
<g id="edge22" class="edge">
<title>sendItToTheBank1&#45;&gt;c</title>
<path fill="none" stroke="black" d="M770.33,-121.72C796.31,-101.46 824.37,-79.58 844.07,-64.22"/>
<text text-anchor="middle" x="826.07" y="-67.22" font-family="Times,serif" font-size="10.00">currency</text>
</g>
<!-- 8a633aa5_907c_4e57_a313_22e0adb2672e&#45;&gt;c -->
<g id="edge23" class="edge">
<title>8a633aa5_907c_4e57_a313_22e0adb2672e&#45;&gt;c</title>
<path fill="none" stroke="black" d="M1275.64,-134.43C1260,-129.98 1244.18,-125.72 1229,-122 1144.24,-101.26 1121.23,-104.71 1036,-86 1006.09,-79.43 973.38,-71.35 944.96,-64.04"/>
<text text-anchor="middle" x="962.96" y="-67.04" font-family="Times,serif" font-size="10.00">currency</text>
</g>
<!-- 8a633aa5_907c_4e57_a313_22e0adb2672e&#45;&gt;1eaf6f4c_4f92_4e04_bd87_c82be03265de -->
<g id="edge24" class="edge">
<title>8a633aa5_907c_4e57_a313_22e0adb2672e&#45;&gt;1eaf6f4c_4f92_4e04_bd87_c82be03265de</title>
<path fill="none" stroke="black" d="M1433.91,-121.72C1440.73,-109.96 1447.87,-97.66 1454.4,-86.4"/>
<text text-anchor="middle" x="1441.4" y="-89.4" font-family="Times,serif" font-size="10.00">owner</text>
<text text-anchor="middle" x="1417.41" y="-113.72" font-family="Times,serif" font-size="10.00">account</text>
</g>
<!-- 7ec351d6_652f_4691_8e72_ea432d44a0c8&#45;&gt;c -->
<g id="edge25" class="edge">
<title>7ec351d6_652f_4691_8e72_ea432d44a0c8&#45;&gt;c</title>
<path fill="none" stroke="black" d="M1003.81,-121.91C968.85,-101.55 931.04,-79.54 904.56,-64.12"/>
<text text-anchor="middle" x="886.56" y="-67.12" font-family="Times,serif" font-size="10.00">currency</text>
</g>
<!-- 7ec351d6_652f_4691_8e72_ea432d44a0c8&#45;&gt;e2f7bc4c_ef2a_466e_b8a5_d24f48b13afe -->
<g id="edge26" class="edge">
<title>7ec351d6_652f_4691_8e72_ea432d44a0c8&#45;&gt;e2f7bc4c_ef2a_466e_b8a5_d24f48b13afe</title>
<path fill="none" stroke="black" d="M1121.84,-121.72C1127.77,-109.96 1133.97,-97.66 1139.64,-86.4"/>
<text text-anchor="middle" x="1126.64" y="-89.4" font-family="Times,serif" font-size="10.00">owner</text>
<text text-anchor="middle" x="1105.34" y="-113.72" font-family="Times,serif" font-size="10.00">account</text>
</g>
</g>
</svg>
