<?xml version="1.0" encoding="UTF-8" standalone="no"?>
<!DOCTYPE svg PUBLIC "-//W3C//DTD SVG 1.1//EN"
 "http://www.w3.org/Graphics/SVG/1.1/DTD/svg11.dtd">
<!-- Generated by graphviz version 2.43.0 (0)
 -->
<!-- Title: model Pages: 1 -->
<svg width="1764px" height="449px"
 viewBox="0.00 0.00 1764.00 449.00" xmlns="http://www.w3.org/2000/svg" xmlns:xlink="http://www.w3.org/1999/xlink">
<g id="graph0" class="graph" transform="scale(1.0 1.0) rotate(0) translate(4 445)">
<title>model</title>
<polygon fill="white" stroke="transparent" points="-4,4 -4,-445 1760,-445 1760,4 -4,4"/>
<!-- 3893c651_fcd3_45de_b5b6_f953b69ec257 -->
<g id="node1" class="node">
<title>3893c651_fcd3_45de_b5b6_f953b69ec257</title>
<polygon fill="none" stroke="black" points="818.5,-420 818.5,-437 1050.5,-437 1050.5,-420 818.5,-420"/>
<text text-anchor="start" x="821.5" y="-427" font-family="Times,serif" text-decoration="underline" font-size="10.00">3893c651&#45;fcd3&#45;45de&#45;b5b6&#45;f953b69ec257 :Transaction</text>
<polygon fill="none" stroke="black" points="818.5,-359 818.5,-420 1050.5,-420 1050.5,-359 818.5,-359"/>
<text text-anchor="start" x="835" y="-409" font-family="Times,serif" font-size="10.00">amount = 25.5</text>
<text text-anchor="start" x="835" y="-398" font-family="Times,serif" font-size="10.00">description = &quot;Ref: concert ticket&quot;</text>
<text text-anchor="start" x="835" y="-387" font-family="Times,serif" font-size="10.00">id = &quot;3893c651&#45;fcd3&#45;45de&#45;b5b6&#45;f953b69ec257&quot;</text>
<text text-anchor="start" x="835" y="-376" font-family="Times,serif" font-size="10.00">rejectionDescription = &quot;&quot;</text>
<text text-anchor="start" x="835" y="-365" font-family="Times,serif" font-size="10.00">timestamp = 2021&#45;12&#45;04T18:20:20.161530719</text>
</g>
<!-- b -->
<g id="node2" class="node">
<title>b</title>
<polygon fill="none" stroke="black" points="519.5,-297.5 519.5,-314.5 1349.5,-314.5 1349.5,-297.5 519.5,-297.5"/>
<text text-anchor="start" x="918" y="-304.5" font-family="Times,serif" text-decoration="underline" font-size="10.00">b :Bank</text>
<polygon fill="none" stroke="black" points="519.5,-269.5 519.5,-297.5 1349.5,-297.5 1349.5,-269.5 519.5,-269.5"/>
<text text-anchor="start" x="522.5" y="-286.5" font-family="Times,serif" font-size="10.00">accountsMap = 83079e17&#45;044a&#45;4707&#45;a64b&#45;abb789e7f7d1sendItToTheBank8a633aa5&#45;907c&#45;4e57&#45;a313&#45;22e0adb2672e39653f8f&#45;0f0d&#45;4737&#45;a52b&#45;eae64cd5c4fc7ec351d6&#45;652f&#45;4691&#45;8e72&#45;ea432d44a0c8</text>
<text text-anchor="start" x="522.5" y="-275.5" font-family="Times,serif" font-size="10.00">customerMap = 748fd0ac&#45;3a74&#45;4f6d&#45;b5bc&#45;00d6127c0541e2f7bc4c&#45;ef2a&#45;466e&#45;b8a5&#45;d24f48b13afe1eaf6f4c&#45;4f92&#45;4e04&#45;bd87&#45;c82be03265ded2df907f&#45;c536&#45;45d8&#45;a45a&#45;ddd2515af952</text>
</g>
<!-- 3893c651_fcd3_45de_b5b6_f953b69ec257&#45;&gt;b -->
<g id="edge1" class="edge">
<title>3893c651_fcd3_45de_b5b6_f953b69ec257&#45;&gt;b</title>
<path fill="none" stroke="black" d="M934.5,-354.9C934.5,-342.81 934.5,-330 934.5,-319.22"/>
<text text-anchor="middle" x="924" y="-322.22" font-family="Times,serif" font-size="10.00">bank</text>
<text text-anchor="middle" x="910" y="-346.9" font-family="Times,serif" font-size="10.00">transactions</text>
</g>
<!-- c -->
<g id="node3" class="node">
<title>c</title>
<polygon fill="none" stroke="black" points="354.5,-43 354.5,-60 518.5,-60 518.5,-43 354.5,-43"/>
<text text-anchor="start" x="412.5" y="-50" font-family="Times,serif" text-decoration="underline" font-size="10.00">c :Currency</text>
<polygon fill="none" stroke="black" points="354.5,-26 354.5,-43 518.5,-43 518.5,-26 354.5,-26"/>
<text text-anchor="start" x="357.5" y="-32" font-family="Times,serif" font-size="10.00">declaringClass = class model.Currency</text>
</g>
<!-- 3893c651_fcd3_45de_b5b6_f953b69ec257&#45;&gt;c -->
<g id="edge2" class="edge">
<title>3893c651_fcd3_45de_b5b6_f953b69ec257&#45;&gt;c</title>
<path fill="none" stroke="black" d="M810.29,-393C590.06,-382.92 145.85,-348.09 56.5,-230 27.54,-191.72 25.86,-158.95 56.5,-122 84.07,-88.75 205.19,-94.69 247.5,-86 280.76,-79.17 317.19,-71.2 349.12,-64.04"/>
<text text-anchor="middle" x="331.12" y="-67.04" font-family="Times,serif" font-size="10.00">currency</text>
</g>
<!-- 39653f8f_0f0d_4737_a52b_eae64cd5c4fc -->
<g id="node4" class="node">
<title>39653f8f_0f0d_4737_a52b_eae64cd5c4fc</title>
<polygon fill="none" stroke="black" points="1477.5,-209 1477.5,-226 1748.5,-226 1748.5,-209 1477.5,-209"/>
<text text-anchor="start" x="1509.5" y="-216" font-family="Times,serif" text-decoration="underline" font-size="10.00">39653f8f&#45;0f0d&#45;4737&#45;a52b&#45;eae64cd5c4fc :Account</text>
<polygon fill="none" stroke="black" points="1477.5,-126 1477.5,-209 1748.5,-209 1748.5,-126 1477.5,-126"/>
<text text-anchor="start" x="1480.5" y="-198" font-family="Times,serif" font-size="10.00">balance = 25.5</text>
<text text-anchor="start" x="1480.5" y="-187" font-family="Times,serif" font-size="10.00">customerId = null</text>
<text text-anchor="start" x="1480.5" y="-176" font-family="Times,serif" font-size="10.00">iban = &quot;EE719319865517030470&quot;</text>
<text text-anchor="start" x="1480.5" y="-165" font-family="Times,serif" font-size="10.00">id = &quot;39653f8f&#45;0f0d&#45;4737&#45;a52b&#45;eae64cd5c4fc&quot;</text>
<text text-anchor="start" x="1480.5" y="-154" font-family="Times,serif" font-size="10.00">receivedTransaction = 3893c651&#45;fcd3&#45;45de&#45;b5b6&#45;f953b69ec257</text>
<text text-anchor="start" x="1480.5" y="-143" font-family="Times,serif" font-size="10.00">sentTransaction = </text>
<text text-anchor="start" x="1480.5" y="-132" font-family="Times,serif" font-size="10.00">status = &quot;ACTIVE&quot;</text>
</g>
<!-- 3893c651_fcd3_45de_b5b6_f953b69ec257&#45;&gt;39653f8f_0f0d_4737_a52b_eae64cd5c4fc -->
<g id="edge3" class="edge">
<title>3893c651_fcd3_45de_b5b6_f953b69ec257&#45;&gt;39653f8f_0f0d_4737_a52b_eae64cd5c4fc</title>
<path fill="none" stroke="black" d="M1058.71,-384.87C1167.63,-372.39 1316.22,-350.35 1366.5,-319 1391.32,-303.53 1382.6,-284.19 1405.5,-266 1424.49,-250.92 1446.43,-237.92 1468.76,-226.88"/>
<text text-anchor="middle" x="1445.76" y="-229.88" font-family="Times,serif" font-size="10.00">destination</text>
<text text-anchor="middle" x="1116.71" y="-387.87" font-family="Times,serif" font-size="10.00">allTransactionsOrderedDesc</text>
</g>
<!-- 83079e17_044a_4707_a64b_abb789e7f7d1 -->
<g id="node5" class="node">
<title>83079e17_044a_4707_a64b_abb789e7f7d1</title>
<polygon fill="none" stroke="black" points="74.5,-209 74.5,-226 327.5,-226 327.5,-209 74.5,-209"/>
<text text-anchor="start" x="93.5" y="-216" font-family="Times,serif" text-decoration="underline" font-size="10.00">83079e17&#45;044a&#45;4707&#45;a64b&#45;abb789e7f7d1 :Account</text>
<polygon fill="none" stroke="black" points="74.5,-126 74.5,-209 327.5,-209 327.5,-126 74.5,-126"/>
<text text-anchor="start" x="77.5" y="-198" font-family="Times,serif" font-size="10.00">balance = 74.5</text>
<text text-anchor="start" x="77.5" y="-187" font-family="Times,serif" font-size="10.00">customerId = null</text>
<text text-anchor="start" x="77.5" y="-176" font-family="Times,serif" font-size="10.00">iban = &quot;EE696125538485586599&quot;</text>
<text text-anchor="start" x="77.5" y="-165" font-family="Times,serif" font-size="10.00">id = &quot;83079e17&#45;044a&#45;4707&#45;a64b&#45;abb789e7f7d1&quot;</text>
<text text-anchor="start" x="77.5" y="-154" font-family="Times,serif" font-size="10.00">receivedTransaction = </text>
<text text-anchor="start" x="77.5" y="-143" font-family="Times,serif" font-size="10.00">sentTransaction = 3893c651&#45;fcd3&#45;45de&#45;b5b6&#45;f953b69ec257</text>
<text text-anchor="start" x="77.5" y="-132" font-family="Times,serif" font-size="10.00">status = &quot;ACTIVE&quot;</text>
</g>
<!-- 3893c651_fcd3_45de_b5b6_f953b69ec257&#45;&gt;83079e17_044a_4707_a64b_abb789e7f7d1 -->
<g id="edge4" class="edge">
<title>3893c651_fcd3_45de_b5b6_f953b69ec257&#45;&gt;83079e17_044a_4707_a64b_abb789e7f7d1</title>
<path fill="none" stroke="black" d="M810.45,-383.33C722.96,-371.6 603.78,-351.34 502.5,-319 431.03,-296.18 354.58,-260.11 296.49,-230.03"/>
<text text-anchor="middle" x="282.99" y="-233.03" font-family="Times,serif" font-size="10.00">source</text>
<text text-anchor="middle" x="752.45" y="-386.33" font-family="Times,serif" font-size="10.00">allTransactionsOrderedDesc</text>
</g>
<!-- s -->
<g id="node6" class="node">
<title>s</title>
<polygon fill="none" stroke="black" points="1422.5,-292.5 1422.5,-309.5 1627.5,-309.5 1627.5,-292.5 1422.5,-292.5"/>
<text text-anchor="start" x="1508" y="-299.5" font-family="Times,serif" text-decoration="underline" font-size="10.00">s :Status</text>
<polygon fill="none" stroke="black" points="1422.5,-275.5 1422.5,-292.5 1627.5,-292.5 1627.5,-275.5 1422.5,-275.5"/>
<text text-anchor="start" x="1425.5" y="-281.5" font-family="Times,serif" font-size="10.00">declaringClass = class model.Transaction$Status</text>
</g>
<!-- 3893c651_fcd3_45de_b5b6_f953b69ec257&#45;&gt;s -->
<g id="edge5" class="edge">
<title>3893c651_fcd3_45de_b5b6_f953b69ec257&#45;&gt;s</title>
<path fill="none" stroke="black" d="M1058.56,-377.4C1152.35,-362.29 1284.21,-340.42 1399.5,-319 1408.75,-317.28 1418.38,-315.43 1428,-313.54"/>
<text text-anchor="middle" x="1416" y="-316.54" font-family="Times,serif" font-size="10.00">status</text>
</g>
<!-- b&#45;&gt;39653f8f_0f0d_4737_a52b_eae64cd5c4fc -->
<g id="edge10" class="edge">
<title>b&#45;&gt;39653f8f_0f0d_4737_a52b_eae64cd5c4fc</title>
<path fill="none" stroke="black" d="M1240.12,-265.99C1310.98,-257.14 1385.76,-245.42 1454.5,-230 1459.16,-228.96 1463.87,-227.82 1468.62,-226.62"/>
<text text-anchor="middle" x="1450.12" y="-218.62" font-family="Times,serif" font-size="10.00">accounts</text>
<text text-anchor="middle" x="1250.62" y="-257.99" font-family="Times,serif" font-size="10.00">bank</text>
</g>
<!-- b&#45;&gt;83079e17_044a_4707_a64b_abb789e7f7d1 -->
<g id="edge9" class="edge">
<title>b&#45;&gt;83079e17_044a_4707_a64b_abb789e7f7d1</title>
<path fill="none" stroke="black" d="M552.63,-265.98C482.55,-257.28 410.43,-245.62 343.5,-230 340.79,-229.37 338.07,-228.7 335.33,-228"/>
<text text-anchor="middle" x="353.83" y="-231" font-family="Times,serif" font-size="10.00">accounts</text>
<text text-anchor="middle" x="542.13" y="-257.98" font-family="Times,serif" font-size="10.00">bank</text>
</g>
<!-- sendItToTheBank -->
<g id="node7" class="node">
<title>sendItToTheBank</title>
<polygon fill="none" stroke="black" points="361.5,-209 361.5,-226 510.5,-226 510.5,-209 361.5,-209"/>
<text text-anchor="start" x="379" y="-216" font-family="Times,serif" text-decoration="underline" font-size="10.00">sendItToTheBank :Account</text>
<polygon fill="none" stroke="black" points="361.5,-126 361.5,-209 510.5,-209 510.5,-126 361.5,-126"/>
<text text-anchor="start" x="364.5" y="-198" font-family="Times,serif" font-size="10.00">balance = 69420.0</text>
<text text-anchor="start" x="364.5" y="-187" font-family="Times,serif" font-size="10.00">customerId = null</text>
<text text-anchor="start" x="364.5" y="-176" font-family="Times,serif" font-size="10.00">iban = &quot;EE710827861864853043&quot;</text>
<text text-anchor="start" x="364.5" y="-165" font-family="Times,serif" font-size="10.00">id = &quot;sendItToTheBank&quot;</text>
<text text-anchor="start" x="364.5" y="-154" font-family="Times,serif" font-size="10.00">receivedTransaction = </text>
<text text-anchor="start" x="364.5" y="-143" font-family="Times,serif" font-size="10.00">sentTransaction = </text>
<text text-anchor="start" x="364.5" y="-132" font-family="Times,serif" font-size="10.00">status = &quot;ACTIVE&quot;</text>
</g>
<!-- b&#45;&gt;sendItToTheBank -->
<g id="edge6" class="edge">
<title>b&#45;&gt;sendItToTheBank</title>
<path fill="none" stroke="black" d="M668.82,-265.98C621.01,-257.28 572.19,-245.62 527.5,-230 524.37,-228.91 521.22,-227.7 518.08,-226.41"/>
<text text-anchor="middle" x="546.08" y="-229.41" font-family="Times,serif" font-size="10.00">bankAccount</text>
<text text-anchor="middle" x="658.32" y="-257.98" font-family="Times,serif" font-size="10.00">bank</text>
</g>
<!-- 8a633aa5_907c_4e57_a313_22e0adb2672e -->
<g id="node8" class="node">
<title>8a633aa5_907c_4e57_a313_22e0adb2672e</title>
<polygon fill="none" stroke="black" points="1128.5,-209 1128.5,-226 1366.5,-226 1366.5,-209 1128.5,-209"/>
<text text-anchor="start" x="1140.5" y="-216" font-family="Times,serif" text-decoration="underline" font-size="10.00">8a633aa5&#45;907c&#45;4e57&#45;a313&#45;22e0adb2672e :Account</text>
<polygon fill="none" stroke="black" points="1128.5,-126 1128.5,-209 1366.5,-209 1366.5,-126 1128.5,-126"/>
<text text-anchor="start" x="1131.5" y="-198" font-family="Times,serif" font-size="10.00">balance = 0.0</text>
<text text-anchor="start" x="1131.5" y="-187" font-family="Times,serif" font-size="10.00">customerId = &quot;1eaf6f4c&#45;4f92&#45;4e04&#45;bd87&#45;c82be03265de&quot;</text>
<text text-anchor="start" x="1131.5" y="-176" font-family="Times,serif" font-size="10.00">iban = null</text>
<text text-anchor="start" x="1131.5" y="-165" font-family="Times,serif" font-size="10.00">id = &quot;8a633aa5&#45;907c&#45;4e57&#45;a313&#45;22e0adb2672e&quot;</text>
<text text-anchor="start" x="1131.5" y="-154" font-family="Times,serif" font-size="10.00">receivedTransaction = </text>
<text text-anchor="start" x="1131.5" y="-143" font-family="Times,serif" font-size="10.00">sentTransaction = </text>
<text text-anchor="start" x="1131.5" y="-132" font-family="Times,serif" font-size="10.00">status = &quot;ACTIVE&quot;</text>
</g>
<!-- b&#45;&gt;8a633aa5_907c_4e57_a313_22e0adb2672e -->
<g id="edge7" class="edge">
<title>b&#45;&gt;8a633aa5_907c_4e57_a313_22e0adb2672e</title>
<path fill="none" stroke="black" d="M1006.98,-265.88C1037.72,-254.93 1073.9,-241.96 1106.5,-230 1111.04,-228.33 1115.66,-226.63 1120.33,-224.91"/>
<text text-anchor="middle" x="1101.83" y="-227.91" font-family="Times,serif" font-size="10.00">accounts</text>
<text text-anchor="middle" x="996.48" y="-257.88" font-family="Times,serif" font-size="10.00">bank</text>
</g>
<!-- 7ec351d6_652f_4691_8e72_ea432d44a0c8 -->
<g id="node9" class="node">
<title>7ec351d6_652f_4691_8e72_ea432d44a0c8</title>
<polygon fill="none" stroke="black" points="544.5,-209 544.5,-226 778.5,-226 778.5,-209 544.5,-209"/>
<text text-anchor="start" x="554.5" y="-216" font-family="Times,serif" text-decoration="underline" font-size="10.00">7ec351d6&#45;652f&#45;4691&#45;8e72&#45;ea432d44a0c8 :Account</text>
<polygon fill="none" stroke="black" points="544.5,-126 544.5,-209 778.5,-209 778.5,-126 544.5,-126"/>
<text text-anchor="start" x="547.5" y="-198" font-family="Times,serif" font-size="10.00">balance = 100.0</text>
<text text-anchor="start" x="547.5" y="-187" font-family="Times,serif" font-size="10.00">customerId = &quot;e2f7bc4c&#45;ef2a&#45;466e&#45;b8a5&#45;d24f48b13afe&quot;</text>
<text text-anchor="start" x="547.5" y="-176" font-family="Times,serif" font-size="10.00">iban = null</text>
<text text-anchor="start" x="547.5" y="-165" font-family="Times,serif" font-size="10.00">id = &quot;7ec351d6&#45;652f&#45;4691&#45;8e72&#45;ea432d44a0c8&quot;</text>
<text text-anchor="start" x="547.5" y="-154" font-family="Times,serif" font-size="10.00">receivedTransaction = </text>
<text text-anchor="start" x="547.5" y="-143" font-family="Times,serif" font-size="10.00">sentTransaction = </text>
<text text-anchor="start" x="547.5" y="-132" font-family="Times,serif" font-size="10.00">status = &quot;ACTIVE&quot;</text>
</g>
<!-- b&#45;&gt;7ec351d6_652f_4691_8e72_ea432d44a0c8 -->
<g id="edge8" class="edge">
<title>b&#45;&gt;7ec351d6_652f_4691_8e72_ea432d44a0c8</title>
<path fill="none" stroke="black" d="M873.57,-265.95C847.8,-255.14 816.78,-242.13 786.52,-229.43"/>
<text text-anchor="middle" x="805.02" y="-232.43" font-family="Times,serif" font-size="10.00">accounts</text>
<text text-anchor="middle" x="863.07" y="-257.95" font-family="Times,serif" font-size="10.00">bank</text>
</g>
<!-- 87dbddd0_2cd4_4e2b_9096_ccc047075e8c -->
<g id="node10" class="node">
<title>87dbddd0_2cd4_4e2b_9096_ccc047075e8c</title>
<polygon fill="none" stroke="black" points="812.5,-198 812.5,-215 1056.5,-215 1056.5,-198 812.5,-198"/>
<text text-anchor="start" x="815.5" y="-205" font-family="Times,serif" text-decoration="underline" font-size="10.00">87dbddd0&#45;2cd4&#45;4e2b&#45;9096&#45;ccc047075e8c :Administrator</text>
<polygon fill="none" stroke="black" points="812.5,-137 812.5,-198 1056.5,-198 1056.5,-137 812.5,-137"/>
<text text-anchor="start" x="833.5" y="-187" font-family="Times,serif" font-size="10.00">email = &quot;admin@bank.ee&quot;</text>
<text text-anchor="start" x="833.5" y="-176" font-family="Times,serif" font-size="10.00">firstName = &quot;Admin&quot;</text>
<text text-anchor="start" x="833.5" y="-165" font-family="Times,serif" font-size="10.00">id = &quot;87dbddd0&#45;2cd4&#45;4e2b&#45;9096&#45;ccc047075e8c&quot;</text>
<text text-anchor="start" x="833.5" y="-154" font-family="Times,serif" font-size="10.00">lastName = &quot;ALice&quot;</text>
<text text-anchor="start" x="833.5" y="-143" font-family="Times,serif" font-size="10.00">password = &quot;secure_p@ssw0|2d&quot;</text>
</g>
<!-- b&#45;&gt;87dbddd0_2cd4_4e2b_9096_ccc047075e8c -->
<g id="edge11" class="edge">
<title>b&#45;&gt;87dbddd0_2cd4_4e2b_9096_ccc047075e8c</title>
<path fill="none" stroke="black" d="M934.5,-265.8C934.5,-252.09 934.5,-234.86 934.5,-219.24"/>
<text text-anchor="middle" x="905.5" y="-222.24" font-family="Times,serif" font-size="10.00">administrators</text>
<text text-anchor="middle" x="924" y="-257.8" font-family="Times,serif" font-size="10.00">bank</text>
</g>
<!-- e2f7bc4c_ef2a_466e_b8a5_d24f48b13afe -->
<g id="node11" class="node">
<title>e2f7bc4c_ef2a_466e_b8a5_d24f48b13afe</title>
<polygon fill="none" stroke="black" points="735.5,-65 735.5,-82 950.5,-82 950.5,-65 735.5,-65"/>
<text text-anchor="start" x="738.5" y="-72" font-family="Times,serif" text-decoration="underline" font-size="10.00">e2f7bc4c&#45;ef2a&#45;466e&#45;b8a5&#45;d24f48b13afe :Customer</text>
<polygon fill="none" stroke="black" points="735.5,-4 735.5,-65 950.5,-65 950.5,-4 735.5,-4"/>
<text text-anchor="start" x="747.5" y="-54" font-family="Times,serif" font-size="10.00">email = &quot;john@doe.ee&quot;</text>
<text text-anchor="start" x="747.5" y="-43" font-family="Times,serif" font-size="10.00">firstName = &quot;John&quot;</text>
<text text-anchor="start" x="747.5" y="-32" font-family="Times,serif" font-size="10.00">id = &quot;e2f7bc4c&#45;ef2a&#45;466e&#45;b8a5&#45;d24f48b13afe&quot;</text>
<text text-anchor="start" x="747.5" y="-21" font-family="Times,serif" font-size="10.00">lastName = &quot;Doe&quot;</text>
<text text-anchor="start" x="747.5" y="-10" font-family="Times,serif" font-size="10.00">password = &quot;pass1234&quot;</text>
</g>
<!-- b&#45;&gt;e2f7bc4c_ef2a_466e_b8a5_d24f48b13afe -->
<g id="edge12" class="edge">
<title>b&#45;&gt;e2f7bc4c_ef2a_466e_b8a5_d24f48b13afe</title>
<path fill="none" stroke="black" d="M1031.69,-265.98C1048.25,-257.26 1063.35,-245.59 1073.5,-230 1099.69,-189.77 1101.49,-160.99 1073.5,-122 1046.84,-84.86 1001.56,-65.18 958.12,-54.83"/>
<text text-anchor="middle" x="978.62" y="-57.83" font-family="Times,serif" font-size="10.00">customers</text>
<text text-anchor="middle" x="1021.19" y="-257.98" font-family="Times,serif" font-size="10.00">bank</text>
</g>
<!-- 1eaf6f4c_4f92_4e04_bd87_c82be03265de -->
<g id="node12" class="node">
<title>1eaf6f4c_4f92_4e04_bd87_c82be03265de</title>
<polygon fill="none" stroke="black" points="1166.5,-65 1166.5,-82 1385.5,-82 1385.5,-65 1166.5,-65"/>
<text text-anchor="start" x="1169.5" y="-72" font-family="Times,serif" text-decoration="underline" font-size="10.00">1eaf6f4c&#45;4f92&#45;4e04&#45;bd87&#45;c82be03265de :Customer</text>
<polygon fill="none" stroke="black" points="1166.5,-4 1166.5,-65 1385.5,-65 1385.5,-4 1166.5,-4"/>
<text text-anchor="start" x="1178.5" y="-54" font-family="Times,serif" font-size="10.00">email = &quot;bobby@tt.ee&quot;</text>
<text text-anchor="start" x="1178.5" y="-43" font-family="Times,serif" font-size="10.00">firstName = &quot;Bob&quot;</text>
<text text-anchor="start" x="1178.5" y="-32" font-family="Times,serif" font-size="10.00">id = &quot;1eaf6f4c&#45;4f92&#45;4e04&#45;bd87&#45;c82be03265de&quot;</text>
<text text-anchor="start" x="1178.5" y="-21" font-family="Times,serif" font-size="10.00">lastName = &quot;Jackson&quot;</text>
<text text-anchor="start" x="1178.5" y="-10" font-family="Times,serif" font-size="10.00">password = &quot;secret&quot;</text>
</g>
<!-- b&#45;&gt;1eaf6f4c_4f92_4e04_bd87_c82be03265de -->
<g id="edge13" class="edge">
<title>b&#45;&gt;1eaf6f4c_4f92_4e04_bd87_c82be03265de</title>
<path fill="none" stroke="black" d="M1228.1,-265.98C1305.53,-256.31 1371.15,-244.16 1383.5,-230 1415.05,-193.83 1405.35,-164.74 1383.5,-122 1376.45,-108.2 1365.69,-96.28 1353.64,-86.21"/>
<text text-anchor="middle" x="1333.14" y="-89.21" font-family="Times,serif" font-size="10.00">customers</text>
<text text-anchor="middle" x="1217.6" y="-257.98" font-family="Times,serif" font-size="10.00">bank</text>
</g>
<!-- 748fd0ac_3a74_4f6d_b5bc_00d6127c0541 -->
<g id="node13" class="node">
<title>748fd0ac_3a74_4f6d_b5bc_00d6127c0541</title>
<polygon fill="none" stroke="black" points="8.5,-65 8.5,-82 231.5,-82 231.5,-65 8.5,-65"/>
<text text-anchor="start" x="11.5" y="-72" font-family="Times,serif" text-decoration="underline" font-size="10.00">748fd0ac&#45;3a74&#45;4f6d&#45;b5bc&#45;00d6127c0541 :Customer</text>
<polygon fill="none" stroke="black" points="8.5,-4 8.5,-65 231.5,-65 231.5,-4 8.5,-4"/>
<text text-anchor="start" x="20.5" y="-54" font-family="Times,serif" font-size="10.00">email = &quot;johntest@doe.ee&quot;</text>
<text text-anchor="start" x="20.5" y="-43" font-family="Times,serif" font-size="10.00">firstName = &quot;johntest&quot;</text>
<text text-anchor="start" x="20.5" y="-32" font-family="Times,serif" font-size="10.00">id = &quot;748fd0ac&#45;3a74&#45;4f6d&#45;b5bc&#45;00d6127c0541&quot;</text>
<text text-anchor="start" x="20.5" y="-21" font-family="Times,serif" font-size="10.00">lastName = &quot;Doe&quot;</text>
<text text-anchor="start" x="20.5" y="-10" font-family="Times,serif" font-size="10.00">password = &quot;pass1234&quot;</text>
</g>
<!-- b&#45;&gt;748fd0ac_3a74_4f6d_b5bc_00d6127c0541 -->
<g id="edge14" class="edge">
<title>b&#45;&gt;748fd0ac_3a74_4f6d_b5bc_00d6127c0541</title>
<path fill="none" stroke="black" d="M511.22,-287.28C302.96,-280.68 89.36,-265.24 56.5,-230 23.77,-194.89 40.51,-167.26 56.5,-122 61.02,-109.2 68.64,-96.96 77.04,-86.12"/>
<text text-anchor="middle" x="56.54" y="-89.12" font-family="Times,serif" font-size="10.00">customers</text>
<text text-anchor="middle" x="500.72" y="-290.28" font-family="Times,serif" font-size="10.00">bank</text>
</g>
<!-- d2df907f_c536_45d8_a45a_ddd2515af952 -->
<g id="node14" class="node">
<title>d2df907f_c536_45d8_a45a_ddd2515af952</title>
<polygon fill="none" stroke="black" points="1474.5,-65 1474.5,-82 1695.5,-82 1695.5,-65 1474.5,-65"/>
<text text-anchor="start" x="1477.5" y="-72" font-family="Times,serif" text-decoration="underline" font-size="10.00">d2df907f&#45;c536&#45;45d8&#45;a45a&#45;ddd2515af952 :Customer</text>
<polygon fill="none" stroke="black" points="1474.5,-4 1474.5,-65 1695.5,-65 1695.5,-4 1474.5,-4"/>
<text text-anchor="start" x="1486.5" y="-54" font-family="Times,serif" font-size="10.00">email = &quot;bobbytest@tt.ee&quot;</text>
<text text-anchor="start" x="1486.5" y="-43" font-family="Times,serif" font-size="10.00">firstName = &quot;Bob&quot;</text>
<text text-anchor="start" x="1486.5" y="-32" font-family="Times,serif" font-size="10.00">id = &quot;d2df907f&#45;c536&#45;45d8&#45;a45a&#45;ddd2515af952&quot;</text>
<text text-anchor="start" x="1486.5" y="-21" font-family="Times,serif" font-size="10.00">lastName = &quot;Jackson&quot;</text>
<text text-anchor="start" x="1486.5" y="-10" font-family="Times,serif" font-size="10.00">password = &quot;secret&quot;</text>
</g>
<!-- b&#45;&gt;d2df907f_c536_45d8_a45a_ddd2515af952 -->
<g id="edge15" class="edge">
<title>b&#45;&gt;d2df907f_c536_45d8_a45a_ddd2515af952</title>
<path fill="none" stroke="black" d="M1297.26,-266C1346.11,-257.3 1386.85,-245.64 1408.5,-230 1451.69,-198.81 1425.01,-161.73 1460.5,-122 1472.61,-108.44 1487.63,-96.37 1502.99,-86.01"/>
<text text-anchor="middle" x="1482.49" y="-89.01" font-family="Times,serif" font-size="10.00">customers</text>
<text text-anchor="middle" x="1286.76" y="-258" font-family="Times,serif" font-size="10.00">bank</text>
</g>
<!-- 39653f8f_0f0d_4737_a52b_eae64cd5c4fc&#45;&gt;c -->
<g id="edge16" class="edge">
<title>39653f8f_0f0d_4737_a52b_eae64cd5c4fc&#45;&gt;c</title>
<path fill="none" stroke="black" d="M1468.76,-137.73C1440.65,-131.58 1411.28,-125.93 1383.5,-122 1090,-80.42 1012.42,-115.94 717.5,-86 653.46,-79.5 581.69,-68.71 526.71,-59.7"/>
<text text-anchor="middle" x="544.71" y="-62.7" font-family="Times,serif" font-size="10.00">currency</text>
</g>
<!-- 39653f8f_0f0d_4737_a52b_eae64cd5c4fc&#45;&gt;d2df907f_c536_45d8_a45a_ddd2515af952 -->
<g id="edge17" class="edge">
<title>39653f8f_0f0d_4737_a52b_eae64cd5c4fc&#45;&gt;d2df907f_c536_45d8_a45a_ddd2515af952</title>
<path fill="none" stroke="black" d="M1601.11,-121.72C1598.6,-109.96 1595.97,-97.66 1593.56,-86.4"/>
<text text-anchor="middle" x="1580.56" y="-89.4" font-family="Times,serif" font-size="10.00">owner</text>
<text text-anchor="middle" x="1584.61" y="-113.72" font-family="Times,serif" font-size="10.00">account</text>
</g>
<!-- 83079e17_044a_4707_a64b_abb789e7f7d1&#45;&gt;c -->
<g id="edge18" class="edge">
<title>83079e17_044a_4707_a64b_abb789e7f7d1&#45;&gt;c</title>
<path fill="none" stroke="black" d="M296.15,-121.91C332.82,-101.55 372.48,-79.54 400.25,-64.12"/>
<text text-anchor="middle" x="382.25" y="-67.12" font-family="Times,serif" font-size="10.00">currency</text>
</g>
<!-- 83079e17_044a_4707_a64b_abb789e7f7d1&#45;&gt;748fd0ac_3a74_4f6d_b5bc_00d6127c0541 -->
<g id="edge19" class="edge">
<title>83079e17_044a_4707_a64b_abb789e7f7d1&#45;&gt;748fd0ac_3a74_4f6d_b5bc_00d6127c0541</title>
<path fill="none" stroke="black" d="M167.55,-121.72C160.28,-109.96 152.68,-97.66 145.71,-86.4"/>
<text text-anchor="middle" x="132.71" y="-89.4" font-family="Times,serif" font-size="10.00">owner</text>
<text text-anchor="middle" x="151.05" y="-113.72" font-family="Times,serif" font-size="10.00">account</text>
</g>
<!-- sendItToTheBank&#45;&gt;c -->
<g id="edge20" class="edge">
<title>sendItToTheBank&#45;&gt;c</title>
<path fill="none" stroke="black" d="M435.91,-121.72C436.06,-101.46 436.23,-79.58 436.35,-64.22"/>
<text text-anchor="middle" x="418.35" y="-67.22" font-family="Times,serif" font-size="10.00">currency</text>
</g>
<!-- 8a633aa5_907c_4e57_a313_22e0adb2672e&#45;&gt;c -->
<g id="edge21" class="edge">
<title>8a633aa5_907c_4e57_a313_22e0adb2672e&#45;&gt;c</title>
<path fill="none" stroke="black" d="M1120.42,-133.19C1104.73,-128.95 1088.83,-125.08 1073.5,-122 917.59,-90.68 875.3,-105.76 717.5,-86 653.51,-77.99 581.58,-67.2 526.52,-58.57"/>
<text text-anchor="middle" x="544.52" y="-50.57" font-family="Times,serif" font-size="10.00">currency</text>
</g>
<!-- 8a633aa5_907c_4e57_a313_22e0adb2672e&#45;&gt;1eaf6f4c_4f92_4e04_bd87_c82be03265de -->
<g id="edge22" class="edge">
<title>8a633aa5_907c_4e57_a313_22e0adb2672e&#45;&gt;1eaf6f4c_4f92_4e04_bd87_c82be03265de</title>
<path fill="none" stroke="black" d="M1258.89,-121.72C1261.4,-109.96 1264.03,-97.66 1266.44,-86.4"/>
<text text-anchor="middle" x="1253.44" y="-89.4" font-family="Times,serif" font-size="10.00">owner</text>
<text text-anchor="middle" x="1242.39" y="-113.72" font-family="Times,serif" font-size="10.00">account</text>
</g>
<!-- 7ec351d6_652f_4691_8e72_ea432d44a0c8&#45;&gt;c -->
<g id="edge23" class="edge">
<title>7ec351d6_652f_4691_8e72_ea432d44a0c8&#45;&gt;c</title>
<path fill="none" stroke="black" d="M570.31,-121.91C535.35,-101.55 497.54,-79.54 471.06,-64.12"/>
<text text-anchor="middle" x="489.06" y="-67.12" font-family="Times,serif" font-size="10.00">currency</text>
</g>
<!-- 7ec351d6_652f_4691_8e72_ea432d44a0c8&#45;&gt;e2f7bc4c_ef2a_466e_b8a5_d24f48b13afe -->
<g id="edge24" class="edge">
<title>7ec351d6_652f_4691_8e72_ea432d44a0c8&#45;&gt;e2f7bc4c_ef2a_466e_b8a5_d24f48b13afe</title>
<path fill="none" stroke="black" d="M734.86,-121.91C751.32,-109.99 768.57,-97.51 784.32,-86.11"/>
<text text-anchor="middle" x="771.32" y="-89.11" font-family="Times,serif" font-size="10.00">owner</text>
<text text-anchor="middle" x="718.36" y="-113.91" font-family="Times,serif" font-size="10.00">account</text>
</g>
</g>
</svg>
