<?xml version="1.0" encoding="UTF-8" standalone="no"?>
<!DOCTYPE svg PUBLIC "-//W3C//DTD SVG 1.1//EN"
 "http://www.w3.org/Graphics/SVG/1.1/DTD/svg11.dtd">
<!-- Generated by graphviz version 2.44.0 (20200408.0750)
 -->
<!-- Title: model Pages: 1 -->
<svg width="1168px" height="484px"
 viewBox="0.00 0.00 1168.42 484.00" xmlns="http://www.w3.org/2000/svg" xmlns:xlink="http://www.w3.org/1999/xlink">
<g id="graph0" class="graph" transform="scale(1.0 1.0) rotate(0) translate(4 480)">
<title>model</title>
<polygon fill="white" stroke="transparent" points="-4,4 -4,-480 1164.42,-480 1164.42,4 -4,4"/>
<!-- b2842f32_2075_49f5_9cc0_4e0a40477f39 -->
<g id="node1" class="node">
<title>b2842f32_2075_49f5_9cc0_4e0a40477f39</title>
<polygon fill="none" stroke="black" points="96.92,-454 96.92,-472 368.92,-472 368.92,-454 96.92,-454"/>
<text text-anchor="start" x="123.65" y="-461" font-family="Times,serif" text-decoration="underline" font-size="10.00">b2842f32&#45;2075&#45;49f5&#45;9cc0&#45;4e0a40477f39 :Transaction</text>
<polygon fill="none" stroke="black" points="96.92,-388 96.92,-454 368.92,-454 368.92,-388 96.92,-388"/>
<text text-anchor="start" x="99.92" y="-442" font-family="Times,serif" font-size="10.00">amount = 50.0</text>
<text text-anchor="start" x="99.92" y="-430" font-family="Times,serif" font-size="10.00">description = &quot;Expensive fee&quot;</text>
<text text-anchor="start" x="99.92" y="-418" font-family="Times,serif" font-size="10.00">id = &quot;b2842f32&#45;2075&#45;49f5&#45;9cc0&#45;4e0a40477f39&quot;</text>
<text text-anchor="start" x="99.92" y="-406" font-family="Times,serif" font-size="10.00">rejectionDescription = &quot;Not enough money on the source account&quot;</text>
<text text-anchor="start" x="99.92" y="-394" font-family="Times,serif" font-size="10.00">timestamp = 2021&#45;12&#45;10T00:12:54.057312200</text>
</g>
<!-- b -->
<g id="node2" class="node">
<title>b</title>
<polygon fill="none" stroke="black" points="268.92,-326 268.92,-344 916.92,-344 916.92,-326 268.92,-326"/>
<text text-anchor="start" x="577.22" y="-333" font-family="Times,serif" text-decoration="underline" font-size="10.00">b :Bank</text>
<polygon fill="none" stroke="black" points="268.92,-296 268.92,-326 916.92,-326 916.92,-296 268.92,-296"/>
<text text-anchor="start" x="271.92" y="-314" font-family="Times,serif" font-size="10.00">accountsMap = 27b677f5&#45;0c97&#45;427c&#45;8897&#45;28663969c002sendItToTheBank8a633aa5&#45;907c&#45;4e57&#45;a313&#45;22e0adb2672e7ec351d6&#45;652f&#45;4691&#45;8e72&#45;ea432d44a0c8</text>
<text text-anchor="start" x="271.92" y="-302" font-family="Times,serif" font-size="10.00">customerMap = e2f7bc4c&#45;ef2a&#45;466e&#45;b8a5&#45;d24f48b13afed733106f&#45;64cd&#45;4ebb&#45;821f&#45;34d3efbbcce81eaf6f4c&#45;4f92&#45;4e04&#45;bd87&#45;c82be03265de</text>
</g>
<!-- b2842f32_2075_49f5_9cc0_4e0a40477f39&#45;&gt;b -->
<g id="edge1" class="edge">
<title>b2842f32_2075_49f5_9cc0_4e0a40477f39&#45;&gt;b</title>
<path fill="none" stroke="black" d="M377.01,-385.77C419.48,-373.03 464.74,-359.45 502.78,-348.04"/>
<text text-anchor="middle" x="493.07" y="-351.04" font-family="Times,serif" font-size="10.00">bank</text>
<text text-anchor="middle" x="400.89" y="-388.77" font-family="Times,serif" font-size="10.00">transactions</text>
</g>
<!-- c -->
<g id="node3" class="node">
<title>c</title>
<polygon fill="none" stroke="black" points="165.92,-46 165.92,-64 327.92,-64 327.92,-46 165.92,-46"/>
<text text-anchor="start" x="223.45" y="-53" font-family="Times,serif" text-decoration="underline" font-size="10.00">c :Currency</text>
<polygon fill="none" stroke="black" points="165.92,-28 165.92,-46 327.92,-46 327.92,-28 165.92,-28"/>
<text text-anchor="start" x="168.92" y="-34" font-family="Times,serif" font-size="10.00">declaringClass = class model.Currency</text>
</g>
<!-- b2842f32_2075_49f5_9cc0_4e0a40477f39&#45;&gt;c -->
<g id="edge2" class="edge">
<title>b2842f32_2075_49f5_9cc0_4e0a40477f39&#45;&gt;c</title>
<path fill="none" stroke="black" d="M147.41,-383.95C101.02,-354.39 47.95,-311.02 21.92,-256 -2.42,-204.58 -10.8,-174.54 21.92,-128 52.59,-84.35 109.16,-64.11 157.9,-54.78"/>
<text text-anchor="middle" x="140.42" y="-57.78" font-family="Times,serif" font-size="10.00">currency</text>
</g>
<!-- sendItToTheBank -->
<g id="node4" class="node">
<title>sendItToTheBank</title>
<polygon fill="none" stroke="black" points="38.92,-234 38.92,-252 182.92,-252 182.92,-234 38.92,-234"/>
<text text-anchor="start" x="55.24" y="-241" font-family="Times,serif" text-decoration="underline" font-size="10.00">sendItToTheBank :Account</text>
<polygon fill="none" stroke="black" points="38.92,-132 38.92,-234 182.92,-234 182.92,-132 38.92,-132"/>
<text text-anchor="start" x="41.92" y="-222" font-family="Times,serif" font-size="10.00">balance = 69420.0</text>
<text text-anchor="start" x="41.92" y="-210" font-family="Times,serif" font-size="10.00">count = 0</text>
<text text-anchor="start" x="41.92" y="-198" font-family="Times,serif" font-size="10.00">customerId = null</text>
<text text-anchor="start" x="41.92" y="-186" font-family="Times,serif" font-size="10.00">iban = &quot;EE668440762266344458&quot;</text>
<text text-anchor="start" x="41.92" y="-174" font-family="Times,serif" font-size="10.00">id = &quot;sendItToTheBank&quot;</text>
<text text-anchor="start" x="41.92" y="-162" font-family="Times,serif" font-size="10.00">receivedTransaction = </text>
<text text-anchor="start" x="41.92" y="-150" font-family="Times,serif" font-size="10.00">sentTransaction = </text>
<text text-anchor="start" x="41.92" y="-138" font-family="Times,serif" font-size="10.00">status = &quot;ACTIVE&quot;</text>
</g>
<!-- b2842f32_2075_49f5_9cc0_4e0a40477f39&#45;&gt;sendItToTheBank -->
<g id="edge3" class="edge">
<title>b2842f32_2075_49f5_9cc0_4e0a40477f39&#45;&gt;sendItToTheBank</title>
<path fill="none" stroke="black" d="M209.54,-383.78C190.86,-347.64 164.45,-296.56 143.67,-256.35"/>
<text text-anchor="middle" x="121.72" y="-259.35" font-family="Times,serif" font-size="10.00">destination</text>
</g>
<!-- 27b677f5_0c97_427c_8897_28663969c002 -->
<g id="node5" class="node">
<title>27b677f5_0c97_427c_8897_28663969c002</title>
<polygon fill="none" stroke="black" points="217.92,-234 217.92,-252 432.92,-252 432.92,-234 217.92,-234"/>
<text text-anchor="start" x="220.86" y="-241" font-family="Times,serif" text-decoration="underline" font-size="10.00">27b677f5&#45;0c97&#45;427c&#45;8897&#45;28663969c002 :Account</text>
<polygon fill="none" stroke="black" points="217.92,-132 217.92,-234 432.92,-234 432.92,-132 217.92,-132"/>
<text text-anchor="start" x="227.15" y="-222" font-family="Times,serif" font-size="10.00">balance = 10.0</text>
<text text-anchor="start" x="227.15" y="-210" font-family="Times,serif" font-size="10.00">count = 0</text>
<text text-anchor="start" x="227.15" y="-198" font-family="Times,serif" font-size="10.00">customerId = null</text>
<text text-anchor="start" x="227.15" y="-186" font-family="Times,serif" font-size="10.00">iban = &quot;EE460703921664097820&quot;</text>
<text text-anchor="start" x="227.15" y="-174" font-family="Times,serif" font-size="10.00">id = &quot;27b677f5&#45;0c97&#45;427c&#45;8897&#45;28663969c002&quot;</text>
<text text-anchor="start" x="227.15" y="-162" font-family="Times,serif" font-size="10.00">receivedTransaction = </text>
<text text-anchor="start" x="227.15" y="-150" font-family="Times,serif" font-size="10.00">sentTransaction = </text>
<text text-anchor="start" x="227.15" y="-138" font-family="Times,serif" font-size="10.00">status = &quot;ACTIVE&quot;</text>
</g>
<!-- b2842f32_2075_49f5_9cc0_4e0a40477f39&#45;&gt;27b677f5_0c97_427c_8897_28663969c002 -->
<g id="edge4" class="edge">
<title>b2842f32_2075_49f5_9cc0_4e0a40477f39&#45;&gt;27b677f5_0c97_427c_8897_28663969c002</title>
<path fill="none" stroke="black" d="M233.6,-383.75C235.36,-356.33 240.06,-321.13 251.92,-292 256.91,-279.74 263.76,-267.61 271.29,-256.27"/>
<text text-anchor="middle" x="258.24" y="-259.27" font-family="Times,serif" font-size="10.00">source</text>
</g>
<!-- s -->
<g id="node6" class="node">
<title>s</title>
<polygon fill="none" stroke="black" points="951.92,-320 951.92,-338 1152.92,-338 1152.92,-320 951.92,-320"/>
<text text-anchor="start" x="1035.61" y="-327" font-family="Times,serif" text-decoration="underline" font-size="10.00">s :Status</text>
<polygon fill="none" stroke="black" points="951.92,-302 951.92,-320 1152.92,-320 1152.92,-302 951.92,-302"/>
<text text-anchor="start" x="954.92" y="-308" font-family="Times,serif" font-size="10.00">declaringClass = class model.Transaction$Status</text>
</g>
<!-- b2842f32_2075_49f5_9cc0_4e0a40477f39&#45;&gt;s -->
<g id="edge5" class="edge">
<title>b2842f32_2075_49f5_9cc0_4e0a40477f39&#45;&gt;s</title>
<path fill="none" stroke="black" d="M377.23,-417C519.42,-404.07 742.53,-380.85 933.92,-348 943.96,-346.28 954.44,-344.24 964.82,-342.06"/>
<text text-anchor="middle" x="953.43" y="-345.06" font-family="Times,serif" font-size="10.00">status</text>
</g>
<!-- b&#45;&gt;sendItToTheBank -->
<g id="edge6" class="edge">
<title>b&#45;&gt;sendItToTheBank</title>
<path fill="none" stroke="black" d="M320.5,-291.97C279.23,-283.15 237.82,-271.47 199.92,-256 196.94,-254.78 193.96,-253.45 191,-252.02"/>
<text text-anchor="middle" x="217.66" y="-255.02" font-family="Times,serif" font-size="10.00">bankAccount</text>
<text text-anchor="middle" x="310.78" y="-282.97" font-family="Times,serif" font-size="10.00">bank</text>
</g>
<!-- b&#45;&gt;27b677f5_0c97_427c_8897_28663969c002 -->
<g id="edge9" class="edge">
<title>b&#45;&gt;27b677f5_0c97_427c_8897_28663969c002</title>
<path fill="none" stroke="black" d="M532.66,-291.86C508.44,-280.85 480.3,-267.94 454.92,-256 450.26,-253.81 445.52,-251.57 440.74,-249.3"/>
<text text-anchor="middle" x="458.23" y="-252.3" font-family="Times,serif" font-size="10.00">accounts</text>
<text text-anchor="middle" x="522.94" y="-282.86" font-family="Times,serif" font-size="10.00">bank</text>
</g>
<!-- 8a633aa5_907c_4e57_a313_22e0adb2672e -->
<g id="node7" class="node">
<title>8a633aa5_907c_4e57_a313_22e0adb2672e</title>
<polygon fill="none" stroke="black" points="808.92,-234 808.92,-252 1042.92,-252 1042.92,-234 808.92,-234"/>
<text text-anchor="start" x="822.21" y="-241" font-family="Times,serif" text-decoration="underline" font-size="10.00">8a633aa5&#45;907c&#45;4e57&#45;a313&#45;22e0adb2672e :Account</text>
<polygon fill="none" stroke="black" points="808.92,-132 808.92,-234 1042.92,-234 1042.92,-132 808.92,-132"/>
<text text-anchor="start" x="811.92" y="-222" font-family="Times,serif" font-size="10.00">balance = 0.0</text>
<text text-anchor="start" x="811.92" y="-210" font-family="Times,serif" font-size="10.00">count = 0</text>
<text text-anchor="start" x="811.92" y="-198" font-family="Times,serif" font-size="10.00">customerId = &quot;1eaf6f4c&#45;4f92&#45;4e04&#45;bd87&#45;c82be03265de&quot;</text>
<text text-anchor="start" x="811.92" y="-186" font-family="Times,serif" font-size="10.00">iban = &quot;EE500467859057350272&quot;</text>
<text text-anchor="start" x="811.92" y="-174" font-family="Times,serif" font-size="10.00">id = &quot;8a633aa5&#45;907c&#45;4e57&#45;a313&#45;22e0adb2672e&quot;</text>
<text text-anchor="start" x="811.92" y="-162" font-family="Times,serif" font-size="10.00">receivedTransaction = </text>
<text text-anchor="start" x="811.92" y="-150" font-family="Times,serif" font-size="10.00">sentTransaction = </text>
<text text-anchor="start" x="811.92" y="-138" font-family="Times,serif" font-size="10.00">status = &quot;ACTIVE&quot;</text>
</g>
<!-- b&#45;&gt;8a633aa5_907c_4e57_a313_22e0adb2672e -->
<g id="edge7" class="edge">
<title>b&#45;&gt;8a633aa5_907c_4e57_a313_22e0adb2672e</title>
<path fill="none" stroke="black" d="M683.48,-291.9C716.34,-281.46 753.57,-268.93 786.92,-256 791.49,-254.23 796.12,-252.38 800.79,-250.49"/>
<text text-anchor="middle" x="783.3" y="-253.49" font-family="Times,serif" font-size="10.00">accounts</text>
<text text-anchor="middle" x="673.76" y="-282.9" font-family="Times,serif" font-size="10.00">bank</text>
</g>
<!-- 7ec351d6_652f_4691_8e72_ea432d44a0c8 -->
<g id="node8" class="node">
<title>7ec351d6_652f_4691_8e72_ea432d44a0c8</title>
<polygon fill="none" stroke="black" points="505.92,-234 505.92,-252 736.92,-252 736.92,-234 505.92,-234"/>
<text text-anchor="start" x="517.98" y="-241" font-family="Times,serif" text-decoration="underline" font-size="10.00">7ec351d6&#45;652f&#45;4691&#45;8e72&#45;ea432d44a0c8 :Account</text>
<polygon fill="none" stroke="black" points="505.92,-132 505.92,-234 736.92,-234 736.92,-132 505.92,-132"/>
<text text-anchor="start" x="508.92" y="-222" font-family="Times,serif" font-size="10.00">balance = 100.0</text>
<text text-anchor="start" x="508.92" y="-210" font-family="Times,serif" font-size="10.00">count = 0</text>
<text text-anchor="start" x="508.92" y="-198" font-family="Times,serif" font-size="10.00">customerId = &quot;e2f7bc4c&#45;ef2a&#45;466e&#45;b8a5&#45;d24f48b13afe&quot;</text>
<text text-anchor="start" x="508.92" y="-186" font-family="Times,serif" font-size="10.00">iban = &quot;EE508166157234538669&quot;</text>
<text text-anchor="start" x="508.92" y="-174" font-family="Times,serif" font-size="10.00">id = &quot;7ec351d6&#45;652f&#45;4691&#45;8e72&#45;ea432d44a0c8&quot;</text>
<text text-anchor="start" x="508.92" y="-162" font-family="Times,serif" font-size="10.00">receivedTransaction = </text>
<text text-anchor="start" x="508.92" y="-150" font-family="Times,serif" font-size="10.00">sentTransaction = </text>
<text text-anchor="start" x="508.92" y="-138" font-family="Times,serif" font-size="10.00">status = &quot;ACTIVE&quot;</text>
</g>
<!-- b&#45;&gt;7ec351d6_652f_4691_8e72_ea432d44a0c8 -->
<g id="edge8" class="edge">
<title>b&#45;&gt;7ec351d6_652f_4691_8e72_ea432d44a0c8</title>
<path fill="none" stroke="black" d="M598.92,-291.97C601.27,-281.41 604.07,-268.83 606.86,-256.23"/>
<text text-anchor="middle" x="589.37" y="-259.23" font-family="Times,serif" font-size="10.00">accounts</text>
<text text-anchor="middle" x="589.2" y="-282.97" font-family="Times,serif" font-size="10.00">bank</text>
</g>
<!-- e2f7bc4c_ef2a_466e_b8a5_d24f48b13afe -->
<g id="node9" class="node">
<title>e2f7bc4c_ef2a_466e_b8a5_d24f48b13afe</title>
<polygon fill="none" stroke="black" points="638.92,-70 638.92,-88 849.92,-88 849.92,-70 638.92,-70"/>
<text text-anchor="start" x="641.54" y="-77" font-family="Times,serif" text-decoration="underline" font-size="10.00">e2f7bc4c&#45;ef2a&#45;466e&#45;b8a5&#45;d24f48b13afe :Customer</text>
<polygon fill="none" stroke="black" points="638.92,-4 638.92,-70 849.92,-70 849.92,-4 638.92,-4"/>
<text text-anchor="start" x="650.34" y="-58" font-family="Times,serif" font-size="10.00">email = &quot;john@doe.ee&quot;</text>
<text text-anchor="start" x="650.34" y="-46" font-family="Times,serif" font-size="10.00">firstName = &quot;John&quot;</text>
<text text-anchor="start" x="650.34" y="-34" font-family="Times,serif" font-size="10.00">id = &quot;e2f7bc4c&#45;ef2a&#45;466e&#45;b8a5&#45;d24f48b13afe&quot;</text>
<text text-anchor="start" x="650.34" y="-22" font-family="Times,serif" font-size="10.00">lastName = &quot;Doe&quot;</text>
<text text-anchor="start" x="650.34" y="-10" font-family="Times,serif" font-size="10.00">password = &quot;pass1234&quot;</text>
</g>
<!-- b&#45;&gt;e2f7bc4c_ef2a_466e_b8a5_d24f48b13afe -->
<g id="edge10" class="edge">
<title>b&#45;&gt;e2f7bc4c_ef2a_466e_b8a5_d24f48b13afe</title>
<path fill="none" stroke="black" d="M711.69,-291.99C728.33,-283.18 743.34,-271.49 753.92,-256 786.89,-207.69 774.43,-137.48 760.65,-92.03"/>
<text text-anchor="middle" x="740.37" y="-95.03" font-family="Times,serif" font-size="10.00">customers</text>
<text text-anchor="middle" x="701.97" y="-282.99" font-family="Times,serif" font-size="10.00">bank</text>
</g>
<!-- 1eaf6f4c_4f92_4e04_bd87_c82be03265de -->
<g id="node10" class="node">
<title>1eaf6f4c_4f92_4e04_bd87_c82be03265de</title>
<polygon fill="none" stroke="black" points="927.92,-70 927.92,-88 1141.92,-88 1141.92,-70 927.92,-70"/>
<text text-anchor="start" x="930.65" y="-77" font-family="Times,serif" text-decoration="underline" font-size="10.00">1eaf6f4c&#45;4f92&#45;4e04&#45;bd87&#45;c82be03265de :Customer</text>
<polygon fill="none" stroke="black" points="927.92,-4 927.92,-70 1141.92,-70 1141.92,-4 927.92,-4"/>
<text text-anchor="start" x="939.44" y="-58" font-family="Times,serif" font-size="10.00">email = &quot;bobby@tt.ee&quot;</text>
<text text-anchor="start" x="939.44" y="-46" font-family="Times,serif" font-size="10.00">firstName = &quot;Bob&quot;</text>
<text text-anchor="start" x="939.44" y="-34" font-family="Times,serif" font-size="10.00">id = &quot;1eaf6f4c&#45;4f92&#45;4e04&#45;bd87&#45;c82be03265de&quot;</text>
<text text-anchor="start" x="939.44" y="-22" font-family="Times,serif" font-size="10.00">lastName = &quot;Jackson&quot;</text>
<text text-anchor="start" x="939.44" y="-10" font-family="Times,serif" font-size="10.00">password = &quot;secret&quot;</text>
</g>
<!-- b&#45;&gt;1eaf6f4c_4f92_4e04_bd87_c82be03265de -->
<g id="edge11" class="edge">
<title>b&#45;&gt;1eaf6f4c_4f92_4e04_bd87_c82be03265de</title>
<path fill="none" stroke="black" d="M907.39,-291.96C983.91,-282.25 1047.55,-270.15 1059.92,-256 1099,-211.29 1078.39,-139.13 1058.13,-92.38"/>
<text text-anchor="middle" x="1037.85" y="-95.38" font-family="Times,serif" font-size="10.00">customers</text>
<text text-anchor="middle" x="897.67" y="-282.96" font-family="Times,serif" font-size="10.00">bank</text>
</g>
<!-- d733106f_64cd_4ebb_821f_34d3efbbcce8 -->
<g id="node11" class="node">
<title>d733106f_64cd_4ebb_821f_34d3efbbcce8</title>
<polygon fill="none" stroke="black" points="361.92,-70 361.92,-88 576.92,-88 576.92,-70 361.92,-70"/>
<text text-anchor="start" x="364.87" y="-77" font-family="Times,serif" text-decoration="underline" font-size="10.00">d733106f&#45;64cd&#45;4ebb&#45;821f&#45;34d3efbbcce8 :Customer</text>
<polygon fill="none" stroke="black" points="361.92,-4 361.92,-70 576.92,-70 576.92,-4 361.92,-4"/>
<text text-anchor="start" x="373.66" y="-58" font-family="Times,serif" font-size="10.00">email = &quot;johntest@doe.ee&quot;</text>
<text text-anchor="start" x="373.66" y="-46" font-family="Times,serif" font-size="10.00">firstName = &quot;johntest&quot;</text>
<text text-anchor="start" x="373.66" y="-34" font-family="Times,serif" font-size="10.00">id = &quot;d733106f&#45;64cd&#45;4ebb&#45;821f&#45;34d3efbbcce8&quot;</text>
<text text-anchor="start" x="373.66" y="-22" font-family="Times,serif" font-size="10.00">lastName = &quot;Doe&quot;</text>
<text text-anchor="start" x="373.66" y="-10" font-family="Times,serif" font-size="10.00">password = &quot;pass1234&quot;</text>
</g>
<!-- b&#45;&gt;d733106f_64cd_4ebb_821f_34d3efbbcce8 -->
<g id="edge12" class="edge">
<title>b&#45;&gt;d733106f_64cd_4ebb_821f_34d3efbbcce8</title>
<path fill="none" stroke="black" d="M526.45,-291.88C511.46,-282.68 497.24,-270.85 487.92,-256 456.93,-206.63 457.25,-137.33 461.85,-92.3"/>
<text text-anchor="middle" x="482.12" y="-95.3" font-family="Times,serif" font-size="10.00">customers</text>
<text text-anchor="middle" x="536.17" y="-282.88" font-family="Times,serif" font-size="10.00">bank</text>
</g>
<!-- sendItToTheBank&#45;&gt;c -->
<g id="edge13" class="edge">
<title>sendItToTheBank&#45;&gt;c</title>
<path fill="none" stroke="black" d="M170.57,-127.84C190.84,-106.38 212.11,-83.85 227.04,-68.05"/>
<text text-anchor="middle" x="209.55" y="-71.05" font-family="Times,serif" font-size="10.00">currency</text>
</g>
<!-- 27b677f5_0c97_427c_8897_28663969c002&#45;&gt;c -->
<g id="edge14" class="edge">
<title>27b677f5_0c97_427c_8897_28663969c002&#45;&gt;c</title>
<path fill="none" stroke="black" d="M290.7,-127.84C279.08,-106.38 266.88,-83.85 258.32,-68.05"/>
<text text-anchor="middle" x="275.8" y="-71.05" font-family="Times,serif" font-size="10.00">currency</text>
</g>
<!-- 27b677f5_0c97_427c_8897_28663969c002&#45;&gt;d733106f_64cd_4ebb_821f_34d3efbbcce8 -->
<g id="edge15" class="edge">
<title>27b677f5_0c97_427c_8897_28663969c002&#45;&gt;d733106f_64cd_4ebb_821f_34d3efbbcce8</title>
<path fill="none" stroke="black" d="M388.08,-127.84C400.02,-115.9 412.29,-103.63 423.54,-92.37"/>
<text text-anchor="middle" x="411.05" y="-95.37" font-family="Times,serif" font-size="10.00">owner</text>
<text text-anchor="middle" x="372.53" y="-118.84" font-family="Times,serif" font-size="10.00">account</text>
</g>
<!-- 8a633aa5_907c_4e57_a313_22e0adb2672e&#45;&gt;c -->
<g id="edge16" class="edge">
<title>8a633aa5_907c_4e57_a313_22e0adb2672e&#45;&gt;c</title>
<path fill="none" stroke="black" d="M800.71,-140.84C785.13,-135.88 769.28,-131.43 753.92,-128 575.38,-88.2 520.65,-139.2 343.92,-92 323.47,-86.54 302,-77.02 284.47,-68.14"/>
<text text-anchor="middle" x="301.96" y="-71.14" font-family="Times,serif" font-size="10.00">currency</text>
</g>
<!-- 8a633aa5_907c_4e57_a313_22e0adb2672e&#45;&gt;1eaf6f4c_4f92_4e04_bd87_c82be03265de -->
<g id="edge17" class="edge">
<title>8a633aa5_907c_4e57_a313_22e0adb2672e&#45;&gt;1eaf6f4c_4f92_4e04_bd87_c82be03265de</title>
<path fill="none" stroke="black" d="M973.73,-127.84C982.76,-115.9 992.05,-103.63 1000.57,-92.37"/>
<text text-anchor="middle" x="988.08" y="-95.37" font-family="Times,serif" font-size="10.00">owner</text>
<text text-anchor="middle" x="958.18" y="-118.84" font-family="Times,serif" font-size="10.00">account</text>
</g>
<!-- 7ec351d6_652f_4691_8e72_ea432d44a0c8&#45;&gt;c -->
<g id="edge18" class="edge">
<title>7ec351d6_652f_4691_8e72_ea432d44a0c8&#45;&gt;c</title>
<path fill="none" stroke="black" d="M497.02,-145.27C480.85,-139.41 464.5,-133.53 448.92,-128 402.42,-111.52 389.69,-110.41 343.92,-92 326,-84.8 306.64,-76.02 289.95,-68.14"/>
<text text-anchor="middle" x="272.46" y="-59.14" font-family="Times,serif" font-size="10.00">currency</text>
</g>
<!-- 7ec351d6_652f_4691_8e72_ea432d44a0c8&#45;&gt;e2f7bc4c_ef2a_466e_b8a5_d24f48b13afe -->
<g id="edge19" class="edge">
<title>7ec351d6_652f_4691_8e72_ea432d44a0c8&#45;&gt;e2f7bc4c_ef2a_466e_b8a5_d24f48b13afe</title>
<path fill="none" stroke="black" d="M674.87,-127.84C685.06,-115.9 695.54,-103.63 705.16,-92.37"/>
<text text-anchor="middle" x="692.67" y="-95.37" font-family="Times,serif" font-size="10.00">owner</text>
<text text-anchor="middle" x="659.32" y="-118.84" font-family="Times,serif" font-size="10.00">account</text>
</g>
</g>
</svg>
