<?xml version="1.0" encoding="UTF-8" standalone="no"?>
<!DOCTYPE svg PUBLIC "-//W3C//DTD SVG 1.1//EN"
 "http://www.w3.org/Graphics/SVG/1.1/DTD/svg11.dtd">
<!-- Generated by graphviz version 2.44.0 (20200408.0750)
 -->
<!-- Pages: 1 -->
<svg width="1099px" height="392px"
 viewBox="0.00 0.00 1099.00 392.00" xmlns="http://www.w3.org/2000/svg" xmlns:xlink="http://www.w3.org/1999/xlink">
<g id="graph0" class="graph" transform="scale(1.0 1.0) rotate(0) translate(4 388)">
<polygon fill="white" stroke="transparent" points="-4,4 -4,-388 1095,-388 1095,4 -4,4"/>
<!-- b -->
<g id="node1" class="node">
<title>b</title>
<polygon fill="none" stroke="black" points="737.5,-360 737.5,-378 774.5,-378 774.5,-360 737.5,-360"/>
<text text-anchor="start" x="740.31" y="-367" font-family="Times,serif" text-decoration="underline" font-size="10.00">b :Bank</text>
<polygon fill="none" stroke="black" points="737.5,-354 737.5,-360 774.5,-360 774.5,-354 737.5,-354"/>
</g>
<!-- 46b9b72f_980d_492b_930b_11f5fd878b45 -->
<g id="node2" class="node">
<title>46b9b72f_980d_492b_930b_11f5fd878b45</title>
<polygon fill="none" stroke="black" points="553.5,-162 553.5,-180 766.5,-180 766.5,-162 553.5,-162"/>
<text text-anchor="start" x="556.27" y="-169" font-family="Times,serif" text-decoration="underline" font-size="10.00">46b9b72f&#45;980d&#45;492b&#45;930b&#45;11f5fd878b45 :Account</text>
<polygon fill="none" stroke="black" points="553.5,-132 553.5,-162 766.5,-162 766.5,-132 553.5,-132"/>
<text text-anchor="start" x="562.56" y="-150" font-family="Times,serif" font-size="10.00">balance = 69420.0</text>
<text text-anchor="start" x="562.56" y="-138" font-family="Times,serif" font-size="10.00">id = &quot;46b9b72f&#45;980d&#45;492b&#45;930b&#45;11f5fd878b45&quot;</text>
</g>
<!-- b&#45;&gt;46b9b72f_980d_492b_930b_11f5fd878b45 -->
<g id="edge1" class="edge">
<title>b&#45;&gt;46b9b72f_980d_492b_930b_11f5fd878b45</title>
<path fill="none" stroke="black" d="M756.99,-347.67C758.63,-319.13 758.49,-261.3 735.5,-220 727.75,-206.07 715.6,-193.95 703.27,-184.16"/>
<text text-anchor="middle" x="676.61" y="-187.16" font-family="Times,serif" font-size="10.00">bankAccount</text>
<text text-anchor="middle" x="747.27" y="-338.67" font-family="Times,serif" font-size="10.00">bank</text>
</g>
<!-- 4f6bea81_a93e_4c49_a940_3e1c706c6de4 -->
<g id="node3" class="node">
<title>4f6bea81_a93e_4c49_a940_3e1c706c6de4</title>
<polygon fill="none" stroke="black" points="61.5,-162 61.5,-180 272.5,-180 272.5,-162 61.5,-162"/>
<text text-anchor="start" x="64.41" y="-169" font-family="Times,serif" text-decoration="underline" font-size="10.00">4f6bea81&#45;a93e&#45;4c49&#45;a940&#45;3e1c706c6de4 :Account</text>
<polygon fill="none" stroke="black" points="61.5,-132 61.5,-162 272.5,-162 272.5,-132 61.5,-132"/>
<text text-anchor="start" x="70.69" y="-150" font-family="Times,serif" font-size="10.00">balance = 200.0</text>
<text text-anchor="start" x="70.69" y="-138" font-family="Times,serif" font-size="10.00">id = &quot;4f6bea81&#45;a93e&#45;4c49&#45;a940&#45;3e1c706c6de4&quot;</text>
</g>
<!-- b&#45;&gt;4f6bea81_a93e_4c49_a940_3e1c706c6de4 -->
<g id="edge2" class="edge">
<title>b&#45;&gt;4f6bea81_a93e_4c49_a940_3e1c706c6de4</title>
<path fill="none" stroke="black" d="M728.29,-364.44C620.17,-361.93 224.85,-350.21 185.5,-312 151.56,-279.04 155.06,-219 160.73,-184.1"/>
<text text-anchor="middle" x="143.24" y="-187.1" font-family="Times,serif" font-size="10.00">accounts</text>
<text text-anchor="middle" x="718.57" y="-355.44" font-family="Times,serif" font-size="10.00">bank</text>
</g>
<!-- 1c9ca086_d1bd_443c_8fd6_91e28e764fd1 -->
<g id="node4" class="node">
<title>1c9ca086_d1bd_443c_8fd6_91e28e764fd1</title>
<polygon fill="none" stroke="black" points="800.5,-162 800.5,-180 1011.5,-180 1011.5,-162 800.5,-162"/>
<text text-anchor="start" x="803.12" y="-169" font-family="Times,serif" text-decoration="underline" font-size="10.00">1c9ca086&#45;d1bd&#45;443c&#45;8fd6&#45;91e28e764fd1 :Account</text>
<polygon fill="none" stroke="black" points="800.5,-132 800.5,-162 1011.5,-162 1011.5,-132 800.5,-132"/>
<text text-anchor="start" x="809.41" y="-150" font-family="Times,serif" font-size="10.00">balance = 300.0</text>
<text text-anchor="start" x="809.41" y="-138" font-family="Times,serif" font-size="10.00">id = &quot;1c9ca086&#45;d1bd&#45;443c&#45;8fd6&#45;91e28e764fd1&quot;</text>
</g>
<!-- b&#45;&gt;1c9ca086_d1bd_443c_8fd6_91e28e764fd1 -->
<g id="edge3" class="edge">
<title>b&#45;&gt;1c9ca086_d1bd_443c_8fd6_91e28e764fd1</title>
<path fill="none" stroke="black" d="M758.8,-347.68C765.05,-318.66 780.89,-259.49 812.5,-220 823.71,-205.99 838.88,-193.92 853.7,-184.19"/>
<text text-anchor="middle" x="836.21" y="-187.19" font-family="Times,serif" font-size="10.00">accounts</text>
<text text-anchor="middle" x="768.52" y="-338.68" font-family="Times,serif" font-size="10.00">bank</text>
</g>
<!-- dfd1490f_3517_4772_9455_9b4d89657d10 -->
<g id="node5" class="node">
<title>dfd1490f_3517_4772_9455_9b4d89657d10</title>
<polygon fill="none" stroke="black" points="482.5,-290 482.5,-308 719.5,-308 719.5,-290 482.5,-290"/>
<text text-anchor="start" x="485.32" y="-297" font-family="Times,serif" text-decoration="underline" font-size="10.00">dfd1490f&#45;3517&#45;4772&#45;9455&#45;9b4d89657d10 :Administrator</text>
<polygon fill="none" stroke="black" points="482.5,-224 482.5,-290 719.5,-290 719.5,-224 482.5,-224"/>
<text text-anchor="start" x="502.72" y="-278" font-family="Times,serif" font-size="10.00">email = &quot;admin@bank.ee&quot;</text>
<text text-anchor="start" x="502.72" y="-266" font-family="Times,serif" font-size="10.00">firstName = &quot;Admin&quot;</text>
<text text-anchor="start" x="502.72" y="-254" font-family="Times,serif" font-size="10.00">id = &quot;dfd1490f&#45;3517&#45;4772&#45;9455&#45;9b4d89657d10&quot;</text>
<text text-anchor="start" x="502.72" y="-242" font-family="Times,serif" font-size="10.00">lastName = &quot;Alice&quot;</text>
<text text-anchor="start" x="502.72" y="-230" font-family="Times,serif" font-size="10.00">password = &quot;secure_p@ssw0|2d&quot;</text>
</g>
<!-- b&#45;&gt;dfd1490f_3517_4772_9455_9b4d89657d10 -->
<g id="edge4" class="edge">
<title>b&#45;&gt;dfd1490f_3517_4772_9455_9b4d89657d10</title>
<path fill="none" stroke="black" d="M728.5,-347.93C712.72,-337.95 691.98,-324.84 671.8,-312.08"/>
<text text-anchor="middle" x="643.2" y="-315.08" font-family="Times,serif" font-size="10.00">administrators</text>
<text text-anchor="middle" x="718.78" y="-338.93" font-family="Times,serif" font-size="10.00">bank</text>
</g>
<!-- e9c3579a_caf0_41d1_aaff_81bb99a492c3 -->
<g id="node6" class="node">
<title>e9c3579a_caf0_41d1_aaff_81bb99a492c3</title>
<polygon fill="none" stroke="black" points="8.5,-70 8.5,-88 221.5,-88 221.5,-70 8.5,-70"/>
<text text-anchor="start" x="11.29" y="-77" font-family="Times,serif" text-decoration="underline" font-size="10.00">e9c3579a&#45;caf0&#45;41d1&#45;aaff&#45;81bb99a492c3 :Customer</text>
<polygon fill="none" stroke="black" points="8.5,-4 8.5,-70 221.5,-70 221.5,-4 8.5,-4"/>
<text text-anchor="start" x="20.08" y="-58" font-family="Times,serif" font-size="10.00">email = &quot;john@doe.ee&quot;</text>
<text text-anchor="start" x="20.08" y="-46" font-family="Times,serif" font-size="10.00">firstName = &quot;John&quot;</text>
<text text-anchor="start" x="20.08" y="-34" font-family="Times,serif" font-size="10.00">id = &quot;e9c3579a&#45;caf0&#45;41d1&#45;aaff&#45;81bb99a492c3&quot;</text>
<text text-anchor="start" x="20.08" y="-22" font-family="Times,serif" font-size="10.00">lastName = &quot;Doe&quot;</text>
<text text-anchor="start" x="20.08" y="-10" font-family="Times,serif" font-size="10.00">password = &quot;pass1234&quot;</text>
</g>
<!-- b&#45;&gt;e9c3579a_caf0_41d1_aaff_81bb99a492c3 -->
<g id="edge5" class="edge">
<title>b&#45;&gt;e9c3579a_caf0_41d1_aaff_81bb99a492c3</title>
<path fill="none" stroke="black" d="M728.17,-365.28C624.44,-365.96 255.82,-364.53 153.5,-312 86.77,-277.74 69.57,-254.33 43.5,-184 34.85,-160.66 34.74,-151.29 43.5,-128 48.31,-115.22 56.15,-103.15 64.9,-92.41"/>
<text text-anchor="middle" x="44.63" y="-95.41" font-family="Times,serif" font-size="10.00">customers</text>
<text text-anchor="middle" x="718.45" y="-368.28" font-family="Times,serif" font-size="10.00">bank</text>
</g>
<!-- 9f0a8caf_ee37_4f19_995e_cde954a7322d -->
<g id="node7" class="node">
<title>9f0a8caf_ee37_4f19_995e_cde954a7322d</title>
<polygon fill="none" stroke="black" points="870.5,-70 870.5,-88 1083.5,-88 1083.5,-70 870.5,-70"/>
<text text-anchor="start" x="873.29" y="-77" font-family="Times,serif" text-decoration="underline" font-size="10.00">9f0a8caf&#45;ee37&#45;4f19&#45;995e&#45;cde954a7322d :Customer</text>
<polygon fill="none" stroke="black" points="870.5,-4 870.5,-70 1083.5,-70 1083.5,-4 870.5,-4"/>
<text text-anchor="start" x="882.09" y="-58" font-family="Times,serif" font-size="10.00">email = &quot;bobby@tt.ee&quot;</text>
<text text-anchor="start" x="882.09" y="-46" font-family="Times,serif" font-size="10.00">firstName = &quot;Bob&quot;</text>
<text text-anchor="start" x="882.09" y="-34" font-family="Times,serif" font-size="10.00">id = &quot;9f0a8caf&#45;ee37&#45;4f19&#45;995e&#45;cde954a7322d&quot;</text>
<text text-anchor="start" x="882.09" y="-22" font-family="Times,serif" font-size="10.00">lastName = &quot;Jackson&quot;</text>
<text text-anchor="start" x="882.09" y="-10" font-family="Times,serif" font-size="10.00">password = &quot;secret&quot;</text>
</g>
<!-- b&#45;&gt;9f0a8caf_ee37_4f19_995e_cde954a7322d -->
<g id="edge6" class="edge">
<title>b&#45;&gt;9f0a8caf_ee37_4f19_995e_cde954a7322d</title>
<path fill="none" stroke="black" d="M782.77,-364.71C825.17,-362.89 907.53,-353.77 960.5,-312 1028.96,-258.02 1053.04,-211.66 1028.5,-128 1024.88,-115.65 1018.73,-103.41 1011.9,-92.31"/>
<text text-anchor="middle" x="991.63" y="-95.31" font-family="Times,serif" font-size="10.00">customers</text>
<text text-anchor="middle" x="792.49" y="-367.71" font-family="Times,serif" font-size="10.00">bank</text>
</g>
<!-- t -->
<g id="node8" class="node">
<title>t</title>
<polygon fill="none" stroke="black" points="830.5,-260 830.5,-278 866.5,-278 866.5,-260 830.5,-260"/>
<text text-anchor="start" x="833.09" y="-267" font-family="Times,serif" text-decoration="underline" font-size="10.00">t :Trace</text>
<polygon fill="none" stroke="black" points="830.5,-254 830.5,-260 866.5,-260 866.5,-254 830.5,-254"/>
</g>
<!-- b&#45;&gt;t -->
<g id="edge7" class="edge">
<title>b&#45;&gt;t</title>
<path fill="none" stroke="black" d="M772.52,-347.97C782.76,-337.65 795.99,-324.18 807.5,-312 816.07,-302.94 825.45,-292.67 833.07,-284.23"/>
<text text-anchor="middle" x="821.42" y="-287.23" font-family="Times,serif" font-size="10.00">traces</text>
</g>
<!-- t1 -->
<g id="node9" class="node">
<title>t1</title>
<polygon fill="none" stroke="black" points="902.5,-260 902.5,-278 943.5,-278 943.5,-260 902.5,-260"/>
<text text-anchor="start" x="905.09" y="-267" font-family="Times,serif" text-decoration="underline" font-size="10.00">t1 :Trace</text>
<polygon fill="none" stroke="black" points="902.5,-254 902.5,-260 943.5,-260 943.5,-254 902.5,-254"/>
</g>
<!-- b&#45;&gt;t1 -->
<g id="edge8" class="edge">
<title>b&#45;&gt;t1</title>
<path fill="none" stroke="black" d="M782.59,-358C810.09,-350 852.99,-334.96 884.5,-312 894.91,-304.41 904.28,-293.39 911.11,-284.16"/>
<text text-anchor="middle" x="899.45" y="-287.16" font-family="Times,serif" font-size="10.00">traces</text>
</g>
<!-- 6c215e64_521a_4d1c_9fbb_455365de1466 -->
<g id="node10" class="node">
<title>6c215e64_521a_4d1c_9fbb_455365de1466</title>
<polygon fill="none" stroke="black" points="203.5,-290 203.5,-308 448.5,-308 448.5,-290 203.5,-290"/>
<text text-anchor="start" x="215.34" y="-297" font-family="Times,serif" text-decoration="underline" font-size="10.00">6c215e64&#45;521a&#45;4d1c&#45;9fbb&#45;455365de1466 :Transaction</text>
<polygon fill="none" stroke="black" points="203.5,-224 203.5,-290 448.5,-290 448.5,-224 203.5,-224"/>
<text text-anchor="start" x="206.5" y="-278" font-family="Times,serif" font-size="10.00">amount = 50.0</text>
<text text-anchor="start" x="206.5" y="-266" font-family="Times,serif" font-size="10.00">description = &quot;Ref: concert ticket&quot;</text>
<text text-anchor="start" x="206.5" y="-254" font-family="Times,serif" font-size="10.00">id = &quot;6c215e64&#45;521a&#45;4d1c&#45;9fbb&#45;455365de1466&quot;</text>
<text text-anchor="start" x="206.5" y="-242" font-family="Times,serif" font-size="10.00">rejectionDescription = &quot;Made a mistake in the sent amount&quot;</text>
<text text-anchor="start" x="206.5" y="-230" font-family="Times,serif" font-size="10.00">timestamp = 2021&#45;11&#45;27T23:07:40.853132</text>
</g>
<!-- b&#45;&gt;6c215e64_521a_4d1c_9fbb_455365de1466 -->
<g id="edge9" class="edge">
<title>b&#45;&gt;6c215e64_521a_4d1c_9fbb_455365de1466</title>
<path fill="none" stroke="black" d="M728.36,-361.29C676.6,-353.94 560.36,-336.13 464.5,-312 461.79,-311.32 459.06,-310.61 456.32,-309.89"/>
<text text-anchor="middle" x="480.2" y="-312.89" font-family="Times,serif" font-size="10.00">transactions</text>
<text text-anchor="middle" x="718.64" y="-352.29" font-family="Times,serif" font-size="10.00">bank</text>
</g>
<!-- c -->
<g id="node11" class="node">
<title>c</title>
<polygon fill="none" stroke="black" points="293.5,-46 293.5,-64 427.5,-64 427.5,-46 293.5,-46"/>
<text text-anchor="start" x="337.04" y="-53" font-family="Times,serif" text-decoration="underline" font-size="10.00">c :Currency</text>
<polygon fill="none" stroke="black" points="293.5,-28 293.5,-46 427.5,-46 427.5,-28 293.5,-28"/>
<text text-anchor="start" x="296.5" y="-34" font-family="Times,serif" font-size="10.00">declaringClass = class Currency</text>
</g>
<!-- 46b9b72f_980d_492b_930b_11f5fd878b45&#45;&gt;c -->
<g id="edge10" class="edge">
<title>46b9b72f_980d_492b_930b_11f5fd878b45&#45;&gt;c</title>
<path fill="none" stroke="black" d="M584.44,-127.89C533.23,-109.39 466.39,-85.25 419.1,-68.17"/>
<text text-anchor="middle" x="401.61" y="-71.17" font-family="Times,serif" font-size="10.00">currency</text>
</g>
<!-- 4f6bea81_a93e_4c49_a940_3e1c706c6de4&#45;&gt;e9c3579a_caf0_41d1_aaff_81bb99a492c3 -->
<g id="edge12" class="edge">
<title>4f6bea81_a93e_4c49_a940_3e1c706c6de4&#45;&gt;e9c3579a_caf0_41d1_aaff_81bb99a492c3</title>
<path fill="none" stroke="black" d="M153.38,-127.75C148.2,-117 142.12,-104.36 136.32,-92.31"/>
<text text-anchor="middle" x="123.82" y="-95.31" font-family="Times,serif" font-size="10.00">owner</text>
<text text-anchor="middle" x="137.83" y="-118.75" font-family="Times,serif" font-size="10.00">account</text>
</g>
<!-- 4f6bea81_a93e_4c49_a940_3e1c706c6de4&#45;&gt;c -->
<g id="edge11" class="edge">
<title>4f6bea81_a93e_4c49_a940_3e1c706c6de4&#45;&gt;c</title>
<path fill="none" stroke="black" d="M215.45,-127.75C248.68,-109.25 291.97,-85.15 322.58,-68.11"/>
<text text-anchor="middle" x="305.09" y="-71.11" font-family="Times,serif" font-size="10.00">currency</text>
</g>
<!-- 1c9ca086_d1bd_443c_8fd6_91e28e764fd1&#45;&gt;9f0a8caf_ee37_4f19_995e_cde954a7322d -->
<g id="edge14" class="edge">
<title>1c9ca086_d1bd_443c_8fd6_91e28e764fd1&#45;&gt;9f0a8caf_ee37_4f19_995e_cde954a7322d</title>
<path fill="none" stroke="black" d="M923.42,-127.75C930.48,-117 938.79,-104.36 946.71,-92.31"/>
<text text-anchor="middle" x="934.22" y="-95.31" font-family="Times,serif" font-size="10.00">owner</text>
<text text-anchor="middle" x="907.87" y="-118.75" font-family="Times,serif" font-size="10.00">account</text>
</g>
<!-- 1c9ca086_d1bd_443c_8fd6_91e28e764fd1&#45;&gt;c -->
<g id="edge13" class="edge">
<title>1c9ca086_d1bd_443c_8fd6_91e28e764fd1&#45;&gt;c</title>
<path fill="none" stroke="black" d="M791.88,-129.74C789.06,-129.15 786.26,-128.57 783.5,-128 661.94,-102.92 520.17,-76.3 435.51,-60.69"/>
<text text-anchor="middle" x="453" y="-63.69" font-family="Times,serif" font-size="10.00">currency</text>
</g>
<!-- 6c215e64_521a_4d1c_9fbb_455365de1466&#45;&gt;4f6bea81_a93e_4c49_a940_3e1c706c6de4 -->
<g id="edge17" class="edge">
<title>6c215e64_521a_4d1c_9fbb_455365de1466&#45;&gt;4f6bea81_a93e_4c49_a940_3e1c706c6de4</title>
<path fill="none" stroke="black" d="M258.99,-219.82C241.12,-207.69 222.35,-194.94 206.42,-184.12"/>
<text text-anchor="middle" x="193.38" y="-187.12" font-family="Times,serif" font-size="10.00">source</text>
</g>
<!-- 6c215e64_521a_4d1c_9fbb_455365de1466&#45;&gt;1c9ca086_d1bd_443c_8fd6_91e28e764fd1 -->
<g id="edge16" class="edge">
<title>6c215e64_521a_4d1c_9fbb_455365de1466&#45;&gt;1c9ca086_d1bd_443c_8fd6_91e28e764fd1</title>
<path fill="none" stroke="black" d="M456.26,-221.86C459.02,-221.21 461.77,-220.59 464.5,-220 603.96,-189.88 642.76,-207.45 783.5,-184 786.28,-183.54 789.1,-183.05 791.93,-182.55"/>
<text text-anchor="middle" x="769.99" y="-185.55" font-family="Times,serif" font-size="10.00">destination</text>
</g>
<!-- 6c215e64_521a_4d1c_9fbb_455365de1466&#45;&gt;c -->
<g id="edge15" class="edge">
<title>6c215e64_521a_4d1c_9fbb_455365de1466&#45;&gt;c</title>
<path fill="none" stroke="black" d="M321.98,-219.82C320.92,-192.89 321.36,-158.19 327.5,-128 331.8,-106.87 341.48,-84.26 349.25,-68.31"/>
<text text-anchor="middle" x="366.74" y="-71.31" font-family="Times,serif" font-size="10.00">currency</text>
</g>
<!-- s -->
<g id="node12" class="node">
<title>s</title>
<polygon fill="none" stroke="black" points="344.5,-156 344.5,-174 518.5,-174 518.5,-156 344.5,-156"/>
<text text-anchor="start" x="414.69" y="-163" font-family="Times,serif" text-decoration="underline" font-size="10.00">s :Status</text>
<polygon fill="none" stroke="black" points="344.5,-138 344.5,-156 518.5,-156 518.5,-138 344.5,-138"/>
<text text-anchor="start" x="347.5" y="-144" font-family="Times,serif" font-size="10.00">declaringClass = class Transaction$Status</text>
</g>
<!-- 6c215e64_521a_4d1c_9fbb_455365de1466&#45;&gt;s -->
<g id="edge18" class="edge">
<title>6c215e64_521a_4d1c_9fbb_455365de1466&#45;&gt;s</title>
<path fill="none" stroke="black" d="M369.84,-219.82C384.02,-205.37 399.06,-190.06 410.73,-178.16"/>
<text text-anchor="middle" x="399.34" y="-181.16" font-family="Times,serif" font-size="10.00">status</text>
</g>
</g>
</svg>
