<?xml version="1.0" encoding="UTF-8" standalone="no"?>
<!DOCTYPE svg PUBLIC "-//W3C//DTD SVG 1.1//EN"
 "http://www.w3.org/Graphics/SVG/1.1/DTD/svg11.dtd">
<!-- Generated by graphviz version 2.43.0 (0)
 -->
<!-- Title: model Pages: 1 -->
<svg width="2536px" height="327px"
 viewBox="0.00 0.00 2536.00 327.00" xmlns="http://www.w3.org/2000/svg" xmlns:xlink="http://www.w3.org/1999/xlink">
<g id="graph0" class="graph" transform="scale(1.0 1.0) rotate(0) translate(4 323)">
<title>model</title>
<polygon fill="white" stroke="transparent" points="-4,4 -4,-323 2532,-323 2532,4 -4,4"/>
<!-- b -->
<g id="node1" class="node">
<title>b</title>
<polygon fill="none" stroke="black" points="226.5,-297.5 226.5,-314.5 884.5,-314.5 884.5,-297.5 226.5,-297.5"/>
<text text-anchor="start" x="539" y="-304.5" font-family="Times,serif" text-decoration="underline" font-size="10.00">b :Bank</text>
<polygon fill="none" stroke="black" points="226.5,-269.5 226.5,-297.5 884.5,-297.5 884.5,-269.5 226.5,-269.5"/>
<text text-anchor="start" x="229.5" y="-286.5" font-family="Times,serif" font-size="10.00">accountsMap = sendItToTheBank8a633aa5&#45;907c&#45;4e57&#45;a313&#45;22e0adb2672ef899b73a&#45;d8f4&#45;418e&#45;aa29&#45;21ac3c9f23637ec351d6&#45;652f&#45;4691&#45;8e72&#45;ea432d44a0c8</text>
<text text-anchor="start" x="229.5" y="-275.5" font-family="Times,serif" font-size="10.00">customerMap = e2f7bc4c&#45;ef2a&#45;466e&#45;b8a5&#45;d24f48b13afe1eaf6f4c&#45;4f92&#45;4e04&#45;bd87&#45;c82be03265dec8cb47dc&#45;8f9a&#45;4d9e&#45;92d2&#45;b01600e134de</text>
</g>
<!-- sendItToTheBank -->
<g id="node3" class="node">
<title>sendItToTheBank</title>
<polygon fill="none" stroke="black" points="935.5,-209 935.5,-226 1083.5,-226 1083.5,-209 935.5,-209"/>
<text text-anchor="start" x="952.5" y="-216" font-family="Times,serif" text-decoration="underline" font-size="10.00">sendItToTheBank :Account</text>
<polygon fill="none" stroke="black" points="935.5,-126 935.5,-209 1083.5,-209 1083.5,-126 935.5,-126"/>
<text text-anchor="start" x="938.5" y="-198" font-family="Times,serif" font-size="10.00">balance = 69420.0</text>
<text text-anchor="start" x="938.5" y="-187" font-family="Times,serif" font-size="10.00">customerId = null</text>
<text text-anchor="start" x="938.5" y="-176" font-family="Times,serif" font-size="10.00">iban = &quot;EE639583198801158912&quot;</text>
<text text-anchor="start" x="938.5" y="-165" font-family="Times,serif" font-size="10.00">id = &quot;sendItToTheBank&quot;</text>
<text text-anchor="start" x="938.5" y="-154" font-family="Times,serif" font-size="10.00">receivedTransaction = </text>
<text text-anchor="start" x="938.5" y="-143" font-family="Times,serif" font-size="10.00">sentTransaction = </text>
<text text-anchor="start" x="938.5" y="-132" font-family="Times,serif" font-size="10.00">status = &quot;ACTIVE&quot;</text>
</g>
<!-- b&#45;&gt;sendItToTheBank -->
<g id="edge1" class="edge">
<title>b&#45;&gt;sendItToTheBank</title>
<path fill="none" stroke="black" d="M782.41,-265.97C828.25,-257.24 875.53,-245.57 918.5,-230 921.42,-228.94 924.36,-227.79 927.29,-226.56"/>
<text text-anchor="middle" x="899.29" y="-229.56" font-family="Times,serif" font-size="10.00">bankAccount</text>
<text text-anchor="middle" x="771.91" y="-257.97" font-family="Times,serif" font-size="10.00">bank</text>
</g>
<!-- sendItToTheBank2 -->
<g id="node4" class="node">
<title>sendItToTheBank2</title>
<polygon fill="none" stroke="black" points="1117.5,-209 1117.5,-226 1237.5,-226 1237.5,-209 1117.5,-209"/>
<text text-anchor="start" x="1120.5" y="-216" font-family="Times,serif" text-decoration="underline" font-size="10.00">sendItToTheBank :Account</text>
<polygon fill="none" stroke="black" points="1117.5,-126 1117.5,-209 1237.5,-209 1237.5,-126 1117.5,-126"/>
<text text-anchor="start" x="1127.5" y="-198" font-family="Times,serif" font-size="10.00">balance = 74420.0</text>
<text text-anchor="start" x="1127.5" y="-187" font-family="Times,serif" font-size="10.00">customerId = &quot;&quot;</text>
<text text-anchor="start" x="1127.5" y="-176" font-family="Times,serif" font-size="10.00">iban = null</text>
<text text-anchor="start" x="1127.5" y="-165" font-family="Times,serif" font-size="10.00">id = &quot;sendItToTheBank&quot;</text>
<text text-anchor="start" x="1127.5" y="-154" font-family="Times,serif" font-size="10.00">receivedTransaction = </text>
<text text-anchor="start" x="1127.5" y="-143" font-family="Times,serif" font-size="10.00">sentTransaction = </text>
<text text-anchor="start" x="1127.5" y="-132" font-family="Times,serif" font-size="10.00">status = &quot;ACTIVE&quot;</text>
</g>
<!-- b&#45;&gt;sendItToTheBank2 -->
<g id="edge2" class="edge">
<title>b&#45;&gt;sendItToTheBank2</title>
<path fill="none" stroke="black" d="M892.64,-266.65C979.54,-257.29 1059.97,-245.14 1100.5,-230 1103.39,-228.92 1106.27,-227.71 1109.14,-226.39"/>
<text text-anchor="middle" x="1090.64" y="-229.39" font-family="Times,serif" font-size="10.00">accounts</text>
<text text-anchor="middle" x="882.14" y="-258.65" font-family="Times,serif" font-size="10.00">bank</text>
</g>
<!-- 8a633aa5_907c_4e57_a313_22e0adb2672e -->
<g id="node5" class="node">
<title>8a633aa5_907c_4e57_a313_22e0adb2672e</title>
<polygon fill="none" stroke="black" points="663.5,-209 663.5,-226 901.5,-226 901.5,-209 663.5,-209"/>
<text text-anchor="start" x="675.5" y="-216" font-family="Times,serif" text-decoration="underline" font-size="10.00">8a633aa5&#45;907c&#45;4e57&#45;a313&#45;22e0adb2672e :Account</text>
<polygon fill="none" stroke="black" points="663.5,-126 663.5,-209 901.5,-209 901.5,-126 663.5,-126"/>
<text text-anchor="start" x="666.5" y="-198" font-family="Times,serif" font-size="10.00">balance = 0.0</text>
<text text-anchor="start" x="666.5" y="-187" font-family="Times,serif" font-size="10.00">customerId = &quot;1eaf6f4c&#45;4f92&#45;4e04&#45;bd87&#45;c82be03265de&quot;</text>
<text text-anchor="start" x="666.5" y="-176" font-family="Times,serif" font-size="10.00">iban = null</text>
<text text-anchor="start" x="666.5" y="-165" font-family="Times,serif" font-size="10.00">id = &quot;8a633aa5&#45;907c&#45;4e57&#45;a313&#45;22e0adb2672e&quot;</text>
<text text-anchor="start" x="666.5" y="-154" font-family="Times,serif" font-size="10.00">receivedTransaction = </text>
<text text-anchor="start" x="666.5" y="-143" font-family="Times,serif" font-size="10.00">sentTransaction = </text>
<text text-anchor="start" x="666.5" y="-132" font-family="Times,serif" font-size="10.00">status = &quot;ACTIVE&quot;</text>
</g>
<!-- b&#45;&gt;8a633aa5_907c_4e57_a313_22e0adb2672e -->
<g id="edge3" class="edge">
<title>b&#45;&gt;8a633aa5_907c_4e57_a313_22e0adb2672e</title>
<path fill="none" stroke="black" d="M606.16,-265.95C627.2,-255.34 652.44,-242.6 677.17,-230.13"/>
<text text-anchor="middle" x="658.67" y="-233.13" font-family="Times,serif" font-size="10.00">accounts</text>
<text text-anchor="middle" x="595.66" y="-257.95" font-family="Times,serif" font-size="10.00">bank</text>
</g>
<!-- 7ec351d6_652f_4691_8e72_ea432d44a0c8 -->
<g id="node6" class="node">
<title>7ec351d6_652f_4691_8e72_ea432d44a0c8</title>
<polygon fill="none" stroke="black" points="69.5,-209 69.5,-226 303.5,-226 303.5,-209 69.5,-209"/>
<text text-anchor="start" x="79.5" y="-216" font-family="Times,serif" text-decoration="underline" font-size="10.00">7ec351d6&#45;652f&#45;4691&#45;8e72&#45;ea432d44a0c8 :Account</text>
<polygon fill="none" stroke="black" points="69.5,-126 69.5,-209 303.5,-209 303.5,-126 69.5,-126"/>
<text text-anchor="start" x="72.5" y="-198" font-family="Times,serif" font-size="10.00">balance = 100.0</text>
<text text-anchor="start" x="72.5" y="-187" font-family="Times,serif" font-size="10.00">customerId = &quot;e2f7bc4c&#45;ef2a&#45;466e&#45;b8a5&#45;d24f48b13afe&quot;</text>
<text text-anchor="start" x="72.5" y="-176" font-family="Times,serif" font-size="10.00">iban = null</text>
<text text-anchor="start" x="72.5" y="-165" font-family="Times,serif" font-size="10.00">id = &quot;7ec351d6&#45;652f&#45;4691&#45;8e72&#45;ea432d44a0c8&quot;</text>
<text text-anchor="start" x="72.5" y="-154" font-family="Times,serif" font-size="10.00">receivedTransaction = </text>
<text text-anchor="start" x="72.5" y="-143" font-family="Times,serif" font-size="10.00">sentTransaction = </text>
<text text-anchor="start" x="72.5" y="-132" font-family="Times,serif" font-size="10.00">status = &quot;ACTIVE&quot;</text>
</g>
<!-- b&#45;&gt;7ec351d6_652f_4691_8e72_ea432d44a0c8 -->
<g id="edge4" class="edge">
<title>b&#45;&gt;7ec351d6_652f_4691_8e72_ea432d44a0c8</title>
<path fill="none" stroke="black" d="M450.93,-265.97C411.37,-255.67 366.11,-243.13 325.5,-230 320.95,-228.53 316.34,-227 311.69,-225.41"/>
<text text-anchor="middle" x="330.19" y="-228.41" font-family="Times,serif" font-size="10.00">accounts</text>
<text text-anchor="middle" x="440.43" y="-257.97" font-family="Times,serif" font-size="10.00">bank</text>
</g>
<!-- f899b73a_d8f4_418e_aa29_21ac3c9f2363 -->
<g id="node7" class="node">
<title>f899b73a_d8f4_418e_aa29_21ac3c9f2363</title>
<polygon fill="none" stroke="black" points="376.5,-209 376.5,-226 591.5,-226 591.5,-209 376.5,-209"/>
<text text-anchor="start" x="379.5" y="-216" font-family="Times,serif" text-decoration="underline" font-size="10.00">f899b73a&#45;d8f4&#45;418e&#45;aa29&#45;21ac3c9f2363 :Account</text>
<polygon fill="none" stroke="black" points="376.5,-126 376.5,-209 591.5,-209 591.5,-126 376.5,-126"/>
<text text-anchor="start" x="386.5" y="-198" font-family="Times,serif" font-size="10.00">balance = 100.0</text>
<text text-anchor="start" x="386.5" y="-187" font-family="Times,serif" font-size="10.00">customerId = null</text>
<text text-anchor="start" x="386.5" y="-176" font-family="Times,serif" font-size="10.00">iban = &quot;EE729928334534286772&quot;</text>
<text text-anchor="start" x="386.5" y="-165" font-family="Times,serif" font-size="10.00">id = &quot;f899b73a&#45;d8f4&#45;418e&#45;aa29&#45;21ac3c9f2363&quot;</text>
<text text-anchor="start" x="386.5" y="-154" font-family="Times,serif" font-size="10.00">receivedTransaction = </text>
<text text-anchor="start" x="386.5" y="-143" font-family="Times,serif" font-size="10.00">sentTransaction = </text>
<text text-anchor="start" x="386.5" y="-132" font-family="Times,serif" font-size="10.00">status = &quot;ACTIVE&quot;</text>
</g>
<!-- b&#45;&gt;f899b73a_d8f4_418e_aa29_21ac3c9f2363 -->
<g id="edge5" class="edge">
<title>b&#45;&gt;f899b73a_d8f4_418e_aa29_21ac3c9f2363</title>
<path fill="none" stroke="black" d="M539.34,-265.8C532.71,-255.25 524.77,-242.63 516.98,-230.25"/>
<text text-anchor="middle" x="498.48" y="-233.25" font-family="Times,serif" font-size="10.00">accounts</text>
<text text-anchor="middle" x="528.84" y="-257.8" font-family="Times,serif" font-size="10.00">bank</text>
</g>
<!-- e2f7bc4c_ef2a_466e_b8a5_d24f48b13afe -->
<g id="node8" class="node">
<title>e2f7bc4c_ef2a_466e_b8a5_d24f48b13afe</title>
<polygon fill="none" stroke="black" points="8.5,-65 8.5,-82 223.5,-82 223.5,-65 8.5,-65"/>
<text text-anchor="start" x="11.5" y="-72" font-family="Times,serif" text-decoration="underline" font-size="10.00">e2f7bc4c&#45;ef2a&#45;466e&#45;b8a5&#45;d24f48b13afe :Customer</text>
<polygon fill="none" stroke="black" points="8.5,-4 8.5,-65 223.5,-65 223.5,-4 8.5,-4"/>
<text text-anchor="start" x="20.5" y="-54" font-family="Times,serif" font-size="10.00">email = &quot;john@doe.ee&quot;</text>
<text text-anchor="start" x="20.5" y="-43" font-family="Times,serif" font-size="10.00">firstName = &quot;John&quot;</text>
<text text-anchor="start" x="20.5" y="-32" font-family="Times,serif" font-size="10.00">id = &quot;e2f7bc4c&#45;ef2a&#45;466e&#45;b8a5&#45;d24f48b13afe&quot;</text>
<text text-anchor="start" x="20.5" y="-21" font-family="Times,serif" font-size="10.00">lastName = &quot;Doe&quot;</text>
<text text-anchor="start" x="20.5" y="-10" font-family="Times,serif" font-size="10.00">password = &quot;pass1234&quot;</text>
</g>
<!-- b&#45;&gt;e2f7bc4c_ef2a_466e_b8a5_d24f48b13afe -->
<g id="edge6" class="edge">
<title>b&#45;&gt;e2f7bc4c_ef2a_466e_b8a5_d24f48b13afe</title>
<path fill="none" stroke="black" d="M218.22,-266.89C135.21,-257.45 65.97,-245.21 52.5,-230 20.69,-194.06 36.51,-167.26 52.5,-122 57.02,-109.2 64.64,-96.96 73.04,-86.12"/>
<text text-anchor="middle" x="52.54" y="-89.12" font-family="Times,serif" font-size="10.00">customers</text>
<text text-anchor="middle" x="207.72" y="-269.89" font-family="Times,serif" font-size="10.00">bank</text>
</g>
<!-- 1eaf6f4c_4f92_4e04_bd87_c82be03265de -->
<g id="node9" class="node">
<title>1eaf6f4c_4f92_4e04_bd87_c82be03265de</title>
<polygon fill="none" stroke="black" points="595.5,-65 595.5,-82 814.5,-82 814.5,-65 595.5,-65"/>
<text text-anchor="start" x="598.5" y="-72" font-family="Times,serif" text-decoration="underline" font-size="10.00">1eaf6f4c&#45;4f92&#45;4e04&#45;bd87&#45;c82be03265de :Customer</text>
<polygon fill="none" stroke="black" points="595.5,-4 595.5,-65 814.5,-65 814.5,-4 595.5,-4"/>
<text text-anchor="start" x="607.5" y="-54" font-family="Times,serif" font-size="10.00">email = &quot;bobby@tt.ee&quot;</text>
<text text-anchor="start" x="607.5" y="-43" font-family="Times,serif" font-size="10.00">firstName = &quot;Bob&quot;</text>
<text text-anchor="start" x="607.5" y="-32" font-family="Times,serif" font-size="10.00">id = &quot;1eaf6f4c&#45;4f92&#45;4e04&#45;bd87&#45;c82be03265de&quot;</text>
<text text-anchor="start" x="607.5" y="-21" font-family="Times,serif" font-size="10.00">lastName = &quot;Jackson&quot;</text>
<text text-anchor="start" x="607.5" y="-10" font-family="Times,serif" font-size="10.00">password = &quot;secret&quot;</text>
</g>
<!-- b&#45;&gt;1eaf6f4c_4f92_4e04_bd87_c82be03265de -->
<g id="edge7" class="edge">
<title>b&#45;&gt;1eaf6f4c_4f92_4e04_bd87_c82be03265de</title>
<path fill="none" stroke="black" d="M580.76,-265.82C590.08,-255.34 600.15,-242.71 607.5,-230 633.04,-185.82 622.35,-166.96 646.5,-122 653.05,-109.81 661.35,-97.43 669.62,-86.22"/>
<text text-anchor="middle" x="649.12" y="-89.22" font-family="Times,serif" font-size="10.00">customers</text>
<text text-anchor="middle" x="570.26" y="-257.82" font-family="Times,serif" font-size="10.00">bank</text>
</g>
<!-- c8cb47dc_8f9a_4d9e_92d2_b01600e134de -->
<g id="node10" class="node">
<title>c8cb47dc_8f9a_4d9e_92d2_b01600e134de</title>
<polygon fill="none" stroke="black" points="283.5,-65 283.5,-82 506.5,-82 506.5,-65 283.5,-65"/>
<text text-anchor="start" x="286.5" y="-72" font-family="Times,serif" text-decoration="underline" font-size="10.00">c8cb47dc&#45;8f9a&#45;4d9e&#45;92d2&#45;b01600e134de :Customer</text>
<polygon fill="none" stroke="black" points="283.5,-4 283.5,-65 506.5,-65 506.5,-4 283.5,-4"/>
<text text-anchor="start" x="295.5" y="-54" font-family="Times,serif" font-size="10.00">email = &quot;johntest@doe.ee&quot;</text>
<text text-anchor="start" x="295.5" y="-43" font-family="Times,serif" font-size="10.00">firstName = &quot;johntest&quot;</text>
<text text-anchor="start" x="295.5" y="-32" font-family="Times,serif" font-size="10.00">id = &quot;c8cb47dc&#45;8f9a&#45;4d9e&#45;92d2&#45;b01600e134de&quot;</text>
<text text-anchor="start" x="295.5" y="-21" font-family="Times,serif" font-size="10.00">lastName = &quot;Doe&quot;</text>
<text text-anchor="start" x="295.5" y="-10" font-family="Times,serif" font-size="10.00">password = &quot;pass1234&quot;</text>
</g>
<!-- b&#45;&gt;c8cb47dc_8f9a_4d9e_92d2_b01600e134de -->
<g id="edge8" class="edge">
<title>b&#45;&gt;c8cb47dc_8f9a_4d9e_92d2_b01600e134de</title>
<path fill="none" stroke="black" d="M402.03,-265.92C385.07,-257.12 369.86,-245.44 358.5,-230 327.61,-188 348.77,-126.71 369.37,-86.11"/>
<text text-anchor="middle" x="348.87" y="-89.11" font-family="Times,serif" font-size="10.00">customers</text>
<text text-anchor="middle" x="391.53" y="-257.92" font-family="Times,serif" font-size="10.00">bank</text>
</g>
<!-- b1 -->
<g id="node2" class="node">
<title>b1</title>
<polygon fill="none" stroke="black" points="1626.5,-297.5 1626.5,-314.5 2293.5,-314.5 2293.5,-297.5 1626.5,-297.5"/>
<text text-anchor="start" x="1941" y="-304.5" font-family="Times,serif" text-decoration="underline" font-size="10.00">b1 :Bank</text>
<polygon fill="none" stroke="black" points="1626.5,-269.5 1626.5,-297.5 2293.5,-297.5 2293.5,-269.5 1626.5,-269.5"/>
<text text-anchor="start" x="1629.5" y="-286.5" font-family="Times,serif" font-size="10.00">accountsMap = 2a28a82b&#45;1733&#45;48b3&#45;8616&#45;a1bb380594a4sendItToTheBank8a633aa5&#45;907c&#45;4e57&#45;a313&#45;22e0adb2672e7ec351d6&#45;652f&#45;4691&#45;8e72&#45;ea432d44a0c8</text>
<text text-anchor="start" x="1629.5" y="-275.5" font-family="Times,serif" font-size="10.00">customerMap = e2f7bc4c&#45;ef2a&#45;466e&#45;b8a5&#45;d24f48b13afe1eaf6f4c&#45;4f92&#45;4e04&#45;bd87&#45;c82be03265def116acf3&#45;8915&#45;45ea&#45;a0c7&#45;108920d68f11</text>
</g>
<!-- sendItToTheBank3 -->
<g id="node11" class="node">
<title>sendItToTheBank3</title>
<polygon fill="none" stroke="black" points="1272.5,-209 1272.5,-226 1421.5,-226 1421.5,-209 1272.5,-209"/>
<text text-anchor="start" x="1290" y="-216" font-family="Times,serif" text-decoration="underline" font-size="10.00">sendItToTheBank :Account</text>
<polygon fill="none" stroke="black" points="1272.5,-126 1272.5,-209 1421.5,-209 1421.5,-126 1272.5,-126"/>
<text text-anchor="start" x="1275.5" y="-198" font-family="Times,serif" font-size="10.00">balance = 69420.0</text>
<text text-anchor="start" x="1275.5" y="-187" font-family="Times,serif" font-size="10.00">customerId = null</text>
<text text-anchor="start" x="1275.5" y="-176" font-family="Times,serif" font-size="10.00">iban = &quot;EE175885699137694540&quot;</text>
<text text-anchor="start" x="1275.5" y="-165" font-family="Times,serif" font-size="10.00">id = &quot;sendItToTheBank&quot;</text>
<text text-anchor="start" x="1275.5" y="-154" font-family="Times,serif" font-size="10.00">receivedTransaction = </text>
<text text-anchor="start" x="1275.5" y="-143" font-family="Times,serif" font-size="10.00">sentTransaction = </text>
<text text-anchor="start" x="1275.5" y="-132" font-family="Times,serif" font-size="10.00">status = &quot;ACTIVE&quot;</text>
</g>
<!-- b1&#45;&gt;sendItToTheBank3 -->
<g id="edge9" class="edge">
<title>b1&#45;&gt;sendItToTheBank3</title>
<path fill="none" stroke="black" d="M1617.78,-271.25C1557.12,-262.01 1495.24,-248.81 1438.5,-230 1435.35,-228.96 1432.19,-227.8 1429.03,-226.54"/>
<text text-anchor="middle" x="1457.03" y="-229.54" font-family="Times,serif" font-size="10.00">bankAccount</text>
<text text-anchor="middle" x="1607.28" y="-274.25" font-family="Times,serif" font-size="10.00">bank</text>
</g>
<!-- sendItToTheBank4 -->
<g id="node12" class="node">
<title>sendItToTheBank4</title>
<polygon fill="none" stroke="black" points="1455.5,-209 1455.5,-226 1575.5,-226 1575.5,-209 1455.5,-209"/>
<text text-anchor="start" x="1458.5" y="-216" font-family="Times,serif" text-decoration="underline" font-size="10.00">sendItToTheBank :Account</text>
<polygon fill="none" stroke="black" points="1455.5,-126 1455.5,-209 1575.5,-209 1575.5,-126 1455.5,-126"/>
<text text-anchor="start" x="1465.5" y="-198" font-family="Times,serif" font-size="10.00">balance = 74420.0</text>
<text text-anchor="start" x="1465.5" y="-187" font-family="Times,serif" font-size="10.00">customerId = &quot;&quot;</text>
<text text-anchor="start" x="1465.5" y="-176" font-family="Times,serif" font-size="10.00">iban = null</text>
<text text-anchor="start" x="1465.5" y="-165" font-family="Times,serif" font-size="10.00">id = &quot;sendItToTheBank&quot;</text>
<text text-anchor="start" x="1465.5" y="-154" font-family="Times,serif" font-size="10.00">receivedTransaction = </text>
<text text-anchor="start" x="1465.5" y="-143" font-family="Times,serif" font-size="10.00">sentTransaction = </text>
<text text-anchor="start" x="1465.5" y="-132" font-family="Times,serif" font-size="10.00">status = &quot;ACTIVE&quot;</text>
</g>
<!-- b1&#45;&gt;sendItToTheBank4 -->
<g id="edge10" class="edge">
<title>b1&#45;&gt;sendItToTheBank4</title>
<path fill="none" stroke="black" d="M1715.5,-265.98C1673.59,-257.28 1631.13,-245.63 1592.5,-230 1589.64,-228.84 1586.78,-227.57 1583.94,-226.19"/>
<text text-anchor="middle" x="1602.44" y="-229.19" font-family="Times,serif" font-size="10.00">accounts</text>
<text text-anchor="middle" x="1705" y="-257.98" font-family="Times,serif" font-size="10.00">bank</text>
</g>
<!-- 8a633aa5_907c_4e57_a313_22e0adb2672e5 -->
<g id="node13" class="node">
<title>8a633aa5_907c_4e57_a313_22e0adb2672e5</title>
<polygon fill="none" stroke="black" points="1609.5,-209 1609.5,-226 1847.5,-226 1847.5,-209 1609.5,-209"/>
<text text-anchor="start" x="1621.5" y="-216" font-family="Times,serif" text-decoration="underline" font-size="10.00">8a633aa5&#45;907c&#45;4e57&#45;a313&#45;22e0adb2672e :Account</text>
<polygon fill="none" stroke="black" points="1609.5,-126 1609.5,-209 1847.5,-209 1847.5,-126 1609.5,-126"/>
<text text-anchor="start" x="1612.5" y="-198" font-family="Times,serif" font-size="10.00">balance = 0.0</text>
<text text-anchor="start" x="1612.5" y="-187" font-family="Times,serif" font-size="10.00">customerId = &quot;1eaf6f4c&#45;4f92&#45;4e04&#45;bd87&#45;c82be03265de&quot;</text>
<text text-anchor="start" x="1612.5" y="-176" font-family="Times,serif" font-size="10.00">iban = null</text>
<text text-anchor="start" x="1612.5" y="-165" font-family="Times,serif" font-size="10.00">id = &quot;8a633aa5&#45;907c&#45;4e57&#45;a313&#45;22e0adb2672e&quot;</text>
<text text-anchor="start" x="1612.5" y="-154" font-family="Times,serif" font-size="10.00">receivedTransaction = </text>
<text text-anchor="start" x="1612.5" y="-143" font-family="Times,serif" font-size="10.00">sentTransaction = </text>
<text text-anchor="start" x="1612.5" y="-132" font-family="Times,serif" font-size="10.00">status = &quot;ACTIVE&quot;</text>
</g>
<!-- b1&#45;&gt;8a633aa5_907c_4e57_a313_22e0adb2672e5 -->
<g id="edge11" class="edge">
<title>b1&#45;&gt;8a633aa5_907c_4e57_a313_22e0adb2672e5</title>
<path fill="none" stroke="black" d="M1907.95,-265.95C1886.54,-255.34 1860.85,-242.6 1835.69,-230.13"/>
<text text-anchor="middle" x="1817.19" y="-233.13" font-family="Times,serif" font-size="10.00">accounts</text>
<text text-anchor="middle" x="1897.45" y="-257.95" font-family="Times,serif" font-size="10.00">bank</text>
</g>
<!-- 7ec351d6_652f_4691_8e72_ea432d44a0c86 -->
<g id="node14" class="node">
<title>7ec351d6_652f_4691_8e72_ea432d44a0c86</title>
<polygon fill="none" stroke="black" points="1919.5,-209 1919.5,-226 2153.5,-226 2153.5,-209 1919.5,-209"/>
<text text-anchor="start" x="1929.5" y="-216" font-family="Times,serif" text-decoration="underline" font-size="10.00">7ec351d6&#45;652f&#45;4691&#45;8e72&#45;ea432d44a0c8 :Account</text>
<polygon fill="none" stroke="black" points="1919.5,-126 1919.5,-209 2153.5,-209 2153.5,-126 1919.5,-126"/>
<text text-anchor="start" x="1922.5" y="-198" font-family="Times,serif" font-size="10.00">balance = 100.0</text>
<text text-anchor="start" x="1922.5" y="-187" font-family="Times,serif" font-size="10.00">customerId = &quot;e2f7bc4c&#45;ef2a&#45;466e&#45;b8a5&#45;d24f48b13afe&quot;</text>
<text text-anchor="start" x="1922.5" y="-176" font-family="Times,serif" font-size="10.00">iban = null</text>
<text text-anchor="start" x="1922.5" y="-165" font-family="Times,serif" font-size="10.00">id = &quot;7ec351d6&#45;652f&#45;4691&#45;8e72&#45;ea432d44a0c8&quot;</text>
<text text-anchor="start" x="1922.5" y="-154" font-family="Times,serif" font-size="10.00">receivedTransaction = </text>
<text text-anchor="start" x="1922.5" y="-143" font-family="Times,serif" font-size="10.00">sentTransaction = </text>
<text text-anchor="start" x="1922.5" y="-132" font-family="Times,serif" font-size="10.00">status = &quot;ACTIVE&quot;</text>
</g>
<!-- b1&#45;&gt;7ec351d6_652f_4691_8e72_ea432d44a0c86 -->
<g id="edge12" class="edge">
<title>b1&#45;&gt;7ec351d6_652f_4691_8e72_ea432d44a0c86</title>
<path fill="none" stroke="black" d="M1976.78,-265.8C1983.87,-255.25 1992.37,-242.63 2000.69,-230.25"/>
<text text-anchor="middle" x="1982.19" y="-233.25" font-family="Times,serif" font-size="10.00">accounts</text>
<text text-anchor="middle" x="1966.28" y="-257.8" font-family="Times,serif" font-size="10.00">bank</text>
</g>
<!-- 2a28a82b_1733_48b3_8616_a1bb380594a4 -->
<g id="node15" class="node">
<title>2a28a82b_1733_48b3_8616_a1bb380594a4</title>
<polygon fill="none" stroke="black" points="2225.5,-209 2225.5,-226 2449.5,-226 2449.5,-209 2225.5,-209"/>
<text text-anchor="start" x="2228.5" y="-216" font-family="Times,serif" text-decoration="underline" font-size="10.00">2a28a82b&#45;1733&#45;48b3&#45;8616&#45;a1bb380594a4 :Account</text>
<polygon fill="none" stroke="black" points="2225.5,-126 2225.5,-209 2449.5,-209 2449.5,-126 2225.5,-126"/>
<text text-anchor="start" x="2235.5" y="-198" font-family="Times,serif" font-size="10.00">balance = 0.0</text>
<text text-anchor="start" x="2235.5" y="-187" font-family="Times,serif" font-size="10.00">customerId = null</text>
<text text-anchor="start" x="2235.5" y="-176" font-family="Times,serif" font-size="10.00">iban = &quot;EE176929093872949619&quot;</text>
<text text-anchor="start" x="2235.5" y="-165" font-family="Times,serif" font-size="10.00">id = &quot;2a28a82b&#45;1733&#45;48b3&#45;8616&#45;a1bb380594a4&quot;</text>
<text text-anchor="start" x="2235.5" y="-154" font-family="Times,serif" font-size="10.00">receivedTransaction = </text>
<text text-anchor="start" x="2235.5" y="-143" font-family="Times,serif" font-size="10.00">sentTransaction = </text>
<text text-anchor="start" x="2235.5" y="-132" font-family="Times,serif" font-size="10.00">status = &quot;ACTIVE&quot;</text>
</g>
<!-- b1&#45;&gt;2a28a82b_1733_48b3_8616_a1bb380594a4 -->
<g id="edge13" class="edge">
<title>b1&#45;&gt;2a28a82b_1733_48b3_8616_a1bb380594a4</title>
<path fill="none" stroke="black" d="M2073.65,-265.97C2114.9,-255.9 2161.61,-243.5 2203.5,-230 2208.02,-228.54 2212.61,-227.01 2217.24,-225.42"/>
<text text-anchor="middle" x="2198.74" y="-228.42" font-family="Times,serif" font-size="10.00">accounts</text>
<text text-anchor="middle" x="2063.15" y="-257.97" font-family="Times,serif" font-size="10.00">bank</text>
</g>
<!-- e2f7bc4c_ef2a_466e_b8a5_d24f48b13afe7 -->
<g id="node16" class="node">
<title>e2f7bc4c_ef2a_466e_b8a5_d24f48b13afe7</title>
<polygon fill="none" stroke="black" points="1954.5,-65 1954.5,-82 2169.5,-82 2169.5,-65 1954.5,-65"/>
<text text-anchor="start" x="1957.5" y="-72" font-family="Times,serif" text-decoration="underline" font-size="10.00">e2f7bc4c&#45;ef2a&#45;466e&#45;b8a5&#45;d24f48b13afe :Customer</text>
<polygon fill="none" stroke="black" points="1954.5,-4 1954.5,-65 2169.5,-65 2169.5,-4 1954.5,-4"/>
<text text-anchor="start" x="1966.5" y="-54" font-family="Times,serif" font-size="10.00">email = &quot;john@doe.ee&quot;</text>
<text text-anchor="start" x="1966.5" y="-43" font-family="Times,serif" font-size="10.00">firstName = &quot;John&quot;</text>
<text text-anchor="start" x="1966.5" y="-32" font-family="Times,serif" font-size="10.00">id = &quot;e2f7bc4c&#45;ef2a&#45;466e&#45;b8a5&#45;d24f48b13afe&quot;</text>
<text text-anchor="start" x="1966.5" y="-21" font-family="Times,serif" font-size="10.00">lastName = &quot;Doe&quot;</text>
<text text-anchor="start" x="1966.5" y="-10" font-family="Times,serif" font-size="10.00">password = &quot;pass1234&quot;</text>
</g>
<!-- b1&#45;&gt;e2f7bc4c_ef2a_466e_b8a5_d24f48b13afe7 -->
<g id="edge14" class="edge">
<title>b1&#45;&gt;e2f7bc4c_ef2a_466e_b8a5_d24f48b13afe7</title>
<path fill="none" stroke="black" d="M2093.4,-265.94C2128.6,-256.38 2159.77,-244.31 2170.5,-230 2199.3,-191.6 2192.45,-164.69 2170.5,-122 2163.37,-108.13 2152.51,-96.18 2140.35,-86.1"/>
<text text-anchor="middle" x="2119.85" y="-89.1" font-family="Times,serif" font-size="10.00">customers</text>
<text text-anchor="middle" x="2103.9" y="-257.94" font-family="Times,serif" font-size="10.00">bank</text>
</g>
<!-- 1eaf6f4c_4f92_4e04_bd87_c82be03265de8 -->
<g id="node17" class="node">
<title>1eaf6f4c_4f92_4e04_bd87_c82be03265de8</title>
<polygon fill="none" stroke="black" points="1647.5,-65 1647.5,-82 1866.5,-82 1866.5,-65 1647.5,-65"/>
<text text-anchor="start" x="1650.5" y="-72" font-family="Times,serif" text-decoration="underline" font-size="10.00">1eaf6f4c&#45;4f92&#45;4e04&#45;bd87&#45;c82be03265de :Customer</text>
<polygon fill="none" stroke="black" points="1647.5,-4 1647.5,-65 1866.5,-65 1866.5,-4 1647.5,-4"/>
<text text-anchor="start" x="1659.5" y="-54" font-family="Times,serif" font-size="10.00">email = &quot;bobby@tt.ee&quot;</text>
<text text-anchor="start" x="1659.5" y="-43" font-family="Times,serif" font-size="10.00">firstName = &quot;Bob&quot;</text>
<text text-anchor="start" x="1659.5" y="-32" font-family="Times,serif" font-size="10.00">id = &quot;1eaf6f4c&#45;4f92&#45;4e04&#45;bd87&#45;c82be03265de&quot;</text>
<text text-anchor="start" x="1659.5" y="-21" font-family="Times,serif" font-size="10.00">lastName = &quot;Jackson&quot;</text>
<text text-anchor="start" x="1659.5" y="-10" font-family="Times,serif" font-size="10.00">password = &quot;secret&quot;</text>
</g>
<!-- b1&#45;&gt;1eaf6f4c_4f92_4e04_bd87_c82be03265de8 -->
<g id="edge15" class="edge">
<title>b1&#45;&gt;1eaf6f4c_4f92_4e04_bd87_c82be03265de8</title>
<path fill="none" stroke="black" d="M1931.35,-265.91C1921.2,-255.54 1910.32,-242.96 1902.5,-230 1876.21,-186.43 1894.96,-162.76 1864.5,-122 1854.46,-108.57 1841.45,-96.49 1827.95,-86.07"/>
<text text-anchor="middle" x="1807.45" y="-89.07" font-family="Times,serif" font-size="10.00">customers</text>
<text text-anchor="middle" x="1920.85" y="-257.91" font-family="Times,serif" font-size="10.00">bank</text>
</g>
<!-- f116acf3_8915_45ea_a0c7_108920d68f11 -->
<g id="node18" class="node">
<title>f116acf3_8915_45ea_a0c7_108920d68f11</title>
<polygon fill="none" stroke="black" points="2303.5,-65 2303.5,-82 2520.5,-82 2520.5,-65 2303.5,-65"/>
<text text-anchor="start" x="2306.5" y="-72" font-family="Times,serif" text-decoration="underline" font-size="10.00">f116acf3&#45;8915&#45;45ea&#45;a0c7&#45;108920d68f11 :Customer</text>
<polygon fill="none" stroke="black" points="2303.5,-4 2303.5,-65 2520.5,-65 2520.5,-4 2303.5,-4"/>
<text text-anchor="start" x="2315.5" y="-54" font-family="Times,serif" font-size="10.00">email = &quot;bobbytest@tt.ee&quot;</text>
<text text-anchor="start" x="2315.5" y="-43" font-family="Times,serif" font-size="10.00">firstName = &quot;Bob&quot;</text>
<text text-anchor="start" x="2315.5" y="-32" font-family="Times,serif" font-size="10.00">id = &quot;f116acf3&#45;8915&#45;45ea&#45;a0c7&#45;108920d68f11&quot;</text>
<text text-anchor="start" x="2315.5" y="-21" font-family="Times,serif" font-size="10.00">lastName = &quot;Jackson&quot;</text>
<text text-anchor="start" x="2315.5" y="-10" font-family="Times,serif" font-size="10.00">password = &quot;secret&quot;</text>
</g>
<!-- b1&#45;&gt;f116acf3_8915_45ea_a0c7_108920d68f11 -->
<g id="edge16" class="edge">
<title>b1&#45;&gt;f116acf3_8915_45ea_a0c7_108920d68f11</title>
<path fill="none" stroke="black" d="M2301.15,-266.84C2384.07,-257.43 2453.01,-245.22 2466.5,-230 2498.33,-194.07 2481.01,-167.75 2466.5,-122 2462.54,-109.52 2455.79,-97.32 2448.35,-86.41"/>
<text text-anchor="middle" x="2427.85" y="-89.41" font-family="Times,serif" font-size="10.00">customers</text>
<text text-anchor="middle" x="2290.65" y="-258.84" font-family="Times,serif" font-size="10.00">bank</text>
</g>
<!-- c -->
<g id="node19" class="node">
<title>c</title>
<polygon fill="none" stroke="black" points="1179.5,-43 1179.5,-60 1343.5,-60 1343.5,-43 1179.5,-43"/>
<text text-anchor="start" x="1237.5" y="-50" font-family="Times,serif" text-decoration="underline" font-size="10.00">c :Currency</text>
<polygon fill="none" stroke="black" points="1179.5,-26 1179.5,-43 1343.5,-43 1343.5,-26 1179.5,-26"/>
<text text-anchor="start" x="1182.5" y="-32" font-family="Times,serif" font-size="10.00">declaringClass = class model.Currency</text>
</g>
<!-- sendItToTheBank&#45;&gt;c -->
<g id="edge17" class="edge">
<title>sendItToTheBank&#45;&gt;c</title>
<path fill="none" stroke="black" d="M1091.68,-126.76C1094.65,-125.14 1097.6,-123.55 1100.5,-122 1139.57,-101.2 1185.03,-79.39 1217.66,-64.14"/>
<text text-anchor="middle" x="1199.66" y="-67.14" font-family="Times,serif" font-size="10.00">currency</text>
</g>
<!-- sendItToTheBank2&#45;&gt;c -->
<g id="edge18" class="edge">
<title>sendItToTheBank2&#45;&gt;c</title>
<path fill="none" stroke="black" d="M1211.67,-121.72C1224.66,-101.46 1238.68,-79.58 1248.54,-64.22"/>
<text text-anchor="middle" x="1266.54" y="-67.22" font-family="Times,serif" font-size="10.00">currency</text>
</g>
<!-- 8a633aa5_907c_4e57_a313_22e0adb2672e&#45;&gt;1eaf6f4c_4f92_4e04_bd87_c82be03265de -->
<g id="edge20" class="edge">
<title>8a633aa5_907c_4e57_a313_22e0adb2672e&#45;&gt;1eaf6f4c_4f92_4e04_bd87_c82be03265de</title>
<path fill="none" stroke="black" d="M750.77,-121.72C743.77,-109.96 736.45,-97.66 729.74,-86.4"/>
<text text-anchor="middle" x="716.74" y="-89.4" font-family="Times,serif" font-size="10.00">owner</text>
<text text-anchor="middle" x="734.27" y="-113.72" font-family="Times,serif" font-size="10.00">account</text>
</g>
<!-- 8a633aa5_907c_4e57_a313_22e0adb2672e&#45;&gt;c -->
<g id="edge19" class="edge">
<title>8a633aa5_907c_4e57_a313_22e0adb2672e&#45;&gt;c</title>
<path fill="none" stroke="black" d="M909.71,-124.77C912.66,-123.82 915.59,-122.89 918.5,-122 1003.01,-96.08 1101.61,-74.53 1171.35,-60.7"/>
<text text-anchor="middle" x="1153.35" y="-63.7" font-family="Times,serif" font-size="10.00">currency</text>
</g>
<!-- 7ec351d6_652f_4691_8e72_ea432d44a0c8&#45;&gt;e2f7bc4c_ef2a_466e_b8a5_d24f48b13afe -->
<g id="edge22" class="edge">
<title>7ec351d6_652f_4691_8e72_ea432d44a0c8&#45;&gt;e2f7bc4c_ef2a_466e_b8a5_d24f48b13afe</title>
<path fill="none" stroke="black" d="M157.62,-121.72C151.25,-109.96 144.58,-97.66 138.48,-86.4"/>
<text text-anchor="middle" x="125.48" y="-89.4" font-family="Times,serif" font-size="10.00">owner</text>
<text text-anchor="middle" x="141.12" y="-113.72" font-family="Times,serif" font-size="10.00">account</text>
</g>
<!-- 7ec351d6_652f_4691_8e72_ea432d44a0c8&#45;&gt;c -->
<g id="edge21" class="edge">
<title>7ec351d6_652f_4691_8e72_ea432d44a0c8&#45;&gt;c</title>
<path fill="none" stroke="black" d="M311.56,-132.93C327.24,-128.71 343.15,-124.91 358.5,-122 565.2,-82.78 620.9,-104.2 830.5,-86 948.28,-75.77 1083.99,-62.26 1171.16,-53.36"/>
<text text-anchor="middle" x="1153.16" y="-45.36" font-family="Times,serif" font-size="10.00">currency</text>
</g>
<!-- f899b73a_d8f4_418e_aa29_21ac3c9f2363&#45;&gt;c8cb47dc_8f9a_4d9e_92d2_b01600e134de -->
<g id="edge24" class="edge">
<title>f899b73a_d8f4_418e_aa29_21ac3c9f2363&#45;&gt;c8cb47dc_8f9a_4d9e_92d2_b01600e134de</title>
<path fill="none" stroke="black" d="M447.3,-121.72C439.31,-109.96 430.95,-97.66 423.3,-86.4"/>
<text text-anchor="middle" x="410.3" y="-89.4" font-family="Times,serif" font-size="10.00">owner</text>
<text text-anchor="middle" x="430.8" y="-113.72" font-family="Times,serif" font-size="10.00">account</text>
</g>
<!-- f899b73a_d8f4_418e_aa29_21ac3c9f2363&#45;&gt;c -->
<g id="edge23" class="edge">
<title>f899b73a_d8f4_418e_aa29_21ac3c9f2363&#45;&gt;c</title>
<path fill="none" stroke="black" d="M599.4,-134.37C615.11,-129.74 631.11,-125.45 646.5,-122 830.56,-80.79 1050.83,-59.45 1171.47,-50.09"/>
<text text-anchor="middle" x="1153.47" y="-53.09" font-family="Times,serif" font-size="10.00">currency</text>
</g>
<!-- sendItToTheBank3&#45;&gt;c -->
<g id="edge25" class="edge">
<title>sendItToTheBank3&#45;&gt;c</title>
<path fill="none" stroke="black" d="M1311.93,-121.72C1298.78,-101.46 1284.59,-79.58 1274.62,-64.22"/>
<text text-anchor="middle" x="1292.62" y="-67.22" font-family="Times,serif" font-size="10.00">currency</text>
</g>
<!-- sendItToTheBank4&#45;&gt;c -->
<g id="edge26" class="edge">
<title>sendItToTheBank4&#45;&gt;c</title>
<path fill="none" stroke="black" d="M1447.46,-127.75C1444.12,-125.76 1440.79,-123.83 1437.5,-122 1397.03,-99.52 1348.84,-78.54 1313.12,-64.01"/>
<text text-anchor="middle" x="1331.12" y="-67.01" font-family="Times,serif" font-size="10.00">currency</text>
</g>
<!-- 8a633aa5_907c_4e57_a313_22e0adb2672e5&#45;&gt;1eaf6f4c_4f92_4e04_bd87_c82be03265de8 -->
<g id="edge28" class="edge">
<title>8a633aa5_907c_4e57_a313_22e0adb2672e5&#45;&gt;1eaf6f4c_4f92_4e04_bd87_c82be03265de8</title>
<path fill="none" stroke="black" d="M1739.89,-121.72C1742.4,-109.96 1745.03,-97.66 1747.44,-86.4"/>
<text text-anchor="middle" x="1734.44" y="-89.4" font-family="Times,serif" font-size="10.00">owner</text>
<text text-anchor="middle" x="1723.39" y="-113.72" font-family="Times,serif" font-size="10.00">account</text>
</g>
<!-- 8a633aa5_907c_4e57_a313_22e0adb2672e5&#45;&gt;c -->
<g id="edge27" class="edge">
<title>8a633aa5_907c_4e57_a313_22e0adb2672e5&#45;&gt;c</title>
<path fill="none" stroke="black" d="M1601.28,-124.8C1598.33,-123.84 1595.4,-122.9 1592.5,-122 1512.16,-97.02 1418.7,-75.68 1351.62,-61.67"/>
<text text-anchor="middle" x="1369.62" y="-64.67" font-family="Times,serif" font-size="10.00">currency</text>
</g>
<!-- 7ec351d6_652f_4691_8e72_ea432d44a0c86&#45;&gt;e2f7bc4c_ef2a_466e_b8a5_d24f48b13afe7 -->
<g id="edge30" class="edge">
<title>7ec351d6_652f_4691_8e72_ea432d44a0c86&#45;&gt;e2f7bc4c_ef2a_466e_b8a5_d24f48b13afe7</title>
<path fill="none" stroke="black" d="M2046.67,-121.72C2048.91,-109.96 2051.26,-97.66 2053.41,-86.4"/>
<text text-anchor="middle" x="2040.41" y="-89.4" font-family="Times,serif" font-size="10.00">owner</text>
<text text-anchor="middle" x="2030.17" y="-113.72" font-family="Times,serif" font-size="10.00">account</text>
</g>
<!-- 7ec351d6_652f_4691_8e72_ea432d44a0c86&#45;&gt;c -->
<g id="edge29" class="edge">
<title>7ec351d6_652f_4691_8e72_ea432d44a0c86&#45;&gt;c</title>
<path fill="none" stroke="black" d="M1911.28,-133.71C1895.63,-129.36 1879.77,-125.31 1864.5,-122 1768.82,-101.23 1495.19,-69.61 1351.74,-53.76"/>
<text text-anchor="middle" x="1369.74" y="-45.76" font-family="Times,serif" font-size="10.00">currency</text>
</g>
<!-- 2a28a82b_1733_48b3_8616_a1bb380594a4&#45;&gt;f116acf3_8915_45ea_a0c7_108920d68f11 -->
<g id="edge32" class="edge">
<title>2a28a82b_1733_48b3_8616_a1bb380594a4&#45;&gt;f116acf3_8915_45ea_a0c7_108920d68f11</title>
<path fill="none" stroke="black" d="M2367.6,-121.72C2374.24,-109.96 2381.19,-97.66 2387.55,-86.4"/>
<text text-anchor="middle" x="2374.55" y="-89.4" font-family="Times,serif" font-size="10.00">owner</text>
<text text-anchor="middle" x="2351.1" y="-113.72" font-family="Times,serif" font-size="10.00">account</text>
</g>
<!-- 2a28a82b_1733_48b3_8616_a1bb380594a4&#45;&gt;c -->
<g id="edge31" class="edge">
<title>2a28a82b_1733_48b3_8616_a1bb380594a4&#45;&gt;c</title>
<path fill="none" stroke="black" d="M2217.07,-133.02C2201.54,-128.72 2185.74,-124.88 2170.5,-122 1933.72,-77.23 1869.5,-107.67 1629.5,-86 1534.56,-77.43 1426.16,-64.7 1351.74,-55.5"/>
<text text-anchor="middle" x="1369.74" y="-58.5" font-family="Times,serif" font-size="10.00">currency</text>
</g>
</g>
</svg>
