<?xml version="1.0" encoding="UTF-8" standalone="no"?>
<!DOCTYPE svg PUBLIC "-//W3C//DTD SVG 1.1//EN"
 "http://www.w3.org/Graphics/SVG/1.1/DTD/svg11.dtd">
<!-- Generated by graphviz version 2.44.0 (20200408.0750)
 -->
<!-- Pages: 1 -->
<svg width="1209px" height="436px"
 viewBox="0.00 0.00 1208.74 436.00" xmlns="http://www.w3.org/2000/svg" xmlns:xlink="http://www.w3.org/1999/xlink">
<g id="graph0" class="graph" transform="scale(1.0 1.0) rotate(0) translate(4 432)">
<polygon fill="white" stroke="transparent" points="-4,4 -4,-432 1204.74,-432 1204.74,4 -4,4"/>
<!-- b9a8261f_0cde_4a44_a158_81963b5b33b0 -->
<g id="node1" class="node">
<title>b9a8261f_0cde_4a44_a158_81963b5b33b0</title>
<polygon fill="none" stroke="black" points="458.24,-406 458.24,-424 685.24,-424 685.24,-406 458.24,-406"/>
<text text-anchor="start" x="461.08" y="-413" font-family="Times,serif" text-decoration="underline" font-size="10.00">b9a8261f&#45;0cde&#45;4a44&#45;a158&#45;81963b5b33b0 :Transaction</text>
<polygon fill="none" stroke="black" points="458.24,-340 458.24,-406 685.24,-406 685.24,-340 458.24,-340"/>
<text text-anchor="start" x="474.03" y="-394" font-family="Times,serif" font-size="10.00">amount = 25.0</text>
<text text-anchor="start" x="474.03" y="-382" font-family="Times,serif" font-size="10.00">description = &quot;reference&quot;</text>
<text text-anchor="start" x="474.03" y="-370" font-family="Times,serif" font-size="10.00">id = &quot;b9a8261f&#45;0cde&#45;4a44&#45;a158&#45;81963b5b33b0&quot;</text>
<text text-anchor="start" x="474.03" y="-358" font-family="Times,serif" font-size="10.00">rejectionDescription = &quot;&quot;</text>
<text text-anchor="start" x="474.03" y="-346" font-family="Times,serif" font-size="10.00">timestamp = 2021&#45;11&#45;28T10:58:08.853302800</text>
</g>
<!-- b -->
<g id="node2" class="node">
<title>b</title>
<polygon fill="none" stroke="black" points="553.24,-272 553.24,-290 590.24,-290 590.24,-272 553.24,-272"/>
<text text-anchor="start" x="556.05" y="-279" font-family="Times,serif" text-decoration="underline" font-size="10.00">b :Bank</text>
<polygon fill="none" stroke="black" points="553.24,-266 553.24,-272 590.24,-272 590.24,-266 553.24,-266"/>
</g>
<!-- b9a8261f_0cde_4a44_a158_81963b5b33b0&#45;&gt;b -->
<g id="edge1" class="edge">
<title>b9a8261f_0cde_4a44_a158_81963b5b33b0&#45;&gt;b</title>
<path fill="none" stroke="black" d="M571.24,-335.96C571.24,-321.88 571.24,-307.17 571.24,-296.23"/>
<text text-anchor="middle" x="561.52" y="-299.23" font-family="Times,serif" font-size="10.00">bank</text>
<text text-anchor="middle" x="547.36" y="-326.96" font-family="Times,serif" font-size="10.00">transactions</text>
</g>
<!-- c -->
<g id="node3" class="node">
<title>c</title>
<polygon fill="none" stroke="black" points="199.24,-46 199.24,-64 333.24,-64 333.24,-46 199.24,-46"/>
<text text-anchor="start" x="242.78" y="-53" font-family="Times,serif" text-decoration="underline" font-size="10.00">c :Currency</text>
<polygon fill="none" stroke="black" points="199.24,-28 199.24,-46 333.24,-46 333.24,-28 199.24,-28"/>
<text text-anchor="start" x="202.24" y="-34" font-family="Times,serif" font-size="10.00">declaringClass = class Currency</text>
</g>
<!-- b9a8261f_0cde_4a44_a158_81963b5b33b0&#45;&gt;c -->
<g id="edge2" class="edge">
<title>b9a8261f_0cde_4a44_a158_81963b5b33b0&#45;&gt;c</title>
<path fill="none" stroke="black" d="M449.64,-362.81C303.09,-338.1 70,-288.98 18.24,-220 -6.3,-187.29 -5.77,-161.1 18.24,-128 57.4,-74.01 133.56,-55.33 191.2,-49.21"/>
<text text-anchor="middle" x="173.71" y="-52.21" font-family="Times,serif" font-size="10.00">currency</text>
</g>
<!-- 3b53f5b0_9d49_4aa5_a845_9d2b0d526488 -->
<g id="node4" class="node">
<title>3b53f5b0_9d49_4aa5_a845_9d2b0d526488</title>
<polygon fill="none" stroke="black" points="906.24,-180 906.24,-198 1121.24,-198 1121.24,-180 906.24,-180"/>
<text text-anchor="start" x="909.18" y="-187" font-family="Times,serif" text-decoration="underline" font-size="10.00">3b53f5b0&#45;9d49&#45;4aa5&#45;a845&#45;9d2b0d526488 :Account</text>
<polygon fill="none" stroke="black" points="906.24,-150 906.24,-180 1121.24,-180 1121.24,-150 906.24,-150"/>
<text text-anchor="start" x="915.47" y="-168" font-family="Times,serif" font-size="10.00">balance = 25.0</text>
<text text-anchor="start" x="915.47" y="-156" font-family="Times,serif" font-size="10.00">id = &quot;3b53f5b0&#45;9d49&#45;4aa5&#45;a845&#45;9d2b0d526488&quot;</text>
</g>
<!-- b9a8261f_0cde_4a44_a158_81963b5b33b0&#45;&gt;3b53f5b0_9d49_4aa5_a845_9d2b0d526488 -->
<g id="edge3" class="edge">
<title>b9a8261f_0cde_4a44_a158_81963b5b33b0&#45;&gt;3b53f5b0_9d49_4aa5_a845_9d2b0d526488</title>
<path fill="none" stroke="black" d="M592.68,-335.97C608.64,-304.41 630.17,-266.13 645.24,-256 735.86,-195.1 782.36,-246.62 888.24,-220 907.25,-215.22 927.42,-208.65 945.88,-202.01"/>
<text text-anchor="middle" x="923.94" y="-205.01" font-family="Times,serif" font-size="10.00">destination</text>
</g>
<!-- c41454a0_245b_4fdf_bcaa_b7f4987add17 -->
<g id="node5" class="node">
<title>c41454a0_245b_4fdf_bcaa_b7f4987add17</title>
<polygon fill="none" stroke="black" points="281.24,-180 281.24,-198 491.24,-198 491.24,-180 281.24,-180"/>
<text text-anchor="start" x="284.19" y="-187" font-family="Times,serif" text-decoration="underline" font-size="10.00">c41454a0&#45;245b&#45;4fdf&#45;bcaa&#45;b7f4987add17 :Account</text>
<polygon fill="none" stroke="black" points="281.24,-150 281.24,-180 491.24,-180 491.24,-150 281.24,-150"/>
<text text-anchor="start" x="290.48" y="-168" font-family="Times,serif" font-size="10.00">balance = 75.0</text>
<text text-anchor="start" x="290.48" y="-156" font-family="Times,serif" font-size="10.00">id = &quot;c41454a0&#45;245b&#45;4fdf&#45;bcaa&#45;b7f4987add17&quot;</text>
</g>
<!-- b9a8261f_0cde_4a44_a158_81963b5b33b0&#45;&gt;c41454a0_245b_4fdf_bcaa_b7f4987add17 -->
<g id="edge4" class="edge">
<title>b9a8261f_0cde_4a44_a158_81963b5b33b0&#45;&gt;c41454a0_245b_4fdf_bcaa_b7f4987add17</title>
<path fill="none" stroke="black" d="M530.64,-335.79C493.95,-294.93 441.14,-236.13 410.59,-202.12"/>
<text text-anchor="middle" x="397.55" y="-205.12" font-family="Times,serif" font-size="10.00">source</text>
</g>
<!-- s -->
<g id="node6" class="node">
<title>s</title>
<polygon fill="none" stroke="black" points="662.24,-278 662.24,-296 836.24,-296 836.24,-278 662.24,-278"/>
<text text-anchor="start" x="732.43" y="-285" font-family="Times,serif" text-decoration="underline" font-size="10.00">s :Status</text>
<polygon fill="none" stroke="black" points="662.24,-260 662.24,-278 836.24,-278 836.24,-260 662.24,-260"/>
<text text-anchor="start" x="665.24" y="-266" font-family="Times,serif" font-size="10.00">declaringClass = class Transaction$Status</text>
</g>
<!-- b9a8261f_0cde_4a44_a158_81963b5b33b0&#45;&gt;s -->
<g id="edge5" class="edge">
<title>b9a8261f_0cde_4a44_a158_81963b5b33b0&#45;&gt;s</title>
<path fill="none" stroke="black" d="M649.83,-335.96C671.62,-323.48 694.26,-310.5 712.42,-300.1"/>
<text text-anchor="middle" x="701.03" y="-303.1" font-family="Times,serif" font-size="10.00">status</text>
</g>
<!-- b&#45;&gt;3b53f5b0_9d49_4aa5_a845_9d2b0d526488 -->
<g id="edge8" class="edge">
<title>b&#45;&gt;3b53f5b0_9d49_4aa5_a845_9d2b0d526488</title>
<path fill="none" stroke="black" d="M598.48,-261.43C602.97,-259.34 607.66,-257.43 612.24,-256 730.36,-219.26 768.01,-249.12 888.24,-220 907.41,-215.36 927.71,-208.8 946.26,-202.12"/>
<text text-anchor="middle" x="963.75" y="-205.12" font-family="Times,serif" font-size="10.00">accounts</text>
<text text-anchor="middle" x="608.2" y="-252.43" font-family="Times,serif" font-size="10.00">bank</text>
</g>
<!-- b&#45;&gt;c41454a0_245b_4fdf_bcaa_b7f4987add17 -->
<g id="edge7" class="edge">
<title>b&#45;&gt;c41454a0_245b_4fdf_bcaa_b7f4987add17</title>
<path fill="none" stroke="black" d="M543.94,-261.95C515.4,-246.21 470,-221.18 435.22,-202.01"/>
<text text-anchor="middle" x="452.72" y="-205.01" font-family="Times,serif" font-size="10.00">accounts</text>
<text text-anchor="middle" x="534.22" y="-264.95" font-family="Times,serif" font-size="10.00">bank</text>
</g>
<!-- 3f9958a6_1eb2_456c_8fc8_8da957d29059 -->
<g id="node7" class="node">
<title>3f9958a6_1eb2_456c_8fc8_8da957d29059</title>
<polygon fill="none" stroke="black" points="35.24,-180 35.24,-198 247.24,-198 247.24,-180 35.24,-180"/>
<text text-anchor="start" x="38.08" y="-187" font-family="Times,serif" text-decoration="underline" font-size="10.00">3f9958a6&#45;1eb2&#45;456c&#45;8fc8&#45;8da957d29059 :Account</text>
<polygon fill="none" stroke="black" points="35.24,-150 35.24,-180 247.24,-180 247.24,-150 35.24,-150"/>
<text text-anchor="start" x="44.37" y="-168" font-family="Times,serif" font-size="10.00">balance = 69420.0</text>
<text text-anchor="start" x="44.37" y="-156" font-family="Times,serif" font-size="10.00">id = &quot;3f9958a6&#45;1eb2&#45;456c&#45;8fc8&#45;8da957d29059&quot;</text>
</g>
<!-- b&#45;&gt;3f9958a6_1eb2_456c_8fc8_8da957d29059 -->
<g id="edge6" class="edge">
<title>b&#45;&gt;3f9958a6_1eb2_456c_8fc8_8da957d29059</title>
<path fill="none" stroke="black" d="M544.21,-273.53C490.32,-266.28 365.94,-247.83 264.24,-220 246.04,-215.02 226.71,-208.54 208.9,-202.05"/>
<text text-anchor="middle" x="182.24" y="-205.05" font-family="Times,serif" font-size="10.00">bankAccount</text>
<text text-anchor="middle" x="534.49" y="-276.53" font-family="Times,serif" font-size="10.00">bank</text>
</g>
<!-- f4854871_8229_4109_8023_f3d2469ad368 -->
<g id="node8" class="node">
<title>f4854871_8229_4109_8023_f3d2469ad368</title>
<polygon fill="none" stroke="black" points="635.24,-198 635.24,-216 871.24,-216 871.24,-198 635.24,-198"/>
<text text-anchor="start" x="637.84" y="-205" font-family="Times,serif" text-decoration="underline" font-size="10.00">f4854871&#45;8229&#45;4109&#45;8023&#45;f3d2469ad368 :Administrator</text>
<polygon fill="none" stroke="black" points="635.24,-132 635.24,-198 871.24,-198 871.24,-132 635.24,-132"/>
<text text-anchor="start" x="655.24" y="-186" font-family="Times,serif" font-size="10.00">email = &quot;admin@bank.ee&quot;</text>
<text text-anchor="start" x="655.24" y="-174" font-family="Times,serif" font-size="10.00">firstName = &quot;Admin&quot;</text>
<text text-anchor="start" x="655.24" y="-162" font-family="Times,serif" font-size="10.00">id = &quot;f4854871&#45;8229&#45;4109&#45;8023&#45;f3d2469ad368&quot;</text>
<text text-anchor="start" x="655.24" y="-150" font-family="Times,serif" font-size="10.00">lastName = &quot;ALice&quot;</text>
<text text-anchor="start" x="655.24" y="-138" font-family="Times,serif" font-size="10.00">password = &quot;secure_p@ssw0|2d&quot;</text>
</g>
<!-- b&#45;&gt;f4854871_8229_4109_8023_f3d2469ad368 -->
<g id="edge9" class="edge">
<title>b&#45;&gt;f4854871_8229_4109_8023_f3d2469ad368</title>
<path fill="none" stroke="black" d="M598.49,-261.73C618.22,-250.67 645.99,-235.11 672.57,-220.21"/>
<text text-anchor="middle" x="643.97" y="-223.21" font-family="Times,serif" font-size="10.00">administrators</text>
<text text-anchor="middle" x="608.21" y="-264.73" font-family="Times,serif" font-size="10.00">bank</text>
</g>
<!-- c73fec65_e70f_41b7_8ffd_65a8665f9b7d -->
<g id="node9" class="node">
<title>c73fec65_e70f_41b7_8ffd_65a8665f9b7d</title>
<polygon fill="none" stroke="black" points="386.24,-70 386.24,-88 598.24,-88 598.24,-70 386.24,-70"/>
<text text-anchor="start" x="389.08" y="-77" font-family="Times,serif" text-decoration="underline" font-size="10.00">c73fec65&#45;e70f&#45;41b7&#45;8ffd&#45;65a8665f9b7d :Customer</text>
<polygon fill="none" stroke="black" points="386.24,-4 386.24,-70 598.24,-70 598.24,-4 386.24,-4"/>
<text text-anchor="start" x="397.87" y="-58" font-family="Times,serif" font-size="10.00">email = &quot;john@doe.ee&quot;</text>
<text text-anchor="start" x="397.87" y="-46" font-family="Times,serif" font-size="10.00">firstName = &quot;John&quot;</text>
<text text-anchor="start" x="397.87" y="-34" font-family="Times,serif" font-size="10.00">id = &quot;c73fec65&#45;e70f&#45;41b7&#45;8ffd&#45;65a8665f9b7d&quot;</text>
<text text-anchor="start" x="397.87" y="-22" font-family="Times,serif" font-size="10.00">lastName = &quot;Doe&quot;</text>
<text text-anchor="start" x="397.87" y="-10" font-family="Times,serif" font-size="10.00">password = &quot;pass1234&quot;</text>
</g>
<!-- b&#45;&gt;c73fec65_e70f_41b7_8ffd_65a8665f9b7d -->
<g id="edge10" class="edge">
<title>b&#45;&gt;c73fec65_e70f_41b7_8ffd_65a8665f9b7d</title>
<path fill="none" stroke="black" d="M577.23,-259.57C586.08,-230.8 599.6,-172.14 580.24,-128 574.4,-114.69 565.17,-102.6 554.85,-92.06"/>
<text text-anchor="middle" x="534.58" y="-95.06" font-family="Times,serif" font-size="10.00">customers</text>
<text text-anchor="middle" x="567.51" y="-250.57" font-family="Times,serif" font-size="10.00">bank</text>
</g>
<!-- b63f8f8e_0560_4cc6_84a8_8b8b2cfe3605 -->
<g id="node10" class="node">
<title>b63f8f8e_0560_4cc6_84a8_8b8b2cfe3605</title>
<polygon fill="none" stroke="black" points="978.24,-70 978.24,-88 1193.24,-88 1193.24,-70 978.24,-70"/>
<text text-anchor="start" x="981.19" y="-77" font-family="Times,serif" text-decoration="underline" font-size="10.00">b63f8f8e&#45;0560&#45;4cc6&#45;84a8&#45;8b8b2cfe3605 :Customer</text>
<polygon fill="none" stroke="black" points="978.24,-4 978.24,-70 1193.24,-70 1193.24,-4 978.24,-4"/>
<text text-anchor="start" x="989.98" y="-58" font-family="Times,serif" font-size="10.00">email = &quot;bobby@tt.ee&quot;</text>
<text text-anchor="start" x="989.98" y="-46" font-family="Times,serif" font-size="10.00">firstName = &quot;Bob&quot;</text>
<text text-anchor="start" x="989.98" y="-34" font-family="Times,serif" font-size="10.00">id = &quot;b63f8f8e&#45;0560&#45;4cc6&#45;84a8&#45;8b8b2cfe3605&quot;</text>
<text text-anchor="start" x="989.98" y="-22" font-family="Times,serif" font-size="10.00">lastName = &quot;Jackson&quot;</text>
<text text-anchor="start" x="989.98" y="-10" font-family="Times,serif" font-size="10.00">password = &quot;secret&quot;</text>
</g>
<!-- b&#45;&gt;b63f8f8e_0560_4cc6_84a8_8b8b2cfe3605 -->
<g id="edge11" class="edge">
<title>b&#45;&gt;b63f8f8e_0560_4cc6_84a8_8b8b2cfe3605</title>
<path fill="none" stroke="black" d="M598.34,-267.88C612.21,-263.57 629.46,-258.79 645.24,-256 699.33,-246.45 1100.84,-260.23 1138.24,-220 1170.75,-185.03 1145.97,-130.6 1120.47,-92.14"/>
<text text-anchor="middle" x="1100.2" y="-95.14" font-family="Times,serif" font-size="10.00">customers</text>
<text text-anchor="middle" x="608.06" y="-270.88" font-family="Times,serif" font-size="10.00">bank</text>
</g>
<!-- t -->
<g id="node11" class="node">
<title>t</title>
<polygon fill="none" stroke="black" points="526.24,-168 526.24,-186 562.24,-186 562.24,-168 526.24,-168"/>
<text text-anchor="start" x="528.83" y="-175" font-family="Times,serif" text-decoration="underline" font-size="10.00">t :Trace</text>
<polygon fill="none" stroke="black" points="526.24,-162 526.24,-168 562.24,-168 562.24,-162 526.24,-162"/>
</g>
<!-- b&#45;&gt;t -->
<g id="edge12" class="edge">
<title>b&#45;&gt;t</title>
<path fill="none" stroke="black" d="M566.66,-259.7C561.66,-240.83 553.72,-210.82 548.75,-192.05"/>
<text text-anchor="middle" x="537.1" y="-195.05" font-family="Times,serif" font-size="10.00">traces</text>
</g>
<!-- 3b53f5b0_9d49_4aa5_a845_9d2b0d526488&#45;&gt;c -->
<g id="edge13" class="edge">
<title>3b53f5b0_9d49_4aa5_a845_9d2b0d526488&#45;&gt;c</title>
<path fill="none" stroke="black" d="M948.7,-145.93C929.56,-138.95 908.33,-132.23 888.24,-128 661.97,-80.39 593.8,-147.09 369.24,-92 347.44,-86.65 324.45,-77.03 305.72,-68.05"/>
<text text-anchor="middle" x="323.21" y="-71.05" font-family="Times,serif" font-size="10.00">currency</text>
</g>
<!-- 3b53f5b0_9d49_4aa5_a845_9d2b0d526488&#45;&gt;b63f8f8e_0560_4cc6_84a8_8b8b2cfe3605 -->
<g id="edge14" class="edge">
<title>3b53f5b0_9d49_4aa5_a845_9d2b0d526488&#45;&gt;b63f8f8e_0560_4cc6_84a8_8b8b2cfe3605</title>
<path fill="none" stroke="black" d="M1028.69,-145.97C1037.61,-130.35 1049.07,-110.3 1059.34,-92.33"/>
<text text-anchor="middle" x="1046.84" y="-95.33" font-family="Times,serif" font-size="10.00">owner</text>
<text text-anchor="middle" x="1013.14" y="-136.97" font-family="Times,serif" font-size="10.00">account</text>
</g>
<!-- c41454a0_245b_4fdf_bcaa_b7f4987add17&#45;&gt;c -->
<g id="edge15" class="edge">
<title>c41454a0_245b_4fdf_bcaa_b7f4987add17&#45;&gt;c</title>
<path fill="none" stroke="black" d="M360.5,-145.97C338.32,-122.69 306.76,-89.54 286.39,-68.15"/>
<text text-anchor="middle" x="268.9" y="-71.15" font-family="Times,serif" font-size="10.00">currency</text>
</g>
<!-- c41454a0_245b_4fdf_bcaa_b7f4987add17&#45;&gt;c73fec65_e70f_41b7_8ffd_65a8665f9b7d -->
<g id="edge16" class="edge">
<title>c41454a0_245b_4fdf_bcaa_b7f4987add17&#45;&gt;c73fec65_e70f_41b7_8ffd_65a8665f9b7d</title>
<path fill="none" stroke="black" d="M408.98,-145.97C422.12,-130.35 438.99,-110.3 454.11,-92.33"/>
<text text-anchor="middle" x="441.61" y="-95.33" font-family="Times,serif" font-size="10.00">owner</text>
<text text-anchor="middle" x="393.43" y="-136.97" font-family="Times,serif" font-size="10.00">account</text>
</g>
<!-- 3f9958a6_1eb2_456c_8fc8_8da957d29059&#45;&gt;c -->
<g id="edge17" class="edge">
<title>3f9958a6_1eb2_456c_8fc8_8da957d29059&#45;&gt;c</title>
<path fill="none" stroke="black" d="M168.06,-145.97C191.15,-122.69 224.03,-89.54 245.25,-68.15"/>
<text text-anchor="middle" x="227.77" y="-71.15" font-family="Times,serif" font-size="10.00">currency</text>
</g>
</g>
</svg>
