<?xml version="1.0" encoding="UTF-8" standalone="no"?>
<!DOCTYPE svg PUBLIC "-//W3C//DTD SVG 1.1//EN"
 "http://www.w3.org/Graphics/SVG/1.1/DTD/svg11.dtd">
<!-- Generated by graphviz version 2.44.0 (20200408.0750)
 -->
<!-- Pages: 1 -->
<svg width="892px" height="436px"
 viewBox="0.00 0.00 891.75 436.00" xmlns="http://www.w3.org/2000/svg" xmlns:xlink="http://www.w3.org/1999/xlink">
<g id="graph0" class="graph" transform="scale(1.0 1.0) rotate(0) translate(4 432)">
<polygon fill="white" stroke="transparent" points="-4,4 -4,-432 887.75,-432 887.75,4 -4,4"/>
<!-- e3ca57b1_8880_4c68_9ec0_98bf1da4e8d5 -->
<g id="node1" class="node">
<title>e3ca57b1_8880_4c68_9ec0_98bf1da4e8d5</title>
<polygon fill="none" stroke="black" points="250.75,-406 250.75,-424 475.75,-424 475.75,-406 250.75,-406"/>
<text text-anchor="start" x="253.43" y="-413" font-family="Times,serif" text-decoration="underline" font-size="10.00">e3ca57b1&#45;8880&#45;4c68&#45;9ec0&#45;98bf1da4e8d5 :Transaction</text>
<polygon fill="none" stroke="black" points="250.75,-340 250.75,-406 475.75,-406 475.75,-340 250.75,-340"/>
<text text-anchor="start" x="266.38" y="-394" font-family="Times,serif" font-size="10.00">amount = 10.0</text>
<text text-anchor="start" x="266.38" y="-382" font-family="Times,serif" font-size="10.00">description = &quot;Fee&quot;</text>
<text text-anchor="start" x="266.38" y="-370" font-family="Times,serif" font-size="10.00">id = &quot;e3ca57b1&#45;8880&#45;4c68&#45;9ec0&#45;98bf1da4e8d5&quot;</text>
<text text-anchor="start" x="266.38" y="-358" font-family="Times,serif" font-size="10.00">rejectionDescription = &quot;&quot;</text>
<text text-anchor="start" x="266.38" y="-346" font-family="Times,serif" font-size="10.00">timestamp = 2021&#45;11&#45;28T10:58:08.725976400</text>
</g>
<!-- b -->
<g id="node2" class="node">
<title>b</title>
<polygon fill="none" stroke="black" points="399.75,-272 399.75,-290 436.75,-290 436.75,-272 399.75,-272"/>
<text text-anchor="start" x="402.56" y="-279" font-family="Times,serif" text-decoration="underline" font-size="10.00">b :Bank</text>
<polygon fill="none" stroke="black" points="399.75,-266 399.75,-272 436.75,-272 436.75,-266 399.75,-266"/>
</g>
<!-- e3ca57b1_8880_4c68_9ec0_98bf1da4e8d5&#45;&gt;b -->
<g id="edge1" class="edge">
<title>e3ca57b1_8880_4c68_9ec0_98bf1da4e8d5&#45;&gt;b</title>
<path fill="none" stroke="black" d="M387.03,-335.96C394.63,-321.88 402.56,-307.17 408.46,-296.23"/>
<text text-anchor="middle" x="398.74" y="-299.23" font-family="Times,serif" font-size="10.00">bank</text>
<text text-anchor="middle" x="363.15" y="-326.96" font-family="Times,serif" font-size="10.00">transactions</text>
</g>
<!-- c -->
<g id="node3" class="node">
<title>c</title>
<polygon fill="none" stroke="black" points="74.75,-46 74.75,-64 208.75,-64 208.75,-46 74.75,-46"/>
<text text-anchor="start" x="118.29" y="-53" font-family="Times,serif" text-decoration="underline" font-size="10.00">c :Currency</text>
<polygon fill="none" stroke="black" points="74.75,-28 74.75,-46 208.75,-46 208.75,-28 74.75,-28"/>
<text text-anchor="start" x="77.75" y="-34" font-family="Times,serif" font-size="10.00">declaringClass = class Currency</text>
</g>
<!-- e3ca57b1_8880_4c68_9ec0_98bf1da4e8d5&#45;&gt;c -->
<g id="edge2" class="edge">
<title>e3ca57b1_8880_4c68_9ec0_98bf1da4e8d5&#45;&gt;c</title>
<path fill="none" stroke="black" d="M241.83,-359.38C162.75,-338.29 65.24,-297.53 15.75,-220 -6.25,-185.54 -3.84,-163.89 15.75,-128 30.7,-100.61 59.32,-81.1 85.51,-68.1"/>
<text text-anchor="middle" x="68.02" y="-71.1" font-family="Times,serif" font-size="10.00">currency</text>
</g>
<!-- 1b36b36a_774d_4900_b9db_e3560685245d -->
<g id="node4" class="node">
<title>1b36b36a_774d_4900_b9db_e3560685245d</title>
<polygon fill="none" stroke="black" points="33.75,-180 33.75,-198 250.75,-198 250.75,-180 33.75,-180"/>
<text text-anchor="start" x="36.57" y="-187" font-family="Times,serif" text-decoration="underline" font-size="10.00">1b36b36a&#45;774d&#45;4900&#45;b9db&#45;e3560685245d :Account</text>
<polygon fill="none" stroke="black" points="33.75,-150 33.75,-180 250.75,-180 250.75,-150 33.75,-150"/>
<text text-anchor="start" x="42.86" y="-168" font-family="Times,serif" font-size="10.00">balance = 69430.0</text>
<text text-anchor="start" x="42.86" y="-156" font-family="Times,serif" font-size="10.00">id = &quot;1b36b36a&#45;774d&#45;4900&#45;b9db&#45;e3560685245d&quot;</text>
</g>
<!-- e3ca57b1_8880_4c68_9ec0_98bf1da4e8d5&#45;&gt;1b36b36a_774d_4900_b9db_e3560685245d -->
<g id="edge3" class="edge">
<title>e3ca57b1_8880_4c68_9ec0_98bf1da4e8d5&#45;&gt;1b36b36a_774d_4900_b9db_e3560685245d</title>
<path fill="none" stroke="black" d="M314.25,-335.79C270.41,-294.93 207.33,-236.13 170.84,-202.12"/>
<text text-anchor="middle" x="148.9" y="-205.12" font-family="Times,serif" font-size="10.00">destination</text>
</g>
<!-- f6141ed5_b6d2_4aa2_9e45_1259c9b82181 -->
<g id="node5" class="node">
<title>f6141ed5_b6d2_4aa2_9e45_1259c9b82181</title>
<polygon fill="none" stroke="black" points="284.75,-180 284.75,-198 497.75,-198 497.75,-180 284.75,-180"/>
<text text-anchor="start" x="287.25" y="-187" font-family="Times,serif" text-decoration="underline" font-size="10.00">f6141ed5&#45;b6d2&#45;4aa2&#45;9e45&#45;1259c9b82181 :Account</text>
<polygon fill="none" stroke="black" points="284.75,-150 284.75,-180 497.75,-180 497.75,-150 284.75,-150"/>
<text text-anchor="start" x="293.54" y="-168" font-family="Times,serif" font-size="10.00">balance = 90.0</text>
<text text-anchor="start" x="293.54" y="-156" font-family="Times,serif" font-size="10.00">id = &quot;f6141ed5&#45;b6d2&#45;4aa2&#45;9e45&#45;1259c9b82181&quot;</text>
</g>
<!-- e3ca57b1_8880_4c68_9ec0_98bf1da4e8d5&#45;&gt;f6141ed5_b6d2_4aa2_9e45_1259c9b82181 -->
<g id="edge4" class="edge">
<title>e3ca57b1_8880_4c68_9ec0_98bf1da4e8d5&#45;&gt;f6141ed5_b6d2_4aa2_9e45_1259c9b82181</title>
<path fill="none" stroke="black" d="M368.89,-335.79C374.45,-294.93 382.44,-236.13 387.06,-202.12"/>
<text text-anchor="middle" x="374.02" y="-205.12" font-family="Times,serif" font-size="10.00">source</text>
</g>
<!-- s -->
<g id="node6" class="node">
<title>s</title>
<polygon fill="none" stroke="black" points="470.75,-278 470.75,-296 644.75,-296 644.75,-278 470.75,-278"/>
<text text-anchor="start" x="540.94" y="-285" font-family="Times,serif" text-decoration="underline" font-size="10.00">s :Status</text>
<polygon fill="none" stroke="black" points="470.75,-260 470.75,-278 644.75,-278 644.75,-260 470.75,-260"/>
<text text-anchor="start" x="473.75" y="-266" font-family="Times,serif" font-size="10.00">declaringClass = class Transaction$Status</text>
</g>
<!-- e3ca57b1_8880_4c68_9ec0_98bf1da4e8d5&#45;&gt;s -->
<g id="edge5" class="edge">
<title>e3ca57b1_8880_4c68_9ec0_98bf1da4e8d5&#45;&gt;s</title>
<path fill="none" stroke="black" d="M448.85,-335.96C472.72,-323.48 497.52,-310.5 517.41,-300.1"/>
<text text-anchor="middle" x="506.02" y="-303.1" font-family="Times,serif" font-size="10.00">status</text>
</g>
<!-- b&#45;&gt;1b36b36a_774d_4900_b9db_e3560685245d -->
<g id="edge6" class="edge">
<title>b&#45;&gt;1b36b36a_774d_4900_b9db_e3560685245d</title>
<path fill="none" stroke="black" d="M390.53,-266.94C350.07,-251.99 272.63,-223.37 214.85,-202.02"/>
<text text-anchor="middle" x="241.51" y="-205.02" font-family="Times,serif" font-size="10.00">bankAccount</text>
<text text-anchor="middle" x="380.81" y="-269.94" font-family="Times,serif" font-size="10.00">bank</text>
</g>
<!-- b&#45;&gt;f6141ed5_b6d2_4aa2_9e45_1259c9b82181 -->
<g id="edge7" class="edge">
<title>b&#45;&gt;f6141ed5_b6d2_4aa2_9e45_1259c9b82181</title>
<path fill="none" stroke="black" d="M413.17,-259.7C408.99,-243.9 402.74,-220.28 397.9,-202"/>
<text text-anchor="middle" x="415.39" y="-205" font-family="Times,serif" font-size="10.00">accounts</text>
<text text-anchor="middle" x="403.45" y="-250.7" font-family="Times,serif" font-size="10.00">bank</text>
</g>
<!-- 544af211_d36e_47cd_8c8b_0dd21f34c660 -->
<g id="node7" class="node">
<title>544af211_d36e_47cd_8c8b_0dd21f34c660</title>
<polygon fill="none" stroke="black" points="569.75,-198 569.75,-216 803.75,-216 803.75,-198 569.75,-198"/>
<text text-anchor="start" x="572.48" y="-205" font-family="Times,serif" text-decoration="underline" font-size="10.00">544af211&#45;d36e&#45;47cd&#45;8c8b&#45;0dd21f34c660 :Administrator</text>
<polygon fill="none" stroke="black" points="569.75,-132 569.75,-198 803.75,-198 803.75,-132 569.75,-132"/>
<text text-anchor="start" x="589.88" y="-186" font-family="Times,serif" font-size="10.00">email = &quot;admin@bank.ee&quot;</text>
<text text-anchor="start" x="589.88" y="-174" font-family="Times,serif" font-size="10.00">firstName = &quot;Admin&quot;</text>
<text text-anchor="start" x="589.88" y="-162" font-family="Times,serif" font-size="10.00">id = &quot;544af211&#45;d36e&#45;47cd&#45;8c8b&#45;0dd21f34c660&quot;</text>
<text text-anchor="start" x="589.88" y="-150" font-family="Times,serif" font-size="10.00">lastName = &quot;ALice&quot;</text>
<text text-anchor="start" x="589.88" y="-138" font-family="Times,serif" font-size="10.00">password = &quot;secure_p@ssw0|2d&quot;</text>
</g>
<!-- b&#45;&gt;544af211_d36e_47cd_8c8b_0dd21f34c660 -->
<g id="edge8" class="edge">
<title>b&#45;&gt;544af211_d36e_47cd_8c8b_0dd21f34c660</title>
<path fill="none" stroke="black" d="M444.97,-260.39C447.9,-258.82 450.86,-257.33 453.75,-256 474.37,-246.51 517.86,-230.99 561.75,-216.06"/>
<text text-anchor="middle" x="533.14" y="-219.06" font-family="Times,serif" font-size="10.00">administrators</text>
<text text-anchor="middle" x="435.25" y="-251.39" font-family="Times,serif" font-size="10.00">bank</text>
</g>
<!-- 580b7dd3_9d9f_412d_9cce_dd63af6fcb48 -->
<g id="node8" class="node">
<title>580b7dd3_9d9f_412d_9cce_dd63af6fcb48</title>
<polygon fill="none" stroke="black" points="354.75,-70 354.75,-88 569.75,-88 569.75,-70 354.75,-70"/>
<text text-anchor="start" x="357.42" y="-77" font-family="Times,serif" text-decoration="underline" font-size="10.00">580b7dd3&#45;9d9f&#45;412d&#45;9cce&#45;dd63af6fcb48 :Customer</text>
<polygon fill="none" stroke="black" points="354.75,-4 354.75,-70 569.75,-70 569.75,-4 354.75,-4"/>
<text text-anchor="start" x="366.21" y="-58" font-family="Times,serif" font-size="10.00">email = &quot;john@doe.ee&quot;</text>
<text text-anchor="start" x="366.21" y="-46" font-family="Times,serif" font-size="10.00">firstName = &quot;John&quot;</text>
<text text-anchor="start" x="366.21" y="-34" font-family="Times,serif" font-size="10.00">id = &quot;580b7dd3&#45;9d9f&#45;412d&#45;9cce&#45;dd63af6fcb48&quot;</text>
<text text-anchor="start" x="366.21" y="-22" font-family="Times,serif" font-size="10.00">lastName = &quot;Doe&quot;</text>
<text text-anchor="start" x="366.21" y="-10" font-family="Times,serif" font-size="10.00">password = &quot;pass1234&quot;</text>
</g>
<!-- b&#45;&gt;580b7dd3_9d9f_412d_9cce_dd63af6fcb48 -->
<g id="edge9" class="edge">
<title>b&#45;&gt;580b7dd3_9d9f_412d_9cce_dd63af6fcb48</title>
<path fill="none" stroke="black" d="M444.93,-261.13C473.54,-244.42 514.5,-220.44 514.75,-220 535.06,-184.51 526.43,-167.18 514.75,-128 511.05,-115.6 504.78,-103.33 497.83,-92.24"/>
<text text-anchor="middle" x="477.56" y="-95.24" font-family="Times,serif" font-size="10.00">customers</text>
<text text-anchor="middle" x="454.65" y="-252.13" font-family="Times,serif" font-size="10.00">bank</text>
</g>
<!-- t -->
<g id="node9" class="node">
<title>t</title>
<polygon fill="none" stroke="black" points="838.75,-168 838.75,-186 874.75,-186 874.75,-168 838.75,-168"/>
<text text-anchor="start" x="841.34" y="-175" font-family="Times,serif" text-decoration="underline" font-size="10.00">t :Trace</text>
<polygon fill="none" stroke="black" points="838.75,-162 838.75,-168 874.75,-168 874.75,-162 838.75,-162"/>
</g>
<!-- b&#45;&gt;t -->
<g id="edge10" class="edge">
<title>b&#45;&gt;t</title>
<path fill="none" stroke="black" d="M444.29,-259.86C447.39,-258.36 450.58,-257.02 453.75,-256 609.68,-205.55 676.68,-298.13 820.75,-220 832.36,-213.7 841.57,-201.94 847.76,-192.01"/>
<text text-anchor="middle" x="836.11" y="-195.01" font-family="Times,serif" font-size="10.00">traces</text>
</g>
<!-- 1b36b36a_774d_4900_b9db_e3560685245d&#45;&gt;c -->
<g id="edge11" class="edge">
<title>1b36b36a_774d_4900_b9db_e3560685245d&#45;&gt;c</title>
<path fill="none" stroke="black" d="M141.75,-145.97C141.75,-122.69 141.75,-89.54 141.75,-68.15"/>
<text text-anchor="middle" x="124.26" y="-71.15" font-family="Times,serif" font-size="10.00">currency</text>
</g>
<!-- f6141ed5_b6d2_4aa2_9e45_1259c9b82181&#45;&gt;c -->
<g id="edge12" class="edge">
<title>f6141ed5_b6d2_4aa2_9e45_1259c9b82181&#45;&gt;c</title>
<path fill="none" stroke="black" d="M337.33,-145.97C291.32,-122.69 225.82,-89.54 183.55,-68.15"/>
<text text-anchor="middle" x="166.06" y="-71.15" font-family="Times,serif" font-size="10.00">currency</text>
</g>
<!-- f6141ed5_b6d2_4aa2_9e45_1259c9b82181&#45;&gt;580b7dd3_9d9f_412d_9cce_dd63af6fcb48 -->
<g id="edge13" class="edge">
<title>f6141ed5_b6d2_4aa2_9e45_1259c9b82181&#45;&gt;580b7dd3_9d9f_412d_9cce_dd63af6fcb48</title>
<path fill="none" stroke="black" d="M405.98,-145.97C414.78,-130.35 426.08,-110.3 436.21,-92.33"/>
<text text-anchor="middle" x="423.71" y="-95.33" font-family="Times,serif" font-size="10.00">owner</text>
<text text-anchor="middle" x="390.43" y="-136.97" font-family="Times,serif" font-size="10.00">account</text>
</g>
</g>
</svg>
