<?xml version="1.0" encoding="UTF-8" standalone="no"?>
<!DOCTYPE svg PUBLIC "-//W3C//DTD SVG 1.1//EN"
 "http://www.w3.org/Graphics/SVG/1.1/DTD/svg11.dtd">
<!-- Generated by graphviz version 2.49.3 (20211023.0002)
 -->
<!-- Pages: 1 -->
<svg width="1101px" height="416px"
 viewBox="0.00 0.00 1100.91 416.00" xmlns="http://www.w3.org/2000/svg" xmlns:xlink="http://www.w3.org/1999/xlink">
<g id="graph0" class="graph" transform="scale(1.0 1.0) rotate(0) translate(4 412)">
<polygon fill="white" stroke="transparent" points="-4,4 -4,-412 1096.91,-412 1096.91,4 -4,4"/>
<!-- ef1d5681_0892_4767_a69b_428b7e689e09 -->
<g id="node1" class="node">
<title>ef1d5681_0892_4767_a69b_428b7e689e09</title>
<polygon fill="none" stroke="black" points="417.41,-387 417.41,-404 645.41,-404 645.41,-387 417.41,-387"/>
<text text-anchor="start" x="420.41" y="-394" font-family="Times,serif" text-decoration="underline" font-size="10.00">ef1d5681&#45;0892&#45;4767&#45;a69b&#45;428b7e689e09 :Transaction</text>
<polygon fill="none" stroke="black" points="417.41,-326 417.41,-387 645.41,-387 645.41,-326 417.41,-326"/>
<text text-anchor="start" x="433.41" y="-376" font-family="Times,serif" font-size="10.00">amount = 25.5</text>
<text text-anchor="start" x="433.41" y="-365" font-family="Times,serif" font-size="10.00">description = &quot;Ref: concert ticket&quot;</text>
<text text-anchor="start" x="433.41" y="-354" font-family="Times,serif" font-size="10.00">id = &quot;ef1d5681&#45;0892&#45;4767&#45;a69b&#45;428b7e689e09&quot;</text>
<text text-anchor="start" x="433.41" y="-343" font-family="Times,serif" font-size="10.00">rejectionDescription = &quot;&quot;</text>
<text text-anchor="start" x="433.41" y="-332" font-family="Times,serif" font-size="10.00">timestamp = 2021&#45;11&#45;27T18:55:02.537315</text>
</g>
<!-- b -->
<g id="node2" class="node">
<title>b</title>
<polygon fill="none" stroke="black" points="512.41,-259 512.41,-276 550.41,-276 550.41,-259 512.41,-259"/>
<text text-anchor="start" x="515.41" y="-266" font-family="Times,serif" text-decoration="underline" font-size="10.00">b :Bank</text>
<polygon fill="none" stroke="black" points="512.41,-253 512.41,-259 550.41,-259 550.41,-253 512.41,-253"/>
</g>
<!-- ef1d5681_0892_4767_a69b_428b7e689e09&#45;&gt;b -->
<g id="edge1" class="edge">
<title>ef1d5681_0892_4767_a69b_428b7e689e09&#45;&gt;b</title>
<path fill="none" stroke="black" d="M531.41,-321.87C531.41,-308.38 531.41,-294.19 531.41,-283.48"/>
<text text-anchor="middle" x="521.41" y="-286.48" font-family="Times,serif" font-size="10.00">bank</text>
<text text-anchor="middle" x="507.41" y="-313.87" font-family="Times,serif" font-size="10.00">transactions</text>
</g>
<!-- c -->
<g id="node3" class="node">
<title>c</title>
<polygon fill="none" stroke="black" points="119.41,-43 119.41,-60 254.41,-60 254.41,-43 119.41,-43"/>
<text text-anchor="start" x="163.41" y="-50" font-family="Times,serif" text-decoration="underline" font-size="10.00">c :Currency</text>
<polygon fill="none" stroke="black" points="119.41,-26 119.41,-43 254.41,-43 254.41,-26 119.41,-26"/>
<text text-anchor="start" x="122.41" y="-32" font-family="Times,serif" font-size="10.00">declaringClass = class Currency</text>
</g>
<!-- ef1d5681_0892_4767_a69b_428b7e689e09&#45;&gt;c -->
<g id="edge2" class="edge">
<title>ef1d5681_0892_4767_a69b_428b7e689e09&#45;&gt;c</title>
<path fill="none" stroke="black" d="M409.4,-344.11C272.51,-319.01 63.42,-271.35 16.41,-208 -6.36,-177.3 -4.22,-154.17 16.41,-122 37.36,-89.34 75.8,-70.17 110.83,-59.02"/>
<text text-anchor="middle" x="93.33" y="-62.02" font-family="Times,serif" font-size="10.00">currency</text>
</g>
<!-- 4e59c3be_36b9_40b1_b39b_a8374419829c -->
<g id="node4" class="node">
<title>4e59c3be_36b9_40b1_b39b_a8374419829c</title>
<polygon fill="none" stroke="black" points="33.41,-170 33.41,-187 249.41,-187 249.41,-170 33.41,-170"/>
<text text-anchor="start" x="36.41" y="-177" font-family="Times,serif" text-decoration="underline" font-size="10.00">4e59c3be&#45;36b9&#45;40b1&#45;b39b&#45;a8374419829c :Account</text>
<polygon fill="none" stroke="black" points="33.41,-142 33.41,-170 249.41,-170 249.41,-142 33.41,-142"/>
<text text-anchor="start" x="42.41" y="-159" font-family="Times,serif" font-size="10.00">balance = 25.5</text>
<text text-anchor="start" x="42.41" y="-148" font-family="Times,serif" font-size="10.00">id = &quot;4e59c3be&#45;36b9&#45;40b1&#45;b39b&#45;a8374419829c&quot;</text>
</g>
<!-- ef1d5681_0892_4767_a69b_428b7e689e09&#45;&gt;4e59c3be_36b9_40b1_b39b_a8374419829c -->
<g id="edge3" class="edge">
<title>ef1d5681_0892_4767_a69b_428b7e689e09&#45;&gt;4e59c3be_36b9_40b1_b39b_a8374419829c</title>
<path fill="none" stroke="black" d="M448.23,-321.77C370.38,-282.24 256.61,-224.49 191.72,-191.54"/>
<text text-anchor="middle" x="169.72" y="-194.54" font-family="Times,serif" font-size="10.00">destination</text>
</g>
<!-- b41650df_b152_4eee_9932_5a3d24f424cd -->
<g id="node5" class="node">
<title>b41650df_b152_4eee_9932_5a3d24f424cd</title>
<polygon fill="none" stroke="black" points="872.41,-170 872.41,-187 1085.41,-187 1085.41,-170 872.41,-170"/>
<text text-anchor="start" x="875.41" y="-177" font-family="Times,serif" text-decoration="underline" font-size="10.00">b41650df&#45;b152&#45;4eee&#45;9932&#45;5a3d24f424cd :Account</text>
<polygon fill="none" stroke="black" points="872.41,-142 872.41,-170 1085.41,-170 1085.41,-142 872.41,-142"/>
<text text-anchor="start" x="881.91" y="-159" font-family="Times,serif" font-size="10.00">balance = 74.5</text>
<text text-anchor="start" x="881.91" y="-148" font-family="Times,serif" font-size="10.00">id = &quot;b41650df&#45;b152&#45;4eee&#45;9932&#45;5a3d24f424cd&quot;</text>
</g>
<!-- ef1d5681_0892_4767_a69b_428b7e689e09&#45;&gt;b41650df_b152_4eee_9932_5a3d24f424cd -->
<g id="edge4" class="edge">
<title>ef1d5681_0892_4767_a69b_428b7e689e09&#45;&gt;b41650df_b152_4eee_9932_5a3d24f424cd</title>
<path fill="none" stroke="black" d="M552.56,-321.7C568.67,-291.22 590.54,-253.79 605.41,-244 696.96,-183.71 742.7,-233.06 849.41,-208 868.33,-203.56 888.45,-197.62 907.04,-191.61"/>
<text text-anchor="middle" x="893.54" y="-194.61" font-family="Times,serif" font-size="10.00">source</text>
</g>
<!-- s -->
<g id="node6" class="node">
<title>s</title>
<polygon fill="none" stroke="black" points="622.41,-265 622.41,-282 796.41,-282 796.41,-265 622.41,-265"/>
<text text-anchor="start" x="692.41" y="-272" font-family="Times,serif" text-decoration="underline" font-size="10.00">s :Status</text>
<polygon fill="none" stroke="black" points="622.41,-248 622.41,-265 796.41,-265 796.41,-248 622.41,-248"/>
<text text-anchor="start" x="625.41" y="-254" font-family="Times,serif" font-size="10.00">declaringClass = class Transaction$Status</text>
</g>
<!-- ef1d5681_0892_4767_a69b_428b7e689e09&#45;&gt;s -->
<g id="edge5" class="edge">
<title>ef1d5681_0892_4767_a69b_428b7e689e09&#45;&gt;s</title>
<path fill="none" stroke="black" d="M607.93,-321.87C630.55,-309.42 654.26,-296.37 673.07,-286.01"/>
<text text-anchor="middle" x="661.57" y="-289.01" font-family="Times,serif" font-size="10.00">status</text>
</g>
<!-- b&#45;&gt;4e59c3be_36b9_40b1_b39b_a8374419829c -->
<g id="edge8" class="edge">
<title>b&#45;&gt;4e59c3be_36b9_40b1_b39b_a8374419829c</title>
<path fill="none" stroke="black" d="M504.08,-259.3C455.73,-250.76 352.16,-231.38 266.41,-208 248.85,-203.21 230.15,-197.35 212.7,-191.54"/>
<text text-anchor="middle" x="230.2" y="-194.54" font-family="Times,serif" font-size="10.00">accounts</text>
<text text-anchor="middle" x="494.08" y="-262.3" font-family="Times,serif" font-size="10.00">bank</text>
</g>
<!-- b&#45;&gt;b41650df_b152_4eee_9932_5a3d24f424cd -->
<g id="edge7" class="edge">
<title>b&#45;&gt;b41650df_b152_4eee_9932_5a3d24f424cd</title>
<path fill="none" stroke="black" d="M558.71,-249.18C563.19,-247.19 567.86,-245.37 572.41,-244 691.32,-208.32 728.31,-235.33 849.41,-208 868.71,-203.64 889.23,-197.62 908.1,-191.5"/>
<text text-anchor="middle" x="925.6" y="-194.5" font-family="Times,serif" font-size="10.00">accounts</text>
<text text-anchor="middle" x="568.71" y="-241.18" font-family="Times,serif" font-size="10.00">bank</text>
</g>
<!-- 7fb615ad_7c20_4e44_a042_c8d5b04f23e7 -->
<g id="node7" class="node">
<title>7fb615ad_7c20_4e44_a042_c8d5b04f23e7</title>
<polygon fill="none" stroke="black" points="283.41,-170 283.41,-187 495.41,-187 495.41,-170 283.41,-170"/>
<text text-anchor="start" x="286.41" y="-177" font-family="Times,serif" text-decoration="underline" font-size="10.00">7fb615ad&#45;7c20&#45;4e44&#45;a042&#45;c8d5b04f23e7 :Account</text>
<polygon fill="none" stroke="black" points="283.41,-142 283.41,-170 495.41,-170 495.41,-142 283.41,-142"/>
<text text-anchor="start" x="292.41" y="-159" font-family="Times,serif" font-size="10.00">balance = 69420.0</text>
<text text-anchor="start" x="292.41" y="-148" font-family="Times,serif" font-size="10.00">id = &quot;7fb615ad&#45;7c20&#45;4e44&#45;a042&#45;c8d5b04f23e7&quot;</text>
</g>
<!-- b&#45;&gt;7fb615ad_7c20_4e44_a042_c8d5b04f23e7 -->
<g id="edge6" class="edge">
<title>b&#45;&gt;7fb615ad_7c20_4e44_a042_c8d5b04f23e7</title>
<path fill="none" stroke="black" d="M506.68,-246.93C484.51,-231.63 451.68,-208.97 426.39,-191.52"/>
<text text-anchor="middle" x="399.39" y="-194.52" font-family="Times,serif" font-size="10.00">bankAccount</text>
<text text-anchor="middle" x="496.68" y="-238.93" font-family="Times,serif" font-size="10.00">bank</text>
</g>
<!-- 2f2175fd_fd9f_49ca_a9bd_ba1148a4123c -->
<g id="node8" class="node">
<title>2f2175fd_fd9f_49ca_a9bd_ba1148a4123c</title>
<polygon fill="none" stroke="black" points="568.41,-187 568.41,-204 799.41,-204 799.41,-187 568.41,-187"/>
<text text-anchor="start" x="571.41" y="-194" font-family="Times,serif" text-decoration="underline" font-size="10.00">2f2175fd&#45;fd9f&#45;49ca&#45;a9bd&#45;ba1148a4123c :Administrator</text>
<polygon fill="none" stroke="black" points="568.41,-126 568.41,-187 799.41,-187 799.41,-126 568.41,-126"/>
<text text-anchor="start" x="588.91" y="-176" font-family="Times,serif" font-size="10.00">email = &quot;admin@bank.ee&quot;</text>
<text text-anchor="start" x="588.91" y="-165" font-family="Times,serif" font-size="10.00">firstName = &quot;Admin&quot;</text>
<text text-anchor="start" x="588.91" y="-154" font-family="Times,serif" font-size="10.00">id = &quot;2f2175fd&#45;fd9f&#45;49ca&#45;a9bd&#45;ba1148a4123c&quot;</text>
<text text-anchor="start" x="588.91" y="-143" font-family="Times,serif" font-size="10.00">lastName = &quot;ALice&quot;</text>
<text text-anchor="start" x="588.91" y="-132" font-family="Times,serif" font-size="10.00">password = &quot;secure_p@ssw0|2d&quot;</text>
</g>
<!-- b&#45;&gt;2f2175fd_fd9f_49ca_a9bd_ba1148a4123c -->
<g id="edge9" class="edge">
<title>b&#45;&gt;2f2175fd_fd9f_49ca_a9bd_ba1148a4123c</title>
<path fill="none" stroke="black" d="M557.89,-246.93C574.56,-236.18 596.86,-221.8 618.04,-208.15"/>
<text text-anchor="middle" x="589.04" y="-211.15" font-family="Times,serif" font-size="10.00">administrators</text>
<text text-anchor="middle" x="547.89" y="-238.93" font-family="Times,serif" font-size="10.00">bank</text>
</g>
<!-- 38eeb8d4_9ed2_4145_b3d2_772860f95afe -->
<g id="node9" class="node">
<title>38eeb8d4_9ed2_4145_b3d2_772860f95afe</title>
<polygon fill="none" stroke="black" points="797.41,-65 797.41,-82 1015.41,-82 1015.41,-65 797.41,-65"/>
<text text-anchor="start" x="800.41" y="-72" font-family="Times,serif" text-decoration="underline" font-size="10.00">38eeb8d4&#45;9ed2&#45;4145&#45;b3d2&#45;772860f95afe :Customer</text>
<polygon fill="none" stroke="black" points="797.41,-4 797.41,-65 1015.41,-65 1015.41,-4 797.41,-4"/>
<text text-anchor="start" x="809.41" y="-54" font-family="Times,serif" font-size="10.00">email = &quot;john@doe.ee&quot;</text>
<text text-anchor="start" x="809.41" y="-43" font-family="Times,serif" font-size="10.00">firstName = &quot;John&quot;</text>
<text text-anchor="start" x="809.41" y="-32" font-family="Times,serif" font-size="10.00">id = &quot;38eeb8d4&#45;9ed2&#45;4145&#45;b3d2&#45;772860f95afe&quot;</text>
<text text-anchor="start" x="809.41" y="-21" font-family="Times,serif" font-size="10.00">lastName = &quot;Doe&quot;</text>
<text text-anchor="start" x="809.41" y="-10" font-family="Times,serif" font-size="10.00">password = &quot;pass1234&quot;</text>
</g>
<!-- b&#45;&gt;38eeb8d4_9ed2_4145_b3d2_772860f95afe -->
<g id="edge10" class="edge">
<title>b&#45;&gt;38eeb8d4_9ed2_4145_b3d2_772860f95afe</title>
<path fill="none" stroke="black" d="M558.73,-249.25C563.21,-247.25 567.87,-245.41 572.41,-244 677.13,-211.59 728.87,-273.97 816.41,-208 849.93,-182.74 835.2,-158.78 855.41,-122 861.96,-110.09 869.7,-97.6 877.15,-86.19"/>
<text text-anchor="middle" x="856.65" y="-89.19" font-family="Times,serif" font-size="10.00">customers</text>
<text text-anchor="middle" x="568.73" y="-252.25" font-family="Times,serif" font-size="10.00">bank</text>
</g>
<!-- d4326bb6_12c4_4e4a_b76e_16af219b6f49 -->
<g id="node10" class="node">
<title>d4326bb6_12c4_4e4a_b76e_16af219b6f49</title>
<polygon fill="none" stroke="black" points="333.41,-65 333.41,-82 551.41,-82 551.41,-65 333.41,-65"/>
<text text-anchor="start" x="336.41" y="-72" font-family="Times,serif" text-decoration="underline" font-size="10.00">d4326bb6&#45;12c4&#45;4e4a&#45;b76e&#45;16af219b6f49 :Customer</text>
<polygon fill="none" stroke="black" points="333.41,-4 333.41,-65 551.41,-65 551.41,-4 333.41,-4"/>
<text text-anchor="start" x="345.41" y="-54" font-family="Times,serif" font-size="10.00">email = &quot;bobby@tt.ee&quot;</text>
<text text-anchor="start" x="345.41" y="-43" font-family="Times,serif" font-size="10.00">firstName = &quot;Bob&quot;</text>
<text text-anchor="start" x="345.41" y="-32" font-family="Times,serif" font-size="10.00">id = &quot;d4326bb6&#45;12c4&#45;4e4a&#45;b76e&#45;16af219b6f49&quot;</text>
<text text-anchor="start" x="345.41" y="-21" font-family="Times,serif" font-size="10.00">lastName = &quot;Jackson&quot;</text>
<text text-anchor="start" x="345.41" y="-10" font-family="Times,serif" font-size="10.00">password = &quot;secret&quot;</text>
</g>
<!-- b&#45;&gt;d4326bb6_12c4_4e4a_b76e_16af219b6f49 -->
<g id="edge11" class="edge">
<title>b&#45;&gt;d4326bb6_12c4_4e4a_b76e_16af219b6f49</title>
<path fill="none" stroke="black" d="M532.29,-246.93C533.03,-219.33 531.69,-163.78 512.41,-122 506.54,-109.28 497.87,-97.15 488.62,-86.42"/>
<text text-anchor="middle" x="468.12" y="-89.42" font-family="Times,serif" font-size="10.00">customers</text>
<text text-anchor="middle" x="522.29" y="-238.93" font-family="Times,serif" font-size="10.00">bank</text>
</g>
<!-- 4e59c3be_36b9_40b1_b39b_a8374419829c&#45;&gt;c -->
<g id="edge12" class="edge">
<title>4e59c3be_36b9_40b1_b39b_a8374419829c&#45;&gt;c</title>
<path fill="none" stroke="black" d="M151.07,-138.26C159.38,-116.08 171.22,-84.52 178.86,-64.15"/>
<text text-anchor="middle" x="161.36" y="-67.15" font-family="Times,serif" font-size="10.00">currency</text>
</g>
<!-- 4e59c3be_36b9_40b1_b39b_a8374419829c&#45;&gt;d4326bb6_12c4_4e4a_b76e_16af219b6f49 -->
<g id="edge13" class="edge">
<title>4e59c3be_36b9_40b1_b39b_a8374419829c&#45;&gt;d4326bb6_12c4_4e4a_b76e_16af219b6f49</title>
<path fill="none" stroke="black" d="M205.62,-138.4C243.77,-123.19 293.11,-103.52 336.86,-86.08"/>
<text text-anchor="middle" x="324.36" y="-89.08" font-family="Times,serif" font-size="10.00">owner</text>
<text text-anchor="middle" x="189.62" y="-130.4" font-family="Times,serif" font-size="10.00">account</text>
</g>
<!-- b41650df_b152_4eee_9932_5a3d24f424cd&#45;&gt;c -->
<g id="edge14" class="edge">
<title>b41650df_b152_4eee_9932_5a3d24f424cd&#45;&gt;c</title>
<path fill="none" stroke="black" d="M891.6,-138.39C867.44,-132.12 841.07,-126.05 816.41,-122 596.56,-85.89 535.11,-128.55 316.41,-86 290.34,-80.93 262.2,-72.25 238.79,-64.1"/>
<text text-anchor="middle" x="256.29" y="-67.1" font-family="Times,serif" font-size="10.00">currency</text>
</g>
<!-- b41650df_b152_4eee_9932_5a3d24f424cd&#45;&gt;38eeb8d4_9ed2_4145_b3d2_772860f95afe -->
<g id="edge15" class="edge">
<title>b41650df_b152_4eee_9932_5a3d24f424cd&#45;&gt;38eeb8d4_9ed2_4145_b3d2_772860f95afe</title>
<path fill="none" stroke="black" d="M962.97,-138.26C953.88,-123.11 942.16,-103.57 931.75,-86.22"/>
<text text-anchor="middle" x="919.25" y="-89.22" font-family="Times,serif" font-size="10.00">owner</text>
<text text-anchor="middle" x="946.97" y="-130.26" font-family="Times,serif" font-size="10.00">account</text>
</g>
<!-- 7fb615ad_7c20_4e44_a042_c8d5b04f23e7&#45;&gt;c -->
<g id="edge16" class="edge">
<title>7fb615ad_7c20_4e44_a042_c8d5b04f23e7&#45;&gt;c</title>
<path fill="none" stroke="black" d="M345.86,-138.26C308.35,-116.08 254.96,-84.52 220.49,-64.15"/>
<text text-anchor="middle" x="202.99" y="-67.15" font-family="Times,serif" font-size="10.00">currency</text>
</g>
</g>
</svg>
