<?xml version="1.0" encoding="UTF-8" standalone="no"?>
<!DOCTYPE svg PUBLIC "-//W3C//DTD SVG 1.1//EN"
 "http://www.w3.org/Graphics/SVG/1.1/DTD/svg11.dtd">
<!-- Generated by graphviz version 2.49.3 (20211023.0002)
 -->
<!-- Title: model Pages: 1 -->
<svg width="1914px" height="427px"
 viewBox="0.00 0.00 1913.50 427.00" xmlns="http://www.w3.org/2000/svg" xmlns:xlink="http://www.w3.org/1999/xlink">
<g id="graph0" class="graph" transform="scale(1.0 1.0) rotate(0) translate(4 423)">
<title>model</title>
<polygon fill="white" stroke="transparent" points="-4,4 -4,-423 1909.5,-423 1909.5,4 -4,4"/>
<!-- b -->
<g id="node1" class="node">
<title>b</title>
<polygon fill="none" stroke="black" points="584.5,-397.5 584.5,-414.5 1394.5,-414.5 1394.5,-397.5 584.5,-397.5"/>
<text text-anchor="start" x="973.5" y="-404.5" font-family="Times,serif" text-decoration="underline" font-size="10.00">b :Bank</text>
<polygon fill="none" stroke="black" points="584.5,-369.5 584.5,-397.5 1394.5,-397.5 1394.5,-369.5 584.5,-369.5"/>
<text text-anchor="start" x="587.5" y="-386.5" font-family="Times,serif" font-size="10.00">accountsMap = sendItToTheBank8a633aa5&#45;907c&#45;4e57&#45;a313&#45;22e0adb2672e099735a7&#45;f53c&#45;445a&#45;ad53&#45;d1f88081def64197f3ad&#45;983f&#45;476a&#45;928b&#45;cc61c845e2897ec351d6&#45;652f&#45;4691&#45;8e72&#45;ea432d44a0c8</text>
<text text-anchor="start" x="587.5" y="-375.5" font-family="Times,serif" font-size="10.00">customerMap = e2f7bc4c&#45;ef2a&#45;466e&#45;b8a5&#45;d24f48b13afe1eaf6f4c&#45;4f92&#45;4e04&#45;bd87&#45;c82be03265de714a4912&#45;0ac8&#45;4628&#45;b901&#45;9d1c2510059c50d3b20a&#45;c792&#45;4b96&#45;ac2a&#45;f4160ecef185</text>
</g>
<!-- sendItToTheBank -->
<g id="node2" class="node">
<title>sendItToTheBank</title>
<polygon fill="none" stroke="black" points="8.5,-165 8.5,-182 153.5,-182 153.5,-165 8.5,-165"/>
<text text-anchor="start" x="25.5" y="-172" font-family="Times,serif" text-decoration="underline" font-size="10.00">sendItToTheBank :Account</text>
<polygon fill="none" stroke="black" points="8.5,-82 8.5,-165 153.5,-165 153.5,-82 8.5,-82"/>
<text text-anchor="start" x="11.5" y="-154" font-family="Times,serif" font-size="10.00">balance = 69420.0</text>
<text text-anchor="start" x="11.5" y="-143" font-family="Times,serif" font-size="10.00">customerId = null</text>
<text text-anchor="start" x="11.5" y="-132" font-family="Times,serif" font-size="10.00">iban = &quot;EE072202410946135958&quot;</text>
<text text-anchor="start" x="11.5" y="-121" font-family="Times,serif" font-size="10.00">id = &quot;sendItToTheBank&quot;</text>
<text text-anchor="start" x="11.5" y="-110" font-family="Times,serif" font-size="10.00">receivedTransaction = </text>
<text text-anchor="start" x="11.5" y="-99" font-family="Times,serif" font-size="10.00">sentTransaction = </text>
<text text-anchor="start" x="11.5" y="-88" font-family="Times,serif" font-size="10.00">status = &quot;ACTIVE&quot;</text>
</g>
<!-- b&#45;&gt;sendItToTheBank -->
<g id="edge1" class="edge">
<title>b&#45;&gt;sendItToTheBank</title>
<path fill="none" stroke="black" d="M576.32,-377.7C395.23,-368.4 215.61,-353.43 180.5,-330 131.37,-297.21 105.16,-232.58 92.08,-186.29"/>
<text text-anchor="middle" x="65.08" y="-189.29" font-family="Times,serif" font-size="10.00">bankAccount</text>
<text text-anchor="middle" x="566.32" y="-380.7" font-family="Times,serif" font-size="10.00">bank</text>
</g>
<!-- 8a633aa5_907c_4e57_a313_22e0adb2672e -->
<g id="node3" class="node">
<title>8a633aa5_907c_4e57_a313_22e0adb2672e</title>
<polygon fill="none" stroke="black" points="198.5,-309 198.5,-326 433.5,-326 433.5,-309 198.5,-309"/>
<text text-anchor="start" x="212" y="-316" font-family="Times,serif" text-decoration="underline" font-size="10.00">8a633aa5&#45;907c&#45;4e57&#45;a313&#45;22e0adb2672e :Account</text>
<polygon fill="none" stroke="black" points="198.5,-226 198.5,-309 433.5,-309 433.5,-226 198.5,-226"/>
<text text-anchor="start" x="201.5" y="-298" font-family="Times,serif" font-size="10.00">balance = 0.0</text>
<text text-anchor="start" x="201.5" y="-287" font-family="Times,serif" font-size="10.00">customerId = &quot;1eaf6f4c&#45;4f92&#45;4e04&#45;bd87&#45;c82be03265de&quot;</text>
<text text-anchor="start" x="201.5" y="-276" font-family="Times,serif" font-size="10.00">iban = null</text>
<text text-anchor="start" x="201.5" y="-265" font-family="Times,serif" font-size="10.00">id = &quot;8a633aa5&#45;907c&#45;4e57&#45;a313&#45;22e0adb2672e&quot;</text>
<text text-anchor="start" x="201.5" y="-254" font-family="Times,serif" font-size="10.00">receivedTransaction = </text>
<text text-anchor="start" x="201.5" y="-243" font-family="Times,serif" font-size="10.00">sentTransaction = </text>
<text text-anchor="start" x="201.5" y="-232" font-family="Times,serif" font-size="10.00">status = &quot;ACTIVE&quot;</text>
</g>
<!-- b&#45;&gt;8a633aa5_907c_4e57_a313_22e0adb2672e -->
<g id="edge2" class="edge">
<title>b&#45;&gt;8a633aa5_907c_4e57_a313_22e0adb2672e</title>
<path fill="none" stroke="black" d="M656.1,-365.98C589.14,-357.25 519.66,-345.58 455.5,-330 450.83,-328.87 446.1,-327.62 441.35,-326.28"/>
<text text-anchor="middle" x="458.85" y="-329.28" font-family="Times,serif" font-size="10.00">accounts</text>
<text text-anchor="middle" x="646.1" y="-357.98" font-family="Times,serif" font-size="10.00">bank</text>
</g>
<!-- 7ec351d6_652f_4691_8e72_ea432d44a0c8 -->
<g id="node4" class="node">
<title>7ec351d6_652f_4691_8e72_ea432d44a0c8</title>
<polygon fill="none" stroke="black" points="505.5,-309 505.5,-326 737.5,-326 737.5,-309 505.5,-309"/>
<text text-anchor="start" x="518" y="-316" font-family="Times,serif" text-decoration="underline" font-size="10.00">7ec351d6&#45;652f&#45;4691&#45;8e72&#45;ea432d44a0c8 :Account</text>
<polygon fill="none" stroke="black" points="505.5,-226 505.5,-309 737.5,-309 737.5,-226 505.5,-226"/>
<text text-anchor="start" x="508.5" y="-298" font-family="Times,serif" font-size="10.00">balance = 100.0</text>
<text text-anchor="start" x="508.5" y="-287" font-family="Times,serif" font-size="10.00">customerId = &quot;e2f7bc4c&#45;ef2a&#45;466e&#45;b8a5&#45;d24f48b13afe&quot;</text>
<text text-anchor="start" x="508.5" y="-276" font-family="Times,serif" font-size="10.00">iban = null</text>
<text text-anchor="start" x="508.5" y="-265" font-family="Times,serif" font-size="10.00">id = &quot;7ec351d6&#45;652f&#45;4691&#45;8e72&#45;ea432d44a0c8&quot;</text>
<text text-anchor="start" x="508.5" y="-254" font-family="Times,serif" font-size="10.00">receivedTransaction = </text>
<text text-anchor="start" x="508.5" y="-243" font-family="Times,serif" font-size="10.00">sentTransaction = </text>
<text text-anchor="start" x="508.5" y="-232" font-family="Times,serif" font-size="10.00">status = &quot;ACTIVE&quot;</text>
</g>
<!-- b&#45;&gt;7ec351d6_652f_4691_8e72_ea432d44a0c8 -->
<g id="edge3" class="edge">
<title>b&#45;&gt;7ec351d6_652f_4691_8e72_ea432d44a0c8</title>
<path fill="none" stroke="black" d="M890.19,-365.97C851.39,-355.51 806.66,-342.85 766.5,-330 759.74,-327.83 752.82,-325.55 745.85,-323.19"/>
<text text-anchor="middle" x="763.35" y="-326.19" font-family="Times,serif" font-size="10.00">accounts</text>
<text text-anchor="middle" x="900.19" y="-357.97" font-family="Times,serif" font-size="10.00">bank</text>
</g>
<!-- 099735a7_f53c_445a_ad53_d1f88081def6 -->
<g id="node5" class="node">
<title>099735a7_f53c_445a_ad53_d1f88081def6</title>
<polygon fill="none" stroke="black" points="1194.5,-309 1194.5,-326 1441.5,-326 1441.5,-309 1194.5,-309"/>
<text text-anchor="start" x="1215.5" y="-316" font-family="Times,serif" text-decoration="underline" font-size="10.00">099735a7&#45;f53c&#45;445a&#45;ad53&#45;d1f88081def6 :Account</text>
<polygon fill="none" stroke="black" points="1194.5,-226 1194.5,-309 1441.5,-309 1441.5,-226 1194.5,-226"/>
<text text-anchor="start" x="1197.5" y="-298" font-family="Times,serif" font-size="10.00">balance = 200.0</text>
<text text-anchor="start" x="1197.5" y="-287" font-family="Times,serif" font-size="10.00">customerId = null</text>
<text text-anchor="start" x="1197.5" y="-276" font-family="Times,serif" font-size="10.00">iban = &quot;EE183333913822165366&quot;</text>
<text text-anchor="start" x="1197.5" y="-265" font-family="Times,serif" font-size="10.00">id = &quot;099735a7&#45;f53c&#45;445a&#45;ad53&#45;d1f88081def6&quot;</text>
<text text-anchor="start" x="1197.5" y="-254" font-family="Times,serif" font-size="10.00">receivedTransaction = </text>
<text text-anchor="start" x="1197.5" y="-243" font-family="Times,serif" font-size="10.00">sentTransaction = 8c6b80cc&#45;d4c5&#45;49fa&#45;9389&#45;7158feb0b350</text>
<text text-anchor="start" x="1197.5" y="-232" font-family="Times,serif" font-size="10.00">status = &quot;ACTIVE&quot;</text>
</g>
<!-- b&#45;&gt;099735a7_f53c_445a_ad53_d1f88081def6 -->
<g id="edge4" class="edge">
<title>b&#45;&gt;099735a7_f53c_445a_ad53_d1f88081def6</title>
<path fill="none" stroke="black" d="M1066.23,-366C1098.75,-355.07 1137.03,-342.08 1171.5,-330 1176.21,-328.35 1181,-326.66 1185.83,-324.95"/>
<text text-anchor="middle" x="1168.33" y="-327.95" font-family="Times,serif" font-size="10.00">accounts</text>
<text text-anchor="middle" x="1056.23" y="-358" font-family="Times,serif" font-size="10.00">bank</text>
</g>
<!-- 4197f3ad_983f_476a_928b_cc61c845e289 -->
<g id="node6" class="node">
<title>4197f3ad_983f_476a_928b_cc61c845e289</title>
<polygon fill="none" stroke="black" points="857.5,-309 857.5,-326 1121.5,-326 1121.5,-309 857.5,-309"/>
<text text-anchor="start" x="886.5" y="-316" font-family="Times,serif" text-decoration="underline" font-size="10.00">4197f3ad&#45;983f&#45;476a&#45;928b&#45;cc61c845e289 :Account</text>
<polygon fill="none" stroke="black" points="857.5,-226 857.5,-309 1121.5,-309 1121.5,-226 857.5,-226"/>
<text text-anchor="start" x="860.5" y="-298" font-family="Times,serif" font-size="10.00">balance = 300.0</text>
<text text-anchor="start" x="860.5" y="-287" font-family="Times,serif" font-size="10.00">customerId = null</text>
<text text-anchor="start" x="860.5" y="-276" font-family="Times,serif" font-size="10.00">iban = &quot;EE333727190020915349&quot;</text>
<text text-anchor="start" x="860.5" y="-265" font-family="Times,serif" font-size="10.00">id = &quot;4197f3ad&#45;983f&#45;476a&#45;928b&#45;cc61c845e289&quot;</text>
<text text-anchor="start" x="860.5" y="-254" font-family="Times,serif" font-size="10.00">receivedTransaction = 8c6b80cc&#45;d4c5&#45;49fa&#45;9389&#45;7158feb0b350</text>
<text text-anchor="start" x="860.5" y="-243" font-family="Times,serif" font-size="10.00">sentTransaction = </text>
<text text-anchor="start" x="860.5" y="-232" font-family="Times,serif" font-size="10.00">status = &quot;ACTIVE&quot;</text>
</g>
<!-- b&#45;&gt;4197f3ad_983f_476a_928b_cc61c845e289 -->
<g id="edge5" class="edge">
<title>b&#45;&gt;4197f3ad_983f_476a_928b_cc61c845e289</title>
<path fill="none" stroke="black" d="M989.5,-365.8C989.5,-355.25 989.5,-342.63 989.5,-330.25"/>
<text text-anchor="middle" x="972" y="-333.25" font-family="Times,serif" font-size="10.00">accounts</text>
<text text-anchor="middle" x="979.5" y="-357.8" font-family="Times,serif" font-size="10.00">bank</text>
</g>
<!-- 31346a12_bdcc_495b_bc4d_fdbf4a42e729 -->
<g id="node7" class="node">
<title>31346a12_bdcc_495b_bc4d_fdbf4a42e729</title>
<polygon fill="none" stroke="black" points="1514.5,-298 1514.5,-315 1749.5,-315 1749.5,-298 1514.5,-298"/>
<text text-anchor="start" x="1517.5" y="-305" font-family="Times,serif" text-decoration="underline" font-size="10.00">31346a12&#45;bdcc&#45;495b&#45;bc4d&#45;fdbf4a42e729 :Administrator</text>
<polygon fill="none" stroke="black" points="1514.5,-237 1514.5,-298 1749.5,-298 1749.5,-237 1514.5,-237"/>
<text text-anchor="start" x="1535" y="-287" font-family="Times,serif" font-size="10.00">email = &quot;admin@bank.ee&quot;</text>
<text text-anchor="start" x="1535" y="-276" font-family="Times,serif" font-size="10.00">firstName = &quot;Admin&quot;</text>
<text text-anchor="start" x="1535" y="-265" font-family="Times,serif" font-size="10.00">id = &quot;31346a12&#45;bdcc&#45;495b&#45;bc4d&#45;fdbf4a42e729&quot;</text>
<text text-anchor="start" x="1535" y="-254" font-family="Times,serif" font-size="10.00">lastName = &quot;Alice&quot;</text>
<text text-anchor="start" x="1535" y="-243" font-family="Times,serif" font-size="10.00">password = &quot;secure_p@ssw0|2d&quot;</text>
</g>
<!-- b&#45;&gt;31346a12_bdcc_495b_bc4d_fdbf4a42e729 -->
<g id="edge6" class="edge">
<title>b&#45;&gt;31346a12_bdcc_495b_bc4d_fdbf4a42e729</title>
<path fill="none" stroke="black" d="M1294.92,-365.96C1360.32,-357.19 1428.63,-345.51 1491.5,-330 1503.74,-326.98 1516.36,-323.2 1528.79,-319.06"/>
<text text-anchor="middle" x="1499.79" y="-322.06" font-family="Times,serif" font-size="10.00">administrators</text>
<text text-anchor="middle" x="1284.92" y="-357.96" font-family="Times,serif" font-size="10.00">bank</text>
</g>
<!-- e2f7bc4c_ef2a_466e_b8a5_d24f48b13afe -->
<g id="node8" class="node">
<title>e2f7bc4c_ef2a_466e_b8a5_d24f48b13afe</title>
<polygon fill="none" stroke="black" points="513.5,-154 513.5,-171 725.5,-171 725.5,-154 513.5,-154"/>
<text text-anchor="start" x="516.5" y="-161" font-family="Times,serif" text-decoration="underline" font-size="10.00">e2f7bc4c&#45;ef2a&#45;466e&#45;b8a5&#45;d24f48b13afe :Customer</text>
<polygon fill="none" stroke="black" points="513.5,-93 513.5,-154 725.5,-154 725.5,-93 513.5,-93"/>
<text text-anchor="start" x="525" y="-143" font-family="Times,serif" font-size="10.00">email = &quot;john@doe.ee&quot;</text>
<text text-anchor="start" x="525" y="-132" font-family="Times,serif" font-size="10.00">firstName = &quot;John&quot;</text>
<text text-anchor="start" x="525" y="-121" font-family="Times,serif" font-size="10.00">id = &quot;e2f7bc4c&#45;ef2a&#45;466e&#45;b8a5&#45;d24f48b13afe&quot;</text>
<text text-anchor="start" x="525" y="-110" font-family="Times,serif" font-size="10.00">lastName = &quot;Doe&quot;</text>
<text text-anchor="start" x="525" y="-99" font-family="Times,serif" font-size="10.00">password = &quot;pass1234&quot;</text>
</g>
<!-- b&#45;&gt;e2f7bc4c_ef2a_466e_b8a5_d24f48b13afe -->
<g id="edge7" class="edge">
<title>b&#45;&gt;e2f7bc4c_ef2a_466e_b8a5_d24f48b13afe</title>
<path fill="none" stroke="black" d="M884.91,-365.84C862.11,-357 839.23,-345.32 820.5,-330 776.96,-294.38 793.59,-262.45 754.5,-222 737.53,-204.44 716.5,-188.53 696.13,-175.19"/>
<text text-anchor="middle" x="675.63" y="-178.19" font-family="Times,serif" font-size="10.00">customers</text>
<text text-anchor="middle" x="874.91" y="-357.84" font-family="Times,serif" font-size="10.00">bank</text>
</g>
<!-- 1eaf6f4c_4f92_4e04_bd87_c82be03265de -->
<g id="node9" class="node">
<title>1eaf6f4c_4f92_4e04_bd87_c82be03265de</title>
<polygon fill="none" stroke="black" points="226.5,-154 226.5,-171 441.5,-171 441.5,-154 226.5,-154"/>
<text text-anchor="start" x="229.5" y="-161" font-family="Times,serif" text-decoration="underline" font-size="10.00">1eaf6f4c&#45;4f92&#45;4e04&#45;bd87&#45;c82be03265de :Customer</text>
<polygon fill="none" stroke="black" points="226.5,-93 226.5,-154 441.5,-154 441.5,-93 226.5,-93"/>
<text text-anchor="start" x="238.5" y="-143" font-family="Times,serif" font-size="10.00">email = &quot;bobby@tt.ee&quot;</text>
<text text-anchor="start" x="238.5" y="-132" font-family="Times,serif" font-size="10.00">firstName = &quot;Bob&quot;</text>
<text text-anchor="start" x="238.5" y="-121" font-family="Times,serif" font-size="10.00">id = &quot;1eaf6f4c&#45;4f92&#45;4e04&#45;bd87&#45;c82be03265de&quot;</text>
<text text-anchor="start" x="238.5" y="-110" font-family="Times,serif" font-size="10.00">lastName = &quot;Jackson&quot;</text>
<text text-anchor="start" x="238.5" y="-99" font-family="Times,serif" font-size="10.00">password = &quot;secret&quot;</text>
</g>
<!-- b&#45;&gt;1eaf6f4c_4f92_4e04_bd87_c82be03265de -->
<g id="edge8" class="edge">
<title>b&#45;&gt;1eaf6f4c_4f92_4e04_bd87_c82be03265de</title>
<path fill="none" stroke="black" d="M587.06,-365.96C543.54,-357.21 507.98,-345.54 488.5,-330 448.6,-298.18 479.63,-263.19 449.5,-222 436.54,-204.28 419.09,-188.37 401.67,-175.07"/>
<text text-anchor="middle" x="381.17" y="-178.07" font-family="Times,serif" font-size="10.00">customers</text>
<text text-anchor="middle" x="577.06" y="-357.96" font-family="Times,serif" font-size="10.00">bank</text>
</g>
<!-- 50d3b20a_c792_4b96_ac2a_f4160ecef185 -->
<g id="node10" class="node">
<title>50d3b20a_c792_4b96_ac2a_f4160ecef185</title>
<polygon fill="none" stroke="black" points="1371.5,-154 1371.5,-171 1587.5,-171 1587.5,-154 1371.5,-154"/>
<text text-anchor="start" x="1374.5" y="-161" font-family="Times,serif" text-decoration="underline" font-size="10.00">50d3b20a&#45;c792&#45;4b96&#45;ac2a&#45;f4160ecef185 :Customer</text>
<polygon fill="none" stroke="black" points="1371.5,-93 1371.5,-154 1587.5,-154 1587.5,-93 1371.5,-93"/>
<text text-anchor="start" x="1383" y="-143" font-family="Times,serif" font-size="10.00">email = &quot;johntest@doe.ee&quot;</text>
<text text-anchor="start" x="1383" y="-132" font-family="Times,serif" font-size="10.00">firstName = &quot;johntest&quot;</text>
<text text-anchor="start" x="1383" y="-121" font-family="Times,serif" font-size="10.00">id = &quot;50d3b20a&#45;c792&#45;4b96&#45;ac2a&#45;f4160ecef185&quot;</text>
<text text-anchor="start" x="1383" y="-110" font-family="Times,serif" font-size="10.00">lastName = &quot;Doe&quot;</text>
<text text-anchor="start" x="1383" y="-99" font-family="Times,serif" font-size="10.00">password = &quot;pass1234&quot;</text>
</g>
<!-- b&#45;&gt;50d3b20a_c792_4b96_ac2a_f4160ecef185 -->
<g id="edge9" class="edge">
<title>b&#45;&gt;50d3b20a_c792_4b96_ac2a_f4160ecef185</title>
<path fill="none" stroke="black" d="M1378.87,-365.94C1414.84,-357.11 1443.44,-345.43 1458.5,-330 1497.9,-289.63 1495.44,-220.14 1488.58,-175.4"/>
<text text-anchor="middle" x="1468.08" y="-178.4" font-family="Times,serif" font-size="10.00">customers</text>
<text text-anchor="middle" x="1368.87" y="-357.94" font-family="Times,serif" font-size="10.00">bank</text>
</g>
<!-- 714a4912_0ac8_4628_b901_9d1c2510059c -->
<g id="node11" class="node">
<title>714a4912_0ac8_4628_b901_9d1c2510059c</title>
<polygon fill="none" stroke="black" points="760.5,-154 760.5,-171 981.5,-171 981.5,-154 760.5,-154"/>
<text text-anchor="start" x="763.5" y="-161" font-family="Times,serif" text-decoration="underline" font-size="10.00">714a4912&#45;0ac8&#45;4628&#45;b901&#45;9d1c2510059c :Customer</text>
<polygon fill="none" stroke="black" points="760.5,-93 760.5,-154 981.5,-154 981.5,-93 760.5,-93"/>
<text text-anchor="start" x="772" y="-143" font-family="Times,serif" font-size="10.00">email = &quot;bobbytest@tt.ee&quot;</text>
<text text-anchor="start" x="772" y="-132" font-family="Times,serif" font-size="10.00">firstName = &quot;Bob&quot;</text>
<text text-anchor="start" x="772" y="-121" font-family="Times,serif" font-size="10.00">id = &quot;714a4912&#45;0ac8&#45;4628&#45;b901&#45;9d1c2510059c&quot;</text>
<text text-anchor="start" x="772" y="-110" font-family="Times,serif" font-size="10.00">lastName = &quot;Jackson&quot;</text>
<text text-anchor="start" x="772" y="-99" font-family="Times,serif" font-size="10.00">password = &quot;secret&quot;</text>
</g>
<!-- b&#45;&gt;714a4912_0ac8_4628_b901_9d1c2510059c -->
<g id="edge10" class="edge">
<title>b&#45;&gt;714a4912_0ac8_4628_b901_9d1c2510059c</title>
<path fill="none" stroke="black" d="M882.83,-365.91C866.1,-357.22 850.93,-345.58 840.5,-330 809.53,-283.71 829.38,-217.72 848.38,-175.13"/>
<text text-anchor="middle" x="827.88" y="-178.13" font-family="Times,serif" font-size="10.00">customers</text>
<text text-anchor="middle" x="892.83" y="-357.91" font-family="Times,serif" font-size="10.00">bank</text>
</g>
<!-- t -->
<g id="node12" class="node">
<title>t</title>
<polygon fill="none" stroke="black" points="1784.5,-270 1784.5,-287 1821.5,-287 1821.5,-270 1784.5,-270"/>
<text text-anchor="start" x="1787.5" y="-277" font-family="Times,serif" text-decoration="underline" font-size="10.00">t :Trace</text>
<polygon fill="none" stroke="black" points="1784.5,-264 1784.5,-270 1821.5,-270 1821.5,-264 1784.5,-264"/>
</g>
<!-- b&#45;&gt;t -->
<g id="edge11" class="edge">
<title>b&#45;&gt;t</title>
<path fill="none" stroke="black" d="M1402.58,-374.1C1570.21,-364.17 1732.61,-349.7 1766.5,-330 1780.25,-322.01 1789.87,-306.41 1795.69,-294.19"/>
<text text-anchor="middle" x="1783.69" y="-297.19" font-family="Times,serif" font-size="10.00">traces</text>
</g>
<!-- t1 -->
<g id="node13" class="node">
<title>t1</title>
<polygon fill="none" stroke="black" points="1855.5,-270 1855.5,-287 1897.5,-287 1897.5,-270 1855.5,-270"/>
<text text-anchor="start" x="1858.5" y="-277" font-family="Times,serif" text-decoration="underline" font-size="10.00">t1 :Trace</text>
<polygon fill="none" stroke="black" points="1855.5,-264 1855.5,-270 1897.5,-270 1897.5,-264 1855.5,-264"/>
</g>
<!-- b&#45;&gt;t1 -->
<g id="edge12" class="edge">
<title>b&#45;&gt;t1</title>
<path fill="none" stroke="black" d="M1402.6,-377.14C1598.49,-367.48 1798.57,-352.36 1838.5,-330 1852.63,-322.09 1862.83,-306.48 1869.08,-294.24"/>
<text text-anchor="middle" x="1857.08" y="-297.24" font-family="Times,serif" font-size="10.00">traces</text>
</g>
<!-- 8c6b80cc_d4c5_49fa_9389_7158feb0b350 -->
<g id="node14" class="node">
<title>8c6b80cc_d4c5_49fa_9389_7158feb0b350</title>
<polygon fill="none" stroke="black" points="1053.5,-154 1053.5,-171 1299.5,-171 1299.5,-154 1053.5,-154"/>
<text text-anchor="start" x="1067" y="-161" font-family="Times,serif" text-decoration="underline" font-size="10.00">8c6b80cc&#45;d4c5&#45;49fa&#45;9389&#45;7158feb0b350 :Transaction</text>
<polygon fill="none" stroke="black" points="1053.5,-93 1053.5,-154 1299.5,-154 1299.5,-93 1053.5,-93"/>
<text text-anchor="start" x="1056.5" y="-143" font-family="Times,serif" font-size="10.00">amount = 50.0</text>
<text text-anchor="start" x="1056.5" y="-132" font-family="Times,serif" font-size="10.00">description = &quot;Ref: concert ticket&quot;</text>
<text text-anchor="start" x="1056.5" y="-121" font-family="Times,serif" font-size="10.00">id = &quot;8c6b80cc&#45;d4c5&#45;49fa&#45;9389&#45;7158feb0b350&quot;</text>
<text text-anchor="start" x="1056.5" y="-110" font-family="Times,serif" font-size="10.00">rejectionDescription = &quot;Made a mistake in the sent amount&quot;</text>
<text text-anchor="start" x="1056.5" y="-99" font-family="Times,serif" font-size="10.00">timestamp = 2021&#45;12&#45;05T17:29:29.784599</text>
</g>
<!-- b&#45;&gt;8c6b80cc_d4c5_49fa_9389_7158feb0b350 -->
<g id="edge13" class="edge">
<title>b&#45;&gt;8c6b80cc_d4c5_49fa_9389_7158feb0b350</title>
<path fill="none" stroke="black" d="M1090.4,-365.86C1108.63,-357.13 1125.84,-345.5 1138.5,-330 1157.45,-306.8 1168.09,-225.85 1173.03,-175.22"/>
<text text-anchor="middle" x="1149.03" y="-178.22" font-family="Times,serif" font-size="10.00">transactions</text>
<text text-anchor="middle" x="1080.4" y="-357.86" font-family="Times,serif" font-size="10.00">bank</text>
</g>
<!-- c -->
<g id="node15" class="node">
<title>c</title>
<polygon fill="none" stroke="black" points="637.5,-21 637.5,-38 800.5,-38 800.5,-21 637.5,-21"/>
<text text-anchor="start" x="695.5" y="-28" font-family="Times,serif" text-decoration="underline" font-size="10.00">c :Currency</text>
<polygon fill="none" stroke="black" points="637.5,-4 637.5,-21 800.5,-21 800.5,-4 637.5,-4"/>
<text text-anchor="start" x="640.5" y="-10" font-family="Times,serif" font-size="10.00">declaringClass = class model.Currency</text>
</g>
<!-- sendItToTheBank&#45;&gt;c -->
<g id="edge14" class="edge">
<title>sendItToTheBank&#45;&gt;c</title>
<path fill="none" stroke="black" d="M161.15,-83.22C165.92,-81.27 170.73,-79.51 175.5,-78 257.68,-52.05 497.17,-34.71 628.96,-26.84"/>
<text text-anchor="middle" x="611.46" y="-29.84" font-family="Times,serif" font-size="10.00">currency</text>
</g>
<!-- 8a633aa5_907c_4e57_a313_22e0adb2672e&#45;&gt;1eaf6f4c_4f92_4e04_bd87_c82be03265de -->
<g id="edge16" class="edge">
<title>8a633aa5_907c_4e57_a313_22e0adb2672e&#45;&gt;1eaf6f4c_4f92_4e04_bd87_c82be03265de</title>
<path fill="none" stroke="black" d="M322.25,-221.72C324.21,-206.3 326.32,-189.68 328.17,-175.04"/>
<text text-anchor="middle" x="315.67" y="-178.04" font-family="Times,serif" font-size="10.00">owner</text>
<text text-anchor="middle" x="306.25" y="-213.72" font-family="Times,serif" font-size="10.00">account</text>
</g>
<!-- 8a633aa5_907c_4e57_a313_22e0adb2672e&#45;&gt;c -->
<g id="edge15" class="edge">
<title>8a633aa5_907c_4e57_a313_22e0adb2672e&#45;&gt;c</title>
<path fill="none" stroke="black" d="M234.72,-221.98C224.11,-211.38 214.76,-199.34 208.5,-186 188.12,-142.54 176.46,-113.75 208.5,-78 235.99,-47.32 490.09,-31.74 628.92,-25.45"/>
<text text-anchor="middle" x="611.42" y="-17.45" font-family="Times,serif" font-size="10.00">currency</text>
</g>
<!-- 7ec351d6_652f_4691_8e72_ea432d44a0c8&#45;&gt;e2f7bc4c_ef2a_466e_b8a5_d24f48b13afe -->
<g id="edge18" class="edge">
<title>7ec351d6_652f_4691_8e72_ea432d44a0c8&#45;&gt;e2f7bc4c_ef2a_466e_b8a5_d24f48b13afe</title>
<path fill="none" stroke="black" d="M620.75,-221.72C620.53,-206.3 620.3,-189.68 620.09,-175.04"/>
<text text-anchor="middle" x="607.59" y="-178.04" font-family="Times,serif" font-size="10.00">owner</text>
<text text-anchor="middle" x="604.75" y="-213.72" font-family="Times,serif" font-size="10.00">account</text>
</g>
<!-- 7ec351d6_652f_4691_8e72_ea432d44a0c8&#45;&gt;c -->
<g id="edge17" class="edge">
<title>7ec351d6_652f_4691_8e72_ea432d44a0c8&#45;&gt;c</title>
<path fill="none" stroke="black" d="M524.95,-221.74C513.52,-211.4 503.46,-199.5 496.5,-186 474.5,-143.34 467,-115.87 496.5,-78 513.11,-56.68 574.73,-42.21 628.84,-33.32"/>
<text text-anchor="middle" x="611.34" y="-36.32" font-family="Times,serif" font-size="10.00">currency</text>
</g>
<!-- 099735a7_f53c_445a_ad53_d1f88081def6&#45;&gt;50d3b20a_c792_4b96_ac2a_f4160ecef185 -->
<g id="edge21" class="edge">
<title>099735a7_f53c_445a_ad53_d1f88081def6&#45;&gt;50d3b20a_c792_4b96_ac2a_f4160ecef185</title>
<path fill="none" stroke="black" d="M1378.28,-221.72C1395.88,-206.3 1414.84,-189.68 1431.54,-175.04"/>
<text text-anchor="middle" x="1419.04" y="-178.04" font-family="Times,serif" font-size="10.00">owner</text>
<text text-anchor="middle" x="1362.28" y="-213.72" font-family="Times,serif" font-size="10.00">account</text>
</g>
<!-- 099735a7_f53c_445a_ad53_d1f88081def6&#45;&gt;8c6b80cc_d4c5_49fa_9389_7158feb0b350 -->
<g id="edge19" class="edge">
<title>099735a7_f53c_445a_ad53_d1f88081def6&#45;&gt;8c6b80cc_d4c5_49fa_9389_7158feb0b350</title>
<path fill="none" stroke="black" d="M1264.6,-221.72C1249.28,-206.3 1232.78,-189.68 1218.25,-175.04"/>
<text text-anchor="middle" x="1275.25" y="-178.04" font-family="Times,serif" font-size="10.00">allTransactionsOrderedDesc</text>
<text text-anchor="middle" x="1251.1" y="-213.72" font-family="Times,serif" font-size="10.00">source</text>
</g>
<!-- 099735a7_f53c_445a_ad53_d1f88081def6&#45;&gt;c -->
<g id="edge20" class="edge">
<title>099735a7_f53c_445a_ad53_d1f88081def6&#45;&gt;c</title>
<path fill="none" stroke="black" d="M1334.73,-221.99C1345.45,-177.79 1351.37,-116.09 1316.5,-78 1299.58,-59.52 970.82,-37.21 808.13,-27.25"/>
<text text-anchor="middle" x="825.63" y="-19.25" font-family="Times,serif" font-size="10.00">currency</text>
</g>
<!-- 4197f3ad_983f_476a_928b_cc61c845e289&#45;&gt;714a4912_0ac8_4628_b901_9d1c2510059c -->
<g id="edge24" class="edge">
<title>4197f3ad_983f_476a_928b_cc61c845e289&#45;&gt;714a4912_0ac8_4628_b901_9d1c2510059c</title>
<path fill="none" stroke="black" d="M944.85,-221.72C931.92,-206.3 918,-189.68 905.73,-175.04"/>
<text text-anchor="middle" x="893.23" y="-178.04" font-family="Times,serif" font-size="10.00">owner</text>
<text text-anchor="middle" x="928.85" y="-213.72" font-family="Times,serif" font-size="10.00">account</text>
</g>
<!-- 4197f3ad_983f_476a_928b_cc61c845e289&#45;&gt;8c6b80cc_d4c5_49fa_9389_7158feb0b350 -->
<g id="edge22" class="edge">
<title>4197f3ad_983f_476a_928b_cc61c845e289&#45;&gt;8c6b80cc_d4c5_49fa_9389_7158feb0b350</title>
<path fill="none" stroke="black" d="M1059.4,-221.92C1079.73,-206.48 1101.66,-189.83 1120.98,-175.16"/>
<text text-anchor="middle" x="1063.98" y="-178.16" font-family="Times,serif" font-size="10.00">allTransactionsOrderedDesc</text>
<text text-anchor="middle" x="1037.4" y="-213.92" font-family="Times,serif" font-size="10.00">destination</text>
</g>
<!-- 4197f3ad_983f_476a_928b_cc61c845e289&#45;&gt;c -->
<g id="edge23" class="edge">
<title>4197f3ad_983f_476a_928b_cc61c845e289&#45;&gt;c</title>
<path fill="none" stroke="black" d="M1009.34,-221.64C1021.75,-178.12 1029.93,-117.59 997.5,-78 973.78,-49.05 880.43,-34.75 808.16,-27.9"/>
<text text-anchor="middle" x="825.66" y="-30.9" font-family="Times,serif" font-size="10.00">currency</text>
</g>
<!-- 8c6b80cc_d4c5_49fa_9389_7158feb0b350&#45;&gt;c -->
<g id="edge25" class="edge">
<title>8c6b80cc_d4c5_49fa_9389_7158feb0b350&#45;&gt;c</title>
<path fill="none" stroke="black" d="M1067.49,-88.88C1055.44,-84.9 1043.27,-81.18 1031.5,-78 957.29,-57.96 871.2,-43.15 808.12,-33.81"/>
<text text-anchor="middle" x="825.62" y="-36.81" font-family="Times,serif" font-size="10.00">currency</text>
</g>
<!-- s -->
<g id="node16" class="node">
<title>s</title>
<polygon fill="none" stroke="black" points="1075.5,-21 1075.5,-38 1277.5,-38 1277.5,-21 1075.5,-21"/>
<text text-anchor="start" x="1159.5" y="-28" font-family="Times,serif" text-decoration="underline" font-size="10.00">s :Status</text>
<polygon fill="none" stroke="black" points="1075.5,-4 1075.5,-21 1277.5,-21 1277.5,-4 1075.5,-4"/>
<text text-anchor="start" x="1078.5" y="-10" font-family="Times,serif" font-size="10.00">declaringClass = class model.Transaction$Status</text>
</g>
<!-- 8c6b80cc_d4c5_49fa_9389_7158feb0b350&#45;&gt;s -->
<g id="edge26" class="edge">
<title>8c6b80cc_d4c5_49fa_9389_7158feb0b350&#45;&gt;s</title>
<path fill="none" stroke="black" d="M1176.5,-88.86C1176.5,-72.8 1176.5,-55.24 1176.5,-42.14"/>
<text text-anchor="middle" x="1165" y="-45.14" font-family="Times,serif" font-size="10.00">status</text>
</g>
</g>
</svg>
