<?xml version="1.0" encoding="UTF-8" standalone="no"?>
<!DOCTYPE svg PUBLIC "-//W3C//DTD SVG 1.1//EN"
 "http://www.w3.org/Graphics/SVG/1.1/DTD/svg11.dtd">
<!-- Generated by graphviz version 2.44.0 (20200408.0750)
 -->
<!-- Pages: 1 -->
<svg width="885px" height="516px"
 viewBox="0.00 0.00 884.97 516.00" xmlns="http://www.w3.org/2000/svg" xmlns:xlink="http://www.w3.org/1999/xlink">
<g id="graph0" class="graph" transform="scale(1.0 1.0) rotate(0) translate(4 512)">
<polygon fill="white" stroke="transparent" points="-4,4 -4,-512 880.97,-512 880.97,4 -4,4"/>
<!-- ece7242e_95ac_4b1c_9fae_3afa89fdd2cf -->
<g id="node1" class="node">
<title>ece7242e_95ac_4b1c_9fae_3afa89fdd2cf</title>
<polygon fill="none" stroke="black" points="199.97,-486 199.97,-504 417.97,-504 417.97,-486 199.97,-486"/>
<text text-anchor="start" x="202.78" y="-493" font-family="Times,serif" text-decoration="underline" font-size="10.00">ece7242e&#45;95ac&#45;4b1c&#45;9fae&#45;3afa89fdd2cf :Transaction</text>
<polygon fill="none" stroke="black" points="199.97,-420 199.97,-486 417.97,-486 417.97,-420 199.97,-420"/>
<text text-anchor="start" x="208.35" y="-474" font-family="Times,serif" font-size="10.00">amount = 25.5</text>
<text text-anchor="start" x="208.35" y="-462" font-family="Times,serif" font-size="10.00">description = &quot;ref: 001&quot;</text>
<text text-anchor="start" x="208.35" y="-450" font-family="Times,serif" font-size="10.00">id = &quot;ece7242e&#45;95ac&#45;4b1c&#45;9fae&#45;3afa89fdd2cf&quot;</text>
<text text-anchor="start" x="208.35" y="-438" font-family="Times,serif" font-size="10.00">rejectionDescription = &quot;Source account is invalid&quot;</text>
<text text-anchor="start" x="208.35" y="-426" font-family="Times,serif" font-size="10.00">timestamp = 2021&#45;11&#45;21T20:21:12.460639600</text>
</g>
<!-- b -->
<g id="node2" class="node">
<title>b</title>
<polygon fill="none" stroke="black" points="273.97,-126 273.97,-144 344.97,-144 344.97,-126 273.97,-126"/>
<text text-anchor="start" x="293.78" y="-133" font-family="Times,serif" text-decoration="underline" font-size="10.00">b :Bank</text>
<polygon fill="none" stroke="black" points="273.97,-96 273.97,-126 344.97,-126 344.97,-96 273.97,-96"/>
<text text-anchor="start" x="276.97" y="-114" font-family="Times,serif" font-size="10.00">accountsMap = </text>
<text text-anchor="start" x="276.97" y="-102" font-family="Times,serif" font-size="10.00">customerMap = </text>
</g>
<!-- ece7242e_95ac_4b1c_9fae_3afa89fdd2cf&#45;&gt;b -->
<g id="edge1" class="edge">
<title>ece7242e_95ac_4b1c_9fae_3afa89fdd2cf&#45;&gt;b</title>
<path fill="none" stroke="black" d="M191.71,-443.08C120.62,-429.56 39.58,-408.45 17.97,-380 -64.87,-270.94 165.43,-172.36 265.3,-135.92"/>
<text text-anchor="middle" x="255.58" y="-138.92" font-family="Times,serif" font-size="10.00">bank</text>
</g>
<!-- c -->
<g id="node3" class="node">
<title>c</title>
<polygon fill="none" stroke="black" points="34.97,-346 34.97,-364 168.97,-364 168.97,-346 34.97,-346"/>
<text text-anchor="start" x="78.51" y="-353" font-family="Times,serif" text-decoration="underline" font-size="10.00">c :Currency</text>
<polygon fill="none" stroke="black" points="34.97,-328 34.97,-346 168.97,-346 168.97,-328 34.97,-328"/>
<text text-anchor="start" x="37.97" y="-334" font-family="Times,serif" font-size="10.00">declaringClass = class Currency</text>
</g>
<!-- ece7242e_95ac_4b1c_9fae_3afa89fdd2cf&#45;&gt;c -->
<g id="edge2" class="edge">
<title>ece7242e_95ac_4b1c_9fae_3afa89fdd2cf&#45;&gt;c</title>
<path fill="none" stroke="black" d="M227.16,-415.94C197.21,-399.45 164.73,-381.56 140.36,-368.14"/>
<text text-anchor="middle" x="122.87" y="-371.14" font-family="Times,serif" font-size="10.00">currency</text>
</g>
<!-- d88458e6_b30a_4a40_a09d_1349885b3ff8 -->
<g id="node4" class="node">
<title>d88458e6_b30a_4a40_a09d_1349885b3ff8</title>
<polygon fill="none" stroke="black" points="202.97,-358 202.97,-376 414.97,-376 414.97,-358 202.97,-358"/>
<text text-anchor="start" x="205.53" y="-365" font-family="Times,serif" text-decoration="underline" font-size="10.00">d88458e6&#45;b30a&#45;4a40&#45;a09d&#45;1349885b3ff8 :Account</text>
<polygon fill="none" stroke="black" points="202.97,-316 202.97,-358 414.97,-358 414.97,-316 202.97,-316"/>
<text text-anchor="start" x="211.82" y="-346" font-family="Times,serif" font-size="10.00">balance = 0.0</text>
<text text-anchor="start" x="211.82" y="-334" font-family="Times,serif" font-size="10.00">currency = EUR</text>
<text text-anchor="start" x="211.82" y="-322" font-family="Times,serif" font-size="10.00">id = &quot;d88458e6&#45;b30a&#45;4a40&#45;a09d&#45;1349885b3ff8&quot;</text>
</g>
<!-- ece7242e_95ac_4b1c_9fae_3afa89fdd2cf&#45;&gt;d88458e6_b30a_4a40_a09d_1349885b3ff8 -->
<g id="edge3" class="edge">
<title>ece7242e_95ac_4b1c_9fae_3afa89fdd2cf&#45;&gt;d88458e6_b30a_4a40_a09d_1349885b3ff8</title>
<path fill="none" stroke="black" d="M308.97,-415.94C308.97,-403.99 308.97,-391.31 308.97,-380.13"/>
<text text-anchor="middle" x="287.03" y="-383.13" font-family="Times,serif" font-size="10.00">destination</text>
</g>
<!-- 650d82be_ca07_4e37_8eb4_f1ee7b82b799 -->
<g id="node5" class="node">
<title>650d82be_ca07_4e37_8eb4_f1ee7b82b799</title>
<polygon fill="none" stroke="black" points="448.97,-358 448.97,-376 660.97,-376 660.97,-358 448.97,-358"/>
<text text-anchor="start" x="451.54" y="-365" font-family="Times,serif" text-decoration="underline" font-size="10.00">650d82be&#45;ca07&#45;4e37&#45;8eb4&#45;f1ee7b82b799 :Account</text>
<polygon fill="none" stroke="black" points="448.97,-316 448.97,-358 660.97,-358 660.97,-316 448.97,-316"/>
<text text-anchor="start" x="457.83" y="-346" font-family="Times,serif" font-size="10.00">balance = 100.0</text>
<text text-anchor="start" x="457.83" y="-334" font-family="Times,serif" font-size="10.00">currency = EUR</text>
<text text-anchor="start" x="457.83" y="-322" font-family="Times,serif" font-size="10.00">id = &quot;650d82be&#45;ca07&#45;4e37&#45;8eb4&#45;f1ee7b82b799&quot;</text>
</g>
<!-- ece7242e_95ac_4b1c_9fae_3afa89fdd2cf&#45;&gt;650d82be_ca07_4e37_8eb4_f1ee7b82b799 -->
<g id="edge4" class="edge">
<title>ece7242e_95ac_4b1c_9fae_3afa89fdd2cf&#45;&gt;650d82be_ca07_4e37_8eb4_f1ee7b82b799</title>
<path fill="none" stroke="black" d="M406.2,-415.94C431.98,-403.99 459.35,-391.31 483.49,-380.13"/>
<text text-anchor="middle" x="470.44" y="-383.13" font-family="Times,serif" font-size="10.00">source</text>
</g>
<!-- s -->
<g id="node6" class="node">
<title>s</title>
<polygon fill="none" stroke="black" points="694.97,-346 694.97,-364 868.97,-364 868.97,-346 694.97,-346"/>
<text text-anchor="start" x="765.17" y="-353" font-family="Times,serif" text-decoration="underline" font-size="10.00">s :Status</text>
<polygon fill="none" stroke="black" points="694.97,-328 694.97,-346 868.97,-346 868.97,-328 694.97,-328"/>
<text text-anchor="start" x="697.97" y="-334" font-family="Times,serif" font-size="10.00">declaringClass = class Transaction$Status</text>
</g>
<!-- ece7242e_95ac_4b1c_9fae_3afa89fdd2cf&#45;&gt;s -->
<g id="edge5" class="edge">
<title>ece7242e_95ac_4b1c_9fae_3afa89fdd2cf&#45;&gt;s</title>
<path fill="none" stroke="black" d="M426.38,-438.08C499.21,-423.15 594.5,-402.35 677.97,-380 691.24,-376.45 705.33,-372.26 718.72,-368.08"/>
<text text-anchor="middle" x="707.33" y="-371.08" font-family="Times,serif" font-size="10.00">status</text>
</g>
<!-- e1f18332_5c45_4148_bbfc_6c234af3c7ad -->
<g id="node7" class="node">
<title>e1f18332_5c45_4148_bbfc_6c234af3c7ad</title>
<polygon fill="none" stroke="black" points="204.97,-34 204.97,-52 413.97,-52 413.97,-34 204.97,-34"/>
<text text-anchor="start" x="207.71" y="-41" font-family="Times,serif" text-decoration="underline" font-size="10.00">e1f18332&#45;5c45&#45;4148&#45;bbfc&#45;6c234af3c7ad :Account</text>
<polygon fill="none" stroke="black" points="204.97,-4 204.97,-34 413.97,-34 413.97,-4 204.97,-4"/>
<text text-anchor="start" x="214" y="-22" font-family="Times,serif" font-size="10.00">balance = 69420.0</text>
<text text-anchor="start" x="214" y="-10" font-family="Times,serif" font-size="10.00">id = &quot;e1f18332&#45;5c45&#45;4148&#45;bbfc&#45;6c234af3c7ad&quot;</text>
</g>
<!-- b&#45;&gt;e1f18332_5c45_4148_bbfc_6c234af3c7ad -->
<g id="edge6" class="edge">
<title>b&#45;&gt;e1f18332_5c45_4148_bbfc_6c234af3c7ad</title>
<path fill="none" stroke="black" d="M308.97,-92C308.97,-80.71 308.97,-67.61 308.97,-56.29"/>
<text text-anchor="middle" x="282.32" y="-59.29" font-family="Times,serif" font-size="10.00">bankAccount</text>
<text text-anchor="middle" x="299.25" y="-83" font-family="Times,serif" font-size="10.00">bank</text>
</g>
<!-- d88458e6_b30a_4a40_a09d_1349885b3ff8&#45;&gt;b -->
<g id="edge7" class="edge">
<title>d88458e6_b30a_4a40_a09d_1349885b3ff8&#45;&gt;b</title>
<path fill="none" stroke="black" d="M219.22,-311.83C204.75,-302.47 191.68,-290.7 182.97,-276 162.13,-240.82 161.48,-218.78 182.97,-184 200.85,-155.08 236.46,-138.99 265.27,-130.33"/>
<text text-anchor="middle" x="255.55" y="-121.33" font-family="Times,serif" font-size="10.00">bank</text>
</g>
<!-- 682a80cd_9266_472f_b63e_d2b5eecc6940 -->
<g id="node8" class="node">
<title>682a80cd_9266_472f_b63e_d2b5eecc6940</title>
<polygon fill="none" stroke="black" points="200.97,-254 200.97,-272 417.97,-272 417.97,-254 200.97,-254"/>
<text text-anchor="start" x="203.53" y="-261" font-family="Times,serif" text-decoration="underline" font-size="10.00">682a80cd&#45;9266&#45;472f&#45;b63e&#45;d2b5eecc6940 :Customer</text>
<polygon fill="none" stroke="black" points="200.97,-188 200.97,-254 417.97,-254 417.97,-188 200.97,-188"/>
<text text-anchor="start" x="212.33" y="-242" font-family="Times,serif" font-size="10.00">email = &quot;bobby@tt.ee&quot;</text>
<text text-anchor="start" x="212.33" y="-230" font-family="Times,serif" font-size="10.00">firstName = &quot;Bob&quot;</text>
<text text-anchor="start" x="212.33" y="-218" font-family="Times,serif" font-size="10.00">id = &quot;682a80cd&#45;9266&#45;472f&#45;b63e&#45;d2b5eecc6940&quot;</text>
<text text-anchor="start" x="212.33" y="-206" font-family="Times,serif" font-size="10.00">lastName = &quot;Jackson&quot;</text>
<text text-anchor="start" x="212.33" y="-194" font-family="Times,serif" font-size="10.00">password = &quot;secret&quot;</text>
</g>
<!-- d88458e6_b30a_4a40_a09d_1349885b3ff8&#45;&gt;682a80cd_9266_472f_b63e_d2b5eecc6940 -->
<g id="edge8" class="edge">
<title>d88458e6_b30a_4a40_a09d_1349885b3ff8&#45;&gt;682a80cd_9266_472f_b63e_d2b5eecc6940</title>
<path fill="none" stroke="black" d="M308.97,-311.72C308.97,-300.68 308.97,-288.19 308.97,-276.4"/>
<text text-anchor="middle" x="296.48" y="-279.4" font-family="Times,serif" font-size="10.00">owner</text>
</g>
<!-- 650d82be_ca07_4e37_8eb4_f1ee7b82b799&#45;&gt;b -->
<g id="edge9" class="edge">
<title>650d82be_ca07_4e37_8eb4_f1ee7b82b799&#45;&gt;b</title>
<path fill="none" stroke="black" d="M507.95,-311.87C495.43,-301.44 482.7,-289.17 472.97,-276 446.59,-240.28 464.33,-216.42 433.97,-184 411.88,-160.4 379.01,-144.32 352.52,-134.31"/>
<text text-anchor="middle" x="362.23" y="-125.31" font-family="Times,serif" font-size="10.00">bank</text>
</g>
<!-- e3f869aa_dec6_430f_82aa_baa83bdefb8c -->
<g id="node9" class="node">
<title>e3f869aa_dec6_430f_82aa_baa83bdefb8c</title>
<polygon fill="none" stroke="black" points="489.97,-254 489.97,-272 701.97,-272 701.97,-254 489.97,-254"/>
<text text-anchor="start" x="492.83" y="-261" font-family="Times,serif" text-decoration="underline" font-size="10.00">e3f869aa&#45;dec6&#45;430f&#45;82aa&#45;baa83bdefb8c :Customer</text>
<polygon fill="none" stroke="black" points="489.97,-188 489.97,-254 701.97,-254 701.97,-188 489.97,-188"/>
<text text-anchor="start" x="501.62" y="-242" font-family="Times,serif" font-size="10.00">email = &quot;john@doe.ee&quot;</text>
<text text-anchor="start" x="501.62" y="-230" font-family="Times,serif" font-size="10.00">firstName = &quot;John&quot;</text>
<text text-anchor="start" x="501.62" y="-218" font-family="Times,serif" font-size="10.00">id = &quot;e3f869aa&#45;dec6&#45;430f&#45;82aa&#45;baa83bdefb8c&quot;</text>
<text text-anchor="start" x="501.62" y="-206" font-family="Times,serif" font-size="10.00">lastName = &quot;Doe&quot;</text>
<text text-anchor="start" x="501.62" y="-194" font-family="Times,serif" font-size="10.00">password = &quot;pass1234&quot;</text>
</g>
<!-- 650d82be_ca07_4e37_8eb4_f1ee7b82b799&#45;&gt;e3f869aa_dec6_430f_82aa_baa83bdefb8c -->
<g id="edge10" class="edge">
<title>650d82be_ca07_4e37_8eb4_f1ee7b82b799&#45;&gt;e3f869aa_dec6_430f_82aa_baa83bdefb8c</title>
<path fill="none" stroke="black" d="M566.94,-311.72C570.91,-300.68 575.4,-288.19 579.65,-276.4"/>
<text text-anchor="middle" x="567.15" y="-279.4" font-family="Times,serif" font-size="10.00">owner</text>
</g>
<!-- 682a80cd_9266_472f_b63e_d2b5eecc6940&#45;&gt;b -->
<g id="edge11" class="edge">
<title>682a80cd_9266_472f_b63e_d2b5eecc6940&#45;&gt;b</title>
<path fill="none" stroke="black" d="M308.97,-183.82C308.97,-171.69 308.97,-158.94 308.97,-148.12"/>
<text text-anchor="middle" x="299.25" y="-151.12" font-family="Times,serif" font-size="10.00">bank</text>
</g>
<!-- e3f869aa_dec6_430f_82aa_baa83bdefb8c&#45;&gt;b -->
<g id="edge12" class="edge">
<title>e3f869aa_dec6_430f_82aa_baa83bdefb8c&#45;&gt;b</title>
<path fill="none" stroke="black" d="M481.72,-186.01C436.39,-168.95 386.99,-150.36 352.67,-137.44"/>
<text text-anchor="middle" x="362.39" y="-140.44" font-family="Times,serif" font-size="10.00">bank</text>
</g>
</g>
</svg>
