<?xml version="1.0" encoding="UTF-8" standalone="no"?>
<!DOCTYPE svg PUBLIC "-//W3C//DTD SVG 1.1//EN"
 "http://www.w3.org/Graphics/SVG/1.1/DTD/svg11.dtd">
<!-- Generated by graphviz version 2.44.0 (20200408.0750)
 -->
<!-- Pages: 1 -->
<svg width="892px" height="436px"
 viewBox="0.00 0.00 891.62 436.00" xmlns="http://www.w3.org/2000/svg" xmlns:xlink="http://www.w3.org/1999/xlink">
<g id="graph0" class="graph" transform="scale(1.0 1.0) rotate(0) translate(4 432)">
<polygon fill="white" stroke="transparent" points="-4,4 -4,-432 887.62,-432 887.62,4 -4,4"/>
<!-- e3fd6150_a473_4984_94a1_3ebf1a4e5138 -->
<g id="node1" class="node">
<title>e3fd6150_a473_4984_94a1_3ebf1a4e5138</title>
<polygon fill="none" stroke="black" points="220.62,-406 220.62,-424 492.62,-424 492.62,-406 220.62,-406"/>
<text text-anchor="start" x="247.07" y="-413" font-family="Times,serif" text-decoration="underline" font-size="10.00">e3fd6150&#45;a473&#45;4984&#45;94a1&#45;3ebf1a4e5138 :Transaction</text>
<polygon fill="none" stroke="black" points="220.62,-340 220.62,-406 492.62,-406 492.62,-340 220.62,-340"/>
<text text-anchor="start" x="223.62" y="-394" font-family="Times,serif" font-size="10.00">amount = 50.0</text>
<text text-anchor="start" x="223.62" y="-382" font-family="Times,serif" font-size="10.00">description = &quot;Expensive fee&quot;</text>
<text text-anchor="start" x="223.62" y="-370" font-family="Times,serif" font-size="10.00">id = &quot;e3fd6150&#45;a473&#45;4984&#45;94a1&#45;3ebf1a4e5138&quot;</text>
<text text-anchor="start" x="223.62" y="-358" font-family="Times,serif" font-size="10.00">rejectionDescription = &quot;Not enough money on the source account&quot;</text>
<text text-anchor="start" x="223.62" y="-346" font-family="Times,serif" font-size="10.00">timestamp = 2021&#45;11&#45;28T10:59:44.335234600</text>
</g>
<!-- b -->
<g id="node2" class="node">
<title>b</title>
<polygon fill="none" stroke="black" points="393.62,-272 393.62,-290 430.62,-290 430.62,-272 393.62,-272"/>
<text text-anchor="start" x="396.42" y="-279" font-family="Times,serif" text-decoration="underline" font-size="10.00">b :Bank</text>
<polygon fill="none" stroke="black" points="393.62,-266 393.62,-272 430.62,-272 430.62,-266 393.62,-266"/>
</g>
<!-- e3fd6150_a473_4984_94a1_3ebf1a4e5138&#45;&gt;b -->
<g id="edge1" class="edge">
<title>e3fd6150_a473_4984_94a1_3ebf1a4e5138&#45;&gt;b</title>
<path fill="none" stroke="black" d="M380.9,-335.96C388.5,-321.88 396.43,-307.17 402.32,-296.23"/>
<text text-anchor="middle" x="392.6" y="-299.23" font-family="Times,serif" font-size="10.00">bank</text>
<text text-anchor="middle" x="357.02" y="-326.96" font-family="Times,serif" font-size="10.00">transactions</text>
</g>
<!-- c -->
<g id="node3" class="node">
<title>c</title>
<polygon fill="none" stroke="black" points="70.62,-46 70.62,-64 204.62,-64 204.62,-46 70.62,-46"/>
<text text-anchor="start" x="114.15" y="-53" font-family="Times,serif" text-decoration="underline" font-size="10.00">c :Currency</text>
<polygon fill="none" stroke="black" points="70.62,-28 70.62,-46 204.62,-46 204.62,-28 70.62,-28"/>
<text text-anchor="start" x="73.62" y="-34" font-family="Times,serif" font-size="10.00">declaringClass = class Currency</text>
</g>
<!-- e3fd6150_a473_4984_94a1_3ebf1a4e5138&#45;&gt;c -->
<g id="edge2" class="edge">
<title>e3fd6150_a473_4984_94a1_3ebf1a4e5138&#45;&gt;c</title>
<path fill="none" stroke="black" d="M212.35,-351.28C140.11,-328.33 58.98,-288.43 15.62,-220 -6.27,-185.46 -3.71,-164.03 15.62,-128 30.22,-100.78 58.44,-81.15 84.06,-68.04"/>
<text text-anchor="middle" x="66.58" y="-71.04" font-family="Times,serif" font-size="10.00">currency</text>
</g>
<!-- 12ef7bd1_ecdf_4eb6_9b8d_024f7043ee7a -->
<g id="node4" class="node">
<title>12ef7bd1_ecdf_4eb6_9b8d_024f7043ee7a</title>
<polygon fill="none" stroke="black" points="33.62,-180 33.62,-198 242.62,-198 242.62,-180 33.62,-180"/>
<text text-anchor="start" x="36.35" y="-187" font-family="Times,serif" text-decoration="underline" font-size="10.00">12ef7bd1&#45;ecdf&#45;4eb6&#45;9b8d&#45;024f7043ee7a :Account</text>
<polygon fill="none" stroke="black" points="33.62,-150 33.62,-180 242.62,-180 242.62,-150 33.62,-150"/>
<text text-anchor="start" x="42.64" y="-168" font-family="Times,serif" font-size="10.00">balance = 69420.0</text>
<text text-anchor="start" x="42.64" y="-156" font-family="Times,serif" font-size="10.00">id = &quot;12ef7bd1&#45;ecdf&#45;4eb6&#45;9b8d&#45;024f7043ee7a&quot;</text>
</g>
<!-- e3fd6150_a473_4984_94a1_3ebf1a4e5138&#45;&gt;12ef7bd1_ecdf_4eb6_9b8d_024f7043ee7a -->
<g id="edge3" class="edge">
<title>e3fd6150_a473_4984_94a1_3ebf1a4e5138&#45;&gt;12ef7bd1_ecdf_4eb6_9b8d_024f7043ee7a</title>
<path fill="none" stroke="black" d="M308.56,-335.79C265.12,-294.93 202.6,-236.13 166.45,-202.12"/>
<text text-anchor="middle" x="144.5" y="-205.12" font-family="Times,serif" font-size="10.00">destination</text>
</g>
<!-- 17834781_b597_4840_8b27_495b83053e34 -->
<g id="node5" class="node">
<title>17834781_b597_4840_8b27_495b83053e34</title>
<polygon fill="none" stroke="black" points="276.62,-180 276.62,-198 493.62,-198 493.62,-180 276.62,-180"/>
<text text-anchor="start" x="279.16" y="-187" font-family="Times,serif" text-decoration="underline" font-size="10.00">17834781&#45;b597&#45;4840&#45;8b27&#45;495b83053e34 :Account</text>
<polygon fill="none" stroke="black" points="276.62,-150 276.62,-180 493.62,-180 493.62,-150 276.62,-150"/>
<text text-anchor="start" x="285.45" y="-168" font-family="Times,serif" font-size="10.00">balance = 10.0</text>
<text text-anchor="start" x="285.45" y="-156" font-family="Times,serif" font-size="10.00">id = &quot;17834781&#45;b597&#45;4840&#45;8b27&#45;495b83053e34&quot;</text>
</g>
<!-- e3fd6150_a473_4984_94a1_3ebf1a4e5138&#45;&gt;17834781_b597_4840_8b27_495b83053e34 -->
<g id="edge4" class="edge">
<title>e3fd6150_a473_4984_94a1_3ebf1a4e5138&#45;&gt;17834781_b597_4840_8b27_495b83053e34</title>
<path fill="none" stroke="black" d="M362.76,-335.79C368.31,-294.93 376.31,-236.13 380.93,-202.12"/>
<text text-anchor="middle" x="367.88" y="-205.12" font-family="Times,serif" font-size="10.00">source</text>
</g>
<!-- s -->
<g id="node6" class="node">
<title>s</title>
<polygon fill="none" stroke="black" points="464.62,-278 464.62,-296 638.62,-296 638.62,-278 464.62,-278"/>
<text text-anchor="start" x="534.81" y="-285" font-family="Times,serif" text-decoration="underline" font-size="10.00">s :Status</text>
<polygon fill="none" stroke="black" points="464.62,-260 464.62,-278 638.62,-278 638.62,-260 464.62,-260"/>
<text text-anchor="start" x="467.62" y="-266" font-family="Times,serif" font-size="10.00">declaringClass = class Transaction$Status</text>
</g>
<!-- e3fd6150_a473_4984_94a1_3ebf1a4e5138&#45;&gt;s -->
<g id="edge5" class="edge">
<title>e3fd6150_a473_4984_94a1_3ebf1a4e5138&#45;&gt;s</title>
<path fill="none" stroke="black" d="M442.71,-335.96C466.59,-323.48 491.39,-310.5 511.28,-300.1"/>
<text text-anchor="middle" x="499.89" y="-303.1" font-family="Times,serif" font-size="10.00">status</text>
</g>
<!-- b&#45;&gt;12ef7bd1_ecdf_4eb6_9b8d_024f7043ee7a -->
<g id="edge6" class="edge">
<title>b&#45;&gt;12ef7bd1_ecdf_4eb6_9b8d_024f7043ee7a</title>
<path fill="none" stroke="black" d="M384.34,-266.85C344.14,-251.88 267.56,-223.37 210.33,-202.07"/>
<text text-anchor="middle" x="236.99" y="-205.07" font-family="Times,serif" font-size="10.00">bankAccount</text>
<text text-anchor="middle" x="374.62" y="-269.85" font-family="Times,serif" font-size="10.00">bank</text>
</g>
<!-- b&#45;&gt;17834781_b597_4840_8b27_495b83053e34 -->
<g id="edge7" class="edge">
<title>b&#45;&gt;17834781_b597_4840_8b27_495b83053e34</title>
<path fill="none" stroke="black" d="M407.04,-259.7C402.85,-243.9 396.6,-220.28 391.76,-202"/>
<text text-anchor="middle" x="409.26" y="-205" font-family="Times,serif" font-size="10.00">accounts</text>
<text text-anchor="middle" x="397.32" y="-250.7" font-family="Times,serif" font-size="10.00">bank</text>
</g>
<!-- b662482b_bf19_4782_b508_995bc1ab9c67 -->
<g id="node7" class="node">
<title>b662482b_bf19_4782_b508_995bc1ab9c67</title>
<polygon fill="none" stroke="black" points="566.62,-198 566.62,-216 803.62,-216 803.62,-198 566.62,-198"/>
<text text-anchor="start" x="569.45" y="-205" font-family="Times,serif" text-decoration="underline" font-size="10.00">b662482b&#45;bf19&#45;4782&#45;b508&#45;995bc1ab9c67 :Administrator</text>
<polygon fill="none" stroke="black" points="566.62,-132 566.62,-198 803.62,-198 803.62,-132 566.62,-132"/>
<text text-anchor="start" x="586.85" y="-186" font-family="Times,serif" font-size="10.00">email = &quot;admin@bank.ee&quot;</text>
<text text-anchor="start" x="586.85" y="-174" font-family="Times,serif" font-size="10.00">firstName = &quot;Admin&quot;</text>
<text text-anchor="start" x="586.85" y="-162" font-family="Times,serif" font-size="10.00">id = &quot;b662482b&#45;bf19&#45;4782&#45;b508&#45;995bc1ab9c67&quot;</text>
<text text-anchor="start" x="586.85" y="-150" font-family="Times,serif" font-size="10.00">lastName = &quot;ALice&quot;</text>
<text text-anchor="start" x="586.85" y="-138" font-family="Times,serif" font-size="10.00">password = &quot;secure_p@ssw0|2d&quot;</text>
</g>
<!-- b&#45;&gt;b662482b_bf19_4782_b508_995bc1ab9c67 -->
<g id="edge8" class="edge">
<title>b&#45;&gt;b662482b_bf19_4782_b508_995bc1ab9c67</title>
<path fill="none" stroke="black" d="M438.83,-260.37C441.76,-258.81 444.72,-257.32 447.62,-256 468.67,-246.37 513.23,-230.74 558.09,-215.76"/>
<text text-anchor="middle" x="529.48" y="-218.76" font-family="Times,serif" font-size="10.00">administrators</text>
<text text-anchor="middle" x="429.11" y="-251.37" font-family="Times,serif" font-size="10.00">bank</text>
</g>
<!-- 665b54c8_cb5b_48a6_820e_2d8226f320f9 -->
<g id="node8" class="node">
<title>665b54c8_cb5b_48a6_820e_2d8226f320f9</title>
<polygon fill="none" stroke="black" points="348.62,-70 348.62,-88 565.62,-88 565.62,-70 348.62,-70"/>
<text text-anchor="start" x="351.17" y="-77" font-family="Times,serif" text-decoration="underline" font-size="10.00">665b54c8&#45;cb5b&#45;48a6&#45;820e&#45;2d8226f320f9 :Customer</text>
<polygon fill="none" stroke="black" points="348.62,-4 348.62,-70 565.62,-70 565.62,-4 348.62,-4"/>
<text text-anchor="start" x="359.96" y="-58" font-family="Times,serif" font-size="10.00">email = &quot;john@doe.ee&quot;</text>
<text text-anchor="start" x="359.96" y="-46" font-family="Times,serif" font-size="10.00">firstName = &quot;John&quot;</text>
<text text-anchor="start" x="359.96" y="-34" font-family="Times,serif" font-size="10.00">id = &quot;665b54c8&#45;cb5b&#45;48a6&#45;820e&#45;2d8226f320f9&quot;</text>
<text text-anchor="start" x="359.96" y="-22" font-family="Times,serif" font-size="10.00">lastName = &quot;Doe&quot;</text>
<text text-anchor="start" x="359.96" y="-10" font-family="Times,serif" font-size="10.00">password = &quot;pass1234&quot;</text>
</g>
<!-- b&#45;&gt;665b54c8_cb5b_48a6_820e_2d8226f320f9 -->
<g id="edge9" class="edge">
<title>b&#45;&gt;665b54c8_cb5b_48a6_820e_2d8226f320f9</title>
<path fill="none" stroke="black" d="M438.73,-261.15C441.72,-259.41 444.73,-257.66 447.62,-256 475.54,-239.88 494.43,-247.89 510.62,-220 531.14,-184.63 522.46,-167.13 510.62,-128 506.84,-115.54 500.46,-103.25 493.37,-92.16"/>
<text text-anchor="middle" x="473.1" y="-95.16" font-family="Times,serif" font-size="10.00">customers</text>
<text text-anchor="middle" x="448.45" y="-252.15" font-family="Times,serif" font-size="10.00">bank</text>
</g>
<!-- t -->
<g id="node9" class="node">
<title>t</title>
<polygon fill="none" stroke="black" points="838.62,-168 838.62,-186 874.62,-186 874.62,-168 838.62,-168"/>
<text text-anchor="start" x="841.21" y="-175" font-family="Times,serif" text-decoration="underline" font-size="10.00">t :Trace</text>
<polygon fill="none" stroke="black" points="838.62,-162 838.62,-168 874.62,-168 874.62,-162 838.62,-162"/>
</g>
<!-- b&#45;&gt;t -->
<g id="edge10" class="edge">
<title>b&#45;&gt;t</title>
<path fill="none" stroke="black" d="M438.15,-259.85C441.26,-258.36 444.45,-257.02 447.62,-256 606.12,-204.85 674.15,-299.28 820.62,-220 832.23,-213.71 841.44,-201.95 847.63,-192.02"/>
<text text-anchor="middle" x="835.98" y="-195.02" font-family="Times,serif" font-size="10.00">traces</text>
</g>
<!-- 12ef7bd1_ecdf_4eb6_9b8d_024f7043ee7a&#45;&gt;c -->
<g id="edge11" class="edge">
<title>12ef7bd1_ecdf_4eb6_9b8d_024f7043ee7a&#45;&gt;c</title>
<path fill="none" stroke="black" d="M137.62,-145.97C137.62,-122.69 137.62,-89.54 137.62,-68.15"/>
<text text-anchor="middle" x="120.13" y="-71.15" font-family="Times,serif" font-size="10.00">currency</text>
</g>
<!-- 17834781_b597_4840_8b27_495b83053e34&#45;&gt;c -->
<g id="edge12" class="edge">
<title>17834781_b597_4840_8b27_495b83053e34&#45;&gt;c</title>
<path fill="none" stroke="black" d="M331.63,-145.97C285.98,-122.69 221.02,-89.54 179.08,-68.15"/>
<text text-anchor="middle" x="161.59" y="-71.15" font-family="Times,serif" font-size="10.00">currency</text>
</g>
<!-- 17834781_b597_4840_8b27_495b83053e34&#45;&gt;665b54c8_cb5b_48a6_820e_2d8226f320f9 -->
<g id="edge13" class="edge">
<title>17834781_b597_4840_8b27_495b83053e34&#45;&gt;665b54c8_cb5b_48a6_820e_2d8226f320f9</title>
<path fill="none" stroke="black" d="M400.06,-145.97C408.99,-130.35 420.45,-110.3 430.71,-92.33"/>
<text text-anchor="middle" x="418.22" y="-95.33" font-family="Times,serif" font-size="10.00">owner</text>
<text text-anchor="middle" x="384.51" y="-136.97" font-family="Times,serif" font-size="10.00">account</text>
</g>
</g>
</svg>
