<?xml version="1.0" encoding="UTF-8" standalone="no"?>
<!DOCTYPE svg PUBLIC "-//W3C//DTD SVG 1.1//EN"
 "http://www.w3.org/Graphics/SVG/1.1/DTD/svg11.dtd">
<!-- Generated by graphviz version 2.43.0 (0)
 -->
<!-- Title: model Pages: 1 -->
<svg width="1481px" height="449px"
 viewBox="0.00 0.00 1480.50 449.00" xmlns="http://www.w3.org/2000/svg" xmlns:xlink="http://www.w3.org/1999/xlink">
<g id="graph0" class="graph" transform="scale(1.0 1.0) rotate(0) translate(4 445)">
<title>model</title>
<polygon fill="white" stroke="transparent" points="-4,4 -4,-445 1476.5,-445 1476.5,4 -4,4"/>
<!-- 622d42f0_3f41_4d1e_a68a_ae7263a88f90 -->
<g id="node1" class="node">
<title>622d42f0_3f41_4d1e_a68a_ae7263a88f90</title>
<polygon fill="none" stroke="black" points="263,-420 263,-437 492,-437 492,-420 263,-420"/>
<text text-anchor="start" x="266" y="-427" font-family="Times,serif" text-decoration="underline" font-size="10.00">622d42f0&#45;3f41&#45;4d1e&#45;a68a&#45;ae7263a88f90 :Transaction</text>
<polygon fill="none" stroke="black" points="263,-359 263,-420 492,-420 492,-359 263,-359"/>
<text text-anchor="start" x="279.5" y="-409" font-family="Times,serif" font-size="10.00">amount = 250.0</text>
<text text-anchor="start" x="279.5" y="-398" font-family="Times,serif" font-size="10.00">description = &quot;Salary&quot;</text>
<text text-anchor="start" x="279.5" y="-387" font-family="Times,serif" font-size="10.00">id = &quot;622d42f0&#45;3f41&#45;4d1e&#45;a68a&#45;ae7263a88f90&quot;</text>
<text text-anchor="start" x="279.5" y="-376" font-family="Times,serif" font-size="10.00">rejectionDescription = &quot;&quot;</text>
<text text-anchor="start" x="279.5" y="-365" font-family="Times,serif" font-size="10.00">timestamp = 2021&#45;12&#45;04T18:01:05.450031794</text>
</g>
<!-- b -->
<g id="node2" class="node">
<title>b</title>
<polygon fill="none" stroke="black" points="413,-297.5 413,-314.5 1077,-314.5 1077,-297.5 413,-297.5"/>
<text text-anchor="start" x="728.5" y="-304.5" font-family="Times,serif" text-decoration="underline" font-size="10.00">b :Bank</text>
<polygon fill="none" stroke="black" points="413,-269.5 413,-297.5 1077,-297.5 1077,-269.5 413,-269.5"/>
<text text-anchor="start" x="416" y="-286.5" font-family="Times,serif" font-size="10.00">accountsMap = sendItToTheBank8a633aa5&#45;907c&#45;4e57&#45;a313&#45;22e0adb2672e7ec351d6&#45;652f&#45;4691&#45;8e72&#45;ea432d44a0c86652e633&#45;df83&#45;435c&#45;9557&#45;3e2006ec4ab6</text>
<text text-anchor="start" x="416" y="-275.5" font-family="Times,serif" font-size="10.00">customerMap = b3d26ef4&#45;38d9&#45;4d2a&#45;8408&#45;2297a1037909e2f7bc4c&#45;ef2a&#45;466e&#45;b8a5&#45;d24f48b13afe1eaf6f4c&#45;4f92&#45;4e04&#45;bd87&#45;c82be03265de</text>
</g>
<!-- 622d42f0_3f41_4d1e_a68a_ae7263a88f90&#45;&gt;b -->
<g id="edge1" class="edge">
<title>622d42f0_3f41_4d1e_a68a_ae7263a88f90&#45;&gt;b</title>
<path fill="none" stroke="black" d="M499.54,-362.54C550.03,-348.33 607.5,-332.17 654.14,-319.06"/>
<text text-anchor="middle" x="643.64" y="-322.06" font-family="Times,serif" font-size="10.00">bank</text>
<text text-anchor="middle" x="524.04" y="-365.54" font-family="Times,serif" font-size="10.00">transactions</text>
</g>
<!-- c -->
<g id="node3" class="node">
<title>c</title>
<polygon fill="none" stroke="black" points="527,-43 527,-60 691,-60 691,-43 527,-43"/>
<text text-anchor="start" x="585" y="-50" font-family="Times,serif" text-decoration="underline" font-size="10.00">c :Currency</text>
<polygon fill="none" stroke="black" points="527,-26 527,-43 691,-43 691,-26 527,-26"/>
<text text-anchor="start" x="530" y="-32" font-family="Times,serif" font-size="10.00">declaringClass = class model.Currency</text>
</g>
<!-- 622d42f0_3f41_4d1e_a68a_ae7263a88f90&#45;&gt;c -->
<g id="edge2" class="edge">
<title>622d42f0_3f41_4d1e_a68a_ae7263a88f90&#45;&gt;c</title>
<path fill="none" stroke="black" d="M352.04,-354.6C321.28,-296.2 279.1,-190.47 331,-122 331.1,-121.87 455.11,-87.11 537.44,-64.04"/>
<text text-anchor="middle" x="519.44" y="-67.04" font-family="Times,serif" font-size="10.00">currency</text>
</g>
<!-- 6652e633_df83_435c_9557_3e2006ec4ab6 -->
<g id="node4" class="node">
<title>6652e633_df83_435c_9557_3e2006ec4ab6</title>
<polygon fill="none" stroke="black" points="8,-209 8,-226 276,-226 276,-209 8,-209"/>
<text text-anchor="start" x="35" y="-216" font-family="Times,serif" text-decoration="underline" font-size="10.00">6652e633&#45;df83&#45;435c&#45;9557&#45;3e2006ec4ab6 :Account</text>
<polygon fill="none" stroke="black" points="8,-126 8,-209 276,-209 276,-126 8,-126"/>
<text text-anchor="start" x="11" y="-198" font-family="Times,serif" font-size="10.00">balance = 260.0</text>
<text text-anchor="start" x="11" y="-187" font-family="Times,serif" font-size="10.00">customerId = null</text>
<text text-anchor="start" x="11" y="-176" font-family="Times,serif" font-size="10.00">iban = &quot;EE233918539658846041&quot;</text>
<text text-anchor="start" x="11" y="-165" font-family="Times,serif" font-size="10.00">id = &quot;6652e633&#45;df83&#45;435c&#45;9557&#45;3e2006ec4ab6&quot;</text>
<text text-anchor="start" x="11" y="-154" font-family="Times,serif" font-size="10.00">receivedTransaction = 622d42f0&#45;3f41&#45;4d1e&#45;a68a&#45;ae7263a88f90</text>
<text text-anchor="start" x="11" y="-143" font-family="Times,serif" font-size="10.00">sentTransaction = </text>
<text text-anchor="start" x="11" y="-132" font-family="Times,serif" font-size="10.00">status = &quot;ACTIVE&quot;</text>
</g>
<!-- 622d42f0_3f41_4d1e_a68a_ae7263a88f90&#45;&gt;6652e633_df83_435c_9557_3e2006ec4ab6 -->
<g id="edge3" class="edge">
<title>622d42f0_3f41_4d1e_a68a_ae7263a88f90&#45;&gt;6652e633_df83_435c_9557_3e2006ec4ab6</title>
<path fill="none" stroke="black" d="M331.97,-354.84C294.12,-319.41 239.81,-268.57 198.95,-230.31"/>
<text text-anchor="middle" x="175.95" y="-233.31" font-family="Times,serif" font-size="10.00">destination</text>
<text text-anchor="middle" x="273.97" y="-346.84" font-family="Times,serif" font-size="10.00">allTransactionsOrderedDesc</text>
</g>
<!-- sendItToTheBank -->
<g id="node5" class="node">
<title>sendItToTheBank</title>
<polygon fill="none" stroke="black" points="348,-209 348,-226 598,-226 598,-209 348,-209"/>
<text text-anchor="start" x="416" y="-216" font-family="Times,serif" text-decoration="underline" font-size="10.00">sendItToTheBank :Account</text>
<polygon fill="none" stroke="black" points="348,-126 348,-209 598,-209 598,-126 348,-126"/>
<text text-anchor="start" x="351" y="-198" font-family="Times,serif" font-size="10.00">balance = 74170.0</text>
<text text-anchor="start" x="351" y="-187" font-family="Times,serif" font-size="10.00">customerId = &quot;&quot;</text>
<text text-anchor="start" x="351" y="-176" font-family="Times,serif" font-size="10.00">iban = null</text>
<text text-anchor="start" x="351" y="-165" font-family="Times,serif" font-size="10.00">id = &quot;sendItToTheBank&quot;</text>
<text text-anchor="start" x="351" y="-154" font-family="Times,serif" font-size="10.00">receivedTransaction = </text>
<text text-anchor="start" x="351" y="-143" font-family="Times,serif" font-size="10.00">sentTransaction = 622d42f0&#45;3f41&#45;4d1e&#45;a68a&#45;ae7263a88f90</text>
<text text-anchor="start" x="351" y="-132" font-family="Times,serif" font-size="10.00">status = &quot;ACTIVE&quot;</text>
</g>
<!-- 622d42f0_3f41_4d1e_a68a_ae7263a88f90&#45;&gt;sendItToTheBank -->
<g id="edge4" class="edge">
<title>622d42f0_3f41_4d1e_a68a_ae7263a88f90&#45;&gt;sendItToTheBank</title>
<path fill="none" stroke="black" d="M377.13,-354.89C378.63,-328.33 383.25,-293.9 396,-266 401.77,-253.36 409.91,-241.16 418.76,-230.05"/>
<text text-anchor="middle" x="405.26" y="-233.05" font-family="Times,serif" font-size="10.00">source</text>
<text text-anchor="middle" x="435.13" y="-346.89" font-family="Times,serif" font-size="10.00">allTransactionsOrderedDesc</text>
</g>
<!-- s -->
<g id="node6" class="node">
<title>s</title>
<polygon fill="none" stroke="black" points="1112,-292.5 1112,-309.5 1317,-309.5 1317,-292.5 1112,-292.5"/>
<text text-anchor="start" x="1197.5" y="-299.5" font-family="Times,serif" text-decoration="underline" font-size="10.00">s :Status</text>
<polygon fill="none" stroke="black" points="1112,-275.5 1112,-292.5 1317,-292.5 1317,-275.5 1112,-275.5"/>
<text text-anchor="start" x="1115" y="-281.5" font-family="Times,serif" font-size="10.00">declaringClass = class model.Transaction$Status</text>
</g>
<!-- 622d42f0_3f41_4d1e_a68a_ae7263a88f90&#45;&gt;s -->
<g id="edge5" class="edge">
<title>622d42f0_3f41_4d1e_a68a_ae7263a88f90&#45;&gt;s</title>
<path fill="none" stroke="black" d="M499.61,-387.46C642.78,-375.44 886.44,-352.26 1094,-319 1103.99,-317.4 1114.4,-315.51 1124.74,-313.51"/>
<text text-anchor="middle" x="1112.74" y="-316.51" font-family="Times,serif" font-size="10.00">status</text>
</g>
<!-- b&#45;&gt;6652e633_df83_435c_9557_3e2006ec4ab6 -->
<g id="edge10" class="edge">
<title>b&#45;&gt;6652e633_df83_435c_9557_3e2006ec4ab6</title>
<path fill="none" stroke="black" d="M537.97,-265.97C471.55,-256.38 397.89,-244.29 331,-230 315.75,-226.74 299.92,-222.96 284.2,-218.94"/>
<text text-anchor="middle" x="302.7" y="-221.94" font-family="Times,serif" font-size="10.00">accounts</text>
<text text-anchor="middle" x="527.47" y="-257.97" font-family="Times,serif" font-size="10.00">bank</text>
</g>
<!-- b&#45;&gt;sendItToTheBank -->
<g id="edge7" class="edge">
<title>b&#45;&gt;sendItToTheBank</title>
<path fill="none" stroke="black" d="M684.3,-265.95C659.01,-255.3 628.65,-242.52 598.94,-230.01"/>
<text text-anchor="middle" x="580.44" y="-233.01" font-family="Times,serif" font-size="10.00">accounts</text>
<text text-anchor="middle" x="673.8" y="-257.95" font-family="Times,serif" font-size="10.00">bank</text>
</g>
<!-- sendItToTheBank1 -->
<g id="node7" class="node">
<title>sendItToTheBank1</title>
<polygon fill="none" stroke="black" points="671,-209 671,-226 820,-226 820,-209 671,-209"/>
<text text-anchor="start" x="688.5" y="-216" font-family="Times,serif" text-decoration="underline" font-size="10.00">sendItToTheBank :Account</text>
<polygon fill="none" stroke="black" points="671,-126 671,-209 820,-209 820,-126 671,-126"/>
<text text-anchor="start" x="674" y="-198" font-family="Times,serif" font-size="10.00">balance = 69420.0</text>
<text text-anchor="start" x="674" y="-187" font-family="Times,serif" font-size="10.00">customerId = null</text>
<text text-anchor="start" x="674" y="-176" font-family="Times,serif" font-size="10.00">iban = &quot;EE673401079465633639&quot;</text>
<text text-anchor="start" x="674" y="-165" font-family="Times,serif" font-size="10.00">id = &quot;sendItToTheBank&quot;</text>
<text text-anchor="start" x="674" y="-154" font-family="Times,serif" font-size="10.00">receivedTransaction = </text>
<text text-anchor="start" x="674" y="-143" font-family="Times,serif" font-size="10.00">sentTransaction = </text>
<text text-anchor="start" x="674" y="-132" font-family="Times,serif" font-size="10.00">status = &quot;ACTIVE&quot;</text>
</g>
<!-- b&#45;&gt;sendItToTheBank1 -->
<g id="edge6" class="edge">
<title>b&#45;&gt;sendItToTheBank1</title>
<path fill="none" stroke="black" d="M745,-265.8C745,-255.25 745,-242.63 745,-230.25"/>
<text text-anchor="middle" x="717" y="-233.25" font-family="Times,serif" font-size="10.00">bankAccount</text>
<text text-anchor="middle" x="734.5" y="-257.8" font-family="Times,serif" font-size="10.00">bank</text>
</g>
<!-- 8a633aa5_907c_4e57_a313_22e0adb2672e -->
<g id="node8" class="node">
<title>8a633aa5_907c_4e57_a313_22e0adb2672e</title>
<polygon fill="none" stroke="black" points="854,-209 854,-226 1092,-226 1092,-209 854,-209"/>
<text text-anchor="start" x="866" y="-216" font-family="Times,serif" text-decoration="underline" font-size="10.00">8a633aa5&#45;907c&#45;4e57&#45;a313&#45;22e0adb2672e :Account</text>
<polygon fill="none" stroke="black" points="854,-126 854,-209 1092,-209 1092,-126 854,-126"/>
<text text-anchor="start" x="857" y="-198" font-family="Times,serif" font-size="10.00">balance = 0.0</text>
<text text-anchor="start" x="857" y="-187" font-family="Times,serif" font-size="10.00">customerId = &quot;1eaf6f4c&#45;4f92&#45;4e04&#45;bd87&#45;c82be03265de&quot;</text>
<text text-anchor="start" x="857" y="-176" font-family="Times,serif" font-size="10.00">iban = null</text>
<text text-anchor="start" x="857" y="-165" font-family="Times,serif" font-size="10.00">id = &quot;8a633aa5&#45;907c&#45;4e57&#45;a313&#45;22e0adb2672e&quot;</text>
<text text-anchor="start" x="857" y="-154" font-family="Times,serif" font-size="10.00">receivedTransaction = </text>
<text text-anchor="start" x="857" y="-143" font-family="Times,serif" font-size="10.00">sentTransaction = </text>
<text text-anchor="start" x="857" y="-132" font-family="Times,serif" font-size="10.00">status = &quot;ACTIVE&quot;</text>
</g>
<!-- b&#45;&gt;8a633aa5_907c_4e57_a313_22e0adb2672e -->
<g id="edge8" class="edge">
<title>b&#45;&gt;8a633aa5_907c_4e57_a313_22e0adb2672e</title>
<path fill="none" stroke="black" d="M795.88,-265.95C817.01,-255.34 842.37,-242.6 867.2,-230.13"/>
<text text-anchor="middle" x="848.7" y="-233.13" font-family="Times,serif" font-size="10.00">accounts</text>
<text text-anchor="middle" x="785.38" y="-257.95" font-family="Times,serif" font-size="10.00">bank</text>
</g>
<!-- 7ec351d6_652f_4691_8e72_ea432d44a0c8 -->
<g id="node9" class="node">
<title>7ec351d6_652f_4691_8e72_ea432d44a0c8</title>
<polygon fill="none" stroke="black" points="1164,-209 1164,-226 1398,-226 1398,-209 1164,-209"/>
<text text-anchor="start" x="1174" y="-216" font-family="Times,serif" text-decoration="underline" font-size="10.00">7ec351d6&#45;652f&#45;4691&#45;8e72&#45;ea432d44a0c8 :Account</text>
<polygon fill="none" stroke="black" points="1164,-126 1164,-209 1398,-209 1398,-126 1164,-126"/>
<text text-anchor="start" x="1167" y="-198" font-family="Times,serif" font-size="10.00">balance = 100.0</text>
<text text-anchor="start" x="1167" y="-187" font-family="Times,serif" font-size="10.00">customerId = &quot;e2f7bc4c&#45;ef2a&#45;466e&#45;b8a5&#45;d24f48b13afe&quot;</text>
<text text-anchor="start" x="1167" y="-176" font-family="Times,serif" font-size="10.00">iban = null</text>
<text text-anchor="start" x="1167" y="-165" font-family="Times,serif" font-size="10.00">id = &quot;7ec351d6&#45;652f&#45;4691&#45;8e72&#45;ea432d44a0c8&quot;</text>
<text text-anchor="start" x="1167" y="-154" font-family="Times,serif" font-size="10.00">receivedTransaction = </text>
<text text-anchor="start" x="1167" y="-143" font-family="Times,serif" font-size="10.00">sentTransaction = </text>
<text text-anchor="start" x="1167" y="-132" font-family="Times,serif" font-size="10.00">status = &quot;ACTIVE&quot;</text>
</g>
<!-- b&#45;&gt;7ec351d6_652f_4691_8e72_ea432d44a0c8 -->
<g id="edge9" class="edge">
<title>b&#45;&gt;7ec351d6_652f_4691_8e72_ea432d44a0c8</title>
<path fill="none" stroke="black" d="M964.09,-266C1022.42,-256.92 1085.03,-245.09 1142,-230 1146.62,-228.78 1151.3,-227.45 1156,-226.05"/>
<text text-anchor="middle" x="1137.5" y="-229.05" font-family="Times,serif" font-size="10.00">accounts</text>
<text text-anchor="middle" x="953.59" y="-258" font-family="Times,serif" font-size="10.00">bank</text>
</g>
<!-- e2f7bc4c_ef2a_466e_b8a5_d24f48b13afe -->
<g id="node10" class="node">
<title>e2f7bc4c_ef2a_466e_b8a5_d24f48b13afe</title>
<polygon fill="none" stroke="black" points="1250,-65 1250,-82 1465,-82 1465,-65 1250,-65"/>
<text text-anchor="start" x="1253" y="-72" font-family="Times,serif" text-decoration="underline" font-size="10.00">e2f7bc4c&#45;ef2a&#45;466e&#45;b8a5&#45;d24f48b13afe :Customer</text>
<polygon fill="none" stroke="black" points="1250,-4 1250,-65 1465,-65 1465,-4 1250,-4"/>
<text text-anchor="start" x="1262" y="-54" font-family="Times,serif" font-size="10.00">email = &quot;john@doe.ee&quot;</text>
<text text-anchor="start" x="1262" y="-43" font-family="Times,serif" font-size="10.00">firstName = &quot;John&quot;</text>
<text text-anchor="start" x="1262" y="-32" font-family="Times,serif" font-size="10.00">id = &quot;e2f7bc4c&#45;ef2a&#45;466e&#45;b8a5&#45;d24f48b13afe&quot;</text>
<text text-anchor="start" x="1262" y="-21" font-family="Times,serif" font-size="10.00">lastName = &quot;Doe&quot;</text>
<text text-anchor="start" x="1262" y="-10" font-family="Times,serif" font-size="10.00">password = &quot;pass1234&quot;</text>
</g>
<!-- b&#45;&gt;e2f7bc4c_ef2a_466e_b8a5_d24f48b13afe -->
<g id="edge11" class="edge">
<title>b&#45;&gt;e2f7bc4c_ef2a_466e_b8a5_d24f48b13afe</title>
<path fill="none" stroke="black" d="M1074.79,-265.97C1240.87,-252.31 1408.7,-236.91 1415,-230 1447.35,-194.54 1430.09,-167.57 1415,-122 1410.81,-109.34 1403.68,-97.07 1395.83,-86.15"/>
<text text-anchor="middle" x="1375.33" y="-89.15" font-family="Times,serif" font-size="10.00">customers</text>
<text text-anchor="middle" x="1064.29" y="-257.97" font-family="Times,serif" font-size="10.00">bank</text>
</g>
<!-- 1eaf6f4c_4f92_4e04_bd87_c82be03265de -->
<g id="node11" class="node">
<title>1eaf6f4c_4f92_4e04_bd87_c82be03265de</title>
<polygon fill="none" stroke="black" points="892,-65 892,-82 1111,-82 1111,-65 892,-65"/>
<text text-anchor="start" x="895" y="-72" font-family="Times,serif" text-decoration="underline" font-size="10.00">1eaf6f4c&#45;4f92&#45;4e04&#45;bd87&#45;c82be03265de :Customer</text>
<polygon fill="none" stroke="black" points="892,-4 892,-65 1111,-65 1111,-4 892,-4"/>
<text text-anchor="start" x="904" y="-54" font-family="Times,serif" font-size="10.00">email = &quot;bobby@tt.ee&quot;</text>
<text text-anchor="start" x="904" y="-43" font-family="Times,serif" font-size="10.00">firstName = &quot;Bob&quot;</text>
<text text-anchor="start" x="904" y="-32" font-family="Times,serif" font-size="10.00">id = &quot;1eaf6f4c&#45;4f92&#45;4e04&#45;bd87&#45;c82be03265de&quot;</text>
<text text-anchor="start" x="904" y="-21" font-family="Times,serif" font-size="10.00">lastName = &quot;Jackson&quot;</text>
<text text-anchor="start" x="904" y="-10" font-family="Times,serif" font-size="10.00">password = &quot;secret&quot;</text>
</g>
<!-- b&#45;&gt;1eaf6f4c_4f92_4e04_bd87_c82be03265de -->
<g id="edge12" class="edge">
<title>b&#45;&gt;1eaf6f4c_4f92_4e04_bd87_c82be03265de</title>
<path fill="none" stroke="black" d="M1030.21,-265.94C1066.62,-257.25 1095.81,-245.6 1109,-230 1139.99,-193.34 1130.85,-164.74 1109,-122 1101.95,-108.2 1091.19,-96.28 1079.14,-86.21"/>
<text text-anchor="middle" x="1058.64" y="-89.21" font-family="Times,serif" font-size="10.00">customers</text>
<text text-anchor="middle" x="1019.71" y="-257.94" font-family="Times,serif" font-size="10.00">bank</text>
</g>
<!-- b3d26ef4_38d9_4d2a_8408_2297a1037909 -->
<g id="node12" class="node">
<title>b3d26ef4_38d9_4d2a_8408_2297a1037909</title>
<polygon fill="none" stroke="black" points="216,-65 216,-82 442,-82 442,-65 216,-65"/>
<text text-anchor="start" x="219" y="-72" font-family="Times,serif" text-decoration="underline" font-size="10.00">b3d26ef4&#45;38d9&#45;4d2a&#45;8408&#45;2297a1037909 :Customer</text>
<polygon fill="none" stroke="black" points="216,-4 216,-65 442,-65 442,-4 216,-4"/>
<text text-anchor="start" x="228" y="-54" font-family="Times,serif" font-size="10.00">email = &quot;johntest@doe.ee&quot;</text>
<text text-anchor="start" x="228" y="-43" font-family="Times,serif" font-size="10.00">firstName = &quot;johntest&quot;</text>
<text text-anchor="start" x="228" y="-32" font-family="Times,serif" font-size="10.00">id = &quot;b3d26ef4&#45;38d9&#45;4d2a&#45;8408&#45;2297a1037909&quot;</text>
<text text-anchor="start" x="228" y="-21" font-family="Times,serif" font-size="10.00">lastName = &quot;Doe&quot;</text>
<text text-anchor="start" x="228" y="-10" font-family="Times,serif" font-size="10.00">password = &quot;pass1234&quot;</text>
</g>
<!-- b&#45;&gt;b3d26ef4_38d9_4d2a_8408_2297a1037909 -->
<g id="edge13" class="edge">
<title>b&#45;&gt;b3d26ef4_38d9_4d2a_8408_2297a1037909</title>
<path fill="none" stroke="black" d="M694.4,-265.93C679.42,-256.35 664.07,-244.27 653,-230 621.8,-189.8 652.25,-156.66 615,-122 602.19,-110.08 522.27,-88.81 450.17,-71.49"/>
<text text-anchor="middle" x="470.67" y="-74.49" font-family="Times,serif" font-size="10.00">customers</text>
<text text-anchor="middle" x="704.9" y="-257.93" font-family="Times,serif" font-size="10.00">bank</text>
</g>
<!-- 6652e633_df83_435c_9557_3e2006ec4ab6&#45;&gt;c -->
<g id="edge14" class="edge">
<title>6652e633_df83_435c_9557_3e2006ec4ab6&#45;&gt;c</title>
<path fill="none" stroke="black" d="M284.21,-125.98C288.85,-124.61 293.46,-123.28 298,-122 368.59,-102.18 387.89,-103.89 459,-86 485.75,-79.27 515,-71.23 540.5,-64"/>
<text text-anchor="middle" x="558.5" y="-67" font-family="Times,serif" font-size="10.00">currency</text>
</g>
<!-- 6652e633_df83_435c_9557_3e2006ec4ab6&#45;&gt;b3d26ef4_38d9_4d2a_8408_2297a1037909 -->
<g id="edge15" class="edge">
<title>6652e633_df83_435c_9557_3e2006ec4ab6&#45;&gt;b3d26ef4_38d9_4d2a_8408_2297a1037909</title>
<path fill="none" stroke="black" d="M217.79,-121.91C234.8,-109.99 252.62,-97.51 268.89,-86.11"/>
<text text-anchor="middle" x="255.89" y="-89.11" font-family="Times,serif" font-size="10.00">owner</text>
<text text-anchor="middle" x="201.29" y="-113.91" font-family="Times,serif" font-size="10.00">account</text>
</g>
<!-- sendItToTheBank&#45;&gt;c -->
<g id="edge16" class="edge">
<title>sendItToTheBank&#45;&gt;c</title>
<path fill="none" stroke="black" d="M528.32,-121.72C549.35,-101.46 572.06,-79.58 588.01,-64.22"/>
<text text-anchor="middle" x="606.01" y="-67.22" font-family="Times,serif" font-size="10.00">currency</text>
</g>
<!-- sendItToTheBank1&#45;&gt;c -->
<g id="edge17" class="edge">
<title>sendItToTheBank1&#45;&gt;c</title>
<path fill="none" stroke="black" d="M689.68,-121.72C668.65,-101.46 645.94,-79.58 629.99,-64.22"/>
<text text-anchor="middle" x="647.99" y="-67.22" font-family="Times,serif" font-size="10.00">currency</text>
</g>
<!-- 8a633aa5_907c_4e57_a313_22e0adb2672e&#45;&gt;c -->
<g id="edge18" class="edge">
<title>8a633aa5_907c_4e57_a313_22e0adb2672e&#45;&gt;c</title>
<path fill="none" stroke="black" d="M845.81,-125.61C842.51,-124.38 839.23,-123.18 836,-122 779.83,-101.49 715.3,-79.47 669.44,-64.07"/>
<text text-anchor="middle" x="687.44" y="-67.07" font-family="Times,serif" font-size="10.00">currency</text>
</g>
<!-- 8a633aa5_907c_4e57_a313_22e0adb2672e&#45;&gt;1eaf6f4c_4f92_4e04_bd87_c82be03265de -->
<g id="edge19" class="edge">
<title>8a633aa5_907c_4e57_a313_22e0adb2672e&#45;&gt;1eaf6f4c_4f92_4e04_bd87_c82be03265de</title>
<path fill="none" stroke="black" d="M984.39,-121.72C986.9,-109.96 989.53,-97.66 991.94,-86.4"/>
<text text-anchor="middle" x="978.94" y="-89.4" font-family="Times,serif" font-size="10.00">owner</text>
<text text-anchor="middle" x="967.89" y="-113.72" font-family="Times,serif" font-size="10.00">account</text>
</g>
<!-- 7ec351d6_652f_4691_8e72_ea432d44a0c8&#45;&gt;c -->
<g id="edge20" class="edge">
<title>7ec351d6_652f_4691_8e72_ea432d44a0c8&#45;&gt;c</title>
<path fill="none" stroke="black" d="M1155.7,-134.07C1140.07,-129.65 1124.23,-125.5 1109,-122 1006.45,-98.44 978.97,-102.21 875,-86 816.45,-76.87 750.67,-66.49 699.17,-58.33"/>
<text text-anchor="middle" x="717.17" y="-50.33" font-family="Times,serif" font-size="10.00">currency</text>
</g>
<!-- 7ec351d6_652f_4691_8e72_ea432d44a0c8&#45;&gt;e2f7bc4c_ef2a_466e_b8a5_d24f48b13afe -->
<g id="edge21" class="edge">
<title>7ec351d6_652f_4691_8e72_ea432d44a0c8&#45;&gt;e2f7bc4c_ef2a_466e_b8a5_d24f48b13afe</title>
<path fill="none" stroke="black" d="M1311.91,-121.72C1318.73,-109.96 1325.87,-97.66 1332.4,-86.4"/>
<text text-anchor="middle" x="1319.4" y="-89.4" font-family="Times,serif" font-size="10.00">owner</text>
<text text-anchor="middle" x="1295.41" y="-113.72" font-family="Times,serif" font-size="10.00">account</text>
</g>
</g>
</svg>
