<?xml version="1.0" encoding="UTF-8" standalone="no"?>
<!DOCTYPE svg PUBLIC "-//W3C//DTD SVG 1.1//EN"
 "http://www.w3.org/Graphics/SVG/1.1/DTD/svg11.dtd">
<!-- Generated by graphviz version 2.49.3 (20211023.0002)
 -->
<!-- Title: model Pages: 1 -->
<svg width="2204px" height="327px"
 viewBox="0.00 0.00 2203.50 327.00" xmlns="http://www.w3.org/2000/svg" xmlns:xlink="http://www.w3.org/1999/xlink">
<g id="graph0" class="graph" transform="scale(1.0 1.0) rotate(0) translate(4 323)">
<title>model</title>
<polygon fill="white" stroke="transparent" points="-4,4 -4,-323 2199.5,-323 2199.5,4 -4,4"/>
<!-- b -->
<g id="node1" class="node">
<title>b</title>
<polygon fill="none" stroke="black" points="155,-297.5 155,-314.5 800,-314.5 800,-297.5 155,-297.5"/>
<text text-anchor="start" x="461.5" y="-304.5" font-family="Times,serif" text-decoration="underline" font-size="10.00">b :Bank</text>
<polygon fill="none" stroke="black" points="155,-269.5 155,-297.5 800,-297.5 800,-269.5 155,-269.5"/>
<text text-anchor="start" x="158" y="-286.5" font-family="Times,serif" font-size="10.00">accountsMap = 008ed27a&#45;330f&#45;46ef&#45;a3db&#45;4d289214537asendItToTheBank8a633aa5&#45;907c&#45;4e57&#45;a313&#45;22e0adb2672e7ec351d6&#45;652f&#45;4691&#45;8e72&#45;ea432d44a0c8</text>
<text text-anchor="start" x="158" y="-275.5" font-family="Times,serif" font-size="10.00">customerMap = e2f7bc4c&#45;ef2a&#45;466e&#45;b8a5&#45;d24f48b13afe1eaf6f4c&#45;4f92&#45;4e04&#45;bd87&#45;c82be03265de247e548c&#45;31e6&#45;44d3&#45;92dd&#45;0e6657d00b3b</text>
</g>
<!-- sendItToTheBank -->
<g id="node3" class="node">
<title>sendItToTheBank</title>
<polygon fill="none" stroke="black" points="935,-209 935,-226 1080,-226 1080,-209 935,-209"/>
<text text-anchor="start" x="952" y="-216" font-family="Times,serif" text-decoration="underline" font-size="10.00">sendItToTheBank :Account</text>
<polygon fill="none" stroke="black" points="935,-126 935,-209 1080,-209 1080,-126 935,-126"/>
<text text-anchor="start" x="938" y="-198" font-family="Times,serif" font-size="10.00">balance = 69420.0</text>
<text text-anchor="start" x="938" y="-187" font-family="Times,serif" font-size="10.00">customerId = null</text>
<text text-anchor="start" x="938" y="-176" font-family="Times,serif" font-size="10.00">iban = &quot;EE325301464563189465&quot;</text>
<text text-anchor="start" x="938" y="-165" font-family="Times,serif" font-size="10.00">id = &quot;sendItToTheBank&quot;</text>
<text text-anchor="start" x="938" y="-154" font-family="Times,serif" font-size="10.00">receivedTransaction = </text>
<text text-anchor="start" x="938" y="-143" font-family="Times,serif" font-size="10.00">sentTransaction = </text>
<text text-anchor="start" x="938" y="-132" font-family="Times,serif" font-size="10.00">status = &quot;ACTIVE&quot;</text>
</g>
<!-- b&#45;&gt;sendItToTheBank -->
<g id="edge1" class="edge">
<title>b&#45;&gt;sendItToTheBank</title>
<path fill="none" stroke="black" d="M775.46,-265.99C823.55,-257.28 872.21,-245.62 917,-230 920.08,-228.93 923.18,-227.74 926.26,-226.46"/>
<text text-anchor="middle" x="899.26" y="-229.46" font-family="Times,serif" font-size="10.00">bankAccount</text>
<text text-anchor="middle" x="765.46" y="-257.99" font-family="Times,serif" font-size="10.00">bank</text>
</g>
<!-- 8a633aa5_907c_4e57_a313_22e0adb2672e -->
<g id="node4" class="node">
<title>8a633aa5_907c_4e57_a313_22e0adb2672e</title>
<polygon fill="none" stroke="black" points="666,-209 666,-226 901,-226 901,-209 666,-209"/>
<text text-anchor="start" x="679.5" y="-216" font-family="Times,serif" text-decoration="underline" font-size="10.00">8a633aa5&#45;907c&#45;4e57&#45;a313&#45;22e0adb2672e :Account</text>
<polygon fill="none" stroke="black" points="666,-126 666,-209 901,-209 901,-126 666,-126"/>
<text text-anchor="start" x="669" y="-198" font-family="Times,serif" font-size="10.00">balance = 0.0</text>
<text text-anchor="start" x="669" y="-187" font-family="Times,serif" font-size="10.00">customerId = &quot;1eaf6f4c&#45;4f92&#45;4e04&#45;bd87&#45;c82be03265de&quot;</text>
<text text-anchor="start" x="669" y="-176" font-family="Times,serif" font-size="10.00">iban = null</text>
<text text-anchor="start" x="669" y="-165" font-family="Times,serif" font-size="10.00">id = &quot;8a633aa5&#45;907c&#45;4e57&#45;a313&#45;22e0adb2672e&quot;</text>
<text text-anchor="start" x="669" y="-154" font-family="Times,serif" font-size="10.00">receivedTransaction = </text>
<text text-anchor="start" x="669" y="-143" font-family="Times,serif" font-size="10.00">sentTransaction = </text>
<text text-anchor="start" x="669" y="-132" font-family="Times,serif" font-size="10.00">status = &quot;ACTIVE&quot;</text>
</g>
<!-- b&#45;&gt;8a633aa5_907c_4e57_a313_22e0adb2672e -->
<g id="edge2" class="edge">
<title>b&#45;&gt;8a633aa5_907c_4e57_a313_22e0adb2672e</title>
<path fill="none" stroke="black" d="M546.5,-265.88C576.24,-254.88 611.34,-241.86 643,-230 647.75,-228.22 652.58,-226.41 657.46,-224.57"/>
<text text-anchor="middle" x="639.96" y="-227.57" font-family="Times,serif" font-size="10.00">accounts</text>
<text text-anchor="middle" x="536.5" y="-257.88" font-family="Times,serif" font-size="10.00">bank</text>
</g>
<!-- 7ec351d6_652f_4691_8e72_ea432d44a0c8 -->
<g id="node5" class="node">
<title>7ec351d6_652f_4691_8e72_ea432d44a0c8</title>
<polygon fill="none" stroke="black" points="361,-209 361,-226 593,-226 593,-209 361,-209"/>
<text text-anchor="start" x="373.5" y="-216" font-family="Times,serif" text-decoration="underline" font-size="10.00">7ec351d6&#45;652f&#45;4691&#45;8e72&#45;ea432d44a0c8 :Account</text>
<polygon fill="none" stroke="black" points="361,-126 361,-209 593,-209 593,-126 361,-126"/>
<text text-anchor="start" x="364" y="-198" font-family="Times,serif" font-size="10.00">balance = 100.0</text>
<text text-anchor="start" x="364" y="-187" font-family="Times,serif" font-size="10.00">customerId = &quot;e2f7bc4c&#45;ef2a&#45;466e&#45;b8a5&#45;d24f48b13afe&quot;</text>
<text text-anchor="start" x="364" y="-176" font-family="Times,serif" font-size="10.00">iban = null</text>
<text text-anchor="start" x="364" y="-165" font-family="Times,serif" font-size="10.00">id = &quot;7ec351d6&#45;652f&#45;4691&#45;8e72&#45;ea432d44a0c8&quot;</text>
<text text-anchor="start" x="364" y="-154" font-family="Times,serif" font-size="10.00">receivedTransaction = </text>
<text text-anchor="start" x="364" y="-143" font-family="Times,serif" font-size="10.00">sentTransaction = </text>
<text text-anchor="start" x="364" y="-132" font-family="Times,serif" font-size="10.00">status = &quot;ACTIVE&quot;</text>
</g>
<!-- b&#45;&gt;7ec351d6_652f_4691_8e72_ea432d44a0c8 -->
<g id="edge3" class="edge">
<title>b&#45;&gt;7ec351d6_652f_4691_8e72_ea432d44a0c8</title>
<path fill="none" stroke="black" d="M477,-265.8C477,-255.25 477,-242.63 477,-230.25"/>
<text text-anchor="middle" x="459.5" y="-233.25" font-family="Times,serif" font-size="10.00">accounts</text>
<text text-anchor="middle" x="467" y="-257.8" font-family="Times,serif" font-size="10.00">bank</text>
</g>
<!-- 008ed27a_330f_46ef_a3db_4d289214537a -->
<g id="node6" class="node">
<title>008ed27a_330f_46ef_a3db_4d289214537a</title>
<polygon fill="none" stroke="black" points="76,-209 76,-226 289,-226 289,-209 76,-209"/>
<text text-anchor="start" x="79" y="-216" font-family="Times,serif" text-decoration="underline" font-size="10.00">008ed27a&#45;330f&#45;46ef&#45;a3db&#45;4d289214537a :Account</text>
<polygon fill="none" stroke="black" points="76,-126 76,-209 289,-209 289,-126 76,-126"/>
<text text-anchor="start" x="85.5" y="-198" font-family="Times,serif" font-size="10.00">balance = 100.0</text>
<text text-anchor="start" x="85.5" y="-187" font-family="Times,serif" font-size="10.00">customerId = null</text>
<text text-anchor="start" x="85.5" y="-176" font-family="Times,serif" font-size="10.00">iban = &quot;EE811733748672159996&quot;</text>
<text text-anchor="start" x="85.5" y="-165" font-family="Times,serif" font-size="10.00">id = &quot;008ed27a&#45;330f&#45;46ef&#45;a3db&#45;4d289214537a&quot;</text>
<text text-anchor="start" x="85.5" y="-154" font-family="Times,serif" font-size="10.00">receivedTransaction = </text>
<text text-anchor="start" x="85.5" y="-143" font-family="Times,serif" font-size="10.00">sentTransaction = </text>
<text text-anchor="start" x="85.5" y="-132" font-family="Times,serif" font-size="10.00">status = &quot;ACTIVE&quot;</text>
</g>
<!-- b&#45;&gt;008ed27a_330f_46ef_a3db_4d289214537a -->
<g id="edge4" class="edge">
<title>b&#45;&gt;008ed27a_330f_46ef_a3db_4d289214537a</title>
<path fill="none" stroke="black" d="M406.11,-265.86C376.61,-255.03 342.06,-242.13 311,-230 306.26,-228.15 301.44,-226.25 296.57,-224.31"/>
<text text-anchor="middle" x="314.07" y="-227.31" font-family="Times,serif" font-size="10.00">accounts</text>
<text text-anchor="middle" x="396.11" y="-257.86" font-family="Times,serif" font-size="10.00">bank</text>
</g>
<!-- e2f7bc4c_ef2a_466e_b8a5_d24f48b13afe -->
<g id="node7" class="node">
<title>e2f7bc4c_ef2a_466e_b8a5_d24f48b13afe</title>
<polygon fill="none" stroke="black" points="281,-65 281,-82 493,-82 493,-65 281,-65"/>
<text text-anchor="start" x="284" y="-72" font-family="Times,serif" text-decoration="underline" font-size="10.00">e2f7bc4c&#45;ef2a&#45;466e&#45;b8a5&#45;d24f48b13afe :Customer</text>
<polygon fill="none" stroke="black" points="281,-4 281,-65 493,-65 493,-4 281,-4"/>
<text text-anchor="start" x="292.5" y="-54" font-family="Times,serif" font-size="10.00">email = &quot;john@doe.ee&quot;</text>
<text text-anchor="start" x="292.5" y="-43" font-family="Times,serif" font-size="10.00">firstName = &quot;John&quot;</text>
<text text-anchor="start" x="292.5" y="-32" font-family="Times,serif" font-size="10.00">id = &quot;e2f7bc4c&#45;ef2a&#45;466e&#45;b8a5&#45;d24f48b13afe&quot;</text>
<text text-anchor="start" x="292.5" y="-21" font-family="Times,serif" font-size="10.00">lastName = &quot;Doe&quot;</text>
<text text-anchor="start" x="292.5" y="-10" font-family="Times,serif" font-size="10.00">password = &quot;pass1234&quot;</text>
</g>
<!-- b&#45;&gt;e2f7bc4c_ef2a_466e_b8a5_d24f48b13afe -->
<g id="edge5" class="edge">
<title>b&#45;&gt;e2f7bc4c_ef2a_466e_b8a5_d24f48b13afe</title>
<path fill="none" stroke="black" d="M385.27,-265.96C368.91,-257.21 353.93,-245.54 344,-230 315.97,-186.16 338.49,-126.13 360.11,-86.27"/>
<text text-anchor="middle" x="339.61" y="-89.27" font-family="Times,serif" font-size="10.00">customers</text>
<text text-anchor="middle" x="375.27" y="-257.96" font-family="Times,serif" font-size="10.00">bank</text>
</g>
<!-- 1eaf6f4c_4f92_4e04_bd87_c82be03265de -->
<g id="node8" class="node">
<title>1eaf6f4c_4f92_4e04_bd87_c82be03265de</title>
<polygon fill="none" stroke="black" points="599,-65 599,-82 814,-82 814,-65 599,-65"/>
<text text-anchor="start" x="602" y="-72" font-family="Times,serif" text-decoration="underline" font-size="10.00">1eaf6f4c&#45;4f92&#45;4e04&#45;bd87&#45;c82be03265de :Customer</text>
<polygon fill="none" stroke="black" points="599,-4 599,-65 814,-65 814,-4 599,-4"/>
<text text-anchor="start" x="611" y="-54" font-family="Times,serif" font-size="10.00">email = &quot;bobby@tt.ee&quot;</text>
<text text-anchor="start" x="611" y="-43" font-family="Times,serif" font-size="10.00">firstName = &quot;Bob&quot;</text>
<text text-anchor="start" x="611" y="-32" font-family="Times,serif" font-size="10.00">id = &quot;1eaf6f4c&#45;4f92&#45;4e04&#45;bd87&#45;c82be03265de&quot;</text>
<text text-anchor="start" x="611" y="-21" font-family="Times,serif" font-size="10.00">lastName = &quot;Jackson&quot;</text>
<text text-anchor="start" x="611" y="-10" font-family="Times,serif" font-size="10.00">password = &quot;secret&quot;</text>
</g>
<!-- b&#45;&gt;1eaf6f4c_4f92_4e04_bd87_c82be03265de -->
<g id="edge6" class="edge">
<title>b&#45;&gt;1eaf6f4c_4f92_4e04_bd87_c82be03265de</title>
<path fill="none" stroke="black" d="M559.05,-265.95C577.73,-257 596.14,-245.24 610,-230 644.24,-192.35 624.1,-166.92 648,-122 654.5,-109.78 662.78,-97.39 671.05,-86.19"/>
<text text-anchor="middle" x="650.55" y="-89.19" font-family="Times,serif" font-size="10.00">customers</text>
<text text-anchor="middle" x="569.05" y="-257.95" font-family="Times,serif" font-size="10.00">bank</text>
</g>
<!-- 247e548c_31e6_44d3_92dd_0e6657d00b3b -->
<g id="node9" class="node">
<title>247e548c_31e6_44d3_92dd_0e6657d00b3b</title>
<polygon fill="none" stroke="black" points="8,-65 8,-82 230,-82 230,-65 8,-65"/>
<text text-anchor="start" x="11" y="-72" font-family="Times,serif" text-decoration="underline" font-size="10.00">247e548c&#45;31e6&#45;44d3&#45;92dd&#45;0e6657d00b3b :Customer</text>
<polygon fill="none" stroke="black" points="8,-4 8,-65 230,-65 230,-4 8,-4"/>
<text text-anchor="start" x="20" y="-54" font-family="Times,serif" font-size="10.00">email = &quot;johntest@doe.ee&quot;</text>
<text text-anchor="start" x="20" y="-43" font-family="Times,serif" font-size="10.00">firstName = &quot;johntest&quot;</text>
<text text-anchor="start" x="20" y="-32" font-family="Times,serif" font-size="10.00">id = &quot;247e548c&#45;31e6&#45;44d3&#45;92dd&#45;0e6657d00b3b&quot;</text>
<text text-anchor="start" x="20" y="-21" font-family="Times,serif" font-size="10.00">lastName = &quot;Doe&quot;</text>
<text text-anchor="start" x="20" y="-10" font-family="Times,serif" font-size="10.00">password = &quot;pass1234&quot;</text>
</g>
<!-- b&#45;&gt;247e548c_31e6_44d3_92dd_0e6657d00b3b -->
<g id="edge7" class="edge">
<title>b&#45;&gt;247e548c_31e6_44d3_92dd_0e6657d00b3b</title>
<path fill="none" stroke="black" d="M146.47,-269.01C105.68,-259.95 73.02,-247.39 58,-230 26.62,-193.68 42.36,-167.38 58,-122 62.37,-109.32 69.74,-97.13 77.87,-86.3"/>
<text text-anchor="middle" x="57.37" y="-89.3" font-family="Times,serif" font-size="10.00">customers</text>
<text text-anchor="middle" x="136.47" y="-272.01" font-family="Times,serif" font-size="10.00">bank</text>
</g>
<!-- b1 -->
<g id="node2" class="node">
<title>b1</title>
<polygon fill="none" stroke="black" points="1395,-297.5 1395,-314.5 2037,-314.5 2037,-297.5 1395,-297.5"/>
<text text-anchor="start" x="1697.5" y="-304.5" font-family="Times,serif" text-decoration="underline" font-size="10.00">b1 :Bank</text>
<polygon fill="none" stroke="black" points="1395,-269.5 1395,-297.5 2037,-297.5 2037,-269.5 1395,-269.5"/>
<text text-anchor="start" x="1398" y="-286.5" font-family="Times,serif" font-size="10.00">accountsMap = f19a5869&#45;4e64&#45;4522&#45;a38a&#45;3fd0cd42fe8csendItToTheBank8a633aa5&#45;907c&#45;4e57&#45;a313&#45;22e0adb2672e7ec351d6&#45;652f&#45;4691&#45;8e72&#45;ea432d44a0c8</text>
<text text-anchor="start" x="1398" y="-275.5" font-family="Times,serif" font-size="10.00">customerMap = e2f7bc4c&#45;ef2a&#45;466e&#45;b8a5&#45;d24f48b13afe1eaf6f4c&#45;4f92&#45;4e04&#45;bd87&#45;c82be03265deea7c1de1&#45;1a74&#45;4284&#45;8cb9&#45;eb69f828f802</text>
</g>
<!-- sendItToTheBank2 -->
<g id="node10" class="node">
<title>sendItToTheBank2</title>
<polygon fill="none" stroke="black" points="1114,-209 1114,-226 1259,-226 1259,-209 1114,-209"/>
<text text-anchor="start" x="1131" y="-216" font-family="Times,serif" text-decoration="underline" font-size="10.00">sendItToTheBank :Account</text>
<polygon fill="none" stroke="black" points="1114,-126 1114,-209 1259,-209 1259,-126 1114,-126"/>
<text text-anchor="start" x="1117" y="-198" font-family="Times,serif" font-size="10.00">balance = 69420.0</text>
<text text-anchor="start" x="1117" y="-187" font-family="Times,serif" font-size="10.00">customerId = null</text>
<text text-anchor="start" x="1117" y="-176" font-family="Times,serif" font-size="10.00">iban = &quot;EE923417314363450225&quot;</text>
<text text-anchor="start" x="1117" y="-165" font-family="Times,serif" font-size="10.00">id = &quot;sendItToTheBank&quot;</text>
<text text-anchor="start" x="1117" y="-154" font-family="Times,serif" font-size="10.00">receivedTransaction = </text>
<text text-anchor="start" x="1117" y="-143" font-family="Times,serif" font-size="10.00">sentTransaction = </text>
<text text-anchor="start" x="1117" y="-132" font-family="Times,serif" font-size="10.00">status = &quot;ACTIVE&quot;</text>
</g>
<!-- b1&#45;&gt;sendItToTheBank2 -->
<g id="edge8" class="edge">
<title>b1&#45;&gt;sendItToTheBank2</title>
<path fill="none" stroke="black" d="M1415.33,-265.96C1367.62,-257.25 1319.4,-245.6 1275,-230 1272.2,-229.02 1269.39,-227.94 1266.59,-226.79"/>
<text text-anchor="middle" x="1293.59" y="-229.79" font-family="Times,serif" font-size="10.00">bankAccount</text>
<text text-anchor="middle" x="1405.33" y="-257.96" font-family="Times,serif" font-size="10.00">bank</text>
</g>
<!-- 8a633aa5_907c_4e57_a313_22e0adb2672e3 -->
<g id="node11" class="node">
<title>8a633aa5_907c_4e57_a313_22e0adb2672e3</title>
<polygon fill="none" stroke="black" points="1293,-209 1293,-226 1528,-226 1528,-209 1293,-209"/>
<text text-anchor="start" x="1306.5" y="-216" font-family="Times,serif" text-decoration="underline" font-size="10.00">8a633aa5&#45;907c&#45;4e57&#45;a313&#45;22e0adb2672e :Account</text>
<polygon fill="none" stroke="black" points="1293,-126 1293,-209 1528,-209 1528,-126 1293,-126"/>
<text text-anchor="start" x="1296" y="-198" font-family="Times,serif" font-size="10.00">balance = 0.0</text>
<text text-anchor="start" x="1296" y="-187" font-family="Times,serif" font-size="10.00">customerId = &quot;1eaf6f4c&#45;4f92&#45;4e04&#45;bd87&#45;c82be03265de&quot;</text>
<text text-anchor="start" x="1296" y="-176" font-family="Times,serif" font-size="10.00">iban = null</text>
<text text-anchor="start" x="1296" y="-165" font-family="Times,serif" font-size="10.00">id = &quot;8a633aa5&#45;907c&#45;4e57&#45;a313&#45;22e0adb2672e&quot;</text>
<text text-anchor="start" x="1296" y="-154" font-family="Times,serif" font-size="10.00">receivedTransaction = </text>
<text text-anchor="start" x="1296" y="-143" font-family="Times,serif" font-size="10.00">sentTransaction = </text>
<text text-anchor="start" x="1296" y="-132" font-family="Times,serif" font-size="10.00">status = &quot;ACTIVE&quot;</text>
</g>
<!-- b1&#45;&gt;8a633aa5_907c_4e57_a313_22e0adb2672e3 -->
<g id="edge9" class="edge">
<title>b1&#45;&gt;8a633aa5_907c_4e57_a313_22e0adb2672e3</title>
<path fill="none" stroke="black" d="M1646.5,-265.88C1616.76,-254.88 1581.66,-241.86 1550,-230 1545.25,-228.22 1540.42,-226.41 1535.54,-224.57"/>
<text text-anchor="middle" x="1553.04" y="-227.57" font-family="Times,serif" font-size="10.00">accounts</text>
<text text-anchor="middle" x="1636.5" y="-257.88" font-family="Times,serif" font-size="10.00">bank</text>
</g>
<!-- 7ec351d6_652f_4691_8e72_ea432d44a0c84 -->
<g id="node12" class="node">
<title>7ec351d6_652f_4691_8e72_ea432d44a0c84</title>
<polygon fill="none" stroke="black" points="1600,-209 1600,-226 1832,-226 1832,-209 1600,-209"/>
<text text-anchor="start" x="1612.5" y="-216" font-family="Times,serif" text-decoration="underline" font-size="10.00">7ec351d6&#45;652f&#45;4691&#45;8e72&#45;ea432d44a0c8 :Account</text>
<polygon fill="none" stroke="black" points="1600,-126 1600,-209 1832,-209 1832,-126 1600,-126"/>
<text text-anchor="start" x="1603" y="-198" font-family="Times,serif" font-size="10.00">balance = 100.0</text>
<text text-anchor="start" x="1603" y="-187" font-family="Times,serif" font-size="10.00">customerId = &quot;e2f7bc4c&#45;ef2a&#45;466e&#45;b8a5&#45;d24f48b13afe&quot;</text>
<text text-anchor="start" x="1603" y="-176" font-family="Times,serif" font-size="10.00">iban = null</text>
<text text-anchor="start" x="1603" y="-165" font-family="Times,serif" font-size="10.00">id = &quot;7ec351d6&#45;652f&#45;4691&#45;8e72&#45;ea432d44a0c8&quot;</text>
<text text-anchor="start" x="1603" y="-154" font-family="Times,serif" font-size="10.00">receivedTransaction = </text>
<text text-anchor="start" x="1603" y="-143" font-family="Times,serif" font-size="10.00">sentTransaction = </text>
<text text-anchor="start" x="1603" y="-132" font-family="Times,serif" font-size="10.00">status = &quot;ACTIVE&quot;</text>
</g>
<!-- b1&#45;&gt;7ec351d6_652f_4691_8e72_ea432d44a0c84 -->
<g id="edge10" class="edge">
<title>b1&#45;&gt;7ec351d6_652f_4691_8e72_ea432d44a0c84</title>
<path fill="none" stroke="black" d="M1716,-265.8C1716,-255.25 1716,-242.63 1716,-230.25"/>
<text text-anchor="middle" x="1698.5" y="-233.25" font-family="Times,serif" font-size="10.00">accounts</text>
<text text-anchor="middle" x="1706" y="-257.8" font-family="Times,serif" font-size="10.00">bank</text>
</g>
<!-- f19a5869_4e64_4522_a38a_3fd0cd42fe8c -->
<g id="node13" class="node">
<title>f19a5869_4e64_4522_a38a_3fd0cd42fe8c</title>
<polygon fill="none" stroke="black" points="1904,-209 1904,-226 2114,-226 2114,-209 1904,-209"/>
<text text-anchor="start" x="1907" y="-216" font-family="Times,serif" text-decoration="underline" font-size="10.00">f19a5869&#45;4e64&#45;4522&#45;a38a&#45;3fd0cd42fe8c :Account</text>
<polygon fill="none" stroke="black" points="1904,-126 1904,-209 2114,-209 2114,-126 1904,-126"/>
<text text-anchor="start" x="1913.5" y="-198" font-family="Times,serif" font-size="10.00">balance = 0.0</text>
<text text-anchor="start" x="1913.5" y="-187" font-family="Times,serif" font-size="10.00">customerId = null</text>
<text text-anchor="start" x="1913.5" y="-176" font-family="Times,serif" font-size="10.00">iban = &quot;EE215875812282579347&quot;</text>
<text text-anchor="start" x="1913.5" y="-165" font-family="Times,serif" font-size="10.00">id = &quot;f19a5869&#45;4e64&#45;4522&#45;a38a&#45;3fd0cd42fe8c&quot;</text>
<text text-anchor="start" x="1913.5" y="-154" font-family="Times,serif" font-size="10.00">receivedTransaction = </text>
<text text-anchor="start" x="1913.5" y="-143" font-family="Times,serif" font-size="10.00">sentTransaction = </text>
<text text-anchor="start" x="1913.5" y="-132" font-family="Times,serif" font-size="10.00">status = &quot;ACTIVE&quot;</text>
</g>
<!-- b1&#45;&gt;f19a5869_4e64_4522_a38a_3fd0cd42fe8c -->
<g id="edge11" class="edge">
<title>b1&#45;&gt;f19a5869_4e64_4522_a38a_3fd0cd42fe8c</title>
<path fill="none" stroke="black" d="M1786.92,-265.94C1816.43,-255.12 1850.97,-242.22 1882,-230 1886.56,-228.21 1891.2,-226.36 1895.88,-224.48"/>
<text text-anchor="middle" x="1878.38" y="-227.48" font-family="Times,serif" font-size="10.00">accounts</text>
<text text-anchor="middle" x="1776.92" y="-257.94" font-family="Times,serif" font-size="10.00">bank</text>
</g>
<!-- e2f7bc4c_ef2a_466e_b8a5_d24f48b13afe5 -->
<g id="node14" class="node">
<title>e2f7bc4c_ef2a_466e_b8a5_d24f48b13afe5</title>
<polygon fill="none" stroke="black" points="1632,-65 1632,-82 1844,-82 1844,-65 1632,-65"/>
<text text-anchor="start" x="1635" y="-72" font-family="Times,serif" text-decoration="underline" font-size="10.00">e2f7bc4c&#45;ef2a&#45;466e&#45;b8a5&#45;d24f48b13afe :Customer</text>
<polygon fill="none" stroke="black" points="1632,-4 1632,-65 1844,-65 1844,-4 1632,-4"/>
<text text-anchor="start" x="1643.5" y="-54" font-family="Times,serif" font-size="10.00">email = &quot;john@doe.ee&quot;</text>
<text text-anchor="start" x="1643.5" y="-43" font-family="Times,serif" font-size="10.00">firstName = &quot;John&quot;</text>
<text text-anchor="start" x="1643.5" y="-32" font-family="Times,serif" font-size="10.00">id = &quot;e2f7bc4c&#45;ef2a&#45;466e&#45;b8a5&#45;d24f48b13afe&quot;</text>
<text text-anchor="start" x="1643.5" y="-21" font-family="Times,serif" font-size="10.00">lastName = &quot;Doe&quot;</text>
<text text-anchor="start" x="1643.5" y="-10" font-family="Times,serif" font-size="10.00">password = &quot;pass1234&quot;</text>
</g>
<!-- b1&#45;&gt;e2f7bc4c_ef2a_466e_b8a5_d24f48b13afe5 -->
<g id="edge12" class="edge">
<title>b1&#45;&gt;e2f7bc4c_ef2a_466e_b8a5_d24f48b13afe5</title>
<path fill="none" stroke="black" d="M1807.73,-265.96C1824.09,-257.21 1839.07,-245.54 1849,-230 1874.86,-189.56 1871.13,-164.6 1849,-122 1841.78,-108.1 1830.82,-96.16 1818.55,-86.1"/>
<text text-anchor="middle" x="1798.05" y="-89.1" font-family="Times,serif" font-size="10.00">customers</text>
<text text-anchor="middle" x="1797.73" y="-257.96" font-family="Times,serif" font-size="10.00">bank</text>
</g>
<!-- 1eaf6f4c_4f92_4e04_bd87_c82be03265de6 -->
<g id="node15" class="node">
<title>1eaf6f4c_4f92_4e04_bd87_c82be03265de6</title>
<polygon fill="none" stroke="black" points="1332,-65 1332,-82 1547,-82 1547,-65 1332,-65"/>
<text text-anchor="start" x="1335" y="-72" font-family="Times,serif" text-decoration="underline" font-size="10.00">1eaf6f4c&#45;4f92&#45;4e04&#45;bd87&#45;c82be03265de :Customer</text>
<polygon fill="none" stroke="black" points="1332,-4 1332,-65 1547,-65 1547,-4 1332,-4"/>
<text text-anchor="start" x="1344" y="-54" font-family="Times,serif" font-size="10.00">email = &quot;bobby@tt.ee&quot;</text>
<text text-anchor="start" x="1344" y="-43" font-family="Times,serif" font-size="10.00">firstName = &quot;Bob&quot;</text>
<text text-anchor="start" x="1344" y="-32" font-family="Times,serif" font-size="10.00">id = &quot;1eaf6f4c&#45;4f92&#45;4e04&#45;bd87&#45;c82be03265de&quot;</text>
<text text-anchor="start" x="1344" y="-21" font-family="Times,serif" font-size="10.00">lastName = &quot;Jackson&quot;</text>
<text text-anchor="start" x="1344" y="-10" font-family="Times,serif" font-size="10.00">password = &quot;secret&quot;</text>
</g>
<!-- b1&#45;&gt;1eaf6f4c_4f92_4e04_bd87_c82be03265de6 -->
<g id="edge13" class="edge">
<title>b1&#45;&gt;1eaf6f4c_4f92_4e04_bd87_c82be03265de6</title>
<path fill="none" stroke="black" d="M1633.95,-265.95C1615.27,-257 1596.86,-245.24 1583,-230 1548.76,-192.35 1575.28,-162.89 1545,-122 1535.07,-108.6 1522.19,-96.49 1508.84,-86.04"/>
<text text-anchor="middle" x="1488.34" y="-89.04" font-family="Times,serif" font-size="10.00">customers</text>
<text text-anchor="middle" x="1623.95" y="-257.95" font-family="Times,serif" font-size="10.00">bank</text>
</g>
<!-- ea7c1de1_1a74_4284_8cb9_eb69f828f802 -->
<g id="node16" class="node">
<title>ea7c1de1_1a74_4284_8cb9_eb69f828f802</title>
<polygon fill="none" stroke="black" points="1971,-65 1971,-82 2188,-82 2188,-65 1971,-65"/>
<text text-anchor="start" x="1974" y="-72" font-family="Times,serif" text-decoration="underline" font-size="10.00">ea7c1de1&#45;1a74&#45;4284&#45;8cb9&#45;eb69f828f802 :Customer</text>
<polygon fill="none" stroke="black" points="1971,-4 1971,-65 2188,-65 2188,-4 1971,-4"/>
<text text-anchor="start" x="1983" y="-54" font-family="Times,serif" font-size="10.00">email = &quot;bobbytest@tt.ee&quot;</text>
<text text-anchor="start" x="1983" y="-43" font-family="Times,serif" font-size="10.00">firstName = &quot;Bob&quot;</text>
<text text-anchor="start" x="1983" y="-32" font-family="Times,serif" font-size="10.00">id = &quot;ea7c1de1&#45;1a74&#45;4284&#45;8cb9&#45;eb69f828f802&quot;</text>
<text text-anchor="start" x="1983" y="-21" font-family="Times,serif" font-size="10.00">lastName = &quot;Jackson&quot;</text>
<text text-anchor="start" x="1983" y="-10" font-family="Times,serif" font-size="10.00">password = &quot;secret&quot;</text>
</g>
<!-- b1&#45;&gt;ea7c1de1_1a74_4284_8cb9_eb69f828f802 -->
<g id="edge14" class="edge">
<title>b1&#45;&gt;ea7c1de1_1a74_4284_8cb9_eb69f828f802</title>
<path fill="none" stroke="black" d="M2045.32,-268.31C2084.82,-259.32 2116.37,-246.96 2131,-230 2162.35,-193.66 2144.91,-167.94 2131,-122 2127.23,-109.54 2120.73,-97.25 2113.59,-86.24"/>
<text text-anchor="middle" x="2093.09" y="-89.24" font-family="Times,serif" font-size="10.00">customers</text>
<text text-anchor="middle" x="2055.32" y="-271.31" font-family="Times,serif" font-size="10.00">bank</text>
</g>
<!-- c -->
<g id="node17" class="node">
<title>c</title>
<polygon fill="none" stroke="black" points="1015,-43 1015,-60 1178,-60 1178,-43 1015,-43"/>
<text text-anchor="start" x="1073" y="-50" font-family="Times,serif" text-decoration="underline" font-size="10.00">c :Currency</text>
<polygon fill="none" stroke="black" points="1015,-26 1015,-43 1178,-43 1178,-26 1015,-26"/>
<text text-anchor="start" x="1018" y="-32" font-family="Times,serif" font-size="10.00">declaringClass = class model.Currency</text>
</g>
<!-- sendItToTheBank&#45;&gt;c -->
<g id="edge15" class="edge">
<title>sendItToTheBank&#45;&gt;c</title>
<path fill="none" stroke="black" d="M1043.2,-121.72C1056.96,-101.46 1071.83,-79.58 1082.26,-64.22"/>
<text text-anchor="middle" x="1064.76" y="-67.22" font-family="Times,serif" font-size="10.00">currency</text>
</g>
<!-- 8a633aa5_907c_4e57_a313_22e0adb2672e&#45;&gt;1eaf6f4c_4f92_4e04_bd87_c82be03265de -->
<g id="edge17" class="edge">
<title>8a633aa5_907c_4e57_a313_22e0adb2672e&#45;&gt;1eaf6f4c_4f92_4e04_bd87_c82be03265de</title>
<path fill="none" stroke="black" d="M751.68,-121.72C744.77,-109.96 737.54,-97.66 730.92,-86.4"/>
<text text-anchor="middle" x="718.42" y="-89.4" font-family="Times,serif" font-size="10.00">owner</text>
<text text-anchor="middle" x="735.68" y="-113.72" font-family="Times,serif" font-size="10.00">account</text>
</g>
<!-- 8a633aa5_907c_4e57_a313_22e0adb2672e&#45;&gt;c -->
<g id="edge16" class="edge">
<title>8a633aa5_907c_4e57_a313_22e0adb2672e&#45;&gt;c</title>
<path fill="none" stroke="black" d="M908.51,-122.47C957.49,-101.97 1010.69,-79.71 1047.87,-64.15"/>
<text text-anchor="middle" x="1030.37" y="-67.15" font-family="Times,serif" font-size="10.00">currency</text>
</g>
<!-- 7ec351d6_652f_4691_8e72_ea432d44a0c8&#45;&gt;e2f7bc4c_ef2a_466e_b8a5_d24f48b13afe -->
<g id="edge19" class="edge">
<title>7ec351d6_652f_4691_8e72_ea432d44a0c8&#45;&gt;e2f7bc4c_ef2a_466e_b8a5_d24f48b13afe</title>
<path fill="none" stroke="black" d="M440.39,-121.72C432.31,-109.96 423.86,-97.66 416.13,-86.4"/>
<text text-anchor="middle" x="403.63" y="-89.4" font-family="Times,serif" font-size="10.00">owner</text>
<text text-anchor="middle" x="424.39" y="-113.72" font-family="Times,serif" font-size="10.00">account</text>
</g>
<!-- 7ec351d6_652f_4691_8e72_ea432d44a0c8&#45;&gt;c -->
<g id="edge18" class="edge">
<title>7ec351d6_652f_4691_8e72_ea432d44a0c8&#45;&gt;c</title>
<path fill="none" stroke="black" d="M601.16,-134.48C616.85,-129.97 632.74,-125.68 648,-122 714.39,-106 895.64,-76.01 1006.19,-58.24"/>
<text text-anchor="middle" x="988.69" y="-61.24" font-family="Times,serif" font-size="10.00">currency</text>
</g>
<!-- 008ed27a_330f_46ef_a3db_4d289214537a&#45;&gt;247e548c_31e6_44d3_92dd_0e6657d00b3b -->
<g id="edge21" class="edge">
<title>008ed27a_330f_46ef_a3db_4d289214537a&#45;&gt;247e548c_31e6_44d3_92dd_0e6657d00b3b</title>
<path fill="none" stroke="black" d="M156.38,-121.72C150.72,-109.96 144.8,-97.66 139.39,-86.4"/>
<text text-anchor="middle" x="126.89" y="-89.4" font-family="Times,serif" font-size="10.00">owner</text>
<text text-anchor="middle" x="140.38" y="-113.72" font-family="Times,serif" font-size="10.00">account</text>
</g>
<!-- 008ed27a_330f_46ef_a3db_4d289214537a&#45;&gt;c -->
<g id="edge20" class="edge">
<title>008ed27a_330f_46ef_a3db_4d289214537a&#45;&gt;c</title>
<path fill="none" stroke="black" d="M296.58,-133.74C312.35,-129.17 328.47,-125.07 344,-122 556.48,-80.02 614.85,-110.91 830,-86 888.98,-79.17 954.91,-68.78 1006.37,-60.04"/>
<text text-anchor="middle" x="988.87" y="-52.04" font-family="Times,serif" font-size="10.00">currency</text>
</g>
<!-- sendItToTheBank2&#45;&gt;c -->
<g id="edge22" class="edge">
<title>sendItToTheBank2&#45;&gt;c</title>
<path fill="none" stroke="black" d="M1149.39,-121.72C1135.48,-101.46 1120.45,-79.58 1109.89,-64.22"/>
<text text-anchor="middle" x="1127.39" y="-67.22" font-family="Times,serif" font-size="10.00">currency</text>
</g>
<!-- 8a633aa5_907c_4e57_a313_22e0adb2672e3&#45;&gt;1eaf6f4c_4f92_4e04_bd87_c82be03265de6 -->
<g id="edge24" class="edge">
<title>8a633aa5_907c_4e57_a313_22e0adb2672e3&#45;&gt;1eaf6f4c_4f92_4e04_bd87_c82be03265de6</title>
<path fill="none" stroke="black" d="M1421.8,-121.72C1424.4,-109.96 1427.12,-97.66 1429.61,-86.4"/>
<text text-anchor="middle" x="1417.11" y="-89.4" font-family="Times,serif" font-size="10.00">owner</text>
<text text-anchor="middle" x="1405.8" y="-113.72" font-family="Times,serif" font-size="10.00">account</text>
</g>
<!-- 8a633aa5_907c_4e57_a313_22e0adb2672e3&#45;&gt;c -->
<g id="edge23" class="edge">
<title>8a633aa5_907c_4e57_a313_22e0adb2672e3&#45;&gt;c</title>
<path fill="none" stroke="black" d="M1284.09,-122.47C1234.96,-101.97 1181.58,-79.71 1144.29,-64.15"/>
<text text-anchor="middle" x="1161.79" y="-67.15" font-family="Times,serif" font-size="10.00">currency</text>
</g>
<!-- 7ec351d6_652f_4691_8e72_ea432d44a0c84&#45;&gt;e2f7bc4c_ef2a_466e_b8a5_d24f48b13afe5 -->
<g id="edge26" class="edge">
<title>7ec351d6_652f_4691_8e72_ea432d44a0c84&#45;&gt;e2f7bc4c_ef2a_466e_b8a5_d24f48b13afe5</title>
<path fill="none" stroke="black" d="M1724.95,-121.72C1726.92,-109.96 1728.99,-97.66 1730.88,-86.4"/>
<text text-anchor="middle" x="1718.38" y="-89.4" font-family="Times,serif" font-size="10.00">owner</text>
<text text-anchor="middle" x="1708.95" y="-113.72" font-family="Times,serif" font-size="10.00">account</text>
</g>
<!-- 7ec351d6_652f_4691_8e72_ea432d44a0c84&#45;&gt;c -->
<g id="edge25" class="edge">
<title>7ec351d6_652f_4691_8e72_ea432d44a0c84&#45;&gt;c</title>
<path fill="none" stroke="black" d="M1591.9,-134.22C1576.2,-129.75 1560.29,-125.54 1545,-122 1443.77,-98.56 1416.36,-103.83 1314,-86 1271.76,-78.64 1225.06,-69.75 1185.76,-62.04"/>
<text text-anchor="middle" x="1203.26" y="-65.04" font-family="Times,serif" font-size="10.00">currency</text>
</g>
<!-- f19a5869_4e64_4522_a38a_3fd0cd42fe8c&#45;&gt;ea7c1de1_1a74_4284_8cb9_eb69f828f802 -->
<g id="edge28" class="edge">
<title>f19a5869_4e64_4522_a38a_3fd0cd42fe8c&#45;&gt;ea7c1de1_1a74_4284_8cb9_eb69f828f802</title>
<path fill="none" stroke="black" d="M2037.47,-121.72C2043.76,-109.96 2050.33,-97.66 2056.35,-86.4"/>
<text text-anchor="middle" x="2043.85" y="-89.4" font-family="Times,serif" font-size="10.00">owner</text>
<text text-anchor="middle" x="2021.47" y="-113.72" font-family="Times,serif" font-size="10.00">account</text>
</g>
<!-- f19a5869_4e64_4522_a38a_3fd0cd42fe8c&#45;&gt;c -->
<g id="edge27" class="edge">
<title>f19a5869_4e64_4522_a38a_3fd0cd42fe8c&#45;&gt;c</title>
<path fill="none" stroke="black" d="M1895.88,-133.63C1880.29,-129.08 1864.36,-125.01 1849,-122 1615.13,-76.17 1550.34,-116.6 1314,-86 1271.57,-80.51 1224.95,-71.88 1185.75,-63.87"/>
<text text-anchor="middle" x="1203.25" y="-55.87" font-family="Times,serif" font-size="10.00">currency</text>
</g>
</g>
</svg>
