<?xml version="1.0" encoding="UTF-8" standalone="no"?>
<!DOCTYPE svg PUBLIC "-//W3C//DTD SVG 1.1//EN"
 "http://www.w3.org/Graphics/SVG/1.1/DTD/svg11.dtd">
<!-- Generated by graphviz version 2.43.0 (0)
 -->
<!-- Title: model Pages: 1 -->
<svg width="1305px" height="449px"
 viewBox="0.00 0.00 1304.50 449.00" xmlns="http://www.w3.org/2000/svg" xmlns:xlink="http://www.w3.org/1999/xlink">
<g id="graph0" class="graph" transform="scale(1.0 1.0) rotate(0) translate(4 445)">
<title>model</title>
<polygon fill="white" stroke="transparent" points="-4,4 -4,-445 1300.5,-445 1300.5,4 -4,4"/>
<!-- b1c43c85_c076_411d_9e93_6982723dc3b0 -->
<g id="node1" class="node">
<title>b1c43c85_c076_411d_9e93_6982723dc3b0</title>
<polygon fill="none" stroke="black" points="167,-420 167,-437 445,-437 445,-420 167,-420"/>
<text text-anchor="start" x="191.5" y="-427" font-family="Times,serif" text-decoration="underline" font-size="10.00">b1c43c85&#45;c076&#45;411d&#45;9e93&#45;6982723dc3b0 :Transaction</text>
<polygon fill="none" stroke="black" points="167,-359 167,-420 445,-420 445,-359 167,-359"/>
<text text-anchor="start" x="170" y="-409" font-family="Times,serif" font-size="10.00">amount = 50.0</text>
<text text-anchor="start" x="170" y="-398" font-family="Times,serif" font-size="10.00">description = &quot;Expensive fee&quot;</text>
<text text-anchor="start" x="170" y="-387" font-family="Times,serif" font-size="10.00">id = &quot;b1c43c85&#45;c076&#45;411d&#45;9e93&#45;6982723dc3b0&quot;</text>
<text text-anchor="start" x="170" y="-376" font-family="Times,serif" font-size="10.00">rejectionDescription = &quot;Not enough money on the source account&quot;</text>
<text text-anchor="start" x="170" y="-365" font-family="Times,serif" font-size="10.00">timestamp = 2021&#45;12&#45;04T18:01:04.941402109</text>
</g>
<!-- b -->
<g id="node2" class="node">
<title>b</title>
<polygon fill="none" stroke="black" points="343,-297.5 343,-314.5 1010,-314.5 1010,-297.5 343,-297.5"/>
<text text-anchor="start" x="660" y="-304.5" font-family="Times,serif" text-decoration="underline" font-size="10.00">b :Bank</text>
<polygon fill="none" stroke="black" points="343,-269.5 343,-297.5 1010,-297.5 1010,-269.5 343,-269.5"/>
<text text-anchor="start" x="346" y="-286.5" font-family="Times,serif" font-size="10.00">accountsMap = sendItToTheBank8a633aa5&#45;907c&#45;4e57&#45;a313&#45;22e0adb2672e7ec351d6&#45;652f&#45;4691&#45;8e72&#45;ea432d44a0c82c93a5eb&#45;833c&#45;4050&#45;8417&#45;d2083963b183</text>
<text text-anchor="start" x="346" y="-275.5" font-family="Times,serif" font-size="10.00">customerMap = e2f7bc4c&#45;ef2a&#45;466e&#45;b8a5&#45;d24f48b13afe1eaf6f4c&#45;4f92&#45;4e04&#45;bd87&#45;c82be03265de95d68da0&#45;93e3&#45;46b1&#45;b026&#45;42863b2f599c</text>
</g>
<!-- b1c43c85_c076_411d_9e93_6982723dc3b0&#45;&gt;b -->
<g id="edge1" class="edge">
<title>b1c43c85_c076_411d_9e93_6982723dc3b0&#45;&gt;b</title>
<path fill="none" stroke="black" d="M453.03,-355.87C497.49,-343.43 545.01,-330.14 584.71,-319.04"/>
<text text-anchor="middle" x="574.21" y="-322.04" font-family="Times,serif" font-size="10.00">bank</text>
<text text-anchor="middle" x="428.53" y="-347.87" font-family="Times,serif" font-size="10.00">transactions</text>
</g>
<!-- c -->
<g id="node3" class="node">
<title>c</title>
<polygon fill="none" stroke="black" points="385,-43 385,-60 549,-60 549,-43 385,-43"/>
<text text-anchor="start" x="443" y="-50" font-family="Times,serif" text-decoration="underline" font-size="10.00">c :Currency</text>
<polygon fill="none" stroke="black" points="385,-26 385,-43 549,-43 549,-26 385,-26"/>
<text text-anchor="start" x="388" y="-32" font-family="Times,serif" font-size="10.00">declaringClass = class model.Currency</text>
</g>
<!-- b1c43c85_c076_411d_9e93_6982723dc3b0&#45;&gt;c -->
<g id="edge2" class="edge">
<title>b1c43c85_c076_411d_9e93_6982723dc3b0&#45;&gt;c</title>
<path fill="none" stroke="black" d="M288.41,-354.83C267.39,-297.16 240.51,-192.81 287,-122 290.87,-116.11 364.96,-85.24 416.87,-64.14"/>
<text text-anchor="middle" x="398.87" y="-67.14" font-family="Times,serif" font-size="10.00">currency</text>
</g>
<!-- sendItToTheBank -->
<g id="node4" class="node">
<title>sendItToTheBank</title>
<polygon fill="none" stroke="black" points="304,-209 304,-226 424,-226 424,-209 304,-209"/>
<text text-anchor="start" x="307" y="-216" font-family="Times,serif" text-decoration="underline" font-size="10.00">sendItToTheBank :Account</text>
<polygon fill="none" stroke="black" points="304,-126 304,-209 424,-209 424,-126 304,-126"/>
<text text-anchor="start" x="314" y="-198" font-family="Times,serif" font-size="10.00">balance = 74420.0</text>
<text text-anchor="start" x="314" y="-187" font-family="Times,serif" font-size="10.00">customerId = &quot;&quot;</text>
<text text-anchor="start" x="314" y="-176" font-family="Times,serif" font-size="10.00">iban = null</text>
<text text-anchor="start" x="314" y="-165" font-family="Times,serif" font-size="10.00">id = &quot;sendItToTheBank&quot;</text>
<text text-anchor="start" x="314" y="-154" font-family="Times,serif" font-size="10.00">receivedTransaction = </text>
<text text-anchor="start" x="314" y="-143" font-family="Times,serif" font-size="10.00">sentTransaction = </text>
<text text-anchor="start" x="314" y="-132" font-family="Times,serif" font-size="10.00">status = &quot;ACTIVE&quot;</text>
</g>
<!-- b1c43c85_c076_411d_9e93_6982723dc3b0&#45;&gt;sendItToTheBank -->
<g id="edge3" class="edge">
<title>b1c43c85_c076_411d_9e93_6982723dc3b0&#45;&gt;sendItToTheBank</title>
<path fill="none" stroke="black" d="M309.22,-354.8C311.91,-328.83 316.69,-295.06 325,-266 328.39,-254.16 333.01,-241.84 337.9,-230.27"/>
<text text-anchor="middle" x="314.9" y="-233.27" font-family="Times,serif" font-size="10.00">destination</text>
</g>
<!-- 2c93a5eb_833c_4050_8417_d2083963b183 -->
<g id="node5" class="node">
<title>2c93a5eb_833c_4050_8417_d2083963b183</title>
<polygon fill="none" stroke="black" points="8,-209 8,-226 232,-226 232,-209 8,-209"/>
<text text-anchor="start" x="11" y="-216" font-family="Times,serif" text-decoration="underline" font-size="10.00">2c93a5eb&#45;833c&#45;4050&#45;8417&#45;d2083963b183 :Account</text>
<polygon fill="none" stroke="black" points="8,-126 8,-209 232,-209 232,-126 8,-126"/>
<text text-anchor="start" x="18" y="-198" font-family="Times,serif" font-size="10.00">balance = 10.0</text>
<text text-anchor="start" x="18" y="-187" font-family="Times,serif" font-size="10.00">customerId = null</text>
<text text-anchor="start" x="18" y="-176" font-family="Times,serif" font-size="10.00">iban = &quot;EE124408319984353847&quot;</text>
<text text-anchor="start" x="18" y="-165" font-family="Times,serif" font-size="10.00">id = &quot;2c93a5eb&#45;833c&#45;4050&#45;8417&#45;d2083963b183&quot;</text>
<text text-anchor="start" x="18" y="-154" font-family="Times,serif" font-size="10.00">receivedTransaction = </text>
<text text-anchor="start" x="18" y="-143" font-family="Times,serif" font-size="10.00">sentTransaction = </text>
<text text-anchor="start" x="18" y="-132" font-family="Times,serif" font-size="10.00">status = &quot;ACTIVE&quot;</text>
</g>
<!-- b1c43c85_c076_411d_9e93_6982723dc3b0&#45;&gt;2c93a5eb_833c_4050_8417_d2083963b183 -->
<g id="edge4" class="edge">
<title>b1c43c85_c076_411d_9e93_6982723dc3b0&#45;&gt;2c93a5eb_833c_4050_8417_d2083963b183</title>
<path fill="none" stroke="black" d="M270.36,-354.84C240.4,-319.41 197.41,-268.57 165.07,-230.31"/>
<text text-anchor="middle" x="151.57" y="-233.31" font-family="Times,serif" font-size="10.00">source</text>
</g>
<!-- s -->
<g id="node6" class="node">
<title>s</title>
<polygon fill="none" stroke="black" points="1044,-292.5 1044,-309.5 1249,-309.5 1249,-292.5 1044,-292.5"/>
<text text-anchor="start" x="1129.5" y="-299.5" font-family="Times,serif" text-decoration="underline" font-size="10.00">s :Status</text>
<polygon fill="none" stroke="black" points="1044,-275.5 1044,-292.5 1249,-292.5 1249,-275.5 1044,-275.5"/>
<text text-anchor="start" x="1047" y="-281.5" font-family="Times,serif" font-size="10.00">declaringClass = class model.Transaction$Status</text>
</g>
<!-- b1c43c85_c076_411d_9e93_6982723dc3b0&#45;&gt;s -->
<g id="edge5" class="edge">
<title>b1c43c85_c076_411d_9e93_6982723dc3b0&#45;&gt;s</title>
<path fill="none" stroke="black" d="M453.31,-385.55C599.45,-373.14 829.51,-350.76 1027,-319 1036.91,-317.41 1047.24,-315.53 1057.49,-313.52"/>
<text text-anchor="middle" x="1045.49" y="-316.52" font-family="Times,serif" font-size="10.00">status</text>
</g>
<!-- b&#45;&gt;sendItToTheBank -->
<g id="edge7" class="edge">
<title>b&#45;&gt;sendItToTheBank</title>
<path fill="none" stroke="black" d="M552.1,-265.94C517.03,-256.69 479.34,-244.79 446,-230 441.35,-227.94 436.67,-225.63 432.02,-223.17"/>
<text text-anchor="middle" x="450.52" y="-226.17" font-family="Times,serif" font-size="10.00">accounts</text>
<text text-anchor="middle" x="541.6" y="-257.94" font-family="Times,serif" font-size="10.00">bank</text>
</g>
<!-- b&#45;&gt;2c93a5eb_833c_4050_8417_d2083963b183 -->
<g id="edge10" class="edge">
<title>b&#45;&gt;2c93a5eb_833c_4050_8417_d2083963b183</title>
<path fill="none" stroke="black" d="M476.98,-265.93C415.67,-256.48 348.22,-244.47 287,-230 271.75,-226.4 255.88,-222.1 240.26,-217.53"/>
<text text-anchor="middle" x="258.76" y="-220.53" font-family="Times,serif" font-size="10.00">accounts</text>
<text text-anchor="middle" x="466.48" y="-257.93" font-family="Times,serif" font-size="10.00">bank</text>
</g>
<!-- sendItToTheBank1 -->
<g id="node7" class="node">
<title>sendItToTheBank1</title>
<polygon fill="none" stroke="black" points="496,-209 496,-226 644,-226 644,-209 496,-209"/>
<text text-anchor="start" x="513" y="-216" font-family="Times,serif" text-decoration="underline" font-size="10.00">sendItToTheBank :Account</text>
<polygon fill="none" stroke="black" points="496,-126 496,-209 644,-209 644,-126 496,-126"/>
<text text-anchor="start" x="499" y="-198" font-family="Times,serif" font-size="10.00">balance = 69420.0</text>
<text text-anchor="start" x="499" y="-187" font-family="Times,serif" font-size="10.00">customerId = null</text>
<text text-anchor="start" x="499" y="-176" font-family="Times,serif" font-size="10.00">iban = &quot;EE661972221158342878&quot;</text>
<text text-anchor="start" x="499" y="-165" font-family="Times,serif" font-size="10.00">id = &quot;sendItToTheBank&quot;</text>
<text text-anchor="start" x="499" y="-154" font-family="Times,serif" font-size="10.00">receivedTransaction = </text>
<text text-anchor="start" x="499" y="-143" font-family="Times,serif" font-size="10.00">sentTransaction = </text>
<text text-anchor="start" x="499" y="-132" font-family="Times,serif" font-size="10.00">status = &quot;ACTIVE&quot;</text>
</g>
<!-- b&#45;&gt;sendItToTheBank1 -->
<g id="edge6" class="edge">
<title>b&#45;&gt;sendItToTheBank1</title>
<path fill="none" stroke="black" d="M652.21,-265.8C642.45,-255.25 630.75,-242.63 619.3,-230.25"/>
<text text-anchor="middle" x="591.3" y="-233.25" font-family="Times,serif" font-size="10.00">bankAccount</text>
<text text-anchor="middle" x="641.71" y="-257.8" font-family="Times,serif" font-size="10.00">bank</text>
</g>
<!-- 8a633aa5_907c_4e57_a313_22e0adb2672e -->
<g id="node8" class="node">
<title>8a633aa5_907c_4e57_a313_22e0adb2672e</title>
<polygon fill="none" stroke="black" points="678,-209 678,-226 916,-226 916,-209 678,-209"/>
<text text-anchor="start" x="690" y="-216" font-family="Times,serif" text-decoration="underline" font-size="10.00">8a633aa5&#45;907c&#45;4e57&#45;a313&#45;22e0adb2672e :Account</text>
<polygon fill="none" stroke="black" points="678,-126 678,-209 916,-209 916,-126 678,-126"/>
<text text-anchor="start" x="681" y="-198" font-family="Times,serif" font-size="10.00">balance = 0.0</text>
<text text-anchor="start" x="681" y="-187" font-family="Times,serif" font-size="10.00">customerId = &quot;1eaf6f4c&#45;4f92&#45;4e04&#45;bd87&#45;c82be03265de&quot;</text>
<text text-anchor="start" x="681" y="-176" font-family="Times,serif" font-size="10.00">iban = null</text>
<text text-anchor="start" x="681" y="-165" font-family="Times,serif" font-size="10.00">id = &quot;8a633aa5&#45;907c&#45;4e57&#45;a313&#45;22e0adb2672e&quot;</text>
<text text-anchor="start" x="681" y="-154" font-family="Times,serif" font-size="10.00">receivedTransaction = </text>
<text text-anchor="start" x="681" y="-143" font-family="Times,serif" font-size="10.00">sentTransaction = </text>
<text text-anchor="start" x="681" y="-132" font-family="Times,serif" font-size="10.00">status = &quot;ACTIVE&quot;</text>
</g>
<!-- b&#45;&gt;8a633aa5_907c_4e57_a313_22e0adb2672e -->
<g id="edge8" class="edge">
<title>b&#45;&gt;8a633aa5_907c_4e57_a313_22e0adb2672e</title>
<path fill="none" stroke="black" d="M703.15,-265.8C714.3,-255.25 727.65,-242.63 740.73,-230.25"/>
<text text-anchor="middle" x="722.23" y="-233.25" font-family="Times,serif" font-size="10.00">accounts</text>
<text text-anchor="middle" x="692.65" y="-257.8" font-family="Times,serif" font-size="10.00">bank</text>
</g>
<!-- 7ec351d6_652f_4691_8e72_ea432d44a0c8 -->
<g id="node9" class="node">
<title>7ec351d6_652f_4691_8e72_ea432d44a0c8</title>
<polygon fill="none" stroke="black" points="988,-209 988,-226 1222,-226 1222,-209 988,-209"/>
<text text-anchor="start" x="998" y="-216" font-family="Times,serif" text-decoration="underline" font-size="10.00">7ec351d6&#45;652f&#45;4691&#45;8e72&#45;ea432d44a0c8 :Account</text>
<polygon fill="none" stroke="black" points="988,-126 988,-209 1222,-209 1222,-126 988,-126"/>
<text text-anchor="start" x="991" y="-198" font-family="Times,serif" font-size="10.00">balance = 100.0</text>
<text text-anchor="start" x="991" y="-187" font-family="Times,serif" font-size="10.00">customerId = &quot;e2f7bc4c&#45;ef2a&#45;466e&#45;b8a5&#45;d24f48b13afe&quot;</text>
<text text-anchor="start" x="991" y="-176" font-family="Times,serif" font-size="10.00">iban = null</text>
<text text-anchor="start" x="991" y="-165" font-family="Times,serif" font-size="10.00">id = &quot;7ec351d6&#45;652f&#45;4691&#45;8e72&#45;ea432d44a0c8&quot;</text>
<text text-anchor="start" x="991" y="-154" font-family="Times,serif" font-size="10.00">receivedTransaction = </text>
<text text-anchor="start" x="991" y="-143" font-family="Times,serif" font-size="10.00">sentTransaction = </text>
<text text-anchor="start" x="991" y="-132" font-family="Times,serif" font-size="10.00">status = &quot;ACTIVE&quot;</text>
</g>
<!-- b&#45;&gt;7ec351d6_652f_4691_8e72_ea432d44a0c8 -->
<g id="edge9" class="edge">
<title>b&#45;&gt;7ec351d6_652f_4691_8e72_ea432d44a0c8</title>
<path fill="none" stroke="black" d="M817.97,-265.98C865.43,-256.24 918.36,-244.04 966,-230 970.58,-228.65 975.23,-227.22 979.91,-225.72"/>
<text text-anchor="middle" x="961.41" y="-228.72" font-family="Times,serif" font-size="10.00">accounts</text>
<text text-anchor="middle" x="807.47" y="-257.98" font-family="Times,serif" font-size="10.00">bank</text>
</g>
<!-- e2f7bc4c_ef2a_466e_b8a5_d24f48b13afe -->
<g id="node10" class="node">
<title>e2f7bc4c_ef2a_466e_b8a5_d24f48b13afe</title>
<polygon fill="none" stroke="black" points="1074,-65 1074,-82 1289,-82 1289,-65 1074,-65"/>
<text text-anchor="start" x="1077" y="-72" font-family="Times,serif" text-decoration="underline" font-size="10.00">e2f7bc4c&#45;ef2a&#45;466e&#45;b8a5&#45;d24f48b13afe :Customer</text>
<polygon fill="none" stroke="black" points="1074,-4 1074,-65 1289,-65 1289,-4 1074,-4"/>
<text text-anchor="start" x="1086" y="-54" font-family="Times,serif" font-size="10.00">email = &quot;john@doe.ee&quot;</text>
<text text-anchor="start" x="1086" y="-43" font-family="Times,serif" font-size="10.00">firstName = &quot;John&quot;</text>
<text text-anchor="start" x="1086" y="-32" font-family="Times,serif" font-size="10.00">id = &quot;e2f7bc4c&#45;ef2a&#45;466e&#45;b8a5&#45;d24f48b13afe&quot;</text>
<text text-anchor="start" x="1086" y="-21" font-family="Times,serif" font-size="10.00">lastName = &quot;Doe&quot;</text>
<text text-anchor="start" x="1086" y="-10" font-family="Times,serif" font-size="10.00">password = &quot;pass1234&quot;</text>
</g>
<!-- b&#45;&gt;e2f7bc4c_ef2a_466e_b8a5_d24f48b13afe -->
<g id="edge11" class="edge">
<title>b&#45;&gt;e2f7bc4c_ef2a_466e_b8a5_d24f48b13afe</title>
<path fill="none" stroke="black" d="M988.03,-266C1112.74,-254.27 1229.47,-240.63 1239,-230 1271.05,-194.26 1254.09,-167.57 1239,-122 1234.81,-109.34 1227.68,-97.07 1219.83,-86.15"/>
<text text-anchor="middle" x="1199.33" y="-89.15" font-family="Times,serif" font-size="10.00">customers</text>
<text text-anchor="middle" x="977.53" y="-258" font-family="Times,serif" font-size="10.00">bank</text>
</g>
<!-- 1eaf6f4c_4f92_4e04_bd87_c82be03265de -->
<g id="node11" class="node">
<title>1eaf6f4c_4f92_4e04_bd87_c82be03265de</title>
<polygon fill="none" stroke="black" points="716,-65 716,-82 935,-82 935,-65 716,-65"/>
<text text-anchor="start" x="719" y="-72" font-family="Times,serif" text-decoration="underline" font-size="10.00">1eaf6f4c&#45;4f92&#45;4e04&#45;bd87&#45;c82be03265de :Customer</text>
<polygon fill="none" stroke="black" points="716,-4 716,-65 935,-65 935,-4 716,-4"/>
<text text-anchor="start" x="728" y="-54" font-family="Times,serif" font-size="10.00">email = &quot;bobby@tt.ee&quot;</text>
<text text-anchor="start" x="728" y="-43" font-family="Times,serif" font-size="10.00">firstName = &quot;Bob&quot;</text>
<text text-anchor="start" x="728" y="-32" font-family="Times,serif" font-size="10.00">id = &quot;1eaf6f4c&#45;4f92&#45;4e04&#45;bd87&#45;c82be03265de&quot;</text>
<text text-anchor="start" x="728" y="-21" font-family="Times,serif" font-size="10.00">lastName = &quot;Jackson&quot;</text>
<text text-anchor="start" x="728" y="-10" font-family="Times,serif" font-size="10.00">password = &quot;secret&quot;</text>
</g>
<!-- b&#45;&gt;1eaf6f4c_4f92_4e04_bd87_c82be03265de -->
<g id="edge12" class="edge">
<title>b&#45;&gt;1eaf6f4c_4f92_4e04_bd87_c82be03265de</title>
<path fill="none" stroke="black" d="M852.32,-265.92C889.48,-256.88 921.1,-245.08 933,-230 962.73,-192.32 954.85,-164.74 933,-122 925.95,-108.2 915.19,-96.28 903.14,-86.21"/>
<text text-anchor="middle" x="882.64" y="-89.21" font-family="Times,serif" font-size="10.00">customers</text>
<text text-anchor="middle" x="841.82" y="-257.92" font-family="Times,serif" font-size="10.00">bank</text>
</g>
<!-- 95d68da0_93e3_46b1_b026_42863b2f599c -->
<g id="node12" class="node">
<title>95d68da0_93e3_46b1_b026_42863b2f599c</title>
<polygon fill="none" stroke="black" points="118,-65 118,-82 344,-82 344,-65 118,-65"/>
<text text-anchor="start" x="121" y="-72" font-family="Times,serif" text-decoration="underline" font-size="10.00">95d68da0&#45;93e3&#45;46b1&#45;b026&#45;42863b2f599c :Customer</text>
<polygon fill="none" stroke="black" points="118,-4 118,-65 344,-65 344,-4 118,-4"/>
<text text-anchor="start" x="130" y="-54" font-family="Times,serif" font-size="10.00">email = &quot;johntest@doe.ee&quot;</text>
<text text-anchor="start" x="130" y="-43" font-family="Times,serif" font-size="10.00">firstName = &quot;johntest&quot;</text>
<text text-anchor="start" x="130" y="-32" font-family="Times,serif" font-size="10.00">id = &quot;95d68da0&#45;93e3&#45;46b1&#45;b026&#45;42863b2f599c&quot;</text>
<text text-anchor="start" x="130" y="-21" font-family="Times,serif" font-size="10.00">lastName = &quot;Doe&quot;</text>
<text text-anchor="start" x="130" y="-10" font-family="Times,serif" font-size="10.00">password = &quot;pass1234&quot;</text>
</g>
<!-- b&#45;&gt;95d68da0_93e3_46b1_b026_42863b2f599c -->
<g id="edge13" class="edge">
<title>b&#45;&gt;95d68da0_93e3_46b1_b026_42863b2f599c</title>
<path fill="none" stroke="black" d="M536.37,-265.96C515.26,-257.26 495.18,-245.61 479,-230 442.38,-194.67 476.67,-158.29 441,-122 433.59,-114.46 394.58,-99.25 352.15,-84.25"/>
<text text-anchor="middle" x="372.65" y="-87.25" font-family="Times,serif" font-size="10.00">customers</text>
<text text-anchor="middle" x="525.87" y="-257.96" font-family="Times,serif" font-size="10.00">bank</text>
</g>
<!-- sendItToTheBank&#45;&gt;c -->
<g id="edge14" class="edge">
<title>sendItToTheBank&#45;&gt;c</title>
<path fill="none" stroke="black" d="M405.89,-121.72C421.82,-101.46 439.02,-79.58 451.1,-64.22"/>
<text text-anchor="middle" x="469.1" y="-67.22" font-family="Times,serif" font-size="10.00">currency</text>
</g>
<!-- 2c93a5eb_833c_4050_8417_d2083963b183&#45;&gt;c -->
<g id="edge15" class="edge">
<title>2c93a5eb_833c_4050_8417_d2083963b183&#45;&gt;c</title>
<path fill="none" stroke="black" d="M240.06,-127.17C244.76,-125.4 249.42,-123.68 254,-122 301.12,-104.77 313.88,-103.25 361,-86 379.68,-79.16 400.03,-71.22 417.86,-64.09"/>
<text text-anchor="middle" x="435.86" y="-67.09" font-family="Times,serif" font-size="10.00">currency</text>
</g>
<!-- 2c93a5eb_833c_4050_8417_d2083963b183&#45;&gt;95d68da0_93e3_46b1_b026_42863b2f599c -->
<g id="edge16" class="edge">
<title>2c93a5eb_833c_4050_8417_d2083963b183&#45;&gt;95d68da0_93e3_46b1_b026_42863b2f599c</title>
<path fill="none" stroke="black" d="M165.15,-121.72C175.11,-109.96 185.54,-97.66 195.08,-86.4"/>
<text text-anchor="middle" x="182.08" y="-89.4" font-family="Times,serif" font-size="10.00">owner</text>
<text text-anchor="middle" x="148.65" y="-113.72" font-family="Times,serif" font-size="10.00">account</text>
</g>
<!-- sendItToTheBank1&#45;&gt;c -->
<g id="edge17" class="edge">
<title>sendItToTheBank1&#45;&gt;c</title>
<path fill="none" stroke="black" d="M528.11,-121.72C512.18,-101.46 494.98,-79.58 482.9,-64.22"/>
<text text-anchor="middle" x="500.9" y="-67.22" font-family="Times,serif" font-size="10.00">currency</text>
</g>
<!-- 8a633aa5_907c_4e57_a313_22e0adb2672e&#45;&gt;c -->
<g id="edge18" class="edge">
<title>8a633aa5_907c_4e57_a313_22e0adb2672e&#45;&gt;c</title>
<path fill="none" stroke="black" d="M669.89,-124.54C616.69,-103.42 557.93,-80.1 517.4,-64.01"/>
<text text-anchor="middle" x="535.4" y="-67.01" font-family="Times,serif" font-size="10.00">currency</text>
</g>
<!-- 8a633aa5_907c_4e57_a313_22e0adb2672e&#45;&gt;1eaf6f4c_4f92_4e04_bd87_c82be03265de -->
<g id="edge19" class="edge">
<title>8a633aa5_907c_4e57_a313_22e0adb2672e&#45;&gt;1eaf6f4c_4f92_4e04_bd87_c82be03265de</title>
<path fill="none" stroke="black" d="M808.39,-121.72C810.9,-109.96 813.53,-97.66 815.94,-86.4"/>
<text text-anchor="middle" x="802.94" y="-89.4" font-family="Times,serif" font-size="10.00">owner</text>
<text text-anchor="middle" x="791.89" y="-113.72" font-family="Times,serif" font-size="10.00">account</text>
</g>
<!-- 7ec351d6_652f_4691_8e72_ea432d44a0c8&#45;&gt;c -->
<g id="edge20" class="edge">
<title>7ec351d6_652f_4691_8e72_ea432d44a0c8&#45;&gt;c</title>
<path fill="none" stroke="black" d="M979.7,-134.06C964.07,-129.64 948.23,-125.49 933,-122 830.01,-98.38 802.21,-103.45 698,-86 651.47,-78.21 599.79,-68.87 557.13,-60.99"/>
<text text-anchor="middle" x="575.13" y="-63.99" font-family="Times,serif" font-size="10.00">currency</text>
</g>
<!-- 7ec351d6_652f_4691_8e72_ea432d44a0c8&#45;&gt;e2f7bc4c_ef2a_466e_b8a5_d24f48b13afe -->
<g id="edge21" class="edge">
<title>7ec351d6_652f_4691_8e72_ea432d44a0c8&#45;&gt;e2f7bc4c_ef2a_466e_b8a5_d24f48b13afe</title>
<path fill="none" stroke="black" d="M1135.91,-121.72C1142.73,-109.96 1149.87,-97.66 1156.4,-86.4"/>
<text text-anchor="middle" x="1143.4" y="-89.4" font-family="Times,serif" font-size="10.00">owner</text>
<text text-anchor="middle" x="1119.41" y="-113.72" font-family="Times,serif" font-size="10.00">account</text>
</g>
</g>
</svg>
