<?xml version="1.0" encoding="UTF-8" standalone="no"?>
<!DOCTYPE svg PUBLIC "-//W3C//DTD SVG 1.1//EN"
 "http://www.w3.org/Graphics/SVG/1.1/DTD/svg11.dtd">
<!-- Generated by graphviz version 2.43.0 (0)
 -->
<!-- Title: model Pages: 1 -->
<svg width="1342px" height="449px"
 viewBox="0.00 0.00 1341.50 449.00" xmlns="http://www.w3.org/2000/svg" xmlns:xlink="http://www.w3.org/1999/xlink">
<g id="graph0" class="graph" transform="scale(1.0 1.0) rotate(0) translate(4 445)">
<title>model</title>
<polygon fill="white" stroke="transparent" points="-4,4 -4,-445 1337.5,-445 1337.5,4 -4,4"/>
<!-- a03a2e1f_a230_49bf_aa5b_e9717136637d -->
<g id="node1" class="node">
<title>a03a2e1f_a230_49bf_aa5b_e9717136637d</title>
<polygon fill="none" stroke="black" points="272,-420 272,-437 502,-437 502,-420 272,-420"/>
<text text-anchor="start" x="275" y="-427" font-family="Times,serif" text-decoration="underline" font-size="10.00">a03a2e1f&#45;a230&#45;49bf&#45;aa5b&#45;e9717136637d :Transaction</text>
<polygon fill="none" stroke="black" points="272,-359 272,-420 502,-420 502,-359 272,-359"/>
<text text-anchor="start" x="288.5" y="-409" font-family="Times,serif" font-size="10.00">amount = 250.0</text>
<text text-anchor="start" x="288.5" y="-398" font-family="Times,serif" font-size="10.00">description = &quot;Salary&quot;</text>
<text text-anchor="start" x="288.5" y="-387" font-family="Times,serif" font-size="10.00">id = &quot;a03a2e1f&#45;a230&#45;49bf&#45;aa5b&#45;e9717136637d&quot;</text>
<text text-anchor="start" x="288.5" y="-376" font-family="Times,serif" font-size="10.00">rejectionDescription = &quot;&quot;</text>
<text text-anchor="start" x="288.5" y="-365" font-family="Times,serif" font-size="10.00">timestamp = 2021&#45;12&#45;04T18:16:15.143604231</text>
</g>
<!-- b -->
<g id="node2" class="node">
<title>b</title>
<polygon fill="none" stroke="black" points="424,-297.5 424,-314.5 1087,-314.5 1087,-297.5 424,-297.5"/>
<text text-anchor="start" x="739" y="-304.5" font-family="Times,serif" text-decoration="underline" font-size="10.00">b :Bank</text>
<polygon fill="none" stroke="black" points="424,-269.5 424,-297.5 1087,-297.5 1087,-269.5 424,-269.5"/>
<text text-anchor="start" x="427" y="-286.5" font-family="Times,serif" font-size="10.00">accountsMap = sendItToTheBank8a633aa5&#45;907c&#45;4e57&#45;a313&#45;22e0adb2672e7ec351d6&#45;652f&#45;4691&#45;8e72&#45;ea432d44a0c8802816d6&#45;cc01&#45;4e3b&#45;99f8&#45;115e48b481a8</text>
<text text-anchor="start" x="427" y="-275.5" font-family="Times,serif" font-size="10.00">customerMap = e2f7bc4c&#45;ef2a&#45;466e&#45;b8a5&#45;d24f48b13afe1eaf6f4c&#45;4f92&#45;4e04&#45;bd87&#45;c82be03265ded6c26894&#45;22b0&#45;4700&#45;9454&#45;46015027ca79</text>
</g>
<!-- a03a2e1f_a230_49bf_aa5b_e9717136637d&#45;&gt;b -->
<g id="edge1" class="edge">
<title>a03a2e1f_a230_49bf_aa5b_e9717136637d&#45;&gt;b</title>
<path fill="none" stroke="black" d="M510.05,-362.39C560.41,-348.23 617.63,-332.14 664.1,-319.07"/>
<text text-anchor="middle" x="653.6" y="-322.07" font-family="Times,serif" font-size="10.00">bank</text>
<text text-anchor="middle" x="534.55" y="-365.39" font-family="Times,serif" font-size="10.00">transactions</text>
</g>
<!-- c -->
<g id="node3" class="node">
<title>c</title>
<polygon fill="none" stroke="black" points="394,-43 394,-60 558,-60 558,-43 394,-43"/>
<text text-anchor="start" x="452" y="-50" font-family="Times,serif" text-decoration="underline" font-size="10.00">c :Currency</text>
<polygon fill="none" stroke="black" points="394,-26 394,-43 558,-43 558,-26 394,-26"/>
<text text-anchor="start" x="397" y="-32" font-family="Times,serif" font-size="10.00">declaringClass = class model.Currency</text>
</g>
<!-- a03a2e1f_a230_49bf_aa5b_e9717136637d&#45;&gt;c -->
<g id="edge2" class="edge">
<title>a03a2e1f_a230_49bf_aa5b_e9717136637d&#45;&gt;c</title>
<path fill="none" stroke="black" d="M361.67,-354.79C331.2,-298 289.29,-195.64 333,-122 349.31,-94.52 379.09,-76.1 407.26,-64.1"/>
<text text-anchor="middle" x="389.26" y="-67.1" font-family="Times,serif" font-size="10.00">currency</text>
</g>
<!-- 802816d6_cc01_4e3b_99f8_115e48b481a8 -->
<g id="node4" class="node">
<title>802816d6_cc01_4e3b_99f8_115e48b481a8</title>
<polygon fill="none" stroke="black" points="8,-209 8,-226 278,-226 278,-209 8,-209"/>
<text text-anchor="start" x="36" y="-216" font-family="Times,serif" text-decoration="underline" font-size="10.00">802816d6&#45;cc01&#45;4e3b&#45;99f8&#45;115e48b481a8 :Account</text>
<polygon fill="none" stroke="black" points="8,-126 8,-209 278,-209 278,-126 8,-126"/>
<text text-anchor="start" x="11" y="-198" font-family="Times,serif" font-size="10.00">balance = 260.0</text>
<text text-anchor="start" x="11" y="-187" font-family="Times,serif" font-size="10.00">customerId = null</text>
<text text-anchor="start" x="11" y="-176" font-family="Times,serif" font-size="10.00">iban = &quot;EE890645255055384831&quot;</text>
<text text-anchor="start" x="11" y="-165" font-family="Times,serif" font-size="10.00">id = &quot;802816d6&#45;cc01&#45;4e3b&#45;99f8&#45;115e48b481a8&quot;</text>
<text text-anchor="start" x="11" y="-154" font-family="Times,serif" font-size="10.00">receivedTransaction = a03a2e1f&#45;a230&#45;49bf&#45;aa5b&#45;e9717136637d</text>
<text text-anchor="start" x="11" y="-143" font-family="Times,serif" font-size="10.00">sentTransaction = </text>
<text text-anchor="start" x="11" y="-132" font-family="Times,serif" font-size="10.00">status = &quot;ACTIVE&quot;</text>
</g>
<!-- a03a2e1f_a230_49bf_aa5b_e9717136637d&#45;&gt;802816d6_cc01_4e3b_99f8_115e48b481a8 -->
<g id="edge3" class="edge">
<title>a03a2e1f_a230_49bf_aa5b_e9717136637d&#45;&gt;802816d6_cc01_4e3b_99f8_115e48b481a8</title>
<path fill="none" stroke="black" d="M340.01,-354.94C327.04,-343.31 312.96,-330.67 300,-319 267.5,-289.73 231.29,-256.99 201.84,-230.33"/>
<text text-anchor="middle" x="178.84" y="-233.33" font-family="Times,serif" font-size="10.00">destination</text>
<text text-anchor="middle" x="282.01" y="-346.94" font-family="Times,serif" font-size="10.00">allTransactionsOrderedDesc</text>
</g>
<!-- sendItToTheBank -->
<g id="node5" class="node">
<title>sendItToTheBank</title>
<polygon fill="none" stroke="black" points="350,-209 350,-226 602,-226 602,-209 350,-209"/>
<text text-anchor="start" x="419" y="-216" font-family="Times,serif" text-decoration="underline" font-size="10.00">sendItToTheBank :Account</text>
<polygon fill="none" stroke="black" points="350,-126 350,-209 602,-209 602,-126 350,-126"/>
<text text-anchor="start" x="353" y="-198" font-family="Times,serif" font-size="10.00">balance = 69170.0</text>
<text text-anchor="start" x="353" y="-187" font-family="Times,serif" font-size="10.00">customerId = null</text>
<text text-anchor="start" x="353" y="-176" font-family="Times,serif" font-size="10.00">iban = &quot;EE675215443941240679&quot;</text>
<text text-anchor="start" x="353" y="-165" font-family="Times,serif" font-size="10.00">id = &quot;sendItToTheBank&quot;</text>
<text text-anchor="start" x="353" y="-154" font-family="Times,serif" font-size="10.00">receivedTransaction = </text>
<text text-anchor="start" x="353" y="-143" font-family="Times,serif" font-size="10.00">sentTransaction = a03a2e1f&#45;a230&#45;49bf&#45;aa5b&#45;e9717136637d</text>
<text text-anchor="start" x="353" y="-132" font-family="Times,serif" font-size="10.00">status = &quot;ACTIVE&quot;</text>
</g>
<!-- a03a2e1f_a230_49bf_aa5b_e9717136637d&#45;&gt;sendItToTheBank -->
<g id="edge4" class="edge">
<title>a03a2e1f_a230_49bf_aa5b_e9717136637d&#45;&gt;sendItToTheBank</title>
<path fill="none" stroke="black" d="M387.6,-354.79C389.29,-328.35 393.95,-294.09 406,-266 411.35,-253.53 418.9,-241.32 427.07,-230.13"/>
<text text-anchor="middle" x="413.57" y="-233.13" font-family="Times,serif" font-size="10.00">source</text>
<text text-anchor="middle" x="445.6" y="-346.79" font-family="Times,serif" font-size="10.00">allTransactionsOrderedDesc</text>
</g>
<!-- s -->
<g id="node6" class="node">
<title>s</title>
<polygon fill="none" stroke="black" points="1121,-292.5 1121,-309.5 1326,-309.5 1326,-292.5 1121,-292.5"/>
<text text-anchor="start" x="1206.5" y="-299.5" font-family="Times,serif" text-decoration="underline" font-size="10.00">s :Status</text>
<polygon fill="none" stroke="black" points="1121,-275.5 1121,-292.5 1326,-292.5 1326,-275.5 1121,-275.5"/>
<text text-anchor="start" x="1124" y="-281.5" font-family="Times,serif" font-size="10.00">declaringClass = class model.Transaction$Status</text>
</g>
<!-- a03a2e1f_a230_49bf_aa5b_e9717136637d&#45;&gt;s -->
<g id="edge5" class="edge">
<title>a03a2e1f_a230_49bf_aa5b_e9717136637d&#45;&gt;s</title>
<path fill="none" stroke="black" d="M510.26,-387.47C653.52,-375.49 896.78,-352.38 1104,-319 1113.91,-317.4 1124.24,-315.52 1134.49,-313.52"/>
<text text-anchor="middle" x="1122.49" y="-316.52" font-family="Times,serif" font-size="10.00">status</text>
</g>
<!-- b&#45;&gt;802816d6_cc01_4e3b_99f8_115e48b481a8 -->
<g id="edge9" class="edge">
<title>b&#45;&gt;802816d6_cc01_4e3b_99f8_115e48b481a8</title>
<path fill="none" stroke="black" d="M542.9,-265.97C475.48,-256.42 400.82,-244.34 333,-230 317.76,-226.78 301.93,-223.02 286.21,-219.03"/>
<text text-anchor="middle" x="304.71" y="-222.03" font-family="Times,serif" font-size="10.00">accounts</text>
<text text-anchor="middle" x="532.4" y="-257.97" font-family="Times,serif" font-size="10.00">bank</text>
</g>
<!-- b&#45;&gt;sendItToTheBank -->
<g id="edge6" class="edge">
<title>b&#45;&gt;sendItToTheBank</title>
<path fill="none" stroke="black" d="M692.73,-265.95C666.8,-255.3 635.66,-242.52 605.18,-230.01"/>
<text text-anchor="middle" x="577.18" y="-233.01" font-family="Times,serif" font-size="10.00">bankAccount</text>
<text text-anchor="middle" x="682.23" y="-257.95" font-family="Times,serif" font-size="10.00">bank</text>
</g>
<!-- 8a633aa5_907c_4e57_a313_22e0adb2672e -->
<g id="node7" class="node">
<title>8a633aa5_907c_4e57_a313_22e0adb2672e</title>
<polygon fill="none" stroke="black" points="942,-209 942,-226 1180,-226 1180,-209 942,-209"/>
<text text-anchor="start" x="954" y="-216" font-family="Times,serif" text-decoration="underline" font-size="10.00">8a633aa5&#45;907c&#45;4e57&#45;a313&#45;22e0adb2672e :Account</text>
<polygon fill="none" stroke="black" points="942,-126 942,-209 1180,-209 1180,-126 942,-126"/>
<text text-anchor="start" x="945" y="-198" font-family="Times,serif" font-size="10.00">balance = 0.0</text>
<text text-anchor="start" x="945" y="-187" font-family="Times,serif" font-size="10.00">customerId = &quot;1eaf6f4c&#45;4f92&#45;4e04&#45;bd87&#45;c82be03265de&quot;</text>
<text text-anchor="start" x="945" y="-176" font-family="Times,serif" font-size="10.00">iban = null</text>
<text text-anchor="start" x="945" y="-165" font-family="Times,serif" font-size="10.00">id = &quot;8a633aa5&#45;907c&#45;4e57&#45;a313&#45;22e0adb2672e&quot;</text>
<text text-anchor="start" x="945" y="-154" font-family="Times,serif" font-size="10.00">receivedTransaction = </text>
<text text-anchor="start" x="945" y="-143" font-family="Times,serif" font-size="10.00">sentTransaction = </text>
<text text-anchor="start" x="945" y="-132" font-family="Times,serif" font-size="10.00">status = &quot;ACTIVE&quot;</text>
</g>
<!-- b&#45;&gt;8a633aa5_907c_4e57_a313_22e0adb2672e -->
<g id="edge7" class="edge">
<title>b&#45;&gt;8a633aa5_907c_4e57_a313_22e0adb2672e</title>
<path fill="none" stroke="black" d="M827.11,-265.85C857.4,-254.97 892.97,-242.03 925,-230 927.97,-228.89 930.97,-227.75 933.99,-226.61"/>
<text text-anchor="middle" x="915.49" y="-229.61" font-family="Times,serif" font-size="10.00">accounts</text>
<text text-anchor="middle" x="816.61" y="-257.85" font-family="Times,serif" font-size="10.00">bank</text>
</g>
<!-- 7ec351d6_652f_4691_8e72_ea432d44a0c8 -->
<g id="node8" class="node">
<title>7ec351d6_652f_4691_8e72_ea432d44a0c8</title>
<polygon fill="none" stroke="black" points="674,-209 674,-226 908,-226 908,-209 674,-209"/>
<text text-anchor="start" x="684" y="-216" font-family="Times,serif" text-decoration="underline" font-size="10.00">7ec351d6&#45;652f&#45;4691&#45;8e72&#45;ea432d44a0c8 :Account</text>
<polygon fill="none" stroke="black" points="674,-126 674,-209 908,-209 908,-126 674,-126"/>
<text text-anchor="start" x="677" y="-198" font-family="Times,serif" font-size="10.00">balance = 100.0</text>
<text text-anchor="start" x="677" y="-187" font-family="Times,serif" font-size="10.00">customerId = &quot;e2f7bc4c&#45;ef2a&#45;466e&#45;b8a5&#45;d24f48b13afe&quot;</text>
<text text-anchor="start" x="677" y="-176" font-family="Times,serif" font-size="10.00">iban = null</text>
<text text-anchor="start" x="677" y="-165" font-family="Times,serif" font-size="10.00">id = &quot;7ec351d6&#45;652f&#45;4691&#45;8e72&#45;ea432d44a0c8&quot;</text>
<text text-anchor="start" x="677" y="-154" font-family="Times,serif" font-size="10.00">receivedTransaction = </text>
<text text-anchor="start" x="677" y="-143" font-family="Times,serif" font-size="10.00">sentTransaction = </text>
<text text-anchor="start" x="677" y="-132" font-family="Times,serif" font-size="10.00">status = &quot;ACTIVE&quot;</text>
</g>
<!-- b&#45;&gt;7ec351d6_652f_4691_8e72_ea432d44a0c8 -->
<g id="edge8" class="edge">
<title>b&#45;&gt;7ec351d6_652f_4691_8e72_ea432d44a0c8</title>
<path fill="none" stroke="black" d="M763.08,-265.8C766.4,-255.25 770.37,-242.63 774.26,-230.25"/>
<text text-anchor="middle" x="755.76" y="-233.25" font-family="Times,serif" font-size="10.00">accounts</text>
<text text-anchor="middle" x="752.58" y="-257.8" font-family="Times,serif" font-size="10.00">bank</text>
</g>
<!-- e2f7bc4c_ef2a_466e_b8a5_d24f48b13afe -->
<g id="node9" class="node">
<title>e2f7bc4c_ef2a_466e_b8a5_d24f48b13afe</title>
<polygon fill="none" stroke="black" points="741,-65 741,-82 956,-82 956,-65 741,-65"/>
<text text-anchor="start" x="744" y="-72" font-family="Times,serif" text-decoration="underline" font-size="10.00">e2f7bc4c&#45;ef2a&#45;466e&#45;b8a5&#45;d24f48b13afe :Customer</text>
<polygon fill="none" stroke="black" points="741,-4 741,-65 956,-65 956,-4 741,-4"/>
<text text-anchor="start" x="753" y="-54" font-family="Times,serif" font-size="10.00">email = &quot;john@doe.ee&quot;</text>
<text text-anchor="start" x="753" y="-43" font-family="Times,serif" font-size="10.00">firstName = &quot;John&quot;</text>
<text text-anchor="start" x="753" y="-32" font-family="Times,serif" font-size="10.00">id = &quot;e2f7bc4c&#45;ef2a&#45;466e&#45;b8a5&#45;d24f48b13afe&quot;</text>
<text text-anchor="start" x="753" y="-21" font-family="Times,serif" font-size="10.00">lastName = &quot;Doe&quot;</text>
<text text-anchor="start" x="753" y="-10" font-family="Times,serif" font-size="10.00">password = &quot;pass1234&quot;</text>
</g>
<!-- b&#45;&gt;e2f7bc4c_ef2a_466e_b8a5_d24f48b13afe -->
<g id="edge10" class="edge">
<title>b&#45;&gt;e2f7bc4c_ef2a_466e_b8a5_d24f48b13afe</title>
<path fill="none" stroke="black" d="M1042.24,-265.97C1119.24,-256.24 1184.76,-244.06 1197,-230 1228.52,-193.8 1227.13,-159.37 1197,-122 1149.61,-63.23 1104.68,-102.44 1031,-86 1009.21,-81.14 985.97,-75.87 963.63,-70.76"/>
<text text-anchor="middle" x="984.13" y="-73.76" font-family="Times,serif" font-size="10.00">customers</text>
<text text-anchor="middle" x="1031.74" y="-257.97" font-family="Times,serif" font-size="10.00">bank</text>
</g>
<!-- 1eaf6f4c_4f92_4e04_bd87_c82be03265de -->
<g id="node10" class="node">
<title>1eaf6f4c_4f92_4e04_bd87_c82be03265de</title>
<polygon fill="none" stroke="black" points="1048,-65 1048,-82 1267,-82 1267,-65 1048,-65"/>
<text text-anchor="start" x="1051" y="-72" font-family="Times,serif" text-decoration="underline" font-size="10.00">1eaf6f4c&#45;4f92&#45;4e04&#45;bd87&#45;c82be03265de :Customer</text>
<polygon fill="none" stroke="black" points="1048,-4 1048,-65 1267,-65 1267,-4 1048,-4"/>
<text text-anchor="start" x="1060" y="-54" font-family="Times,serif" font-size="10.00">email = &quot;bobby@tt.ee&quot;</text>
<text text-anchor="start" x="1060" y="-43" font-family="Times,serif" font-size="10.00">firstName = &quot;Bob&quot;</text>
<text text-anchor="start" x="1060" y="-32" font-family="Times,serif" font-size="10.00">id = &quot;1eaf6f4c&#45;4f92&#45;4e04&#45;bd87&#45;c82be03265de&quot;</text>
<text text-anchor="start" x="1060" y="-21" font-family="Times,serif" font-size="10.00">lastName = &quot;Jackson&quot;</text>
<text text-anchor="start" x="1060" y="-10" font-family="Times,serif" font-size="10.00">password = &quot;secret&quot;</text>
</g>
<!-- b&#45;&gt;1eaf6f4c_4f92_4e04_bd87_c82be03265de -->
<g id="edge11" class="edge">
<title>b&#45;&gt;1eaf6f4c_4f92_4e04_bd87_c82be03265de</title>
<path fill="none" stroke="black" d="M1065.38,-265.99C1143.7,-256.45 1209.4,-244.37 1222,-230 1253.65,-193.91 1238.34,-167.13 1222,-122 1217.38,-109.24 1209.66,-97.1 1201.12,-86.36"/>
<text text-anchor="middle" x="1180.62" y="-89.36" font-family="Times,serif" font-size="10.00">customers</text>
<text text-anchor="middle" x="1054.88" y="-257.99" font-family="Times,serif" font-size="10.00">bank</text>
</g>
<!-- d6c26894_22b0_4700_9454_46015027ca79 -->
<g id="node11" class="node">
<title>d6c26894_22b0_4700_9454_46015027ca79</title>
<polygon fill="none" stroke="black" points="80,-65 80,-82 309,-82 309,-65 80,-65"/>
<text text-anchor="start" x="83" y="-72" font-family="Times,serif" text-decoration="underline" font-size="10.00">d6c26894&#45;22b0&#45;4700&#45;9454&#45;46015027ca79 :Customer</text>
<polygon fill="none" stroke="black" points="80,-4 80,-65 309,-65 309,-4 80,-4"/>
<text text-anchor="start" x="92" y="-54" font-family="Times,serif" font-size="10.00">email = &quot;johntest@doe.ee&quot;</text>
<text text-anchor="start" x="92" y="-43" font-family="Times,serif" font-size="10.00">firstName = &quot;johntest&quot;</text>
<text text-anchor="start" x="92" y="-32" font-family="Times,serif" font-size="10.00">id = &quot;d6c26894&#45;22b0&#45;4700&#45;9454&#45;46015027ca79&quot;</text>
<text text-anchor="start" x="92" y="-21" font-family="Times,serif" font-size="10.00">lastName = &quot;Doe&quot;</text>
<text text-anchor="start" x="92" y="-10" font-family="Times,serif" font-size="10.00">password = &quot;pass1234&quot;</text>
</g>
<!-- b&#45;&gt;d6c26894_22b0_4700_9454_46015027ca79 -->
<g id="edge12" class="edge">
<title>b&#45;&gt;d6c26894_22b0_4700_9454_46015027ca79</title>
<path fill="none" stroke="black" d="M700.08,-265.89C684.44,-256.44 668.54,-244.43 657,-230 625.23,-190.25 658.24,-154.39 619,-122 577.07,-87.39 430.43,-96.09 377,-86 357.46,-82.31 336.84,-77.99 316.77,-73.56"/>
<text text-anchor="middle" x="337.27" y="-76.56" font-family="Times,serif" font-size="10.00">customers</text>
<text text-anchor="middle" x="710.58" y="-257.89" font-family="Times,serif" font-size="10.00">bank</text>
</g>
<!-- 802816d6_cc01_4e3b_99f8_115e48b481a8&#45;&gt;c -->
<g id="edge13" class="edge">
<title>802816d6_cc01_4e3b_99f8_115e48b481a8&#45;&gt;c</title>
<path fill="none" stroke="black" d="M277.96,-121.91C329.71,-101.55 385.67,-79.54 424.86,-64.12"/>
<text text-anchor="middle" x="442.86" y="-67.12" font-family="Times,serif" font-size="10.00">currency</text>
</g>
<!-- 802816d6_cc01_4e3b_99f8_115e48b481a8&#45;&gt;d6c26894_22b0_4700_9454_46015027ca79 -->
<g id="edge14" class="edge">
<title>802816d6_cc01_4e3b_99f8_115e48b481a8&#45;&gt;d6c26894_22b0_4700_9454_46015027ca79</title>
<path fill="none" stroke="black" d="M163.74,-121.72C168.32,-109.96 173.11,-97.66 177.49,-86.4"/>
<text text-anchor="middle" x="164.49" y="-89.4" font-family="Times,serif" font-size="10.00">owner</text>
<text text-anchor="middle" x="147.24" y="-113.72" font-family="Times,serif" font-size="10.00">account</text>
</g>
<!-- sendItToTheBank&#45;&gt;c -->
<g id="edge15" class="edge">
<title>sendItToTheBank&#45;&gt;c</title>
<path fill="none" stroke="black" d="M476,-121.72C476,-101.46 476,-79.58 476,-64.22"/>
<text text-anchor="middle" x="494" y="-67.22" font-family="Times,serif" font-size="10.00">currency</text>
</g>
<!-- 8a633aa5_907c_4e57_a313_22e0adb2672e&#45;&gt;c -->
<g id="edge16" class="edge">
<title>8a633aa5_907c_4e57_a313_22e0adb2672e&#45;&gt;c</title>
<path fill="none" stroke="black" d="M933.85,-124.56C930.88,-123.67 927.93,-122.82 925,-122 907.83,-117.21 692.24,-80.5 566.16,-59.19"/>
<text text-anchor="middle" x="584.16" y="-62.19" font-family="Times,serif" font-size="10.00">currency</text>
</g>
<!-- 8a633aa5_907c_4e57_a313_22e0adb2672e&#45;&gt;1eaf6f4c_4f92_4e04_bd87_c82be03265de -->
<g id="edge17" class="edge">
<title>8a633aa5_907c_4e57_a313_22e0adb2672e&#45;&gt;1eaf6f4c_4f92_4e04_bd87_c82be03265de</title>
<path fill="none" stroke="black" d="M1100.05,-121.72C1108.66,-109.96 1117.68,-97.66 1125.93,-86.4"/>
<text text-anchor="middle" x="1112.93" y="-89.4" font-family="Times,serif" font-size="10.00">owner</text>
<text text-anchor="middle" x="1083.55" y="-113.72" font-family="Times,serif" font-size="10.00">account</text>
</g>
<!-- 7ec351d6_652f_4691_8e72_ea432d44a0c8&#45;&gt;c -->
<g id="edge18" class="edge">
<title>7ec351d6_652f_4691_8e72_ea432d44a0c8&#45;&gt;c</title>
<path fill="none" stroke="black" d="M665.6,-122.85C616.02,-102.23 562,-79.76 524.35,-64.11"/>
<text text-anchor="middle" x="542.35" y="-67.11" font-family="Times,serif" font-size="10.00">currency</text>
</g>
<!-- 7ec351d6_652f_4691_8e72_ea432d44a0c8&#45;&gt;e2f7bc4c_ef2a_466e_b8a5_d24f48b13afe -->
<g id="edge19" class="edge">
<title>7ec351d6_652f_4691_8e72_ea432d44a0c8&#45;&gt;e2f7bc4c_ef2a_466e_b8a5_d24f48b13afe</title>
<path fill="none" stroke="black" d="M814.18,-121.72C819.3,-109.96 824.65,-97.66 829.55,-86.4"/>
<text text-anchor="middle" x="816.55" y="-89.4" font-family="Times,serif" font-size="10.00">owner</text>
<text text-anchor="middle" x="797.68" y="-113.72" font-family="Times,serif" font-size="10.00">account</text>
</g>
</g>
</svg>
