<?xml version="1.0" encoding="UTF-8" standalone="no"?>
<!DOCTYPE svg PUBLIC "-//W3C//DTD SVG 1.1//EN"
 "http://www.w3.org/Graphics/SVG/1.1/DTD/svg11.dtd">
<!-- Generated by graphviz version 2.43.0 (0)
 -->
<!-- Title: model Pages: 1 -->
<svg width="1752px" height="449px"
 viewBox="0.00 0.00 1752.00 449.00" xmlns="http://www.w3.org/2000/svg" xmlns:xlink="http://www.w3.org/1999/xlink">
<g id="graph0" class="graph" transform="scale(1.0 1.0) rotate(0) translate(4 445)">
<title>model</title>
<polygon fill="white" stroke="transparent" points="-4,4 -4,-445 1748,-445 1748,4 -4,4"/>
<!-- 8afb4594_ebbb_4aef_a91d_15ffa198268b -->
<g id="node1" class="node">
<title>8afb4594_ebbb_4aef_a91d_15ffa198268b</title>
<polygon fill="none" stroke="black" points="816,-420 816,-437 1042,-437 1042,-420 816,-420"/>
<text text-anchor="start" x="819" y="-427" font-family="Times,serif" text-decoration="underline" font-size="10.00">8afb4594&#45;ebbb&#45;4aef&#45;a91d&#45;15ffa198268b :Transaction</text>
<polygon fill="none" stroke="black" points="816,-359 816,-420 1042,-420 1042,-359 816,-359"/>
<text text-anchor="start" x="832" y="-409" font-family="Times,serif" font-size="10.00">amount = 25.5</text>
<text text-anchor="start" x="832" y="-398" font-family="Times,serif" font-size="10.00">description = &quot;Ref: concert ticket&quot;</text>
<text text-anchor="start" x="832" y="-387" font-family="Times,serif" font-size="10.00">id = &quot;8afb4594&#45;ebbb&#45;4aef&#45;a91d&#45;15ffa198268b&quot;</text>
<text text-anchor="start" x="832" y="-376" font-family="Times,serif" font-size="10.00">rejectionDescription = &quot;&quot;</text>
<text text-anchor="start" x="832" y="-365" font-family="Times,serif" font-size="10.00">timestamp = 2021&#45;12&#45;04T18:16:15.082678949</text>
</g>
<!-- b -->
<g id="node2" class="node">
<title>b</title>
<polygon fill="none" stroke="black" points="516,-297.5 516,-314.5 1342,-314.5 1342,-297.5 516,-297.5"/>
<text text-anchor="start" x="912.5" y="-304.5" font-family="Times,serif" text-decoration="underline" font-size="10.00">b :Bank</text>
<polygon fill="none" stroke="black" points="516,-269.5 516,-297.5 1342,-297.5 1342,-269.5 516,-269.5"/>
<text text-anchor="start" x="519" y="-286.5" font-family="Times,serif" font-size="10.00">accountsMap = f4b23899&#45;a6bf&#45;48be&#45;a1f5&#45;078f8a2db6ebsendItToTheBank8a633aa5&#45;907c&#45;4e57&#45;a313&#45;22e0adb2672e7ec351d6&#45;652f&#45;4691&#45;8e72&#45;ea432d44a0c8951f9096&#45;904f&#45;4e34&#45;8a1c&#45;6c4003c90af9</text>
<text text-anchor="start" x="519" y="-275.5" font-family="Times,serif" font-size="10.00">customerMap = b0a971e4&#45;b2e4&#45;4971&#45;aead&#45;a2c0a269540ae2f7bc4c&#45;ef2a&#45;466e&#45;b8a5&#45;d24f48b13afe1eaf6f4c&#45;4f92&#45;4e04&#45;bd87&#45;c82be03265de5dc0d52f&#45;c41b&#45;49fb&#45;ae84&#45;4d9892753bfc</text>
</g>
<!-- 8afb4594_ebbb_4aef_a91d_15ffa198268b&#45;&gt;b -->
<g id="edge1" class="edge">
<title>8afb4594_ebbb_4aef_a91d_15ffa198268b&#45;&gt;b</title>
<path fill="none" stroke="black" d="M929,-354.9C929,-342.81 929,-330 929,-319.22"/>
<text text-anchor="middle" x="918.5" y="-322.22" font-family="Times,serif" font-size="10.00">bank</text>
<text text-anchor="middle" x="904.5" y="-346.9" font-family="Times,serif" font-size="10.00">transactions</text>
</g>
<!-- c -->
<g id="node3" class="node">
<title>c</title>
<polygon fill="none" stroke="black" points="350,-43 350,-60 514,-60 514,-43 350,-43"/>
<text text-anchor="start" x="408" y="-50" font-family="Times,serif" text-decoration="underline" font-size="10.00">c :Currency</text>
<polygon fill="none" stroke="black" points="350,-26 350,-43 514,-43 514,-26 350,-26"/>
<text text-anchor="start" x="353" y="-32" font-family="Times,serif" font-size="10.00">declaringClass = class model.Currency</text>
</g>
<!-- 8afb4594_ebbb_4aef_a91d_15ffa198268b&#45;&gt;c -->
<g id="edge2" class="edge">
<title>8afb4594_ebbb_4aef_a91d_15ffa198268b&#45;&gt;c</title>
<path fill="none" stroke="black" d="M807.75,-392.98C589.72,-382.83 145.85,-347.85 57,-230 28.1,-191.67 26.42,-159 57,-122 84.1,-89.22 203.35,-94.66 245,-86 277.9,-79.16 313.95,-71.18 345.54,-64.02"/>
<text text-anchor="middle" x="327.54" y="-67.02" font-family="Times,serif" font-size="10.00">currency</text>
</g>
<!-- f4b23899_a6bf_48be_a1f5_078f8a2db6eb -->
<g id="node4" class="node">
<title>f4b23899_a6bf_48be_a1f5_078f8a2db6eb</title>
<polygon fill="none" stroke="black" points="1470,-209 1470,-226 1736,-226 1736,-209 1470,-209"/>
<text text-anchor="start" x="1499" y="-216" font-family="Times,serif" text-decoration="underline" font-size="10.00">f4b23899&#45;a6bf&#45;48be&#45;a1f5&#45;078f8a2db6eb :Account</text>
<polygon fill="none" stroke="black" points="1470,-126 1470,-209 1736,-209 1736,-126 1470,-126"/>
<text text-anchor="start" x="1473" y="-198" font-family="Times,serif" font-size="10.00">balance = 25.5</text>
<text text-anchor="start" x="1473" y="-187" font-family="Times,serif" font-size="10.00">customerId = null</text>
<text text-anchor="start" x="1473" y="-176" font-family="Times,serif" font-size="10.00">iban = &quot;EE020765879322191340&quot;</text>
<text text-anchor="start" x="1473" y="-165" font-family="Times,serif" font-size="10.00">id = &quot;f4b23899&#45;a6bf&#45;48be&#45;a1f5&#45;078f8a2db6eb&quot;</text>
<text text-anchor="start" x="1473" y="-154" font-family="Times,serif" font-size="10.00">receivedTransaction = 8afb4594&#45;ebbb&#45;4aef&#45;a91d&#45;15ffa198268b</text>
<text text-anchor="start" x="1473" y="-143" font-family="Times,serif" font-size="10.00">sentTransaction = </text>
<text text-anchor="start" x="1473" y="-132" font-family="Times,serif" font-size="10.00">status = &quot;ACTIVE&quot;</text>
</g>
<!-- 8afb4594_ebbb_4aef_a91d_15ffa198268b&#45;&gt;f4b23899_a6bf_48be_a1f5_078f8a2db6eb -->
<g id="edge3" class="edge">
<title>8afb4594_ebbb_4aef_a91d_15ffa198268b&#45;&gt;f4b23899_a6bf_48be_a1f5_078f8a2db6eb</title>
<path fill="none" stroke="black" d="M1050.03,-385.11C1158.67,-372.65 1308.55,-350.48 1359,-319 1383.81,-303.52 1375.13,-284.23 1398,-266 1417.19,-250.7 1439.41,-237.53 1461.99,-226.37"/>
<text text-anchor="middle" x="1438.99" y="-218.37" font-family="Times,serif" font-size="10.00">destination</text>
<text text-anchor="middle" x="1108.03" y="-388.11" font-family="Times,serif" font-size="10.00">allTransactionsOrderedDesc</text>
</g>
<!-- 951f9096_904f_4e34_8a1c_6c4003c90af9 -->
<g id="node5" class="node">
<title>951f9096_904f_4e34_8a1c_6c4003c90af9</title>
<polygon fill="none" stroke="black" points="74,-209 74,-226 322,-226 322,-209 74,-209"/>
<text text-anchor="start" x="93" y="-216" font-family="Times,serif" text-decoration="underline" font-size="10.00">951f9096&#45;904f&#45;4e34&#45;8a1c&#45;6c4003c90af9 :Account</text>
<polygon fill="none" stroke="black" points="74,-126 74,-209 322,-209 322,-126 74,-126"/>
<text text-anchor="start" x="77" y="-198" font-family="Times,serif" font-size="10.00">balance = 74.5</text>
<text text-anchor="start" x="77" y="-187" font-family="Times,serif" font-size="10.00">customerId = null</text>
<text text-anchor="start" x="77" y="-176" font-family="Times,serif" font-size="10.00">iban = &quot;EE247634482087616080&quot;</text>
<text text-anchor="start" x="77" y="-165" font-family="Times,serif" font-size="10.00">id = &quot;951f9096&#45;904f&#45;4e34&#45;8a1c&#45;6c4003c90af9&quot;</text>
<text text-anchor="start" x="77" y="-154" font-family="Times,serif" font-size="10.00">receivedTransaction = </text>
<text text-anchor="start" x="77" y="-143" font-family="Times,serif" font-size="10.00">sentTransaction = 8afb4594&#45;ebbb&#45;4aef&#45;a91d&#45;15ffa198268b</text>
<text text-anchor="start" x="77" y="-132" font-family="Times,serif" font-size="10.00">status = &quot;ACTIVE&quot;</text>
</g>
<!-- 8afb4594_ebbb_4aef_a91d_15ffa198268b&#45;&gt;951f9096_904f_4e34_8a1c_6c4003c90af9 -->
<g id="edge4" class="edge">
<title>8afb4594_ebbb_4aef_a91d_15ffa198268b&#45;&gt;951f9096_904f_4e34_8a1c_6c4003c90af9</title>
<path fill="none" stroke="black" d="M807.85,-383.62C720.55,-371.92 600.69,-351.59 499,-319 427.74,-296.17 351.56,-260.1 293.66,-230.02"/>
<text text-anchor="middle" x="280.16" y="-233.02" font-family="Times,serif" font-size="10.00">source</text>
<text text-anchor="middle" x="749.85" y="-386.62" font-family="Times,serif" font-size="10.00">allTransactionsOrderedDesc</text>
</g>
<!-- s -->
<g id="node6" class="node">
<title>s</title>
<polygon fill="none" stroke="black" points="1415,-292.5 1415,-309.5 1620,-309.5 1620,-292.5 1415,-292.5"/>
<text text-anchor="start" x="1500.5" y="-299.5" font-family="Times,serif" text-decoration="underline" font-size="10.00">s :Status</text>
<polygon fill="none" stroke="black" points="1415,-275.5 1415,-292.5 1620,-292.5 1620,-275.5 1415,-275.5"/>
<text text-anchor="start" x="1418" y="-281.5" font-family="Times,serif" font-size="10.00">declaringClass = class model.Transaction$Status</text>
</g>
<!-- 8afb4594_ebbb_4aef_a91d_15ffa198268b&#45;&gt;s -->
<g id="edge5" class="edge">
<title>8afb4594_ebbb_4aef_a91d_15ffa198268b&#45;&gt;s</title>
<path fill="none" stroke="black" d="M1050.08,-377.77C1143.61,-362.63 1276.2,-340.56 1392,-319 1401.25,-317.28 1410.88,-315.42 1420.5,-313.53"/>
<text text-anchor="middle" x="1408.5" y="-316.53" font-family="Times,serif" font-size="10.00">status</text>
</g>
<!-- b&#45;&gt;f4b23899_a6bf_48be_a1f5_078f8a2db6eb -->
<g id="edge10" class="edge">
<title>b&#45;&gt;f4b23899_a6bf_48be_a1f5_078f8a2db6eb</title>
<path fill="none" stroke="black" d="M1236.15,-265.99C1306.26,-257.16 1380.1,-245.45 1448,-230 1452.58,-228.96 1457.21,-227.83 1461.86,-226.63"/>
<text text-anchor="middle" x="1443.36" y="-229.63" font-family="Times,serif" font-size="10.00">accounts</text>
<text text-anchor="middle" x="1246.65" y="-257.99" font-family="Times,serif" font-size="10.00">bank</text>
</g>
<!-- b&#45;&gt;951f9096_904f_4e34_8a1c_6c4003c90af9 -->
<g id="edge9" class="edge">
<title>b&#45;&gt;951f9096_904f_4e34_8a1c_6c4003c90af9</title>
<path fill="none" stroke="black" d="M546.14,-266C476.68,-257.3 405.28,-245.64 339,-230 336.07,-229.31 333.12,-228.57 330.16,-227.8"/>
<text text-anchor="middle" x="348.66" y="-230.8" font-family="Times,serif" font-size="10.00">accounts</text>
<text text-anchor="middle" x="535.64" y="-258" font-family="Times,serif" font-size="10.00">bank</text>
</g>
<!-- sendItToTheBank -->
<g id="node7" class="node">
<title>sendItToTheBank</title>
<polygon fill="none" stroke="black" points="357,-209 357,-226 506,-226 506,-209 357,-209"/>
<text text-anchor="start" x="374.5" y="-216" font-family="Times,serif" text-decoration="underline" font-size="10.00">sendItToTheBank :Account</text>
<polygon fill="none" stroke="black" points="357,-126 357,-209 506,-209 506,-126 357,-126"/>
<text text-anchor="start" x="360" y="-198" font-family="Times,serif" font-size="10.00">balance = 69420.0</text>
<text text-anchor="start" x="360" y="-187" font-family="Times,serif" font-size="10.00">customerId = null</text>
<text text-anchor="start" x="360" y="-176" font-family="Times,serif" font-size="10.00">iban = &quot;EE389024895138364845&quot;</text>
<text text-anchor="start" x="360" y="-165" font-family="Times,serif" font-size="10.00">id = &quot;sendItToTheBank&quot;</text>
<text text-anchor="start" x="360" y="-154" font-family="Times,serif" font-size="10.00">receivedTransaction = </text>
<text text-anchor="start" x="360" y="-143" font-family="Times,serif" font-size="10.00">sentTransaction = </text>
<text text-anchor="start" x="360" y="-132" font-family="Times,serif" font-size="10.00">status = &quot;ACTIVE&quot;</text>
</g>
<!-- b&#45;&gt;sendItToTheBank -->
<g id="edge6" class="edge">
<title>b&#45;&gt;sendItToTheBank</title>
<path fill="none" stroke="black" d="M664.25,-265.98C616.46,-257.28 567.67,-245.62 523,-230 519.87,-228.9 516.72,-227.7 513.58,-226.41"/>
<text text-anchor="middle" x="541.58" y="-229.41" font-family="Times,serif" font-size="10.00">bankAccount</text>
<text text-anchor="middle" x="653.75" y="-257.98" font-family="Times,serif" font-size="10.00">bank</text>
</g>
<!-- 8a633aa5_907c_4e57_a313_22e0adb2672e -->
<g id="node8" class="node">
<title>8a633aa5_907c_4e57_a313_22e0adb2672e</title>
<polygon fill="none" stroke="black" points="1122,-209 1122,-226 1360,-226 1360,-209 1122,-209"/>
<text text-anchor="start" x="1134" y="-216" font-family="Times,serif" text-decoration="underline" font-size="10.00">8a633aa5&#45;907c&#45;4e57&#45;a313&#45;22e0adb2672e :Account</text>
<polygon fill="none" stroke="black" points="1122,-126 1122,-209 1360,-209 1360,-126 1122,-126"/>
<text text-anchor="start" x="1125" y="-198" font-family="Times,serif" font-size="10.00">balance = 0.0</text>
<text text-anchor="start" x="1125" y="-187" font-family="Times,serif" font-size="10.00">customerId = &quot;1eaf6f4c&#45;4f92&#45;4e04&#45;bd87&#45;c82be03265de&quot;</text>
<text text-anchor="start" x="1125" y="-176" font-family="Times,serif" font-size="10.00">iban = null</text>
<text text-anchor="start" x="1125" y="-165" font-family="Times,serif" font-size="10.00">id = &quot;8a633aa5&#45;907c&#45;4e57&#45;a313&#45;22e0adb2672e&quot;</text>
<text text-anchor="start" x="1125" y="-154" font-family="Times,serif" font-size="10.00">receivedTransaction = </text>
<text text-anchor="start" x="1125" y="-143" font-family="Times,serif" font-size="10.00">sentTransaction = </text>
<text text-anchor="start" x="1125" y="-132" font-family="Times,serif" font-size="10.00">status = &quot;ACTIVE&quot;</text>
</g>
<!-- b&#45;&gt;8a633aa5_907c_4e57_a313_22e0adb2672e -->
<g id="edge7" class="edge">
<title>b&#45;&gt;8a633aa5_907c_4e57_a313_22e0adb2672e</title>
<path fill="none" stroke="black" d="M1000.63,-265.99C1031.28,-255.02 1067.43,-241.98 1100,-230 1104.54,-228.33 1109.16,-226.62 1113.83,-224.9"/>
<text text-anchor="middle" x="1095.33" y="-227.9" font-family="Times,serif" font-size="10.00">accounts</text>
<text text-anchor="middle" x="990.13" y="-257.99" font-family="Times,serif" font-size="10.00">bank</text>
</g>
<!-- 7ec351d6_652f_4691_8e72_ea432d44a0c8 -->
<g id="node9" class="node">
<title>7ec351d6_652f_4691_8e72_ea432d44a0c8</title>
<polygon fill="none" stroke="black" points="540,-209 540,-226 774,-226 774,-209 540,-209"/>
<text text-anchor="start" x="550" y="-216" font-family="Times,serif" text-decoration="underline" font-size="10.00">7ec351d6&#45;652f&#45;4691&#45;8e72&#45;ea432d44a0c8 :Account</text>
<polygon fill="none" stroke="black" points="540,-126 540,-209 774,-209 774,-126 540,-126"/>
<text text-anchor="start" x="543" y="-198" font-family="Times,serif" font-size="10.00">balance = 100.0</text>
<text text-anchor="start" x="543" y="-187" font-family="Times,serif" font-size="10.00">customerId = &quot;e2f7bc4c&#45;ef2a&#45;466e&#45;b8a5&#45;d24f48b13afe&quot;</text>
<text text-anchor="start" x="543" y="-176" font-family="Times,serif" font-size="10.00">iban = null</text>
<text text-anchor="start" x="543" y="-165" font-family="Times,serif" font-size="10.00">id = &quot;7ec351d6&#45;652f&#45;4691&#45;8e72&#45;ea432d44a0c8&quot;</text>
<text text-anchor="start" x="543" y="-154" font-family="Times,serif" font-size="10.00">receivedTransaction = </text>
<text text-anchor="start" x="543" y="-143" font-family="Times,serif" font-size="10.00">sentTransaction = </text>
<text text-anchor="start" x="543" y="-132" font-family="Times,serif" font-size="10.00">status = &quot;ACTIVE&quot;</text>
</g>
<!-- b&#45;&gt;7ec351d6_652f_4691_8e72_ea432d44a0c8 -->
<g id="edge8" class="edge">
<title>b&#45;&gt;7ec351d6_652f_4691_8e72_ea432d44a0c8</title>
<path fill="none" stroke="black" d="M868.3,-265.95C842.78,-255.2 812.09,-242.29 782.11,-229.67"/>
<text text-anchor="middle" x="800.61" y="-232.67" font-family="Times,serif" font-size="10.00">accounts</text>
<text text-anchor="middle" x="857.8" y="-257.95" font-family="Times,serif" font-size="10.00">bank</text>
</g>
<!-- e97e2388_d326_469d_83ec_457706baafdc -->
<g id="node10" class="node">
<title>e97e2388_d326_469d_83ec_457706baafdc</title>
<polygon fill="none" stroke="black" points="809,-198 809,-215 1050,-215 1050,-198 809,-198"/>
<text text-anchor="start" x="812" y="-205" font-family="Times,serif" text-decoration="underline" font-size="10.00">e97e2388&#45;d326&#45;469d&#45;83ec&#45;457706baafdc :Administrator</text>
<polygon fill="none" stroke="black" points="809,-137 809,-198 1050,-198 1050,-137 809,-137"/>
<text text-anchor="start" x="830" y="-187" font-family="Times,serif" font-size="10.00">email = &quot;admin@bank.ee&quot;</text>
<text text-anchor="start" x="830" y="-176" font-family="Times,serif" font-size="10.00">firstName = &quot;Admin&quot;</text>
<text text-anchor="start" x="830" y="-165" font-family="Times,serif" font-size="10.00">id = &quot;e97e2388&#45;d326&#45;469d&#45;83ec&#45;457706baafdc&quot;</text>
<text text-anchor="start" x="830" y="-154" font-family="Times,serif" font-size="10.00">lastName = &quot;ALice&quot;</text>
<text text-anchor="start" x="830" y="-143" font-family="Times,serif" font-size="10.00">password = &quot;secure_p@ssw0|2d&quot;</text>
</g>
<!-- b&#45;&gt;e97e2388_d326_469d_83ec_457706baafdc -->
<g id="edge11" class="edge">
<title>b&#45;&gt;e97e2388_d326_469d_83ec_457706baafdc</title>
<path fill="none" stroke="black" d="M929,-265.8C929,-252.09 929,-234.86 929,-219.24"/>
<text text-anchor="middle" x="900" y="-222.24" font-family="Times,serif" font-size="10.00">administrators</text>
<text text-anchor="middle" x="918.5" y="-257.8" font-family="Times,serif" font-size="10.00">bank</text>
</g>
<!-- e2f7bc4c_ef2a_466e_b8a5_d24f48b13afe -->
<g id="node11" class="node">
<title>e2f7bc4c_ef2a_466e_b8a5_d24f48b13afe</title>
<polygon fill="none" stroke="black" points="730,-65 730,-82 945,-82 945,-65 730,-65"/>
<text text-anchor="start" x="733" y="-72" font-family="Times,serif" text-decoration="underline" font-size="10.00">e2f7bc4c&#45;ef2a&#45;466e&#45;b8a5&#45;d24f48b13afe :Customer</text>
<polygon fill="none" stroke="black" points="730,-4 730,-65 945,-65 945,-4 730,-4"/>
<text text-anchor="start" x="742" y="-54" font-family="Times,serif" font-size="10.00">email = &quot;john@doe.ee&quot;</text>
<text text-anchor="start" x="742" y="-43" font-family="Times,serif" font-size="10.00">firstName = &quot;John&quot;</text>
<text text-anchor="start" x="742" y="-32" font-family="Times,serif" font-size="10.00">id = &quot;e2f7bc4c&#45;ef2a&#45;466e&#45;b8a5&#45;d24f48b13afe&quot;</text>
<text text-anchor="start" x="742" y="-21" font-family="Times,serif" font-size="10.00">lastName = &quot;Doe&quot;</text>
<text text-anchor="start" x="742" y="-10" font-family="Times,serif" font-size="10.00">password = &quot;pass1234&quot;</text>
</g>
<!-- b&#45;&gt;e2f7bc4c_ef2a_466e_b8a5_d24f48b13afe -->
<g id="edge12" class="edge">
<title>b&#45;&gt;e2f7bc4c_ef2a_466e_b8a5_d24f48b13afe</title>
<path fill="none" stroke="black" d="M1024.47,-265.91C1040.93,-257.19 1055.94,-245.54 1066,-230 1092.08,-189.7 1093.94,-161.03 1066,-122 1039.78,-85.37 995.34,-65.74 952.54,-55.3"/>
<text text-anchor="middle" x="973.04" y="-58.3" font-family="Times,serif" font-size="10.00">customers</text>
<text text-anchor="middle" x="1013.97" y="-257.91" font-family="Times,serif" font-size="10.00">bank</text>
</g>
<!-- 1eaf6f4c_4f92_4e04_bd87_c82be03265de -->
<g id="node12" class="node">
<title>1eaf6f4c_4f92_4e04_bd87_c82be03265de</title>
<polygon fill="none" stroke="black" points="1159,-65 1159,-82 1378,-82 1378,-65 1159,-65"/>
<text text-anchor="start" x="1162" y="-72" font-family="Times,serif" text-decoration="underline" font-size="10.00">1eaf6f4c&#45;4f92&#45;4e04&#45;bd87&#45;c82be03265de :Customer</text>
<polygon fill="none" stroke="black" points="1159,-4 1159,-65 1378,-65 1378,-4 1159,-4"/>
<text text-anchor="start" x="1171" y="-54" font-family="Times,serif" font-size="10.00">email = &quot;bobby@tt.ee&quot;</text>
<text text-anchor="start" x="1171" y="-43" font-family="Times,serif" font-size="10.00">firstName = &quot;Bob&quot;</text>
<text text-anchor="start" x="1171" y="-32" font-family="Times,serif" font-size="10.00">id = &quot;1eaf6f4c&#45;4f92&#45;4e04&#45;bd87&#45;c82be03265de&quot;</text>
<text text-anchor="start" x="1171" y="-21" font-family="Times,serif" font-size="10.00">lastName = &quot;Jackson&quot;</text>
<text text-anchor="start" x="1171" y="-10" font-family="Times,serif" font-size="10.00">password = &quot;secret&quot;</text>
</g>
<!-- b&#45;&gt;1eaf6f4c_4f92_4e04_bd87_c82be03265de -->
<g id="edge13" class="edge">
<title>b&#45;&gt;1eaf6f4c_4f92_4e04_bd87_c82be03265de</title>
<path fill="none" stroke="black" d="M1221.65,-265.99C1299.04,-256.3 1364.66,-244.14 1377,-230 1408.55,-193.82 1398.95,-164.69 1377,-122 1369.87,-108.13 1359.01,-96.18 1346.85,-86.1"/>
<text text-anchor="middle" x="1326.35" y="-89.1" font-family="Times,serif" font-size="10.00">customers</text>
<text text-anchor="middle" x="1211.15" y="-257.99" font-family="Times,serif" font-size="10.00">bank</text>
</g>
<!-- 5dc0d52f_c41b_49fb_ae84_4d9892753bfc -->
<g id="node13" class="node">
<title>5dc0d52f_c41b_49fb_ae84_4d9892753bfc</title>
<polygon fill="none" stroke="black" points="8,-65 8,-82 228,-82 228,-65 8,-65"/>
<text text-anchor="start" x="11" y="-72" font-family="Times,serif" text-decoration="underline" font-size="10.00">5dc0d52f&#45;c41b&#45;49fb&#45;ae84&#45;4d9892753bfc :Customer</text>
<polygon fill="none" stroke="black" points="8,-4 8,-65 228,-65 228,-4 8,-4"/>
<text text-anchor="start" x="20" y="-54" font-family="Times,serif" font-size="10.00">email = &quot;johntest@doe.ee&quot;</text>
<text text-anchor="start" x="20" y="-43" font-family="Times,serif" font-size="10.00">firstName = &quot;johntest&quot;</text>
<text text-anchor="start" x="20" y="-32" font-family="Times,serif" font-size="10.00">id = &quot;5dc0d52f&#45;c41b&#45;49fb&#45;ae84&#45;4d9892753bfc&quot;</text>
<text text-anchor="start" x="20" y="-21" font-family="Times,serif" font-size="10.00">lastName = &quot;Doe&quot;</text>
<text text-anchor="start" x="20" y="-10" font-family="Times,serif" font-size="10.00">password = &quot;pass1234&quot;</text>
</g>
<!-- b&#45;&gt;5dc0d52f_c41b_49fb_ae84_4d9892753bfc -->
<g id="edge14" class="edge">
<title>b&#45;&gt;5dc0d52f_c41b_49fb_ae84_4d9892753bfc</title>
<path fill="none" stroke="black" d="M508,-287.09C301.34,-280.42 89.59,-264.97 57,-230 24.27,-194.89 41.36,-167.38 57,-122 61.37,-109.32 68.74,-97.13 76.87,-86.3"/>
<text text-anchor="middle" x="56.37" y="-89.3" font-family="Times,serif" font-size="10.00">customers</text>
<text text-anchor="middle" x="497.5" y="-290.09" font-family="Times,serif" font-size="10.00">bank</text>
</g>
<!-- b0a971e4_b2e4_4971_aead_a2c0a269540a -->
<g id="node14" class="node">
<title>b0a971e4_b2e4_4971_aead_a2c0a269540a</title>
<polygon fill="none" stroke="black" points="1465,-65 1465,-82 1688,-82 1688,-65 1465,-65"/>
<text text-anchor="start" x="1468" y="-72" font-family="Times,serif" text-decoration="underline" font-size="10.00">b0a971e4&#45;b2e4&#45;4971&#45;aead&#45;a2c0a269540a :Customer</text>
<polygon fill="none" stroke="black" points="1465,-4 1465,-65 1688,-65 1688,-4 1465,-4"/>
<text text-anchor="start" x="1477" y="-54" font-family="Times,serif" font-size="10.00">email = &quot;bobbytest@tt.ee&quot;</text>
<text text-anchor="start" x="1477" y="-43" font-family="Times,serif" font-size="10.00">firstName = &quot;Bob&quot;</text>
<text text-anchor="start" x="1477" y="-32" font-family="Times,serif" font-size="10.00">id = &quot;b0a971e4&#45;b2e4&#45;4971&#45;aead&#45;a2c0a269540a&quot;</text>
<text text-anchor="start" x="1477" y="-21" font-family="Times,serif" font-size="10.00">lastName = &quot;Jackson&quot;</text>
<text text-anchor="start" x="1477" y="-10" font-family="Times,serif" font-size="10.00">password = &quot;secret&quot;</text>
</g>
<!-- b&#45;&gt;b0a971e4_b2e4_4971_aead_a2c0a269540a -->
<g id="edge15" class="edge">
<title>b&#45;&gt;b0a971e4_b2e4_4971_aead_a2c0a269540a</title>
<path fill="none" stroke="black" d="M1291.66,-265.99C1340.15,-257.29 1380.54,-245.63 1402,-230 1444.91,-198.75 1417.86,-161.79 1453,-122 1464.97,-108.45 1479.85,-96.38 1495.07,-86.03"/>
<text text-anchor="middle" x="1474.57" y="-89.03" font-family="Times,serif" font-size="10.00">customers</text>
<text text-anchor="middle" x="1281.16" y="-257.99" font-family="Times,serif" font-size="10.00">bank</text>
</g>
<!-- f4b23899_a6bf_48be_a1f5_078f8a2db6eb&#45;&gt;c -->
<g id="edge16" class="edge">
<title>f4b23899_a6bf_48be_a1f5_078f8a2db6eb&#45;&gt;c</title>
<path fill="none" stroke="black" d="M1461.77,-137.85C1433.84,-131.65 1404.63,-125.96 1377,-122 1084,-80.05 1006.47,-115.99 712,-86 648.31,-79.51 576.94,-68.76 522.2,-59.75"/>
<text text-anchor="middle" x="540.2" y="-62.75" font-family="Times,serif" font-size="10.00">currency</text>
</g>
<!-- f4b23899_a6bf_48be_a1f5_078f8a2db6eb&#45;&gt;b0a971e4_b2e4_4971_aead_a2c0a269540a -->
<g id="edge17" class="edge">
<title>f4b23899_a6bf_48be_a1f5_078f8a2db6eb&#45;&gt;b0a971e4_b2e4_4971_aead_a2c0a269540a</title>
<path fill="none" stroke="black" d="M1592.02,-121.72C1589.59,-109.96 1587.06,-97.66 1584.74,-86.4"/>
<text text-anchor="middle" x="1571.74" y="-89.4" font-family="Times,serif" font-size="10.00">owner</text>
<text text-anchor="middle" x="1575.52" y="-113.72" font-family="Times,serif" font-size="10.00">account</text>
</g>
<!-- 951f9096_904f_4e34_8a1c_6c4003c90af9&#45;&gt;c -->
<g id="edge18" class="edge">
<title>951f9096_904f_4e34_8a1c_6c4003c90af9&#45;&gt;c</title>
<path fill="none" stroke="black" d="M292.84,-121.91C329.2,-101.55 368.52,-79.54 396.06,-64.12"/>
<text text-anchor="middle" x="378.06" y="-67.12" font-family="Times,serif" font-size="10.00">currency</text>
</g>
<!-- 951f9096_904f_4e34_8a1c_6c4003c90af9&#45;&gt;5dc0d52f_c41b_49fb_ae84_4d9892753bfc -->
<g id="edge19" class="edge">
<title>951f9096_904f_4e34_8a1c_6c4003c90af9&#45;&gt;5dc0d52f_c41b_49fb_ae84_4d9892753bfc</title>
<path fill="none" stroke="black" d="M165.46,-121.72C158.28,-109.96 150.77,-97.66 143.89,-86.4"/>
<text text-anchor="middle" x="130.89" y="-89.4" font-family="Times,serif" font-size="10.00">owner</text>
<text text-anchor="middle" x="148.96" y="-113.72" font-family="Times,serif" font-size="10.00">account</text>
</g>
<!-- sendItToTheBank&#45;&gt;c -->
<g id="edge20" class="edge">
<title>sendItToTheBank&#45;&gt;c</title>
<path fill="none" stroke="black" d="M431.41,-121.72C431.56,-101.46 431.73,-79.58 431.85,-64.22"/>
<text text-anchor="middle" x="449.85" y="-67.22" font-family="Times,serif" font-size="10.00">currency</text>
</g>
<!-- 8a633aa5_907c_4e57_a313_22e0adb2672e&#45;&gt;c -->
<g id="edge21" class="edge">
<title>8a633aa5_907c_4e57_a313_22e0adb2672e&#45;&gt;c</title>
<path fill="none" stroke="black" d="M1113.65,-133.33C1097.72,-129.04 1081.56,-125.12 1066,-122 910.94,-90.94 868.91,-105.74 712,-86 648.35,-77.99 576.84,-67.24 522.01,-58.61"/>
<text text-anchor="middle" x="540.01" y="-50.61" font-family="Times,serif" font-size="10.00">currency</text>
</g>
<!-- 8a633aa5_907c_4e57_a313_22e0adb2672e&#45;&gt;1eaf6f4c_4f92_4e04_bd87_c82be03265de -->
<g id="edge22" class="edge">
<title>8a633aa5_907c_4e57_a313_22e0adb2672e&#45;&gt;1eaf6f4c_4f92_4e04_bd87_c82be03265de</title>
<path fill="none" stroke="black" d="M1251.98,-121.72C1254.41,-109.96 1256.94,-97.66 1259.26,-86.4"/>
<text text-anchor="middle" x="1246.26" y="-89.4" font-family="Times,serif" font-size="10.00">owner</text>
<text text-anchor="middle" x="1235.48" y="-113.72" font-family="Times,serif" font-size="10.00">account</text>
</g>
<!-- 7ec351d6_652f_4691_8e72_ea432d44a0c8&#45;&gt;c -->
<g id="edge23" class="edge">
<title>7ec351d6_652f_4691_8e72_ea432d44a0c8&#45;&gt;c</title>
<path fill="none" stroke="black" d="M565.81,-121.91C530.85,-101.55 493.04,-79.54 466.56,-64.12"/>
<text text-anchor="middle" x="484.56" y="-67.12" font-family="Times,serif" font-size="10.00">currency</text>
</g>
<!-- 7ec351d6_652f_4691_8e72_ea432d44a0c8&#45;&gt;e2f7bc4c_ef2a_466e_b8a5_d24f48b13afe -->
<g id="edge24" class="edge">
<title>7ec351d6_652f_4691_8e72_ea432d44a0c8&#45;&gt;e2f7bc4c_ef2a_466e_b8a5_d24f48b13afe</title>
<path fill="none" stroke="black" d="M729.95,-121.91C746.33,-109.99 763.48,-97.51 779.14,-86.11"/>
<text text-anchor="middle" x="766.14" y="-89.11" font-family="Times,serif" font-size="10.00">owner</text>
<text text-anchor="middle" x="713.45" y="-113.91" font-family="Times,serif" font-size="10.00">account</text>
</g>
</g>
</svg>
