<?xml version="1.0" encoding="UTF-8" standalone="no"?>
<!DOCTYPE svg PUBLIC "-//W3C//DTD SVG 1.1//EN"
 "http://www.w3.org/Graphics/SVG/1.1/DTD/svg11.dtd">
<!-- Generated by graphviz version 2.44.0 (20200408.0750)
 -->
<!-- Pages: 1 -->
<svg width="1326px" height="392px"
 viewBox="0.00 0.00 1326.17 392.00" xmlns="http://www.w3.org/2000/svg" xmlns:xlink="http://www.w3.org/1999/xlink">
<g id="graph0" class="graph" transform="scale(1.0 1.0) rotate(0) translate(4 388)">
<polygon fill="white" stroke="transparent" points="-4,4 -4,-388 1322.17,-388 1322.17,4 -4,4"/>
<!-- b -->
<g id="node1" class="node">
<title>b</title>
<polygon fill="none" stroke="black" points="364.17,-360 364.17,-378 401.17,-378 401.17,-360 364.17,-360"/>
<text text-anchor="start" x="366.97" y="-367" font-family="Times,serif" text-decoration="underline" font-size="10.00">b :Bank</text>
<polygon fill="none" stroke="black" points="364.17,-354 364.17,-360 401.17,-360 401.17,-354 364.17,-354"/>
</g>
<!-- 597eaeb0_ee72_4c3e_b369_391886fa420d -->
<g id="node3" class="node">
<title>597eaeb0_ee72_4c3e_b369_391886fa420d</title>
<polygon fill="none" stroke="black" points="643.17,-272 643.17,-290 855.17,-290 855.17,-272 643.17,-272"/>
<text text-anchor="start" x="646.01" y="-279" font-family="Times,serif" text-decoration="underline" font-size="10.00">597eaeb0&#45;ee72&#45;4c3e&#45;b369&#45;391886fa420d :Account</text>
<polygon fill="none" stroke="black" points="643.17,-242 643.17,-272 855.17,-272 855.17,-242 643.17,-242"/>
<text text-anchor="start" x="652.3" y="-260" font-family="Times,serif" font-size="10.00">balance = 69420.0</text>
<text text-anchor="start" x="652.3" y="-248" font-family="Times,serif" font-size="10.00">id = &quot;597eaeb0&#45;ee72&#45;4c3e&#45;b369&#45;391886fa420d&quot;</text>
</g>
<!-- b&#45;&gt;597eaeb0_ee72_4c3e_b369_391886fa420d -->
<g id="edge1" class="edge">
<title>b&#45;&gt;597eaeb0_ee72_4c3e_b369_391886fa420d</title>
<path fill="none" stroke="black" d="M409.31,-360.08C453.92,-351.75 545.36,-333.65 621.17,-312 639.4,-306.79 658.82,-300.41 676.88,-294.11"/>
<text text-anchor="middle" x="650.23" y="-297.11" font-family="Times,serif" font-size="10.00">bankAccount</text>
<text text-anchor="middle" x="419.03" y="-351.08" font-family="Times,serif" font-size="10.00">bank</text>
</g>
<!-- ddc08abf_bbe4_4068_8195_bf45be271337 -->
<g id="node4" class="node">
<title>ddc08abf_bbe4_4068_8195_bf45be271337</title>
<polygon fill="none" stroke="black" points="205.17,-162 205.17,-180 417.17,-180 417.17,-162 205.17,-162"/>
<text text-anchor="start" x="207.72" y="-169" font-family="Times,serif" text-decoration="underline" font-size="10.00">ddc08abf&#45;bbe4&#45;4068&#45;8195&#45;bf45be271337 :Account</text>
<polygon fill="none" stroke="black" points="205.17,-132 205.17,-162 417.17,-162 417.17,-132 205.17,-132"/>
<text text-anchor="start" x="214.01" y="-150" font-family="Times,serif" font-size="10.00">balance = 100.0</text>
<text text-anchor="start" x="214.01" y="-138" font-family="Times,serif" font-size="10.00">id = &quot;ddc08abf&#45;bbe4&#45;4068&#45;8195&#45;bf45be271337&quot;</text>
</g>
<!-- b&#45;&gt;ddc08abf_bbe4_4068_8195_bf45be271337 -->
<g id="edge2" class="edge">
<title>b&#45;&gt;ddc08abf_bbe4_4068_8195_bf45be271337</title>
<path fill="none" stroke="black" d="M356.94,-347.77C345.54,-338.56 333.1,-326.19 326.17,-312 306.04,-270.83 305.99,-216.23 308.25,-184.03"/>
<text text-anchor="middle" x="290.76" y="-187.03" font-family="Times,serif" font-size="10.00">accounts</text>
<text text-anchor="middle" x="347.22" y="-338.77" font-family="Times,serif" font-size="10.00">bank</text>
</g>
<!-- 8a463d82_f7d3_40aa_ba4a_510ca381c4a2 -->
<g id="node5" class="node">
<title>8a463d82_f7d3_40aa_ba4a_510ca381c4a2</title>
<polygon fill="none" stroke="black" points="38.17,-290 38.17,-308 271.17,-308 271.17,-290 38.17,-290"/>
<text text-anchor="start" x="40.68" y="-297" font-family="Times,serif" text-decoration="underline" font-size="10.00">8a463d82&#45;f7d3&#45;40aa&#45;ba4a&#45;510ca381c4a2 :Administrator</text>
<polygon fill="none" stroke="black" points="38.17,-224 38.17,-290 271.17,-290 271.17,-224 38.17,-224"/>
<text text-anchor="start" x="58.08" y="-278" font-family="Times,serif" font-size="10.00">email = &quot;admin@bank.ee&quot;</text>
<text text-anchor="start" x="58.08" y="-266" font-family="Times,serif" font-size="10.00">firstName = &quot;Admin&quot;</text>
<text text-anchor="start" x="58.08" y="-254" font-family="Times,serif" font-size="10.00">id = &quot;8a463d82&#45;f7d3&#45;40aa&#45;ba4a&#45;510ca381c4a2&quot;</text>
<text text-anchor="start" x="58.08" y="-242" font-family="Times,serif" font-size="10.00">lastName = &quot;ALice&quot;</text>
<text text-anchor="start" x="58.08" y="-230" font-family="Times,serif" font-size="10.00">password = &quot;secure_p@ssw0|2d&quot;</text>
</g>
<!-- b&#45;&gt;8a463d82_f7d3_40aa_ba4a_510ca381c4a2 -->
<g id="edge3" class="edge">
<title>b&#45;&gt;8a463d82_f7d3_40aa_ba4a_510ca381c4a2</title>
<path fill="none" stroke="black" d="M355.12,-353.37C331.11,-343.06 294.44,-327.29 258.97,-312.05"/>
<text text-anchor="middle" x="230.37" y="-315.05" font-family="Times,serif" font-size="10.00">administrators</text>
<text text-anchor="middle" x="345.4" y="-356.37" font-family="Times,serif" font-size="10.00">bank</text>
</g>
<!-- 9a3f637b_8483_4e6a_b431_54dc5092ca57 -->
<g id="node6" class="node">
<title>9a3f637b_8483_4e6a_b431_54dc5092ca57</title>
<polygon fill="none" stroke="black" points="47.17,-70 47.17,-88 265.17,-88 265.17,-70 47.17,-70"/>
<text text-anchor="start" x="49.95" y="-77" font-family="Times,serif" text-decoration="underline" font-size="10.00">9a3f637b&#45;8483&#45;4e6a&#45;b431&#45;54dc5092ca57 :Customer</text>
<polygon fill="none" stroke="black" points="47.17,-4 47.17,-70 265.17,-70 265.17,-4 47.17,-4"/>
<text text-anchor="start" x="58.74" y="-58" font-family="Times,serif" font-size="10.00">email = &quot;john@doe.ee&quot;</text>
<text text-anchor="start" x="58.74" y="-46" font-family="Times,serif" font-size="10.00">firstName = &quot;John&quot;</text>
<text text-anchor="start" x="58.74" y="-34" font-family="Times,serif" font-size="10.00">id = &quot;9a3f637b&#45;8483&#45;4e6a&#45;b431&#45;54dc5092ca57&quot;</text>
<text text-anchor="start" x="58.74" y="-22" font-family="Times,serif" font-size="10.00">lastName = &quot;Doe&quot;</text>
<text text-anchor="start" x="58.74" y="-10" font-family="Times,serif" font-size="10.00">password = &quot;pass1234&quot;</text>
</g>
<!-- b&#45;&gt;9a3f637b_8483_4e6a_b431_54dc5092ca57 -->
<g id="edge4" class="edge">
<title>b&#45;&gt;9a3f637b_8483_4e6a_b431_54dc5092ca57</title>
<path fill="none" stroke="black" d="M354.98,-365.37C278.41,-365.78 63.67,-362.34 20.17,-312 -37.99,-244.71 43.39,-148.21 103.06,-92.13"/>
<text text-anchor="middle" x="82.79" y="-95.13" font-family="Times,serif" font-size="10.00">customers</text>
<text text-anchor="middle" x="345.26" y="-368.37" font-family="Times,serif" font-size="10.00">bank</text>
</g>
<!-- 544064e7_93d3_4800_9bc5_a8ac558e69e3 -->
<g id="node7" class="node">
<title>544064e7_93d3_4800_9bc5_a8ac558e69e3</title>
<polygon fill="none" stroke="black" points="344.17,-290 344.17,-308 571.17,-308 571.17,-290 344.17,-290"/>
<text text-anchor="start" x="346.73" y="-297" font-family="Times,serif" text-decoration="underline" font-size="10.00">544064e7&#45;93d3&#45;4800&#45;9bc5&#45;a8ac558e69e3 :Transaction</text>
<polygon fill="none" stroke="black" points="344.17,-224 344.17,-290 571.17,-290 571.17,-224 344.17,-224"/>
<text text-anchor="start" x="359.68" y="-278" font-family="Times,serif" font-size="10.00">amount = 25.0</text>
<text text-anchor="start" x="359.68" y="-266" font-family="Times,serif" font-size="10.00">description = &quot;reference&quot;</text>
<text text-anchor="start" x="359.68" y="-254" font-family="Times,serif" font-size="10.00">id = &quot;544064e7&#45;93d3&#45;4800&#45;9bc5&#45;a8ac558e69e3&quot;</text>
<text text-anchor="start" x="359.68" y="-242" font-family="Times,serif" font-size="10.00">rejectionDescription = &quot;&quot;</text>
<text text-anchor="start" x="359.68" y="-230" font-family="Times,serif" font-size="10.00">timestamp = 2021&#45;11&#45;28T10:45:04.260649600</text>
</g>
<!-- b&#45;&gt;544064e7_93d3_4800_9bc5_a8ac558e69e3 -->
<g id="edge5" class="edge">
<title>b&#45;&gt;544064e7_93d3_4800_9bc5_a8ac558e69e3</title>
<path fill="none" stroke="black" d="M395.23,-347.93C402.87,-337.95 412.9,-324.84 422.66,-312.08"/>
<text text-anchor="middle" x="398.78" y="-315.08" font-family="Times,serif" font-size="10.00">transactions</text>
<text text-anchor="middle" x="385.51" y="-338.93" font-family="Times,serif" font-size="10.00">bank</text>
</g>
<!-- b1 -->
<g id="node2" class="node">
<title>b1</title>
<polygon fill="none" stroke="black" points="1110.17,-260 1110.17,-278 1152.17,-278 1152.17,-260 1110.17,-260"/>
<text text-anchor="start" x="1112.97" y="-267" font-family="Times,serif" text-decoration="underline" font-size="10.00">b1 :Bank</text>
<polygon fill="none" stroke="black" points="1110.17,-254 1110.17,-260 1152.17,-260 1152.17,-254 1110.17,-254"/>
</g>
<!-- 6a5d96fd_1b2a_41b0_906b_edf78bd84cf2 -->
<g id="node8" class="node">
<title>6a5d96fd_1b2a_41b0_906b_edf78bd84cf2</title>
<polygon fill="none" stroke="black" points="780.17,-162 780.17,-180 991.17,-180 991.17,-162 780.17,-162"/>
<text text-anchor="start" x="783.06" y="-169" font-family="Times,serif" text-decoration="underline" font-size="10.00">6a5d96fd&#45;1b2a&#45;41b0&#45;906b&#45;edf78bd84cf2 :Account</text>
<polygon fill="none" stroke="black" points="780.17,-132 780.17,-162 991.17,-162 991.17,-132 780.17,-132"/>
<text text-anchor="start" x="789.35" y="-150" font-family="Times,serif" font-size="10.00">balance = 69420.0</text>
<text text-anchor="start" x="789.35" y="-138" font-family="Times,serif" font-size="10.00">id = &quot;6a5d96fd&#45;1b2a&#45;41b0&#45;906b&#45;edf78bd84cf2&quot;</text>
</g>
<!-- b1&#45;&gt;6a5d96fd_1b2a_41b0_906b_edf78bd84cf2 -->
<g id="edge6" class="edge">
<title>b1&#45;&gt;6a5d96fd_1b2a_41b0_906b_edf78bd84cf2</title>
<path fill="none" stroke="black" d="M1101.98,-252.19C1063.93,-235.48 996.38,-205.82 946.76,-184.04"/>
<text text-anchor="middle" x="920.1" y="-187.04" font-family="Times,serif" font-size="10.00">bankAccount</text>
<text text-anchor="middle" x="1092.26" y="-255.19" font-family="Times,serif" font-size="10.00">bank</text>
</g>
<!-- 4d4db8be_8821_47ed_b472_d6284fa41ede -->
<g id="node9" class="node">
<title>4d4db8be_8821_47ed_b472_d6284fa41ede</title>
<polygon fill="none" stroke="black" points="1025.17,-162 1025.17,-180 1238.17,-180 1238.17,-162 1025.17,-162"/>
<text text-anchor="start" x="1027.67" y="-169" font-family="Times,serif" text-decoration="underline" font-size="10.00">4d4db8be&#45;8821&#45;47ed&#45;b472&#45;d6284fa41ede :Account</text>
<polygon fill="none" stroke="black" points="1025.17,-132 1025.17,-162 1238.17,-162 1238.17,-132 1025.17,-132"/>
<text text-anchor="start" x="1033.96" y="-150" font-family="Times,serif" font-size="10.00">balance = 0.0</text>
<text text-anchor="start" x="1033.96" y="-138" font-family="Times,serif" font-size="10.00">id = &quot;4d4db8be&#45;8821&#45;47ed&#45;b472&#45;d6284fa41ede&quot;</text>
</g>
<!-- b1&#45;&gt;4d4db8be_8821_47ed_b472_d6284fa41ede -->
<g id="edge7" class="edge">
<title>b1&#45;&gt;4d4db8be_8821_47ed_b472_d6284fa41ede</title>
<path fill="none" stroke="black" d="M1131.17,-247.65C1131.17,-230.48 1131.17,-203.94 1131.17,-184.01"/>
<text text-anchor="middle" x="1113.67" y="-187.01" font-family="Times,serif" font-size="10.00">accounts</text>
<text text-anchor="middle" x="1121.45" y="-238.65" font-family="Times,serif" font-size="10.00">bank</text>
</g>
<!-- 7db0334e_ae55_4f41_9ddd_b69e0e3b3c8f -->
<g id="node10" class="node">
<title>7db0334e_ae55_4f41_9ddd_b69e0e3b3c8f</title>
<polygon fill="none" stroke="black" points="1094.17,-70 1094.17,-88 1310.17,-88 1310.17,-70 1094.17,-70"/>
<text text-anchor="start" x="1096.78" y="-77" font-family="Times,serif" text-decoration="underline" font-size="10.00">7db0334e&#45;ae55&#45;4f41&#45;9ddd&#45;b69e0e3b3c8f :Customer</text>
<polygon fill="none" stroke="black" points="1094.17,-4 1094.17,-70 1310.17,-70 1310.17,-4 1094.17,-4"/>
<text text-anchor="start" x="1105.57" y="-58" font-family="Times,serif" font-size="10.00">email = &quot;bobby@tt.ee&quot;</text>
<text text-anchor="start" x="1105.57" y="-46" font-family="Times,serif" font-size="10.00">firstName = &quot;Bob&quot;</text>
<text text-anchor="start" x="1105.57" y="-34" font-family="Times,serif" font-size="10.00">id = &quot;7db0334e&#45;ae55&#45;4f41&#45;9ddd&#45;b69e0e3b3c8f&quot;</text>
<text text-anchor="start" x="1105.57" y="-22" font-family="Times,serif" font-size="10.00">lastName = &quot;Jackson&quot;</text>
<text text-anchor="start" x="1105.57" y="-10" font-family="Times,serif" font-size="10.00">password = &quot;secret&quot;</text>
</g>
<!-- b1&#45;&gt;7db0334e_ae55_4f41_9ddd_b69e0e3b3c8f -->
<g id="edge8" class="edge">
<title>b1&#45;&gt;7db0334e_ae55_4f41_9ddd_b69e0e3b3c8f</title>
<path fill="none" stroke="black" d="M1160.2,-255.4C1190.13,-243.76 1235.16,-220.97 1255.17,-184 1271.07,-154.62 1256.82,-119.43 1239.11,-92.08"/>
<text text-anchor="middle" x="1218.84" y="-95.08" font-family="Times,serif" font-size="10.00">customers</text>
<text text-anchor="middle" x="1169.92" y="-258.4" font-family="Times,serif" font-size="10.00">bank</text>
</g>
<!-- c -->
<g id="node11" class="node">
<title>c</title>
<polygon fill="none" stroke="black" points="604.17,-46 604.17,-64 738.17,-64 738.17,-46 604.17,-46"/>
<text text-anchor="start" x="647.71" y="-53" font-family="Times,serif" text-decoration="underline" font-size="10.00">c :Currency</text>
<polygon fill="none" stroke="black" points="604.17,-28 604.17,-46 738.17,-46 738.17,-28 604.17,-28"/>
<text text-anchor="start" x="607.17" y="-34" font-family="Times,serif" font-size="10.00">declaringClass = class Currency</text>
</g>
<!-- 597eaeb0_ee72_4c3e_b369_391886fa420d&#45;&gt;c -->
<g id="edge9" class="edge">
<title>597eaeb0_ee72_4c3e_b369_391886fa420d&#45;&gt;c</title>
<path fill="none" stroke="black" d="M747.1,-237.89C744.24,-209.62 737.68,-164.43 723.17,-128 714.45,-106.11 699.56,-83.76 687.94,-68.1"/>
<text text-anchor="middle" x="670.45" y="-71.1" font-family="Times,serif" font-size="10.00">currency</text>
</g>
<!-- ddc08abf_bbe4_4068_8195_bf45be271337&#45;&gt;9a3f637b_8483_4e6a_b431_54dc5092ca57 -->
<g id="edge11" class="edge">
<title>ddc08abf_bbe4_4068_8195_bf45be271337&#45;&gt;9a3f637b_8483_4e6a_b431_54dc5092ca57</title>
<path fill="none" stroke="black" d="M272.05,-127.75C256.54,-116.94 238.28,-104.21 220.9,-92.1"/>
<text text-anchor="middle" x="208.4" y="-95.1" font-family="Times,serif" font-size="10.00">owner</text>
<text text-anchor="middle" x="256.51" y="-118.75" font-family="Times,serif" font-size="10.00">account</text>
</g>
<!-- ddc08abf_bbe4_4068_8195_bf45be271337&#45;&gt;c -->
<g id="edge10" class="edge">
<title>ddc08abf_bbe4_4068_8195_bf45be271337&#45;&gt;c</title>
<path fill="none" stroke="black" d="M401.55,-127.89C463.3,-109.36 543.95,-85.16 600.9,-68.08"/>
<text text-anchor="middle" x="583.41" y="-71.08" font-family="Times,serif" font-size="10.00">currency</text>
</g>
<!-- 544064e7_93d3_4800_9bc5_a8ac558e69e3&#45;&gt;ddc08abf_bbe4_4068_8195_bf45be271337 -->
<g id="edge14" class="edge">
<title>544064e7_93d3_4800_9bc5_a8ac558e69e3&#45;&gt;ddc08abf_bbe4_4068_8195_bf45be271337</title>
<path fill="none" stroke="black" d="M396.1,-219.82C379.69,-207.69 362.45,-194.94 347.83,-184.12"/>
<text text-anchor="middle" x="334.78" y="-187.12" font-family="Times,serif" font-size="10.00">source</text>
</g>
<!-- 544064e7_93d3_4800_9bc5_a8ac558e69e3&#45;&gt;c -->
<g id="edge12" class="edge">
<title>544064e7_93d3_4800_9bc5_a8ac558e69e3&#45;&gt;c</title>
<path fill="none" stroke="black" d="M452.62,-219.95C452.09,-190.9 456.21,-153.85 476.17,-128 505.07,-90.57 554.35,-70.29 596.15,-59.39"/>
<text text-anchor="middle" x="578.66" y="-50.39" font-family="Times,serif" font-size="10.00">currency</text>
</g>
<!-- 4d4db8be_8821_47ed_b472_d6284fa41ede2 -->
<g id="node12" class="node">
<title>4d4db8be_8821_47ed_b472_d6284fa41ede2</title>
<polygon fill="none" stroke="black" points="494.17,-156 494.17,-174 707.17,-174 707.17,-156 494.17,-156"/>
<text text-anchor="start" x="496.67" y="-163" font-family="Times,serif" text-decoration="underline" font-size="10.00">4d4db8be&#45;8821&#45;47ed&#45;b472&#45;d6284fa41ede :Account</text>
<polygon fill="none" stroke="black" points="494.17,-138 494.17,-156 707.17,-156 707.17,-138 494.17,-138"/>
<text text-anchor="start" x="502.96" y="-144" font-family="Times,serif" font-size="10.00">id = &quot;4d4db8be&#45;8821&#45;47ed&#45;b472&#45;d6284fa41ede&quot;</text>
</g>
<!-- 544064e7_93d3_4800_9bc5_a8ac558e69e3&#45;&gt;4d4db8be_8821_47ed_b472_d6284fa41ede2 -->
<g id="edge13" class="edge">
<title>544064e7_93d3_4800_9bc5_a8ac558e69e3&#45;&gt;4d4db8be_8821_47ed_b472_d6284fa41ede2</title>
<path fill="none" stroke="black" d="M516.98,-219.82C536.12,-205.37 556.4,-190.06 572.14,-178.16"/>
<text text-anchor="middle" x="550.2" y="-181.16" font-family="Times,serif" font-size="10.00">destination</text>
</g>
<!-- 6a5d96fd_1b2a_41b0_906b_edf78bd84cf2&#45;&gt;c -->
<g id="edge15" class="edge">
<title>6a5d96fd_1b2a_41b0_906b_edf78bd84cf2&#45;&gt;c</title>
<path fill="none" stroke="black" d="M831.44,-127.89C794.79,-109.39 746.95,-85.25 713.11,-68.17"/>
<text text-anchor="middle" x="730.59" y="-71.17" font-family="Times,serif" font-size="10.00">currency</text>
</g>
<!-- 4d4db8be_8821_47ed_b472_d6284fa41ede&#45;&gt;7db0334e_ae55_4f41_9ddd_b69e0e3b3c8f -->
<g id="edge17" class="edge">
<title>4d4db8be_8821_47ed_b472_d6284fa41ede&#45;&gt;7db0334e_ae55_4f41_9ddd_b69e0e3b3c8f</title>
<path fill="none" stroke="black" d="M1149.08,-127.75C1156.15,-117 1164.46,-104.36 1172.38,-92.31"/>
<text text-anchor="middle" x="1159.88" y="-95.31" font-family="Times,serif" font-size="10.00">owner</text>
<text text-anchor="middle" x="1133.53" y="-118.75" font-family="Times,serif" font-size="10.00">account</text>
</g>
<!-- 4d4db8be_8821_47ed_b472_d6284fa41ede&#45;&gt;c -->
<g id="edge16" class="edge">
<title>4d4db8be_8821_47ed_b472_d6284fa41ede&#45;&gt;c</title>
<path fill="none" stroke="black" d="M1016.57,-128.1C932.09,-108.26 819.56,-81.84 746.26,-64.63"/>
<text text-anchor="middle" x="763.74" y="-55.63" font-family="Times,serif" font-size="10.00">currency</text>
</g>
<!-- 4d4db8be_8821_47ed_b472_d6284fa41ede2&#45;&gt;b -->
<g id="edge18" class="edge">
<title>4d4db8be_8821_47ed_b472_d6284fa41ede2&#45;&gt;b</title>
<path fill="none" stroke="black" d="M605.32,-178.14C611.94,-210.91 619.12,-274.12 587.17,-312 564.35,-339.04 459.93,-355.38 409.54,-361.83"/>
<text text-anchor="middle" x="419.26" y="-364.83" font-family="Times,serif" font-size="10.00">bank</text>
</g>
<!-- 4d4db8be_8821_47ed_b472_d6284fa41ede2&#45;&gt;c -->
<g id="edge19" class="edge">
<title>4d4db8be_8821_47ed_b472_d6284fa41ede2&#45;&gt;c</title>
<path fill="none" stroke="black" d="M614.02,-133.92C626.53,-114.89 644.84,-87.04 657.34,-68.03"/>
<text text-anchor="middle" x="639.86" y="-71.03" font-family="Times,serif" font-size="10.00">currency</text>
</g>
</g>
</svg>
