<?xml version="1.0" encoding="UTF-8" standalone="no"?>
<!DOCTYPE svg PUBLIC "-//W3C//DTD SVG 1.1//EN"
 "http://www.w3.org/Graphics/SVG/1.1/DTD/svg11.dtd">
<!-- Generated by graphviz version 2.43.0 (0)
 -->
<!-- Title: model Pages: 1 -->
<svg width="1182px" height="449px"
 viewBox="0.00 0.00 1182.26 449.00" xmlns="http://www.w3.org/2000/svg" xmlns:xlink="http://www.w3.org/1999/xlink">
<g id="graph0" class="graph" transform="scale(1.0 1.0) rotate(0) translate(4 445)">
<title>model</title>
<polygon fill="white" stroke="transparent" points="-4,4 -4,-445 1178.26,-445 1178.26,4 -4,4"/>
<!-- a1f57283_56d7_42cc_8ebf_6ef1a9ab7f51 -->
<g id="node1" class="node">
<title>a1f57283_56d7_42cc_8ebf_6ef1a9ab7f51</title>
<polygon fill="none" stroke="black" points="92.76,-420 92.76,-437 370.76,-437 370.76,-420 92.76,-420"/>
<text text-anchor="start" x="121.76" y="-427" font-family="Times,serif" text-decoration="underline" font-size="10.00">a1f57283&#45;56d7&#45;42cc&#45;8ebf&#45;6ef1a9ab7f51 :Transaction</text>
<polygon fill="none" stroke="black" points="92.76,-359 92.76,-420 370.76,-420 370.76,-359 92.76,-359"/>
<text text-anchor="start" x="95.76" y="-409" font-family="Times,serif" font-size="10.00">amount = 50.0</text>
<text text-anchor="start" x="95.76" y="-398" font-family="Times,serif" font-size="10.00">description = &quot;Expensive fee&quot;</text>
<text text-anchor="start" x="95.76" y="-387" font-family="Times,serif" font-size="10.00">id = &quot;a1f57283&#45;56d7&#45;42cc&#45;8ebf&#45;6ef1a9ab7f51&quot;</text>
<text text-anchor="start" x="95.76" y="-376" font-family="Times,serif" font-size="10.00">rejectionDescription = &quot;Not enough money on the source account&quot;</text>
<text text-anchor="start" x="95.76" y="-365" font-family="Times,serif" font-size="10.00">timestamp = 2021&#45;12&#45;04T18:20:19.680241943</text>
</g>
<!-- b -->
<g id="node2" class="node">
<title>b</title>
<polygon fill="none" stroke="black" points="267.76,-297.5 267.76,-314.5 927.76,-314.5 927.76,-297.5 267.76,-297.5"/>
<text text-anchor="start" x="581.26" y="-304.5" font-family="Times,serif" text-decoration="underline" font-size="10.00">b :Bank</text>
<polygon fill="none" stroke="black" points="267.76,-269.5 267.76,-297.5 927.76,-297.5 927.76,-269.5 267.76,-269.5"/>
<text text-anchor="start" x="270.76" y="-286.5" font-family="Times,serif" font-size="10.00">accountsMap = sendItToTheBank8a633aa5&#45;907c&#45;4e57&#45;a313&#45;22e0adb2672e7ec351d6&#45;652f&#45;4691&#45;8e72&#45;ea432d44a0c8cd1fc49a&#45;42eb&#45;48fe&#45;aba9&#45;28237ddd54e1</text>
<text text-anchor="start" x="270.76" y="-275.5" font-family="Times,serif" font-size="10.00">customerMap = e2f7bc4c&#45;ef2a&#45;466e&#45;b8a5&#45;d24f48b13afe1eaf6f4c&#45;4f92&#45;4e04&#45;bd87&#45;c82be03265deda47290c&#45;d120&#45;4144&#45;baf0&#45;d2a07c9fab49</text>
</g>
<!-- a1f57283_56d7_42cc_8ebf_6ef1a9ab7f51&#45;&gt;b -->
<g id="edge1" class="edge">
<title>a1f57283_56d7_42cc_8ebf_6ef1a9ab7f51&#45;&gt;b</title>
<path fill="none" stroke="black" d="M378.78,-355.42C422.31,-343.12 468.67,-330.01 507.47,-319.03"/>
<text text-anchor="middle" x="496.97" y="-322.03" font-family="Times,serif" font-size="10.00">bank</text>
<text text-anchor="middle" x="354.28" y="-347.42" font-family="Times,serif" font-size="10.00">transactions</text>
</g>
<!-- c -->
<g id="node3" class="node">
<title>c</title>
<polygon fill="none" stroke="black" points="163.76,-43 163.76,-60 327.76,-60 327.76,-43 163.76,-43"/>
<text text-anchor="start" x="221.76" y="-50" font-family="Times,serif" text-decoration="underline" font-size="10.00">c :Currency</text>
<polygon fill="none" stroke="black" points="163.76,-26 163.76,-43 327.76,-43 327.76,-26 163.76,-26"/>
<text text-anchor="start" x="166.76" y="-32" font-family="Times,serif" font-size="10.00">declaringClass = class model.Currency</text>
</g>
<!-- a1f57283_56d7_42cc_8ebf_6ef1a9ab7f51&#45;&gt;c -->
<g id="edge2" class="edge">
<title>a1f57283_56d7_42cc_8ebf_6ef1a9ab7f51&#45;&gt;c</title>
<path fill="none" stroke="black" d="M146.37,-354.88C99.38,-326.65 45.34,-284.61 18.76,-230 -2.24,-186.84 -9.12,-161.07 18.76,-122 49.75,-78.59 106.5,-59.09 155.51,-50.44"/>
<text text-anchor="middle" x="137.51" y="-53.44" font-family="Times,serif" font-size="10.00">currency</text>
</g>
<!-- sendItToTheBank -->
<g id="node4" class="node">
<title>sendItToTheBank</title>
<polygon fill="none" stroke="black" points="36.76,-209 36.76,-226 185.76,-226 185.76,-209 36.76,-209"/>
<text text-anchor="start" x="54.26" y="-216" font-family="Times,serif" text-decoration="underline" font-size="10.00">sendItToTheBank :Account</text>
<polygon fill="none" stroke="black" points="36.76,-126 36.76,-209 185.76,-209 185.76,-126 36.76,-126"/>
<text text-anchor="start" x="39.76" y="-198" font-family="Times,serif" font-size="10.00">balance = 69420.0</text>
<text text-anchor="start" x="39.76" y="-187" font-family="Times,serif" font-size="10.00">customerId = null</text>
<text text-anchor="start" x="39.76" y="-176" font-family="Times,serif" font-size="10.00">iban = &quot;EE437431553481997926&quot;</text>
<text text-anchor="start" x="39.76" y="-165" font-family="Times,serif" font-size="10.00">id = &quot;sendItToTheBank&quot;</text>
<text text-anchor="start" x="39.76" y="-154" font-family="Times,serif" font-size="10.00">receivedTransaction = </text>
<text text-anchor="start" x="39.76" y="-143" font-family="Times,serif" font-size="10.00">sentTransaction = </text>
<text text-anchor="start" x="39.76" y="-132" font-family="Times,serif" font-size="10.00">status = &quot;ACTIVE&quot;</text>
</g>
<!-- a1f57283_56d7_42cc_8ebf_6ef1a9ab7f51&#45;&gt;sendItToTheBank -->
<g id="edge3" class="edge">
<title>a1f57283_56d7_42cc_8ebf_6ef1a9ab7f51&#45;&gt;sendItToTheBank</title>
<path fill="none" stroke="black" d="M208.58,-354.84C189.09,-319.41 161.13,-268.57 140.09,-230.31"/>
<text text-anchor="middle" x="117.09" y="-233.31" font-family="Times,serif" font-size="10.00">destination</text>
</g>
<!-- cd1fc49a_42eb_48fe_aba9_28237ddd54e1 -->
<g id="node5" class="node">
<title>cd1fc49a_42eb_48fe_aba9_28237ddd54e1</title>
<polygon fill="none" stroke="black" points="219.76,-209 219.76,-226 436.76,-226 436.76,-209 219.76,-209"/>
<text text-anchor="start" x="222.76" y="-216" font-family="Times,serif" text-decoration="underline" font-size="10.00">cd1fc49a&#45;42eb&#45;48fe&#45;aba9&#45;28237ddd54e1 :Account</text>
<polygon fill="none" stroke="black" points="219.76,-126 219.76,-209 436.76,-209 436.76,-126 219.76,-126"/>
<text text-anchor="start" x="230.26" y="-198" font-family="Times,serif" font-size="10.00">balance = 10.0</text>
<text text-anchor="start" x="230.26" y="-187" font-family="Times,serif" font-size="10.00">customerId = null</text>
<text text-anchor="start" x="230.26" y="-176" font-family="Times,serif" font-size="10.00">iban = &quot;EE411807591130179316&quot;</text>
<text text-anchor="start" x="230.26" y="-165" font-family="Times,serif" font-size="10.00">id = &quot;cd1fc49a&#45;42eb&#45;48fe&#45;aba9&#45;28237ddd54e1&quot;</text>
<text text-anchor="start" x="230.26" y="-154" font-family="Times,serif" font-size="10.00">receivedTransaction = </text>
<text text-anchor="start" x="230.26" y="-143" font-family="Times,serif" font-size="10.00">sentTransaction = </text>
<text text-anchor="start" x="230.26" y="-132" font-family="Times,serif" font-size="10.00">status = &quot;ACTIVE&quot;</text>
</g>
<!-- a1f57283_56d7_42cc_8ebf_6ef1a9ab7f51&#45;&gt;cd1fc49a_42eb_48fe_aba9_28237ddd54e1 -->
<g id="edge4" class="edge">
<title>a1f57283_56d7_42cc_8ebf_6ef1a9ab7f51&#45;&gt;cd1fc49a_42eb_48fe_aba9_28237ddd54e1</title>
<path fill="none" stroke="black" d="M231.89,-354.89C233.39,-328.33 238.01,-293.9 250.76,-266 256.54,-253.36 264.68,-241.16 273.52,-230.05"/>
<text text-anchor="middle" x="260.02" y="-233.05" font-family="Times,serif" font-size="10.00">source</text>
</g>
<!-- s -->
<g id="node6" class="node">
<title>s</title>
<polygon fill="none" stroke="black" points="961.76,-292.5 961.76,-309.5 1166.76,-309.5 1166.76,-292.5 961.76,-292.5"/>
<text text-anchor="start" x="1047.26" y="-299.5" font-family="Times,serif" text-decoration="underline" font-size="10.00">s :Status</text>
<polygon fill="none" stroke="black" points="961.76,-275.5 961.76,-292.5 1166.76,-292.5 1166.76,-275.5 961.76,-275.5"/>
<text text-anchor="start" x="964.76" y="-281.5" font-family="Times,serif" font-size="10.00">declaringClass = class model.Transaction$Status</text>
</g>
<!-- a1f57283_56d7_42cc_8ebf_6ef1a9ab7f51&#45;&gt;s -->
<g id="edge5" class="edge">
<title>a1f57283_56d7_42cc_8ebf_6ef1a9ab7f51&#45;&gt;s</title>
<path fill="none" stroke="black" d="M378.81,-385.33C523.39,-372.82 750.07,-350.43 944.76,-319 954.67,-317.4 965,-315.52 975.25,-313.51"/>
<text text-anchor="middle" x="963.25" y="-316.51" font-family="Times,serif" font-size="10.00">status</text>
</g>
<!-- b&#45;&gt;sendItToTheBank -->
<g id="edge6" class="edge">
<title>b&#45;&gt;sendItToTheBank</title>
<path fill="none" stroke="black" d="M341.04,-265.95C293.94,-257.26 245.78,-245.61 201.76,-230 199.01,-229.02 196.24,-227.96 193.47,-226.83"/>
<text text-anchor="middle" x="221.47" y="-229.83" font-family="Times,serif" font-size="10.00">bankAccount</text>
<text text-anchor="middle" x="330.54" y="-257.95" font-family="Times,serif" font-size="10.00">bank</text>
</g>
<!-- b&#45;&gt;cd1fc49a_42eb_48fe_aba9_28237ddd54e1 -->
<g id="edge9" class="edge">
<title>b&#45;&gt;cd1fc49a_42eb_48fe_aba9_28237ddd54e1</title>
<path fill="none" stroke="black" d="M537.51,-265.95C510,-254.28 476.44,-240.05 444.31,-226.42"/>
<text text-anchor="middle" x="462.81" y="-229.42" font-family="Times,serif" font-size="10.00">accounts</text>
<text text-anchor="middle" x="548.01" y="-257.95" font-family="Times,serif" font-size="10.00">bank</text>
</g>
<!-- 8a633aa5_907c_4e57_a313_22e0adb2672e -->
<g id="node7" class="node">
<title>8a633aa5_907c_4e57_a313_22e0adb2672e</title>
<polygon fill="none" stroke="black" points="814.76,-209 814.76,-226 1052.76,-226 1052.76,-209 814.76,-209"/>
<text text-anchor="start" x="826.76" y="-216" font-family="Times,serif" text-decoration="underline" font-size="10.00">8a633aa5&#45;907c&#45;4e57&#45;a313&#45;22e0adb2672e :Account</text>
<polygon fill="none" stroke="black" points="814.76,-126 814.76,-209 1052.76,-209 1052.76,-126 814.76,-126"/>
<text text-anchor="start" x="817.76" y="-198" font-family="Times,serif" font-size="10.00">balance = 0.0</text>
<text text-anchor="start" x="817.76" y="-187" font-family="Times,serif" font-size="10.00">customerId = &quot;1eaf6f4c&#45;4f92&#45;4e04&#45;bd87&#45;c82be03265de&quot;</text>
<text text-anchor="start" x="817.76" y="-176" font-family="Times,serif" font-size="10.00">iban = null</text>
<text text-anchor="start" x="817.76" y="-165" font-family="Times,serif" font-size="10.00">id = &quot;8a633aa5&#45;907c&#45;4e57&#45;a313&#45;22e0adb2672e&quot;</text>
<text text-anchor="start" x="817.76" y="-154" font-family="Times,serif" font-size="10.00">receivedTransaction = </text>
<text text-anchor="start" x="817.76" y="-143" font-family="Times,serif" font-size="10.00">sentTransaction = </text>
<text text-anchor="start" x="817.76" y="-132" font-family="Times,serif" font-size="10.00">status = &quot;ACTIVE&quot;</text>
</g>
<!-- b&#45;&gt;8a633aa5_907c_4e57_a313_22e0adb2672e -->
<g id="edge7" class="edge">
<title>b&#45;&gt;8a633aa5_907c_4e57_a313_22e0adb2672e</title>
<path fill="none" stroke="black" d="M682.56,-265.85C716.91,-255.18 756.86,-242.4 792.76,-230 797.34,-228.42 801.99,-226.79 806.67,-225.13"/>
<text text-anchor="middle" x="788.17" y="-228.13" font-family="Times,serif" font-size="10.00">accounts</text>
<text text-anchor="middle" x="672.06" y="-257.85" font-family="Times,serif" font-size="10.00">bank</text>
</g>
<!-- 7ec351d6_652f_4691_8e72_ea432d44a0c8 -->
<g id="node8" class="node">
<title>7ec351d6_652f_4691_8e72_ea432d44a0c8</title>
<polygon fill="none" stroke="black" points="508.76,-209 508.76,-226 742.76,-226 742.76,-209 508.76,-209"/>
<text text-anchor="start" x="518.76" y="-216" font-family="Times,serif" text-decoration="underline" font-size="10.00">7ec351d6&#45;652f&#45;4691&#45;8e72&#45;ea432d44a0c8 :Account</text>
<polygon fill="none" stroke="black" points="508.76,-126 508.76,-209 742.76,-209 742.76,-126 508.76,-126"/>
<text text-anchor="start" x="511.76" y="-198" font-family="Times,serif" font-size="10.00">balance = 100.0</text>
<text text-anchor="start" x="511.76" y="-187" font-family="Times,serif" font-size="10.00">customerId = &quot;e2f7bc4c&#45;ef2a&#45;466e&#45;b8a5&#45;d24f48b13afe&quot;</text>
<text text-anchor="start" x="511.76" y="-176" font-family="Times,serif" font-size="10.00">iban = null</text>
<text text-anchor="start" x="511.76" y="-165" font-family="Times,serif" font-size="10.00">id = &quot;7ec351d6&#45;652f&#45;4691&#45;8e72&#45;ea432d44a0c8&quot;</text>
<text text-anchor="start" x="511.76" y="-154" font-family="Times,serif" font-size="10.00">receivedTransaction = </text>
<text text-anchor="start" x="511.76" y="-143" font-family="Times,serif" font-size="10.00">sentTransaction = </text>
<text text-anchor="start" x="511.76" y="-132" font-family="Times,serif" font-size="10.00">status = &quot;ACTIVE&quot;</text>
</g>
<!-- b&#45;&gt;7ec351d6_652f_4691_8e72_ea432d44a0c8 -->
<g id="edge8" class="edge">
<title>b&#45;&gt;7ec351d6_652f_4691_8e72_ea432d44a0c8</title>
<path fill="none" stroke="black" d="M604.05,-265.8C606.63,-255.25 609.72,-242.63 612.74,-230.25"/>
<text text-anchor="middle" x="594.24" y="-233.25" font-family="Times,serif" font-size="10.00">accounts</text>
<text text-anchor="middle" x="593.55" y="-257.8" font-family="Times,serif" font-size="10.00">bank</text>
</g>
<!-- e2f7bc4c_ef2a_466e_b8a5_d24f48b13afe -->
<g id="node9" class="node">
<title>e2f7bc4c_ef2a_466e_b8a5_d24f48b13afe</title>
<polygon fill="none" stroke="black" points="644.76,-65 644.76,-82 859.76,-82 859.76,-65 644.76,-65"/>
<text text-anchor="start" x="647.76" y="-72" font-family="Times,serif" text-decoration="underline" font-size="10.00">e2f7bc4c&#45;ef2a&#45;466e&#45;b8a5&#45;d24f48b13afe :Customer</text>
<polygon fill="none" stroke="black" points="644.76,-4 644.76,-65 859.76,-65 859.76,-4 644.76,-4"/>
<text text-anchor="start" x="656.76" y="-54" font-family="Times,serif" font-size="10.00">email = &quot;john@doe.ee&quot;</text>
<text text-anchor="start" x="656.76" y="-43" font-family="Times,serif" font-size="10.00">firstName = &quot;John&quot;</text>
<text text-anchor="start" x="656.76" y="-32" font-family="Times,serif" font-size="10.00">id = &quot;e2f7bc4c&#45;ef2a&#45;466e&#45;b8a5&#45;d24f48b13afe&quot;</text>
<text text-anchor="start" x="656.76" y="-21" font-family="Times,serif" font-size="10.00">lastName = &quot;Doe&quot;</text>
<text text-anchor="start" x="656.76" y="-10" font-family="Times,serif" font-size="10.00">password = &quot;pass1234&quot;</text>
</g>
<!-- b&#45;&gt;e2f7bc4c_ef2a_466e_b8a5_d24f48b13afe -->
<g id="edge10" class="edge">
<title>b&#45;&gt;e2f7bc4c_ef2a_466e_b8a5_d24f48b13afe</title>
<path fill="none" stroke="black" d="M716.81,-265.94C733.72,-257.25 749,-245.6 759.76,-230 788.86,-187.83 778.86,-126.58 767.02,-86.04"/>
<text text-anchor="middle" x="746.52" y="-89.04" font-family="Times,serif" font-size="10.00">customers</text>
<text text-anchor="middle" x="706.31" y="-257.94" font-family="Times,serif" font-size="10.00">bank</text>
</g>
<!-- 1eaf6f4c_4f92_4e04_bd87_c82be03265de -->
<g id="node10" class="node">
<title>1eaf6f4c_4f92_4e04_bd87_c82be03265de</title>
<polygon fill="none" stroke="black" points="936.76,-65 936.76,-82 1155.76,-82 1155.76,-65 936.76,-65"/>
<text text-anchor="start" x="939.76" y="-72" font-family="Times,serif" text-decoration="underline" font-size="10.00">1eaf6f4c&#45;4f92&#45;4e04&#45;bd87&#45;c82be03265de :Customer</text>
<polygon fill="none" stroke="black" points="936.76,-4 936.76,-65 1155.76,-65 1155.76,-4 936.76,-4"/>
<text text-anchor="start" x="948.76" y="-54" font-family="Times,serif" font-size="10.00">email = &quot;bobby@tt.ee&quot;</text>
<text text-anchor="start" x="948.76" y="-43" font-family="Times,serif" font-size="10.00">firstName = &quot;Bob&quot;</text>
<text text-anchor="start" x="948.76" y="-32" font-family="Times,serif" font-size="10.00">id = &quot;1eaf6f4c&#45;4f92&#45;4e04&#45;bd87&#45;c82be03265de&quot;</text>
<text text-anchor="start" x="948.76" y="-21" font-family="Times,serif" font-size="10.00">lastName = &quot;Jackson&quot;</text>
<text text-anchor="start" x="948.76" y="-10" font-family="Times,serif" font-size="10.00">password = &quot;secret&quot;</text>
</g>
<!-- b&#45;&gt;1eaf6f4c_4f92_4e04_bd87_c82be03265de -->
<g id="edge11" class="edge">
<title>b&#45;&gt;1eaf6f4c_4f92_4e04_bd87_c82be03265de</title>
<path fill="none" stroke="black" d="M913.05,-265.97C991.51,-256.47 1057.1,-244.42 1069.76,-230 1104.14,-190.86 1086.17,-127.99 1067.86,-86.34"/>
<text text-anchor="middle" x="1047.36" y="-89.34" font-family="Times,serif" font-size="10.00">customers</text>
<text text-anchor="middle" x="902.55" y="-257.97" font-family="Times,serif" font-size="10.00">bank</text>
</g>
<!-- da47290c_d120_4144_baf0_d2a07c9fab49 -->
<g id="node11" class="node">
<title>da47290c_d120_4144_baf0_d2a07c9fab49</title>
<polygon fill="none" stroke="black" points="361.76,-65 361.76,-82 583.76,-82 583.76,-65 361.76,-65"/>
<text text-anchor="start" x="364.76" y="-72" font-family="Times,serif" text-decoration="underline" font-size="10.00">da47290c&#45;d120&#45;4144&#45;baf0&#45;d2a07c9fab49 :Customer</text>
<polygon fill="none" stroke="black" points="361.76,-4 361.76,-65 583.76,-65 583.76,-4 361.76,-4"/>
<text text-anchor="start" x="373.76" y="-54" font-family="Times,serif" font-size="10.00">email = &quot;johntest@doe.ee&quot;</text>
<text text-anchor="start" x="373.76" y="-43" font-family="Times,serif" font-size="10.00">firstName = &quot;johntest&quot;</text>
<text text-anchor="start" x="373.76" y="-32" font-family="Times,serif" font-size="10.00">id = &quot;da47290c&#45;d120&#45;4144&#45;baf0&#45;d2a07c9fab49&quot;</text>
<text text-anchor="start" x="373.76" y="-21" font-family="Times,serif" font-size="10.00">lastName = &quot;Doe&quot;</text>
<text text-anchor="start" x="373.76" y="-10" font-family="Times,serif" font-size="10.00">password = &quot;pass1234&quot;</text>
</g>
<!-- b&#45;&gt;da47290c_d120_4144_baf0_d2a07c9fab49 -->
<g id="edge12" class="edge">
<title>b&#45;&gt;da47290c_d120_4144_baf0_d2a07c9fab49</title>
<path fill="none" stroke="black" d="M531.64,-265.85C516.21,-256.8 501.46,-245.01 491.76,-230 464.03,-187.05 463.23,-126.55 466.72,-86.34"/>
<text text-anchor="middle" x="487.22" y="-89.34" font-family="Times,serif" font-size="10.00">customers</text>
<text text-anchor="middle" x="521.14" y="-257.85" font-family="Times,serif" font-size="10.00">bank</text>
</g>
<!-- sendItToTheBank&#45;&gt;c -->
<g id="edge13" class="edge">
<title>sendItToTheBank&#45;&gt;c</title>
<path fill="none" stroke="black" d="M165.67,-121.72C186.55,-101.46 209.1,-79.58 224.93,-64.22"/>
<text text-anchor="middle" x="206.93" y="-67.22" font-family="Times,serif" font-size="10.00">currency</text>
</g>
<!-- cd1fc49a_42eb_48fe_aba9_28237ddd54e1&#45;&gt;c -->
<g id="edge14" class="edge">
<title>cd1fc49a_42eb_48fe_aba9_28237ddd54e1&#45;&gt;c</title>
<path fill="none" stroke="black" d="M294.41,-121.72C281.73,-101.46 268.04,-79.58 258.42,-64.22"/>
<text text-anchor="middle" x="276.42" y="-67.22" font-family="Times,serif" font-size="10.00">currency</text>
</g>
<!-- cd1fc49a_42eb_48fe_aba9_28237ddd54e1&#45;&gt;da47290c_d120_4144_baf0_d2a07c9fab49 -->
<g id="edge15" class="edge">
<title>cd1fc49a_42eb_48fe_aba9_28237ddd54e1&#45;&gt;da47290c_d120_4144_baf0_d2a07c9fab49</title>
<path fill="none" stroke="black" d="M386.74,-121.72C399.76,-109.96 413.38,-97.66 425.84,-86.4"/>
<text text-anchor="middle" x="412.84" y="-89.4" font-family="Times,serif" font-size="10.00">owner</text>
<text text-anchor="middle" x="370.24" y="-113.72" font-family="Times,serif" font-size="10.00">account</text>
</g>
<!-- 8a633aa5_907c_4e57_a313_22e0adb2672e&#45;&gt;c -->
<g id="edge16" class="edge">
<title>8a633aa5_907c_4e57_a313_22e0adb2672e&#45;&gt;c</title>
<path fill="none" stroke="black" d="M806.72,-132.97C791.03,-128.77 775.11,-124.97 759.76,-122 578,-86.84 524.42,-130.7 344.76,-86 324.47,-80.95 302.99,-72.28 285.24,-64.12"/>
<text text-anchor="middle" x="303.24" y="-67.12" font-family="Times,serif" font-size="10.00">currency</text>
</g>
<!-- 8a633aa5_907c_4e57_a313_22e0adb2672e&#45;&gt;1eaf6f4c_4f92_4e04_bd87_c82be03265de -->
<g id="edge17" class="edge">
<title>8a633aa5_907c_4e57_a313_22e0adb2672e&#45;&gt;1eaf6f4c_4f92_4e04_bd87_c82be03265de</title>
<path fill="none" stroke="black" d="M979.32,-121.72C989.37,-109.96 999.89,-97.66 1009.52,-86.4"/>
<text text-anchor="middle" x="996.52" y="-89.4" font-family="Times,serif" font-size="10.00">owner</text>
<text text-anchor="middle" x="962.82" y="-113.72" font-family="Times,serif" font-size="10.00">account</text>
</g>
<!-- 7ec351d6_652f_4691_8e72_ea432d44a0c8&#45;&gt;c -->
<g id="edge18" class="edge">
<title>7ec351d6_652f_4691_8e72_ea432d44a0c8&#45;&gt;c</title>
<path fill="none" stroke="black" d="M500.57,-136.61C440.04,-117.8 374.22,-96.89 344.76,-86 326.9,-79.4 307.56,-71.39 290.75,-64.14"/>
<text text-anchor="middle" x="272.75" y="-56.14" font-family="Times,serif" font-size="10.00">currency</text>
</g>
<!-- 7ec351d6_652f_4691_8e72_ea432d44a0c8&#45;&gt;e2f7bc4c_ef2a_466e_b8a5_d24f48b13afe -->
<g id="edge19" class="edge">
<title>7ec351d6_652f_4691_8e72_ea432d44a0c8&#45;&gt;e2f7bc4c_ef2a_466e_b8a5_d24f48b13afe</title>
<path fill="none" stroke="black" d="M677.01,-121.72C688.32,-109.96 700.16,-97.66 710.99,-86.4"/>
<text text-anchor="middle" x="697.99" y="-89.4" font-family="Times,serif" font-size="10.00">owner</text>
<text text-anchor="middle" x="660.51" y="-113.72" font-family="Times,serif" font-size="10.00">account</text>
</g>
</g>
</svg>
