<?xml version="1.0" encoding="UTF-8" standalone="no"?>
<!DOCTYPE svg PUBLIC "-//W3C//DTD SVG 1.1//EN"
 "http://www.w3.org/Graphics/SVG/1.1/DTD/svg11.dtd">
<!-- Generated by graphviz version 2.49.3 (20211023.0002)
 -->
<!-- Title: model Pages: 1 -->
<svg width="1734px" height="449px"
 viewBox="0.00 0.00 1733.50 449.00" xmlns="http://www.w3.org/2000/svg" xmlns:xlink="http://www.w3.org/1999/xlink">
<g id="graph0" class="graph" transform="scale(1.0 1.0) rotate(0) translate(4 445)">
<title>model</title>
<polygon fill="white" stroke="transparent" points="-4,4 -4,-445 1729.5,-445 1729.5,4 -4,4"/>
<!-- 0b528ddf_d823_4de7_b3d5_30e73f222216 -->
<g id="node1" class="node">
<title>0b528ddf_d823_4de7_b3d5_30e73f222216</title>
<polygon fill="none" stroke="black" points="803,-420 803,-437 1030,-437 1030,-420 803,-420"/>
<text text-anchor="start" x="806" y="-427" font-family="Times,serif" text-decoration="underline" font-size="10.00">0b528ddf&#45;d823&#45;4de7&#45;b3d5&#45;30e73f222216 :Transaction</text>
<polygon fill="none" stroke="black" points="803,-359 803,-420 1030,-420 1030,-359 803,-359"/>
<text text-anchor="start" x="818.5" y="-409" font-family="Times,serif" font-size="10.00">amount = 25.5</text>
<text text-anchor="start" x="818.5" y="-398" font-family="Times,serif" font-size="10.00">description = &quot;Ref: concert ticket&quot;</text>
<text text-anchor="start" x="818.5" y="-387" font-family="Times,serif" font-size="10.00">id = &quot;0b528ddf&#45;d823&#45;4de7&#45;b3d5&#45;30e73f222216&quot;</text>
<text text-anchor="start" x="818.5" y="-376" font-family="Times,serif" font-size="10.00">rejectionDescription = &quot;&quot;</text>
<text text-anchor="start" x="818.5" y="-365" font-family="Times,serif" font-size="10.00">timestamp = 2021&#45;12&#45;05T17:29:31.059852</text>
</g>
<!-- b -->
<g id="node2" class="node">
<title>b</title>
<polygon fill="none" stroke="black" points="509,-297.5 509,-314.5 1324,-314.5 1324,-297.5 509,-297.5"/>
<text text-anchor="start" x="900.5" y="-304.5" font-family="Times,serif" text-decoration="underline" font-size="10.00">b :Bank</text>
<polygon fill="none" stroke="black" points="509,-269.5 509,-297.5 1324,-297.5 1324,-269.5 509,-269.5"/>
<text text-anchor="start" x="512" y="-286.5" font-family="Times,serif" font-size="10.00">accountsMap = sendItToTheBank8a633aa5&#45;907c&#45;4e57&#45;a313&#45;22e0adb2672e7ec351d6&#45;652f&#45;4691&#45;8e72&#45;ea432d44a0c894d83e81&#45;2e61&#45;468b&#45;8ea9&#45;a98150372d88257ed93e&#45;f23a&#45;4d27&#45;8b9f&#45;abe09c045db4</text>
<text text-anchor="start" x="512" y="-275.5" font-family="Times,serif" font-size="10.00">customerMap = e2f7bc4c&#45;ef2a&#45;466e&#45;b8a5&#45;d24f48b13afe90c14193&#45;f00a&#45;46f7&#45;8e78&#45;57b7630c14681eaf6f4c&#45;4f92&#45;4e04&#45;bd87&#45;c82be03265dec8d0b129&#45;f52b&#45;4c46&#45;8c47&#45;b71bc75fb073</text>
</g>
<!-- 0b528ddf_d823_4de7_b3d5_30e73f222216&#45;&gt;b -->
<g id="edge1" class="edge">
<title>0b528ddf_d823_4de7_b3d5_30e73f222216&#45;&gt;b</title>
<path fill="none" stroke="black" d="M916,-354.9C916,-342.81 916,-330 916,-319.22"/>
<text text-anchor="middle" x="906" y="-322.22" font-family="Times,serif" font-size="10.00">bank</text>
<text text-anchor="middle" x="892" y="-346.9" font-family="Times,serif" font-size="10.00">transactions</text>
</g>
<!-- c -->
<g id="node3" class="node">
<title>c</title>
<polygon fill="none" stroke="black" points="428,-43 428,-60 591,-60 591,-43 428,-43"/>
<text text-anchor="start" x="486" y="-50" font-family="Times,serif" text-decoration="underline" font-size="10.00">c :Currency</text>
<polygon fill="none" stroke="black" points="428,-26 428,-43 591,-43 591,-26 428,-26"/>
<text text-anchor="start" x="431" y="-32" font-family="Times,serif" font-size="10.00">declaringClass = class model.Currency</text>
</g>
<!-- 0b528ddf_d823_4de7_b3d5_30e73f222216&#45;&gt;c -->
<g id="edge2" class="edge">
<title>0b528ddf_d823_4de7_b3d5_30e73f222216&#45;&gt;c</title>
<path fill="none" stroke="black" d="M794.14,-392.63C578.09,-381.93 142.34,-346.15 55,-230 26.15,-191.64 24.07,-158.7 55,-122 60.87,-115.03 288.79,-78.4 419.4,-57.91"/>
<text text-anchor="middle" x="401.9" y="-60.91" font-family="Times,serif" font-size="10.00">currency</text>
</g>
<!-- 257ed93e_f23a_4d27_8b9f_abe09c045db4 -->
<g id="node4" class="node">
<title>257ed93e_f23a_4d27_8b9f_abe09c045db4</title>
<polygon fill="none" stroke="black" points="1451,-209 1451,-226 1718,-226 1718,-209 1451,-209"/>
<text text-anchor="start" x="1481.5" y="-216" font-family="Times,serif" text-decoration="underline" font-size="10.00">257ed93e&#45;f23a&#45;4d27&#45;8b9f&#45;abe09c045db4 :Account</text>
<polygon fill="none" stroke="black" points="1451,-126 1451,-209 1718,-209 1718,-126 1451,-126"/>
<text text-anchor="start" x="1454" y="-198" font-family="Times,serif" font-size="10.00">balance = 25.5</text>
<text text-anchor="start" x="1454" y="-187" font-family="Times,serif" font-size="10.00">customerId = null</text>
<text text-anchor="start" x="1454" y="-176" font-family="Times,serif" font-size="10.00">iban = &quot;EE769885317852856149&quot;</text>
<text text-anchor="start" x="1454" y="-165" font-family="Times,serif" font-size="10.00">id = &quot;257ed93e&#45;f23a&#45;4d27&#45;8b9f&#45;abe09c045db4&quot;</text>
<text text-anchor="start" x="1454" y="-154" font-family="Times,serif" font-size="10.00">receivedTransaction = 0b528ddf&#45;d823&#45;4de7&#45;b3d5&#45;30e73f222216</text>
<text text-anchor="start" x="1454" y="-143" font-family="Times,serif" font-size="10.00">sentTransaction = </text>
<text text-anchor="start" x="1454" y="-132" font-family="Times,serif" font-size="10.00">status = &quot;ACTIVE&quot;</text>
</g>
<!-- 0b528ddf_d823_4de7_b3d5_30e73f222216&#45;&gt;257ed93e_f23a_4d27_8b9f_abe09c045db4 -->
<g id="edge3" class="edge">
<title>0b528ddf_d823_4de7_b3d5_30e73f222216&#45;&gt;257ed93e_f23a_4d27_8b9f_abe09c045db4</title>
<path fill="none" stroke="black" d="M1037.67,-384.68C1144.59,-372.05 1290.63,-349.9 1340,-319 1364.79,-303.49 1356.13,-284.23 1379,-266 1398.04,-250.82 1420.06,-237.74 1442.46,-226.63"/>
<text text-anchor="middle" x="1420.46" y="-229.63" font-family="Times,serif" font-size="10.00">destination</text>
<text text-anchor="middle" x="1094.67" y="-387.68" font-family="Times,serif" font-size="10.00">allTransactionsOrderedDesc</text>
</g>
<!-- 94d83e81_2e61_468b_8ea9_a98150372d88 -->
<g id="node5" class="node">
<title>94d83e81_2e61_468b_8ea9_a98150372d88</title>
<polygon fill="none" stroke="black" points="73,-209 73,-226 322,-226 322,-209 73,-209"/>
<text text-anchor="start" x="92.5" y="-216" font-family="Times,serif" text-decoration="underline" font-size="10.00">94d83e81&#45;2e61&#45;468b&#45;8ea9&#45;a98150372d88 :Account</text>
<polygon fill="none" stroke="black" points="73,-126 73,-209 322,-209 322,-126 73,-126"/>
<text text-anchor="start" x="76" y="-198" font-family="Times,serif" font-size="10.00">balance = 74.5</text>
<text text-anchor="start" x="76" y="-187" font-family="Times,serif" font-size="10.00">customerId = null</text>
<text text-anchor="start" x="76" y="-176" font-family="Times,serif" font-size="10.00">iban = &quot;EE232690723906385627&quot;</text>
<text text-anchor="start" x="76" y="-165" font-family="Times,serif" font-size="10.00">id = &quot;94d83e81&#45;2e61&#45;468b&#45;8ea9&#45;a98150372d88&quot;</text>
<text text-anchor="start" x="76" y="-154" font-family="Times,serif" font-size="10.00">receivedTransaction = </text>
<text text-anchor="start" x="76" y="-143" font-family="Times,serif" font-size="10.00">sentTransaction = 0b528ddf&#45;d823&#45;4de7&#45;b3d5&#45;30e73f222216</text>
<text text-anchor="start" x="76" y="-132" font-family="Times,serif" font-size="10.00">status = &quot;ACTIVE&quot;</text>
</g>
<!-- 0b528ddf_d823_4de7_b3d5_30e73f222216&#45;&gt;94d83e81_2e61_468b_8ea9_a98150372d88 -->
<g id="edge4" class="edge">
<title>0b528ddf_d823_4de7_b3d5_30e73f222216&#45;&gt;94d83e81_2e61_468b_8ea9_a98150372d88</title>
<path fill="none" stroke="black" d="M794.33,-383.49C708.16,-371.81 590.65,-351.55 491,-319 421.22,-296.21 346.81,-260.14 290.3,-230.06"/>
<text text-anchor="middle" x="276.8" y="-233.06" font-family="Times,serif" font-size="10.00">source</text>
<text text-anchor="middle" x="737.33" y="-386.49" font-family="Times,serif" font-size="10.00">allTransactionsOrderedDesc</text>
</g>
<!-- s -->
<g id="node6" class="node">
<title>s</title>
<polygon fill="none" stroke="black" points="1396,-292.5 1396,-309.5 1598,-309.5 1598,-292.5 1396,-292.5"/>
<text text-anchor="start" x="1480" y="-299.5" font-family="Times,serif" text-decoration="underline" font-size="10.00">s :Status</text>
<polygon fill="none" stroke="black" points="1396,-275.5 1396,-292.5 1598,-292.5 1598,-275.5 1396,-275.5"/>
<text text-anchor="start" x="1399" y="-281.5" font-family="Times,serif" font-size="10.00">declaringClass = class model.Transaction$Status</text>
</g>
<!-- 0b528ddf_d823_4de7_b3d5_30e73f222216&#45;&gt;s -->
<g id="edge5" class="edge">
<title>0b528ddf_d823_4de7_b3d5_30e73f222216&#45;&gt;s</title>
<path fill="none" stroke="black" d="M1037.71,-377.49C1130.13,-362.38 1260.26,-340.47 1374,-319 1383.11,-317.28 1392.58,-315.43 1402.05,-313.54"/>
<text text-anchor="middle" x="1390.55" y="-316.54" font-family="Times,serif" font-size="10.00">status</text>
</g>
<!-- b&#45;&gt;257ed93e_f23a_4d27_8b9f_abe09c045db4 -->
<g id="edge10" class="edge">
<title>b&#45;&gt;257ed93e_f23a_4d27_8b9f_abe09c045db4</title>
<path fill="none" stroke="black" d="M1216.62,-265.97C1286.49,-257.12 1360.23,-245.41 1428,-230 1432.74,-228.92 1437.54,-227.75 1442.37,-226.51"/>
<text text-anchor="middle" x="1424.87" y="-218.51" font-family="Times,serif" font-size="10.00">accounts</text>
<text text-anchor="middle" x="1206.62" y="-257.97" font-family="Times,serif" font-size="10.00">bank</text>
</g>
<!-- b&#45;&gt;94d83e81_2e61_468b_8ea9_a98150372d88 -->
<g id="edge9" class="edge">
<title>b&#45;&gt;94d83e81_2e61_468b_8ea9_a98150372d88</title>
<path fill="none" stroke="black" d="M545.84,-265.97C476.58,-257.27 405.18,-245.62 339,-230 335.93,-229.27 332.83,-228.5 329.72,-227.69"/>
<text text-anchor="middle" x="347.22" y="-230.69" font-family="Times,serif" font-size="10.00">accounts</text>
<text text-anchor="middle" x="535.84" y="-257.97" font-family="Times,serif" font-size="10.00">bank</text>
</g>
<!-- sendItToTheBank -->
<g id="node7" class="node">
<title>sendItToTheBank</title>
<polygon fill="none" stroke="black" points="356,-209 356,-226 500,-226 500,-209 356,-209"/>
<text text-anchor="start" x="372.5" y="-216" font-family="Times,serif" text-decoration="underline" font-size="10.00">sendItToTheBank :Account</text>
<polygon fill="none" stroke="black" points="356,-126 356,-209 500,-209 500,-126 356,-126"/>
<text text-anchor="start" x="359" y="-198" font-family="Times,serif" font-size="10.00">balance = 69420.0</text>
<text text-anchor="start" x="359" y="-187" font-family="Times,serif" font-size="10.00">customerId = null</text>
<text text-anchor="start" x="359" y="-176" font-family="Times,serif" font-size="10.00">iban = &quot;EE741731179894148354&quot;</text>
<text text-anchor="start" x="359" y="-165" font-family="Times,serif" font-size="10.00">id = &quot;sendItToTheBank&quot;</text>
<text text-anchor="start" x="359" y="-154" font-family="Times,serif" font-size="10.00">receivedTransaction = </text>
<text text-anchor="start" x="359" y="-143" font-family="Times,serif" font-size="10.00">sentTransaction = </text>
<text text-anchor="start" x="359" y="-132" font-family="Times,serif" font-size="10.00">status = &quot;ACTIVE&quot;</text>
</g>
<!-- b&#45;&gt;sendItToTheBank -->
<g id="edge6" class="edge">
<title>b&#45;&gt;sendItToTheBank</title>
<path fill="none" stroke="black" d="M654.56,-265.96C607.96,-257.27 560.45,-245.62 517,-230 514.04,-228.94 511.07,-227.77 508.1,-226.52"/>
<text text-anchor="middle" x="535.1" y="-229.52" font-family="Times,serif" font-size="10.00">bankAccount</text>
<text text-anchor="middle" x="644.56" y="-257.96" font-family="Times,serif" font-size="10.00">bank</text>
</g>
<!-- 8a633aa5_907c_4e57_a313_22e0adb2672e -->
<g id="node8" class="node">
<title>8a633aa5_907c_4e57_a313_22e0adb2672e</title>
<polygon fill="none" stroke="black" points="1105,-209 1105,-226 1340,-226 1340,-209 1105,-209"/>
<text text-anchor="start" x="1118.5" y="-216" font-family="Times,serif" text-decoration="underline" font-size="10.00">8a633aa5&#45;907c&#45;4e57&#45;a313&#45;22e0adb2672e :Account</text>
<polygon fill="none" stroke="black" points="1105,-126 1105,-209 1340,-209 1340,-126 1105,-126"/>
<text text-anchor="start" x="1108" y="-198" font-family="Times,serif" font-size="10.00">balance = 0.0</text>
<text text-anchor="start" x="1108" y="-187" font-family="Times,serif" font-size="10.00">customerId = &quot;1eaf6f4c&#45;4f92&#45;4e04&#45;bd87&#45;c82be03265de&quot;</text>
<text text-anchor="start" x="1108" y="-176" font-family="Times,serif" font-size="10.00">iban = null</text>
<text text-anchor="start" x="1108" y="-165" font-family="Times,serif" font-size="10.00">id = &quot;8a633aa5&#45;907c&#45;4e57&#45;a313&#45;22e0adb2672e&quot;</text>
<text text-anchor="start" x="1108" y="-154" font-family="Times,serif" font-size="10.00">receivedTransaction = </text>
<text text-anchor="start" x="1108" y="-143" font-family="Times,serif" font-size="10.00">sentTransaction = </text>
<text text-anchor="start" x="1108" y="-132" font-family="Times,serif" font-size="10.00">status = &quot;ACTIVE&quot;</text>
</g>
<!-- b&#45;&gt;8a633aa5_907c_4e57_a313_22e0adb2672e -->
<g id="edge7" class="edge">
<title>b&#45;&gt;8a633aa5_907c_4e57_a313_22e0adb2672e</title>
<path fill="none" stroke="black" d="M985.5,-265.88C1015.24,-254.88 1050.34,-241.86 1082,-230 1086.75,-228.22 1091.58,-226.41 1096.46,-224.57"/>
<text text-anchor="middle" x="1078.96" y="-227.57" font-family="Times,serif" font-size="10.00">accounts</text>
<text text-anchor="middle" x="975.5" y="-257.88" font-family="Times,serif" font-size="10.00">bank</text>
</g>
<!-- 7ec351d6_652f_4691_8e72_ea432d44a0c8 -->
<g id="node9" class="node">
<title>7ec351d6_652f_4691_8e72_ea432d44a0c8</title>
<polygon fill="none" stroke="black" points="534,-209 534,-226 766,-226 766,-209 534,-209"/>
<text text-anchor="start" x="546.5" y="-216" font-family="Times,serif" text-decoration="underline" font-size="10.00">7ec351d6&#45;652f&#45;4691&#45;8e72&#45;ea432d44a0c8 :Account</text>
<polygon fill="none" stroke="black" points="534,-126 534,-209 766,-209 766,-126 534,-126"/>
<text text-anchor="start" x="537" y="-198" font-family="Times,serif" font-size="10.00">balance = 100.0</text>
<text text-anchor="start" x="537" y="-187" font-family="Times,serif" font-size="10.00">customerId = &quot;e2f7bc4c&#45;ef2a&#45;466e&#45;b8a5&#45;d24f48b13afe&quot;</text>
<text text-anchor="start" x="537" y="-176" font-family="Times,serif" font-size="10.00">iban = null</text>
<text text-anchor="start" x="537" y="-165" font-family="Times,serif" font-size="10.00">id = &quot;7ec351d6&#45;652f&#45;4691&#45;8e72&#45;ea432d44a0c8&quot;</text>
<text text-anchor="start" x="537" y="-154" font-family="Times,serif" font-size="10.00">receivedTransaction = </text>
<text text-anchor="start" x="537" y="-143" font-family="Times,serif" font-size="10.00">sentTransaction = </text>
<text text-anchor="start" x="537" y="-132" font-family="Times,serif" font-size="10.00">status = &quot;ACTIVE&quot;</text>
</g>
<!-- b&#45;&gt;7ec351d6_652f_4691_8e72_ea432d44a0c8 -->
<g id="edge8" class="edge">
<title>b&#45;&gt;7ec351d6_652f_4691_8e72_ea432d44a0c8</title>
<path fill="none" stroke="black" d="M856.64,-265.95C831.91,-255.3 802.22,-242.52 773.16,-230.01"/>
<text text-anchor="middle" x="755.66" y="-233.01" font-family="Times,serif" font-size="10.00">accounts</text>
<text text-anchor="middle" x="846.64" y="-257.95" font-family="Times,serif" font-size="10.00">bank</text>
</g>
<!-- 877be5c0_abe9_4222_81fc_4ef745a40fc4 -->
<g id="node10" class="node">
<title>877be5c0_abe9_4222_81fc_4ef745a40fc4</title>
<polygon fill="none" stroke="black" points="800,-198 800,-215 1032,-215 1032,-198 800,-198"/>
<text text-anchor="start" x="803" y="-205" font-family="Times,serif" text-decoration="underline" font-size="10.00">877be5c0&#45;abe9&#45;4222&#45;81fc&#45;4ef745a40fc4 :Administrator</text>
<polygon fill="none" stroke="black" points="800,-137 800,-198 1032,-198 1032,-137 800,-137"/>
<text text-anchor="start" x="820.5" y="-187" font-family="Times,serif" font-size="10.00">email = &quot;admin@bank.ee&quot;</text>
<text text-anchor="start" x="820.5" y="-176" font-family="Times,serif" font-size="10.00">firstName = &quot;Admin&quot;</text>
<text text-anchor="start" x="820.5" y="-165" font-family="Times,serif" font-size="10.00">id = &quot;877be5c0&#45;abe9&#45;4222&#45;81fc&#45;4ef745a40fc4&quot;</text>
<text text-anchor="start" x="820.5" y="-154" font-family="Times,serif" font-size="10.00">lastName = &quot;ALice&quot;</text>
<text text-anchor="start" x="820.5" y="-143" font-family="Times,serif" font-size="10.00">password = &quot;secure_p@ssw0|2d&quot;</text>
</g>
<!-- b&#45;&gt;877be5c0_abe9_4222_81fc_4ef745a40fc4 -->
<g id="edge11" class="edge">
<title>b&#45;&gt;877be5c0_abe9_4222_81fc_4ef745a40fc4</title>
<path fill="none" stroke="black" d="M916,-265.8C916,-252.09 916,-234.86 916,-219.24"/>
<text text-anchor="middle" x="887" y="-222.24" font-family="Times,serif" font-size="10.00">administrators</text>
<text text-anchor="middle" x="906" y="-257.8" font-family="Times,serif" font-size="10.00">bank</text>
</g>
<!-- e2f7bc4c_ef2a_466e_b8a5_d24f48b13afe -->
<g id="node11" class="node">
<title>e2f7bc4c_ef2a_466e_b8a5_d24f48b13afe</title>
<polygon fill="none" stroke="black" points="734,-65 734,-82 946,-82 946,-65 734,-65"/>
<text text-anchor="start" x="737" y="-72" font-family="Times,serif" text-decoration="underline" font-size="10.00">e2f7bc4c&#45;ef2a&#45;466e&#45;b8a5&#45;d24f48b13afe :Customer</text>
<polygon fill="none" stroke="black" points="734,-4 734,-65 946,-65 946,-4 734,-4"/>
<text text-anchor="start" x="745.5" y="-54" font-family="Times,serif" font-size="10.00">email = &quot;john@doe.ee&quot;</text>
<text text-anchor="start" x="745.5" y="-43" font-family="Times,serif" font-size="10.00">firstName = &quot;John&quot;</text>
<text text-anchor="start" x="745.5" y="-32" font-family="Times,serif" font-size="10.00">id = &quot;e2f7bc4c&#45;ef2a&#45;466e&#45;b8a5&#45;d24f48b13afe&quot;</text>
<text text-anchor="start" x="745.5" y="-21" font-family="Times,serif" font-size="10.00">lastName = &quot;Doe&quot;</text>
<text text-anchor="start" x="745.5" y="-10" font-family="Times,serif" font-size="10.00">password = &quot;pass1234&quot;</text>
</g>
<!-- b&#45;&gt;e2f7bc4c_ef2a_466e_b8a5_d24f48b13afe -->
<g id="edge12" class="edge">
<title>b&#45;&gt;e2f7bc4c_ef2a_466e_b8a5_d24f48b13afe</title>
<path fill="none" stroke="black" d="M1007.73,-265.96C1024.09,-257.21 1039.07,-245.54 1049,-230 1074.86,-189.56 1076.37,-161.43 1049,-122 1027.03,-90.34 990.56,-71.51 954.19,-60.32"/>
<text text-anchor="middle" x="974.69" y="-63.32" font-family="Times,serif" font-size="10.00">customers</text>
<text text-anchor="middle" x="997.73" y="-257.96" font-family="Times,serif" font-size="10.00">bank</text>
</g>
<!-- 1eaf6f4c_4f92_4e04_bd87_c82be03265de -->
<g id="node12" class="node">
<title>1eaf6f4c_4f92_4e04_bd87_c82be03265de</title>
<polygon fill="none" stroke="black" points="1143,-65 1143,-82 1358,-82 1358,-65 1143,-65"/>
<text text-anchor="start" x="1146" y="-72" font-family="Times,serif" text-decoration="underline" font-size="10.00">1eaf6f4c&#45;4f92&#45;4e04&#45;bd87&#45;c82be03265de :Customer</text>
<polygon fill="none" stroke="black" points="1143,-4 1143,-65 1358,-65 1358,-4 1143,-4"/>
<text text-anchor="start" x="1155" y="-54" font-family="Times,serif" font-size="10.00">email = &quot;bobby@tt.ee&quot;</text>
<text text-anchor="start" x="1155" y="-43" font-family="Times,serif" font-size="10.00">firstName = &quot;Bob&quot;</text>
<text text-anchor="start" x="1155" y="-32" font-family="Times,serif" font-size="10.00">id = &quot;1eaf6f4c&#45;4f92&#45;4e04&#45;bd87&#45;c82be03265de&quot;</text>
<text text-anchor="start" x="1155" y="-21" font-family="Times,serif" font-size="10.00">lastName = &quot;Jackson&quot;</text>
<text text-anchor="start" x="1155" y="-10" font-family="Times,serif" font-size="10.00">password = &quot;secret&quot;</text>
</g>
<!-- b&#45;&gt;1eaf6f4c_4f92_4e04_bd87_c82be03265de -->
<g id="edge13" class="edge">
<title>b&#45;&gt;1eaf6f4c_4f92_4e04_bd87_c82be03265de</title>
<path fill="none" stroke="black" d="M1281.92,-265.91C1315.86,-257.09 1342.58,-245.42 1356,-230 1387.5,-193.79 1377.66,-164.83 1356,-122 1349.04,-108.24 1338.38,-96.31 1326.46,-86.21"/>
<text text-anchor="middle" x="1305.96" y="-89.21" font-family="Times,serif" font-size="10.00">customers</text>
<text text-anchor="middle" x="1271.92" y="-257.91" font-family="Times,serif" font-size="10.00">bank</text>
</g>
<!-- c8d0b129_f52b_4c46_8c47_b71bc75fb073 -->
<g id="node13" class="node">
<title>c8d0b129_f52b_4c46_8c47_b71bc75fb073</title>
<polygon fill="none" stroke="black" points="8,-65 8,-82 226,-82 226,-65 8,-65"/>
<text text-anchor="start" x="11" y="-72" font-family="Times,serif" text-decoration="underline" font-size="10.00">c8d0b129&#45;f52b&#45;4c46&#45;8c47&#45;b71bc75fb073 :Customer</text>
<polygon fill="none" stroke="black" points="8,-4 8,-65 226,-65 226,-4 8,-4"/>
<text text-anchor="start" x="19.5" y="-54" font-family="Times,serif" font-size="10.00">email = &quot;johntest@doe.ee&quot;</text>
<text text-anchor="start" x="19.5" y="-43" font-family="Times,serif" font-size="10.00">firstName = &quot;johntest&quot;</text>
<text text-anchor="start" x="19.5" y="-32" font-family="Times,serif" font-size="10.00">id = &quot;c8d0b129&#45;f52b&#45;4c46&#45;8c47&#45;b71bc75fb073&quot;</text>
<text text-anchor="start" x="19.5" y="-21" font-family="Times,serif" font-size="10.00">lastName = &quot;Doe&quot;</text>
<text text-anchor="start" x="19.5" y="-10" font-family="Times,serif" font-size="10.00">password = &quot;pass1234&quot;</text>
</g>
<!-- b&#45;&gt;c8d0b129_f52b_4c46_8c47_b71bc75fb073 -->
<g id="edge14" class="edge">
<title>b&#45;&gt;c8d0b129_f52b_4c46_8c47_b71bc75fb073</title>
<path fill="none" stroke="black" d="M500.3,-286.76C296.25,-279.99 87.17,-264.55 55,-230 22.29,-194.87 39.18,-167.32 55,-122 59.45,-109.26 66.94,-97.04 75.21,-86.21"/>
<text text-anchor="middle" x="54.71" y="-89.21" font-family="Times,serif" font-size="10.00">customers</text>
<text text-anchor="middle" x="490.3" y="-289.76" font-family="Times,serif" font-size="10.00">bank</text>
</g>
<!-- 90c14193_f00a_46f7_8e78_57b7630c1468 -->
<g id="node14" class="node">
<title>90c14193_f00a_46f7_8e78_57b7630c1468</title>
<polygon fill="none" stroke="black" points="1447,-65 1447,-82 1665,-82 1665,-65 1447,-65"/>
<text text-anchor="start" x="1450" y="-72" font-family="Times,serif" text-decoration="underline" font-size="10.00">90c14193&#45;f00a&#45;46f7&#45;8e78&#45;57b7630c1468 :Customer</text>
<polygon fill="none" stroke="black" points="1447,-4 1447,-65 1665,-65 1665,-4 1447,-4"/>
<text text-anchor="start" x="1458.5" y="-54" font-family="Times,serif" font-size="10.00">email = &quot;bobbytest@tt.ee&quot;</text>
<text text-anchor="start" x="1458.5" y="-43" font-family="Times,serif" font-size="10.00">firstName = &quot;Bob&quot;</text>
<text text-anchor="start" x="1458.5" y="-32" font-family="Times,serif" font-size="10.00">id = &quot;90c14193&#45;f00a&#45;46f7&#45;8e78&#45;57b7630c1468&quot;</text>
<text text-anchor="start" x="1458.5" y="-21" font-family="Times,serif" font-size="10.00">lastName = &quot;Jackson&quot;</text>
<text text-anchor="start" x="1458.5" y="-10" font-family="Times,serif" font-size="10.00">password = &quot;secret&quot;</text>
</g>
<!-- b&#45;&gt;90c14193_f00a_46f7_8e78_57b7630c1468 -->
<g id="edge15" class="edge">
<title>b&#45;&gt;90c14193_f00a_46f7_8e78_57b7630c1468</title>
<path fill="none" stroke="black" d="M1268.71,-265.97C1318.01,-257.27 1359.26,-245.62 1381,-230 1424.42,-198.8 1398.38,-161.88 1434,-122 1446.06,-108.5 1460.98,-96.43 1476.21,-86.04"/>
<text text-anchor="middle" x="1455.71" y="-89.04" font-family="Times,serif" font-size="10.00">customers</text>
<text text-anchor="middle" x="1258.71" y="-257.97" font-family="Times,serif" font-size="10.00">bank</text>
</g>
<!-- 257ed93e_f23a_4d27_8b9f_abe09c045db4&#45;&gt;c -->
<g id="edge16" class="edge">
<title>257ed93e_f23a_4d27_8b9f_abe09c045db4&#45;&gt;c</title>
<path fill="none" stroke="black" d="M1442.41,-138.11C1413.97,-131.83 1384.16,-126.04 1356,-122 1074.43,-81.65 999.13,-122.24 717,-86 676.26,-80.77 631.55,-72.12 594.06,-64.04"/>
<text text-anchor="middle" x="576.56" y="-67.04" font-family="Times,serif" font-size="10.00">currency</text>
</g>
<!-- 257ed93e_f23a_4d27_8b9f_abe09c045db4&#45;&gt;90c14193_f00a_46f7_8e78_57b7630c1468 -->
<g id="edge17" class="edge">
<title>257ed93e_f23a_4d27_8b9f_abe09c045db4&#45;&gt;90c14193_f00a_46f7_8e78_57b7630c1468</title>
<path fill="none" stroke="black" d="M1572.61,-121.72C1570.1,-109.96 1567.47,-97.66 1565.06,-86.4"/>
<text text-anchor="middle" x="1552.56" y="-89.4" font-family="Times,serif" font-size="10.00">owner</text>
<text text-anchor="middle" x="1556.61" y="-113.72" font-family="Times,serif" font-size="10.00">account</text>
</g>
<!-- 94d83e81_2e61_468b_8ea9_a98150372d88&#45;&gt;c -->
<g id="edge18" class="edge">
<title>94d83e81_2e61_468b_8ea9_a98150372d88&#45;&gt;c</title>
<path fill="none" stroke="black" d="M323.45,-121.91C371.93,-101.55 424.36,-79.54 461.08,-64.12"/>
<text text-anchor="middle" x="443.58" y="-67.12" font-family="Times,serif" font-size="10.00">currency</text>
</g>
<!-- 94d83e81_2e61_468b_8ea9_a98150372d88&#45;&gt;c8d0b129_f52b_4c46_8c47_b71bc75fb073 -->
<g id="edge19" class="edge">
<title>94d83e81_2e61_468b_8ea9_a98150372d88&#45;&gt;c8d0b129_f52b_4c46_8c47_b71bc75fb073</title>
<path fill="none" stroke="black" d="M164.46,-121.72C157.28,-109.96 149.77,-97.66 142.89,-86.4"/>
<text text-anchor="middle" x="130.39" y="-89.4" font-family="Times,serif" font-size="10.00">owner</text>
<text text-anchor="middle" x="148.46" y="-113.72" font-family="Times,serif" font-size="10.00">account</text>
</g>
<!-- sendItToTheBank&#45;&gt;c -->
<g id="edge20" class="edge">
<title>sendItToTheBank&#45;&gt;c</title>
<path fill="none" stroke="black" d="M460.95,-121.72C473.47,-101.46 487,-79.58 496.5,-64.22"/>
<text text-anchor="middle" x="479" y="-67.22" font-family="Times,serif" font-size="10.00">currency</text>
</g>
<!-- 8a633aa5_907c_4e57_a313_22e0adb2672e&#45;&gt;c -->
<g id="edge21" class="edge">
<title>8a633aa5_907c_4e57_a313_22e0adb2672e&#45;&gt;c</title>
<path fill="none" stroke="black" d="M1096.11,-133.42C1080.36,-129.11 1064.38,-125.16 1049,-122 903.62,-92.13 863.67,-108.71 717,-86 677.95,-79.95 635.12,-71.6 598.52,-63.94"/>
<text text-anchor="middle" x="616.02" y="-66.94" font-family="Times,serif" font-size="10.00">currency</text>
</g>
<!-- 8a633aa5_907c_4e57_a313_22e0adb2672e&#45;&gt;1eaf6f4c_4f92_4e04_bd87_c82be03265de -->
<g id="edge22" class="edge">
<title>8a633aa5_907c_4e57_a313_22e0adb2672e&#45;&gt;1eaf6f4c_4f92_4e04_bd87_c82be03265de</title>
<path fill="none" stroke="black" d="M1233.39,-121.72C1235.9,-109.96 1238.53,-97.66 1240.94,-86.4"/>
<text text-anchor="middle" x="1228.44" y="-89.4" font-family="Times,serif" font-size="10.00">owner</text>
<text text-anchor="middle" x="1217.39" y="-113.72" font-family="Times,serif" font-size="10.00">account</text>
</g>
<!-- 7ec351d6_652f_4691_8e72_ea432d44a0c8&#45;&gt;c -->
<g id="edge23" class="edge">
<title>7ec351d6_652f_4691_8e72_ea432d44a0c8&#45;&gt;c</title>
<path fill="none" stroke="black" d="M592.65,-121.72C570.84,-101.46 547.3,-79.58 530.76,-64.22"/>
<text text-anchor="middle" x="513.26" y="-67.22" font-family="Times,serif" font-size="10.00">currency</text>
</g>
<!-- 7ec351d6_652f_4691_8e72_ea432d44a0c8&#45;&gt;e2f7bc4c_ef2a_466e_b8a5_d24f48b13afe -->
<g id="edge24" class="edge">
<title>7ec351d6_652f_4691_8e72_ea432d44a0c8&#45;&gt;e2f7bc4c_ef2a_466e_b8a5_d24f48b13afe</title>
<path fill="none" stroke="black" d="M727.01,-121.91C744.29,-109.99 762.39,-97.51 778.92,-86.11"/>
<text text-anchor="middle" x="766.42" y="-89.11" font-family="Times,serif" font-size="10.00">owner</text>
<text text-anchor="middle" x="711.01" y="-113.91" font-family="Times,serif" font-size="10.00">account</text>
</g>
</g>
</svg>
