<?xml version="1.0" encoding="UTF-8" standalone="no"?>
<!DOCTYPE svg PUBLIC "-//W3C//DTD SVG 1.1//EN"
 "http://www.w3.org/Graphics/SVG/1.1/DTD/svg11.dtd">
<!-- Generated by graphviz version 2.49.3 (20211023.0002)
 -->
<!-- Title: model Pages: 1 -->
<svg width="1280px" height="449px"
 viewBox="0.00 0.00 1280.12 449.00" xmlns="http://www.w3.org/2000/svg" xmlns:xlink="http://www.w3.org/1999/xlink">
<g id="graph0" class="graph" transform="scale(1.0 1.0) rotate(0) translate(4 445)">
<title>model</title>
<polygon fill="white" stroke="transparent" points="-4,4 -4,-445 1276.12,-445 1276.12,4 -4,4"/>
<!-- ff4a449e_0fcf_4a6c_aa12_2fffbff4ea4a -->
<g id="node1" class="node">
<title>ff4a449e_0fcf_4a6c_aa12_2fffbff4ea4a</title>
<polygon fill="none" stroke="black" points="204.62,-420 204.62,-437 415.62,-437 415.62,-420 204.62,-420"/>
<text text-anchor="start" x="207.62" y="-427" font-family="Times,serif" text-decoration="underline" font-size="10.00">ff4a449e&#45;0fcf&#45;4a6c&#45;aa12&#45;2fffbff4ea4a :Transaction</text>
<polygon fill="none" stroke="black" points="204.62,-359 204.62,-420 415.62,-420 415.62,-359 204.62,-359"/>
<text text-anchor="start" x="220.62" y="-409" font-family="Times,serif" font-size="10.00">amount = 10.0</text>
<text text-anchor="start" x="220.62" y="-398" font-family="Times,serif" font-size="10.00">description = &quot;Fee&quot;</text>
<text text-anchor="start" x="220.62" y="-387" font-family="Times,serif" font-size="10.00">id = &quot;ff4a449e&#45;0fcf&#45;4a6c&#45;aa12&#45;2fffbff4ea4a&quot;</text>
<text text-anchor="start" x="220.62" y="-376" font-family="Times,serif" font-size="10.00">rejectionDescription = &quot;&quot;</text>
<text text-anchor="start" x="220.62" y="-365" font-family="Times,serif" font-size="10.00">timestamp = 2021&#45;12&#45;05T17:29:29.081757</text>
</g>
<!-- b -->
<g id="node2" class="node">
<title>b</title>
<polygon fill="none" stroke="black" points="345.62,-297.5 345.62,-314.5 985.62,-314.5 985.62,-297.5 345.62,-297.5"/>
<text text-anchor="start" x="649.62" y="-304.5" font-family="Times,serif" text-decoration="underline" font-size="10.00">b :Bank</text>
<polygon fill="none" stroke="black" points="345.62,-269.5 345.62,-297.5 985.62,-297.5 985.62,-269.5 345.62,-269.5"/>
<text text-anchor="start" x="348.62" y="-286.5" font-family="Times,serif" font-size="10.00">accountsMap = sendItToTheBank8a633aa5&#45;907c&#45;4e57&#45;a313&#45;22e0adb2672e7ec351d6&#45;652f&#45;4691&#45;8e72&#45;ea432d44a0c8dcab9f96&#45;5659&#45;49f4&#45;86e1&#45;e32e97102fff</text>
<text text-anchor="start" x="348.62" y="-275.5" font-family="Times,serif" font-size="10.00">customerMap = 12ef3dfd&#45;66c4&#45;48f2&#45;b237&#45;021f3cc4ef8ae2f7bc4c&#45;ef2a&#45;466e&#45;b8a5&#45;d24f48b13afe1eaf6f4c&#45;4f92&#45;4e04&#45;bd87&#45;c82be03265de</text>
</g>
<!-- ff4a449e_0fcf_4a6c_aa12_2fffbff4ea4a&#45;&gt;b -->
<g id="edge1" class="edge">
<title>ff4a449e_0fcf_4a6c_aa12_2fffbff4ea4a&#45;&gt;b</title>
<path fill="none" stroke="black" d="M423.24,-363.97C473.3,-349.41 531.2,-332.58 577.86,-319.01"/>
<text text-anchor="middle" x="567.86" y="-322.01" font-family="Times,serif" font-size="10.00">bank</text>
<text text-anchor="middle" x="447.24" y="-366.97" font-family="Times,serif" font-size="10.00">transactions</text>
</g>
<!-- c -->
<g id="node3" class="node">
<title>c</title>
<polygon fill="none" stroke="black" points="286.62,-43 286.62,-60 449.62,-60 449.62,-43 286.62,-43"/>
<text text-anchor="start" x="344.62" y="-50" font-family="Times,serif" text-decoration="underline" font-size="10.00">c :Currency</text>
<polygon fill="none" stroke="black" points="286.62,-26 286.62,-43 449.62,-43 449.62,-26 286.62,-26"/>
<text text-anchor="start" x="289.62" y="-32" font-family="Times,serif" font-size="10.00">declaringClass = class model.Currency</text>
</g>
<!-- ff4a449e_0fcf_4a6c_aa12_2fffbff4ea4a&#45;&gt;c -->
<g id="edge2" class="edge">
<title>ff4a449e_0fcf_4a6c_aa12_2fffbff4ea4a&#45;&gt;c</title>
<path fill="none" stroke="black" d="M195.87,-362.87C132.21,-337.29 58.27,-295.25 20.62,-230 -3.37,-188.43 -9.37,-159.48 20.62,-122 52.3,-82.41 186.17,-61.51 278.06,-51.62"/>
<text text-anchor="middle" x="260.56" y="-54.62" font-family="Times,serif" font-size="10.00">currency</text>
</g>
<!-- sendItToTheBank -->
<g id="node4" class="node">
<title>sendItToTheBank</title>
<polygon fill="none" stroke="black" points="37.62,-209 37.62,-226 287.62,-226 287.62,-209 37.62,-209"/>
<text text-anchor="start" x="107.12" y="-216" font-family="Times,serif" text-decoration="underline" font-size="10.00">sendItToTheBank :Account</text>
<polygon fill="none" stroke="black" points="37.62,-126 37.62,-209 287.62,-209 287.62,-126 37.62,-126"/>
<text text-anchor="start" x="40.62" y="-198" font-family="Times,serif" font-size="10.00">balance = 69430.0</text>
<text text-anchor="start" x="40.62" y="-187" font-family="Times,serif" font-size="10.00">customerId = null</text>
<text text-anchor="start" x="40.62" y="-176" font-family="Times,serif" font-size="10.00">iban = &quot;EE500467859057350272&quot;</text>
<text text-anchor="start" x="40.62" y="-165" font-family="Times,serif" font-size="10.00">id = &quot;sendItToTheBank&quot;</text>
<text text-anchor="start" x="40.62" y="-154" font-family="Times,serif" font-size="10.00">receivedTransaction = ff4a449e&#45;0fcf&#45;4a6c&#45;aa12&#45;2fffbff4ea4a</text>
<text text-anchor="start" x="40.62" y="-143" font-family="Times,serif" font-size="10.00">sentTransaction = </text>
<text text-anchor="start" x="40.62" y="-132" font-family="Times,serif" font-size="10.00">status = &quot;ACTIVE&quot;</text>
</g>
<!-- ff4a449e_0fcf_4a6c_aa12_2fffbff4ea4a&#45;&gt;sendItToTheBank -->
<g id="edge3" class="edge">
<title>ff4a449e_0fcf_4a6c_aa12_2fffbff4ea4a&#45;&gt;sendItToTheBank</title>
<path fill="none" stroke="black" d="M281.45,-354.84C257.77,-319.41 223.8,-268.57 198.24,-230.31"/>
<text text-anchor="middle" x="176.24" y="-233.31" font-family="Times,serif" font-size="10.00">destination</text>
<text text-anchor="middle" x="224.45" y="-346.84" font-family="Times,serif" font-size="10.00">allTransactionsOrderedDesc</text>
</g>
<!-- dcab9f96_5659_49f4_86e1_e32e97102fff -->
<g id="node5" class="node">
<title>dcab9f96_5659_49f4_86e1_e32e97102fff</title>
<polygon fill="none" stroke="black" points="321.62,-209 321.62,-226 553.62,-226 553.62,-209 321.62,-209"/>
<text text-anchor="start" x="337.12" y="-216" font-family="Times,serif" text-decoration="underline" font-size="10.00">dcab9f96&#45;5659&#45;49f4&#45;86e1&#45;e32e97102fff :Account</text>
<polygon fill="none" stroke="black" points="321.62,-126 321.62,-209 553.62,-209 553.62,-126 321.62,-126"/>
<text text-anchor="start" x="324.62" y="-198" font-family="Times,serif" font-size="10.00">balance = 90.0</text>
<text text-anchor="start" x="324.62" y="-187" font-family="Times,serif" font-size="10.00">customerId = null</text>
<text text-anchor="start" x="324.62" y="-176" font-family="Times,serif" font-size="10.00">iban = &quot;EE190586495587449743&quot;</text>
<text text-anchor="start" x="324.62" y="-165" font-family="Times,serif" font-size="10.00">id = &quot;dcab9f96&#45;5659&#45;49f4&#45;86e1&#45;e32e97102fff&quot;</text>
<text text-anchor="start" x="324.62" y="-154" font-family="Times,serif" font-size="10.00">receivedTransaction = </text>
<text text-anchor="start" x="324.62" y="-143" font-family="Times,serif" font-size="10.00">sentTransaction = ff4a449e&#45;0fcf&#45;4a6c&#45;aa12&#45;2fffbff4ea4a</text>
<text text-anchor="start" x="324.62" y="-132" font-family="Times,serif" font-size="10.00">status = &quot;ACTIVE&quot;</text>
</g>
<!-- ff4a449e_0fcf_4a6c_aa12_2fffbff4ea4a&#45;&gt;dcab9f96_5659_49f4_86e1_e32e97102fff -->
<g id="edge4" class="edge">
<title>ff4a449e_0fcf_4a6c_aa12_2fffbff4ea4a&#45;&gt;dcab9f96_5659_49f4_86e1_e32e97102fff</title>
<path fill="none" stroke="black" d="M308.1,-354.96C308.89,-327.95 313.34,-293 328.62,-266 336.08,-252.82 346.32,-240.8 357.56,-230.16"/>
<text text-anchor="middle" x="344.06" y="-233.16" font-family="Times,serif" font-size="10.00">source</text>
<text text-anchor="middle" x="365.1" y="-346.96" font-family="Times,serif" font-size="10.00">allTransactionsOrderedDesc</text>
</g>
<!-- s -->
<g id="node6" class="node">
<title>s</title>
<polygon fill="none" stroke="black" points="1019.62,-292.5 1019.62,-309.5 1221.62,-309.5 1221.62,-292.5 1019.62,-292.5"/>
<text text-anchor="start" x="1103.62" y="-299.5" font-family="Times,serif" text-decoration="underline" font-size="10.00">s :Status</text>
<polygon fill="none" stroke="black" points="1019.62,-275.5 1019.62,-292.5 1221.62,-292.5 1221.62,-275.5 1019.62,-275.5"/>
<text text-anchor="start" x="1022.62" y="-281.5" font-family="Times,serif" font-size="10.00">declaringClass = class model.Transaction$Status</text>
</g>
<!-- ff4a449e_0fcf_4a6c_aa12_2fffbff4ea4a&#45;&gt;s -->
<g id="edge5" class="edge">
<title>ff4a449e_0fcf_4a6c_aa12_2fffbff4ea4a&#45;&gt;s</title>
<path fill="none" stroke="black" d="M423.23,-387.75C560.9,-375.73 799.65,-352.27 1002.62,-319 1012.34,-317.41 1022.47,-315.54 1032.53,-313.55"/>
<text text-anchor="middle" x="1021.03" y="-316.55" font-family="Times,serif" font-size="10.00">status</text>
</g>
<!-- b&#45;&gt;sendItToTheBank -->
<g id="edge6" class="edge">
<title>b&#45;&gt;sendItToTheBank</title>
<path fill="none" stroke="black" d="M475.4,-265.99C419.87,-256.69 359.41,-244.75 304.62,-230 301.7,-229.21 298.75,-228.39 295.79,-227.54"/>
<text text-anchor="middle" x="268.79" y="-230.54" font-family="Times,serif" font-size="10.00">bankAccount</text>
<text text-anchor="middle" x="465.4" y="-257.99" font-family="Times,serif" font-size="10.00">bank</text>
</g>
<!-- b&#45;&gt;dcab9f96_5659_49f4_86e1_e32e97102fff -->
<g id="edge9" class="edge">
<title>b&#45;&gt;dcab9f96_5659_49f4_86e1_e32e97102fff</title>
<path fill="none" stroke="black" d="M614.73,-265.95C593.6,-255.34 568.25,-242.6 543.42,-230.13"/>
<text text-anchor="middle" x="525.92" y="-233.13" font-family="Times,serif" font-size="10.00">accounts</text>
<text text-anchor="middle" x="604.73" y="-257.95" font-family="Times,serif" font-size="10.00">bank</text>
</g>
<!-- 8a633aa5_907c_4e57_a313_22e0adb2672e -->
<g id="node7" class="node">
<title>8a633aa5_907c_4e57_a313_22e0adb2672e</title>
<polygon fill="none" stroke="black" points="930.62,-209 930.62,-226 1165.62,-226 1165.62,-209 930.62,-209"/>
<text text-anchor="start" x="944.12" y="-216" font-family="Times,serif" text-decoration="underline" font-size="10.00">8a633aa5&#45;907c&#45;4e57&#45;a313&#45;22e0adb2672e :Account</text>
<polygon fill="none" stroke="black" points="930.62,-126 930.62,-209 1165.62,-209 1165.62,-126 930.62,-126"/>
<text text-anchor="start" x="933.62" y="-198" font-family="Times,serif" font-size="10.00">balance = 0.0</text>
<text text-anchor="start" x="933.62" y="-187" font-family="Times,serif" font-size="10.00">customerId = &quot;1eaf6f4c&#45;4f92&#45;4e04&#45;bd87&#45;c82be03265de&quot;</text>
<text text-anchor="start" x="933.62" y="-176" font-family="Times,serif" font-size="10.00">iban = null</text>
<text text-anchor="start" x="933.62" y="-165" font-family="Times,serif" font-size="10.00">id = &quot;8a633aa5&#45;907c&#45;4e57&#45;a313&#45;22e0adb2672e&quot;</text>
<text text-anchor="start" x="933.62" y="-154" font-family="Times,serif" font-size="10.00">receivedTransaction = </text>
<text text-anchor="start" x="933.62" y="-143" font-family="Times,serif" font-size="10.00">sentTransaction = </text>
<text text-anchor="start" x="933.62" y="-132" font-family="Times,serif" font-size="10.00">status = &quot;ACTIVE&quot;</text>
</g>
<!-- b&#45;&gt;8a633aa5_907c_4e57_a313_22e0adb2672e -->
<g id="edge7" class="edge">
<title>b&#45;&gt;8a633aa5_907c_4e57_a313_22e0adb2672e</title>
<path fill="none" stroke="black" d="M777.2,-265.94C818.46,-255.76 865.45,-243.29 907.62,-230 912.33,-228.52 917.11,-226.96 921.93,-225.35"/>
<text text-anchor="middle" x="904.43" y="-228.35" font-family="Times,serif" font-size="10.00">accounts</text>
<text text-anchor="middle" x="767.2" y="-257.94" font-family="Times,serif" font-size="10.00">bank</text>
</g>
<!-- 7ec351d6_652f_4691_8e72_ea432d44a0c8 -->
<g id="node8" class="node">
<title>7ec351d6_652f_4691_8e72_ea432d44a0c8</title>
<polygon fill="none" stroke="black" points="625.62,-209 625.62,-226 857.62,-226 857.62,-209 625.62,-209"/>
<text text-anchor="start" x="638.12" y="-216" font-family="Times,serif" text-decoration="underline" font-size="10.00">7ec351d6&#45;652f&#45;4691&#45;8e72&#45;ea432d44a0c8 :Account</text>
<polygon fill="none" stroke="black" points="625.62,-126 625.62,-209 857.62,-209 857.62,-126 625.62,-126"/>
<text text-anchor="start" x="628.62" y="-198" font-family="Times,serif" font-size="10.00">balance = 100.0</text>
<text text-anchor="start" x="628.62" y="-187" font-family="Times,serif" font-size="10.00">customerId = &quot;e2f7bc4c&#45;ef2a&#45;466e&#45;b8a5&#45;d24f48b13afe&quot;</text>
<text text-anchor="start" x="628.62" y="-176" font-family="Times,serif" font-size="10.00">iban = null</text>
<text text-anchor="start" x="628.62" y="-165" font-family="Times,serif" font-size="10.00">id = &quot;7ec351d6&#45;652f&#45;4691&#45;8e72&#45;ea432d44a0c8&quot;</text>
<text text-anchor="start" x="628.62" y="-154" font-family="Times,serif" font-size="10.00">receivedTransaction = </text>
<text text-anchor="start" x="628.62" y="-143" font-family="Times,serif" font-size="10.00">sentTransaction = </text>
<text text-anchor="start" x="628.62" y="-132" font-family="Times,serif" font-size="10.00">status = &quot;ACTIVE&quot;</text>
</g>
<!-- b&#45;&gt;7ec351d6_652f_4691_8e72_ea432d44a0c8 -->
<g id="edge8" class="edge">
<title>b&#45;&gt;7ec351d6_652f_4691_8e72_ea432d44a0c8</title>
<path fill="none" stroke="black" d="M682.67,-265.8C689.68,-255.25 698.06,-242.63 706.27,-230.25"/>
<text text-anchor="middle" x="688.77" y="-233.25" font-family="Times,serif" font-size="10.00">accounts</text>
<text text-anchor="middle" x="672.67" y="-257.8" font-family="Times,serif" font-size="10.00">bank</text>
</g>
<!-- e2f7bc4c_ef2a_466e_b8a5_d24f48b13afe -->
<g id="node9" class="node">
<title>e2f7bc4c_ef2a_466e_b8a5_d24f48b13afe</title>
<polygon fill="none" stroke="black" points="758.62,-65 758.62,-82 970.62,-82 970.62,-65 758.62,-65"/>
<text text-anchor="start" x="761.62" y="-72" font-family="Times,serif" text-decoration="underline" font-size="10.00">e2f7bc4c&#45;ef2a&#45;466e&#45;b8a5&#45;d24f48b13afe :Customer</text>
<polygon fill="none" stroke="black" points="758.62,-4 758.62,-65 970.62,-65 970.62,-4 758.62,-4"/>
<text text-anchor="start" x="770.12" y="-54" font-family="Times,serif" font-size="10.00">email = &quot;john@doe.ee&quot;</text>
<text text-anchor="start" x="770.12" y="-43" font-family="Times,serif" font-size="10.00">firstName = &quot;John&quot;</text>
<text text-anchor="start" x="770.12" y="-32" font-family="Times,serif" font-size="10.00">id = &quot;e2f7bc4c&#45;ef2a&#45;466e&#45;b8a5&#45;d24f48b13afe&quot;</text>
<text text-anchor="start" x="770.12" y="-21" font-family="Times,serif" font-size="10.00">lastName = &quot;Doe&quot;</text>
<text text-anchor="start" x="770.12" y="-10" font-family="Times,serif" font-size="10.00">password = &quot;pass1234&quot;</text>
</g>
<!-- b&#45;&gt;e2f7bc4c_ef2a_466e_b8a5_d24f48b13afe -->
<g id="edge10" class="edge">
<title>b&#45;&gt;e2f7bc4c_ef2a_466e_b8a5_d24f48b13afe</title>
<path fill="none" stroke="black" d="M797.7,-265.96C832.8,-256.37 863.94,-244.27 874.62,-230 905.42,-188.83 894.1,-127.05 881.1,-86.14"/>
<text text-anchor="middle" x="860.6" y="-89.14" font-family="Times,serif" font-size="10.00">customers</text>
<text text-anchor="middle" x="787.7" y="-257.96" font-family="Times,serif" font-size="10.00">bank</text>
</g>
<!-- 1eaf6f4c_4f92_4e04_bd87_c82be03265de -->
<g id="node10" class="node">
<title>1eaf6f4c_4f92_4e04_bd87_c82be03265de</title>
<polygon fill="none" stroke="black" points="1049.62,-65 1049.62,-82 1264.62,-82 1264.62,-65 1049.62,-65"/>
<text text-anchor="start" x="1052.62" y="-72" font-family="Times,serif" text-decoration="underline" font-size="10.00">1eaf6f4c&#45;4f92&#45;4e04&#45;bd87&#45;c82be03265de :Customer</text>
<polygon fill="none" stroke="black" points="1049.62,-4 1049.62,-65 1264.62,-65 1264.62,-4 1049.62,-4"/>
<text text-anchor="start" x="1061.62" y="-54" font-family="Times,serif" font-size="10.00">email = &quot;bobby@tt.ee&quot;</text>
<text text-anchor="start" x="1061.62" y="-43" font-family="Times,serif" font-size="10.00">firstName = &quot;Bob&quot;</text>
<text text-anchor="start" x="1061.62" y="-32" font-family="Times,serif" font-size="10.00">id = &quot;1eaf6f4c&#45;4f92&#45;4e04&#45;bd87&#45;c82be03265de&quot;</text>
<text text-anchor="start" x="1061.62" y="-21" font-family="Times,serif" font-size="10.00">lastName = &quot;Jackson&quot;</text>
<text text-anchor="start" x="1061.62" y="-10" font-family="Times,serif" font-size="10.00">password = &quot;secret&quot;</text>
</g>
<!-- b&#45;&gt;1eaf6f4c_4f92_4e04_bd87_c82be03265de -->
<g id="edge11" class="edge">
<title>b&#45;&gt;1eaf6f4c_4f92_4e04_bd87_c82be03265de</title>
<path fill="none" stroke="black" d="M945.15,-266C1062.29,-253.93 1173.73,-240.01 1182.62,-230 1217.37,-190.87 1198.32,-127.7 1179.28,-86.01"/>
<text text-anchor="middle" x="1158.78" y="-89.01" font-family="Times,serif" font-size="10.00">customers</text>
<text text-anchor="middle" x="935.15" y="-258" font-family="Times,serif" font-size="10.00">bank</text>
</g>
<!-- 12ef3dfd_66c4_48f2_b237_021f3cc4ef8a -->
<g id="node11" class="node">
<title>12ef3dfd_66c4_48f2_b237_021f3cc4ef8a</title>
<polygon fill="none" stroke="black" points="483.62,-65 483.62,-82 695.62,-82 695.62,-65 483.62,-65"/>
<text text-anchor="start" x="486.62" y="-72" font-family="Times,serif" text-decoration="underline" font-size="10.00">12ef3dfd&#45;66c4&#45;48f2&#45;b237&#45;021f3cc4ef8a :Customer</text>
<polygon fill="none" stroke="black" points="483.62,-4 483.62,-65 695.62,-65 695.62,-4 483.62,-4"/>
<text text-anchor="start" x="495.12" y="-54" font-family="Times,serif" font-size="10.00">email = &quot;johntest@doe.ee&quot;</text>
<text text-anchor="start" x="495.12" y="-43" font-family="Times,serif" font-size="10.00">firstName = &quot;johntest&quot;</text>
<text text-anchor="start" x="495.12" y="-32" font-family="Times,serif" font-size="10.00">id = &quot;12ef3dfd&#45;66c4&#45;48f2&#45;b237&#45;021f3cc4ef8a&quot;</text>
<text text-anchor="start" x="495.12" y="-21" font-family="Times,serif" font-size="10.00">lastName = &quot;Doe&quot;</text>
<text text-anchor="start" x="495.12" y="-10" font-family="Times,serif" font-size="10.00">password = &quot;pass1234&quot;</text>
</g>
<!-- b&#45;&gt;12ef3dfd_66c4_48f2_b237_021f3cc4ef8a -->
<g id="edge12" class="edge">
<title>b&#45;&gt;12ef3dfd_66c4_48f2_b237_021f3cc4ef8a</title>
<path fill="none" stroke="black" d="M634.9,-265.9C624.83,-255.8 614.68,-243.4 608.62,-230 587.82,-184.01 585.28,-125.26 586.49,-86.23"/>
<text text-anchor="middle" x="565.99" y="-89.23" font-family="Times,serif" font-size="10.00">customers</text>
<text text-anchor="middle" x="624.9" y="-257.9" font-family="Times,serif" font-size="10.00">bank</text>
</g>
<!-- sendItToTheBank&#45;&gt;c -->
<g id="edge13" class="edge">
<title>sendItToTheBank&#45;&gt;c</title>
<path fill="none" stroke="black" d="M245.7,-121.91C277.56,-101.55 312.01,-79.54 336.13,-64.12"/>
<text text-anchor="middle" x="318.63" y="-67.12" font-family="Times,serif" font-size="10.00">currency</text>
</g>
<!-- dcab9f96_5659_49f4_86e1_e32e97102fff&#45;&gt;c -->
<g id="edge14" class="edge">
<title>dcab9f96_5659_49f4_86e1_e32e97102fff&#45;&gt;c</title>
<path fill="none" stroke="black" d="M409.15,-121.72C398.32,-101.46 386.63,-79.58 378.42,-64.22"/>
<text text-anchor="middle" x="360.92" y="-67.22" font-family="Times,serif" font-size="10.00">currency</text>
</g>
<!-- dcab9f96_5659_49f4_86e1_e32e97102fff&#45;&gt;12ef3dfd_66c4_48f2_b237_021f3cc4ef8a -->
<g id="edge15" class="edge">
<title>dcab9f96_5659_49f4_86e1_e32e97102fff&#45;&gt;12ef3dfd_66c4_48f2_b237_021f3cc4ef8a</title>
<path fill="none" stroke="black" d="M499.44,-121.72C513.09,-109.96 527.36,-97.66 540.43,-86.4"/>
<text text-anchor="middle" x="527.93" y="-89.4" font-family="Times,serif" font-size="10.00">owner</text>
<text text-anchor="middle" x="483.44" y="-113.72" font-family="Times,serif" font-size="10.00">account</text>
</g>
<!-- 8a633aa5_907c_4e57_a313_22e0adb2672e&#45;&gt;c -->
<g id="edge16" class="edge">
<title>8a633aa5_907c_4e57_a313_22e0adb2672e&#45;&gt;c</title>
<path fill="none" stroke="black" d="M921.78,-133.12C906.03,-128.86 890.03,-125.01 874.62,-122 695.95,-87.15 643.24,-130.09 466.62,-86 446.33,-80.94 424.84,-72.26 407.09,-64.11"/>
<text text-anchor="middle" x="424.59" y="-67.11" font-family="Times,serif" font-size="10.00">currency</text>
</g>
<!-- 8a633aa5_907c_4e57_a313_22e0adb2672e&#45;&gt;1eaf6f4c_4f92_4e04_bd87_c82be03265de -->
<g id="edge17" class="edge">
<title>8a633aa5_907c_4e57_a313_22e0adb2672e&#45;&gt;1eaf6f4c_4f92_4e04_bd87_c82be03265de</title>
<path fill="none" stroke="black" d="M1091.95,-121.72C1101.74,-109.96 1111.97,-97.66 1121.34,-86.4"/>
<text text-anchor="middle" x="1108.84" y="-89.4" font-family="Times,serif" font-size="10.00">owner</text>
<text text-anchor="middle" x="1075.95" y="-113.72" font-family="Times,serif" font-size="10.00">account</text>
</g>
<!-- 7ec351d6_652f_4691_8e72_ea432d44a0c8&#45;&gt;c -->
<g id="edge18" class="edge">
<title>7ec351d6_652f_4691_8e72_ea432d44a0c8&#45;&gt;c</title>
<path fill="none" stroke="black" d="M617.31,-135.94C558.57,-117.25 495.18,-96.66 466.62,-86 448.78,-79.34 429.43,-71.32 412.62,-64.08"/>
<text text-anchor="middle" x="395.12" y="-67.08" font-family="Times,serif" font-size="10.00">currency</text>
</g>
<!-- 7ec351d6_652f_4691_8e72_ea432d44a0c8&#45;&gt;e2f7bc4c_ef2a_466e_b8a5_d24f48b13afe -->
<g id="edge19" class="edge">
<title>7ec351d6_652f_4691_8e72_ea432d44a0c8&#45;&gt;e2f7bc4c_ef2a_466e_b8a5_d24f48b13afe</title>
<path fill="none" stroke="black" d="M791.65,-121.72C802.69,-109.96 814.24,-97.66 824.81,-86.4"/>
<text text-anchor="middle" x="812.31" y="-89.4" font-family="Times,serif" font-size="10.00">owner</text>
<text text-anchor="middle" x="775.65" y="-113.72" font-family="Times,serif" font-size="10.00">account</text>
</g>
</g>
</svg>
